<svg width="24" height="24" viewBox="0 0 24 24" fill="none" xmlns="http://www.w3.org/2000/svg">
<path fill-rule="evenodd" clip-rule="evenodd" d="M12.2557 17.8983L16.6572 13.5483L3.52288 13.4883C3.3219 13.4875 3.12305 13.4471 2.93769 13.3694C2.75234 13.2918 2.58412 13.1783 2.44267 13.0355C2.30123 12.8927 2.18932 12.7235 2.11337 12.5374C2.03741 12.3513 1.9989 12.1521 2.00002 11.9511C2.00096 11.7503 2.04147 11.5516 2.11924 11.3664C2.19702 11.1812 2.31053 11.0131 2.45328 10.8718C2.59604 10.7305 2.76524 10.6188 2.95122 10.5429C3.1372 10.467 3.33631 10.4286 3.53717 10.4297L16.6686 10.4883L12.3257 6.09397C12.1842 5.95144 12.0721 5.78242 11.9959 5.59655C11.9198 5.41069 11.8809 5.21163 11.8817 5.01076C11.8825 4.80989 11.9229 4.61115 12.0006 4.42589C12.0782 4.24064 12.1916 4.07251 12.3343 3.93111C12.6228 3.64569 13.0127 3.48642 13.4185 3.4883C13.8243 3.49017 14.2128 3.65303 14.4986 3.94111L21.6415 11.154C21.8756 11.3908 22.0061 11.7109 22.0042 12.0439C22.0023 12.3769 21.8682 12.6955 21.6315 12.9297L14.4129 20.0725C14.1247 20.3579 13.7349 20.5171 13.3294 20.5152C12.9238 20.5134 12.5356 20.3505 12.25 20.0625C12.1082 19.9201 11.9959 19.7511 11.9195 19.5652C11.843 19.3793 11.804 19.1802 11.8045 18.9792C11.805 18.7782 11.8451 18.5793 11.9226 18.3938C12 18.2084 12.1132 18.04 12.2557 17.8983Z" fill="white"/>
</svg>
