<svg width="26" height="31" viewBox="0 0 26 31" fill="none" xmlns="http://www.w3.org/2000/svg">
<g clip-path="url(#clip0_1322_13203)">
<path d="M15.6589 20.4799C12.0254 21.7971 7.9555 18.9896 6.09361 14.1158C4.23173 9.24211 5.58175 4.35023 9.0729 3.02591C12.5641 1.70158 16.7764 4.51618 18.6027 9.38814C20.429 14.2601 19.1145 19.1538 15.6589 20.4799ZM9.89174 5.2074C7.70844 6.0618 6.99001 9.73653 8.31256 13.2633C9.63511 16.79 12.623 19.1154 14.8063 18.261C16.9896 17.4066 17.7419 13.7693 16.4194 10.2426C15.0968 6.71581 12.1089 4.39037 9.89174 5.2074Z" fill="#EECF6B"/>
<path d="M25.0955 24.3819L22.9304 17.4846C22.8757 17.3037 22.7855 17.1354 22.6651 16.9896C22.5447 16.8439 22.3966 16.7235 22.2292 16.6356C22.0619 16.5476 21.8787 16.4939 21.6904 16.4774C21.502 16.461 21.3123 16.4821 21.1322 16.5396C16.6678 16.9942 12.3417 18.3478 8.41442 20.5189C8.23347 20.5736 8.06524 20.6639 7.91948 20.7843C7.77372 20.9047 7.65336 21.0528 7.56542 21.2202C7.47748 21.3875 7.42373 21.5707 7.40727 21.759C7.3908 21.9474 7.41194 22.1371 7.4695 22.3172L9.63446 29.2145C15.1067 28.8971 20.4166 27.2375 25.0955 24.3819Z" fill="#EECF6B"/>
<path opacity="0.2" d="M20.7545 17.7497C17.4614 19.706 12.9049 21.1627 9.61647 21.6674C9.0796 21.7498 8.92875 22.4179 9.43681 22.6099C13.3427 24.0866 19.2015 22.7235 22.5627 21.1256C23.0755 20.8818 23.285 20.2793 23.0775 19.7508L22.5137 18.3151C22.2423 17.6243 21.3926 17.3706 20.7545 17.7497Z" fill="white"/>
</g>
<defs>
<clipPath id="clip0_1322_13203">
<rect width="16.6681" height="26.2405" fill="white" transform="translate(0.648438 6.33423) rotate(-21.4403)"/>
</clipPath>
</defs>
</svg>
