<svg width="18" height="28" viewBox="0 0 18 28" fill="none" xmlns="http://www.w3.org/2000/svg">
<g clip-path="url(#clip0_1322_13215)">
<path d="M9.4306 19.2601C5.57273 19.027 2.95137 14.8347 3.17673 9.62234C3.4021 4.40994 6.58276 0.455646 10.3128 0.625687C14.0428 0.795729 16.7921 5.05099 16.5348 10.2476C16.2775 15.4443 13.1287 19.4143 9.4306 19.2601ZM10.1986 2.953C7.85549 2.8707 5.73761 5.95847 5.55181 9.72046C5.36601 13.4824 7.18562 16.8027 9.5287 16.885C11.8718 16.9673 14.0059 13.9273 14.1917 10.1653C14.3775 6.40335 12.5579 3.08302 10.1986 2.953Z" fill="#EECF6B"/>
<path d="M16.5432 26.5897L17.2934 19.3996C17.315 19.2118 17.299 19.0216 17.2464 18.84C17.1937 18.6584 17.1055 18.4892 16.9868 18.342C16.8681 18.1949 16.7213 18.0728 16.5549 17.983C16.3886 17.8931 16.206 17.8372 16.0179 17.8186C11.7398 16.4639 7.23177 15.9894 2.76537 16.4235C2.57755 16.4019 2.38733 16.4179 2.20576 16.4706C2.02418 16.5233 1.85492 16.6115 1.70778 16.7302C1.56064 16.8489 1.4386 16.9957 1.34874 17.162C1.25887 17.3284 1.20298 17.5109 1.18434 17.699L0.434034 24.8891C5.58274 26.7697 11.1153 27.3538 16.5432 26.5897Z" fill="#EECF6B"/>
<path opacity="0.2" d="M15.191 18.7775C11.3919 19.2662 6.63154 18.7948 3.41289 17.9529C2.88741 17.8154 2.48381 18.3687 2.87391 18.7467C5.87292 21.6523 11.7915 22.7264 15.5108 22.5938C16.0782 22.5736 16.5097 22.1036 16.529 21.5362L16.5813 19.9947C16.6064 19.2529 15.9272 18.6828 15.191 18.7775Z" fill="white"/>
</g>
<defs>
<clipPath id="clip0_1322_13215">
<rect width="16.6681" height="26.2405" fill="white" transform="translate(1.26758 0.320068) rotate(1.94347)"/>
</clipPath>
</defs>
</svg>
