<svg width="27" height="32" viewBox="0 0 27 32" fill="none" xmlns="http://www.w3.org/2000/svg">
<g clip-path="url(#clip0_1322_13229)">
<path d="M16.182 20.5602C12.5914 21.9901 8.43582 19.311 6.42273 14.4978C4.40963 9.6845 5.6063 4.75287 9.05442 3.32022C12.5025 1.88757 16.8007 4.56933 18.7782 9.38191C20.7556 14.1945 19.5945 19.1268 16.182 20.5602ZM9.94095 5.4751C7.78538 6.39722 7.182 10.0926 8.61398 13.5763C10.046 17.0601 13.105 19.2911 15.2606 18.369C17.4162 17.4468 18.0545 13.7878 16.6226 10.304C15.1906 6.8203 12.1315 4.58926 9.94095 5.4751Z" fill="#EECF6B"/>
<path d="M25.7359 24.1681L23.3566 17.3418C23.2962 17.1626 23.2008 16.9972 23.076 16.8553C22.9511 16.7134 22.7992 16.5977 22.6292 16.515C22.4592 16.4323 22.2744 16.3843 22.0857 16.3738C21.8969 16.3632 21.7079 16.3902 21.5297 16.4534C17.0817 17.047 12.7999 18.535 8.94233 20.8276C8.76318 20.888 8.59785 20.9834 8.45592 21.1083C8.31398 21.2332 8.19831 21.385 8.11564 21.5551C8.03296 21.7251 7.98496 21.9099 7.97438 22.0986C7.9638 22.2874 7.99085 22.4763 8.054 22.6545L10.4332 29.4809C15.8928 28.9929 21.1484 27.1683 25.7359 24.1681Z" fill="#EECF6B"/>
<path opacity="0.2" d="M21.1898 17.6731C17.9593 19.7313 13.4505 21.3294 10.1794 21.9365C9.64541 22.0356 9.51549 22.7081 10.0293 22.8842C13.9794 24.2382 19.7927 22.6929 23.1024 20.9909C23.6074 20.7313 23.798 20.1224 23.574 19.6007L22.9657 18.1833C22.673 17.5013 21.8158 17.2743 21.1898 17.6731Z" fill="white"/>
</g>
<defs>
<clipPath id="clip0_1322_13229">
<rect width="16.6681" height="26.2405" fill="white" transform="translate(0.737305 6.88892) rotate(-23.2289)"/>
</clipPath>
</defs>
</svg>
