<svg xmlns="http://www.w3.org/2000/svg" width="50" height="50" fill="none"><circle cx="25" cy="25" r="25" fill="#fff"/><path fill="#00A323" fill-rule="evenodd" d="M13.725 44.988C6.527 41.341 2.44 33.888 2.44 25.565c0-12.809 9.873-23.13 22.56-23.13 12.628 0 22.562 10.404 22.562 23.13 0 8.324-4.573 16.041-11.266 19.423-6.786 3.426-15.803 3.426-22.57 0ZM11.04 33.565c4.934-5.671 11.701-17.24 13.973-25.131 2.25 7.892 9.015 19.46 14.13 25.131h-11.88v3.427c0 2.47 1.85 3.98 3.856 3.956 2.91-.038 6.67-1.486 9.14-5.586.694-1.155 2.805-5.161 2.805-9.795 0-9.871-8.062-18.503-18.062-18.503-10.112 0-18.062 8.385-18.062 18.503 0 4.634 1.222 6.944 2.904 9.876 2.31 4.02 6.13 5.467 9.187 5.505 2.202.027 3.71-1.995 3.74-3.944l-.03-3.439H11.04Z" clip-rule="evenodd"/></svg>