<svg width="51" height="50" viewBox="0 0 51 50" fill="none" xmlns="http://www.w3.org/2000/svg">
<circle cx="25.8184" cy="25" r="25" fill="white"/>
<path fill-rule="evenodd" clip-rule="evenodd" d="M14.5437 44.9903C7.34503 41.3428 3.25781 33.8908 3.25781 25.5667C3.25781 12.758 13.1304 2.4375 25.8166 2.4375C38.4458 2.4375 48.3798 12.8408 48.3798 25.5667C48.3798 33.8908 43.8066 41.6084 37.1134 44.9903C30.3271 48.4158 21.3107 48.4158 14.5437 44.9903ZM11.8574 33.5673C16.7918 27.8957 23.5588 16.3276 25.8301 8.43546C28.0795 16.3276 34.8457 27.8957 39.9607 33.5673H28.0795V36.9934C28.0795 39.4644 29.9302 40.9735 31.9364 40.9494C34.8457 40.9114 38.6056 39.4644 41.0757 35.3642C41.7706 34.209 43.8816 30.2025 43.8816 25.5688C43.8816 15.6976 35.8196 7.06641 25.8191 7.06641C15.7077 7.06641 7.75781 15.4513 7.75781 25.5688C7.75781 30.2025 8.97902 32.5129 10.6615 35.4449C12.9705 39.4644 16.7918 40.9114 19.8488 40.9494C22.0502 40.9771 23.5588 38.9546 23.5879 37.0058L23.5588 33.5673H11.8574Z" fill="#00A323"/>
</svg>
