<svg width="82" height="82" viewBox="0 0 82 82" fill="none" xmlns="http://www.w3.org/2000/svg">
<circle cx="41" cy="41" r="41" fill="white"/>
<path fill-rule="evenodd" clip-rule="evenodd" d="M22.5088 73.7867C10.703 67.8047 4 55.5835 4 41.9319C4 20.9256 20.191 4 40.9964 4C61.7083 4 78 21.0615 78 41.9319C78 55.5835 70.5 68.2402 59.5231 73.7867C48.3936 79.4044 33.6067 79.4044 22.5088 73.7867ZM18.1042 55.0513C26.1966 45.7499 37.2944 26.7783 41.0195 13.8351C44.7085 26.7783 55.805 45.7499 64.1935 55.0513H44.7085V60.6702C44.7085 64.7226 47.7435 67.1975 51.0337 67.158C55.805 67.0957 61.9712 64.7226 66.0222 57.9983C67.1619 56.1036 70.6238 49.5331 70.6238 41.9337C70.6238 25.745 57.4023 11.5898 41.0013 11.5898C24.4188 11.5898 11.3809 25.341 11.3809 41.9337C11.3809 49.5331 13.3836 53.3221 16.1429 58.1305C19.9297 64.7226 26.1965 67.0957 31.21 67.158C34.8204 67.2033 37.2944 63.8864 37.3422 60.6904L37.2944 55.0513H18.1042Z" fill="#00A323"/>
</svg>
