<svg xmlns="http://www.w3.org/2000/svg" width="97" height="39" fill="none"><g clip-path="url(#a)"><rect width="73.675" height="25.505" fill="#fff" fill-opacity=".7" rx="6" transform="rotate(-4.804 79.086 -128.982) skewX(-.006)"/><rect width="95.268" height="29.468" x=".866" y="8.666" fill="#fff" stroke="#10A656" stroke-dasharray="3.46 3.46" stroke-width="1.732" rx="5.134"/><path fill="#00A323" d="M26.342 28.735a.368.368 0 0 1-.249-.097.336.336 0 0 1-.096-.248v-6.862l-1.988 1.533a.313.313 0 0 1-.263.069.387.387 0 0 1-.22-.152l-.69-.898a.391.391 0 0 1-.07-.262.338.338 0 0 1 .152-.22l3.148-2.43a.435.435 0 0 1 .151-.07.565.565 0 0 1 .18-.027h1.463a.32.32 0 0 1 .235.096.336.336 0 0 1 .097.249v8.974a.336.336 0 0 1-.097.248.32.32 0 0 1-.235.097h-1.518Zm6.62 0a.368.368 0 0 1-.25-.097.336.336 0 0 1-.096-.248v-6.862l-1.988 1.533a.313.313 0 0 1-.262.069.388.388 0 0 1-.221-.152l-.69-.898a.39.39 0 0 1-.07-.262.338.338 0 0 1 .152-.22l3.148-2.43a.436.436 0 0 1 .152-.07.564.564 0 0 1 .18-.027h1.463a.32.32 0 0 1 .235.096.336.336 0 0 1 .096.249v8.974a.336.336 0 0 1-.096.248.32.32 0 0 1-.235.097H32.96Zm6.619 0a.368.368 0 0 1-.249-.097.336.336 0 0 1-.096-.248v-6.862l-1.988 1.533a.313.313 0 0 1-.263.069.388.388 0 0 1-.22-.152l-.69-.898a.391.391 0 0 1-.07-.262.338.338 0 0 1 .152-.22l3.148-2.43a.435.435 0 0 1 .151-.07.565.565 0 0 1 .18-.027h1.463a.32.32 0 0 1 .235.096.336.336 0 0 1 .097.249v8.974a.336.336 0 0 1-.097.248.32.32 0 0 1-.235.097h-1.518Zm6.78 0a.337.337 0 0 1-.248-.097.336.336 0 0 1-.096-.248v-.829c0-.073.018-.17.055-.29a.879.879 0 0 1 .29-.373l1.822-1.808a36.315 36.315 0 0 0 1.63-1.311c.423-.36.736-.686.938-.98.203-.295.304-.58.304-.857 0-.359-.101-.653-.304-.883-.193-.24-.51-.36-.953-.36-.294 0-.542.065-.745.194-.193.12-.345.28-.456.483a2.01 2.01 0 0 0-.22.663c-.028.12-.088.202-.18.248a.532.532 0 0 1-.262.07h-1.464a.298.298 0 0 1-.22-.083.313.313 0 0 1-.083-.207c.009-.424.096-.824.262-1.201.175-.378.419-.714.732-1.008.313-.295.69-.525 1.132-.69a4.062 4.062 0 0 1 1.505-.263c.773 0 1.421.129 1.946.387.525.248.92.593 1.187 1.035.267.442.4.953.4 1.532 0 .442-.091.852-.276 1.23a3.96 3.96 0 0 1-.773 1.09c-.34.34-.745.695-1.214 1.063l-1.63 1.629h3.756c.1 0 .184.032.248.097a.337.337 0 0 1 .097.248v1.174a.336.336 0 0 1-.097.248.336.336 0 0 1-.248.097h-6.834Zm8.75 0a.336.336 0 0 1-.248-.097.336.336 0 0 1-.096-.248v-.829c0-.073.018-.17.055-.29a.879.879 0 0 1 .29-.373l1.822-1.808a36.315 36.315 0 0 0 1.629-1.311c.423-.36.736-.686.939-.98.202-.295.303-.58.303-.857 0-.359-.1-.653-.303-.883-.194-.24-.511-.36-.953-.36-.294 0-.543.065-.745.194-.194.12-.346.28-.456.483-.11.203-.184.424-.22.663-.028.12-.088.202-.18.248a.532.532 0 0 1-.263.07h-1.463a.298.298 0 0 1-.22-.083.313.313 0 0 1-.084-.207c.01-.424.097-.824.263-1.201.175-.378.418-.714.731-1.008a3.34 3.34 0 0 1 1.132-.69 4.061 4.061 0 0 1 1.505-.263c.773 0 1.422.129 1.947.387.524.248.92.593 1.187 1.035.267.442.4.953.4 1.532 0 .442-.092.852-.276 1.23a3.96 3.96 0 0 1-.773 1.09c-.34.34-.745.695-1.215 1.063L58.19 26.87h3.755c.102 0 .184.032.249.097a.337.337 0 0 1 .096.248v1.174a.336.336 0 0 1-.096.248.337.337 0 0 1-.249.097h-6.833Zm8.75 0a.336.336 0 0 1-.248-.097.336.336 0 0 1-.097-.248v-.829c0-.073.019-.17.055-.29a.879.879 0 0 1 .29-.373l1.823-1.808a36.247 36.247 0 0 0 1.629-1.311c.423-.36.736-.686.938-.98.203-.295.304-.58.304-.857 0-.359-.101-.653-.304-.883-.193-.24-.51-.36-.952-.36-.295 0-.543.065-.746.194-.193.12-.345.28-.455.483-.11.203-.184.424-.221.663-.028.12-.087.202-.18.248a.532.532 0 0 1-.262.07h-1.463a.298.298 0 0 1-.221-.083.313.313 0 0 1-.083-.207c.01-.424.097-.824.262-1.201.175-.378.42-.714.732-1.008a3.34 3.34 0 0 1 1.132-.69 4.061 4.061 0 0 1 1.505-.263c.773 0 1.422.129 1.946.387.525.248.92.593 1.188 1.035.267.442.4.953.4 1.532 0 .442-.092.852-.276 1.23-.175.377-.433.74-.773 1.09-.34.34-.746.695-1.215 1.063l-1.63 1.629h3.756c.101 0 .184.032.249.097a.337.337 0 0 1 .096.248v1.174a.336.336 0 0 1-.097.248.337.337 0 0 1-.248.097h-6.834Z"/></g><defs><clipPath id="a"><path fill="#fff" d="M0 0h97v39H0z"/></clipPath></defs></svg>