<svg width="1920" height="873" viewBox="0 0 1920 873" fill="none" xmlns="http://www.w3.org/2000/svg">
<path d="M-407.454 1018.62C-407.454 1188.09 -91.5916 1286.83 231.772 1286.83C555.135 1286.83 851.297 1251.56 840.122 1018.62C840.122 849.144 527.921 673.484 204.558 673.484C-118.805 673.484 -407.454 849.144 -407.454 1018.62Z" fill="url(#paint0_linear_1504_12730)"/>
<path d="M1141.85 1025.61C1141.85 1190.66 1419.2 1286.83 1703.12 1286.83C1987.05 1286.83 2247.09 1252.48 2237.28 1025.61C2237.28 860.546 1963.15 689.463 1679.23 689.463C1395.3 689.463 1141.85 860.546 1141.85 1025.61Z" fill="url(#paint1_linear_1504_12730)"/>
<path d="M118.456 1048C118.456 1198.91 535.623 1286.83 962.696 1286.83C1389.77 1286.83 1780.92 1255.43 1766.16 1048C1766.16 897.097 1356.85 716.711 929.776 716.711C502.703 716.711 118.456 897.097 118.456 1048Z" fill="url(#paint2_linear_1504_12730)"/>
<path fill-rule="evenodd" clip-rule="evenodd" d="M1677.19 209.163C1666.3 191.971 1620.54 127.197 1623.79 49.3373C1590.92 51.4227 1512.37 216.604 1531.3 227.518C1546.12 236.062 1567.39 207.987 1567.39 207.987C1566.52 228.989 1478.18 326.64 1485.25 350.781C1492.33 374.922 1517.75 362.864 1536.45 356.107C1480.27 406.867 1418.53 493.705 1430.07 509.343C1441.6 524.982 1470.05 498.202 1470.05 498.202C1470.05 498.202 1442.24 527.118 1453.1 534.045C1460.56 538.797 1477.92 526.414 1477.92 526.414C1477.92 526.414 1421.67 592.135 1425.93 608.368C1428.02 616.336 1446.04 609.208 1446.04 609.208C1446.04 609.208 1371.27 678.97 1370.34 701.28C1369.41 723.589 1409.18 696.952 1409.18 696.952C1405.27 703.433 1382.84 732.444 1393.07 732.871C1410.47 734.294 1465.64 705.26 1465.64 705.26C1465.64 705.26 1412.68 763.78 1486.84 766.877C1491.26 767.062 1527.49 763.981 1551.88 750.104C1549.79 757.453 1548.13 775.831 1555.79 776.15C1563.44 776.47 1570.27 772.579 1576.72 762.721C1576.59 765.836 1577.87 781.522 1590.45 786.522C1616.34 796.812 1644.11 740.955 1644.11 740.955C1644.11 740.955 1643.23 770.974 1657.62 771.575C1672.02 772.176 1670.79 742.069 1670.79 742.069C1770.82 816.062 1765.41 750.685 1745.99 688.891C1755.17 696.582 1802.65 744.037 1810.46 725.104C1813.8 717.023 1807.03 705.848 1797.75 689.645C1806.11 698.367 1852.17 739.764 1871.44 722.208C1877.73 716.477 1796.89 636.238 1797.15 629.986C1813.81 644.592 1881.07 653.649 1815.5 604.58C1787.8 583.853 1763.59 563.067 1753.46 510.038C1753.46 510.038 1764.09 524.273 1773.05 514.445C1778.11 499.664 1731.79 434.374 1699.67 370.462C1708.04 380.394 1721.52 394.782 1733.74 387.65C1745.96 380.519 1720.04 345.932 1720.04 345.932C1720.04 345.932 1742.4 366.384 1748.66 356.501C1764.37 331.672 1657.6 269.842 1659.14 232.857C1662.52 238.685 1678.73 251.113 1685.81 239.657C1691.91 229.78 1682.47 217.501 1677.19 209.163Z" fill="#3F693E"/>
<path fill-rule="evenodd" clip-rule="evenodd" d="M1619.11 161.489C1614.82 140.083 1611.18 91.1619 1623.79 49.3371C1590.92 51.4225 1512.37 216.604 1531.3 227.517C1546.11 236.061 1567.39 207.987 1567.39 207.987C1566.52 228.988 1478.18 326.64 1485.25 350.781C1492.33 374.922 1517.75 362.864 1536.45 356.107C1480.27 406.867 1418.53 493.705 1430.07 509.343C1441.6 524.982 1470.05 498.202 1470.05 498.202C1470.05 498.202 1442.24 527.118 1453.1 534.045C1460.56 538.797 1477.91 526.414 1477.91 526.414C1477.91 526.414 1421.67 592.135 1425.93 608.368C1428.02 616.336 1446.04 609.208 1446.04 609.208C1446.04 609.208 1371.27 678.97 1370.34 701.279C1369.41 723.589 1409.18 696.952 1409.18 696.952C1405.27 703.432 1382.83 732.444 1393.07 732.871C1410.46 734.294 1465.64 705.26 1465.64 705.26C1465.64 705.26 1412.68 763.78 1486.84 766.877C1491.26 767.062 1527.49 763.981 1551.88 750.104C1549.78 757.453 1548.13 775.83 1555.79 776.15C1563.44 776.47 1570.27 772.579 1576.72 762.721C1576.59 765.836 1577.87 781.522 1590.45 786.522C1616.34 796.811 1629 712.669 1629 712.669C1710.34 746.122 1686.86 706.755 1676.95 680.689C1676.95 680.689 1695.61 697.063 1703.43 678.13C1706.76 670.049 1688.29 647.748 1679.01 631.545C1687.37 640.267 1735.64 674.465 1754.9 656.909C1761.19 651.179 1689.89 588.305 1690.15 582.053C1706.81 596.659 1778.44 601.842 1712.87 552.773C1698.38 541.93 1688.47 529.646 1688.98 517.515C1717.71 525.207 1690.49 481.412 1690.63 478.11C1690.63 478.11 1698.55 488.644 1707.51 478.815C1718.61 460.832 1683.75 404.188 1666.78 356.769C1666.78 356.769 1644.58 390.826 1627.07 382.339C1609.57 373.852 1620.41 338.049 1620.61 333.089C1618.71 335.545 1614.78 350.71 1603.59 347.285C1590.52 343.283 1604.52 285.664 1609.08 279.947C1608.77 319.256 1616.6 332.932 1632.31 298.053C1623.21 340.741 1629.86 341.586 1634.26 346.295C1640.22 350.33 1652.74 340.414 1654.66 326.892C1671.38 274.812 1616.81 216.472 1616.81 216.472C1622.32 222.917 1635.2 228.991 1642.28 217.535C1648.38 207.658 1623.4 182.896 1619.11 161.489Z" fill="#5C885C"/>
<path d="M1660.06 514.506C1675.01 508.414 1667.78 480.408 1666.72 455.597C1664.82 467.71 1658.79 491.933 1649.95 491.911C1639.5 491.886 1631.58 476.446 1630.77 474C1630.75 473.903 1630.72 473.806 1630.7 473.709C1630.7 473.757 1630.72 473.856 1630.77 474C1634.67 490.749 1624.37 519.985 1615.73 519.624C1608.79 519.334 1605.17 501.785 1604.23 493.046C1599.04 502.833 1586.28 521.526 1576.8 517.998C1571.72 516.106 1571.29 507.707 1572.69 498.378C1574.38 490.093 1576.63 481.858 1578.57 475.709C1576.47 481.562 1573.9 490.317 1572.69 498.378C1569.32 514.903 1568.18 531.63 1576.2 532.412C1588.24 533.587 1595.7 521.193 1597.92 514.85C1599.29 522.323 1605.7 537.59 1620.43 538.877C1635.15 540.163 1638.19 515.552 1637.87 503.085C1640.29 508.923 1648.11 519.38 1660.06 514.506Z" fill="#3F693E"/>
<path d="M1519.81 664.536C1532.07 661.099 1536.74 632.217 1537.54 618.206C1537.54 618.206 1525.98 643.745 1513.72 644.861C1503.72 645.771 1501.18 621.955 1501.18 621.955C1501.18 621.955 1486.09 670.86 1470 659.164C1463.15 654.185 1467.87 631.426 1467.87 631.426C1467.87 631.426 1445.09 655.204 1433.55 649.516C1422.15 643.898 1444.95 609.994 1444.95 609.994C1436.2 618.367 1410.85 637.866 1415.36 649.641C1421 664.36 1456.34 647.402 1456.17 651.345C1456.01 655.288 1452.21 683.109 1468.81 687.752C1482.08 691.466 1497.36 663.38 1499.98 650.542C1501.17 658.821 1507.55 667.974 1519.81 664.536Z" fill="#3F693E"/>
<path fill-rule="evenodd" clip-rule="evenodd" d="M1447.94 608.807C1437.78 623.878 1432.58 635.593 1432 642.456C1431.79 644.761 1432.11 646.475 1432.79 647.562C1433.48 648.643 1434.46 649.236 1436.08 649.396C1438.59 649.634 1442.54 648.511 1447.66 645.705C1452.8 642.908 1459.13 638.47 1466.59 632.231C1466.88 631.992 1467.29 631.951 1467.62 632.13C1467.96 632.309 1468.14 632.669 1468.08 633.032C1468.08 633.034 1468 633.53 1467.89 634.409C1467.77 635.287 1467.63 636.54 1467.49 638.027C1467.14 641.967 1466.92 647.57 1467.7 652.173C1468.09 654.473 1468.73 656.517 1469.67 657.946C1470.62 659.38 1471.74 660.184 1473.32 660.334C1474.46 660.434 1475.9 660.166 1477.69 659.328C1485.56 655.687 1490.98 646.276 1494.31 637.716C1495.98 633.444 1497.14 629.397 1497.88 626.427C1498.25 624.941 1498.52 623.723 1498.69 622.879C1498.87 622.035 1498.94 621.574 1498.95 621.574C1499.02 621.152 1499.39 620.846 1499.84 620.847C1500.28 620.846 1500.66 621.153 1500.73 621.574C1500.73 621.577 1500.79 621.913 1500.92 622.523C1501.37 624.661 1502.66 630.055 1504.85 634.943C1505.94 637.387 1507.27 639.7 1508.78 641.397C1510.31 643.105 1511.97 644.159 1513.77 644.316L1514.24 644.339C1516.3 644.377 1518.92 642.763 1521.52 640.11C1525.42 636.157 1529.29 630.093 1532.14 625.039C1533.57 622.51 1534.75 620.233 1535.57 618.59C1536.4 616.947 1536.86 615.946 1536.86 615.943C1537.06 615.502 1537.6 615.306 1538.05 615.503C1538.51 615.703 1538.72 616.219 1538.51 616.661C1538.51 616.681 1535.17 623.943 1530.54 631.234C1528.22 634.883 1525.58 638.54 1522.83 641.32C1520.08 644.083 1517.24 646.07 1514.24 646.088L1513.62 646.059C1510.81 645.803 1508.53 644.021 1506.7 641.685C1503.95 638.16 1502.05 633.236 1500.79 629.164C1499.53 625.095 1498.95 621.888 1498.95 621.867L1499.84 621.72L1500.73 621.869C1500.73 621.901 1499.41 629.618 1496 638.343C1492.58 647.054 1487.13 656.841 1478.49 660.907C1476.5 661.834 1474.74 662.213 1473.17 662.076C1470.95 661.891 1469.25 660.615 1468.13 658.869C1466.44 656.243 1465.75 652.52 1465.48 648.678C1465.22 644.838 1465.42 640.88 1465.69 637.868C1465.95 634.839 1466.29 632.768 1466.29 632.755L1467.18 632.892L1467.78 633.555C1460.26 639.845 1453.85 644.346 1448.56 647.228C1443.27 650.103 1439.11 651.403 1435.93 651.139C1433.88 650.975 1432.2 650.03 1431.24 648.452C1430.27 646.881 1429.97 644.814 1430.19 642.297C1430.87 634.833 1436.19 623.064 1446.42 607.85C1446.69 607.445 1447.25 607.334 1447.67 607.598C1448.09 607.862 1448.22 608.406 1447.94 608.807Z" fill="#2B5129"/>
<path d="M1653.99 329.858C1651.53 336.219 1643.56 348.464 1636.36 347.209C1619.1 344.199 1631.22 312.534 1631.98 297.08C1629.74 304.607 1624.21 318.338 1617.35 317.867C1609.01 317.294 1609.08 292.237 1609.38 279.866" stroke="#2B5129"/>
<path fill-rule="evenodd" clip-rule="evenodd" d="M1578.08 474.771C1572.4 492.038 1570.59 504.725 1571.89 511.488C1572.32 513.762 1573.09 515.324 1574.05 516.186C1575 517.039 1576.11 517.341 1577.71 517.056C1580.18 516.603 1583.68 514.448 1587.85 510.352C1592.03 506.263 1596.92 500.27 1602.39 492.236C1602.6 491.928 1602.99 491.777 1603.36 491.858C1603.73 491.94 1604 492.237 1604.05 492.601C1604.05 492.604 1604.11 493.102 1604.23 493.98C1604.36 494.856 1604.56 496.101 1604.84 497.567C1605.58 501.454 1606.88 506.907 1608.89 511.123C1609.89 513.231 1611.07 515.023 1612.36 516.143C1613.66 517.265 1614.96 517.733 1616.52 517.447C1617.64 517.235 1618.95 516.584 1620.45 515.291C1627.03 509.644 1629.69 499.114 1630.56 489.972C1631 485.407 1631.02 481.196 1630.93 478.136C1630.88 476.605 1630.8 475.361 1630.74 474.502C1630.68 473.642 1630.63 473.178 1630.63 473.177C1630.58 472.751 1630.86 472.355 1631.29 472.236C1631.71 472.114 1632.16 472.307 1632.35 472.691C1632.35 472.693 1632.5 473 1632.79 473.552C1633.81 475.486 1636.51 480.328 1639.95 484.437C1641.66 486.491 1643.57 488.355 1645.49 489.576C1647.42 490.805 1649.31 491.367 1651.09 491.026L1651.54 490.922C1653.54 490.397 1655.62 488.131 1657.39 484.872C1660.08 480.005 1662.15 473.117 1663.52 467.478C1664.2 464.656 1664.72 462.144 1665.07 460.339C1665.41 458.533 1665.58 457.445 1665.58 457.442C1665.65 456.963 1666.12 456.629 1666.61 456.693C1667.11 456.761 1667.44 457.202 1667.37 457.682C1667.37 457.704 1666.13 465.6 1663.66 473.876C1662.42 478.019 1660.87 482.255 1658.99 485.678C1657.1 489.085 1654.9 491.771 1652.02 492.604L1651.41 492.745C1648.64 493.264 1645.96 492.168 1643.56 490.419C1639.95 487.777 1636.79 483.555 1634.47 479.98C1632.15 476.405 1630.72 473.477 1630.71 473.459L1631.53 473.074L1632.43 472.975C1632.43 473.007 1633.27 480.791 1632.36 490.114C1631.44 499.427 1628.86 510.328 1621.65 516.593C1619.98 518.027 1618.39 518.87 1616.85 519.165C1614.66 519.59 1612.68 518.825 1611.13 517.448C1608.79 515.383 1607.11 511.989 1605.8 508.365C1604.51 504.74 1603.62 500.877 1603.06 497.906C1602.49 494.919 1602.25 492.835 1602.25 492.822L1603.15 492.71L1603.9 493.186C1598.38 501.286 1593.43 507.361 1589.13 511.573C1584.81 515.78 1581.17 518.162 1578.03 518.774C1576.02 519.174 1574.14 518.723 1572.79 517.465C1571.44 516.216 1570.58 514.308 1570.11 511.827C1568.73 504.461 1570.65 491.687 1576.35 474.264C1576.5 473.801 1577.01 473.54 1577.49 473.68C1577.96 473.82 1578.23 474.31 1578.08 474.771Z" fill="#2B5129"/>
<path d="M1856.18 558.457L1868.7 516.002C1867.05 515.6 1867.17 503.351 1864.8 502.988C1815.03 495.351 1609.18 508.079 1508.65 512.065C1512.76 527.014 1507.58 561.865 1505.94 584.392C1505.55 589.709 1508.88 593.703 1508.54 597.316L1529.57 610.68L1512.06 618.101L1506.93 633.634L1509.47 645.648C1570.48 632.961 1758.21 650.642 1846.14 665.057C1840.2 655.77 1854.1 610.758 1861.51 592.367L1858.61 579.709L1824.8 555.503L1856.18 558.457Z" fill="#A45526"/>
<path d="M1865.79 503.441C1829.6 494.581 1611.05 495.328 1505.74 499.503C1510.82 517.981 1507.41 565.833 1505.63 584.755L1526.66 598.118L1509.15 605.54L1506.56 633.087C1567.57 620.4 1755.29 638.081 1843.23 652.496C1837.29 643.209 1851.18 598.197 1858.6 579.805L1821.89 542.942L1853.27 545.896L1865.79 503.441Z" fill="#C17A48"/>
<mask id="mask0_1504_12730" style="mask-type:alpha" maskUnits="userSpaceOnUse" x="1505" y="496" width="361" height="157">
<path d="M1865.79 503.441C1829.6 494.581 1611.05 495.328 1505.74 499.503C1510.82 517.981 1507.41 565.833 1505.63 584.755L1526.66 598.118L1509.15 605.54L1506.56 633.087C1567.57 620.4 1755.29 638.081 1843.23 652.496C1837.29 643.209 1851.18 598.197 1858.6 579.805L1821.89 542.942L1853.27 545.896L1865.79 503.441Z" fill="#C17A48"/>
</mask>
<g mask="url(#mask0_1504_12730)">
<path d="M1509.72 511.606C1532.89 510.204 1583.48 505.751 1608.88 513.262C1634.29 520.774 1679.14 506.566 1696.35 508.698C1713.55 510.83 1772.05 531.183 1786.67 533.583C1801.29 535.984 1856.96 515.627 1859.86 517.436" stroke="url(#paint3_radial_1504_12730)" stroke-width="1.05955"/>
<path d="M1504.56 566.413C1527.73 565.01 1578.32 560.558 1603.72 568.069C1629.13 575.58 1673.98 561.372 1691.19 563.504C1708.39 565.636 1768.18 572.222 1782.8 574.622C1797.42 577.022 1851.8 570.433 1854.7 572.242" stroke="url(#paint4_radial_1504_12730)" stroke-width="1.05955"/>
<path d="M1502.68 575.521C1525.85 574.119 1574.85 581.152 1600.25 588.663C1625.65 596.174 1671.2 590.875 1688.41 593.007C1705.61 595.139 1765.41 601.724 1780.03 604.125C1794.65 606.525 1849.02 599.936 1851.92 601.745" stroke="url(#paint5_radial_1504_12730)" stroke-width="1.05955"/>
<path d="M1506.7 619.79C1529.87 618.388 1566.88 606.001 1592.28 613.512C1617.68 621.023 1664.88 609.084 1682.09 611.216" stroke="url(#paint6_linear_1504_12730)" stroke-width="1.05955"/>
<path d="M1506.51 534.854C1529.68 533.451 1594.28 521.548 1619.68 529.059C1645.09 536.57 1488.06 545.85 1505.27 547.982" stroke="url(#paint7_linear_1504_12730)" stroke-width="1.05955"/>
<path d="M1844.96 623.256C1821.75 623.07 1756.61 614.57 1731.63 623.403C1706.66 632.235 1863.95 633.27 1846.88 636.301" stroke="url(#paint8_linear_1504_12730)" stroke-width="1.05955"/>
</g>
<path d="M1701.36 645.796L1648.07 640.779L1643.94 777.083L1685.11 791.197L1701.36 645.796Z" fill="#A45526"/>
<path d="M1695.65 641.163L1642.37 636.146L1638.24 772.45L1679.4 786.565L1695.65 641.163Z" fill="#C17A48"/>
<path fill-rule="evenodd" clip-rule="evenodd" d="M1807.56 489.173C1828.68 475.193 1880.69 487.167 1861.88 507.155C1843.06 527.144 1795.11 497.412 1807.56 489.173Z" fill="url(#paint9_linear_1504_12730)"/>
<path fill-rule="evenodd" clip-rule="evenodd" d="M1562.62 499.691C1563.56 491.698 1553.08 487.657 1541.72 487.253C1526.95 486.727 1521.29 488.14 1517.19 489.526C1509.65 492.074 1504.8 499.622 1504.63 504.322C1504.2 516.462 1562.03 504.647 1562.62 499.691Z" fill="url(#paint10_linear_1504_12730)"/>
<path fill-rule="evenodd" clip-rule="evenodd" d="M1786.88 501.667C1801.06 510.975 1821.22 506.062 1808.71 491.854C1796.21 477.646 1778.53 496.182 1786.88 501.667Z" fill="#FEFEFE"/>
<path fill-rule="evenodd" clip-rule="evenodd" d="M1537.93 612.954C1527.19 611.482 1515.67 623.225 1526.5 626.829C1537.34 630.433 1544.26 613.821 1537.93 612.954Z" fill="#FEFEFE"/>
<path fill-rule="evenodd" clip-rule="evenodd" d="M1519.82 607.843C1519.25 611.917 1527.99 610.97 1528.53 608.164C1529.06 605.359 1520.37 603.928 1519.82 607.843Z" fill="#FEFEFE"/>
<g filter="url(#filter0_i_1504_12730)">
<path d="M1608.46 581.522C1616.57 585.364 1614.75 576.097 1612.99 574.632C1605.72 568.56 1592.91 581.47 1598.16 593.467C1603.42 605.415 1615.34 596.755 1615.34 596.755C1615.34 596.755 1615.52 593.951 1614.59 594.893C1607.89 599.804 1602.66 597.482 1601.55 591.753C1600.21 584.78 1607.84 573.793 1610.89 576.16C1612.46 577.37 1608.46 581.522 1608.46 581.522ZM1634.23 579.742C1635.71 576.606 1632.93 574.893 1630.02 574.754C1627.46 574.632 1624.58 574.889 1621.13 578.821C1616.38 584.22 1617.27 593.639 1619.39 596.702C1626.76 606.727 1638.06 591.425 1636.63 585.286C1640.18 584.222 1639.57 582.564 1639.57 582.564C1635.4 583.056 1633.26 580.289 1633.26 580.289L1628.98 582.058C1631.26 582.858 1633.29 588.038 1630.21 594.505C1627.03 601.163 1618.26 598.721 1622.66 587.135C1626.84 576.083 1634.23 579.742 1634.23 579.742ZM1639.6 579.95C1639.74 580.154 1639.79 580.107 1639.93 580.311C1642.06 578.982 1643.93 578.232 1643.75 581.876C1643.59 585.273 1640.32 601.058 1640.32 601.058C1642.61 601.612 1644.64 602.498 1644.64 602.498C1646.23 598.329 1645.28 592.313 1652.1 591.207C1655.49 590.432 1653.66 603.867 1656.99 605.556C1662.37 607.639 1666.02 601.693 1666.02 601.693L1665.75 601.137C1665.75 601.137 1663.99 602.83 1661.64 602.274C1655.89 599.581 1661.89 588.813 1655.1 588.291C1653.32 588.354 1651.87 588.63 1650.83 588.827C1651.78 585.516 1654.74 581.315 1656.9 578.605C1662.62 571.377 1662.55 578.085 1662.55 578.184C1665.78 582.878 1672.15 573.608 1662.14 573.229C1654.8 572.928 1650.63 583.635 1647.78 589.471C1648.62 583.44 1649.81 579.203 1647.21 577.747C1643.58 575.254 1639.6 579.95 1639.6 579.95ZM1661.22 627.67C1661.22 627.67 1666.93 630.114 1666.8 628.677C1665.3 614.589 1669.67 598.512 1672.49 589.171C1674.6 582.263 1680.13 580.257 1681.62 583.093C1681.94 583.65 1682.17 585.043 1682.18 586.87C1679.29 588.509 1676.57 590.55 1675.25 592.313C1672.82 595.603 1671.03 602.081 1675.04 603.012C1677.92 603.693 1683.41 601.438 1685.82 592.226C1686.32 590.128 1686.66 588.17 1686.74 586.446C1688.21 585.678 1689.27 585.234 1689.27 585.234L1689.43 583.86C1688.64 584.02 1687.68 584.32 1686.73 584.718C1686.62 580.716 1685.22 577.984 1683 576.891C1678.32 575.582 1674.38 580.674 1674.38 580.674L1674.12 577.75L1669.68 576.748L1661.22 627.67ZM1676 595.261C1676.9 593.033 1679.42 590.835 1682.02 589.133C1681.72 592.277 1680.81 595.984 1678.96 598.413C1675.12 603.411 1674.6 598.797 1676 595.261ZM1706.21 583.181C1707.69 580.045 1704.91 578.332 1702 578.193C1699.44 578.071 1696.56 578.328 1693.12 582.26C1688.36 587.659 1689.25 597.078 1691.37 600.141C1698.75 610.166 1710.04 594.864 1708.61 588.725C1712.17 587.661 1711.55 586.003 1711.55 586.003C1707.38 586.495 1705.24 583.728 1705.24 583.728L1700.96 585.497C1703.24 586.297 1705.27 591.477 1702.19 597.943C1699.01 604.602 1690.24 602.16 1694.64 590.574C1698.83 579.522 1706.21 583.181 1706.21 583.181ZM1722.12 575.7C1722.06 574.956 1726.6 557.357 1731.17 557.872C1735.44 558.372 1731.5 571.657 1722.12 575.7ZM1707.74 573.927C1707.11 573.502 1706.88 577.439 1707.65 577.772C1710.65 579.1 1712.58 578.945 1715.61 578.547C1712.04 594.318 1713.48 611.906 1726 605.003C1728.69 603.552 1730.88 600.054 1732.14 597.449C1734 593.64 1733.78 588.891 1732.93 586.087C1734.68 585.628 1735.94 584.108 1735.94 584.108L1735.29 583.337C1734.35 584.279 1733.26 584.424 1732.23 584.326C1730.46 581.033 1727.36 580.786 1724.46 583.658C1722.59 585.494 1725.57 588.203 1727.86 586.832C1727.86 586.832 1729.4 591.889 1728.52 595.648C1726.91 602.53 1723.74 606.82 1720.87 603.82C1716.03 598.753 1721.76 577.953 1721.76 577.953C1728.78 576.758 1740.86 564.849 1736.03 558.45C1733.25 554.713 1726.64 555.484 1723.76 559.887C1720.62 564.623 1717.86 569.722 1716.1 576.547C1713.88 576.589 1711.94 576.842 1707.74 573.927ZM1760.03 603.964C1759.94 603.713 1759.89 603.76 1759.75 603.556C1757.48 604.631 1755.57 605.232 1756.09 601.604C1756.6 598.223 1761.37 583.201 1761.37 583.201C1759.38 582.415 1757.36 580.196 1757.36 580.196C1755.06 583.887 1748.68 601.645 1745.41 600.847C1743.93 600.776 1744.73 596.521 1745.37 592.455C1746.21 587.313 1748.17 580.3 1745.56 579.041C1740.99 576.601 1738.23 581.602 1737.57 582.064L1738.23 582.688C1738.23 582.688 1739.81 580.592 1742.09 581.392C1742.81 581.969 1741.38 588.07 1740.53 593.556C1739.54 599.678 1737.34 606.433 1743.39 605.883C1747.42 606.372 1754.22 592.236 1754.22 592.236C1753.25 594.905 1751.05 601.758 1753.64 605.287C1757.01 608.114 1760.03 603.964 1760.03 603.964ZM1793.72 610.805C1790.23 610.49 1787.03 609.3 1781.04 609.607C1768.12 610.273 1768.45 619.912 1768.45 619.912C1771.76 617.849 1775.59 614.133 1794.21 614.134C1798.62 613.704 1799.22 607.317 1800.37 606.039C1800.63 605.854 1800.78 605.714 1800.78 605.714C1800.7 605.462 1800.66 605.165 1800.52 604.961C1798.25 606.036 1794.16 606.877 1794.68 603.25C1795.18 599.869 1799.95 584.847 1799.95 584.847C1797.96 584.061 1795.95 581.843 1795.95 581.843C1793.27 585.169 1786.94 603.028 1784.04 602.594C1782.56 602.523 1782.04 599.093 1782.68 595.027C1785.09 585.815 1786.07 582.901 1786.07 582.901C1784.08 582.115 1781.56 581.204 1781.56 581.204C1778.88 584.531 1774.17 601.481 1771.28 601.047C1769.8 600.976 1770.3 597.742 1770.94 593.677C1771.78 588.535 1773.74 581.522 1771.13 580.262C1766.56 577.823 1764.01 583.574 1763.14 583.286L1763.8 583.909C1763.8 583.909 1765.38 581.813 1767.66 582.614C1768.38 583.19 1766.95 589.291 1766.1 594.778C1765.11 600.9 1762.91 607.655 1768.96 607.105C1772.84 607.586 1779.35 594.375 1779.73 593.554C1778.49 596.802 1776.22 606.168 1782.31 607.841C1786.89 608.208 1791.85 596.304 1792.69 594.222C1791.66 597.085 1789.72 603.556 1792.23 606.933C1794.13 608.505 1796.63 607.933 1798.39 607.129C1797.63 608.672 1796.68 610.946 1793.72 610.805Z" fill="#874118"/>
</g>
<g filter="url(#filter1_i_1504_12730)">
<path d="M1764.98 519.031C1766.3 519.241 1769.14 519.055 1771.84 518.349C1771.25 517.759 1770.7 517.325 1770.2 516.996C1767.17 514.66 1756.14 511.878 1756.38 514.865C1756.25 517.784 1761.65 518.888 1764.98 519.031ZM1750.79 536.179C1751.23 534.248 1753.61 532.81 1761.98 533.99C1765.35 534.442 1768.24 535.284 1770.81 536.472C1773.64 534.951 1775.79 532.734 1776.26 530.188C1776.88 525.237 1775.5 522.766 1773.46 520.061L1771.74 520.552C1763.84 522.831 1755.78 520.433 1753.11 517.907C1750.55 515.488 1752.74 512.348 1758.5 511.979C1763.45 511.678 1769.24 513.003 1774.49 517.539C1776.95 516.566 1778.61 514.995 1778.18 512.822C1777.33 507.704 1767.42 508.871 1767.42 508.871L1767.27 508.711C1774.84 506.931 1778.67 509.866 1779.62 511.703C1780.57 513.437 1780.54 516.618 1776.18 518.946C1783.32 524.896 1781.17 531.784 1779.97 533.477C1779.01 535.54 1777.09 537.254 1774.72 538.59C1778.86 541.385 1781.84 545.053 1784.18 549.156C1790.27 559.167 1782.35 567.963 1782.35 567.963C1782.35 567.963 1772.9 581.107 1755.7 575.033C1738.72 568.559 1743.29 557.823 1743.29 557.823C1749.09 572.236 1770.52 575.462 1776.92 562.752C1779.65 556.506 1778.45 551.066 1776.36 547.025C1774.47 544.327 1772.62 542.092 1770.59 540.363C1761.68 543.317 1750.17 542.209 1750.79 536.179ZM1759.88 538.621C1762.23 538.876 1764.76 538.625 1767.04 537.953C1764.99 536.839 1762.76 536.127 1760.2 535.813C1758.37 535.58 1755.17 535.905 1754.88 536.663C1754.73 537.734 1757.78 538.429 1759.88 538.621Z" fill="#E63535"/>
</g>
<g filter="url(#filter2_i_1504_12730)">
<path d="M1575.67 514.358C1576.16 517.441 1579.4 516.955 1580 514.713C1580.24 513.787 1579.77 512.235 1578.14 512.157C1575.88 512.049 1575.67 514.358 1575.67 514.358ZM1582.69 514.151C1583.19 517.234 1586.42 516.747 1587.02 514.506C1587.26 513.579 1586.79 512.027 1585.17 511.95C1582.9 511.841 1582.69 514.151 1582.69 514.151ZM1579.44 522.336C1578.15 522.422 1574.92 521.775 1572.39 520.865C1573.01 520.351 1573.53 519.931 1574.73 519.495C1578.8 518.16 1587 517.959 1587.14 520.187C1587.01 522.994 1582.64 522.489 1579.44 522.336ZM1590.98 539.174C1590.72 537.286 1588.57 535.703 1580.46 536.105C1577.19 536.245 1574.35 536.8 1571.79 537.714C1569.2 536.011 1567.34 533.701 1567.11 531.223C1566.94 526.427 1568.48 524.181 1570.67 521.769L1572.27 522.389C1579.25 525.091 1586.16 525.174 1589.58 521.834C1592.02 519.482 1588.39 517.878 1586.87 517.608C1580.75 516.575 1575.76 516.485 1570.19 519.378C1567.93 518.233 1566.19 516.471 1566.78 514.427C1568.04 509.602 1577.43 511.58 1577.43 511.58L1577.59 511.439C1570.49 509.077 1566.57 511.554 1565.5 513.231C1564.44 514.809 1564.19 517.857 1568.17 520.465C1560.81 525.543 1562.27 532.324 1563.27 534.05C1564.01 536.108 1565.7 537.916 1567.86 539.401C1563.65 541.717 1560.48 544.971 1557.88 548.697C1551.18 557.753 1558 566.864 1558 566.864C1558 566.864 1565.9 580.27 1582.9 575.95C1599.72 571.226 1596.28 560.549 1596.28 560.549C1589.47 573.845 1568.67 575.073 1563.65 562.347C1561.57 556.128 1563.2 551.023 1565.55 547.336C1567.59 544.916 1569.56 542.938 1571.66 541.458C1579.93 545.061 1591.04 545 1590.98 539.174ZM1582.06 540.722C1579.79 540.761 1577.39 540.301 1575.26 539.459C1577.33 538.571 1579.52 538.083 1582 538.004C1583.78 537.941 1586.81 538.53 1587.02 539.281C1587.07 540.319 1584.09 540.72 1582.06 540.722ZM1616.48 558.307C1615.52 559.84 1613.61 560.489 1612.76 559.807C1608.98 556.221 1609.4 543.163 1610.17 536.34C1610.17 536.34 1597.26 535.92 1596.86 536.987C1596.86 536.987 1596.64 538.408 1597.69 539.149C1598.84 539.006 1599.93 538.812 1599.92 539.058C1599.01 552.932 1597.38 557.147 1594.26 560.354C1590 564.741 1579.1 564.516 1576.62 560.597C1575.65 560.255 1579.38 571.093 1591.78 567.935C1601.4 564.841 1604.16 540.149 1604.18 538.817C1604.92 538.803 1604.92 538.754 1605.46 538.78C1602.36 562.37 1609.37 562.557 1612.82 562.623C1614.14 562.785 1616.1 561.151 1617.38 559.09L1616.48 558.307ZM1632.94 541.474C1634.42 538.338 1631.64 536.625 1628.73 536.486C1626.17 536.364 1623.29 536.621 1619.85 540.553C1615.1 545.952 1615.98 555.371 1618.1 558.434C1625.48 568.459 1636.78 553.157 1635.34 547.018C1638.9 545.954 1638.29 544.296 1638.29 544.296C1634.11 544.788 1631.97 542.021 1631.97 542.021L1627.69 543.79C1629.98 544.59 1632 549.77 1628.93 556.236C1625.74 562.895 1616.97 560.453 1621.38 548.868C1625.56 537.815 1632.94 541.474 1632.94 541.474ZM1651.69 543.851C1651.44 543.937 1643.74 559.412 1649.37 562.444C1656.74 566.399 1660.06 553.628 1660.06 553.628L1659.49 553.156C1658.24 556.699 1653.57 561.411 1652.33 556.318C1651.03 551.518 1654.46 542.799 1655.59 540.78C1657.16 538.881 1654.28 537.115 1654.28 537.115C1650.28 544.327 1641.96 546.001 1643.75 540.51C1645.58 540.499 1646.39 538.91 1646.39 538.91C1648.76 533.84 1642.11 530.364 1640.63 538.634C1640.63 538.732 1640.57 538.828 1640.57 538.927C1639.17 539.304 1637.72 539.581 1637.72 539.581L1637.56 540.807C1638.5 540.901 1639.59 540.756 1640.49 540.601C1640.18 552.234 1650.69 544.099 1651.69 543.851ZM1660.33 542.734C1660.47 542.938 1660.52 542.891 1660.66 543.095C1662.8 541.766 1664.66 541.016 1664.49 544.66C1664.33 548.057 1661.05 563.842 1661.05 563.842C1663.35 564.396 1665.38 565.282 1665.38 565.282C1666.96 561.114 1666.02 555.097 1672.83 553.991C1676.23 553.216 1674.4 566.651 1677.73 568.34C1683.11 570.423 1686.75 564.477 1686.75 564.477L1686.48 563.922C1686.48 563.922 1684.72 565.614 1682.38 565.058C1676.63 562.365 1682.63 551.597 1675.84 551.075C1674.06 551.138 1672.61 551.414 1671.56 551.611C1672.51 548.3 1675.48 544.099 1677.63 541.389C1683.36 534.161 1683.29 540.869 1683.28 540.968C1686.52 545.662 1692.88 536.392 1682.88 536.013C1675.53 535.712 1671.37 546.42 1668.52 552.255C1669.35 546.224 1670.54 541.988 1667.95 540.531C1664.31 538.038 1660.33 542.734 1660.33 542.734ZM1703.14 543.891C1695.77 528.634 1676.28 556.229 1690.29 564.745C1695.14 567.691 1699.98 557.459 1699.98 557.459C1699.98 557.459 1698.2 565.764 1704.24 565.362C1706.87 565.191 1708.12 562.636 1708.64 561.032L1708.45 560.875C1704.08 566.687 1702.41 559.253 1702.49 557.579C1702.57 555.807 1703.76 546.536 1703.76 546.536L1700.55 545.445C1700.55 545.445 1699.22 556.634 1696.45 559.907C1694.72 561.946 1689.51 565.596 1690.66 557.015C1693.26 539.964 1703.1 544.826 1703.14 543.891Z" fill="#874118"/>
</g>
<path fill-rule="evenodd" clip-rule="evenodd" d="M1632.5 822.346C1728.07 860.793 1860.04 792.765 1768.26 736.586C1676.49 680.407 1576.16 799.688 1632.5 822.346Z" fill="url(#paint11_linear_1504_12730)"/>
<path fill-rule="evenodd" clip-rule="evenodd" d="M1762.59 831.22C1815.13 855.209 1858.57 822.879 1825.6 789.739C1781.12 750.876 1731.61 817.082 1762.59 831.22Z" fill="url(#paint12_linear_1504_12730)"/>
<path fill-rule="evenodd" clip-rule="evenodd" d="M229.457 209.605C240.734 193.353 287.789 132.311 287.789 56.5762C319.623 59.9342 389.199 223.513 370.377 233.343C355.642 241.039 336.119 212.915 336.119 212.915C336.119 233.343 417.939 331.747 410.09 354.902C402.242 378.056 378.04 365.317 360.162 357.997C412.65 409.564 469.078 496.389 457.246 511.106C445.414 525.824 418.872 498.666 418.872 498.666C418.872 498.666 444.701 527.872 433.873 534.158C426.444 538.47 410.09 525.742 410.09 525.742C410.09 525.742 462.043 591.839 457.246 607.429C454.891 615.081 437.683 607.429 437.683 607.429C437.683 607.429 507.454 678.201 507.454 699.902C507.454 721.603 469.919 694.124 469.919 694.124C473.455 700.576 494.06 729.656 484.104 729.656C467.155 730.332 414.756 699.902 414.756 699.902C414.756 699.902 463.813 758.874 391.672 758.874C387.371 758.874 352.318 754.413 329.197 739.949C330.934 747.17 331.793 765.082 324.348 765.082C316.902 765.082 310.429 761.027 304.568 751.193C304.568 754.223 302.69 769.403 290.273 773.747C264.715 782.689 240.013 727.325 240.013 727.325C240.013 727.325 239.653 756.51 225.648 756.51C211.643 756.51 214.064 727.325 214.064 727.325C113.931 795.117 121.832 731.854 143.199 672.639C133.975 679.734 85.9459 723.888 79.1228 705.187C76.2109 697.205 83.2345 686.628 92.9104 671.272C84.4389 679.401 38.0299 717.73 20.0325 699.902C14.1582 694.083 95.9087 619.447 95.9084 613.366C79.1378 626.873 13.4629 632.939 79.1228 587.952C106.858 568.949 131.207 549.747 143.199 498.666C143.199 498.666 132.292 512.058 123.991 502.15C119.678 487.592 167.304 426.073 201.088 365.317C192.559 374.621 178.882 388.045 167.304 380.625C155.727 373.205 182.305 340.671 182.305 340.671C182.305 340.671 159.758 359.624 154.087 349.774C139.839 325.028 246.023 269.319 246.023 233.343C242.503 238.865 226.262 250.276 219.851 238.865C214.324 229.027 223.988 217.487 229.457 209.605Z" fill="#3F693E"/>
<path fill-rule="evenodd" clip-rule="evenodd" d="M287.789 165.668C292.823 145.056 298.342 97.7003 287.789 56.5762C319.624 59.9342 389.2 223.513 370.378 233.343C355.643 241.039 336.119 212.915 336.119 212.915C336.119 233.343 417.94 331.747 410.091 354.902C402.242 378.056 378.04 365.317 360.162 357.997C412.651 409.564 469.078 496.389 457.246 511.106C445.414 525.824 418.872 498.666 418.872 498.666C418.872 498.666 444.702 527.872 433.874 534.158C426.444 538.47 410.091 525.742 410.091 525.742C410.091 525.742 462.043 591.839 457.246 607.429C454.892 615.081 437.683 607.429 437.683 607.429C437.683 607.429 507.455 678.201 507.455 699.902C507.455 721.603 469.919 694.124 469.919 694.124C473.456 700.576 494.06 729.656 484.104 729.656C467.156 730.332 414.757 699.902 414.757 699.902C414.757 699.902 463.813 758.874 391.673 758.874C387.372 758.874 352.318 754.413 329.198 739.949C330.935 747.17 331.794 765.082 324.348 765.082C316.903 765.082 310.43 761.027 304.568 751.193C304.568 754.223 302.691 769.403 290.273 773.747C264.716 782.689 255.827 700.471 255.827 700.471C175.492 729.656 199.889 692.383 210.564 667.474C210.564 667.474 191.787 682.617 184.963 663.915C182.051 655.934 200.889 635.027 210.564 619.671C202.093 627.801 153.835 659.051 135.838 641.222C129.964 635.403 201.749 577.243 201.749 571.161C184.978 584.668 115.213 586.796 180.873 541.809C195.382 531.868 205.504 520.341 205.504 508.542C177.29 514.845 205.504 473.423 205.504 470.212C205.504 470.212 197.378 480.119 189.077 470.212C179.031 452.3 215.181 398.711 233.58 353.354C233.58 353.354 253.757 387.325 271.097 379.794C288.437 372.262 279.368 337.058 279.368 332.233C281.118 334.695 284.323 349.58 295.32 346.708C308.173 343.352 296.915 286.835 292.727 281.099C291.434 319.282 283.269 332.243 269.432 297.738C276.533 339.558 270.048 340.109 265.584 344.503C259.633 348.18 247.872 338.042 246.559 324.835C232.439 273.586 287.789 219.15 287.789 219.15C282.178 225.185 269.428 230.561 263.017 219.15C257.49 209.311 282.756 186.28 287.789 165.668Z" fill="#5C885C"/>
<path d="M233.704 506.791C219.438 500.269 227.59 473.367 229.629 449.318C230.987 461.158 235.853 484.923 244.445 485.261C254.589 485.66 262.902 470.989 263.794 468.647C263.82 468.553 263.846 468.46 263.873 468.367C263.873 468.414 263.846 468.509 263.794 468.647C259.33 484.752 268.145 513.558 276.543 513.558C283.301 513.558 287.524 496.664 288.791 488.217C293.437 497.931 305.065 516.599 314.41 513.558C319.423 511.927 320.178 503.789 319.2 494.673C317.895 486.56 316.044 478.472 314.41 472.423C316.215 478.192 318.355 486.797 319.2 494.673C321.802 510.856 322.229 527.144 314.41 527.579C302.671 528.231 295.932 515.894 294.03 509.644C292.399 516.845 285.552 531.41 271.204 532.062C256.856 532.715 254.9 508.693 255.715 496.601C253.134 502.171 245.117 512.008 233.704 506.791Z" fill="#3F693E"/>
<path fill-rule="evenodd" clip-rule="evenodd" d="M228.341 487.001C229.533 500.345 220.067 512.094 207.201 513.243C194.334 514.393 182.935 504.508 181.743 491.165C180.551 477.821 190.016 466.072 202.883 464.922C215.751 463.771 227.148 473.657 228.341 487.001Z" fill="#F8B255"/>
<path fill-rule="evenodd" clip-rule="evenodd" d="M207.201 513.245C195.48 514.293 184.979 506.187 182.297 494.648C182.035 493.519 181.85 492.358 181.744 491.167C181.573 489.258 181.643 487.39 181.885 485.575C185.255 496.029 195.184 503.163 206.212 502.178C217.239 501.193 225.745 492.412 227.209 481.525C227.772 483.268 228.171 485.094 228.341 487.003C229.534 500.347 220.068 512.096 207.201 513.245Z" fill="#F49C3D"/>
<path fill-rule="evenodd" clip-rule="evenodd" d="M203.981 477.241C198.086 477.768 193.106 475.975 192.862 473.234C192.616 470.49 197.198 467.842 203.094 467.316C208.99 466.789 213.965 468.582 214.21 471.326C214.456 474.067 209.877 476.714 203.981 477.241Z" fill="#FCD074"/>
<path d="M363.81 658.162C352.048 654.326 348.682 626.093 348.469 612.455C348.469 612.455 358.66 637.723 370.523 639.304C380.195 640.593 383.627 617.569 383.627 617.569C383.627 617.569 396.294 665.67 412.393 654.965C419.248 650.408 415.59 628.117 415.59 628.117C415.59 628.117 436.738 652.129 448.176 647.075C459.474 642.082 438.711 608.235 438.711 608.235C446.87 616.722 470.691 636.683 465.833 647.934C459.76 661.997 426.137 644.098 426.137 647.934C426.137 651.769 428.694 678.937 412.393 682.773C399.353 685.841 385.652 657.949 383.627 645.377C382.136 653.367 375.573 661.997 363.81 658.162Z" fill="#3F693E"/>
<path fill-rule="evenodd" clip-rule="evenodd" d="M435.856 606.964C445.111 622.01 449.681 633.596 449.972 640.284C450.079 642.53 449.698 644.181 448.993 645.21C448.283 646.232 447.303 646.767 445.726 646.858C443.284 646.986 439.494 645.737 434.63 642.803C429.756 639.879 423.786 635.313 416.797 628.952C416.53 628.709 416.129 628.652 415.798 628.813C415.467 628.973 415.276 629.315 415.315 629.67C415.318 629.672 415.373 630.157 415.451 631.015C415.525 631.872 415.617 633.095 415.684 634.544C415.864 638.384 415.856 643.833 414.908 648.271C414.442 650.489 413.73 652.448 412.764 653.797C411.785 655.151 410.663 655.886 409.12 655.968C408.015 656.019 406.626 655.7 404.92 654.814C397.423 650.959 392.542 641.601 389.661 633.154C388.213 628.938 387.247 624.962 386.647 622.047C386.348 620.589 386.139 619.396 386.005 618.57C385.87 617.743 385.814 617.292 385.811 617.292C385.759 616.879 385.409 616.567 384.977 616.55C384.549 616.531 384.168 616.814 384.077 617.22C384.077 617.222 384.002 617.546 383.853 618.133C383.328 620.191 381.865 625.377 379.54 630.035C378.38 632.364 376.998 634.555 375.458 636.142C373.908 637.739 372.251 638.695 370.49 638.774L370.041 638.777C368.034 638.73 365.557 637.057 363.142 634.376C359.509 630.379 356.001 624.334 353.436 619.311C352.151 616.797 351.099 614.538 350.365 612.91C349.633 611.28 349.228 610.29 349.227 610.287C349.047 609.851 348.536 609.638 348.083 609.811C347.63 609.987 347.408 610.48 347.588 610.917C347.597 610.937 350.544 618.124 354.744 625.391C356.849 629.029 359.262 632.686 361.815 635.497C364.372 638.292 367.054 640.337 369.966 640.475L370.569 640.472C373.31 640.338 375.592 638.7 377.467 636.506C380.283 633.195 382.329 628.49 383.716 624.588C385.097 620.687 385.792 617.597 385.799 617.577L384.936 617.398L384.064 617.507C384.069 617.538 385.033 625.085 387.988 633.695C390.956 642.292 395.856 652.016 404.081 656.315C405.976 657.296 407.671 657.735 409.199 657.666C411.359 657.576 413.06 656.406 414.217 654.755C415.968 652.275 416.791 648.688 417.207 644.968C417.615 641.25 417.58 637.398 417.445 634.463C417.309 631.511 417.069 629.486 417.068 629.473L416.194 629.57L415.586 630.19C422.635 636.603 428.676 641.233 433.694 644.246C438.72 647.252 442.7 648.683 445.804 648.556C447.798 648.48 449.472 647.631 450.468 646.137C451.467 644.651 451.843 642.655 451.733 640.203C451.379 632.928 446.687 621.284 437.372 606.096C437.123 605.692 436.583 605.561 436.163 605.8C435.746 606.04 435.606 606.563 435.856 606.964Z" fill="#2B5129"/>
<path d="M247.093 327.743C249.217 334.019 256.466 346.233 263.508 345.305C280.391 343.082 269.9 311.844 269.789 296.807C271.659 304.207 276.478 317.765 283.15 317.585C291.274 317.367 292.225 293.033 292.436 281.009" stroke="#2B5129" stroke-width="1.14208"/>
<path fill-rule="evenodd" clip-rule="evenodd" d="M314.928 471.533C319.74 488.53 320.985 500.922 319.444 507.437C318.937 509.627 318.121 511.112 317.162 511.91C316.201 512.7 315.112 512.949 313.57 512.607C311.185 512.066 307.879 509.832 303.996 505.686C300.102 501.546 295.6 495.528 290.606 487.505C290.415 487.198 290.044 487.035 289.681 487.099C289.32 487.163 289.043 487.441 288.984 487.792C288.986 487.795 288.907 488.277 288.748 489.124C288.587 489.969 288.342 491.17 288.012 492.583C287.141 496.327 285.651 501.569 283.531 505.581C282.479 507.588 281.26 509.279 279.963 510.315C278.653 511.352 277.373 511.754 275.867 511.413C274.79 511.161 273.54 510.476 272.139 509.16C265.974 503.41 263.824 493.077 263.35 484.164C263.103 479.714 263.256 475.624 263.472 472.657C263.58 471.172 263.704 469.967 263.8 469.136C263.896 468.303 263.964 467.854 263.962 467.854C264.024 467.442 263.771 467.046 263.361 466.913C262.954 466.778 262.511 466.946 262.312 467.312C262.312 467.314 262.152 467.605 261.848 468.13C260.783 469.967 257.964 474.559 254.46 478.409C252.709 480.334 250.783 482.067 248.869 483.175C246.943 484.289 245.089 484.758 243.373 484.355L242.94 484.236C241.022 483.645 239.094 481.361 237.499 478.124C235.091 473.289 233.36 466.517 232.259 460.986C231.706 458.217 231.308 455.758 231.045 453.991C230.784 452.224 230.664 451.16 230.664 451.157C230.609 450.689 230.176 450.346 229.692 450.388C229.209 450.434 228.861 450.848 228.916 451.317C228.918 451.339 229.799 459.057 231.863 467.193C232.898 471.266 234.225 475.442 235.917 478.842C237.617 482.227 239.641 484.924 242.406 485.85L242.987 486.011C245.661 486.628 248.302 485.672 250.703 484.071C254.315 481.652 257.563 477.681 259.96 474.303C262.35 470.926 263.86 468.141 263.872 468.124L263.091 467.717L262.222 467.584C262.218 467.616 261.092 475.14 261.593 484.229C262.109 493.31 264.178 504 270.924 510.375C272.48 511.835 273.992 512.719 275.48 513.068C277.584 513.569 279.539 512.906 281.101 511.633C283.462 509.722 285.229 506.494 286.641 503.028C288.046 499.561 289.061 495.846 289.729 492.984C290.402 490.106 290.722 488.093 290.725 488.08L289.856 487.935L289.103 488.367C294.141 496.456 298.694 502.555 302.703 506.819C306.721 511.08 310.162 513.54 313.184 514.262C315.123 514.732 316.965 514.37 318.329 513.204C319.695 512.046 320.6 510.228 321.161 507.838C322.8 500.741 321.454 488.259 316.624 471.111C316.494 470.654 316.01 470.381 315.541 470.497C315.074 470.613 314.796 471.078 314.928 471.533Z" fill="#2B5129"/>
<path d="M386.57 678.53H310.182V777.149H386.57V678.53Z" fill="#F8B255"/>
<path d="M386.573 678.534L412.686 664.771V763.391L386.573 777.153V678.534Z" fill="#F49C3D"/>
<path fill-rule="evenodd" clip-rule="evenodd" d="M413.823 664.317L386.583 678.307V706.587L413.823 687.144V664.317Z" fill="#F8B255"/>
<path fill-rule="evenodd" clip-rule="evenodd" d="M309.083 678.53H386.558L413.677 664.312H335.615L309.083 678.53Z" fill="#FFF7B2"/>
<path d="M386.585 677.87L309.084 677.87L309.084 704.995L386.585 704.995L386.585 677.87Z" fill="#FCCD70"/>
<path d="M355.725 678.682H341.569V778.138H355.725V678.682Z" fill="#C23E22"/>
<path fill-rule="evenodd" clip-rule="evenodd" d="M329.796 667.644L404.552 669.096L399.579 671.717L321.72 671.761L329.796 667.644Z" fill="#E76A3B"/>
<path d="M355.724 678.682H341.569L363.186 664.153H377.341L355.724 678.682Z" fill="#E76A3B"/>
<path fill-rule="evenodd" clip-rule="evenodd" d="M361.686 668.235C365.759 670.687 367.15 669.07 371.847 673.192C376.523 677.294 386.948 679.092 388.968 669.939C389.176 669.002 390.152 662.268 387.954 664.599C383.659 669.151 378.706 671.663 373.105 668.953C368.999 666.965 365.746 664.334 361.686 668.235Z" fill="#C23E22"/>
<path fill-rule="evenodd" clip-rule="evenodd" d="M361.916 667.51C367.641 660.956 382.71 643.236 388.256 659.052C388.592 660.011 391.093 666.709 388.408 665.029C383.161 661.75 377.702 660.851 372.737 665.674C369.095 669.212 366.79 670.185 361.916 667.51Z" fill="#E76A3B"/>
<path fill-rule="evenodd" clip-rule="evenodd" d="M359.989 665.363C355.526 661.372 353.605 662.938 348.667 656.794C343.751 650.679 331.605 645.81 327.719 656.201C327.322 657.263 325.073 665.041 328.07 662.836C333.926 658.527 340.24 656.824 346.483 661.522C351.062 664.966 354.517 668.954 359.989 665.363Z" fill="#C23E22"/>
<path fill-rule="evenodd" clip-rule="evenodd" d="M359.59 666.165C351.705 672.487 330.876 689.687 326.809 669.372C326.562 668.14 324.657 659.496 327.591 662.201C333.32 667.484 339.688 669.983 346.388 665.528C351.301 662.259 354.207 661.7 359.59 666.165Z" fill="#C23E22"/>
<path d="M361.417 662.968H357.057C355.02 662.968 353.368 665.071 353.368 667.666C353.368 670.261 355.02 672.364 357.057 672.364H361.417C363.454 672.364 365.106 670.261 365.106 667.666C365.106 665.071 363.454 662.968 361.417 662.968Z" fill="#C23E22"/>
<path d="M361.132 662.809H357.351C355.585 662.809 354.152 664.633 354.152 666.883C354.152 669.134 355.585 670.958 357.351 670.958H361.132C362.899 670.958 364.331 669.134 364.331 666.883C364.331 664.633 362.899 662.809 361.132 662.809Z" fill="#E76A3B"/>
<path d="M326.423 726.167H247.79V786.939H326.423V726.167Z" fill="#C23E22"/>
<path d="M247.791 726.163L220.911 717.683V778.455L247.791 786.935V726.163Z" fill="#F08143"/>
<path fill-rule="evenodd" clip-rule="evenodd" d="M219.74 717.407L247.781 726.028V743.455L219.74 731.473V717.407Z" fill="#E76A3B"/>
<path fill-rule="evenodd" clip-rule="evenodd" d="M327.565 726.167H247.814L219.896 717.407H300.253L327.565 726.167Z" fill="#F08143"/>
<path d="M327.559 726.167H247.78V742.882H327.559V726.167Z" fill="#B5280A"/>
<path d="M294.119 726.261H279.548V787.548H294.119V726.261Z" fill="#FCCC70"/>
<path fill-rule="evenodd" clip-rule="evenodd" d="M234.393 721.97L229.296 720.352V781.084L234.251 783.67L234.393 721.97Z" fill="#FCCC70"/>
<path fill-rule="evenodd" clip-rule="evenodd" d="M306.241 719.46L229.287 720.355L234.407 721.971L314.555 721.998L306.241 719.46Z" fill="#FFF7B2"/>
<path d="M279.541 726.261H294.112L271.86 717.308H257.289L279.541 726.261Z" fill="#F8B255"/>
<path fill-rule="evenodd" clip-rule="evenodd" d="M273.413 719.82C269.219 721.332 267.787 720.335 262.953 722.874C258.14 725.403 247.408 726.511 245.328 720.87C245.115 720.293 244.11 716.143 246.373 717.58C250.793 720.385 255.893 721.934 261.657 720.263C265.885 719.038 269.232 717.417 273.413 719.82Z" fill="#FCCC70"/>
<path fill-rule="evenodd" clip-rule="evenodd" d="M273.172 719.374C267.278 715.335 251.766 704.416 246.057 714.162C245.712 714.753 243.137 718.881 245.901 717.846C251.302 715.824 256.921 715.271 262.034 718.243C265.781 720.423 268.155 721.022 273.172 719.374Z" fill="#FCCC70"/>
<path fill-rule="evenodd" clip-rule="evenodd" d="M275.176 718.053C279.771 715.594 281.748 716.559 286.831 712.773C291.892 709.004 304.395 706.004 308.395 712.407C308.804 713.062 311.119 717.855 308.033 716.496C302.006 713.841 295.506 712.792 289.08 715.686C284.366 717.809 280.809 720.266 275.176 718.053Z" fill="#FCCC70"/>
<path fill-rule="evenodd" clip-rule="evenodd" d="M275.582 718.547C283.699 722.444 305.14 733.042 309.328 720.523C309.582 719.764 311.543 714.437 308.523 716.104C302.625 719.36 296.071 720.9 289.173 718.155C284.116 716.14 281.124 715.796 275.582 718.547Z" fill="#FCCC70"/>
<path d="M278.186 716.582H273.697C271.6 716.582 269.9 717.878 269.9 719.477C269.9 721.076 271.6 722.373 273.697 722.373H278.186C280.282 722.373 281.982 721.076 281.982 719.477C281.982 717.878 280.282 716.582 278.186 716.582Z" fill="#F8B255"/>
<path d="M278.186 716.582H273.697C271.6 716.582 269.9 717.878 269.9 719.477C269.9 721.076 271.6 722.373 273.697 722.373H278.186C280.282 722.373 281.982 721.076 281.982 719.477C281.982 717.878 280.282 716.582 278.186 716.582Z" fill="#F49C3D"/>
<path d="M278.267 715.322H273.778C271.681 715.322 269.981 716.618 269.981 718.218C269.981 719.817 271.681 721.113 273.778 721.113H278.267C280.364 721.113 282.063 719.817 282.063 718.218C282.063 716.618 280.364 715.322 278.267 715.322Z" fill="#FCCD70"/>
<path fill-rule="evenodd" clip-rule="evenodd" d="M358.552 780.611C406.361 804.66 476.458 780.513 431.197 748.298C385.938 716.085 330.371 766.437 358.552 780.611Z" fill="url(#paint13_linear_1504_12730)"/>
<path fill-rule="evenodd" clip-rule="evenodd" d="M106.094 781.104C169.492 815.086 265.544 781.025 206.019 735.514C146.495 690.004 68.7243 761.075 106.094 781.104Z" fill="url(#paint14_linear_1504_12730)"/>
<path fill-rule="evenodd" clip-rule="evenodd" d="M204.82 772.657C187.654 792.393 238.864 807.027 253.876 788.844C268.887 770.662 218.6 756.815 204.82 772.657Z" fill="url(#paint15_linear_1504_12730)"/>
<path fill-rule="evenodd" clip-rule="evenodd" d="M253.131 373.479C253.743 380.32 248.89 386.343 242.295 386.932C235.699 387.521 229.856 382.454 229.244 375.614C228.633 368.774 233.485 362.751 240.081 362.161C246.678 361.571 252.52 366.639 253.131 373.479Z" fill="#D04F29"/>
<path fill-rule="evenodd" clip-rule="evenodd" d="M242.295 386.933C236.286 387.47 230.903 383.314 229.529 377.399C229.394 376.821 229.299 376.225 229.245 375.615C229.157 374.636 229.193 373.678 229.317 372.748C231.045 378.107 236.134 381.764 241.788 381.259C247.441 380.754 251.801 376.253 252.551 370.672C252.84 371.565 253.044 372.502 253.132 373.48C253.743 380.32 248.891 386.343 242.295 386.933Z" fill="#C23E22"/>
<path fill-rule="evenodd" clip-rule="evenodd" d="M240.644 368.476C237.622 368.746 235.07 367.827 234.944 366.422C234.819 365.015 237.167 363.658 240.19 363.388C243.212 363.118 245.762 364.037 245.888 365.444C246.014 366.849 243.667 368.206 240.644 368.476Z" fill="#E76F3B"/>
<path fill-rule="evenodd" clip-rule="evenodd" d="M377.585 591.026C378.208 597.995 373.264 604.132 366.544 604.732C359.824 605.333 353.87 600.17 353.248 593.201C352.625 586.232 357.569 580.095 364.289 579.495C371.009 578.894 376.962 584.057 377.585 591.026Z" fill="#F8B255"/>
<path fill-rule="evenodd" clip-rule="evenodd" d="M366.544 604.734C360.422 605.281 354.937 601.047 353.537 595.021C353.4 594.431 353.303 593.825 353.248 593.202C353.158 592.205 353.195 591.23 353.322 590.282C355.082 595.742 360.267 599.468 366.027 598.953C371.786 598.439 376.229 593.853 376.993 588.167C377.287 589.077 377.496 590.031 377.585 591.028C378.208 597.997 373.264 604.133 366.544 604.734Z" fill="#F49C3D"/>
<path fill-rule="evenodd" clip-rule="evenodd" d="M364.862 585.928C361.784 586.203 359.183 585.266 359.055 583.835C358.927 582.402 361.32 581.019 364.399 580.744C367.478 580.469 370.077 581.406 370.205 582.839C370.333 584.27 367.942 585.653 364.862 585.928Z" fill="#FCD074"/>
<path fill-rule="evenodd" clip-rule="evenodd" d="M332.67 250.444C333.293 257.413 328.349 263.55 321.629 264.15C314.909 264.751 308.955 259.588 308.333 252.619C307.71 245.65 312.654 239.513 319.374 238.913C326.094 238.312 332.047 243.475 332.67 250.444Z" fill="#F8B255"/>
<path fill-rule="evenodd" clip-rule="evenodd" d="M321.629 264.152C315.507 264.699 310.022 260.465 308.622 254.439C308.485 253.849 308.388 253.243 308.333 252.62C308.243 251.623 308.28 250.648 308.407 249.7C310.166 255.16 315.352 258.886 321.112 258.371C326.871 257.857 331.314 253.271 332.078 247.585C332.372 248.495 332.581 249.449 332.67 250.446C333.292 257.415 328.349 263.551 321.629 264.152Z" fill="#F49C3D"/>
<path fill-rule="evenodd" clip-rule="evenodd" d="M319.947 245.346C316.869 245.621 314.268 244.684 314.14 243.253C314.012 241.82 316.405 240.437 319.484 240.162C322.563 239.887 325.162 240.824 325.29 242.257C325.418 243.688 323.027 245.071 319.947 245.346Z" fill="#FCD074"/>
<path fill-rule="evenodd" clip-rule="evenodd" d="M148.565 669.007C149.609 680.691 141.321 690.978 130.055 691.985C118.789 692.992 108.808 684.337 107.764 672.653C106.72 660.969 115.008 650.682 126.274 649.675C137.541 648.667 147.521 657.324 148.565 669.007Z" fill="#D04F29"/>
<path fill-rule="evenodd" clip-rule="evenodd" d="M130.056 691.987C119.792 692.904 110.598 685.806 108.25 675.703C108.021 674.715 107.858 673.698 107.765 672.655C107.616 670.983 107.677 669.348 107.889 667.759C110.84 676.913 119.533 683.159 129.19 682.296C138.845 681.433 146.292 673.746 147.574 664.213C148.067 665.739 148.417 667.338 148.566 669.009C149.61 680.693 141.322 690.98 130.056 691.987Z" fill="#C23E22"/>
<path fill-rule="evenodd" clip-rule="evenodd" d="M127.236 660.461C122.074 660.922 117.714 659.352 117.5 656.952C117.285 654.55 121.297 652.231 126.459 651.77C131.621 651.309 135.978 652.879 136.193 655.282C136.408 657.682 132.398 660 127.236 660.461Z" fill="#E76F3B"/>
<path fill-rule="evenodd" clip-rule="evenodd" d="M391.508 457.907C392.278 466.527 386.164 474.116 377.853 474.859C369.541 475.601 362.178 469.216 361.408 460.597C360.638 451.977 366.752 444.388 375.064 443.645C383.375 442.902 390.738 449.288 391.508 457.907Z" fill="#D04F29"/>
<path fill-rule="evenodd" clip-rule="evenodd" d="M377.853 474.86C370.281 475.537 363.498 470.301 361.766 462.848C361.597 462.118 361.477 461.368 361.408 460.599C361.298 459.366 361.343 458.159 361.5 456.987C363.677 463.74 370.09 468.348 377.214 467.711C384.337 467.075 389.831 461.403 390.776 454.371C391.14 455.496 391.398 456.676 391.508 457.909C392.278 466.528 386.164 474.118 377.853 474.86Z" fill="#C23E22"/>
<path fill-rule="evenodd" clip-rule="evenodd" d="M375.773 451.603C371.965 451.943 368.748 450.785 368.59 449.014C368.432 447.242 371.391 445.532 375.2 445.191C379.008 444.851 382.222 446.01 382.381 447.782C382.539 449.552 379.581 451.263 375.773 451.603Z" fill="#E76F3B"/>
<path fill-rule="evenodd" clip-rule="evenodd" d="M321.639 54.3821C321.639 54.3821 332.528 85.2255 327.173 87.4006C321.818 89.5761 303.067 71.3631 303.067 71.3631C303.067 71.3631 284.929 90.7047 278.37 86.8915C271.81 83.0783 281.546 58.7257 281.546 58.7257C281.546 58.7257 253.293 45.6098 256.238 39.6522C259.183 33.6944 283.479 32.1515 283.479 32.1515C283.479 32.1515 289.213 10.7497 294.567 8.57158C299.923 6.39605 309.833 32.8624 309.833 32.8624C309.833 32.8624 339.024 40.1193 340.817 46.0958C342.609 52.0718 321.639 54.3821 321.639 54.3821Z" fill="#D04F29"/>
<path fill-rule="evenodd" clip-rule="evenodd" d="M327.641 87.1018C329.59 85.3161 328.427 78.1076 326.624 70.91C324.553 62.6388 321.638 54.3806 321.638 54.3806C321.637 54.3811 335.594 52.8442 339.762 49.0333C340.12 48.7063 340.404 48.3612 340.604 48.0009C340.898 47.4624 341.001 46.8875 340.862 46.273C340.848 46.2135 340.832 46.1539 340.815 46.0947C340.812 46.0868 340.811 46.082 340.81 46.0768C340.808 46.0725 340.807 46.0699 340.806 46.0651C340.804 46.0629 340.804 46.0598 340.803 46.0577C340.802 46.0529 340.801 46.0508 340.8 46.0482C340.798 46.0439 340.798 46.0408 340.797 46.0387C340.796 46.036 340.796 46.0339 340.794 46.0296C340.793 46.0265 340.792 46.0217 340.79 46.0169C340.79 46.0169 340.789 46.0143 340.788 46.0127C340.508 45.1901 339.702 44.3443 338.543 43.4965C330.786 47.0191 307.579 42.6819 307.579 42.6819C307.579 42.6819 309.825 58.9388 305.216 63.1533C304.873 63.4667 304.488 63.7158 304.064 63.8846C297.954 66.3093 291.189 46.2568 291.189 46.2568C291.188 46.2573 290.774 51.9988 284.243 57.9703C283.243 58.885 282.099 59.8051 280.793 60.7083C280.288 62.0924 279.586 64.0977 278.879 66.402C278.879 66.402 278.879 66.402 278.877 66.4035C278.877 66.4097 278.874 66.4163 278.872 66.4244C278.395 67.9799 277.916 69.6689 277.493 71.3906C276.839 74.0494 276.32 76.7878 276.156 79.229L276.155 79.2284C275.975 81.8195 276.194 84.0775 277.067 85.5597C277.068 85.5613 277.07 85.5661 277.072 85.5677C277.073 85.5694 277.076 85.5727 277.076 85.5763C277.079 85.5801 277.081 85.5844 277.084 85.5877C277.085 85.5888 277.086 85.5894 277.087 85.591C277.417 86.1434 277.84 86.5823 278.368 86.8904C280.755 88.2766 284.671 86.6002 288.692 83.9065C288.699 83.8997 288.707 83.8956 288.715 83.8914C288.721 83.8856 288.728 83.8824 288.733 83.878C291.773 81.8337 294.867 79.2139 297.4 76.898C300.713 73.8693 303.065 71.362 303.065 71.362C303.065 71.362 319.409 87.2385 325.937 87.5739C326.401 87.5995 326.815 87.5446 327.171 87.3995C327.344 87.329 327.501 87.23 327.641 87.1018Z" fill="#C23E22"/>
<defs>
<filter id="filter0_i_1504_12730" x="1596.93" y="556.061" width="203.849" height="73.0693" filterUnits="userSpaceOnUse" color-interpolation-filters="sRGB">
<feFlood flood-opacity="0" result="BackgroundImageFix"/>
<feBlend mode="normal" in="SourceGraphic" in2="BackgroundImageFix" result="shape"/>
<feColorMatrix in="SourceAlpha" type="matrix" values="0 0 0 0 0 0 0 0 0 0 0 0 0 0 0 0 0 0 127 0" result="hardAlpha"/>
<feOffset dy="1.05955"/>
<feComposite in2="hardAlpha" operator="arithmetic" k2="-1" k3="1"/>
<feColorMatrix type="matrix" values="0 0 0 0 0 0 0 0 0 0 0 0 0 0 0 0 0 0 0.25 0"/>
<feBlend mode="normal" in2="shape" result="effect1_innerShadow_1504_12730"/>
</filter>
<filter id="filter1_i_1504_12730" x="1742.73" y="508.159" width="43.7471" height="68.4766" filterUnits="userSpaceOnUse" color-interpolation-filters="sRGB">
<feFlood flood-opacity="0" result="BackgroundImageFix"/>
<feBlend mode="normal" in="SourceGraphic" in2="BackgroundImageFix" result="shape"/>
<feColorMatrix in="SourceAlpha" type="matrix" values="0 0 0 0 0 0 0 0 0 0 0 0 0 0 0 0 0 0 127 0" result="hardAlpha"/>
<feOffset dy="1.05955"/>
<feComposite in2="hardAlpha" operator="arithmetic" k2="-1" k3="1"/>
<feColorMatrix type="matrix" values="0 0 0 0 0 0 0 0 0 0 0 0 0 0 0 0 0 0 0.25 0"/>
<feBlend mode="normal" in2="shape" result="effect1_innerShadow_1504_12730"/>
</filter>
<filter id="filter2_i_1504_12730" x="1554.93" y="510.468" width="153.713" height="66.3398" filterUnits="userSpaceOnUse" color-interpolation-filters="sRGB">
<feFlood flood-opacity="0" result="BackgroundImageFix"/>
<feBlend mode="normal" in="SourceGraphic" in2="BackgroundImageFix" result="shape"/>
<feColorMatrix in="SourceAlpha" type="matrix" values="0 0 0 0 0 0 0 0 0 0 0 0 0 0 0 0 0 0 127 0" result="hardAlpha"/>
<feOffset dy="1.05955"/>
<feComposite in2="hardAlpha" operator="arithmetic" k2="-1" k3="1"/>
<feColorMatrix type="matrix" values="0 0 0 0 0 0 0 0 0 0 0 0 0 0 0 0 0 0 0.25 0"/>
<feBlend mode="normal" in2="shape" result="effect1_innerShadow_1504_12730"/>
</filter>
<linearGradient id="paint0_linear_1504_12730" x1="238.934" y1="754.723" x2="388.027" y2="1128.6" gradientUnits="userSpaceOnUse">
<stop stop-color="white"/>
<stop offset="1" stop-color="#E7FCF9"/>
</linearGradient>
<linearGradient id="paint1_linear_1504_12730" x1="1709.41" y1="768.586" x2="1865.55" y2="1121.56" gradientUnits="userSpaceOnUse">
<stop stop-color="white"/>
<stop offset="1" stop-color="#E7FCF9"/>
</linearGradient>
<linearGradient id="paint2_linear_1504_12730" x1="943" y1="1155" x2="1054.54" y2="708.887" gradientUnits="userSpaceOnUse">
<stop stop-color="white"/>
<stop offset="0.704151" stop-color="#FCFFFF"/>
<stop offset="1" stop-color="#ECFFFC"/>
</linearGradient>
<radialGradient id="paint3_radial_1504_12730" cx="0" cy="0" r="1" gradientUnits="userSpaceOnUse" gradientTransform="translate(1535.13 513.599) rotate(2.08896) scale(133.252 1717.99)">
<stop stop-color="#AF6032"/>
<stop offset="1" stop-color="#AF6032" stop-opacity="0.32"/>
</radialGradient>
<radialGradient id="paint4_radial_1504_12730" cx="0" cy="0" r="1" gradientUnits="userSpaceOnUse" gradientTransform="translate(1468.06 562.577) rotate(1.16774) scale(416.532 5355.94)">
<stop stop-color="#AF6032"/>
<stop offset="0.555241" stop-color="#AF6032" stop-opacity="0.36"/>
<stop offset="1" stop-color="#AF6032"/>
</radialGradient>
<radialGradient id="paint5_radial_1504_12730" cx="0" cy="0" r="1" gradientUnits="userSpaceOnUse" gradientTransform="translate(1527.63 583.156) rotate(3.89863) scale(133.465 775.392)">
<stop stop-color="#AF6032"/>
<stop offset="1" stop-color="#AF6032" stop-opacity="0.32"/>
</radialGradient>
<linearGradient id="paint6_linear_1504_12730" x1="1549.72" y1="598.377" x2="1649.73" y2="672.321" gradientUnits="userSpaceOnUse">
<stop stop-color="#AF6032"/>
<stop offset="1" stop-color="#AF6032" stop-opacity="0"/>
</linearGradient>
<linearGradient id="paint7_linear_1504_12730" x1="1534.05" y1="519.641" x2="1618.61" y2="556.783" gradientUnits="userSpaceOnUse">
<stop stop-color="#AF6032"/>
<stop offset="1" stop-color="#AF6032" stop-opacity="0"/>
</linearGradient>
<linearGradient id="paint8_linear_1504_12730" x1="1816.66" y1="609.508" x2="1734.16" y2="651.032" gradientUnits="userSpaceOnUse">
<stop stop-color="#AF6032"/>
<stop offset="1" stop-color="#AF6032" stop-opacity="0"/>
</linearGradient>
<linearGradient id="paint9_linear_1504_12730" x1="1836.16" y1="485.889" x2="1818.92" y2="508.789" gradientUnits="userSpaceOnUse">
<stop stop-color="white"/>
<stop offset="1" stop-color="#EFFDFB"/>
</linearGradient>
<linearGradient id="paint10_linear_1504_12730" x1="1526.26" y1="500.151" x2="1550.38" y2="515.401" gradientUnits="userSpaceOnUse">
<stop stop-color="white"/>
<stop offset="1" stop-color="#E5FDF9"/>
</linearGradient>
<linearGradient id="paint11_linear_1504_12730" x1="1680.61" y1="749.826" x2="1728.69" y2="806.36" gradientUnits="userSpaceOnUse">
<stop stop-color="white"/>
<stop offset="1" stop-color="#E1FAF6"/>
</linearGradient>
<linearGradient id="paint12_linear_1504_12730" x1="1786.21" y1="782.757" x2="1809.16" y2="822.89" gradientUnits="userSpaceOnUse">
<stop stop-color="white"/>
<stop offset="1" stop-color="#E8F8F5"/>
</linearGradient>
<linearGradient id="paint13_linear_1504_12730" x1="399.941" y1="737.882" x2="431.013" y2="774.424" gradientUnits="userSpaceOnUse">
<stop stop-color="white"/>
<stop offset="1" stop-color="#EFFDFB"/>
</linearGradient>
<linearGradient id="paint14_linear_1504_12730" x1="164.293" y1="720.79" x2="206.845" y2="770.308" gradientUnits="userSpaceOnUse">
<stop stop-color="white"/>
<stop offset="1" stop-color="#EFFDFB"/>
</linearGradient>
<linearGradient id="paint15_linear_1504_12730" x1="201.34" y1="780.603" x2="220.53" y2="810.304" gradientUnits="userSpaceOnUse">
<stop stop-color="white"/>
<stop offset="1" stop-color="#EFFDFB"/>
</linearGradient>
</defs>
</svg>
