<svg xmlns="http://www.w3.org/2000/svg" width="385" height="185" fill="none"><path fill="#247062" d="M15.417 20.86c7.48-8.253 12.726-11.625 22.255-13.424 15.828-2.99 42.101 6.313 63.555 13.424 24.377 8.08 57.573 14.68 69.486 14.68 15.017 0 63.595-3.589 79.949-4.99 16.354-1.402 37.769-17.966 67.28-12.758 9.171 1.618 13.914 5.988 20.31 12.757 10.455 11.065 3.911 23.515 12.601 38.308 5.455 9.287 15.78 13.258 22.3 21.008 14.326 17.026 13.321 34.342 5.078 50.598-8.077 15.927-21.558 13.179-39.013 16.95-21.114 4.561-35.899-13.082-55.59-4.202-10.954 4.941-9.163 18.167-19.715 23.917-15.197 8.281-42.113-2.263-53.327-2.263-11.214 0-29.146 5.146-45.032 5.146-23.485 0-63.439 13.102-75.843-5.146-12.404-18.248-1.677-33.491-10.256-46.967-5.735-9.008-19.742-10.863-31.486-12.333-26.9-3.367-17.158-23.298-28.372-39.184C8.383 60.494 3.39 34.13 15.417 20.86Z"/><path fill="#fff" d="M7.948 14.456c7.48-8.254 12.725-11.625 22.254-13.424 15.828-2.99 42.102 6.313 63.555 13.424 24.378 8.08 57.574 14.68 69.486 14.68 15.018 0 63.595-3.59 79.949-4.99 16.354-1.403 37.77-17.966 67.28-12.758 9.171 1.618 13.914 5.988 20.31 12.757 10.455 11.065 3.911 23.515 12.601 38.308 5.455 9.287 15.78 13.258 22.301 21.008 14.325 17.026 13.32 34.342 5.077 50.598-8.077 15.927-21.558 13.179-39.013 16.95-21.113 4.56-35.899-13.082-55.589-4.202-10.955 4.94-9.163 18.167-19.715 23.916-15.197 8.281-42.114-2.262-53.328-2.262-11.214 0-29.145 5.146-45.032 5.146-23.485 0-63.439 13.102-75.843-5.146-12.403-18.248-1.677-33.491-10.256-46.967-5.735-9.009-19.742-10.863-31.486-12.334-26.9-3.367-17.158-23.297-28.372-39.183C.913 54.09-4.08 27.727 7.947 14.456Z"/><path fill="#E42032" d="M89.439 163.304s7.402 2.76 7.15.941c-2.76-17.815 1.82-38.515 4.831-50.559 2.258-8.907 9.158-11.793 11.228-8.28.439.69.816 2.446.941 4.767-3.576 2.259-6.9 5.019-8.468 7.34-2.886 4.328-4.768 12.671.376 13.612 3.701.69 10.538-2.51 13.048-14.365.501-2.698.815-5.207.815-7.402 1.819-1.067 3.136-1.694 3.136-1.694l.126-1.756c-1.004.251-2.196.69-3.387 1.254-.377-5.081-2.321-8.468-5.207-9.723-6.022-1.38-10.726 5.332-10.726 5.332l-.502-3.7-5.709-1.004-7.652 65.237Zm16.811-42.09c1.003-2.886 4.077-5.834 7.276-8.155-.188 4.014-1.129 8.782-3.324 11.981-4.58 6.586-5.52.753-3.952-3.826Zm37.631-17.188c1.694-4.078-1.945-6.085-5.646-6.085-3.261 0-6.9.502-11.04 5.709-5.708 7.151-4.014 19.069-1.129 22.833 9.974 12.295 23.398-7.841 21.202-15.557 4.454-1.568 3.576-3.638 3.576-3.638-5.269.878-8.155-2.509-8.155-2.509l-5.332 2.509c2.948.878 5.834 7.339 2.321 15.745-3.638 8.656-14.929 6.084-10.036-8.908 4.642-14.302 14.239-10.099 14.239-10.099Zm12.053 24.652c-.439.941 3.137-1.129 7.151-4.642 1.819 2.635 3.952 10.978 3.45 19.383l-2.697-.501c-21.579-4.015-27.538 4.642-28.792 8.97-1.318 4.579-1.067 12.796 10.287 13.8 13.361 1.129 22.708-5.771 26.66-14.867 30.549 12.797 46.607-1.442 43.784-.941-15.243 2.51-21.516-.501-42.028-4.955 1.38-8.092-1.192-16.811-8.468-22.896 6.022-5.959 11.354-14.616 4.203-21.202-5.27-4.83-19.948-1.882-15.432 7.653.251.627 3.576-8.72 8.782-7.716 8.092 1.443 1.38 23.711-8.343 26.283-.062 0 1.569 1.318 1.443 1.631Zm-9.472 34.877c-6.147-.502-8.029-9.472-1.443-14.741 3.2-2.572 11.856-4.516 20.952-.69-1.631 8.908-6.963 16.498-19.509 15.431Zm42.493-50.81c-.376 1.443.377 4.14 5.27 3.638 1.442 5.771-2.321 14.553-7.779 11.731-2.07-1.882-.188-8.155.377-13.048.752-6.21 2.76-14.804-.565-16.121-5.771-2.697-8.656 4.328-9.66 4.077l.753.69s1.881-2.634 4.767-1.756c.941.627-.502 8.029-1.192 14.678-.878 7.402-3.387 13.487 4.579 14.616 12.421 1.568 17.878-10.099 14.365-16.372.941-.502 2.07-1.066 3.325-1.882l1.568-.878c-.941 7.715-1.505 15.933.314 18.128 3.512 3.827 11.667-2.383 11.667-2.383-.125-.314-.188-.69-.376-.878-2.698 1.38-7.779 2.634-7.339-1.757.439-4.077 5.018-25.28 5.018-25.28-2.509-.815-6.461-2.885-6.461-2.885-.439 1.255-1.506 6.21-2.384 11.918a57.555 57.555 0 0 1-6.273 4.391c-1.254-1.317-3.011-2.07-5.583-2.258-1.819-.125-4.077.69-4.391 1.631Zm41.917-7.339c-4.203 5.583-8.782 6.963-10.601 13.11-1.192 4.078.439 9.284 3.199 10.727 12.922 6.649 17.753-7.967 17.251-10.413 0 0-.189-.941-1.318-.439-3.701 9.848-11.981 10.664-13.298 4.14-.69-3.262 2.76-7.967 7.59-12.671 3.199-2.886 5.207-6.148 3.952-8.971-4.516-9.66-16.686-.94-19.383 4.58 0 0 .564 1.317 1.568.815 3.011-5.395 16.56-9.284 11.04-.878Zm10.058 57.898s7.402 2.76 7.151.941c-2.76-17.815 1.82-38.515 4.831-50.559 2.258-8.907 9.158-11.793 11.228-8.28.439.69.815 2.446.941 4.767-3.576 2.259-6.9 5.019-8.468 7.34-2.886 4.328-4.768 12.671.376 13.612 3.701.69 10.538-2.51 13.047-14.365.502-2.698.816-5.207.816-7.402 1.819-1.067 3.136-1.694 3.136-1.694l.126-1.756c-1.004.251-2.196.69-3.388 1.254-.376-5.081-2.32-8.468-5.206-9.723-6.022-1.38-10.727 5.332-10.727 5.332l-.501-3.7-5.709-1.004-7.653 65.237Zm16.812-42.09c1.003-2.886 4.077-5.834 7.276-8.155-.188 4.014-1.129 8.782-3.324 11.981-4.58 6.586-5.521.753-3.952-3.826Zm29.288-8.469c-.376 1.443.376 4.14 5.269 3.638 1.443 5.771-2.321 14.553-7.778 11.731-2.07-1.882-.188-8.155.376-13.048.753-6.21 2.76-14.804-.564-16.121-5.771-2.697-8.657 4.328-9.66 4.077l.752.69s1.882-2.634 4.768-1.756c.941.627-.502 8.029-1.192 14.678-.878 7.402-3.388 13.487 4.579 14.616 12.42 1.568 17.878-10.099 14.365-16.372.941-.502 2.07-1.066 3.324-1.882l1.569-.878c-.941 7.715-1.506 15.933.313 18.128 3.513 3.827 11.668-2.383 11.668-2.383-.126-.314-.188-.69-.377-.878-2.697 1.38-7.778 2.634-7.339-1.757.439-4.077 5.018-25.28 5.018-25.28-2.509-.815-6.461-2.885-6.461-2.885-.439 1.255-1.505 6.21-2.383 11.918a57.652 57.652 0 0 1-6.273 4.391c-1.255-1.317-3.011-2.07-5.583-2.258-1.819-.125-4.077.69-4.391 1.631Zm54.212 18.003c6.398.251 12.483-18.379 12.483-18.379-1.067 3.45-3.45 12.295.062 16.623 4.454 3.387 10.79-2.07 10.79-2.07-.126-.314-.188-.69-.377-.941-2.822 1.505-7.966 2.823-7.527-1.819.439-4.329 5.583-23.712 5.583-23.712-2.572-.878-5.269-3.575-5.269-3.575-3.2 4.391-10.162 27.475-13.863 27.099-1.882 0-2.76-4.329-2.196-9.535 2.509-11.856 3.576-15.62 3.576-15.62-2.572-.878-5.834-1.881-5.834-1.881-3.199 4.391-8.406 26.722-12.107 26.346-2.948-.251-1.192-4.642-.627-9.849.753-6.586 2.823-15.62-.565-17.062-5.959-2.823-8.844 4.642-9.973 4.328l.878.753s1.882-2.76 4.83-1.882c.941.69-.502 8.531-1.255 15.557-.878 7.841-3.262 16.56 4.391 15.494 5.144.376 12.922-18.003 12.922-18.003-1.38 4.14-3.826 16.372 4.078 18.128Zm-14.93 3.764c0-.063-1.819 6.273.439 5.457 7.402-2.697 22.959-2.822 22.395-2.383-.377-1.004-.126-2.196.439-2.823-10.727-3.262-23.461-.627-23.273-.251Z"/><path fill="#E42032" d="m89.439 163.304-.174-.02-.016.136.129.048.06-.164Zm7.15.941.173-.024v-.002l-.172.026Zm4.831-50.559-.169-.043v.001l.169.042Zm11.228-8.28-.15.088.003.005.147-.093Zm.941 4.767.093.148.087-.055-.006-.102-.174.009Zm-8.468 7.34-.145-.098v.001l.145.097Zm.376 13.612.032-.172h-.001l-.031.172Zm13.048-14.365.17.036.001-.004-.171-.032Zm.815-7.402-.088-.151-.086.051v.1h.174Zm3.136-1.694.075.157.092-.043.007-.101-.174-.013Zm.126-1.756.174.012.017-.24-.233.059.042.169Zm-3.387 1.254-.174.013.019.254.229-.109-.074-.158Zm-5.207-9.723.07-.16-.015-.006-.016-.004-.039.17Zm-10.726 5.332-.173.024.06.441.255-.365-.142-.1Zm-.502-3.7.172-.024-.017-.126-.125-.022-.03.171Zm-5.709-1.004.03-.172-.181-.032-.022.183.173.02Zm9.159 23.147-.165-.058v.001l.165.057Zm7.276-8.155.174.008.017-.362-.293.213.102.141Zm-3.324 11.981.143.099-.143-.099Zm-20.763 38.264-.061.164h.001l.004.002a.147.147 0 0 1 .016.006l.063.023.236.085c.202.072.492.173.838.288.692.232 1.614.521 2.53.754.91.232 1.83.411 2.511.414.337.001.643-.039.862-.16a.64.64 0 0 0 .267-.267.652.652 0 0 0 .056-.391l-.345.047a.31.31 0 0 1-.022.187.295.295 0 0 1-.125.119c-.138.076-.37.118-.691.116-.636-.002-1.52-.172-2.428-.403a36.81 36.81 0 0 1-2.505-.746c-.343-.115-.63-.215-.832-.287l-.233-.084-.06-.022a.148.148 0 0 0-.017-.006l-.003-.001-.001-.001-.061.163Zm7.323.915c-2.754-17.777 1.815-38.445 4.827-50.491l-.338-.084c-3.011 12.042-7.6 32.774-4.834 50.628l.345-.053Zm4.827-50.49c1.12-4.419 3.387-7.325 5.607-8.692 1.11-.684 2.201-.979 3.127-.898.92.079 1.688.528 2.175 1.355l.3-.177c-.548-.929-1.419-1.437-2.445-1.525-1.02-.089-2.185.236-3.34.948-2.312 1.424-4.624 4.415-5.762 8.903l.338.086Zm10.912-8.23c.202.317.401.902.564 1.713.163.806.288 1.817.35 2.971l.348-.019c-.063-1.167-.189-2.195-.356-3.02-.166-.82-.374-1.458-.612-1.832l-.294.187Zm.995 4.527c-3.582 2.262-6.931 5.038-8.52 7.389l.289.195c1.548-2.291 4.848-5.035 8.417-7.289l-.186-.295Zm-8.52 7.39c-1.458 2.186-2.661 5.383-2.852 8.161-.095 1.389.062 2.691.583 3.712.526 1.029 1.418 1.762 2.759 2.007l.062-.343c-1.231-.225-2.033-.888-2.51-1.823-.482-.943-.639-2.174-.546-3.529.186-2.711 1.366-5.85 2.794-7.992l-.29-.193Zm.489 13.88c3.834.715 10.731-2.597 13.25-14.5l-.341-.072c-2.499 11.808-9.277 14.895-12.845 14.229l-.064.343Zm13.251-14.504c.503-2.703.818-5.224.818-7.434h-.348c0 2.18-.312 4.678-.813 7.37l.343.064Zm.732-7.284a52.375 52.375 0 0 1 2.892-1.573l.172-.085.045-.022.011-.005.003-.001v-.001l-.075-.157-.074-.157h-.002l-.003.002a.141.141 0 0 1-.011.005l-.046.022-.175.087a52.524 52.524 0 0 0-2.913 1.584l.176.301Zm3.222-1.831.126-1.757-.348-.025-.125 1.757.347.025Zm-.09-1.938c-1.017.254-2.22.697-3.42 1.266l.149.315c1.184-.561 2.365-.996 3.355-1.243l-.084-.338Zm-3.172 1.41c-.378-5.11-2.339-8.578-5.31-9.87l-.139.32c2.799 1.218 4.728 4.525 5.102 9.576l.347-.026Zm-5.341-9.88c-3.086-.707-5.822.663-7.768 2.181a17.334 17.334 0 0 0-3.084 3.143l-.041.057-.011.016-.003.004-.001.001.143.1.142.1.001-.001.002-.003a17.018 17.018 0 0 1 3.067-3.142c1.911-1.492 4.539-2.789 7.475-2.116l.078-.34Zm-10.593 5.479-.502-3.701-.345.047.502 3.701.345-.047Zm-.644-3.85-5.708-1.003-.06.343 5.708 1.004.06-.343Zm-5.912-.852-7.653 65.238.347.041 7.652-65.238-.346-.04Zm9.496 23.225c.491-1.411 1.493-2.849 2.778-4.228 1.284-1.377 2.843-2.687 4.437-3.843l-.205-.282c-1.606 1.165-3.183 2.489-4.487 3.888-1.302 1.396-2.339 2.875-2.852 4.35l.329.115Zm6.938-8.22c-.187 4.002-1.126 8.731-3.294 11.89l.287.198c2.223-3.239 3.167-8.045 3.355-12.072l-.348-.016Zm-3.293 11.889c-1.143 1.644-2.037 2.478-2.697 2.765-.323.141-.575.143-.772.064-.199-.08-.373-.255-.514-.534-.285-.562-.401-1.478-.34-2.556.06-1.071.292-2.279.679-3.409l-.33-.113a13.39 13.39 0 0 0-.697 3.503c-.062 1.097.05 2.088.377 2.733.165.325.392.578.696.7.305.122.656.098 1.04-.069.756-.328 1.697-1.235 2.844-2.885l-.286-.199Zm33.822-20.914-.07.159.163.072.068-.164-.161-.067Zm-16.686-.376.136.108h.001l-.137-.108Zm-1.129 22.833-.138.106.003.003.135-.109Zm21.202-15.557-.058-.164-.154.054.045.158.167-.048Zm3.576-3.638.16-.068-.053-.127-.136.023.029.172Zm-8.155-2.509.133-.113-.087-.102-.12.057.074.158Zm-5.332 2.509-.074-.158-.413.194.437.131.05-.167Zm2.321 15.745.161.067-.161-.067Zm-10.036-8.908.165.054-.165-.054Zm14.4-10.032c.434-1.045.532-1.971.362-2.774-.169-.804-.604-1.469-1.208-1.996-1.204-1.049-3.086-1.556-4.961-1.556v.349c1.826 0 3.614.496 4.732 1.47.556.484.945 1.086 1.096 1.805.152.72.07 1.574-.343 2.568l.322.134Zm-5.807-6.326c-1.64 0-3.392.126-5.258.916-1.867.79-3.834 2.237-5.918 4.858l.273.217c2.055-2.585 3.978-3.992 5.781-4.755 1.803-.763 3.501-.888 5.122-.888v-.348Zm-11.176 5.774c-2.888 3.618-3.896 8.43-3.825 12.798.071 4.362 1.219 8.326 2.694 10.25l.276-.212c-1.41-1.84-2.552-5.718-2.622-10.043-.07-4.32.929-9.043 3.749-12.576l-.272-.217Zm-1.128 23.051c2.523 3.111 5.287 4.192 7.983 3.905 2.683-.285 5.263-1.921 7.442-4.167 2.181-2.249 3.977-5.125 5.09-7.925 1.111-2.794 1.554-5.543.99-7.527l-.335.096c.533 1.874.122 4.535-.979 7.302-1.097 2.761-2.869 5.598-5.016 7.811-2.15 2.215-4.659 3.79-7.229 4.064-2.557.272-5.212-.741-7.676-3.778l-.27.219Zm21.395-15.502c2.249-.792 3.193-1.724 3.558-2.497.182-.386.216-.723.201-.967a1.612 1.612 0 0 0-.043-.29.937.937 0 0 0-.025-.081l-.008-.024-.003-.007-.001-.003v-.001h-.001l-.16.068-.161.068v-.001l.001.001.004.012a1.186 1.186 0 0 1 .05.278c.011.193-.014.471-.169.798-.31.655-1.154 1.541-3.359 2.318l.116.328Zm3.489-3.974c-2.59.432-4.59-.185-5.942-.907a8.545 8.545 0 0 1-1.537-1.047 6.21 6.21 0 0 1-.513-.495l-.001-.001-.133.113-.132.113.001.001a456113791.876 456113791.876 0 0 0 .009.01 6.12 6.12 0 0 0 .542.523c.36.311.896.715 1.599 1.09 1.408.752 3.486 1.39 6.165.944l-.058-.344Zm-8.2-2.495-5.332 2.509.148.315 5.332-2.509-.148-.315Zm-5.308 2.834c1.386.413 2.819 2.172 3.464 4.922.642 2.737.49 6.416-1.254 10.588l.322.135c1.769-4.233 1.931-7.987 1.271-10.802-.656-2.801-2.141-4.712-3.703-5.177l-.1.334Zm2.211 15.51c-1.797 4.274-5.434 5.696-7.975 4.329-2.547-1.371-4.176-5.638-1.736-13.115l-.331-.108c-2.453 7.516-.883 12.031 1.902 13.53 2.792 1.502 6.619-.118 8.461-4.501l-.321-.135Zm-9.711-8.786c2.308-7.109 5.829-9.578 8.737-10.298a9.09 9.09 0 0 1 4.862.158 6.722 6.722 0 0 1 .381.136l.019.008.004.002.001.001.07-.16.07-.16h-.001l-.002-.001-.006-.003-.022-.009-.086-.034a7.03 7.03 0 0 0-.321-.112 9.415 9.415 0 0 0-5.053-.164c-3.052.755-6.649 3.335-8.984 10.528l.331.108Zm26.127 14.499.158.074.004-.009-.162-.065Zm7.151-4.642.144-.099-.111-.161-.147.129.114.131Zm3.45 19.383-.032.172.195.036.011-.197-.174-.011Zm-2.697-.501.032-.172-.032.172Zm-28.792 8.97-.168-.049v.001l.168.048Zm10.287 13.8-.015.174.015-.174Zm26.66-14.867.067-.16-.159-.067-.068.158.16.069Zm43.784-.941.029.172h.002l-.031-.172Zm-42.028-4.955-.172-.029-.028.164.163.035.037-.17Zm-8.468-22.896-.123-.124-.136.135.147.123.112-.134Zm4.203-21.202.118-.128-.001-.001-.117.129Zm-15.432 7.653.162-.065-.004-.01-.158.075Zm8.782-7.716-.033.171.003.001.03-.172Zm-8.343 26.283v.175h.023l.022-.006-.045-.169Zm-8.029 36.508.015-.173h-.001l-.014.173Zm-1.443-14.741.109.136h.001l-.11-.136Zm20.952-.69.171.031.025-.137-.129-.055-.067.161Zm-10.195-19.519a.458.458 0 0 0-.052.23.27.27 0 0 0 .048.132c.031.042.071.07.112.087a.436.436 0 0 0 .227.019c.075-.011.158-.033.248-.065.356-.123.901-.412 1.573-.833 1.35-.845 3.255-2.246 5.268-4.008l-.229-.262c-2.002 1.752-3.892 3.141-5.224 3.975-.669.418-1.186.689-1.502.799a1.059 1.059 0 0 1-.182.049c-.048.007-.057-.001-.045.004a.093.093 0 0 1 .037.031.086.086 0 0 1 .017.042c.001.01-.003-.004.02-.053l-.316-.147Zm7.166-4.47c.889 1.287 1.871 4.003 2.568 7.463.695 3.453 1.101 7.625.851 11.811l.348.021c.252-4.22-.157-8.422-.858-11.901-.698-3.471-1.692-6.244-2.622-7.592l-.287.198Zm3.625 19.113-2.697-.502-.064.343 2.697.502.064-.343Zm-2.697-.502c-10.813-2.011-17.739-.854-22.129 1.373-4.392 2.227-6.224 5.516-6.863 7.72l.335.097c.615-2.123 2.39-5.328 6.686-7.507 4.299-2.18 11.141-3.343 21.907-1.34l.064-.343Zm-28.992 9.094c-.665 2.311-.94 5.559.402 8.364 1.35 2.82 4.315 5.152 10.038 5.658l.03-.348c-5.631-.497-8.469-2.776-9.753-5.46-1.292-2.7-1.034-5.851-.382-8.118l-.335-.096Zm10.44 14.022c13.438 1.135 22.853-5.808 26.835-14.971l-.32-.139c-3.923 9.028-13.2 15.885-26.485 14.762l-.03.348Zm26.607-14.88c15.308 6.412 26.998 6.056 34.517 4.148 3.758-.953 6.474-2.293 8.078-3.37.798-.536 1.334-1.014 1.581-1.356a1.07 1.07 0 0 0 .14-.252.375.375 0 0 0 .007-.269.304.304 0 0 0-.222-.177.692.692 0 0 0-.279.003l.061.343a.395.395 0 0 1 .14-.007c.014.003-.01 0-.023-.03-.008-.021.003-.021-.012.02a.732.732 0 0 1-.095.165c-.21.291-.704.742-1.492 1.271-1.568 1.052-4.247 2.377-7.97 3.322-7.441 1.887-19.055 2.252-34.296-4.132l-.135.321Zm43.824-1.273c-15.201 2.502-21.429-.496-41.963-4.954l-.074.34c20.49 4.449 26.808 7.473 42.094 4.957l-.057-.343Zm-41.828-4.755c1.39-8.148-1.201-16.931-8.528-23.059l-.224.268c7.226 6.042 9.779 14.697 8.408 22.733l.344.058Zm-8.518-22.801c3.019-2.987 5.881-6.665 7.085-10.437.603-1.888.793-3.806.373-5.674-.421-1.869-1.449-3.676-3.259-5.343l-.236.256c1.764 1.625 2.752 3.371 3.155 5.163.403 1.794.224 3.648-.365 5.492-1.179 3.693-3.995 7.323-6.998 10.295l.245.248Zm4.198-21.455c-1.352-1.239-3.295-1.97-5.365-2.227-2.072-.257-4.287-.041-6.196.631-1.907.671-3.526 1.805-4.377 3.398-.854 1.6-.916 3.632.232 6.054l.315-.149c-1.111-2.345-1.031-4.258-.239-5.741.796-1.491 2.329-2.58 4.185-3.233 1.855-.653 4.015-.865 6.037-.614 2.023.25 3.89.962 5.173 2.138l.235-.257Zm-15.71 7.846c.019.048.072.134.184.14a.253.253 0 0 0 .173-.066c.061-.053.125-.141.187-.236.129-.2.303-.517.516-.9.428-.772 1.026-1.843 1.776-2.9.751-1.059 1.649-2.096 2.673-2.804 1.021-.707 2.158-1.083 3.401-.843l.066-.342c-1.36-.262-2.591.154-3.665.898-1.072.742-1.997 1.815-2.759 2.889-.763 1.075-1.369 2.161-1.797 2.933-.216.389-.383.692-.504.879a.876.876 0 0 1-.12.161c-.014.012.014-.02.072-.017.085.004.117.07.12.079l-.323.129Zm8.913-7.608c1.918.342 2.984 1.913 3.336 4.208.351 2.295-.026 5.266-.963 8.287-.936 3.018-2.425 6.069-4.281 8.522-1.859 2.457-4.071 4.297-6.449 4.926l.089.337c2.484-.657 4.756-2.565 6.638-5.052 1.884-2.491 3.39-5.579 4.336-8.63.945-3.049 1.336-6.076.974-8.443-.362-2.366-1.491-4.119-3.619-4.499l-.061.344Zm-8.313 25.937a.17.17 0 0 0-.086.023.175.175 0 0 0-.084.195c.004.017.01.03.013.038.013.024.029.043.033.048l.053.053.171.157c.143.129.335.302.525.484.191.183.374.371.501.529.064.08.108.146.132.195.03.061.009.054.023.018l.324.13c.046-.114.001-.23-.034-.302a1.556 1.556 0 0 0-.173-.259 6.47 6.47 0 0 0-.532-.563c-.194-.186-.391-.362-.532-.49a6.98 6.98 0 0 1-.164-.151l-.031-.03c-.004-.005.007.006.016.026a.167.167 0 0 1 .012.118.172.172 0 0 1-.167.13v-.349Zm-8.015 36.509c-2.976-.243-4.931-2.533-5.338-5.434-.406-2.9.743-6.4 3.99-8.998l-.217-.272c-3.339 2.671-4.543 6.291-4.118 9.319.424 3.027 2.484 5.473 5.655 5.732l.028-.347Zm-1.347-14.432c1.564-1.257 4.49-2.379 8.17-2.707 3.675-.327 8.084.14 12.604 2.042l.135-.322c-4.575-1.925-9.042-2.399-12.77-2.067-3.721.331-6.723 1.468-8.358 2.782l.219.272Zm20.67-.857c-.811 4.432-2.54 8.516-5.608 11.359-3.063 2.839-7.481 4.459-13.714 3.93l-.03.347c6.313.536 10.834-1.105 13.981-4.021 3.142-2.912 4.895-7.077 5.714-11.553l-.343-.062Zm23.156-35.348-.165-.055-.003.011.168.044Zm5.27 3.638.169-.042-.037-.146-.15.015.018.173Zm-7.779 11.731-.117.129.017.015.02.01.08-.154Zm.377-13.048-.173-.021v.001l.173.02Zm-.565-16.121-.074.158.01.004.064-.162Zm-9.66 4.077.042-.169-.16.298.118-.129Zm.753.69-.118.129.145.133.114-.16-.141-.102Zm4.767-1.756.097-.145-.022-.014-.024-.008-.051.167Zm-1.192 14.678.173.021v-.003l-.173-.018Zm4.579 14.616-.024.173h.003l.021-.173Zm14.365-16.372-.082-.154-.157.084.087.155.152-.085Zm3.325-1.882-.086-.152-.009.006.095.146Zm1.568-.878.173.021.042-.341-.3.168.085.152Zm.314 18.128-.135.112.006.006.129-.118Zm11.667-2.383.106.138.105-.08-.049-.123-.162.065Zm-.376-.878.123-.124-.09-.089-.113.057.08.156Zm-7.339-1.757-.174-.019v.002l.174.017Zm5.018-25.28.17.037.033-.153-.149-.05-.054.166Zm-6.461-2.885.081-.154-.179-.094-.067.19.165.058Zm-2.384 11.918.11.136.052-.043.01-.066-.172-.027Zm-6.273 4.391-.126.121.096.101.12-.072-.09-.15Zm-5.583-2.258.013-.174h-.001l-.012.174Zm-4.559 1.587c-.2.768-.101 1.869.701 2.713.804.846 2.279 1.397 4.754 1.143l-.035-.347c-2.418.248-3.765-.299-4.467-1.037-.703-.739-.792-1.709-.616-2.384l-.337-.088Zm5.269 3.725c.709 2.839.138 6.432-1.285 8.96-.71 1.263-1.624 2.244-2.678 2.74-1.046.492-2.248.515-3.567-.167l-.16.309c1.41.73 2.726.714 3.875.173 1.141-.537 2.102-1.583 2.834-2.884 1.463-2.6 2.052-6.284 1.319-9.216l-.338.085Zm-7.493 11.559c-.471-.429-.734-1.124-.837-2.036-.104-.909-.047-2.007.094-3.21.14-1.202.363-2.499.586-3.805.224-1.305.448-2.619.59-3.848l-.346-.04c-.141 1.218-.364 2.522-.587 3.829-.223 1.304-.448 2.611-.59 3.824-.141 1.212-.202 2.341-.094 3.29.108.946.387 1.741.95 2.254l.234-.258Zm.433-12.898c.374-3.087 1.067-6.811 1.247-9.906.091-1.55.055-2.963-.219-4.076-.274-1.114-.795-1.963-1.702-2.322l-.128.324c.756.3 1.23 1.018 1.492 2.081.261 1.062.299 2.433.209 3.973-.18 3.083-.867 6.761-1.245 9.884l.346.042Zm-.664-16.3c-1.477-.69-2.781-.762-3.919-.477-1.135.285-2.092.921-2.888 1.626-.795.703-1.439 1.484-1.938 2.062a7.312 7.312 0 0 1-.637.679.99.99 0 0 1-.217.154c-.057.027-.084.024-.093.022l-.084.338a.482.482 0 0 0 .327-.046c.099-.046.198-.119.296-.205.197-.173.422-.425.672-.714.505-.586 1.131-1.345 1.905-2.029.772-.684 1.681-1.282 2.742-1.549 1.056-.265 2.278-.204 3.686.455l.148-.316Zm-9.852 4.364.753.69.235-.257-.752-.69-.236.257Zm.871.561.141.102.001-.001.003-.005a.145.145 0 0 0 .015-.02l.061-.077a5.465 5.465 0 0 1 1.176-1.061c.803-.53 1.941-.947 3.319-.527l.102-.334c-1.508-.459-2.753.003-3.613.57a5.857 5.857 0 0 0-1.254 1.132c-.03.037-.053.066-.068.087l-.018.023-.005.007-.001.002-.001.001.142.101Zm4.67-1.611a.294.294 0 0 1 .088.122c.032.072.062.172.085.302.046.259.064.612.058 1.051-.014.877-.127 2.061-.291 3.44-.328 2.75-.863 6.277-1.208 9.6l.346.036c.346-3.325.877-6.824 1.208-9.594.164-1.381.279-2.581.293-3.476a6.142 6.142 0 0 0-.063-1.119 1.632 1.632 0 0 0-.111-.384.63.63 0 0 0-.211-.268l-.194.29Zm-1.268 14.513c-.219 1.849-.539 3.604-.775 5.243-.234 1.63-.384 3.138-.252 4.455.132 1.32.548 2.462 1.458 3.344.907.88 2.285 1.481 4.297 1.767l.049-.345c-1.971-.28-3.268-.862-4.103-1.672-.833-.808-1.228-1.862-1.355-3.129-.127-1.271.017-2.743.251-4.37.233-1.619.556-3.4.776-5.252l-.346-.041Zm4.731 14.809c12.55 1.585 18.126-10.223 14.538-16.63l-.304.17c3.437 6.138-1.901 17.666-14.191 16.114l-.043.346Zm14.468-16.391c.937-.5 2.075-1.069 3.338-1.89l-.19-.292c-1.247.81-2.367 1.37-3.312 1.874l.164.308Zm3.328-1.884 1.568-.878-.17-.304-1.568.878.17.304Zm1.31-1.051c-.471 3.859-.848 7.85-.879 11.154-.016 1.651.054 3.136.245 4.349.189 1.206.5 2.171.986 2.758l.269-.223c-.424-.511-.724-1.396-.911-2.589-.186-1.187-.257-2.65-.241-4.292.031-3.283.407-7.259.877-11.115l-.346-.042Zm.358 18.267c.922 1.005 2.146 1.344 3.44 1.298 1.289-.045 2.661-.471 3.909-1.013a23.504 23.504 0 0 0 3.212-1.729 24.42 24.42 0 0 0 1.246-.848l.07-.052.018-.014a.022.022 0 0 0 .005-.003l.001-.001.001-.001-.106-.138-.105-.139h-.001l-.001.001-.004.003-.017.013-.068.05a24.358 24.358 0 0 1-1.227.835 23.165 23.165 0 0 1-3.163 1.704c-1.229.533-2.555.941-3.782.984-1.224.043-2.337-.277-3.171-1.185l-.257.235Zm11.958-2.566c-.062-.155-.1-.303-.162-.479-.056-.159-.129-.333-.253-.458l-.246.247c.063.064.116.171.17.326.048.138.104.335.167.493l.324-.129Zm-.618-.969c-1.337.684-3.25 1.328-4.759 1.267-.753-.03-1.379-.234-1.792-.667-.41-.43-.642-1.117-.535-2.184l-.347-.034c-.113 1.129.126 1.931.63 2.458.5.524 1.23.743 2.03.776 1.596.064 3.572-.609 4.932-1.305l-.159-.311Zm-7.086-1.582c.218-2.028 1.47-8.337 2.671-14.152.6-2.905 1.186-5.682 1.622-7.734l.525-2.457.146-.68.038-.178.01-.045.002-.012.001-.003-.17-.038a6.472 6.472 0 0 0-.171-.036v.004a11.437 11.437 0 0 1-.051.235l-.146.68c-.126.588-.307 1.432-.525 2.458-.436 2.051-1.022 4.83-1.622 7.735-1.199 5.805-2.456 12.136-2.677 14.185l.347.038Zm4.899-25.464c-1.243-.404-2.85-1.121-4.151-1.74a79.92 79.92 0 0 1-2.11-1.044l-.129-.067a1.025 1.025 0 0 1-.033-.017l-.009-.005-.002-.001-.081.154-.081.154h.001l.002.002a.305.305 0 0 0 .009.005l.033.017.131.067a71.172 71.172 0 0 0 2.119 1.05c1.303.62 2.927 1.345 4.193 1.756l.108-.331Zm-6.68-2.778c-.445 1.272-1.513 6.243-2.391 11.95l.344.053c.879-5.71 1.943-10.65 2.376-11.887l-.329-.115Zm-2.329 11.841a57.407 57.407 0 0 1-6.252 4.377l.179.299a57.825 57.825 0 0 0 6.293-4.405l-.22-.271Zm-6.037 4.406c-1.292-1.357-3.095-2.121-5.696-2.312l-.025.348c2.542.186 4.253.927 5.469 2.205l.252-.241Zm-5.697-2.312c-.937-.064-1.98.113-2.832.426a4.64 4.64 0 0 0-1.111.569c-.297.216-.53.47-.625.755l.331.11c.062-.186.229-.386.5-.583.267-.195.62-.375 1.026-.524.81-.298 1.805-.466 2.687-.405l.024-.348Zm37.514-5.534.14.105.006-.009-.146-.096Zm-10.601 13.11-.167-.049.167.049Zm3.199 10.727-.08.154.001.001.079-.155Zm17.251-10.413-.171.034v.001l.171-.035Zm-1.318-.439-.07-.16-.067.03-.026.068.163.062Zm-13.298 4.14.171-.035-.001-.001-.17.036Zm7.59-12.671-.117-.13-.004.005.121.125Zm3.952-8.971.159-.07-.001-.003-.158.073Zm-19.383 4.58-.157-.077-.035.072.032.073.16-.068Zm1.568.815.078.156.048-.024.026-.047-.152-.085Zm10.901-.983c-2.09 2.776-4.266 4.499-6.175 6.322-1.909 1.822-3.532 3.729-4.454 6.844l.334.099c.898-3.033 2.473-4.89 4.36-6.691 1.886-1.799 4.101-3.558 6.214-6.364l-.279-.21Zm-10.629 13.166c-.607 2.076-.494 4.432.118 6.451.61 2.013 1.729 3.727 3.168 4.479l.161-.309c-1.321-.69-2.398-2.301-2.995-4.271-.596-1.964-.703-4.251-.118-6.252l-.334-.098Zm3.287 10.931c3.258 1.676 6.023 2.021 8.332 1.537 2.308-.482 4.139-1.788 5.537-3.373 1.398-1.584 2.368-3.453 2.958-5.079.295-.813.496-1.568.607-2.2.11-.627.136-1.149.066-1.488l-.341.07c.056.272.04.742-.068 1.357a13.06 13.06 0 0 1-.592 2.143c-.578 1.594-1.529 3.422-2.891 4.967-1.362 1.543-3.13 2.798-5.347 3.262-2.215.464-4.899.142-8.102-1.506l-.159.31Zm17.33-10.568c.171-.034.171-.034.17-.035v-.002l-.001-.003-.002-.012-.011-.037a.965.965 0 0 0-.274-.447.847.847 0 0 0-.5-.22c-.214-.021-.469.023-.77.157l.141.319c.263-.117.456-.143.594-.129a.507.507 0 0 1 .3.13.626.626 0 0 1 .182.314v-.001l.171-.034Zm-1.481-.501c-1.838 4.892-4.798 7.5-7.419 8.102-1.308.3-2.531.102-3.506-.554-.974-.657-1.717-1.786-2.039-3.381l-.342.069c.337 1.667 1.122 2.883 2.187 3.601 1.064.717 2.389.923 3.778.604 2.774-.637 5.805-3.361 7.667-8.318l-.326-.123Zm-12.965 4.166c-.33-1.561.328-3.502 1.702-5.665 1.37-2.156 3.429-4.498 5.84-6.846l-.243-.249c-2.42 2.356-4.501 4.72-5.891 6.908-1.386 2.181-2.108 4.223-1.749 5.924l.341-.072Zm7.537-12.506c1.608-1.451 2.927-3.005 3.686-4.562.759-1.559.963-3.136.308-4.608l-.318.141c.6 1.35.427 2.816-.303 4.315-.732 1.501-2.016 3.02-3.607 4.455l.234.259Zm3.993-9.173c-1.148-2.456-2.794-3.762-4.67-4.232-1.868-.467-3.938-.098-5.929.742-1.994.84-3.925 2.158-5.528 3.611-1.601 1.452-2.884 3.049-3.571 4.455l.313.153c.662-1.354 1.912-2.917 3.492-4.35 1.579-1.432 3.478-2.726 5.429-3.548 1.952-.823 3.941-1.167 5.709-.725 1.76.44 3.329 1.666 4.439 4.041l.316-.147Zm-19.541 4.653-.16.068v.001l.001.001.001.004a.081.081 0 0 1 .006.013l.022.046a2.218 2.218 0 0 0 .414.586c.147.146.337.285.57.349.237.064.505.047.792-.097l-.156-.312a.74.74 0 0 1-.545.072.954.954 0 0 1-.414-.259 1.835 1.835 0 0 1-.349-.494.463.463 0 0 1-.017-.036l-.004-.009-.001-.002-.16.069Zm1.72.9c.733-1.312 2.117-2.548 3.711-3.532 1.593-.982 3.377-1.703 4.89-1.996.756-.147 1.437-.185 1.988-.101.551.084.953.286 1.186.602.231.313.322.773.177 1.429-.145.659-.525 1.497-1.209 2.539l.291.192c.696-1.06 1.1-1.939 1.258-2.655.159-.719.074-1.292-.236-1.712-.308-.417-.812-.648-1.415-.74-.604-.092-1.327-.047-2.107.104-1.561.302-3.384 1.041-5.006 2.042-1.62 1-3.059 2.273-3.832 3.658l.304.17Zm20.946 56.935-.173-.02-.016.136.129.048.06-.164Zm7.151.941.173-.024v-.002l-.173.026Zm4.831-50.559-.169-.043v.001l.169.042Zm11.228-8.28-.15.088.003.005.147-.093Zm.941 4.767.093.148.086-.055-.005-.102-.174.009Zm-8.468 7.34-.145-.098v.001l.145.097Zm.376 13.612.032-.172h-.001l-.031.172Zm13.047-14.365.171.036.001-.004-.172-.032Zm.816-7.402-.088-.151-.086.051v.1h.174Zm3.136-1.694.075.157.092-.043.007-.101-.174-.013Zm.126-1.756.174.012.017-.24-.233.059.042.169Zm-3.387 1.254-.174.013.018.254.23-.109-.074-.158Zm-5.207-9.723.07-.16-.015-.006-.016-.004-.039.17Zm-10.727 5.332-.172.024.06.441.255-.365-.143-.1Zm-.501-3.7.172-.024-.017-.126-.125-.022-.03.171Zm-5.709-1.004.03-.172-.181-.032-.022.183.173.02Zm9.159 23.147-.165-.058v.001l.165.057Zm7.276-8.155.174.008.017-.362-.293.213.102.141Zm-3.324 11.981.143.099-.143-.099Zm-20.764 38.264-.06.164h.001l.004.002a.116.116 0 0 1 .016.006l.063.023.236.085c.202.072.492.173.838.288.692.232 1.614.521 2.529.754.912.232 1.831.411 2.512.414.337.001.643-.039.862-.16a.642.642 0 0 0 .267-.267.652.652 0 0 0 .056-.391l-.345.047a.311.311 0 0 1-.022.187.294.294 0 0 1-.125.119c-.138.076-.37.118-.691.116-.636-.002-1.52-.172-2.428-.403a36.819 36.819 0 0 1-2.505-.746 44.922 44.922 0 0 1-.832-.287l-.233-.084-.061-.022a.116.116 0 0 0-.016-.006l-.003-.001-.001-.001h-.001l-.061.163Zm7.324.915c-2.754-17.777 1.815-38.445 4.827-50.491l-.338-.084c-3.011 12.042-7.6 32.774-4.834 50.628l.345-.053Zm4.826-50.49c1.121-4.419 3.388-7.325 5.608-8.692 1.11-.684 2.201-.979 3.127-.898.92.079 1.688.528 2.175 1.355l.3-.177c-.548-.929-1.419-1.437-2.445-1.525-1.02-.089-2.185.236-3.34.948-2.312 1.424-4.624 4.415-5.762 8.903l.337.086Zm10.913-8.23c.201.317.4.902.564 1.713.163.806.288 1.817.35 2.971l.348-.019c-.063-1.167-.189-2.195-.356-3.02-.166-.82-.374-1.458-.612-1.832l-.294.187Zm.995 4.527c-3.582 2.262-6.931 5.038-8.52 7.389l.289.195c1.548-2.291 4.848-5.035 8.417-7.289l-.186-.295Zm-8.52 7.39c-1.458 2.186-2.662 5.383-2.852 8.161-.095 1.389.062 2.691.583 3.712.526 1.029 1.418 1.762 2.759 2.007l.062-.343c-1.231-.225-2.033-.888-2.51-1.823-.482-.943-.639-2.174-.546-3.529.185-2.711 1.366-5.85 2.794-7.992l-.29-.193Zm.489 13.88c3.834.715 10.731-2.597 13.25-14.5l-.341-.072c-2.499 11.808-9.277 14.895-12.845 14.229l-.064.343Zm13.251-14.504c.503-2.703.818-5.224.818-7.434h-.348c0 2.18-.312 4.678-.813 7.37l.343.064Zm.732-7.284a52.375 52.375 0 0 1 2.892-1.573l.172-.085.045-.022.011-.005.002-.001h.001v-.001l-.075-.157-.075-.157h-.001l-.003.002-.011.005-.046.022-.175.087a52.524 52.524 0 0 0-2.913 1.584l.176.301Zm3.222-1.831.126-1.757-.348-.025-.125 1.757.347.025Zm-.09-1.938c-1.017.254-2.22.697-3.42 1.266l.149.315c1.184-.561 2.365-.996 3.355-1.243l-.084-.338Zm-3.172 1.41c-.378-5.11-2.339-8.578-5.31-9.87l-.139.32c2.799 1.218 4.728 4.525 5.102 9.576l.347-.026Zm-5.341-9.88c-3.086-.707-5.822.663-7.768 2.181a17.334 17.334 0 0 0-3.084 3.143l-.041.057-.011.016-.003.004-.001.001.142.1.143.1.001-.001.002-.003a17.018 17.018 0 0 1 3.067-3.142c1.911-1.492 4.539-2.789 7.475-2.116l.078-.34Zm-10.593 5.479-.502-3.701-.345.047.502 3.701.345-.047Zm-.644-3.85-5.709-1.003-.06.343 5.708 1.004.061-.343Zm-5.912-.852-7.653 65.238.346.041 7.653-65.238-.346-.04Zm9.496 23.225c.491-1.411 1.493-2.849 2.778-4.228 1.284-1.377 2.843-2.687 4.437-3.843l-.205-.282c-1.606 1.165-3.183 2.489-4.487 3.888-1.302 1.396-2.339 2.875-2.852 4.35l.329.115Zm6.938-8.22c-.187 4.002-1.126 8.731-3.294 11.89l.287.198c2.223-3.239 3.167-8.045 3.355-12.072l-.348-.016Zm-3.293 11.889c-1.143 1.644-2.037 2.478-2.697 2.765-.323.141-.575.143-.772.064-.199-.08-.373-.255-.514-.534-.285-.562-.401-1.478-.34-2.556.059-1.071.292-2.279.679-3.409l-.33-.113a13.39 13.39 0 0 0-.697 3.503c-.062 1.097.05 2.088.377 2.733.165.325.392.578.695.7.306.122.657.098 1.041-.069.756-.328 1.697-1.235 2.844-2.885l-.286-.199Zm25.479-12.195-.166-.055-.003.011.169.044Zm5.269 3.638.169-.042-.036-.146-.151.015.018.173Zm-7.778 11.731-.117.129.017.015.02.01.08-.154Zm.376-13.048-.173-.021v.001l.173.02Zm-.564-16.121-.074.158.01.004.064-.162Zm-9.66 4.077.042-.169-.16.298.118-.129Zm.752.69-.117.129.145.133.114-.16-.142-.102Zm4.768-1.756.096-.145-.021-.014-.025-.008-.05.167Zm-1.192 14.678.173.021v-.003l-.173-.018Zm4.579 14.616-.024.173h.002l.022-.173Zm14.365-16.372-.082-.154-.157.084.087.155.152-.085Zm3.324-1.882-.085-.152-.01.006.095.146Zm1.569-.878.173.021.041-.341-.299.168.085.152Zm.313 18.128-.134.112.006.006.128-.118Zm11.668-2.383.105.138.106-.08-.049-.123-.162.065Zm-.377-.878.124-.124-.09-.089-.113.057.079.156Zm-7.339-1.757-.173-.019v.002l.173.017Zm5.018-25.28.171.037.033-.153-.15-.05-.054.166Zm-6.461-2.885.081-.154-.178-.094-.067.19.164.058Zm-2.383 11.918.11.136.052-.043.01-.066-.172-.027Zm-6.273 4.391-.126.121.096.101.12-.072-.09-.15Zm-5.583-2.258.013-.174h-.001l-.012.174Zm-4.56 1.587c-.2.768-.101 1.869.701 2.713.805.846 2.28 1.397 4.755 1.143l-.036-.347c-2.417.248-3.765-.299-4.466-1.037-.703-.739-.792-1.709-.616-2.384l-.338-.088Zm5.269 3.725c.71 2.839.138 6.432-1.284 8.96-.711 1.263-1.625 2.244-2.679 2.74-1.046.492-2.247.515-3.566-.167l-.16.309c1.41.73 2.725.714 3.875.173 1.141-.537 2.101-1.583 2.833-2.884 1.463-2.6 2.052-6.284 1.319-9.216l-.338.085Zm-7.492 11.559c-.472-.429-.734-1.124-.838-2.036-.103-.909-.046-2.007.094-3.21.141-1.202.363-2.499.587-3.805.223-1.305.448-2.619.589-3.848l-.346-.04c-.14 1.218-.363 2.522-.587 3.829-.223 1.304-.447 2.611-.589 3.824-.142 1.212-.202 2.341-.094 3.29.108.946.386 1.741.95 2.254l.234-.258Zm.432-12.898c.374-3.087 1.067-6.811 1.248-9.906.09-1.55.054-2.963-.219-4.076-.274-1.114-.796-1.963-1.702-2.322l-.128.324c.755.3 1.23 1.018 1.491 2.081.261 1.062.3 2.433.21 3.973-.18 3.083-.867 6.761-1.246 9.884l.346.042Zm-.664-16.3c-1.477-.69-2.78-.762-3.919-.477-1.134.285-2.092.921-2.888 1.626-.795.703-1.439 1.484-1.937 2.062a7.168 7.168 0 0 1-.638.679.988.988 0 0 1-.216.154c-.057.027-.084.024-.093.022l-.085.338c.116.029.23.001.328-.046a1.34 1.34 0 0 0 .296-.205c.197-.173.422-.425.672-.714.505-.586 1.131-1.345 1.904-2.029.773-.684 1.681-1.282 2.742-1.549 1.057-.265 2.278-.204 3.687.455l.147-.316Zm-9.851 4.364.753.69.235-.257-.753-.69-.235.257Zm.87.561.142.102.001-.001.003-.005.015-.02.061-.077a5.465 5.465 0 0 1 1.176-1.061c.803-.53 1.941-.947 3.319-.527l.101-.334c-1.507-.459-2.753.003-3.612.57a5.817 5.817 0 0 0-1.255 1.132l-.068.087a.186.186 0 0 1-.018.023.057.057 0 0 0-.004.007l-.002.002v.001l.141.101Zm4.671-1.611a.286.286 0 0 1 .087.122c.033.072.062.172.085.302.047.259.065.612.058 1.051-.013.877-.126 2.061-.291 3.44-.328 2.75-.863 6.277-1.208 9.6l.347.036c.345-3.325.877-6.824 1.207-9.594.165-1.381.28-2.581.294-3.476.007-.447-.011-.827-.064-1.119a1.634 1.634 0 0 0-.11-.384.624.624 0 0 0-.212-.268l-.193.29Zm-1.268 14.513c-.22 1.849-.539 3.604-.775 5.243-.234 1.63-.384 3.138-.253 4.455.132 1.32.549 2.462 1.459 3.344.907.88 2.284 1.481 4.297 1.767l.048-.345c-1.971-.28-3.267-.862-4.103-1.672-.832-.808-1.227-1.862-1.354-3.129-.127-1.271.017-2.743.251-4.37.233-1.619.556-3.4.776-5.252l-.346-.041Zm4.73 14.809c12.551 1.585 18.127-10.223 14.539-16.63l-.304.17c3.437 6.138-1.901 17.666-14.191 16.114l-.044.346Zm14.469-16.391c.937-.5 2.075-1.069 3.337-1.89l-.19-.292c-1.246.81-2.366 1.37-3.311 1.874l.164.308Zm3.328-1.884 1.568-.878-.17-.304-1.569.878.171.304Zm1.31-1.051c-.471 3.859-.848 7.85-.88 11.154-.016 1.651.055 3.136.245 4.349.19 1.206.501 2.171.987 2.758l.268-.223c-.423-.511-.723-1.396-.91-2.589-.186-1.187-.257-2.65-.241-4.292.031-3.283.406-7.259.877-11.115l-.346-.042Zm.358 18.267c.922 1.005 2.146 1.344 3.439 1.298 1.29-.045 2.661-.471 3.91-1.013a23.486 23.486 0 0 0 3.211-1.729c.413-.263.747-.492.979-.656.116-.081.206-.147.268-.192l.07-.052.018-.014a.022.022 0 0 0 .005-.003l.001-.001v-.001l-.105-.138-.106-.139-.001.001a.014.014 0 0 1-.004.003l-.017.013-.068.05a21.444 21.444 0 0 1-1.227.835 23.225 23.225 0 0 1-3.163 1.704c-1.23.533-2.555.941-3.783.984-1.223.043-2.336-.277-3.17-1.185l-.257.235Zm11.958-2.566c-.063-.155-.101-.303-.162-.479-.056-.159-.129-.333-.253-.458l-.247.247c.064.064.116.171.171.326.048.138.104.335.167.493l.324-.129Zm-.618-.969c-1.337.684-3.25 1.328-4.759 1.267-.753-.03-1.379-.234-1.793-.667-.41-.43-.641-1.117-.534-2.184l-.347-.034c-.113 1.129.126 1.931.629 2.458.501.524 1.231.743 2.031.776 1.595.064 3.571-.609 4.932-1.305l-.159-.311Zm-7.087-1.582c.219-2.028 1.471-8.337 2.672-14.152a1250.371 1250.371 0 0 1 2.146-10.191l.146-.68.039-.178.009-.045.003-.012.001-.003-.171-.038-.17-.036-.001.004-.002.011-.01.046-.038.178-.147.68a1539.422 1539.422 0 0 0-2.147 10.193c-1.198 5.805-2.455 12.136-2.676 14.185l.346.038Zm4.899-25.464c-1.243-.404-2.849-1.121-4.15-1.74a77.401 77.401 0 0 1-1.629-.8c-.205-.102-.368-.186-.481-.244l-.129-.067-.034-.017-.008-.005-.002-.001h-.001l-.081.154-.08.154.003.002.008.005.034.017.13.067a78.573 78.573 0 0 0 2.12 1.049c1.303.62 2.926 1.346 4.193 1.757l.107-.331Zm-6.679-2.778c-.445 1.272-1.514 6.243-2.391 11.95l.344.053c.878-5.71 1.943-10.65 2.376-11.887l-.329-.115Zm-2.329 11.841a57.521 57.521 0 0 1-6.253 4.377l.18.299a57.923 57.923 0 0 0 6.293-4.405l-.22-.271Zm-6.037 4.406c-1.293-1.357-3.095-2.121-5.696-2.312l-.026.348c2.543.186 4.253.927 5.47 2.205l.252-.241Zm-5.697-2.312c-.937-.064-1.981.113-2.832.426a4.64 4.64 0 0 0-1.111.569c-.297.216-.53.47-.625.755l.33.11c.062-.186.229-.386.5-.583a4.285 4.285 0 0 1 1.026-.524c.811-.298 1.806-.466 2.688-.405l.024-.348Zm49.809 19.808-.038.17.015.004h.016l.007-.174Zm12.483-18.379.166.051-.332-.105.166.054Zm.062 16.623-.135.11.013.016.017.013.105-.139Zm10.79-2.07.113.132.095-.081-.046-.116-.162.065Zm-.377-.941.14-.105-.09-.119-.132.07.082.154Zm-7.527-1.819-.173-.018-.001.001.174.017Zm5.583-23.712.168.045.042-.157-.154-.053-.056.165Zm-5.269-3.575.123-.123-.144-.144-.12.164.141.103Zm-13.863 27.099.017-.174-.009-.001h-.008v.175Zm-2.196-9.535-.17-.036-.002.008-.001.009.173.019Zm3.576-15.62.167.048.045-.16-.156-.052-.056.164Zm-5.834-1.881.051-.167-.119-.037-.073.101.141.103Zm-12.107 26.346.018-.174h-.003l-.015.174Zm-.627-9.849-.173-.02v.001l.173.019Zm-.565-17.062-.074.158.006.002.068-.16Zm-9.973 4.328.046-.168-.16.301.114-.133Zm.878.753-.114.132.148.127.11-.161-.144-.098Zm4.83-1.882.103-.14-.024-.018-.029-.009-.05.167Zm-1.255 15.557.173.019.001-.001-.174-.018Zm4.391 15.494.013-.174-.018-.001-.019.002.024.173Zm12.922-18.003.166.055-.326-.123.16.068Zm-10.852 21.892-.156.078.331-.078h-.175Zm.439 5.457.06.164-.06-.164Zm22.395-2.383-.164.061.084.222.187-.146-.107-.137Zm.439-2.823.129.116.183-.203-.262-.08-.05.167Zm-8.35-3.841c1.685.066 3.312-1.107 4.789-2.826 1.483-1.727 2.851-4.047 4.014-6.365 1.164-2.32 2.127-4.647 2.799-6.393a76.108 76.108 0 0 0 .983-2.704l.052-.157.014-.04a.081.081 0 0 1 .003-.011l.001-.002v-.001l-.165-.054-.166-.054-.001.003a.04.04 0 0 0-.003.01l-.013.039-.052.155a73.318 73.318 0 0 1-.979 2.691c-.669 1.74-1.627 4.055-2.784 6.361-1.158 2.309-2.511 4.599-3.968 6.295-1.463 1.704-2.996 2.765-4.51 2.705l-.014.348Zm12.323-18.605c-.534 1.729-1.401 4.816-1.693 8.018-.291 3.192-.015 6.546 1.787 8.767l.271-.22c-1.711-2.108-2-5.34-1.711-8.515.289-3.165 1.147-6.225 1.679-7.947l-.333-.103Zm.124 16.814c2.305 1.752 5.082 1.204 7.24.256a16.53 16.53 0 0 0 2.694-1.522 16.916 16.916 0 0 0 .999-.748l.056-.046.014-.013.004-.003.001-.001-.113-.132-.114-.132h-.001l-.003.003-.013.011-.052.044-.206.165c-.179.14-.441.338-.77.565a16.157 16.157 0 0 1-2.636 1.49c-2.123.933-4.74 1.42-6.889-.215l-.211.278Zm11.057-2.274c-.061-.151-.102-.306-.162-.484a1.732 1.732 0 0 0-.237-.497l-.279.209c.076.102.132.236.186.398.05.151.103.341.168.504l.324-.13Zm-.621-1.03c-1.4.747-3.359 1.436-4.898 1.375-.766-.03-1.403-.245-1.825-.704-.419-.457-.656-1.189-.549-2.32l-.347-.033c-.112 1.19.13 2.034.64 2.589.507.553 1.25.784 2.068.817 1.629.064 3.653-.658 5.075-1.416l-.164-.308Zm-7.272-1.648c.218-2.148 1.61-8.061 2.952-13.454.67-2.693 1.327-5.25 1.816-7.135.244-.942.447-1.716.588-2.254l.164-.622.043-.163a.748.748 0 0 1 .012-.042l.002-.01.001-.003v-.001l-.168-.045-.169-.044v.001l-.001.002-.002.011a.429.429 0 0 0-.011.041l-.044.164-.164.622c-.141.539-.344 1.313-.588 2.256a743.104 743.104 0 0 0-1.817 7.138c-1.339 5.38-2.739 11.323-2.96 13.503l.346.035Zm5.466-23.894c-1.257-.429-2.556-1.308-3.547-2.089a22.55 22.55 0 0 1-1.626-1.415l-.022-.022a.023.023 0 0 0-.006-.006l-.001-.001-.123.123-.124.123h.001l.002.002a22.529 22.529 0 0 0 1.683 1.47c1 .788 2.336 1.696 3.65 2.145l.113-.33Zm-5.466-3.513c-.815 1.118-1.857 3.405-3.015 6.175-1.158 2.768-2.452 6.075-3.749 9.198-1.301 3.136-2.615 6.115-3.833 8.285-.609 1.086-1.19 1.961-1.727 2.55-.547.6-1.009.858-1.381.82l-.035.347c.553.056 1.119-.324 1.673-.932.565-.619 1.16-1.52 1.774-2.614 1.229-2.19 2.55-5.186 3.851-8.322 1.307-3.15 2.584-6.414 3.748-9.197 1.163-2.782 2.19-5.027 2.975-6.105l-.281-.205ZM343.124 123.8c-.394 0-.755-.223-1.074-.682-.32-.461-.582-1.141-.771-1.996-.379-1.709-.459-4.072-.178-6.663l-.346-.038c-.284 2.615-.206 5.019.183 6.776.195.878.47 1.606.826 2.119.358.515.812.833 1.36.833v-.349Zm-2.025-9.324c1.254-5.927 2.147-9.83 2.727-12.251.29-1.211.502-2.051.64-2.588l.155-.586.038-.139a5.87 5.87 0 0 1 .012-.042v-.002l-.167-.048-.168-.047-.001.003-.002.009-.01.034-.038.14c-.035.128-.086.322-.156.591-.139.539-.351 1.381-.642 2.594-.58 2.424-1.475 6.331-2.729 12.26l.341.072Zm3.461-15.82c-1.288-.44-2.748-.911-3.885-1.272-.569-.18-1.057-.333-1.403-.441l-.405-.126-.109-.034a1.294 1.294 0 0 1-.027-.008l-.008-.002h-.002v-.001l-.051.167-.051.166h.002l.007.003.028.008c.024.008.06.02.108.034a255.148 255.148 0 0 1 5.683 1.835l.113-.33Zm-6.031-1.82c-.817 1.121-1.75 3.365-2.744 6.064-.995 2.706-2.064 5.904-3.144 8.941-1.083 3.042-2.177 5.927-3.23 8.025-.527 1.05-1.039 1.894-1.528 2.461-.497.576-.931.822-1.302.784l-.035.347c.553.056 1.092-.313 1.601-.904.517-.599 1.044-1.473 1.575-2.532 1.064-2.12 2.165-5.022 3.247-8.064 1.084-3.048 2.148-6.232 3.144-8.937.997-2.711 1.915-4.905 2.698-5.98l-.282-.205Zm-11.951 26.275c-.346-.03-.612-.119-.815-.253a1.28 1.28 0 0 1-.462-.558c-.222-.486-.265-1.182-.195-2.068.07-.88.248-1.916.447-3.066.198-1.147.414-2.403.556-3.711l-.346-.038c-.141 1.296-.355 2.541-.554 3.69-.197 1.145-.379 2.198-.45 3.098-.071.895-.036 1.668.225 2.239.132.29.323.53.586.704.263.174.588.277.978.31l.03-.347Zm-.469-9.655c.374-3.274 1.083-7.204 1.271-10.47.095-1.636.06-3.126-.216-4.303-.276-1.176-.803-2.077-1.724-2.47l-.137.321c.772.33 1.257 1.099 1.522 2.228.265 1.128.301 2.578.207 4.204-.188 3.258-.891 7.138-1.269 10.45l.346.04Zm-.663-17.24c-1.525-.722-2.865-.79-4.033-.48-1.164.307-2.143.985-2.958 1.733-.813.746-1.475 1.573-1.993 2.18-.262.306-.482.55-.669.709-.093.079-.17.129-.232.157-.062.026-.097.025-.117.019l-.093.336a.516.516 0 0 0 .349-.036c.106-.046.213-.121.319-.211.21-.178.447-.444.708-.748.527-.617 1.17-1.421 1.964-2.15.792-.726 1.723-1.365 2.811-1.653 1.084-.287 2.34-.23 3.795.46l.149-.316Zm-10.162 4.619.878.752.227-.264-.878-.753-.227.265Zm.992.62.144.098v-.001l.004-.005.015-.02a4.642 4.642 0 0 1 .306-.372c.216-.238.533-.546.939-.827.811-.56 1.964-1.007 3.372-.588l.1-.334c-1.541-.459-2.803.036-3.67.635a5.933 5.933 0 0 0-1.261 1.19l-.068.091-.018.025-.005.007-.002.002v.001l.144.098Zm4.727-1.741a.33.33 0 0 1 .092.138c.033.08.063.189.086.328.047.279.065.657.057 1.124-.014.933-.129 2.19-.297 3.652-.336 2.91-.887 6.648-1.263 10.155l.347.037c.377-3.518.923-7.213 1.262-10.152.168-1.463.285-2.735.3-3.686.007-.475-.01-.878-.062-1.187a1.85 1.85 0 0 0-.109-.406.666.666 0 0 0-.207-.284l-.206.28Zm-1.325 15.396c-.22 1.968-.531 3.958-.76 5.878-.228 1.905-.371 3.712-.244 5.244.127 1.528.525 2.816 1.411 3.65.892.84 2.239 1.185 4.181.914l-.048-.345c-1.884.263-3.108-.082-3.894-.822-.793-.746-1.179-1.928-1.303-3.426-.124-1.495.016-3.272.243-5.174.225-1.886.542-3.927.76-5.88l-.346-.039Zm4.552 15.688c.696.051 1.419-.217 2.141-.694.723-.479 1.46-1.179 2.192-2.02 1.464-1.683 2.925-3.957 4.221-6.234a94.625 94.625 0 0 0 3.242-6.289c.406-.86.73-1.578.953-2.081.112-.251.198-.449.257-.584l.066-.154.017-.04.004-.01.001-.002.001-.001-.161-.068-.16-.068v.001l-.001.002-.005.01-.016.039-.066.153a99.379 99.379 0 0 1-1.205 2.654 93.889 93.889 0 0 1-3.23 6.265c-1.292 2.271-2.74 4.521-4.181 6.178-.721.829-1.435 1.503-2.122 1.958-.688.455-1.333.68-1.923.637l-.025.348Zm12.769-18.232c-.694 2.082-1.657 6.198-1.451 10.022.102 1.913.498 3.767 1.378 5.258.884 1.498 2.252 2.623 4.278 3.073l.076-.34c-1.927-.428-3.216-1.49-4.054-2.91-.841-1.425-1.229-3.217-1.33-5.099-.203-3.766.748-7.836 1.434-9.894l-.331-.11Zm-10.512 21.947-.003-.032a.323.323 0 0 0-.054-.097.294.294 0 0 0-.203-.024.387.387 0 0 0-.053.046c-.011.015-.018.029-.019.031a.141.141 0 0 1-.005.011l-.008.022-.017.053-.055.194c-.045.167-.108.409-.176.697a19.014 19.014 0 0 0-.382 2.09c-.086.738-.107 1.484.052 2 .079.26.213.489.434.615.225.129.501.128.813.015l-.119-.328c-.253.092-.414.071-.521.01-.112-.064-.207-.196-.274-.414-.136-.441-.125-1.122-.039-1.858.085-.728.24-1.481.375-2.05a19.917 19.917 0 0 1 .239-.913l-.004.009c-.001.002-.007.015-.018.029a.387.387 0 0 1-.053.046.294.294 0 0 1-.203-.024.314.314 0 0 1-.053-.096.211.211 0 0 1-.003-.032h.349Zm.324 5.621c3.676-1.339 9.394-2.044 14.136-2.358a88.276 88.276 0 0 1 5.978-.207c.745.004 1.33.024 1.709.057.192.017.321.036.39.054l.029.009c.006.003-.006-.001-.022-.016a.155.155 0 0 1-.043-.134c.009-.058.046-.086.051-.09l.214.275a.205.205 0 0 0 .079-.13.2.2 0 0 0-.059-.173.288.288 0 0 0-.083-.052.536.536 0 0 0-.077-.026 2.897 2.897 0 0 0-.449-.064 23.413 23.413 0 0 0-1.738-.059 88.31 88.31 0 0 0-6.002.208c-4.745.314-10.506 1.021-14.232 2.379l.119.327Zm22.498-2.609c-.356-.947-.113-2.069.405-2.645l-.259-.233c-.611.679-.87 1.941-.473 3.001l.327-.123Zm.326-2.928c-5.391-1.639-11.279-1.795-15.791-1.497-2.257.15-4.173.413-5.515.663-.671.125-1.201.248-1.559.352-.178.051-.32.1-.418.144a.641.641 0 0 0-.132.079.237.237 0 0 0-.064.081.195.195 0 0 0 0 .172l.312-.156a.153.153 0 0 1-.015.161l-.009.009.012-.008.041-.021c.074-.033.197-.077.37-.127.343-.099.861-.219 1.526-.343 1.328-.248 3.23-.51 5.474-.658 4.49-.297 10.332-.14 15.667 1.483l.101-.334ZM35.245 58.824c-.188 0 0-2.32 0-2.51C9.087 63.78 20.943 9.458 37.879 21.439c1.443 1.066 3.764 2.007 4.83 3.952l-4.077 28.165-5.77 39.833s11.792 3.199 11.416 1.066c-3.2-21.14.878-47.925 3.889-62.415 1.756-8.406 15.682-13.299 18.191-9.096.69.941 1.506 7.59 1.38 11.856-4.453 2.823-10.162 8.657-12.545 11.103-4.454 4.58-6.273 14.741.439 16.184 4.39.94 14.929-2.07 17.877-16.184.69-3.387 1.443-9.347 1.38-12.107a95.065 95.065 0 0 1 3.074-1.63l.125-2.133c-1.066.376-2.132.69-3.387 1.254-.627-5.708-3.074-11.605-6.398-13.047-7.026-3.388-19.007 3.45-19.07 4.265l1.38-8.656c-6.712-2.698-11.29.125-11.29.125.25.314.187.941.438 1.255 3.827-1.192 5.709-1.694 4.015 6.21C27.09 5.317 2.06 30.973 14.23 50.92c8.656 14.177 21.202 7.904 21.014 7.904Zm21.265-8.406c1.192-3.512 7.088-9.158 10.977-11.98-.501 5.268-3.889 12.984-6.335 16.371-5.395 7.842-6.524 1.067-4.642-4.39Zm46.248 19.133c-.125-.314-.188-.251-.376-.502-2.823 1.505-5.207 2.383-4.767-2.258.439-4.329 5.582-23.712 5.582-23.712-2.571-.878-5.269-3.575-5.269-3.575-2.697 4.83-9.723 27.788-13.925 26.973-1.882 0-1.13-5.457-.565-10.664.753-6.586 2.823-15.62-.565-17.062-5.959-2.823-9.158 3.7-9.973 4.328l.878.753s1.882-2.76 4.83-1.882c.94.69-.502 8.531-1.255 15.557-.878 7.84-3.262 16.56 4.391 15.494 5.144.376 12.922-18.003 12.922-18.003-1.066 3.45-3.45 12.294.063 16.623 4.454 3.387 8.029-2.07 8.029-2.07Zm2.356-23.21c.188.251.251.188.439.44 2.635-1.82 4.956-2.886 4.956 1.756 0 4.328-3.199 24.59-3.199 24.59a37.597 37.597 0 0 1 5.582 1.567c1.192-2.007 2.321-7.966 2.823-11.228l6.461-3.89c.314 3.137-1.003 11.292 4.956 12.797 6.963 2.321 8.907-5.269 8.907-5.269l-.376-.69s-1.568 2.948-4.579 2.384c-5.395-1.757-1.067-21.83.376-23.9.941-3.262-4.391-3.889-4.391-3.889-1.944 1.255-3.764 12.985-4.579 14.051-3.45 4.517-6.649 4.329-6.649 4.329.376-3.2 1.003-12.044-2.949-15.933-4.767-2.949-7.778 2.885-7.778 2.885Zm53.461-1.129c-10.287-18.944-33.372 17.313-15.055 27.287 6.336 3.45 11.856-9.848 11.856-9.848s-1.757 10.663 5.896 9.785c3.325-.376 4.768-3.7 5.332-5.77l-.251-.189c-5.206 7.653-7.778-1.694-7.778-3.827 0-2.258.941-14.113.941-14.113l-4.14-1.192s-1.004 14.302-4.328 18.63c-2.07 2.698-8.469 7.653-7.528-3.324 2.258-21.83 15.055-16.247 15.055-17.439Zm38.109 23.586c-1.129 2.007-3.513 2.948-4.642 2.133-5.019-4.329-5.269-20.952-4.705-29.67 0 0-16.435.25-16.874 1.63 0 0-.188 1.82 1.192 2.697 1.443-.25 2.823-.564 2.823-.25-.314 17.689-2.133 23.146-5.897 27.412-5.144 5.834-19.007 6.21-22.394 1.38-1.254-.376 4.14 13.173 19.697 8.406 12.044-4.517 14.051-36.07 13.988-37.763.941-.063.941-.126 1.631-.126-2.509 30.173 6.399 29.985 10.79 29.86 1.693.125 4.077-2.07 5.582-4.768l-1.191-.941Zm11.405-15.369c-.439 1.506.376 4.329 5.395 3.827 1.442 6.084-2.447 15.431-7.967 12.42-2.195-2.007-.188-8.656.376-13.863.753-6.586 3.011-13.11-.376-14.553-5.959-2.823-8.845 4.642-9.974 4.328l.878.753s1.882-2.76 4.831-1.882c.94.69-.69 6.022-1.443 13.048-.878 7.84-3.388 14.24 4.767 15.494 12.671 1.63 18.254-10.727 14.616-17.376 1.066-.502 1.317-.44 2.697-1.13 1.38-.69 2.321-1.881 1.129-2.446-.188.816-1.317 1.192-4.767 2.008-1.255-1.443-3.074-2.196-5.646-2.384-1.944-.125-4.202.69-4.516 1.756Zm14.029-7.088c.188.251.251.188.439.44 2.634-1.82 4.955-2.886 4.955 1.756 0 4.328-3.199 24.59-3.199 24.59 2.948.564 5.583 1.567 5.583 1.567 1.192-2.007 2.321-7.966 2.823-11.228l6.461-3.89c.313 3.137-1.004 11.292 4.955 12.797 6.963 2.321 8.908-5.269 8.908-5.269l-.377-.69s-1.568 2.948-4.579 2.384c-5.394-1.757-1.066-21.83.377-23.9.941-3.262-4.391-3.889-4.391-3.889-1.945 1.255-3.764 12.985-4.58 14.051-3.45 4.517-6.649 4.329-6.649 4.329.377-3.2 1.004-12.044-2.948-15.933-4.767-2.949-7.778 2.885-7.778 2.885Zm43.863 8.782c-.376 1.443.376 4.14 5.269 3.638 1.443 5.771-2.321 14.553-7.778 11.73-2.07-1.881-.188-8.154.376-13.047.753-6.21 2.76-14.804-.564-16.121-5.771-2.697-8.657 4.328-9.66 4.077l.752.69s1.882-2.634 4.768-1.756c.941.627-.502 8.029-1.192 14.678-.878 7.402-3.388 13.487 4.579 14.616 12.42 1.568 17.878-10.1 14.365-16.372.941-.502 2.07-1.066 3.324-1.882l1.569-.878c-.941 7.715-1.506 15.933.313 18.128 3.513 3.827 11.668-2.383 11.668-2.383-.126-.314-.188-.69-.377-.879-2.697 1.38-7.778 2.635-7.339-1.756.439-4.077 5.018-25.28 5.018-25.28-2.509-.815-6.461-2.885-6.461-2.885-.439 1.255-1.505 6.21-2.383 11.918a57.694 57.694 0 0 1-6.273 4.391c-1.255-1.317-3.011-2.07-5.583-2.258-1.819-.125-4.077.69-4.391 1.631Zm54.588-18.254s-.063-1.944-.188-2.007c-2.886 1.442-9.911 2.885-10.476-2.447-.376-3.45 4.14-4.077 4.454-3.638 0 0-.125-3.764-1.568-5.08-15.181-.503-8.28 20.825 7.778 13.172Zm3.638 32.682c-.125-.314-.188-.251-.376-.502-2.823 1.505-5.206 2.383-4.767-2.258.439-4.329 5.582-23.712 5.582-23.712-2.571-.878-5.269-3.575-5.269-3.575-2.697 4.83-9.723 27.788-13.925 26.973-1.882 0-1.13-5.457-.565-10.664.753-6.586 2.823-15.62-.565-17.062-5.959-2.823-9.158 3.7-9.973 4.328l.878.753s1.882-2.76 4.83-1.882c.941.69-.502 8.531-1.255 15.557-.878 7.84-3.262 16.56 4.391 15.494 5.144.376 12.922-18.003 12.922-18.003-1.066 3.45-3.45 12.294.063 16.623 4.454 3.387 8.029-2.07 8.029-2.07Z"/><path fill="#E42032" d="M35.245 56.315h.174v-.231l-.222.063.048.168Zm2.634-34.877.104-.14-.003-.002-.1.142Zm4.83 3.952.173.025.008-.058-.028-.051-.153.084Zm-4.077 28.165.173.025-.173-.025Zm-5.77 39.833-.173-.026-.023.153.15.04.045-.168Zm11.416 1.066-.173.026.001.004.172-.03Zm3.889-62.415-.17-.036.17.036Zm18.191-9.096-.15.09.005.007.005.006.14-.103Zm1.38 11.856.094.147.078-.05.002-.092-.174-.005ZM55.193 45.902l-.125-.122.125.122Zm.439 16.184-.037.17.037-.17Zm17.877-16.184.17.036.001-.001-.17-.035Zm1.38-12.107-.084-.152-.092.05.002.106.174-.004Zm3.074-1.63.078.155.09-.045.006-.1-.174-.01Zm.125-2.133.174.01.016-.262-.248.087.058.165Zm-3.387 1.254-.173.02.026.238.219-.099-.072-.159ZM68.303 18.24l-.076.157.006.002.07-.16Zm-19.07 4.265-.173-.013.345.04-.172-.027Zm1.38-8.656.172.027.022-.137-.129-.052-.065.162Zm-11.29.125-.092-.148-.168.103.123.154.136-.109Zm.438 1.255-.136.109.075.093.113-.036-.052-.166Zm4.015 6.21-.121.125.225.218.066-.307-.17-.036ZM14.23 50.92l-.149.091.149-.09Zm42.279-.502.165.057-.165-.057Zm10.977-11.98.174.016.036-.385-.312.227.102.141Zm-6.335 16.371-.142-.102-.002.004.144.098Zm-25.907 3.84c.043 0 .076.019.096.036a.11.11 0 0 1 .027.032c.003.005-.001 0-.006-.027a1.67 1.67 0 0 1-.023-.238c-.008-.214-.002-.504.01-.805.011-.3.029-.606.043-.85.015-.238.027-.428.027-.482h-.348c0 .04-.011.21-.027.46-.014.245-.032.555-.044.858-.012.303-.018.605-.009.832.005.113.013.215.029.293a.452.452 0 0 0 .04.121c.015.03.07.12.185.12v-.35Zm-.048-2.502c-3.245.926-5.883.89-7.987.157-2.101-.733-3.688-2.165-4.821-4.064-2.272-3.805-2.718-9.473-1.815-15.03.902-5.553 3.144-10.95 6.197-14.208 1.526-1.628 3.244-2.712 5.089-3.027 1.841-.316 3.833.13 5.919 1.605l.201-.284c-2.148-1.52-4.232-1.998-6.179-1.665-1.942.332-3.725 1.469-5.284 3.132-3.116 3.325-5.378 8.796-6.287 14.392-.909 5.594-.473 11.358 1.86 15.264 1.169 1.958 2.815 3.45 5.006 4.214 2.189.762 4.902.79 8.197-.15l-.096-.336Zm2.579-34.569c.367.272.79.534 1.226.802.438.27.893.545 1.335.848.886.606 1.706 1.309 2.22 2.245l.305-.167c-.553-1.008-1.426-1.748-2.328-2.365-.451-.31-.914-.59-1.35-.858a17.271 17.271 0 0 1-1.201-.785l-.207.28Zm4.761 3.787L38.46 53.53l.345.05 4.077-28.165-.345-.05ZM38.46 53.53l-5.771 39.832.345.05 5.77-39.832-.344-.05ZM32.86 93.388l-.045.168h.002l.006.002.026.007a48.15 48.15 0 0 0 .473.124c.323.084.783.2 1.334.334 1.101.267 2.567.602 4.022.869 1.452.267 2.904.47 3.974.47.53 0 .989-.05 1.308-.18a.864.864 0 0 0 .393-.289.61.61 0 0 0 .095-.47l-.343.061a.263.263 0 0 1-.037.21.524.524 0 0 1-.24.165c-.253.103-.655.154-1.176.154-1.036 0-2.462-.198-3.91-.464a75.415 75.415 0 0 1-4.004-.864 88.636 88.636 0 0 1-1.799-.457l-.025-.006-.006-.002h-.002l-.046.168Zm11.589 1.04c-3.194-21.107.877-47.867 3.887-62.354l-.34-.07C44.984 46.497 40.9 73.308 44.104 94.48l.345-.052Zm3.887-62.353c.862-4.123 4.722-7.414 8.713-9.152 1.992-.868 3.998-1.34 5.654-1.34 1.664.002 2.925.478 3.505 1.45l.299-.179c-.675-1.13-2.096-1.618-3.804-1.619-1.715 0-3.77.487-5.793 1.368-4.038 1.759-8.02 5.118-8.915 9.4l.341.072Zm17.88-9.029c.069.093.15.276.237.554.086.273.173.62.258 1.028.17.816.332 1.863.469 3.017.274 2.308.445 5.027.383 7.149l.348.01c.063-2.144-.11-4.881-.385-7.2a36.768 36.768 0 0 0-.474-3.047 11.445 11.445 0 0 0-.266-1.061c-.089-.283-.184-.513-.288-.656l-.281.206Zm1.428 11.606c-4.475 2.836-10.198 8.687-12.577 11.128l.25.244c2.387-2.451 8.08-8.268 12.514-11.078l-.187-.294ZM55.068 45.78c-2.258 2.32-3.843 6.047-4.017 9.38-.087 1.668.177 3.253.903 4.518.728 1.27 1.915 2.206 3.641 2.577l.073-.34c-1.63-.35-2.733-1.226-3.412-2.41-.682-1.19-.942-2.702-.857-4.327.17-3.253 1.722-6.898 3.918-9.156l-.25-.242Zm.527 16.475c4.491.963 15.118-2.115 18.085-16.318l-.341-.072c-2.93 14.025-13.38 16.97-17.67 16.05l-.074.34Zm18.085-16.32c.691-3.392 1.447-9.366 1.383-12.145l-.348.008c.062 2.742-.688 8.686-1.377 12.068l.342.07Zm1.293-11.988a109.483 109.483 0 0 1 3.011-1.6l.043-.02.01-.006.003-.001-.077-.157-.078-.155h-.001s-.002 0-.003.002l-.01.005-.044.022-.168.085-.631.326c-.542.283-1.312.691-2.223 1.194l.168.305Zm3.164-1.773.125-2.133-.347-.02-.126 2.132.348.02Zm-.107-2.308c-1.056.373-2.137.692-3.4 1.26l.143.318c1.245-.56 2.297-.87 3.373-1.249l-.116-.329Zm-3.156 1.4c-.315-2.87-1.088-5.79-2.203-8.178-1.111-2.38-2.577-4.263-4.299-5.01l-.139.32c1.603.695 3.023 2.482 4.123 4.838 1.096 2.348 1.86 5.23 2.172 8.068l.346-.038Zm-6.496-13.185c-1.793-.865-3.894-1.073-6.025-.894-2.131.179-4.305.746-6.255 1.443a32.608 32.608 0 0 0-4.932 2.235c-.625.353-1.132.678-1.487.942a3.79 3.79 0 0 0-.422.354c-.051.052-.095.102-.128.151a.378.378 0 0 0-.07.178l.348.027c-.001.02-.008.018.011-.01a.752.752 0 0 1 .087-.1c.084-.086.211-.194.381-.32.34-.253.834-.57 1.451-.919a32.248 32.248 0 0 1 4.879-2.21c1.931-.69 4.074-1.248 6.167-1.424 2.093-.176 4.125.032 5.844.86l.151-.313Zm-18.973 4.45 1.38-8.657-.344-.055-1.38 8.657.344.055Zm1.273-8.846c-3.39-1.362-6.247-1.332-8.26-.958-1.005.186-1.799.459-2.343.685a8.189 8.189 0 0 0-.786.378l-.042.024-.012.007-.003.002h-.001l.091.15.091.147h.003l.008-.006.037-.021a7.835 7.835 0 0 1 .748-.358 11.322 11.322 0 0 1 2.274-.666c1.955-.363 4.744-.396 8.065.94l.13-.324Zm-11.492.396c.044.054.079.13.109.227.03.098.052.206.076.326.023.115.048.242.085.36.036.118.087.24.17.342l.271-.218a.686.686 0 0 1-.108-.227 3.365 3.365 0 0 1-.076-.326c-.024-.116-.049-.242-.085-.36a1.027 1.027 0 0 0-.17-.342l-.272.218Zm.627 1.312c.96-.3 1.78-.549 2.45-.637.674-.09 1.145-.01 1.454.29.316.305.512.884.51 1.918-.002 1.027-.199 2.464-.621 4.436l.34.073c.424-1.98.628-3.444.63-4.508.001-1.057-.194-1.761-.616-2.17-.428-.413-1.038-.478-1.742-.385-.706.094-1.556.354-2.509.65l.104.333Zm4.084 5.918c-4.207-4.064-8.95-5.502-13.505-5.047-4.55.454-8.9 2.796-12.333 6.266-6.865 6.935-10.113 18.423-3.977 28.48l.297-.181c-6.033-9.89-2.851-21.205 3.928-28.054 3.388-3.423 7.664-5.72 12.12-6.164 4.45-.445 9.092.955 13.228 4.951l.242-.25Zm-29.815 29.7c4.359 7.138 9.712 9.144 13.964 9.35 2.12.103 3.961-.241 5.26-.612.65-.185 1.164-.377 1.513-.523a6.28 6.28 0 0 0 .395-.18c.043-.023.079-.042.103-.057a.296.296 0 0 0 .045-.033.183.183 0 0 0 .058-.114.307.307 0 0 0-.02-.102.307.307 0 0 0-.07-.07.179.179 0 0 0-.085-.021v.348c-.008 0-.043 0-.082-.02a.307.307 0 0 1-.07-.07.306.306 0 0 1-.02-.1c.005-.049.03-.08.034-.086a.16.16 0 0 1 .02-.022c.01-.009.016-.012.007-.007a5.953 5.953 0 0 1-.45.212c-.336.142-.838.329-1.474.51-1.271.363-3.073.7-5.147.6-4.138-.202-9.386-2.147-13.683-9.185l-.298.181Zm42.593-.538c.582-1.716 2.33-3.982 4.438-6.184 2.102-2.197 4.541-4.307 6.477-5.712l-.205-.282c-1.954 1.418-4.408 3.542-6.524 5.753-2.11 2.204-3.907 4.517-4.516 6.313l.33.112Zm10.639-12.053c-.249 2.61-1.214 5.839-2.427 8.843-1.212 3.003-2.665 5.765-3.877 7.443l.283.204c1.234-1.709 2.699-4.498 3.917-7.517 1.219-3.018 2.198-6.282 2.45-8.94l-.346-.033Zm-6.306 16.29c-1.346 1.956-2.406 2.968-3.195 3.33-.389.177-.695.19-.936.1-.243-.09-.452-.295-.62-.62-.339-.656-.474-1.73-.4-3.001.073-1.264.352-2.695.818-4.045l-.33-.113a15.867 15.867 0 0 0-.836 4.137c-.075 1.29.056 2.442.438 3.182.193.373.458.657.808.787.352.13.757.093 1.203-.11.882-.404 1.986-1.486 3.337-3.45l-.287-.197Zm41.75 14.84.146.095.05-.076-.034-.084-.162.065Zm-.376-.502.139-.105-.089-.12-.132.071.082.154Zm-4.767-2.258-.174-.018v.001l.174.017Zm5.582-23.712.169.045.042-.157-.154-.053-.057.165Zm-5.269-3.575.124-.123-.164-.163-.112.2.152.086ZM84.003 66.477l.033-.171-.017-.003h-.017v.174Zm-.565-10.664-.173-.02v.001l.173.02Zm-.565-17.062-.074.157.006.003.068-.16ZM72.9 43.079l-.107-.138-.17.13.163.14.114-.132Zm.878.753-.114.132.148.127.11-.16-.144-.1Zm4.83-1.882.103-.14-.024-.018-.03-.009-.05.167Zm-1.255 15.557.174.02v-.002l-.174-.018ZM81.744 73l.013-.174-.018-.001-.019.002.024.173Zm12.922-18.003.167.051-.327-.12.16.069Zm.063 16.623-.135.11.013.016.017.012.105-.138Zm8.191-2.135a.889.889 0 0 0-.203-.333c-.067-.067-.111-.097-.196-.209l-.278.21c.104.138.184.202.228.245.034.035.07.076.126.216l.323-.13Zm-.62-.59c-.705.375-1.374.707-1.975.924-.605.219-1.117.311-1.517.234-.381-.074-.68-.305-.868-.802-.191-.51-.26-1.293-.152-2.445l-.347-.033c-.11 1.17-.047 2.017.173 2.6.225.598.615.923 1.128 1.022.494.095 1.08-.024 1.702-.248.626-.226 1.313-.568 2.02-.945l-.164-.308Zm-4.512-2.088c.218-2.148 1.61-8.06 2.952-13.454.67-2.693 1.327-5.25 1.816-7.135.244-.942.447-1.716.588-2.254l.164-.623.043-.163.011-.041a.062.062 0 0 1 .003-.01l.001-.003-.169-.046-.168-.044-.001.003a.03.03 0 0 1-.003.01l-.011.042-.043.163-.164.623c-.141.539-.344 1.313-.589 2.256a746.422 746.422 0 0 0-1.816 7.138c-1.34 5.38-2.74 11.323-2.96 13.503l.346.035Zm5.466-23.894c-1.258-.43-2.556-1.308-3.548-2.089a22.352 22.352 0 0 1-1.647-1.437l-.006-.006-.001-.001-.124.123-.123.123.002.002a.29.29 0 0 0 .007.006l.023.024.092.088A22.665 22.665 0 0 0 99.49 41.1c1 .788 2.336 1.696 3.65 2.145l.113-.33Zm-5.478-3.495c-.681 1.22-1.631 3.574-2.733 6.388-1.104 2.82-2.365 6.115-3.674 9.233-1.309 3.12-2.661 6.053-3.945 8.155-.643 1.051-1.263 1.884-1.846 2.428-.588.548-1.102.768-1.542.683l-.067.342c.61.118 1.236-.2 1.847-.77.616-.576 1.256-1.44 1.905-2.502 1.299-2.125 2.66-5.08 3.97-8.201 1.31-3.123 2.574-6.424 3.677-9.24 1.105-2.825 2.045-5.152 2.712-6.346l-.304-.17ZM84.003 66.303a.624.624 0 0 1-.465-.194c-.13-.132-.242-.336-.33-.618-.177-.566-.243-1.388-.23-2.392.023-2.004.35-4.658.633-7.267l-.346-.038c-.282 2.597-.613 5.275-.636 7.301-.012 1.011.052 1.88.246 2.5.097.31.23.573.416.76.19.191.429.296.712.296v-.348Zm-.392-10.47c.374-3.274 1.083-7.204 1.271-10.47.095-1.636.06-3.126-.216-4.303-.276-1.176-.803-2.077-1.724-2.47l-.137.321c.772.33 1.257 1.099 1.522 2.228.265 1.128.301 2.578.207 4.204-.188 3.258-.89 7.138-1.27 10.45l.347.04Zm-.663-17.24c-1.52-.72-2.876-.848-4.066-.616-1.187.232-2.197.82-3.035 1.51-.838.69-1.51 1.488-2.02 2.148-.254.327-.475.63-.648.857-.181.239-.306.388-.386.45l.213.275c.124-.095.278-.287.45-.514.182-.238.391-.527.646-.855.504-.652 1.158-1.426 1.966-2.092.809-.666 1.767-1.22 2.881-1.437 1.111-.217 2.391-.102 3.85.59l.149-.316Zm-10.162 4.618.878.753.227-.264-.878-.753-.227.264Zm.992.62.144.1v-.002l.004-.005a2.217 2.217 0 0 1 .076-.102 5.553 5.553 0 0 1 1.184-1.117c.811-.56 1.964-1.007 3.372-.588l.1-.334c-1.54-.459-2.803.036-3.67.635a5.896 5.896 0 0 0-1.33 1.28 1.44 1.44 0 0 0-.023.035h-.001l.144.099Zm4.727-1.74a.327.327 0 0 1 .092.138c.033.08.063.189.086.328.047.279.065.657.057 1.124-.014.933-.129 2.19-.297 3.652-.336 2.91-.887 6.648-1.263 10.155l.347.037c.376-3.518.923-7.213 1.262-10.152.168-1.463.285-2.735.3-3.686a6.9 6.9 0 0 0-.062-1.187 1.84 1.84 0 0 0-.11-.406.662.662 0 0 0-.206-.284l-.206.28ZM77.18 57.487c-.22 1.968-.53 3.958-.76 5.878-.228 1.905-.371 3.711-.244 5.243.127 1.53.525 2.817 1.41 3.651.893.84 2.24 1.185 4.182.914l-.048-.345c-1.884.263-3.108-.082-3.894-.823-.793-.745-1.178-1.928-1.303-3.425-.124-1.495.016-3.272.243-5.174.225-1.886.542-3.927.76-5.88l-.346-.039Zm4.552 15.687c.696.051 1.419-.216 2.14-.694.724-.478 1.461-1.178 2.193-2.02 1.464-1.682 2.925-3.956 4.22-6.233a94.587 94.587 0 0 0 3.243-6.29 101.16 101.16 0 0 0 1.276-2.818l.017-.04.004-.01.001-.003-.16-.068-.16-.068-.001.003a.401.401 0 0 1-.005.01l-.016.039-.066.153-.255.58c-.222.502-.546 1.217-.95 2.074a94.169 94.169 0 0 1-3.23 6.265c-1.292 2.27-2.74 4.52-4.181 6.178-.72.829-1.435 1.503-2.122 1.958-.688.455-1.333.68-1.923.637l-.025.347ZM94.5 54.946c-.534 1.729-1.401 4.816-1.693 8.018-.29 3.192-.015 6.546 1.787 8.767l.27-.22c-1.71-2.108-2-5.34-1.71-8.515.289-3.166 1.147-6.226 1.679-7.947l-.333-.103Zm.124 16.813c1.142.87 2.24 1.178 3.245 1.141 1.002-.036 1.897-.416 2.64-.898a8.746 8.746 0 0 0 1.752-1.536 9.337 9.337 0 0 0 .599-.755l.032-.047a.67.67 0 0 0 .009-.013l.002-.003.001-.001-.146-.096-.145-.096h-.001l-.001.003-.007.01-.03.043a8.847 8.847 0 0 1-.575.724 8.37 8.37 0 0 1-1.68 1.475c-.708.459-1.542.808-2.463.842-.917.034-1.937-.245-3.021-1.07l-.211.277Zm10.49-25.418-.155-.08-.05.097.066.088.139-.105Zm.439.44-.139.104.1.134.138-.095-.099-.144Zm1.757 26.345-.172-.027-.027.167.166.031.033-.17Zm5.582 1.568-.062.163.137.052.075-.126-.15-.089Zm2.823-11.228-.09-.15-.07.043-.012.08.172.027Zm6.461-3.89.174-.017-.028-.273-.236.142.09.149Zm4.956 12.797.055-.165-.012-.004-.043.17Zm8.907-5.269.169.043.017-.066-.033-.06-.153.083Zm-.376-.69.153-.083-.155-.284-.152.285.154.082Zm-4.579 2.384-.054.166.011.003.011.002.032-.171Zm.376-23.9.143.1.017-.024.008-.027-.168-.049Zm-4.391-3.889.02-.173-.062-.007-.052.034.094.146ZM122.49 55.06l-.138-.105h-.001l.139.105Zm-6.649 4.329-.173-.02-.022.183.184.01.011-.173Zm-2.949-15.933.123-.125-.014-.013-.017-.01-.092.148Zm-7.917 2.99c.107.143.184.202.254.254a.767.767 0 0 1 .185.185l.279-.21a1.121 1.121 0 0 0-.255-.254c-.055-.041-.104-.077-.184-.184l-.279.209Zm.677.478c.657-.454 1.287-.855 1.863-1.133.579-.279 1.081-.42 1.488-.382.388.037.711.24.946.716.241.489.386 1.26.386 2.412h.348c0-1.17-.145-2.006-.422-2.566-.282-.573-.704-.86-1.226-.909-.502-.048-1.075.128-1.672.415-.6.29-1.248.704-1.909 1.16l.198.287Zm4.683 1.613c0 2.148-.798 8.28-1.598 13.893a801.23 801.23 0 0 1-1.462 9.79l-.102.65-.026.17-.007.044-.002.011v.003l.172.028.172.027v-.003l.002-.011.007-.044.027-.17.101-.651a799.761 799.761 0 0 0 1.463-9.795c.799-5.6 1.601-11.763 1.601-13.942h-.348Zm-3.058 24.76c1.465.28 2.854.671 3.878.991a37.63 37.63 0 0 1 1.558.526l.088.032.022.008.006.003h.001l.062-.163c.063-.162.062-.162.062-.163h-.002a.059.059 0 0 0-.006-.003l-.023-.008-.089-.033a38.215 38.215 0 0 0-1.575-.53 36.27 36.27 0 0 0-3.917-1.002l-.065.342Zm5.765 1.486c.612-1.03 1.197-3.049 1.69-5.193a88.795 88.795 0 0 0 1.155-6.098l-.344-.052a88.704 88.704 0 0 1-1.15 6.072c-.495 2.152-1.07 4.117-1.65 5.093l.299.178Zm2.763-11.168 6.461-3.889-.18-.298-6.461 3.889.18.298Zm6.198-4.02c.077.773.054 1.855.068 3.095.013 1.231.064 2.603.294 3.927.46 2.645 1.645 5.148 4.724 5.925l.086-.338c-2.881-.727-4.016-3.055-4.466-5.647-.225-1.295-.276-2.644-.29-3.871-.013-1.219.01-2.332-.069-3.127l-.347.035Zm5.074 12.944c1.771.59 3.237.554 4.439.156 1.2-.398 2.121-1.152 2.814-1.973.693-.821 1.161-1.714 1.457-2.4a10.107 10.107 0 0 0 .396-1.085l.019-.065.004-.018.002-.004v-.002l-.169-.044-.168-.043h-.001l-.001.004c0 .004-.002.008-.004.015a7.105 7.105 0 0 1-.088.291c-.066.2-.167.482-.31.814-.287.665-.74 1.525-1.403 2.312-.664.786-1.534 1.494-2.658 1.867-1.121.372-2.509.414-4.219-.156l-.11.33Zm9.115-5.518-.376-.69-.306.167.376.69.306-.167Zm-.529-.607-.154-.082v.002a.017.017 0 0 0-.003.005l-.013.022-.052.088a5.55 5.55 0 0 1-1.053 1.237c-.742.644-1.835 1.21-3.272.94l-.064.343c1.573.295 2.77-.33 3.565-1.02a5.927 5.927 0 0 0 1.121-1.318 2.377 2.377 0 0 0 .073-.124l.004-.008.001-.002h.001l-.154-.083Zm-4.525 2.218c-.621-.202-1.113-.67-1.493-1.364-.382-.697-.645-1.61-.809-2.68-.327-2.14-.248-4.861.045-7.604.293-2.74.8-5.49 1.323-7.685.261-1.097.526-2.053.77-2.797.246-.752.465-1.269.629-1.504l-.286-.2c-.197.283-.429.846-.674 1.595a36.124 36.124 0 0 0-.778 2.826 63.803 63.803 0 0 0-1.33 7.728c-.295 2.754-.377 5.51-.043 7.693.166 1.091.438 2.05.847 2.795.41.748.962 1.291 1.691 1.529l.108-.332Zm.49-23.685c.249-.867.083-1.572-.315-2.133-.392-.553-1.001-.953-1.622-1.242a8.991 8.991 0 0 0-1.765-.584 10.425 10.425 0 0 0-.773-.144l-.046-.006-.013-.001a.03.03 0 0 0-.003 0h-.001l-.021.172-.02.173h.003l.01.002a2.98 2.98 0 0 1 .206.03c.141.023.342.06.581.114a8.631 8.631 0 0 1 1.695.56c.595.277 1.142.645 1.485 1.127.337.474.484 1.07.264 1.835l.335.097Zm-4.653-4.084c-.283.182-.541.536-.781.984-.243.454-.481 1.029-.71 1.679-.46 1.301-.897 2.925-1.297 4.537-.2.807-.392 1.612-.572 2.373-.181.762-.351 1.48-.508 2.113-.158.634-.302 1.181-.432 1.601-.065.21-.126.387-.182.525a1.302 1.302 0 0 1-.141.28l.276.211c.066-.086.128-.212.188-.36.061-.151.125-.338.192-.553.133-.43.279-.984.437-1.62.158-.635.328-1.355.509-2.116.181-.762.372-1.565.571-2.37.4-1.61.833-3.22 1.287-4.505.227-.642.458-1.198.689-1.63.235-.438.459-.725.663-.856l-.189-.293Zm-4.624 14.092c-1.707 2.235-3.346 3.298-4.547 3.803a6.034 6.034 0 0 1-1.435.417 3.656 3.656 0 0 1-.513.04h-.005l-.01.174-.01.174h.001a.03.03 0 0 1 .003 0h.009a2.17 2.17 0 0 0 .148-.001c.1-.004.245-.015.428-.042a6.386 6.386 0 0 0 1.519-.441c1.261-.53 2.947-1.632 4.689-3.913l-.277-.211Zm-6.337 4.454c.189-1.605.441-4.63.149-7.744-.291-3.107-1.126-6.344-3.148-8.334l-.245.249c1.93 1.9 2.757 5.03 3.046 8.117.289 3.08.039 6.077-.148 7.671l.346.041Zm-3.03-16.102c-1.223-.756-2.345-.955-3.342-.817-.993.138-1.845.61-2.536 1.167a8.782 8.782 0 0 0-1.589 1.718 9.717 9.717 0 0 0-.52.817l-.028.05-.007.014-.002.004-.001.001.155.08.155.08.002-.003a8.429 8.429 0 0 1 2.054-2.49c.658-.532 1.453-.966 2.365-1.093.909-.126 1.95.05 3.111.769l.183-.297Zm45.591 1.905h.174v-.044l-.021-.04-.153.084ZM143.52 72.499l.084-.153-.084.153Zm11.856-9.848.172.028-.333-.095.161.066Zm5.896 9.785-.019-.173.019.173Zm5.332-5.77.168.045.032-.114-.095-.071-.105.14Zm-.251-.189.105-.14-.146-.109-.103.15.144.099Zm-6.837-17.94.174.013.011-.142-.137-.039-.048.168Zm-4.14-1.192.048-.168-.207-.06-.015.216.174.012Zm-4.328 18.63-.139-.106.139.106Zm-7.528-3.324-.173-.018v.003l.173.014Zm15.208-17.522c-1.297-2.39-2.806-3.925-4.426-4.748-1.623-.824-3.341-.924-5.04-.468-3.387.907-6.696 4.019-9.09 8.009-2.398 3.994-3.901 8.904-3.648 13.451.254 4.555 2.272 8.752 6.913 11.279l.167-.306c-4.518-2.46-6.483-6.535-6.732-10.992-.248-4.464 1.229-9.305 3.598-13.253 2.373-3.953 5.619-6.977 8.882-7.852 1.626-.435 3.255-.338 4.792.443 1.54.782 3.004 2.257 4.278 4.603l.306-.166Zm-15.291 27.523c1.646.896 3.242.7 4.691-.083 1.441-.78 2.743-2.141 3.835-3.596 1.094-1.457 1.987-3.02 2.606-4.219a35.09 35.09 0 0 0 .903-1.886l.048-.111.013-.03a.036.036 0 0 1 .003-.007v-.002h.001l-.161-.068-.161-.066-.001.002a.236.236 0 0 1-.015.035l-.046.108a30.226 30.226 0 0 1-.893 1.865c-.614 1.188-1.497 2.734-2.575 4.17-1.08 1.439-2.346 2.754-3.722 3.498-1.368.74-2.838.913-4.359.084l-.167.306Zm11.939-10.002-.172-.028v.003l-.001.006-.004.024-.013.09c-.012.08-.027.196-.044.342-.033.293-.072.71-.095 1.208-.045.994-.026 2.315.237 3.612.262 1.295.77 2.585 1.718 3.496.954.918 2.334 1.43 4.29 1.206l-.039-.346c-1.87.215-3.141-.276-4.01-1.111-.875-.842-1.363-2.053-1.618-3.314-.255-1.259-.275-2.549-.23-3.527.022-.489.061-.898.093-1.184a13.974 13.974 0 0 1 .055-.42l.004-.021.001-.006v-.001l-.172-.029Zm5.916 9.96c1.723-.196 2.954-1.156 3.821-2.32.865-1.161 1.374-2.533 1.659-3.579l-.336-.092c-.279 1.025-.774 2.35-1.602 3.463-.827 1.11-1.98 2-3.581 2.181l.039.346Zm5.417-6.084-.251-.188-.209.278.251.189.209-.28Zm-.5-.147c-1.294 1.903-2.396 2.703-3.297 2.857-.883.151-1.635-.31-2.263-1.11-.628-.8-1.105-1.906-1.424-2.953-.32-1.047-.476-2.013-.476-2.523h-.348c0 .558.165 1.56.491 2.625.325 1.066.817 2.219 1.483 3.066.665.847 1.532 1.42 2.596 1.238 1.046-.179 2.218-1.08 3.526-3.004l-.288-.196Zm-7.46-3.729c0-1.12.235-4.64.47-7.89.118-1.623.235-3.176.324-4.322l.106-1.374.03-.38.008-.1.002-.025v-.006l.001-.002-.174-.014-.174-.014v.008a.15.15 0 0 0-.002.026l-.008.1-.03.38-.107 1.374c-.088 1.147-.206 2.7-.323 4.323-.235 3.242-.471 6.78-.471 7.916h.348Zm.815-14.28-4.14-1.193-.096.335 4.14 1.192.096-.335Zm-4.188-1.025-.174-.012v.002l-.001.008-.002.03a66.405 66.405 0 0 1-.205 2.256 96.499 96.499 0 0 1-.708 5.38c-.332 2.055-.768 4.24-1.327 6.18-.56 1.946-1.239 3.625-2.05 4.68l.277.212c.852-1.109 1.545-2.84 2.108-4.795.564-1.958 1.003-4.16 1.336-6.221a96.68 96.68 0 0 0 .87-7.082l.038-.463.009-.121.002-.031.001-.008v-.002l-.174-.013Zm-4.467 18.524a12.187 12.187 0 0 1-2.149 2.13c-.868.666-1.802 1.172-2.625 1.269-.408.048-.782-.006-1.109-.183-.327-.178-.623-.488-.861-.98-.479-.994-.706-2.703-.471-5.44l-.347-.03c-.236 2.753-.017 4.54.504 5.621.263.544.605.916 1.009 1.135.403.219.852.277 1.315.223.917-.108 1.913-.66 2.797-1.339a12.592 12.592 0 0 0 2.214-2.194l-.277-.212Zm-7.215-3.2c1.125-10.882 4.869-14.87 8.269-16.317 1.708-.727 3.351-.823 4.575-.808.306.004.586.014.835.023.247.01.468.017.65.015.178-.002.339-.013.46-.051a.425.425 0 0 0 .18-.105.301.301 0 0 0 .086-.214h-.348c0-.007.004-.02.012-.028.004-.004-.002.004-.035.014a1.379 1.379 0 0 1-.359.036c-.172.002-.383-.006-.633-.015-.249-.01-.532-.02-.844-.023-1.245-.015-2.943.081-4.716.836-3.563 1.516-7.347 5.652-8.479 16.6l.347.036Zm52.99 6.129.108-.137-.16-.126-.1.178.152.085Zm-4.642 2.133-.114.132.006.004.006.005.102-.141Zm-4.705-29.67.174.01.012-.188-.189.003.003.174Zm-16.874 1.63-.166-.053-.005.017-.002.018.173.018Zm1.192 2.697-.094.147.057.037.067-.012-.03-.172Zm2.823-.25.174.002v-.003h-.174Zm-5.897 27.412-.13-.115.13.115Zm-22.394 1.38.143-.1-.035-.05-.058-.017-.05.167Zm19.697 8.406.051.166.01-.003-.061-.163Zm13.988-37.763-.011-.174-.169.011.006.17.174-.007Zm1.631-.126.174.015.016-.189h-.19v.174Zm10.79 29.86.012-.175h-.017l.005.174Zm5.582-4.768.153.085.072-.13-.117-.092-.108.137Zm-1.343-1.026a4.88 4.88 0 0 1-2.239 2.05c-.854.374-1.658.381-2.149.026l-.204.283c.637.46 1.59.405 2.493.01a5.223 5.223 0 0 0 2.402-2.199l-.303-.17Zm-4.376 2.086c-1.218-1.05-2.162-2.863-2.88-5.156-.715-2.288-1.198-5.032-1.507-7.92-.618-5.773-.54-12.099-.258-16.452l-.348-.022c-.283 4.366-.361 10.712.26 16.512.31 2.899.796 5.667 1.521 7.986.723 2.313 1.692 4.202 2.984 5.316l.228-.264Zm-4.819-29.539-.003-.174h-.047a78.993 78.993 0 0 0-.661.013c-.45.01-1.094.025-1.869.048-1.548.045-3.618.12-5.702.237-2.083.118-4.184.279-5.794.497-.803.11-1.491.234-1.994.376a3.215 3.215 0 0 0-.625.235c-.151.081-.296.191-.345.346l.332.106c.006-.018.041-.071.178-.145a2.88 2.88 0 0 1 .555-.207c.479-.135 1.148-.257 1.946-.365 1.596-.217 3.686-.377 5.767-.495a214.598 214.598 0 0 1 7.559-.284l.522-.01.137-.003H187.34l-.003-.175Zm-16.874 1.631-.173-.018v.003l-.001.005-.001.017a3.128 3.128 0 0 0-.007.294c.004.194.025.46.09.756.132.59.448 1.315 1.19 1.787l.187-.294c-.637-.405-.917-1.03-1.036-1.568a3.56 3.56 0 0 1-.077-.948l.001-.013v-.003l-.173-.018Zm1.222 2.869c.728-.127 1.424-.266 1.946-.336a3.25 3.25 0 0 1 .596-.041.33.33 0 0 1 .109.02c.002.001-.007-.003-.017-.017a.089.089 0 0 1-.016-.049h.349a.273.273 0 0 0-.156-.244.644.644 0 0 0-.244-.058 3.575 3.575 0 0 0-.668.044c-.529.07-1.245.213-1.959.338l.06.343Zm2.618-.426c-.313 17.69-2.135 23.087-5.852 27.3l.261.231c3.809-4.317 5.626-9.835 5.94-27.524l-.349-.007Zm-5.852 27.3c-2.528 2.867-7.224 4.412-11.734 4.63-2.25.11-4.441-.113-6.275-.659-1.838-.547-3.297-1.413-4.112-2.575l-.286.2c.879 1.252 2.423 2.15 4.298 2.71 1.879.559 4.11.783 6.392.673 4.554-.22 9.362-1.78 11.978-4.748l-.261-.23Zm-22.214 1.329a.296.296 0 0 0-.232.019.305.305 0 0 0-.14.178c-.04.12-.031.28-.001.449.062.348.238.845.528 1.424.582 1.162 1.638 2.69 3.225 4.077 3.18 2.783 8.48 4.994 16.318 2.592l-.102-.333c-7.719 2.365-12.894.185-15.987-2.52-1.55-1.357-2.579-2.848-3.142-3.972-.283-.564-.444-1.027-.497-1.329-.028-.157-.022-.245-.011-.279.005-.013.003.004-.023.018-.026.015-.045.007-.036.01l.1-.334Zm19.708 8.736c3.071-1.152 5.481-4.017 7.369-7.65 1.89-3.639 3.273-8.075 4.274-12.414 1.002-4.34 1.624-8.592 1.992-11.863.367-3.266.483-5.568.466-6.006l-.348.013c.015.41-.097 2.687-.464 5.954-.367 3.263-.988 7.5-1.986 11.823-.998 4.326-2.372 8.73-4.243 12.332-1.874 3.605-4.231 6.378-7.182 7.484l.122.327Zm13.939-37.752c.475-.032.715-.064.918-.087.198-.023.364-.038.701-.038v-.349c-.352 0-.531.016-.741.04-.204.024-.436.055-.901.086l.023.348Zm1.446-.314c-1.255 15.09.338 22.64 2.835 26.402 1.254 1.889 2.734 2.82 4.185 3.268 1.444.446 2.851.409 3.948.377l-.01-.348c-1.1.031-2.453.065-3.835-.362-1.376-.424-2.789-1.308-3.997-3.128-2.427-3.656-4.033-11.098-2.779-26.18l-.347-.029Zm10.95 30.047c.919.068 1.985-.49 2.989-1.368 1.013-.885 1.997-2.124 2.759-3.488l-.305-.17c-.744 1.334-1.704 2.54-2.683 3.396-.987.862-1.96 1.34-2.735 1.282l-.025.348Zm5.703-5.078-1.191-.94-.216.273 1.192.94.215-.273Zm10.106-16.173-.167-.049.167.05Zm5.395 3.827.169-.04-.035-.149-.152.016.018.173Zm-7.967 12.42-.117.129.015.014.019.01.083-.153Zm.376-13.863-.173-.02v.001l.173.02Zm-.376-14.553-.075.158.007.002.068-.16Zm-9.974 4.328.047-.168-.16.3.113-.132Zm.878.753-.113.132.148.127.109-.16-.144-.099Zm4.831-1.882.103-.14-.025-.018-.029-.009-.049.167Zm-1.443 13.048.173.02v-.002l-.173-.018ZM204.576 73l-.026.172h.004l.022-.172Zm14.616-17.376-.074-.158-.168.08.089.162.153-.084Zm2.697-1.13-.078-.155.078.156Zm1.129-2.446.075-.157-.196-.093-.048.211.169.04Zm-4.767 2.008-.132.114.07.08.102-.025-.04-.17Zm-5.646-2.384.013-.174h-.001l-.012.174Zm-4.683 1.708a2.982 2.982 0 0 0 .69 2.833c.828.886 2.35 1.47 4.889 1.215l-.035-.346c-2.479.247-3.874-.33-4.599-1.107a2.632 2.632 0 0 1-.611-2.498l-.334-.097Zm5.392 3.915c.711 2.997.107 6.812-1.356 9.497-.731 1.343-1.667 2.385-2.741 2.912-1.065.522-2.284.545-3.616-.182l-.167.306c1.427.779 2.765.763 3.936.189 1.162-.57 2.144-1.68 2.894-3.058 1.501-2.755 2.121-6.657 1.389-9.744l-.339.08Zm-7.679 12.252c-.504-.46-.782-1.202-.892-2.172-.109-.967-.048-2.134.1-3.412.149-1.276.383-2.654.617-4.042.233-1.386.465-2.783.607-4.09l-.347-.038c-.14 1.296-.371 2.683-.604 4.07-.233 1.386-.469 2.773-.619 4.06-.149 1.286-.214 2.484-.1 3.49.114 1.005.408 1.847 1.003 2.39l.235-.257Zm.432-13.715c.187-1.641.469-3.279.733-4.84.265-1.56.513-3.044.631-4.37.118-1.323.109-2.505-.152-3.453-.264-.956-.787-1.684-1.694-2.07l-.136.32c.787.336 1.252.964 1.494 1.843.244.886.258 2.018.141 3.33-.117 1.308-.362 2.78-.627 4.341-.265 1.56-.548 3.207-.737 4.86l.347.039Zm-.475-14.73c-1.525-.723-2.865-.791-4.033-.482-1.164.308-2.143.986-2.958 1.734-.814.746-1.476 1.573-1.994 2.18-.262.306-.482.55-.668.709a.984.984 0 0 1-.233.157c-.061.026-.096.025-.116.02l-.093.335c.121.034.24.011.348-.036.107-.046.214-.12.319-.21.211-.18.448-.445.708-.75.527-.616 1.171-1.42 1.965-2.148.792-.727 1.722-1.366 2.811-1.654 1.084-.287 2.34-.23 3.794.46l.15-.315ZM195.43 45.72l.878.752.227-.264-.878-.753-.227.265Zm.991.62.144.098h.001l.004-.006.014-.02c.014-.019.034-.047.062-.082a5.543 5.543 0 0 1 1.184-1.117c.811-.56 1.964-1.007 3.372-.588l.099-.334c-1.54-.459-2.802.036-3.669.636a5.871 5.871 0 0 0-1.348 1.305l-.004.007-.002.002.143.1Zm4.727-1.741c.065.047.131.153.172.363.04.206.051.482.035.83-.032.695-.169 1.636-.362 2.785-.383 2.293-.98 5.39-1.357 8.91l.346.037c.376-3.506.97-6.587 1.355-8.89.192-1.147.333-2.107.366-2.826a4.067 4.067 0 0 0-.041-.912c-.047-.242-.137-.453-.307-.578l-.207.28Zm-1.512 12.887c-.22 1.96-.54 3.817-.772 5.549-.232 1.724-.376 3.315-.232 4.706.144 1.393.577 2.599 1.512 3.534.933.934 2.345 1.58 4.406 1.897l.053-.344c-2.017-.31-3.35-.935-4.212-1.799-.861-.862-1.274-1.981-1.413-3.324-.138-1.346 0-2.903.231-4.624.23-1.712.553-3.595.773-5.556l-.346-.039Zm4.918 15.687c6.403.824 11.03-1.889 13.59-5.658 2.553-3.759 3.058-8.58 1.201-11.975l-.306.168c1.781 3.255 1.313 7.936-1.183 11.611-2.489 3.664-6.989 6.315-13.258 5.508l-.044.346Zm14.712-17.391c.525-.247.846-.354 1.216-.488.374-.135.788-.295 1.485-.643l-.156-.312c-.683.341-1.084.496-1.447.627-.367.133-.704.245-1.246.5l.148.316Zm2.701-1.131c.704-.352 1.32-.843 1.603-1.34.143-.251.212-.524.136-.787-.076-.266-.287-.478-.613-.633l-.149.315c.269.128.388.276.427.414.041.14.012.315-.104.518-.235.412-.78.863-1.456 1.201l.156.312Zm.882-2.642c-.074.32-.332.589-1.056.882-.723.291-1.854.587-3.582.995l.08.34c1.722-.408 2.88-.708 3.632-1.012.75-.303 1.151-.631 1.265-1.126l-.339-.079Zm-4.467 1.932c-1.294-1.489-3.164-2.252-5.764-2.443l-.025.348c2.544.186 4.312.928 5.526 2.324l.263-.229Zm-5.765-2.443a7.29 7.29 0 0 0-2.943.442c-.435.165-.824.371-1.128.61-.302.236-.532.515-.624.83l.334.098c.065-.22.235-.443.505-.654.269-.211.624-.401 1.036-.558a6.945 6.945 0 0 1 2.797-.42l.023-.348Zm9.501-5.158-.155-.08-.05.097.065.088.14-.105Zm.439.44-.14.104.101.134.138-.095-.099-.144Zm1.756 26.345-.172-.027-.026.167.165.031.033-.17Zm5.583 1.568-.062.163.137.052.075-.126-.15-.089Zm2.823-11.228-.09-.15-.07.043-.012.08.172.027Zm6.461-3.89.173-.017-.027-.273-.236.142.09.149Zm4.955 12.797.056-.165-.013-.004-.043.17Zm8.908-5.269.169.043.017-.066-.033-.06-.153.083Zm-.377-.69.153-.083-.155-.284-.151.285.153.082Zm-4.579 2.384-.054.166.011.003.011.002.032-.171Zm.377-23.9.143.1.016-.024.008-.027-.167-.049Zm-4.391-3.889.02-.173-.062-.007-.053.034.095.146Zm-4.58 14.051-.138-.105.138.105Zm-6.649 4.329-.173-.02-.021.183.184.01.01-.173Zm-2.948-15.933.122-.125-.014-.013-.016-.01-.092.148Zm-7.918 2.99c.108.143.185.202.255.254.055.042.104.077.184.185l.279-.21a1.122 1.122 0 0 0-.254-.254.763.763 0 0 1-.185-.184l-.279.209Zm.678.478c.656-.454 1.287-.855 1.862-1.133.58-.279 1.081-.42 1.488-.382.388.037.711.24.946.716.241.489.386 1.26.386 2.412h.349c0-1.17-.146-2.006-.422-2.566-.283-.573-.705-.86-1.226-.909-.503-.048-1.075.128-1.672.415-.601.29-1.249.704-1.909 1.16l.198.287Zm4.682 1.613c0 2.148-.797 8.28-1.598 13.893a805.015 805.015 0 0 1-1.462 9.79l-.101.65-.027.17-.007.044-.001.011-.001.003a14.943 14.943 0 0 0 .344.055l.001-.003.002-.011a37.071 37.071 0 0 1 .033-.214l.102-.651c.087-.563.212-1.371.362-2.355.3-1.968.7-4.636 1.1-7.44.799-5.6 1.602-11.763 1.602-13.942h-.349Zm-3.058 24.76c1.466.28 2.855.671 3.878.991a37.63 37.63 0 0 1 1.559.526l.088.032.022.008.005.003h.002l.062-.163.062-.163h-.002a.03.03 0 0 1-.006-.003l-.023-.008-.09-.033a32.738 32.738 0 0 0-1.575-.531 36.246 36.246 0 0 0-3.916-1.001l-.066.342Zm5.766 1.486c.612-1.03 1.197-3.049 1.69-5.193a89.405 89.405 0 0 0 1.155-6.098l-.344-.052a89.379 89.379 0 0 1-1.151 6.072c-.495 2.152-1.07 4.117-1.65 5.093l.3.178Zm2.763-11.168 6.461-3.889-.18-.298-6.461 3.889.18.298Zm6.197-4.02c.078.773.054 1.855.068 3.095.014 1.231.065 2.603.295 3.927.459 2.645 1.645 5.148 4.724 5.925l.085-.338c-2.88-.727-4.016-3.055-4.466-5.647-.225-1.295-.276-2.644-.289-3.871-.014-1.219.01-2.332-.07-3.127l-.347.035Zm5.074 12.944c1.772.59 3.238.554 4.439.156 1.2-.398 2.121-1.152 2.814-1.973.693-.821 1.162-1.714 1.457-2.4a10.107 10.107 0 0 0 .415-1.15l.005-.018.001-.004v-.002h.001l-.169-.044-.169-.043-.001.004-.004.015-.017.06c-.016.054-.039.132-.072.231a9.772 9.772 0 0 1-.31.814c-.287.665-.739 1.525-1.403 2.312-.663.786-1.534 1.494-2.657 1.867-1.122.372-2.51.414-4.22-.156l-.11.33Zm9.116-5.518-.377-.69-.306.167.377.69.306-.167Zm-.53-.607-.153-.082-.001.002a.017.017 0 0 0-.003.005l-.012.022-.052.088a5.537 5.537 0 0 1-1.053 1.237c-.743.644-1.835 1.21-3.273.94l-.064.343c1.574.295 2.771-.33 3.565-1.02a5.84 5.84 0 0 0 1.194-1.442l.005-.008.001-.002-.154-.083Zm-4.525 2.218c-.62-.202-1.112-.67-1.493-1.364-.381-.697-.645-1.61-.808-2.68-.327-2.14-.249-4.861.045-7.604a63.4 63.4 0 0 1 1.322-7.685c.261-1.097.527-2.053.771-2.797.246-.752.465-1.269.629-1.504l-.286-.2c-.197.283-.429.846-.675 1.595a37.03 37.03 0 0 0-.778 2.826 63.803 63.803 0 0 0-1.33 7.728c-.295 2.754-.377 5.51-.043 7.693.167 1.091.439 2.05.848 2.795.409.748.962 1.291 1.69 1.529l.108-.332Zm.49-23.685c.25-.867.084-1.572-.314-2.133-.393-.553-1.002-.953-1.623-1.242a8.97 8.97 0 0 0-1.765-.584 10.102 10.102 0 0 0-.831-.151h-.005l-.02.172-.021.173h.003l.011.002.042.006a9.889 9.889 0 0 1 .745.139 8.653 8.653 0 0 1 1.695.56c.594.276 1.142.644 1.484 1.126.337.474.485 1.07.264 1.835l.335.097Zm-4.653-4.084c-.282.182-.54.536-.781.984-.243.454-.48 1.029-.71 1.679-.46 1.301-.896 2.925-1.297 4.537-.2.807-.391 1.612-.572 2.373-.18.762-.35 1.48-.508 2.113-.157.634-.302 1.181-.432 1.601-.065.21-.126.387-.182.525a1.302 1.302 0 0 1-.141.28l.277.211c.066-.086.128-.212.187-.36.062-.151.125-.338.192-.553.133-.43.28-.984.438-1.62.158-.635.328-1.355.508-2.116.181-.762.372-1.565.572-2.37.399-1.61.833-3.22 1.287-4.505.227-.642.457-1.198.689-1.63.234-.438.458-.725.662-.856l-.189-.293Zm-4.623 14.092c-1.708 2.235-3.346 3.298-4.548 3.803a6.022 6.022 0 0 1-1.435.417 3.619 3.619 0 0 1-.512.04h-.006l-.01.174-.01.174h.004a.27.27 0 0 1 .009 0h.032a3.996 3.996 0 0 0 .545-.044 6.386 6.386 0 0 0 1.519-.44c1.26-.53 2.947-1.632 4.689-3.913l-.277-.211Zm-6.338 4.454c.189-1.605.441-4.63.15-7.744-.291-3.107-1.127-6.344-3.149-8.334l-.244.249c1.93 1.9 2.756 5.03 3.046 8.117.288 3.08.039 6.077-.149 7.671l.346.041Zm-3.029-16.102c-1.223-.756-2.346-.955-3.343-.817-.993.138-1.845.61-2.536 1.167a8.774 8.774 0 0 0-1.588 1.718 8.94 8.94 0 0 0-.548.867l-.008.014-.001.004h-.001v.001l.155.08.154.08h.001l.001-.003a.105.105 0 0 1 .006-.011l.025-.046a9.236 9.236 0 0 1 .499-.784 8.437 8.437 0 0 1 1.525-1.649c.658-.532 1.452-.966 2.364-1.093.909-.126 1.951.05 3.111.769l.184-.297Zm35.993 11.816-.166-.055-.003.011.169.044Zm5.269 3.638.169-.042-.036-.146-.151.015.018.173Zm-7.778 11.73-.117.13.017.015.02.01.08-.154Zm.376-13.047-.173-.02.173.02Zm-.564-16.121-.074.158.01.004.064-.162Zm-9.66 4.077.042-.169-.16.298.118-.129Zm.752.69-.117.129.145.133.114-.16-.142-.102Zm4.768-1.756.096-.145-.021-.014-.025-.008-.05.167Zm-1.192 14.678.173.02v-.002l-.173-.018Zm4.579 14.616-.024.173h.002l.022-.173Zm14.365-16.372-.082-.154-.157.084.087.155.152-.085Zm3.324-1.882-.085-.152-.01.006.095.146Zm1.569-.878.173.02.041-.34-.3.168.086.152Zm.313 18.128-.134.112.006.006.128-.118Zm11.668-2.383.105.138.106-.08-.049-.123-.162.065Zm-.377-.879.124-.123-.09-.09-.113.058.079.156Zm-7.339-1.756-.173-.019v.002l.173.017Zm5.018-25.28.171.037.033-.154-.15-.048-.054.166Zm-6.461-2.885.081-.154-.178-.094-.067.19.164.058Zm-2.383 11.918.11.136.052-.043.01-.066-.172-.027Zm-6.273 4.391-.126.12.096.102.12-.072-.09-.15Zm-5.583-2.258.013-.174h-.001l-.012.174Zm-4.56 1.587c-.2.768-.101 1.868.701 2.712.805.847 2.28 1.398 4.755 1.144l-.036-.347c-2.417.248-3.765-.299-4.466-1.037a2.562 2.562 0 0 1-.616-2.384l-.338-.088Zm5.269 3.725c.71 2.839.138 6.432-1.284 8.96-.711 1.263-1.625 2.243-2.679 2.74-1.046.492-2.247.515-3.566-.167l-.16.31c1.41.729 2.725.713 3.875.172 1.141-.537 2.101-1.583 2.833-2.884 1.463-2.6 2.052-6.284 1.319-9.216l-.338.085Zm-7.492 11.559c-.472-.43-.734-1.124-.838-2.036-.103-.909-.046-2.007.094-3.21.141-1.202.363-2.499.587-3.805.223-1.305.448-2.62.589-3.848l-.346-.04c-.14 1.218-.363 2.522-.587 3.829-.223 1.304-.447 2.61-.589 3.824-.142 1.212-.202 2.34-.094 3.29.108.946.386 1.741.95 2.254l.234-.258Zm.432-12.898c.374-3.087 1.067-6.811 1.248-9.906.09-1.55.054-2.963-.219-4.076-.274-1.114-.796-1.963-1.702-2.322l-.128.324c.755.3 1.23 1.018 1.491 2.08.261 1.063.3 2.434.21 3.974-.18 3.083-.867 6.76-1.246 9.884l.346.042Zm-.664-16.3c-1.477-.69-2.78-.762-3.919-.477-1.134.285-2.092.921-2.888 1.626-.795.703-1.439 1.484-1.937 2.062a7.247 7.247 0 0 1-.638.68 1.002 1.002 0 0 1-.216.153c-.057.027-.084.024-.093.022l-.085.338c.116.03.23.001.328-.046.098-.046.197-.12.296-.206.197-.172.422-.424.672-.714.505-.585 1.131-1.344 1.904-2.028.773-.684 1.681-1.283 2.742-1.549 1.057-.265 2.278-.204 3.687.455l.147-.316Zm-9.851 4.364.753.69.235-.257-.753-.69-.235.257Zm.87.561.142.101h.001l.003-.005a4.719 4.719 0 0 1 .32-.374c.215-.226.53-.519.932-.784.803-.53 1.941-.947 3.319-.527l.101-.334c-1.507-.459-2.753.003-3.612.57a5.78 5.78 0 0 0-1.323 1.218.255.255 0 0 1-.018.024l-.004.007-.002.002.141.102Zm4.671-1.611a.281.281 0 0 1 .087.122c.033.072.062.172.085.302.047.259.065.612.058 1.051-.013.877-.126 2.06-.291 3.44-.328 2.75-.863 6.276-1.208 9.6l.347.036c.345-3.325.877-6.824 1.207-9.595.165-1.38.28-2.58.294-3.475.007-.448-.011-.827-.064-1.119a1.638 1.638 0 0 0-.11-.384.622.622 0 0 0-.212-.268l-.193.29Zm-1.268 14.513c-.22 1.849-.539 3.604-.775 5.243-.234 1.63-.384 3.138-.253 4.455.132 1.32.549 2.462 1.459 3.344.907.88 2.284 1.481 4.297 1.766l.048-.344c-1.971-.28-3.267-.862-4.103-1.672-.832-.808-1.227-1.862-1.354-3.129-.127-1.271.017-2.743.251-4.37.233-1.62.556-3.4.776-5.252l-.346-.041Zm4.73 14.809c12.551 1.585 18.127-10.223 14.539-16.63l-.304.17c3.437 6.138-1.901 17.666-14.191 16.114l-.044.346Zm14.469-16.391c.937-.5 2.075-1.07 3.337-1.89l-.19-.292c-1.246.81-2.366 1.37-3.311 1.874l.164.308Zm3.328-1.884 1.568-.878-.171-.304-1.568.878.171.304Zm1.31-1.051c-.471 3.86-.848 7.85-.88 11.154-.016 1.65.055 3.135.245 4.349.19 1.206.501 2.17.987 2.758l.268-.223c-.423-.51-.723-1.396-.91-2.59-.186-1.186-.257-2.65-.241-4.291.031-3.284.406-7.26.877-11.115l-.346-.042Zm.358 18.267c.922 1.005 2.146 1.344 3.439 1.298 1.29-.045 2.661-.472 3.91-1.013a23.54 23.54 0 0 0 3.211-1.729c.413-.263.747-.492.979-.656.116-.081.206-.147.268-.192l.07-.052a.932.932 0 0 0 .018-.014l.005-.003.001-.001-.105-.14-.106-.138-.001.001-.004.003a23.218 23.218 0 0 1-4.475 2.602c-1.23.533-2.555.941-3.783.984-1.223.043-2.336-.277-3.17-1.185l-.257.235Zm11.958-2.566c-.063-.155-.101-.303-.162-.479-.056-.159-.129-.333-.253-.458l-.247.247c.064.064.116.171.171.326.048.138.104.335.167.493l.324-.129Zm-.618-.969c-1.337.684-3.25 1.328-4.759 1.267-.753-.03-1.379-.234-1.793-.667-.41-.43-.641-1.117-.534-2.184l-.347-.034c-.113 1.129.126 1.931.629 2.458.501.524 1.231.743 2.031.776 1.595.064 3.571-.61 4.932-1.305l-.159-.31Zm-7.087-1.582c.219-2.028 1.471-8.337 2.672-14.153a1241.054 1241.054 0 0 1 2.146-10.19l.146-.68a39.86 39.86 0 0 1 .048-.223l.003-.012.001-.003-.171-.037-.17-.037-.001.004-.002.011-.01.046-.038.178-.147.68a1535.057 1535.057 0 0 0-2.147 10.193c-1.198 5.805-2.455 12.136-2.676 14.185l.346.038Zm4.899-25.464c-1.243-.404-2.849-1.121-4.15-1.74a77.9 77.9 0 0 1-1.629-.8l-.481-.244-.129-.067-.034-.018a.09.09 0 0 0-.008-.004l-.002-.001h-.001l-.081.154-.08.154.003.002.008.004.034.018.13.067a78.573 78.573 0 0 0 2.12 1.049c1.303.62 2.927 1.346 4.193 1.757l.107-.331Zm-6.679-2.778c-.445 1.272-1.514 6.243-2.391 11.95l.344.053c.878-5.71 1.943-10.65 2.376-11.888l-.329-.115Zm-2.329 11.841a57.549 57.549 0 0 1-6.253 4.377l.18.299a57.854 57.854 0 0 0 6.293-4.405l-.22-.27Zm-6.037 4.406c-1.293-1.357-3.095-2.121-5.696-2.312l-.026.348c2.543.186 4.253.927 5.47 2.205l.252-.24Zm-5.697-2.312c-.937-.064-1.981.113-2.832.426a4.64 4.64 0 0 0-1.111.569c-.297.216-.53.47-.625.755l.33.11c.062-.186.229-.386.5-.583a4.288 4.288 0 0 1 1.026-.524c.811-.298 1.806-.466 2.688-.405l.024-.348Zm50.185-16.449.075.157.103-.049-.004-.113-.174.005Zm-.188-2.007.078-.156-.078-.04-.078.04.078.156Zm-10.476-2.447.174-.018h-.001l-.173.018Zm4.454-3.638-.142.101.335.47-.019-.577-.174.006Zm-1.568-5.08.117-.13-.047-.043-.064-.002-.006.174Zm11.416 45.854.146.095.05-.076-.034-.084-.162.065Zm-.376-.502.139-.105-.089-.12-.132.071.082.154Zm-4.767-2.258-.174-.018v.001l.174.017Zm5.582-23.712.169.045.042-.157-.154-.053-.057.165Zm-5.269-3.575.123-.123-.162-.163-.113.2.152.086Zm-13.925 26.973.033-.171-.017-.003h-.016v.174Zm-.565-10.664-.173-.02v.001l.173.02Zm-.565-17.062-.074.157.006.003.068-.16Zm-9.973 4.328-.107-.138-.17.13.163.14.114-.132Zm.878.753-.114.132.148.127.11-.16-.144-.1Zm4.83-1.882.103-.14-.024-.018-.029-.009-.05.167Zm-1.255 15.557.173.02.001-.002-.174-.018ZM303.193 73l.013-.174-.018-.001-.019.002.024.173Zm12.922-18.003.167.051-.327-.12.16.069Zm.063 16.623-.135.11.013.016.017.012.105-.138Zm4.391-34.752.174-.006V36.841a13.137 13.137 0 0 0-.107-1.66 2.537 2.537 0 0 0-.041-.254.763.763 0 0 0-.03-.1.35.35 0 0 0-.029-.053.208.208 0 0 0-.077-.068l-.156.312a.144.144 0 0 1-.054-.046c-.006-.008-.007-.013-.006-.01a2.014 2.014 0 0 1 .047.262c.023.185.043.43.058.676a31.783 31.783 0 0 1 .044.892l.002.061.001.016v.005l.174-.005Zm-.266-2.163c-1.422.711-3.87 1.422-6.02 1.3-1.074-.063-2.057-.331-2.803-.895-.741-.56-1.265-1.423-1.401-2.714l-.347.037c.146 1.375.712 2.33 1.537 2.955.821.62 1.88.9 2.994.964 2.225.128 4.733-.604 6.196-1.335l-.156-.312Zm-10.225-2.31c-.089-.82.112-1.464.463-1.967.353-.505.865-.876 1.407-1.134a5.008 5.008 0 0 1 1.549-.447c.222-.024.409-.025.545-.01a.67.67 0 0 1 .15.033c.037.014.035.021.025.007l.284-.202a.39.39 0 0 0-.187-.132 1.032 1.032 0 0 0-.231-.051 2.837 2.837 0 0 0-.624.009 5.345 5.345 0 0 0-1.66.478c-.58.276-1.146.681-1.544 1.25-.399.572-.622 1.3-.523 2.204l.346-.038Zm4.281-3.619.174-.006v-.012l-.002-.032a6.324 6.324 0 0 0-.006-.125c-.007-.107-.017-.26-.035-.45a15.135 15.135 0 0 0-.203-1.454 9.58 9.58 0 0 0-.481-1.717c-.219-.55-.51-1.06-.898-1.414l-.235.258c.333.304.6.759.81 1.285.209.525.357 1.107.462 1.653a15.116 15.116 0 0 1 .238 1.98l.001.03a.025.025 0 0 1 .001.008v.002l.174-.006Zm-1.562-5.255c-3.835-.127-6.317 1.126-7.597 2.998-1.278 1.87-1.33 4.314-.395 6.512.936 2.2 2.867 4.17 5.583 5.102 2.718.932 6.208.822 10.256-1.108l-.15-.314c-3.981 1.897-7.375 1.99-9.993 1.092-2.62-.899-4.477-2.796-5.375-4.908-.9-2.114-.835-4.429.362-6.179 1.193-1.746 3.542-2.97 7.297-2.847l.012-.348Zm11.572 45.964a.889.889 0 0 0-.203-.333c-.067-.067-.111-.097-.196-.209l-.278.21c.104.138.184.202.227.245a.546.546 0 0 1 .127.216l.323-.13Zm-.62-.59c-.705.375-1.374.707-1.975.924-.605.219-1.117.311-1.517.234-.381-.074-.681-.305-.868-.802-.191-.51-.261-1.293-.152-2.445l-.347-.033c-.11 1.17-.047 2.017.173 2.6.225.598.615.923 1.128 1.022.494.095 1.08-.024 1.702-.248.626-.226 1.313-.568 2.02-.945l-.164-.308Zm-4.512-2.088c.218-2.148 1.609-8.06 2.952-13.454.67-2.693 1.327-5.25 1.816-7.135.244-.942.447-1.716.588-2.254l.164-.623.043-.163.011-.041a.062.062 0 0 1 .003-.01l.001-.003-.169-.046-.168-.044-.001.003-.003.01-.011.042-.043.163-.164.623c-.141.539-.344 1.313-.589 2.256a746.422 746.422 0 0 0-1.816 7.138c-1.34 5.38-2.74 11.323-2.961 13.503l.347.035Zm5.466-23.894c-1.258-.43-2.556-1.308-3.548-2.089a22.472 22.472 0 0 1-1.625-1.415l-.022-.022a.045.045 0 0 1-.006-.006l-.001-.001h-.001l-.123.123-.123.123h.001l.001.002a22.437 22.437 0 0 0 1.684 1.47c1 .788 2.336 1.696 3.65 2.145l.113-.33Zm-5.478-3.495c-.681 1.22-1.631 3.574-2.733 6.388-1.104 2.82-2.365 6.115-3.674 9.233-1.309 3.12-2.661 6.053-3.946 8.155-.642 1.051-1.262 1.884-1.845 2.428-.588.548-1.102.768-1.542.683l-.067.342c.61.118 1.236-.2 1.847-.77.616-.576 1.256-1.44 1.905-2.502 1.299-2.125 2.66-5.08 3.97-8.201 1.31-3.123 2.574-6.424 3.677-9.24 1.105-2.825 2.045-5.152 2.712-6.346l-.304-.17Zm-13.773 26.884a.626.626 0 0 1-.465-.194c-.131-.132-.243-.336-.331-.618-.176-.566-.242-1.388-.23-2.392.023-2.004.351-4.658.634-7.267l-.346-.038c-.282 2.597-.613 5.275-.636 7.301-.012 1.011.052 1.88.246 2.5.097.31.231.573.416.76.19.191.429.296.712.296v-.348Zm-.392-10.47c.374-3.274 1.083-7.204 1.271-10.47.095-1.636.06-3.126-.216-4.303-.276-1.176-.803-2.077-1.724-2.47l-.137.321c.772.33 1.257 1.099 1.522 2.228.265 1.128.301 2.578.207 4.204-.188 3.258-.891 7.138-1.269 10.45l.346.04Zm-.663-17.24c-1.521-.72-2.876-.848-4.066-.616-1.187.232-2.197.82-3.035 1.51-.838.69-1.51 1.488-2.021 2.148-.253.327-.474.63-.647.857-.181.239-.306.388-.386.45l.213.275c.124-.095.278-.287.451-.514.181-.238.39-.527.645-.855.504-.652 1.158-1.426 1.966-2.092.809-.666 1.767-1.22 2.881-1.437 1.111-.217 2.391-.102 3.85.59l.149-.316Zm-10.162 4.618.878.753.227-.264-.878-.753-.227.264Zm.992.62.144.1v-.002l.004-.005a4.971 4.971 0 0 1 .321-.393c.216-.237.533-.545.939-.826.811-.56 1.964-1.007 3.372-.588l.1-.334c-1.541-.459-2.803.036-3.67.635a5.902 5.902 0 0 0-1.329 1.28.7.7 0 0 0-.018.026l-.005.007-.002.002.144.099Zm4.727-1.74a.33.33 0 0 1 .092.138c.033.08.063.189.086.328.047.279.065.657.057 1.124-.014.933-.129 2.19-.297 3.652-.336 2.91-.887 6.648-1.263 10.155l.347.037c.377-3.518.923-7.213 1.262-10.152.168-1.463.285-2.735.3-3.686.007-.475-.01-.878-.062-1.187a1.852 1.852 0 0 0-.109-.406.665.665 0 0 0-.207-.284l-.206.28Zm-1.325 15.396c-.22 1.968-.531 3.958-.76 5.878-.228 1.905-.371 3.711-.244 5.243.127 1.53.525 2.817 1.411 3.651.892.84 2.239 1.185 4.181.914l-.048-.345c-1.884.263-3.108-.082-3.894-.823-.793-.745-1.179-1.928-1.303-3.425-.124-1.495.016-3.272.243-5.174.225-1.886.542-3.927.76-5.88l-.346-.039Zm4.552 15.687c.696.051 1.419-.216 2.141-.694.723-.478 1.46-1.178 2.192-2.02 1.464-1.682 2.925-3.956 4.221-6.233a94.503 94.503 0 0 0 3.242-6.29c.406-.86.73-1.577.953-2.08.112-.251.198-.449.257-.584l.066-.154.017-.04.004-.01.001-.003h.001l-.161-.068-.16-.068-.001.003-.005.01-.016.039-.066.153-.255.58c-.222.502-.546 1.217-.95 2.074a93.864 93.864 0 0 1-3.23 6.265c-1.292 2.27-2.74 4.52-4.181 6.178-.721.829-1.435 1.503-2.122 1.958-.688.455-1.333.68-1.923.637l-.025.347Zm12.768-18.228c-.534 1.729-1.401 4.816-1.693 8.018-.291 3.192-.015 6.546 1.787 8.767l.27-.22c-1.71-2.108-1.999-5.34-1.71-8.515.289-3.166 1.147-6.226 1.679-7.947l-.333-.103Zm.124 16.813c1.142.87 2.239 1.178 3.245 1.141 1.002-.036 1.897-.416 2.64-.898a8.746 8.746 0 0 0 1.752-1.536 9.337 9.337 0 0 0 .599-.755l.032-.047a.67.67 0 0 0 .009-.013l.002-.003.001-.001-.146-.096-.145-.096h-.001l-.001.003-.007.01-.03.043a8.847 8.847 0 0 1-.575.724 8.37 8.37 0 0 1-1.68 1.475c-.708.459-1.542.808-2.463.842-.917.034-1.937-.245-3.021-1.07l-.211.277Z"/></svg>