<svg xmlns="http://www.w3.org/2000/svg" width="375" height="250" fill="none"><path fill="#fff" d="M182.071 175.251c-69.473 0-56.32 33.221-82.005 33.221h168.069c-26.781-3.214-22.906-33.221-86.064-33.221Z"/><path fill="#FEFEFE" fill-rule="evenodd" d="M31.69 146.512v7.852a.535.535 0 1 0 1.07 0v-7.852a.535.535 0 1 0-1.07 0ZM31.69 160.501v7.853a.535.535 0 0 0 1.07 0v-7.853a.535.535 0 1 0-1.07 0ZM21.306 157.967h7.852a.534.534 0 1 0 0-1.069l-7.852-.001a.535.535 0 0 0 0 1.07ZM35.294 157.968h7.853a.535.535 0 0 0 0-1.07l-7.853-.001a.536.536 0 0 0 0 1.071ZM60.474 15.616v4.46a.304.304 0 1 0 .607 0v-4.46a.304.304 0 1 0-.607 0ZM60.474 23.56v4.46a.304.304 0 0 0 .607 0v-4.46a.303.303 0 1 0-.607 0ZM54.576 22.121h4.46a.304.304 0 1 0 0-.607h-4.46a.304.304 0 0 0 0 .607ZM62.52 22.121h4.459a.304.304 0 1 0 0-.607h-4.46a.304.304 0 0 0 0 .607ZM322.946 36.121v7.852a.535.535 0 0 0 1.07 0v-7.852a.535.535 0 1 0-1.07 0ZM322.946 50.11v7.853a.536.536 0 0 0 1.07 0V50.11a.535.535 0 1 0-1.07 0ZM312.562 47.577h7.852a.535.535 0 1 0 0-1.07h-7.852a.536.536 0 1 0 0 1.07ZM326.55 47.577h7.853a.535.535 0 0 0 0-1.07h-7.853a.535.535 0 0 0 0 1.07Z" clip-rule="evenodd"/><g clip-path="url(#a)"><path fill="#FEFEFE" fill-opacity=".431" fill-rule="evenodd" d="M183.998 6.084c62.803 0 113.715 48.04 113.715 107.302 0 59.261-50.912 107.302-113.715 107.302-62.803 0-113.715-48.041-113.715-107.302 0-59.261 50.912-107.302 113.715-107.302Z" clip-rule="evenodd"/><path fill="#FEFEFE" fill-rule="evenodd" d="M86.445 108.805a.849.849 0 1 1-1.698 0 .849.849 0 0 1 1.698 0ZM165.145 23.477a2.985 2.985 0 1 1-5.97 0 2.985 2.985 0 0 1 5.97 0ZM16.313 130.967a.85.85 0 1 1-1.7 0 .85.85 0 0 1 1.7 0ZM88.143 41.274a.85.85 0 1 1-1.699 0 .85.85 0 0 1 1.7 0ZM340.513 105.969a1.343 1.343 0 1 1-2.687 0 1.343 1.343 0 0 1 2.687 0ZM353.838 165.316a1.419 1.419 0 1 1-2.837 0 1.419 1.419 0 0 1 2.837 0ZM27.585 35.443a2.353 2.353 0 1 1-4.706 0 2.353 2.353 0 0 1 4.706 0ZM223.566 1.156a.85.85 0 1 1-1.698 0 .85.85 0 0 1 1.698 0ZM48.115 103.188a3.891 3.891 0 1 1-7.783.001 3.891 3.891 0 0 1 7.783-.001ZM334.938 116.044a3.498 3.498 0 1 1-6.995 0 3.498 3.498 0 0 1 6.995 0ZM282.328 25.549a1.48 1.48 0 1 1-2.961 0 1.48 1.48 0 0 1 2.961 0ZM277.642 14.132a2.892 2.892 0 1 1-5.784 0 2.892 2.892 0 0 1 5.784 0ZM72.706 193.124c-3.824-9.665-19.063-13.76-16.974-3.008 2.089 10.753 19.228 8.706 16.974 3.008ZM68.455 175.592c-3.674 1.441 1.233 8.3 3.829 7.424 2.595-.876-.298-8.809-3.829-7.424ZM102.193 54.9c.887-2.508 3.081-5.747 6.947-9.456 3.865-3.709 9.403-7.888 14.522-11.544 5.119-3.657 9.821-6.791 14.261-8.828 4.44-2.038 8.619-2.978 11.126-2.717 2.508.261 3.344 1.724-.104 4.858-3.448 3.134-11.179 7.94-17.813 13.687-6.634 5.746-12.171 12.432-16.821 15.932-4.649 3.5-8.41 3.813-10.499 3.082-2.09-.731-2.508-2.507-1.619-5.015Z" clip-rule="evenodd"/><path fill="#AF6032" fill-rule="evenodd" d="M254.521 193.627c-5.849-.889-13.217-.326-23.831.279-10.613.604-24.473 1.252-39.123 1.748-14.649.497-30.087.844-43.52.952-13.434.108-24.862-.023-31.814.212-12.719.551-12.399 2.395-18.098 10.291-1.282 1.777-9.498 13.011-7.833 14.318 1.281 1.006 19.638.304 22.376.278 19.683-.148 39.701 1.152 59.591 1.272 34.315.16 69.735-.494 103.937-2.548 1.742-.105 13.751-.449 12.307-2.964-.736-1.282-5.936-5.498-7.611-7.34-5.497-6.047-7.657-8.7-16.161-13.097-3.462-1.791-6.123-2.673-10.22-3.401Z" clip-rule="evenodd"/><path fill="#C17A48" fill-rule="evenodd" d="M224.021 105.808c3.791.155 5.301-19.188.794-22.127-4.508-2.94-64.081-1.238-65.319 1.237-1.238 2.476-3.159 19.344 1.051 20.891 4.21 1.546 63.474-.001 63.474-.001Z" clip-rule="evenodd"/><path fill="#183946" fill-rule="evenodd" d="M157.976 95.983h69.55c.047-.821.068-1.653.062-2.477h-69.51c-.053.819-.088 1.65-.102 2.477Z" clip-rule="evenodd"/><path fill="#A8592D" fill-rule="evenodd" d="M158.306 101.572c-.574-3.401-.343-8.14.127-11.743a15.512 15.512 0 0 1 2.76-.255c1.204 0 2.457.153 3.719.529 2.435.724 4.735 1.836 6.784 2.91v.493h-13.618c-.053.819-.089 1.65-.103 2.477h10.441c-3.565 1.58-6.971 3.44-10.11 5.589Zm68.98-3.005a28.658 28.658 0 0 0-3.255-2.584h3.494c-.05.88-.132 1.749-.24 2.584h.001Zm.302-5.06h-7.869c-6.269-3.002-13.576-4.214-20.563-4.214-1.953 0-3.884.094-5.758.272a83.75 83.75 0 0 0-14.473 2.673 75.428 75.428 0 0 0-.295-2.648c2.266-.08 5.22-.46 5.315-1.886.002-.038.004-.077.004-.116.002-2.295-4.341-4.928-4.341-4.928s7.137-.144 14.68-.144c3.772 0 7.645.036 10.779.144 9.4.324 15.639 2.78 19.032 5.663 1.353 1.15 2.42 2.385 3.443 3.649.026.505.041 1.019.045 1.535h.001Zm-48.993-1.228c-1.151-1.431-2.541-2.705-2.541-2.705a.098.098 0 0 0 .012 0l.015.001h.016a29.118 29.118 0 0 0 2.198.025c.117.9.216 1.793.3 2.68Z" clip-rule="evenodd"/><path fill="#17292C" fill-rule="evenodd" d="M227.526 95.983h-3.495a32.511 32.511 0 0 0-4.312-2.476h7.869c.006.823-.015 1.655-.062 2.476Zm-59.109 0h-10.441c.014-.827.049-1.658.102-2.477h13.619v1.12c-1.106.426-2.2.878-3.28 1.356Z" clip-rule="evenodd"/><path fill="#183946" fill-rule="evenodd" d="M200.148 100.547h-15.374a2.299 2.299 0 0 1-2.299-2.3v-.562h19.972v.562c0 1.27-1.029 2.3-2.299 2.3Z" clip-rule="evenodd"/><path fill="#F8B255" fill-rule="evenodd" d="M182.697 97.685v-7.582a.223.223 0 0 0-.445 0v7.582a.223.223 0 0 0 .445 0ZM202.587 97.685v-7.582a.222.222 0 1 0-.444 0v7.582a.222.222 0 1 0 .444 0ZM215.782 100.547h-8.82v-2.862h8.82v2.862ZM177.731 100.547h-8.82v-2.862h8.82v2.862Z" clip-rule="evenodd"/><path fill="#F8B255" fill-rule="evenodd" d="M211.983 98.613h-1.223a1.014 1.014 0 0 1-1.013-1.014v-5.4c0-.56.454-1.013 1.013-1.013h1.223c.56 0 1.013.453 1.013 1.013v5.4c0 .56-.453 1.014-1.013 1.014ZM173.932 98.613h-1.222c-.56 0-1.014-.454-1.014-1.014v-5.4c0-.56.454-1.013 1.014-1.013h1.222c.56 0 1.014.453 1.014 1.013v5.4c0 .56-.454 1.014-1.014 1.014Z" clip-rule="evenodd"/><path fill="#FED785" fill-rule="evenodd" d="M212.995 97.684h-.002a.803.803 0 0 0 .004-.085v-1.617 1.64a1.3 1.3 0 0 1-.002.063ZM209.75 97.684h-.001l-.002-.063V97.6c0 .03.001.057.003.085Z" clip-rule="evenodd"/><path fill="#FFE98D" fill-rule="evenodd" d="M212.005 98.613h-1.267a.991.991 0 0 1-.989-.928h.001c.044.52.479.928 1.011.928h1.222c.531 0 .967-.408 1.01-.928h.002a.992.992 0 0 1-.99.928Z" clip-rule="evenodd"/><path fill="#FFE98D" fill-rule="evenodd" d="M211.983 98.613h-1.223a1.014 1.014 0 0 1-1.013-1.014v-1.362a13.608 13.608 0 0 0 3.249-2.043V97.6a1.014 1.014 0 0 1-1.013 1.014Z" clip-rule="evenodd"/><path fill="#FED785" fill-rule="evenodd" d="M174.944 97.684h-.002a.803.803 0 0 0 .004-.085v-1.617 1.64a1.3 1.3 0 0 1-.002.063ZM171.7 97.684h-.002l-.002-.063V97.6c0 .03.002.057.004.085Z" clip-rule="evenodd"/><path fill="#FFE98D" fill-rule="evenodd" d="M173.954 98.613h-1.266a.991.991 0 0 1-.99-.928h.002c.043.52.479.928 1.01.928h1.222c.531 0 .967-.408 1.01-.928h.001a.99.99 0 0 1-.989.928Z" clip-rule="evenodd"/><path fill="#FFE98D" fill-rule="evenodd" d="M173.932 98.613h-1.222c-.531 0-.967-.408-1.01-.928-.002-.029-.004-.057-.004-.086v-1.761c.908-.38 1.775-.868 2.587-1.447.226.12.446.235.663.347V97.6a1.013 1.013 0 0 1-1.014 1.014Z" clip-rule="evenodd"/><path fill="#D04F29" fill-rule="evenodd" d="M103.636 174.434H254.04s-.232-37.369-14.159-39.922c0 0-5.338-24.835-12.069-28.549-6.731-3.714-57.562-3.017-69.4 0-11.837 3.017-24.835 25.3-24.835 25.3-19.173 6.03-29.679 19.942-29.941 43.171Z" clip-rule="evenodd"/><path fill="#FCE5D3" fill-rule="evenodd" d="M111.682 176.058c3.095-9.283 5.57-17.02-3.868-16.402v-6.721s-7.582-3.646-9.13 3.781c-1.547 7.428 1.548 19.342 1.548 19.342h11.45ZM246.304 176.059h11.915s3.868-17.795 0-18.569c-3.869-.774-14.236 5.88-14.546 9.285-.309 3.404 2.631 9.284 2.631 9.284Z" clip-rule="evenodd"/><path fill="#F8B255" fill-rule="evenodd" d="M108.648 151.177c5.815 2.043 12.164-8.928 9.963-12.244-8.011-4.962-14.975 6.921-9.963 12.244Z" clip-rule="evenodd"/><path fill="#E68A4B" fill-rule="evenodd" d="M110.121 151.429Zm1.832-.353.012-.005-.012.005Zm.015-.006Zm.02-.008.005-.001-.005.001Z" clip-rule="evenodd"/><path fill="#FCCC70" fill-rule="evenodd" d="M110.121 151.429a4.384 4.384 0 0 1-1.473-.252 6.056 6.056 0 0 1-1.363-2.336c1.084-4.031 4.756-6.663 9.249-6.663.746 0 1.514.073 2.296.223-.797 3.287-3.623 7.419-6.837 8.659l-.004.002a.069.069 0 0 0-.008.003l-.013.005-.002.001-.013.005h-.001a5.172 5.172 0 0 1-1.831.353Z" clip-rule="evenodd"/><path fill="#F8B255" fill-rule="evenodd" d="M248.469 140.315c-2.877-2.171-7.737-2.454-7.737-1.382 0 1.073 4.333 14.07 4.952 15.308.619 1.238 7.296 1.244 7.582 0 .285-1.237-3.017-11.837-4.797-13.926Z" clip-rule="evenodd"/><path fill="#CDD9CA" fill-rule="evenodd" d="M253.267 154.244v-.003.003Z" clip-rule="evenodd"/><path fill="#FCCC70" fill-rule="evenodd" d="M252.899 154.639c-1.264-3.949-5.166-11.535-11.635-13.56-.319-1.09-.522-1.875-.531-2.129 0 0 0 .001 0 0v-.011l-.001-.003v-.003c0-.396.662-.607 1.641-.607 1.675 0 4.28.618 6.096 1.989 1.707 2.002 4.814 11.833 4.815 13.727a.9.9 0 0 1-.018.199v.003c-.036.15-.167.281-.367.395Z" clip-rule="evenodd"/><path fill="#183946" fill-rule="evenodd" d="M143.25 139.618a2.631 2.631 0 1 1-5.262 0 2.631 2.631 0 0 1 5.262 0ZM196.555 137.491l-4.951 2.824 4.951 2.824 4.952-2.824-4.952-2.824ZM214.595 137.491l-4.951 2.824 4.951 2.824 4.951-2.824-4.951-2.824ZM232.633 137.491l-4.952 2.824 4.952 2.824 4.951-2.824-4.951-2.824Z" clip-rule="evenodd"/><path fill="#F8B255" fill-rule="evenodd" d="M207.311 140.199a1.393 1.393 0 1 1-2.785-.001 1.393 1.393 0 0 1 2.785.001ZM225.414 140.199a1.392 1.392 0 1 1-2.784 0 1.392 1.392 0 0 1 2.784 0Z" clip-rule="evenodd"/><path fill="#B23121" fill-rule="evenodd" d="M187.409 171.639H165.84a.227.227 0 0 1-.164-.071.232.232 0 0 1-.058-.169c.084-1.069.127-2.111.127-3.123 0-5.179-1.111-9.591-3.438-13.176-2.327-3.586-5.873-6.354-10.782-8.234a.222.222 0 0 1-.143-.207v-11.451a.223.223 0 0 1 .445 0v11.298c4.905 1.903 8.493 4.713 10.853 8.351 2.384 3.673 3.51 8.178 3.51 13.419 0 .949-.037 1.921-.11 2.918h21.106v-35.986a.223.223 0 0 1 .445 0v36.209a.225.225 0 0 1-.065.157.227.227 0 0 1-.157.065ZM116.789 160.808a.223.223 0 0 1-.203-.314c2.362-5.235 6.674-8.951 11.551-11.356 4.879-2.405 10.327-3.506 15.002-3.506 2.109 0 4.062.224 5.736.657a.222.222 0 1 1-.111.43c-1.629-.421-3.547-.643-5.625-.643h-.003c-4.605 0-9.995 1.089-14.802 3.461-4.81 2.372-9.033 6.021-11.342 11.139a.223.223 0 0 1-.203.132ZM236.71 166.451a.223.223 0 0 1-.217-.175c-1.457-6.643-4.874-11.528-9.216-14.761-4.342-3.232-9.613-4.81-14.771-4.81-6.549 0-12.904 2.544-16.939 7.441a.224.224 0 0 1-.313.03.222.222 0 0 1-.03-.313c4.136-5.018 10.621-7.602 17.282-7.602 5.247 0 10.611 1.603 15.036 4.897 4.426 3.293 7.908 8.281 9.385 15.023a.222.222 0 0 1-.217.27Z" clip-rule="evenodd"/><path fill="#E66D3B" fill-rule="evenodd" d="M158.889 158.296c-2.445-.001-5.105-4.506-13.358-6.255a30.409 30.409 0 0 0-6.348-.683c-2.1 0-3.846.229-5.234.457s-2.419.456-3.088.456c-.359 0-.614-.065-.765-.23-.98-1.075 3.91-4.182 11.895-4.182 1.468 0 3.041.105 4.7.347 10.689 1.558 15.9 8.472 13.114 9.865-.309.154-.61.225-.916.225ZM227.506 158.295c-2.199 0-4.589-4.505-12.01-6.254a24.689 24.689 0 0 0-5.707-.683c-1.888 0-3.458.228-4.706.457-1.247.228-2.174.456-2.776.456-.322 0-.552-.065-.687-.23-.882-1.075 3.515-4.182 10.694-4.182 1.32 0 2.734.105 4.226.347 9.608 1.558 14.294 8.472 11.79 9.865a1.66 1.66 0 0 1-.824.224Z" clip-rule="evenodd"/><path fill="#A1C6BF" fill-rule="evenodd" d="M189.824 132.887h44.255s-3.559-20.116-7.737-23.365c-2.39-1.86-20.598-2.822-36.518-2.504v25.869Z" clip-rule="evenodd"/><path fill="#C17A48" fill-rule="evenodd" d="M234.079 132.887s-.296-1.671-.817-4.127c-4.153-6.088-9.091-11.271-9.744-14.209-.696-3.134-3.249-4.178-7.775-3.946-4.526.233-23.503 4.874-25.919 14.739v7.543h44.255Z" clip-rule="evenodd"/><path fill="#B23C21" fill-rule="evenodd" d="M234.079 132.887Z" clip-rule="evenodd"/><path fill="#878265" fill-rule="evenodd" d="M234.08 132.887Zm0 0a126.385 126.385 0 0 0-.021-.113l.021.113Zm-2.209-6.102-.001-.001.001.001Zm-.008-.011-.009-.012.009.012Zm-.009-.013c-3.632-4.998-7.423-9.231-8.245-11.874h.002c.82 2.642 4.611 6.875 8.243 11.874Zm-42.029-1.417Zm.3-.98.005-.013a.07.07 0 0 0-.005.013Zm.005-.014.005-.013-.005.013Zm.005-.014.005-.012-.005.012Zm.005-.014.005-.012a.104.104 0 0 1-.005.012Zm.006-.015.004-.011-.004.011Zm.005-.014.004-.01-.004.01Zm.006-.015.003-.009-.003.009Zm.005-.014.003-.009-.003.009Zm.006-.015a.014.014 0 0 0 .002-.006l-.002.006Zm.005-.014a.014.014 0 0 0 .002-.006l-.002.006Zm.006-.015.002-.004a.008.008 0 0 0-.002.005v-.001Zm.005-.014.002-.004a.008.008 0 0 1-.002.004Zm.006-.014.001-.003-.001.003Zm.005-.014.001-.002-.001.002Z" clip-rule="evenodd"/><path fill="#A25025" fill-rule="evenodd" d="m234.08 132.887-.771-3.758a3.312 3.312 0 0 0-.161-.538l.115.169a151.417 151.417 0 0 1 .817 4.127Zm-44.255 0v-7.543a9.22 9.22 0 0 1 .3-.979l.005-.014v-.001l.005-.013v-.001l.005-.012v-.002a.104.104 0 0 0 .006-.015l.004-.011.001-.003.004-.01.002-.005.003-.009.002-.005.003-.008.003-.006.002-.007.003-.007.002-.006.004-.009a.01.01 0 0 1 .002-.005l.003-.009a.008.008 0 0 0 .002-.004l.004-.011.001-.002.004-.012.001-.002.005-.013c.214-.541.477-1.066.785-1.573v4.725a3.16 3.16 0 0 0-1.161 2.451v3.121Zm42.491-5.485a3.167 3.167 0 0 0-2.111-.805h-5.587c-.002-1.16.022-2.697.1-4.696.121-3.095-.698-5.355-1.513-6.812.135-.066.27-.133.404-.201.822 2.642 4.613 6.875 8.245 11.873v.001l.009.012a.067.067 0 0 1 .007.011h.001l.444.617h.001Zm-17.014-.805h-5.189l-.308-3.679-.019-.224-.122-1.468.896-.021-.318-3.752c.848.103 1.694.153 2.534.153a22.6 22.6 0 0 0 6.397-.946c-.057.839-.436 2.253-1.882 4.313-1.249 1.779-1.776 3.911-1.989 5.624Zm-18.973-9.221c1.712-1.136 3.62-2.124 5.562-2.968 1.416.986 3.047 1.77 4.853 2.312l.297.086-10.712.57Z" clip-rule="evenodd"/><path fill="#D04F29" fill-rule="evenodd" d="m210.173 127.316-.619-7.394-18.569.586v7.427l19.188-.619Z" clip-rule="evenodd"/><path fill="#8D2E1F" fill-rule="evenodd" d="m209.804 122.918-.019-.224.019.224Z" clip-rule="evenodd"/><path fill="#B23121" fill-rule="evenodd" d="M190.985 126.524v-4.845l18.678-.453.123 1.468.019.224a36.417 36.417 0 0 0-.934-.012c-6.085 0-12.125 1.555-17.886 3.618Z" clip-rule="evenodd"/><path fill="#F8B255" fill-rule="evenodd" d="m210.559 121.205-.387-4.565-20.348 1.083v3.985l20.735-.503Z" clip-rule="evenodd"/><path fill="#9C8B3F" fill-rule="evenodd" d="m189.824 117.723 1.781-.095c.001 0 0 0 0 0l-1.781.095Z" clip-rule="evenodd"/><path fill="#EE7C1C" fill-rule="evenodd" d="M189.824 121.707v-3.984l1.781-.095c4.724 2.43 9.731 3.308 14.803 3.308 1.367 0 2.74-.064 4.113-.178l.038.446-.897.022-18.677.453-1.161.028Z" clip-rule="evenodd"/><path fill="#1A1E21" fill-rule="evenodd" d="m200.745 127.921-.915-10.736-.166.014.127.109c.002-.003.701-.816 1.402-1.833.351-.509.703-1.068.969-1.606.266-.54.45-1.054.452-1.499.001-.276-.078-.538-.276-.725a.567.567 0 0 0-.389-.172c-.212.003-.385.127-.537.294-.266.297-.504.773-.729 1.33-.67 1.668-1.181 4.063-1.182 4.067l.163.035.16-.045a28.384 28.384 0 0 0-.989-2.827c-.296-.708-.638-1.418-1.01-1.961a3.258 3.258 0 0 0-.587-.671c-.205-.167-.43-.278-.672-.278a.775.775 0 0 0-.259.044.616.616 0 0 0-.322.243.688.688 0 0 0-.1.377c.005.416.246.916.59 1.474 1.033 1.659 3.066 3.756 3.069 3.76l.12-.116.107-.128c-.004-.003-.723-.605-1.693-1.209-.972-.603-2.185-1.217-3.227-1.221-.325 0-.638.062-.913.214-.277.15-.511.39-.683.721a.169.169 0 0 0 .072.226c.081.042.182.01.224-.072.147-.281.331-.464.547-.583a1.55 1.55 0 0 1 .753-.172c.911-.004 2.104.577 3.051 1.17a16.862 16.862 0 0 1 1.655 1.182c.068.057.169.05.229-.014a.167.167 0 0 0-.002-.23 34.978 34.978 0 0 1-2.132-2.446 13.708 13.708 0 0 1-1.013-1.457c-.266-.451-.424-.857-.42-1.099 0-.089.018-.151.047-.196a.278.278 0 0 1 .152-.109.432.432 0 0 1 .148-.026c.135-.001.291.064.461.204.298.241.617.698.909 1.243.441.817.835 1.832 1.116 2.64a27.658 27.658 0 0 1 .451 1.407.167.167 0 0 0 .324-.01c0-.001.074-.345.202-.864.192-.778.506-1.947.871-2.912.183-.482.379-.914.571-1.215.096-.15.192-.267.277-.339.086-.073.153-.098.201-.097.043.001.089.015.159.08.116.11.172.263.173.483.002.349-.162.835-.418 1.35-.383.775-.966 1.621-1.452 2.27-.243.324-.462.6-.62.795-.157.193-.254.305-.254.306a.168.168 0 0 0-.039.122l.915 10.737a.168.168 0 0 0 .18.152.167.167 0 0 0 .152-.181Z" clip-rule="evenodd"/><path fill="#1A1E21" fill-rule="evenodd" d="M205.212 115.245a1.092 1.092 0 0 0-.46-.447 1.362 1.362 0 0 0-.617-.134c-.45.002-.95.158-1.458.385-1.52.682-3.114 2.018-3.12 2.023a.167.167 0 0 0 .214.255l.122-.099a18.413 18.413 0 0 1 1.83-1.291c.823-.505 1.762-.943 2.412-.939.181 0 .338.032.466.097a.753.753 0 0 1 .32.314.167.167 0 0 0 .291-.164Z" clip-rule="evenodd"/><path fill="#A1C6BF" fill-rule="evenodd" d="M145.531 131.379c4.061-14.623 15.667-23.675 15.667-23.675h-6.887c-10.549 6.102-20.734 23.559-20.734 23.559 5.095-1.106 8.79-.768 11.954.116Z" clip-rule="evenodd"/><path fill="#BBDED8" fill-rule="evenodd" d="M145.531 131.379a21.559 21.559 0 0 0-5.915-.814c-1.787 0-3.774.206-6.039.698 0 0 10.185-17.457 20.734-23.559h6.887s-11.606 9.052-15.667 23.675Z" clip-rule="evenodd"/><path fill="#A1C6BF" fill-rule="evenodd" d="M187.409 107.077c-9.735.28-18.227 1.064-21.104 2.445-7.737 3.714-14.546 18.414-14.701 23.365h35.805v-25.81ZM234.079 132.887l-.771-3.758a3.169 3.169 0 0 0-3.104-2.532h-37.211a3.17 3.17 0 0 0-3.169 3.169v3.121h44.255Z" clip-rule="evenodd"/><path fill="#DFF0ED" fill-rule="evenodd" d="M209.812 132.887h-5.352l4.006-6.29h5.263l-3.917 6.29ZM233.148 128.591a3.149 3.149 0 0 0-.833-1.188l.001-.001c.36.322.648.727.832 1.189Z" clip-rule="evenodd"/><path fill="#EAE3D1" fill-rule="evenodd" d="M233.148 128.591Zm-.832-1.188v-.001h-.001l.001.001Z" clip-rule="evenodd"/><path fill="#DDD8C9" fill-rule="evenodd" d="m234.08 132.887-.771-3.758a3.215 3.215 0 0 1 0 0l.771 3.758Zm-1.764-5.485a3.167 3.167 0 0 0-.001 0h.001Z" clip-rule="evenodd"/><path fill="#DFF0ED" fill-rule="evenodd" d="M234.08 132.887h-18.529l1.649-2.784c1.012.152 2.009.231 2.993.231 1.55 0 3.065-.197 4.537-.619 0 0-.108-.82-.113-3.118h5.588c.802 0 1.545.301 2.11.805v.001c.36.321.648.726.832 1.188.069.172.123.351.161.538l.772 3.758Z" clip-rule="evenodd"/><path fill="#C17A48" fill-rule="evenodd" d="M219.07 115.711c1.625-.696 2.631-2.63 2.631-2.63s3.249 2.863 3.017 8.82c-.232 5.957.012 7.814.012 7.814-3.017.865-6.208.786-9.528 0 0 0-.464-5.106 2.089-8.742 2.553-3.637 1.779-5.262 1.779-5.262Z" clip-rule="evenodd"/><path fill="#97411F" fill-rule="evenodd" d="m219.658 115.392-.007-.015.01-.115a.107.107 0 0 1 .089-.046l.018.001c.002.001.041.007.108.023a3.686 3.686 0 0 1-.218.152Z" clip-rule="evenodd"/><path fill="#97411F" fill-rule="evenodd" d="M219.534 121.316a.113.113 0 0 1-.06-.018.11.11 0 0 1-.034-.153c.632-.99.834-2.018.834-2.931a7.003 7.003 0 0 0-.597-2.783l-.018-.039c.074-.049.146-.099.217-.152.179.044.558.161.97.438.565.379 1.19 1.065 1.428 2.255a.111.111 0 0 1-.218.044c-.213-1.061-.737-1.679-1.236-2.045a2.99 2.99 0 0 0-.874-.442c.18.429.55 1.463.551 2.724 0 .946-.21 2.019-.869 3.05a.11.11 0 0 1-.094.052Z" clip-rule="evenodd"/><path fill="#1A1E21" fill-rule="evenodd" d="M219.236 115.726c.074-.871.684-1.492 1.302-1.9a5.091 5.091 0 0 1 1.112-.552l.074-.025.024-.008a.167.167 0 0 0-.095-.32c-.01.003-.639.191-1.299.626-.656.434-1.361 1.128-1.45 2.15a.167.167 0 1 0 .332.029Z" clip-rule="evenodd"/><path fill="#183946" fill-rule="evenodd" d="M156.415 172.672c0 9.449-7.66 17.11-17.11 17.11-9.449 0-17.11-7.661-17.11-17.11 0-9.45 7.661-17.11 17.11-17.11 9.45 0 17.11 7.66 17.11 17.11Z" clip-rule="evenodd"/><path fill="#1A1E21" fill-rule="evenodd" d="M148.995 172.672a9.69 9.69 0 0 1-9.69 9.69 9.69 9.69 0 0 1-9.69-9.69c0-5.351 4.338-9.69 9.69-9.69 5.352 0 9.69 4.339 9.69 9.69Z" clip-rule="evenodd"/><path fill="#183946" fill-rule="evenodd" d="M229.062 172.672c0 9.449-7.66 17.11-17.11 17.11-9.45-.001-17.11-7.661-17.11-17.11 0-9.45 7.66-17.11 17.11-17.11s17.11 7.66 17.11 17.11Z" clip-rule="evenodd"/><path fill="#1A1E21" fill-rule="evenodd" d="M221.642 172.672c0 5.352-4.339 9.69-9.69 9.69a9.69 9.69 0 0 1-9.69-9.69c0-5.351 4.338-9.69 9.69-9.69 5.351 0 9.69 4.339 9.69 9.69Z" clip-rule="evenodd"/><path fill="#C17A48" fill-rule="evenodd" d="M242.9 69.18c10.909 6.841 12.301 14.083 12.997 15.743.697 1.66 12.003-10.213 9.981-18.302-.464-1.857-18.151-13.81-27.586-12.185-9.435 1.624 0 8.897 0 8.897l4.608 5.847Z" clip-rule="evenodd"/><path fill="#AF6032" fill-rule="evenodd" d="M259.766 78.432a.169.169 0 0 1-.14-.075c-1.934-2.915-4.55-5.642-7.237-8.016-.081-.215-.158-.43-.232-.647 2.859 2.478 5.68 5.368 7.747 8.479a.167.167 0 0 1-.138.26ZM262.319 72.63a.167.167 0 0 1-.13-.062c-3.875-4.792-7.942-7.794-11.214-9.642.001-.125.004-.25.009-.377 3.33 1.858 7.498 4.905 11.464 9.809a.167.167 0 0 1-.129.271Zm1.315-4.798a.166.166 0 0 1-.12-.05c-2.545-2.624-6.976-5.271-11.39-7.252a60.72 60.72 0 0 0-.905-.398l.056-.338c.328.14.657.284.985.432 4.44 1.994 8.893 4.647 11.494 7.324a.167.167 0 0 1-.12.282ZM260.539 76.033a.167.167 0 0 1-.135-.069c-2.608-3.63-5.83-6.712-9.033-9.172a20.655 20.655 0 0 1-.096-.492c3.322 2.512 6.686 5.694 9.399 9.47a.167.167 0 0 1-.135.263Z" clip-rule="evenodd"/><path fill="#92A08D" fill-rule="evenodd" d="M256.034 85.06Z" clip-rule="evenodd"/><path fill="#B06234" fill-rule="evenodd" d="M256.154 85.08a.342.342 0 0 1-.121-.02.234.234 0 0 1-.127-.118c-.003-.006-.007-.013-.009-.02a4.792 4.792 0 0 1-.077-.194c-.565-1.529-1.693-6.06-7.067-11.093a59.83 59.83 0 0 0-1.04-2.777 56.46 56.46 0 0 1 2.516 2.015c1.724 1.466 3.386 3.085 4.675 4.748 1.291 1.663 2.206 3.37 2.453 5.002a.166.166 0 0 0 .189.14.168.168 0 0 0 .141-.19c-.3-1.965-1.493-3.967-3.102-5.877-2.013-2.386-4.686-4.631-7.118-6.44a72.472 72.472 0 0 0-2.714-5.794c2.215 1.502 4.96 3.516 7.636 5.879 1.576 4.193 4.423 7.91 8.739 9.649.096.039.192.075.289.113-2.183 2.932-4.47 4.977-5.263 4.977Zm-3.997-15.386c-2.758-2.39-5.551-4.4-7.736-5.857-.437-.815-.71-1.278-.71-1.278s.284-.083.733-.228a48.862 48.862 0 0 1 6.926 4.461c.2.976.461 1.95.787 2.902Zm-.882-3.394a51.005 51.005 0 0 0-3.128-2.187 46.856 46.856 0 0 0-3.263-1.926 33.675 33.675 0 0 0 2.583-.974c.997.41 2.187.968 3.507 1.713-.011.87.042 1.725.164 2.549.041.274.086.55.137.825Zm-.292-3.751a32.215 32.215 0 0 0-3.097-1.523c.949-.436 1.785-.92 2.143-1.388.395.159.791.324 1.19.494a19.679 19.679 0 0 0-.236 2.417Zm.292-2.755a64.24 64.24 0 0 0-1.085-.45.525.525 0 0 0-.096-.498c-.854-1.111-3.723-1.278-5.176-1.29a27.52 27.52 0 0 0-.508-.129 31.29 31.29 0 0 0 3.334-1.631 48.056 48.056 0 0 1 4.086 1.642c-.228.77-.415 1.56-.555 2.356Z" clip-rule="evenodd"/><path fill="#A04E24" fill-rule="evenodd" d="M257.522 82.765a.167.167 0 0 1-.165-.142c-.247-1.633-1.162-3.34-2.452-5.002-1.29-1.663-2.952-3.282-4.676-4.748a55.888 55.888 0 0 0-2.516-2.015l-.245-.601c2.432 1.808 5.104 4.053 7.117 6.44 1.609 1.91 2.803 3.911 3.102 5.876a.167.167 0 0 1-.14.19l-.025.002Zm-5.133-12.424c-2.675-2.364-5.421-4.377-7.635-5.879l-.332-.625c2.185 1.457 4.977 3.466 7.736 5.857.074.217.151.432.231.647ZM250.976 62.926a31.868 31.868 0 0 0-3.508-1.714c.142-.06.281-.123.419-.186a32.26 32.26 0 0 1 3.097 1.522c-.004.127-.007.253-.008.378Zm.244-2.794a54.69 54.69 0 0 0-1.19-.494.964.964 0 0 0 .161-.295c.36.146.722.296 1.085.451l-.056.338Zm-7.159-2.563s.126-.049.35-.142c.168.041.337.084.508.13-.056-.002-.109-.001-.161-.001-.428 0-.697.013-.697.013ZM251.371 66.792a48.915 48.915 0 0 0-6.927-4.46c.134-.043.281-.091.44-.145a47.104 47.104 0 0 1 3.264 1.926c1.024.66 2.073 1.39 3.127 2.187.03.164.062.328.096.492Z" clip-rule="evenodd"/><path fill="#5C885C" fill-rule="evenodd" d="M116.789 101.94c9.903 3.094 21.199-.155 25.686-3.327 4.488-3.172 8.356-1.934 10.522-2.63 2.167-.697-1.392-3.482-1.392-3.482s6.523-4.418 13.307-2.398c6.784 2.02 12.525 7.04 14.696 5.88 2.171-1.16-3.555-6.41-3.555-6.41s7.737.452 7.892-1.87c.155-2.32-4.337-5.043-4.337-5.043s16.058-.325 25.458 0c9.401.324 15.64 2.78 19.033 5.663 3.393 2.883 4.99 6.306 8.588 9.362 3.597 3.055 1.393-7.041 1.393-7.041s9.4 12.418 10.676 13.81c1.277 1.393 2.205-5.88-3.017-13.268 0 0 4.874 4.216 4.526.503-.348-3.714-3.946-10.213-3.946-10.213s8.588 11.49 8.472 2.205c-.116-9.284-7.079-21.122-7.079-21.122s7.543-2.205 6.383-3.713c-1.161-1.509-6.035-1.277-6.035-1.277s5.454-2.089 8.008-5.106c2.553-3.018 1.392-5.919-1.741-4.99 0 0 3.839-5.107 3.138-5.92-.701-.812-5.343 0-5.343 0s4.922-3.969 3.065-7.914c-1.857-3.946-7.591-.209-15.134.603 0 0 7.775-3.559-4.294-1.74-5.698.858-11.606.812-11.606.812s8.141-4.758 7.436-6.383c-.705-1.625-11.73 3.017-11.73 3.017s6.964-5.106 3.366-5.57c-3.598-.465-22.282 11.025-22.282 11.025s4.99-4.062 3.946-4.758c-1.045-.697-4.526.58-4.526.58s4.655-5.338 2.669-5.338c-7.776 0-17.219 17.635-34.584 31.682 0 0 1.277-8.24-2.437-8.472-3.714-.232-6.847 7.196-10.909 16.828S141.121 83.1 141.121 83.1s2.205-7.66-1.16-5.223c-3.366 2.437-5.106 8.627-11.838 15.629-6.73 7.002-11.334 8.433-11.334 8.433Z" clip-rule="evenodd"/><path fill="#6E9884" fill-rule="evenodd" d="M236.068 34.24h.006-.006Zm.017-.001h.007-.007Zm.016-.002Zm.016-.002h.009-.009Zm.017-.002h.009-.009Zm.016-.002h.009-.009Zm.015-.001.011-.002-.011.002Zm.013-.002.059-.007-.059.007Zm.062-.007.013-.002a.289.289 0 0 1-.013.002Zm.016-.002.014-.002-.014.002Zm.016-.002.014-.002-.015.002h.001Zm.015-.002c2.598-.323 5.547-1.382 8.371-2.47-2.825 1.088-5.773 2.148-8.371 2.47Z" clip-rule="evenodd"/><path fill="#3F693E" fill-rule="evenodd" d="M224.536 54.566c-1.161 0-1.945-.13-1.945-.13 6.498-2.09 8.936-5.223 3.829-5.687 0 0 14.507-4.642 14.623-7.892.102-2.843-7.039-3.02-8.825-3.02-.255 0-.401.003-.401.003s6.362-1.53 6.789-2.128c.773-1.083-2.553-1.47-2.553-1.47l.016-.001h.006c.004-.002.007-.002.011-.002h.007l.009-.002a.192.192 0 0 0 .016-.002h.009l.008-.002h.009l.007-.002h.01a.06.06 0 0 0 .005-.001l.011-.002h.002l.059-.007h.003l.013-.002h.003l.013-.002h.002l.015-.002c2.598-.322 5.924-.81 8.748-1.9-.995 2.199-4.843 4.436-4.843 4.436s5.631.614 4.526 5.65c-1.106 5.035-12.405 5.884-12.405 5.884s2.334 1.608-1.105 4.31c-2.101 1.65-4.85 1.971-6.672 1.97Z" clip-rule="evenodd"/><path fill="#6E9884" fill-rule="evenodd" d="M236.053 34.242Zm.001 0Zm0 0Z" clip-rule="evenodd"/><path fill="#3F693E" fill-rule="evenodd" d="m236.053 34.242 1.984-1.152c-.704.562-1.939 1.132-1.983 1.152h-.001Z" clip-rule="evenodd"/><path fill="#6E9884" fill-rule="evenodd" d="M245.752 102.347c-.001-2.528-.947-6.825-4.012-11.161 3.064 4.336 4.011 8.633 4.012 11.161Zm-13.048-4.648-.016-.014c-2.163-1.838-3.603-3.808-5.145-5.713 1.542 1.905 2.982 3.875 5.145 5.713l.016.013Z" clip-rule="evenodd"/><path fill="#865F31" fill-rule="evenodd" d="m227.544 91.973-.002-.001h.002Z" clip-rule="evenodd"/><path fill="#74441F" fill-rule="evenodd" d="M227.542 91.972c-1.023-1.264-2.091-2.5-3.443-3.649-3.393-2.883-9.633-5.339-19.033-5.663-3.134-.108-7.006-.144-10.778-.144-7.543 0-14.681.144-14.681.144h.001s7.137-.144 14.68-.144c3.772 0 7.644.036 10.778.144 9.4.324 15.64 2.78 19.033 5.663 1.352 1.15 2.42 2.385 3.443 3.649Z" clip-rule="evenodd"/><path fill="#6E9884" fill-rule="evenodd" d="M245.694 93.18c.411-.123.655-.55.572-1.472.083.923-.161 1.35-.572 1.472Zm.531-1.825c-.516-3.756-3.906-9.879-3.906-9.879.023.041 3.391 6.136 3.906 9.879Zm-12.093-.456ZM250.792 83.866l-.001-.185v-.004.004l.001.185Zm-.001-.203v-.006.006Zm0-.02v-.007.007Zm0-.021v-.006.006Zm-.001-.021v-.007.007Zm0-.02v-.006.005Zm-.001-.023v-.003.003Zm0-.019v-.005.005Zm0-.023v-.003.003Zm0-.018-.001-.005.001.005Zm-.001-.023v-.002.002Zm-.001-.02v-.002.002Zm0-.022v-.001.002Zm-.001-.02v-.001.001Zm0-.022Zm-.001-.02Z" clip-rule="evenodd"/><path fill="#3F693E" fill-rule="evenodd" d="M245.066 104.627c-.098 0-.203-.056-.31-.173-1.276-1.392-10.676-13.81-10.676-13.81l.001.007.052.248c.269 1.325 1.4 7.361-.31 7.361-.287 0-.654-.17-1.12-.562l-.016-.013c-2.163-1.838-3.603-3.808-5.145-5.713-1.023-1.265-2.09-2.5-3.443-3.65-3.393-2.882-9.633-5.338-19.033-5.663-3.134-.108-7.006-.144-10.778-.144-7.543 0-14.68.144-14.68.144s4.343 2.634 4.341 4.929c0 .039-.002.078-.004.116-.095 1.425-3.049 1.805-5.315 1.886-.656-5.078-1.866-10.385-3.943-16.127.124-.002.249-.003.374-.003 2.07 0 4.319.292 6.406 1.168 6.264 2.63-1.596 4.372-1.596 4.372s14.737 0 15.72-3.134c.17-.54.011-1.002-.366-1.393a5.458 5.458 0 0 0 4.135-4.835c1.431 2.046 3.289 4.082 5.019 4.082l.081-.001c3.499-.131-.886-4.54-.886-4.54s6.509 3.311 12.208 3.906c.231.024.439.036.629.036 4.485 0-2.292-6.5-2.292-6.5 10.676 3.83 16.595 10.329 18.8 12.418-.759-.72-1.957-1.96-3.638-3.435a5.35 5.35 0 0 0-1.735 3.93v.016a5.373 5.373 0 0 0 5.304 5.372H233.049l.007-.001h.028l.005-.001h.017l.013-.001h.017l.004-.001h.017l.014-.001h.002l.015-.001h.002a5.369 5.369 0 0 0 .104-10.72h-.015l-.009-.002h-.007a.22.22 0 0 1-.014-.001 30.667 30.667 0 0 0-1.432-3.162s3.005 2.132 4.675 2.132c1.086-.001 1.607-.901.373-3.873 4.85 2.647 8.155 3.855 10.163 3.855.591 0 1.07-.105 1.442-.308 1.218 3.36 2.217 7.108 2.315 10.534v.021l.001.02v.022l.001.019v.022l.001.018v.023a.103.103 0 0 1 .001.018V83.558l.001.017V83.643l.001.014v.024l.001.185c0 2.53-.678 3.438-1.651 3.438-2.465 0-6.822-5.829-6.822-5.829l.001.001h-.001s3.39 6.123 3.907 9.879c.016.113.029.225.039.334l.002.02c.082.921-.161 1.348-.572 1.47a1 1 0 0 1-.287.039c-1.32 0-3.669-2.032-3.669-2.032 3.065 4.336 4.012 8.633 4.012 11.161.001 1.095-.177 1.858-.435 2.149-.077.086-.161.131-.25.131Z" clip-rule="evenodd"/><path fill="#6E9884" fill-rule="evenodd" d="M125.406 103.188a31.983 31.983 0 0 0 0 0Zm17.613-4.94Z" clip-rule="evenodd"/><path fill="#865F31" fill-rule="evenodd" d="M178.265 96.095a5.194 5.194 0 0 0 0 0Z" clip-rule="evenodd"/><path fill="#132C30" fill-rule="evenodd" d="M177.797 95.982Z" clip-rule="evenodd"/><path fill="#3F693E" fill-rule="evenodd" d="M125.406 103.188c-.252 0-.505-.002-.758-.008a9.49 9.49 0 0 0-1.254-.941c8.178-.459 6.32-4.975 11.968-7.495 6.83-3.046 9.506-1.374 14.664-2.894 5.159-1.52 1.579-3.353 1.579-3.353s10.457-2.005 10.775-2.96c.318-.953-4.626-1.856-4.626-1.856s2.343-.483 4.671-1.171a2.558 2.558 0 1 0 5.072.47v-.024a2.554 2.554 0 0 0-1.074-2.057c.336-.234.545-.47.578-.7.106-.739-1.419-.94-3.113-.94-2.035 0-4.314.29-4.314.29s2.205-.394 4.641-3.528c1.415-1.819.992-3.012-.762-3.012-1.268 0-3.232.623-5.699 2.084 3.406-2.672 6.098-4.23 7.788-4.23 1.457 0 2.171 1.16 1.955 3.766 0 0 3.032-1.035 6.838-1.157 2.087 5.746 3.302 11.052 3.959 16.128a30.752 30.752 0 0 1-2.213-.025h-.02l-.008-.001s1.39 1.274 2.541 2.706l.024.257a.166.166 0 0 0 .268.117c1.034 1.368 1.73 2.789.721 3.329h.001a1.611 1.611 0 0 1-.769.171c-.179 0-.371-.02-.575-.058a5.435 5.435 0 0 1-.468-.113 9.827 9.827 0 0 1-1.1-.404l-.014-.005-.044-.02-.083-.035-.024-.01-.035-.017c-2.853-1.264-6.978-4.019-11.584-5.39a12.981 12.981 0 0 0-3.719-.528c-.958 0-1.885.097-2.761.255-3.935.713-6.827 2.672-6.827 2.672s3.559 2.785 1.392 3.482c-2.037.654-5.578-.401-9.724 2.107a16.904 16.904 0 0 0-.496.316 17.433 17.433 0 0 0-.397.273c-1.023.709-2.381 1.418-3.986 2.059a3.31 3.31 0 0 0-6.307 1.81 35.83 35.83 0 0 1-6.681.64Zm64.284-30.58c-1.707-.24-3.115-.3-3.115-.3s1.1-.38 2.348-.961c.198.456.457.88.767 1.261Zm1.692-2.678h.001-.001Zm.015-.011h.001-.001Zm.015-.011.001-.001h-.001Zm.023-.018.002-.001-.002.001Zm.007-.005a.014.014 0 0 1 .003-.003l-.003.003Zm.008-.007h.001-.001Zm.006-.005.003-.002-.003.002Zm.008-.006.002-.002-.002.002Zm.007-.006.002-.002-.002.002Zm.007-.005.002-.002-.002.002Zm.003-.002.018-.016-.018.016Zm.019-.016.006-.005-.006.005Zm.007-.006.005-.004-.005.004Zm.007-.005Zm.006-.005.006-.005-.006.005Zm.006-.006c.461-.376.796-.768.903-1.159-.107.39-.442.784-.903 1.16Zm.903-1.16.001-.005-.001.005Zm.002-.006.001-.004-.001.005Zm.001-.005.001-.005-.001.005Zm.001-.005Zm.007-.027.001-.004-.001.004Zm.001-.006.001-.004-.001.004Zm.002-.006.001-.004-.001.004Zm.001-.005.001-.005-.001.005Zm.001-.006.001-.004-.001.004Zm.001-.006.003-.015-.003.016Zm.003-.015.001-.004-.001.004Zm.001-.006.001-.004-.001.004Zm.002-.006v-.003.003Zm0-.006.001-.003-.001.003Zm.001-.006.001-.003-.001.003Zm.001-.006.001-.003-.001.003Zm.001-.005.001-.003-.001.003Zm.001-.006.001-.006-.001.006Zm.002-.009v-.002.002Zm0-.006v-.003.004Zm.001-.005v-.003.003Zm0-.006.001-.003-.001.003Zm.001-.006.001-.003-.001.003Zm.001-.006v-.003.003Zm.001-.007v-.002.002Zm.001-.014v-.002.002Zm0-.006v-.002.002Zm.001-.006v-.003.003Zm0-.009v-.002.002Zm.001-.006v-.003.003Zm0-.006v-.003.003Zm.001-.007v-.003.004Zm0-.003v-.009.009Zm0-.011.001-.004-.001.004Zm.001-.006v-.004.004Zm0-.006v-.014.014Zm0-.015v-.005.005Zm0-.006c.003-.49-.307-.929-.761-1.309.454.38.764.82.761 1.309Zm-.764-1.312-.002-.002.002.002Zm-.006-.005h-.001.001Zm-2.129-1.163c-.738-.289-1.327-.445-1.327-.445s.856-.067 2.013-.31c-.252.23-.481.482-.686.755Zm7.911-.866a5.443 5.443 0 0 0-3.316-1.308c.718-.433 1.338-.97 1.737-1.636 1.319-2.198-2.224-2.465-4.02-2.465-.574 0-.97.027-.97.027 4.326-4.18 4.761-6.46 2.406-6.46-1.371 0-3.691.775-6.738 2.398 0 0 6.684-3.617 9.319-3.617.528 0 .893.145 1.01.493.7 2.088-3.502 5.895-3.502 5.895s.134-.027.49-.027c.71 0 2.306.11 5.487.764 3.929.81-.291 4.617-1.903 5.936Z" clip-rule="evenodd"/><path fill="#1F1B20" fill-rule="evenodd" d="M178.864 96.153c.071 1.52.102 3.029.102 4.53 0 2.27-.071 4.525-.18 6.787a.167.167 0 0 0 .159.174.166.166 0 0 0 .174-.158c.11-2.266.18-4.526.18-6.803 0-1.506-.031-3.019-.102-4.546a.167.167 0 1 0-.333.016ZM166.045 56.212c8.424 14.302 11.612 25.735 12.572 36.325.009.092.09.16.181.151a.166.166 0 0 0 .151-.18c-.963-10.637-4.171-22.13-12.617-36.466a.166.166 0 0 0-.287.17ZM196.783 35.452c3.219 10.463 4.399 20.436 4.399 29.434 0 12.34-2.219 22.847-4.437 30.268a90.965 90.965 0 0 1-3.05 8.659 58.266 58.266 0 0 1-1.004 2.299c-.12.26-.216.458-.28.59a6.387 6.387 0 0 1-.099.199.166.166 0 0 0 .073.224c.082.042.182.01.224-.072.007-.014 8.906-17.407 8.907-42.167 0-9.027-1.184-19.034-4.414-29.532a.167.167 0 1 0-.319.098ZM225.683 53.13c-1.627 15.245-6.063 28.742-10.093 38.426a140.915 140.915 0 0 1-5.336 11.409 98.287 98.287 0 0 1-1.685 3.076 54.269 54.269 0 0 1-.627 1.065.167.167 0 1 0 .284.175c.006-.012 14.524-23.54 17.789-54.116a.167.167 0 0 0-.332-.035Z" clip-rule="evenodd"/><path fill="#D04F29" fill-rule="evenodd" d="M138.673 102.068a3.31 3.31 0 1 1-6.62 0 3.31 3.31 0 0 1 6.62 0Z" clip-rule="evenodd"/><path fill="#C23E22" fill-rule="evenodd" d="M135.363 105.378a3.31 3.31 0 0 1-3.31-3.31c0-.261.033-.514.09-.758a3.31 3.31 0 0 0 3.22 2.552 3.31 3.31 0 0 0 3.219-2.552c.058.244.091.497.091.758a3.31 3.31 0 0 1-3.31 3.31Z" clip-rule="evenodd"/><path fill="#E76F3B" fill-rule="evenodd" d="M135.362 100.446c-.837 0-1.516-.304-1.516-.68 0-.376.679-.68 1.516-.68.838 0 1.517.304 1.517.68 0 .376-.679.68-1.517.68Z" clip-rule="evenodd"/><path fill="#F8B255" fill-rule="evenodd" d="M150.698 85.538a3.31 3.31 0 1 1-6.62 0 3.31 3.31 0 0 1 6.62 0Z" clip-rule="evenodd"/><path fill="#F49C3D" fill-rule="evenodd" d="M147.388 88.848h-.01a3.312 3.312 0 0 1-3.3-3.31c0-.262.034-.515.091-.759a3.308 3.308 0 0 0 6.439 0 3.31 3.31 0 0 1-3.22 4.069Z" clip-rule="evenodd"/><path fill="#FCD074" fill-rule="evenodd" d="M147.388 83.915c-.838 0-1.517-.304-1.517-.68 0-.376.679-.68 1.517-.68.837 0 1.517.304 1.517.68 0 .376-.68.68-1.517.68Z" clip-rule="evenodd"/><path fill="#F8B255" fill-rule="evenodd" d="M194.159 63.731c-1.22.736-2.72 1.17-3.906 1.419-.252.23-.482.483-.686.756 1.275.5 2.997 1.396 2.895 2.572-.09 1.043-1.937 2.123-3.538 2.869a5.454 5.454 0 0 0 10.457-2.173 5.45 5.45 0 0 0-5.222-5.443Z" clip-rule="evenodd"/><path fill="#5C7743" fill-rule="evenodd" d="M188.924 71.347Zm10.457-2.172v-.016.016Zm-.001-.019v-.014.014Zm0-.018v-.014.014Zm0-.017v-.014.014Zm0-.017v-.013.013Zm0-.016v-.014.014Zm-.001-.019v-.012.012Zm0-.018v-.01.01Zm-.001-.019v-.007.007Zm0-.017v-.008.008Zm-.001-.035Z" clip-rule="evenodd"/><path fill="#F49C3D" fill-rule="evenodd" d="M193.926 74.629a5.454 5.454 0 0 1-5.002-3.282c.112-.052.225-.106.339-.161a5.42 5.42 0 0 0 2.973.884 5.454 5.454 0 0 0 5.216-7.05 5.428 5.428 0 0 1 1.925 3.96.25.25 0 0 1 .001.027v.025a.025.025 0 0 1 .001.009V69.069l.001.005v.082l.001.003v.015a5.46 5.46 0 0 1-4.155 5.299 5.478 5.478 0 0 1-1.3.156Z" clip-rule="evenodd"/><path fill="#F8B255" fill-rule="evenodd" d="M233.248 74.193c1.49 3.895 1.43 6.512-.329 4.846-.758-.72-1.957-1.96-3.638-3.435a5.352 5.352 0 0 0-1.735 3.946 5.373 5.373 0 0 0 10.746 0 5.369 5.369 0 0 0-5.044-5.357Z" clip-rule="evenodd"/><path fill="#B5B87B" fill-rule="evenodd" d="M233.958 76.365h-.001a21.47 21.47 0 0 1 .001 0Z" clip-rule="evenodd"/><path fill="#A9A563" fill-rule="evenodd" d="M233.293 74.197h-.002.002Zm-.014-.001-.009-.001h.009ZM233.263 74.194h-.014.014Z" clip-rule="evenodd"/><path fill="#FCD074" fill-rule="evenodd" d="M234.707 76.752c-.193 0-.443-.123-.749-.387a21.477 21.477 0 0 0-.71-2.172h.016a.04.04 0 0 0 .006.001l.01.001h.012l.002.001c.64.044 1.247.204 1.806.453.227 1.299.1 2.103-.393 2.103Z" clip-rule="evenodd"/><path fill="#3E5C2E" fill-rule="evenodd" d="M232.919 84.922h-.069H232.936h-.017Zm.022 0h.012-.012Zm.02 0h.009-.009Zm.017 0h.01a.09.09 0 0 0-.01 0Zm.019 0h.008-.008Zm.018 0h.007-.007Zm.017 0h.007-.007Zm.018 0 .006-.001h-.006Zm.017-.001h.006a.04.04 0 0 1-.006 0Zm.018 0 .005-.001h-.005Zm.017-.002h.005-.005Zm.017 0h.004-.004Zm.018-.001h.003-.003Zm.017-.001h.003-.003Zm.018 0 .002-.001h-.002Zm.017-.002h.001-.001Zm-5.642-5.378v-.003.003Z" clip-rule="evenodd"/><path fill="#F49C3D" fill-rule="evenodd" d="M232.919 84.923h-.069a5.373 5.373 0 0 1-5.304-5.373v-.015a5.319 5.319 0 0 1 .913-2.963c-.002.061-.01.12-.01.183a5.373 5.373 0 0 0 9.833 2.997 5.37 5.37 0 0 1-5.092 5.164H233.171l-.014.002h-.021a.1.1 0 0 0-.013.001h-.021a.16.16 0 0 1-.012.001h-.034l-.006.001H233.015l-.01.001H232.919Z" clip-rule="evenodd"/><path fill="#D04F29" fill-rule="evenodd" d="M166.421 80.897c-.823.575-2.404 1.141-3.996 1.612a2.558 2.558 0 1 0 3.996-1.612Z" clip-rule="evenodd"/><path fill="#56613B" fill-rule="evenodd" d="m162.425 82.51.031-.01-.031.01Z" clip-rule="evenodd"/><path fill="#C23E22" fill-rule="evenodd" d="M164.938 85.538a2.559 2.559 0 0 1-2.558-2.558c0-.162.016-.318.045-.47l.032-.01a2.558 2.558 0 0 0 4.658-.854c.236.382.377.829.382 1.31v.023a2.559 2.559 0 0 1-2.559 2.559Z" clip-rule="evenodd"/><path fill="#2B5129" fill-rule="evenodd" d="M222.642 54.594c2.058-.661 3.713-1.427 4.864-2.188.575-.38 1.025-.76 1.337-1.132.31-.37.489-.738.491-1.101 0-.212-.066-.418-.195-.597-.194-.27-.515-.481-.962-.646-.447-.164-1.023-.282-1.742-.347l-.015.166.051.159c.003-.001 3.633-1.162 7.283-2.733 1.826-.786 3.656-1.673 5.046-2.574.695-.45 1.281-.904 1.703-1.358.421-.453.688-.91.707-1.38l.001-.065c0-.384-.124-.73-.338-1.025-.377-.518-1.011-.891-1.769-1.178-2.272-.854-5.712-.924-6.886-.925-.256 0-.404.003-.405.003l.004.167.039.162c.001 0 1.593-.383 3.24-.841.824-.23 1.661-.477 2.324-.706.331-.115.618-.225.842-.328.111-.052.207-.101.286-.15a.675.675 0 0 0 .194-.167.707.707 0 0 0 .147-.414.624.624 0 0 0-.152-.397c-.16-.193-.404-.33-.679-.446-.826-.344-1.979-.474-1.986-.476a.167.167 0 0 0-.039.331c.001 0 .163.019.409.06.37.063.926.177 1.377.348a2.1 2.1 0 0 1 .553.29c.133.108.185.203.184.29 0 .056-.02.127-.086.22a.382.382 0 0 1-.099.078c-.232.147-.779.358-1.444.574-1.002.327-2.291.68-3.327.95-.519.136-.975.25-1.301.332l-.521.128a.167.167 0 0 0 .043.329s.144-.004.397-.004c.881 0 3.082.045 5.046.433.982.193 1.905.475 2.566.867.33.196.594.418.773.665.178.248.274.517.275.83l-.002.054c-.01.342-.222.741-.617 1.164-.688.74-1.907 1.535-3.341 2.294-2.153 1.14-4.792 2.212-6.891 2.997-1.05.392-1.964.713-2.617.936-.652.223-1.04.347-1.04.347a.168.168 0 0 0-.116.177c.009.08.072.14.151.148.932.084 1.6.26 2.017.489.209.113.355.238.445.366a.67.67 0 0 1 .133.403c.001.245-.13.55-.413.887-.845 1.015-2.994 2.239-6.047 3.217a.167.167 0 1 0 .102.317ZM157.839 75.237c2.45-1.453 4.398-2.063 5.614-2.06.497-.001.867.101 1.098.267.23.168.343.387.346.703.003.434-.248 1.048-.813 1.772-1.206 1.55-2.349 2.417-3.186 2.897-.419.24-.761.383-.997.466a3.413 3.413 0 0 1-.27.083l-.068.017-.018.004a.167.167 0 0 0 .05.33s.141-.019.385-.046c.733-.081 2.393-.244 3.907-.244.813 0 1.585.048 2.137.175.276.063.495.148.631.242.137.098.182.18.184.285l-.003.047c-.015.129-.145.315-.401.508-.442.341-1.218.7-2.122 1.033-1.357.5-3.007.952-4.316 1.277-.655.163-1.225.294-1.63.385-.406.09-.646.14-.647.14a.166.166 0 0 0-.129.197c.018.09.106.148.196.13.003-.001 2.259-.466 4.55-1.135 1.146-.335 2.3-.721 3.191-1.13.445-.204.825-.414 1.111-.632.282-.22.484-.447.527-.725l.007-.095c.002-.235-.137-.43-.329-.56-.289-.197-.714-.306-1.227-.378a13.11 13.11 0 0 0-1.73-.097c-2.048 0-4.331.29-4.335.291l.022.166.029.164c.032-.004 2.282-.422 4.745-3.59.588-.759.88-1.42.882-1.977a1.148 1.148 0 0 0-.485-.975c-.315-.222-.751-.329-1.292-.33-1.321.003-3.3.639-5.784 2.107a.167.167 0 0 0 .17.288ZM236.71 69.355c.5 1.2.703 2.054.702 2.618 0 .411-.103.657-.253.804-.149.147-.371.219-.668.22-.769.003-1.934-.516-2.882-1.046a20.583 20.583 0 0 1-1.566-.966l-.13-.09a.167.167 0 0 0-.244.213c.816 1.566 1.435 3.065 1.849 4.351.414 1.286.622 2.363.621 3.067.001.31-.042.547-.109.684a.333.333 0 0 1-.104.136.199.199 0 0 1-.123.037c-.138.006-.415-.125-.77-.465-1.096-1.039-3.137-3.196-6.236-5.568a46.546 46.546 0 0 0-12.623-6.885.167.167 0 0 0-.112.314 46.223 46.223 0 0 1 12.532 6.836c3.08 2.358 5.101 4.495 6.21 5.545.384.36.696.55.999.557a.54.54 0 0 0 .318-.1c.137-.1.222-.253.275-.435.053-.183.077-.401.077-.656-.001-.765-.218-1.861-.637-3.168-.421-1.307-1.047-2.822-1.871-4.404l-.149.078-.096.136c.003.001.758.537 1.727 1.075.972.536 2.143 1.082 3.044 1.087.347 0 .669-.086.902-.315.234-.23.354-.579.353-1.042-.001-.64-.22-1.523-.728-2.746a.167.167 0 0 0-.308.128ZM186.654 55.743c3.034-1.619 5.347-2.382 6.66-2.378.442 0 .762.086.957.228.194.143.29.333.294.632.003.463-.276 1.168-.895 2.062-.618.896-1.567 1.985-2.877 3.25a.167.167 0 0 0 .127.287l.265-.014c.169-.006.409-.013.694-.013.754 0 1.823.049 2.684.267.431.107.808.259 1.064.453.257.197.391.416.393.708 0 .21-.075.47-.265.784-.823 1.384-2.702 2.225-4.384 2.696a18.586 18.586 0 0 1-2.892.564c-.164.018-.253.025-.253.025a.167.167 0 0 0-.03.327c.001 0 .064.017.177.05.399.118 1.403.44 2.295.92.446.24.863.52 1.16.825.299.307.472.629.471.962l-.003.085c-.028.38-.378.833-.926 1.266-.816.652-2.033 1.263-3.041 1.704a28.99 28.99 0 0 1-1.807.716.167.167 0 1 0 .108.316c.004-.001 1.44-.496 2.903-1.227.732-.366 1.471-.79 2.045-1.248.571-.46.996-.948 1.05-1.498l.005-.114c-.002-.52-.302-.965-.715-1.338-.624-.562-1.528-.99-2.28-1.286-.753-.295-1.352-.454-1.356-.455l-.043.162.013.165c.007 0 1.495-.117 3.21-.6 1.712-.486 3.663-1.328 4.58-2.845.21-.35.311-.667.311-.956.002-.41-.212-.741-.525-.974-.47-.353-1.166-.54-1.892-.65-.725-.11-1.48-.137-2.057-.137-.58 0-.979.027-.982.027l.011.166.116.12c1.321-1.276 2.284-2.378 2.92-3.3.635-.924.951-1.664.954-2.252.004-.378-.148-.702-.431-.903-.283-.202-.671-.29-1.153-.29-1.429.003-3.754.788-6.816 2.417a.167.167 0 0 0-.069.226c.043.08.144.112.225.068Z" clip-rule="evenodd"/><path fill="#D04F29" fill-rule="evenodd" d="M170.947 55.132a4.758 4.758 0 1 1-9.515 0 4.758 4.758 0 0 1 9.515 0Z" clip-rule="evenodd"/><path fill="#56613B" fill-rule="evenodd" d="M170.947 55.132v-.013.013Zm-9.516 0v-.013.013Z" clip-rule="evenodd"/><path fill="#C23E22" fill-rule="evenodd" d="M166.189 59.89a4.758 4.758 0 0 1-4.758-4.758v-.013c.001-.37.049-.73.13-1.077a4.758 4.758 0 0 0 4.628 3.668 4.757 4.757 0 0 0 4.628-3.668c.081.346.129.706.13 1.077v.013a4.759 4.759 0 0 1-4.758 4.758Z" clip-rule="evenodd"/><path fill="#E76F3B" fill-rule="evenodd" d="M166.189 52.799c-1.204 0-2.18-.438-2.18-.977 0-.54.976-.978 2.18-.978 1.204 0 2.18.438 2.18.978s-.976.977-2.18.977Z" clip-rule="evenodd"/><path fill="#D04F29" fill-rule="evenodd" d="M219.305 47.962a5.186 5.186 0 1 1-10.372 0 5.186 5.186 0 0 1 10.372 0Z" clip-rule="evenodd"/><path fill="#56613B" fill-rule="evenodd" d="M214.118 53.148Zm.25-.006Zm3.384-1.48.006-.006-.006.006Zm.011-.011.019-.019-.019.019Zm.022-.022.016-.016a.266.266 0 0 1-.016.016Zm.033-.033Zm.022-.023h.001-.001Zm1.465-3.612v-.013.014Zm-10.372 0v-.013.013Z" clip-rule="evenodd"/><path fill="#C23E22" fill-rule="evenodd" d="M214.119 53.147a5.186 5.186 0 0 1-5.186-5.186v-.013c.001-.405.053-.797.142-1.175a5.184 5.184 0 0 0 5.044 3.998 5.184 5.184 0 0 0 5.043-3.998c.089.378.141.77.143 1.175v.013a5.169 5.169 0 0 1-1.464 3.611h-.001l-.022.023c.001 0 0 0 0 0l-.017.018-.016.015-.003.004-.019.018a.026.026 0 0 1-.005.005l-.006.006a5.169 5.169 0 0 1-3.383 1.48l-.02.001a5.158 5.158 0 0 1-.23.005Z" clip-rule="evenodd"/><path fill="#E76F3B" fill-rule="evenodd" d="M214.118 45.42c-1.312 0-2.376-.477-2.376-1.066 0-.588 1.064-1.065 2.376-1.065 1.312 0 2.376.477 2.376 1.065 0 .589-1.064 1.066-2.376 1.066Z" clip-rule="evenodd"/><path fill="#D04F29" fill-rule="evenodd" d="M114.589 105.56s2.554 5.803 3.637 5.416c1.083-.387 1.392-5.416 1.392-5.416s5.283.393 5.737-1.003c.453-1.395-4.267-3.593-4.267-3.593s2.399-5.539 1.161-6.003c-1.238-.465-5.029 2.475-5.029 2.475s-1.547-3.48-2.631-3.094c-1.083.387-1.16 6.622-1.16 6.622s-3.327 4.829-2.785 5.912c.541 1.083 3.945-1.316 3.945-1.316Z" clip-rule="evenodd"/><path fill="#948E7E" fill-rule="evenodd" d="M118.431 110.84c.918-.896 1.188-5.28 1.188-5.28s.685.051 1.582.051c.685 0 1.495-.03 2.219-.134-.724.104-1.534.134-2.22.134-.897 0-1.581-.051-1.581-.051s-.27 4.384-1.188 5.28Zm-2.348-2.28c-.81-1.446-1.493-3-1.493-3s-2.266 1.597-3.395 1.597c1.129 0 3.395-1.597 3.395-1.597s.683 1.554 1.493 3Zm-5.441-1.688-.001-.002.001.002Zm-.001-.003-.001-.002.001.002Zm-.002-.004-.001-.001.001.001Zm-.002-.004v-.001.001Zm12.788-1.385.005-.001-.005.001Zm1.944-1.27v-.001.001Zm-.001-.004v-.001.001Zm0-.003c-.072-.325-.344-.674-.72-1.019h.001c.375.345.647.694.719 1.019Z" clip-rule="evenodd"/><path fill="#56613B" fill-rule="evenodd" d="M123.394 102.239s-.001 0 0 0Z" clip-rule="evenodd"/><path fill="#3A4B28" fill-rule="evenodd" d="M124.649 103.18h-.001a9.424 9.424 0 0 0-1.254-.941s-.001 0 0 0c.455.293.9.615 1.255.941Z" clip-rule="evenodd"/><path fill="#C23E22" fill-rule="evenodd" d="M118.116 110.995c-.528-.001-1.329-1.177-2.033-2.436-.81-1.445-1.494-2.999-1.494-2.999s-2.265 1.597-3.394 1.597a.86.86 0 0 1-.263-.038.475.475 0 0 1-.288-.244l-.002-.003-.001-.002-.001-.001-.001-.002v-.002l-.001-.001-.001-.003-.001-.001c-.069-.153-.064-.378-.008-.649 1.619-.508 4.457-4.143 4.457-4.143s1.861 2.604 3.109 2.604a.787.787 0 0 0 .269-.045c1.228-.45-.479-4.182-.479-4.182.001 0 .836.763 2.604.763.271 0 .564-.018.878-.059.261.131.636.325 1.051.561l.004.002c.28.159.578.337.873.527.455.293.9.615 1.254.941.376.345.648.694.719 1.019v.002l.001.001v.004a.672.672 0 0 1-.013.351c-.165.508-.969.779-1.925.918l-.006.001-.004.001c-.724.104-1.534.134-2.22.134-.897 0-1.582-.051-1.582-.051s-.269 4.384-1.187 5.28a.573.573 0 0 1-.205.136.339.339 0 0 1-.11.019Z" clip-rule="evenodd"/><path fill="#FEFEFE" fill-rule="evenodd" d="M273.95 99.086a1.046 1.046 0 1 1-2.091-.001 1.046 1.046 0 0 1 2.091 0ZM105.8 110.978a2.858 2.858 0 1 1-5.715 0 2.858 2.858 0 0 1 5.715 0ZM126.033 69.825a2.276 2.276 0 1 1-4.553 0 2.276 2.276 0 0 1 4.553 0Z" clip-rule="evenodd"/><path fill="#A04E24" fill-rule="evenodd" d="M160.252 140.199a2.276 2.276 0 1 1-4.552 0 2.276 2.276 0 0 1 4.552 0Z" clip-rule="evenodd"/><path fill="#FEFEFE" fill-rule="evenodd" d="M273.245 144.183a1.385 1.385 0 1 1-2.77-.001 1.385 1.385 0 0 1 2.77.001ZM254.778 114.831a2.985 2.985 0 1 1-5.97 0 2.985 2.985 0 0 1 5.97 0ZM148.389 45.42a1.001 1.001 0 1 1-2.002 0 1.001 1.001 0 0 1 2.002 0ZM219.227 66.621a2.26 2.26 0 1 1-4.52 0 2.26 2.26 0 0 1 4.52 0ZM93.796 140.009a1.162 1.162 0 1 1-2.324 0 1.162 1.162 0 0 1 2.324 0ZM98.11 69.655v3.263a.222.222 0 1 0 .444 0v-3.263a.222.222 0 1 0-.445 0ZM98.11 75.468v3.264a.223.223 0 0 0 .444 0v-3.264a.222.222 0 1 0-.445 0ZM93.794 74.415h3.263a.222.222 0 1 0 0-.444h-3.263a.222.222 0 1 0 0 .444ZM99.607 74.415h3.264a.222.222 0 1 0 0-.444h-3.264a.222.222 0 0 0 0 .444ZM259.544 124.953v3.264a.222.222 0 0 0 .445 0v-3.264a.223.223 0 0 0-.445 0ZM259.544 130.766v3.264a.222.222 0 0 0 .445 0v-3.264a.223.223 0 0 0-.445 0ZM255.227 129.714h3.264a.221.221 0 1 0 0-.444h-3.264a.222.222 0 0 0 0 .444ZM261.041 129.714h3.263a.222.222 0 1 0 0-.444h-3.263a.222.222 0 1 0 0 .444ZM275.646 73.822v2.003a.223.223 0 0 0 .445 0v-2.003a.222.222 0 1 0-.445 0ZM275.646 78.375v2.003a.223.223 0 0 0 .445 0v-2.003a.222.222 0 1 0-.445 0ZM272.591 77.322h2.002a.223.223 0 1 0 0-.445h-2.002a.223.223 0 1 0 0 .445ZM277.142 77.322h2.003a.223.223 0 1 0 0-.445h-2.003a.223.223 0 0 0 0 .445ZM181.963 44.684v2.003a.222.222 0 1 0 .444 0l.001-2.003a.223.223 0 0 0-.445 0ZM181.963 49.236v2.003a.222.222 0 1 0 .444 0l.001-2.002a.223.223 0 0 0-.445 0ZM178.908 48.184h2.002a.222.222 0 1 0 0-.445h-2.002a.222.222 0 0 0 0 .445ZM183.461 48.184h2.003a.223.223 0 0 0 0-.445h-2.003a.223.223 0 1 0 0 .445ZM104.047 127.912v2.003a.221.221 0 1 0 .444 0v-2.003a.221.221 0 1 0-.444 0ZM104.047 132.465v2.003a.222.222 0 0 0 .444 0v-2.003a.222.222 0 1 0-.444 0ZM100.991 131.412h2.003a.222.222 0 0 0 0-.445h-2.003a.222.222 0 0 0 0 .445ZM105.544 131.412h2.002a.222.222 0 1 0 0-.445h-2.002a.222.222 0 1 0 0 .445Z" clip-rule="evenodd"/><path fill="#A1C6BF" d="M131.23 172.876c0 2.952 1.464 5.597 4.039 6.888 2.424 1.216 5.651 1.216 8.08-.001 2.395-1.199 4.032-3.938 4.032-6.89 0-4.516-3.555-8.206-8.075-8.205-4.542.001-8.076 3.664-8.076 8.208Zm8.227-6.08c-.812 2.801-3.234 6.904-5.001 8.916h4.189l.009 1.22c-.009.691-.55 1.409-1.338 1.399a3.836 3.836 0 0 1-3.287-1.952c-.603-1.04-1.04-1.86-1.04-3.503 0-3.589 2.846-6.565 6.465-6.565 3.579-.001 6.465 3.06 6.465 6.562 0 1.644-.756 3.064-1.005 3.475-.883 1.454-2.23 1.968-3.272 1.982-.717.009-1.38-.527-1.38-1.403v-1.216h4.253c-1.831-2.012-4.253-6.115-5.058-8.915Z"/><path fill="#FEFEFE" fill-rule="evenodd" d="M287.996 193.434c12.79.024 24.403-15.535 11.159-18.037-13.243-2.503-18.697 18.023-11.159 18.037ZM316.725 192.675c.023-4.856-10.05-2.366-10.229 1-.179 3.367 10.206 3.667 10.229-1Z" clip-rule="evenodd"/><path fill="#A1C6BF" d="M203.876 172.876c0 2.952 1.463 5.596 4.039 6.888 2.423 1.216 5.65 1.216 8.079-.001 2.396-1.199 4.033-3.938 4.033-6.89 0-4.516-3.556-8.206-8.075-8.205-4.543.001-8.076 3.664-8.076 8.208Zm8.226-6.08c-.812 2.8-3.234 6.904-5 8.916h4.188l.009 1.219c-.009.691-.549 1.409-1.337 1.4a3.836 3.836 0 0 1-3.288-1.953c-.602-1.039-1.04-1.859-1.04-3.503 0-3.589 2.846-6.564 6.465-6.565 3.58 0 6.465 3.061 6.465 6.563 0 1.644-.755 3.063-1.004 3.475-.884 1.454-2.231 1.968-3.272 1.982-.718.008-1.381-.528-1.381-1.403v-1.216h4.253c-1.831-2.012-4.253-6.115-5.058-8.915Z"/><path fill="#FEFEFE" fill-rule="evenodd" d="M174.688 105.677a.595.595 0 1 1-1.189.001.595.595 0 0 1 1.189-.001ZM168.996 133.078a.595.595 0 1 1-1.19 0 .595.595 0 0 1 1.19 0ZM187.992 115.597a.595.595 0 1 1-1.19 0 .595.595 0 0 1 1.19 0Z" clip-rule="evenodd"/><path fill="#E63535" fill-rule="evenodd" d="M171.606 117.533c-5.182-.018-11.368 8.906-11.158 15.334 5.65 3.543 17.772 3.411 23.202 0-.209-6.428-6.863-15.316-12.044-15.334Z" clip-rule="evenodd"/><path fill="#293843" fill-rule="evenodd" d="M160.568 130.883c6.117 3.143 16.703 3.131 22.847.053a22.795 22.795 0 0 0-.504-1.852c-5.455 3.122-16.534 3.121-21.927-.119-.185.711-.309 1.29-.416 1.918Z" clip-rule="evenodd"/><path fill="#FDD173" fill-rule="evenodd" d="M164.299 130.412h-.001a.168.168 0 0 0-.069.098l-.381 1.511a.16.16 0 0 0 .014.119v.001c.019.034.051.06.091.07l2.262.571c.039.01.08.002.113-.018l.001-.001a.163.163 0 0 0 .068-.098l.382-1.511a.172.172 0 0 0-.014-.119l-.001-.001a.152.152 0 0 0-.09-.07l-2.262-.571a.144.144 0 0 0-.113.019Zm2.606-.364c.276.07.496.254.629.493l.001.002c.133.24.179.535.105.828l-.382 1.511a1.133 1.133 0 0 1-.485.68l-.002.001a1 1 0 0 1-.788.135l-2.262-.571a1.005 1.005 0 0 1-.629-.492l-.001-.003a1.134 1.134 0 0 1-.104-.828l.381-1.511c.074-.294.255-.532.485-.68l.002-.001a1 1 0 0 1 .788-.135l2.262.571Z" clip-rule="evenodd"/><path fill="#363637" fill-rule="evenodd" d="M155.682 117.079c-.527-.475-1.27-.519-1.446.194-.222.903.144 2.041.468 2.991.488 1.433 1.137 2.864 1.867 4.223l-.004.035c.083 1.048 2.491 6.347 3.647 4.538.685-1.073.236-2.349-.304-3.672-.715-1.75-1.336-3.63-2.238-5.301-.535-.995-1.161-2.262-1.99-3.008ZM187.82 118.373c-.59-1.552-2.342-.571-3.143.201-1.738 1.675-2.541 4.856-3.11 7.09-.626 2.464-1.71 4.832-2.287 7.309-.149.017-.288.106-.328.278-.298 1.302-1.497 4.3.045 5.312 1.12.734 2.29-.567 2.965-1.329 3.133-3.539 4.852-8.312 5.552-12.919.275-1.803.994-4.132.306-5.942Z" clip-rule="evenodd"/><path fill="#0F539D" fill-rule="evenodd" d="M189.242 99.54c.273-.009.551-.021.829-.03-.278.009-.554.021-.827.03h-.002Zm.835-.031.053-.002-.053.002Z" clip-rule="evenodd"/><path fill="#FEFEFE" fill-rule="evenodd" d="M193.042 100.485c.251 2.728 4.141 1.038 3.004-.582 1.217-.38 2.151-2.978-.483-2.698.987-1.502-1.843-2.978-2.328-.498-1.157-1.806-3.022.279-1.8 1.532-1.221.975-.578 4.077 1.607 2.246Z" clip-rule="evenodd"/><path fill="#E3F1FC" fill-rule="evenodd" d="M177.701 102.036c7.404 3.819 14.355 16.572 7.172 13.77 1.822 6.672-3.477 6.903-13.23-1.905-7.404-3.819-18.311-3.835-9.021-9.808-4.625-2.765 7.675-5.875 15.079-2.057Z" clip-rule="evenodd"/><path fill="#F5C8B3" fill-rule="evenodd" d="M178.474 100.727c-5.284-2.575-12.021-.214-14.328 4.515-2.308 4.729.105 10.649 5.389 13.224 5.284 2.575 11.437.829 13.745-3.9 2.307-4.729.478-11.264-4.806-13.839Z" clip-rule="evenodd"/><path fill="#FEFEFE" fill-rule="evenodd" d="M171.109 110.794c-6.694-7.577-12.241-1.977-7.49-.402-9.338 2.561-8.99 9.252-.036 7.87-4.607 4.58 2.673 7.782 5.172 3.061 1.565 5.401 9.553 7.655 7.774.743 3.2 4.111 7.963 1.246 3.62-3.884 6.268 1.59-2.304-8.359-9.04-7.388Z" clip-rule="evenodd"/><path fill="#F08689" fill-rule="evenodd" d="M173.767 105.64a2.901 2.901 0 0 0-2.659 5.155 2.9 2.9 0 0 0 2.659-5.155Z" clip-rule="evenodd"/><path fill="#FEFEFE" fill-rule="evenodd" d="M171.992 101.401c1.512.104 2.696.77 2.647 1.486-.05.716-1.314-.102-2.826-.207-1.511-.105-2.698.544-2.648-.173.049-.716 1.315-1.211 2.827-1.106ZM180.055 105.87c-.91-1.211-2.114-1.843-2.688-1.411-.573.432.801 1.046 1.712 2.257.912 1.211 1.014 2.559 1.587 2.128.574-.432.3-1.763-.611-2.974Z" clip-rule="evenodd"/><path fill="#F7C1B8" fill-rule="evenodd" d="M172.27 105.947a.787.787 0 1 0-.722 1.399.787.787 0 0 0 .722-1.399Z" clip-rule="evenodd"/><path fill="#E63535" fill-rule="evenodd" d="M170.615 98.22c2.765-4.17 13.868-7.892 23.042-.45.535.434.756 1.075-.315.996-7.1-.519-1.089 7.756-8.148 13.332-1.498-9.383-9.901-13.362-14.579-13.879Z" clip-rule="evenodd"/><path fill="#E3F1FC" fill-rule="evenodd" d="M172.242 118.634c.931 6.051 5.268 4.274 3.911-.505.499 3.31-2.86 3.996-3.911.505ZM168.076 115.12c-5.287 1.84-6.133-2.767-1.53-3.634-3.09 1.131-1.862 4.362 1.53 3.634Z" clip-rule="evenodd"/><path fill="#E3F1FC" fill-rule="evenodd" d="M168.094 117.757c-4.264 3.343-6.684-.719-2.648-2.922-2.465 2.13-.244 4.758 2.648 2.922ZM173.813 116.152c-1.144 5.693-5.387 3.701-3.875-.731-.487 3.224 2.814 4.16 3.875.731ZM183.482 106.414c-.625 2.308-.353 5.396 1.078 6.06 1.431.665 1.214-3.776-1.078-6.06Z" clip-rule="evenodd"/><path fill="#F5C8B3" fill-rule="evenodd" d="M185.797 111.997c-.638-.631-1.898-.392-2.814.534-.917.926-1.143 2.188-.505 2.82.638.631 1.898.393 2.815-.533.916-.926 1.142-2.189.504-2.821Z" clip-rule="evenodd"/><path fill="#E3F1FC" fill-rule="evenodd" d="M171.005 100.201c-2.522.818-4.919 2.45-5.659 3.213-1.393-.741 2.455-3.666 5.659-3.213Z" clip-rule="evenodd"/><path fill="#FEFEFE" fill-rule="evenodd" d="M169.206 97.903c.38-1.825 2.826-1.246 3.846.775.417-3.28 9.272.335 8.533 3.374 3.018-.008 5.751 2.526 3.819 3.369 3.126 1.69 3.638 4.568 2.391 5.358-1.71 1.084-4.576.346-4.291-3.546-1.242 1.914-3.986-1.785-3.433-3.37-.882.609-7.177-1.23-7.979-4.066-1.507 1.696-5.848 1.762-4.576.545-3.288.996-3.086-.117-2.83-1.312.218-1.023 1.671-2.005 4.52-1.127Z" clip-rule="evenodd"/><path fill="#F08689" fill-rule="evenodd" d="M170.673 110.966c-.327-.34-.9-.178-1.278.361-.378.54-.419 1.253-.091 1.594.328.34.9.179 1.279-.361.378-.54.419-1.253.09-1.594Z" clip-rule="evenodd"/><path fill="#293843" fill-rule="evenodd" d="M176.837 108.064a.182.182 0 0 0 .223.131.183.183 0 0 0 .132-.224c-.078-.3-.338-.574-.668-.752-.312-.168-.693-.254-1.044-.192a.183.183 0 0 0 .063.361c.265-.047.56.022.806.155.246.132.436.323.488.521ZM170.061 104.115a.184.184 0 1 0 .089.356c.223-.055.474-.007.706.117.238.128.451.337.59.601a.183.183 0 0 0 .325-.172 1.83 1.83 0 0 0-.741-.753c-.309-.167-.654-.227-.969-.149Z" clip-rule="evenodd"/><path fill="#AD2C2D" fill-rule="evenodd" d="M169.102 122.797c-2.464.293-4.419.822-6.989-.364-.973.576-1.626 1.423-1.806 2.597 2.902 1.376 6.326 2.244 8.859 1.884 3.38-.481 3.438-4.534-.064-4.117Z" clip-rule="evenodd"/><path fill="#293843" fill-rule="evenodd" d="M162.216 121.298c-.914-1.711-2.601-2.093-2.247-.711-1.421-.865-2.953.025-2.862 1.428.081 1.227 1.336 2.333 3.224 2.613 1.458.215 3.252-.769 1.885-3.33Z" clip-rule="evenodd"/><path fill="#FEFEFE" fill-rule="evenodd" d="M162.758 123.46c.649.381.061 1.073-.864 1.044-.245 2.177-2.598 1.157-1.588.526-1.258.171-1.368-.973-.109-1.392-.655-.31.141-1.237 1.236-1.235.158-1.17 1.651-1.579 1.504-.252.576-.436 1.362 1.128-.179 1.309Z" clip-rule="evenodd"/><path fill="#363637" fill-rule="evenodd" stroke="#363637" stroke-miterlimit="22.926" stroke-width=".637" d="M156.294 123.284c-.16-.078-.299.078-.721.486-.421.409-1.125 1.07-1.496 1.445-.371.376-.41.466-.517.73a64.14 64.14 0 0 0-.458 1.153c-.172.451-.34.913-.424 1.145-.084.233-.085.235-.045.196.039-.039.118-.119.658-.643.539-.524 1.539-1.491 2.175-2.171.635-.681.906-1.074 1.07-1.3.164-.225.221-.283.16-.467-.062-.185-.242-.496-.402-.574Z" clip-rule="evenodd"/><path fill="#D04F29" fill-rule="evenodd" stroke="#D04F29" stroke-miterlimit="22.926" stroke-width=".637" d="M158.975 133.256c.086-.369.685-.369 5.255-.369h17.45c4.336 0 4.468 0 4.508.148.041.148-.008.443-.553 1.181s-1.586 1.918-2.267 2.931c-.68 1.012-1 1.857-1.664 2.291-.664.435-1.672.459-2.652.107-.979-.353-1.93-1.082-2.726-1.64-.795-.557-1.434-.943-2.549-1.07-1.115-.127-2.706.004-5.124-.241-2.419-.246-5.665-.87-7.501-1.55-1.837-.681-2.263-1.419-2.177-1.788Z" clip-rule="evenodd"/><path fill="#FEFEFE" fill-rule="evenodd" d="M155.592 275.323H-16.929c.914-3.984 2.944-58.079 5.853-60.952a21.518 21.518 0 0 1 10.57-5.721c14.077-3.184 31.646 4.141 31.646 4.141 19.505-10.637 40.02 2.623 40.02 2.623s-3.772-11.578 12.83-8.575c16.603 3.004 30.575 11.757 30.575 11.757s-2.342-5.703 12.959-5.836c5.034-.043 29.932 1.961 29.932 6.586 8.249-1.592 35.254-6.796 49.687-9.472 17.172-3.184 20.602 8.356 20.602 8.356s17.186-5.571 33.477-5.439c16.293.132 13.799 5.836 13.799 5.836s14.878-8.753 32.555-11.757c17.678-3.004 13.663 8.575 13.663 8.575s21.738-10.458 36.757-11.897c15.504-1.486 24.562 1.949 39.551 5.133 14.99 3.182 17.487 66.673 17.487 66.673H155.592v-.031ZM-65.148 224.9h4.458v-.172c-2.795.11-4.458.172-4.458.172Z" clip-rule="evenodd"/></g><defs><clipPath id="a"><path fill="#fff" d="M0 0h375v250H0z"/></clipPath></defs></svg>