<svg width="1920" height="702" viewBox="0 0 1920 702" fill="none" xmlns="http://www.w3.org/2000/svg">
<ellipse rx="521.09" ry="182.608" transform="matrix(-1 0 0 1 1764.38 450.825)" fill="#E7FCF9"/>
<ellipse rx="476" ry="222.5" transform="matrix(-1 0 0 1 2181 586.499)" fill="white"/>
<ellipse rx="321.5" ry="163.216" transform="matrix(-1 0 0 1 363.5 709.215)" fill="white"/>
<ellipse rx="573.198" ry="222.5" transform="matrix(-1 0 0 1 1421.2 586.499)" fill="url(#paint0_linear_1322_12964)"/>
<ellipse rx="316.278" ry="163.216" transform="matrix(-1 0 0 1 102.277 709.215)" fill="url(#paint1_linear_1322_12964)"/>
<ellipse rx="295.653" ry="163.216" transform="matrix(-1 0 0 1 748.653 705.215)" fill="white"/>
<path fill-rule="evenodd" clip-rule="evenodd" d="M1635.43 241.837C1637.27 239.187 1644.94 229.234 1644.94 216.886C1650.13 217.433 1661.48 244.105 1658.41 245.708C1656.01 246.963 1652.82 242.377 1652.82 242.377C1652.82 245.708 1666.16 261.753 1664.88 265.528C1663.6 269.304 1659.66 267.226 1656.74 266.033C1665.3 274.441 1674.5 288.598 1672.57 290.998C1670.64 293.397 1666.31 288.969 1666.31 288.969C1666.31 288.969 1670.53 293.731 1668.76 294.756C1667.55 295.459 1664.88 293.384 1664.88 293.384C1664.88 293.384 1673.35 304.161 1672.57 306.703C1672.19 307.951 1669.38 306.703 1669.38 306.703C1669.38 306.703 1680.76 318.243 1680.76 321.781C1680.76 325.319 1674.64 320.839 1674.64 320.839C1675.21 321.891 1678.57 326.632 1676.95 326.632C1674.19 326.743 1665.64 321.781 1665.64 321.781C1665.64 321.781 1673.64 331.396 1661.88 331.396C1661.18 331.396 1655.46 330.669 1651.69 328.311C1651.98 329.488 1652.12 332.409 1650.9 332.409C1649.69 332.409 1648.63 331.748 1647.68 330.144C1647.68 330.638 1647.37 333.113 1645.35 333.822C1641.18 335.28 1637.15 326.252 1637.15 326.252C1637.15 326.252 1637.09 331.011 1634.81 331.011C1632.53 331.011 1632.92 326.252 1632.92 326.252C1616.59 337.306 1617.88 326.991 1621.37 317.336C1619.86 318.493 1612.03 325.692 1610.92 322.643C1610.44 321.341 1611.59 319.617 1613.17 317.113C1611.79 318.438 1604.22 324.688 1601.28 321.781C1600.33 320.832 1613.66 308.663 1613.66 307.671C1610.92 309.873 1600.21 310.863 1610.92 303.527C1615.44 300.429 1619.41 297.298 1621.37 288.969C1621.37 288.969 1619.59 291.153 1618.23 289.537C1617.53 287.164 1625.3 277.133 1630.81 267.226C1629.41 268.743 1627.18 270.932 1625.3 269.722C1623.41 268.513 1627.74 263.208 1627.74 263.208C1627.74 263.208 1624.07 266.298 1623.14 264.692C1620.82 260.657 1638.13 251.574 1638.13 245.708C1637.56 246.608 1634.91 248.469 1633.86 246.608C1632.96 245.004 1634.54 243.122 1635.43 241.837Z" fill="#3F693E"/>
<path fill-rule="evenodd" clip-rule="evenodd" d="M1644.94 234.673C1645.76 231.312 1646.66 223.591 1644.94 216.886C1650.13 217.433 1661.48 244.105 1658.41 245.708C1656.01 246.963 1652.82 242.377 1652.82 242.377C1652.82 245.708 1666.16 261.753 1664.88 265.528C1663.6 269.304 1659.66 267.226 1656.74 266.033C1665.3 274.441 1674.5 288.598 1672.57 290.998C1670.64 293.397 1666.32 288.969 1666.32 288.969C1666.32 288.969 1670.53 293.731 1668.76 294.756C1667.55 295.459 1664.88 293.384 1664.88 293.384C1664.88 293.384 1673.35 304.161 1672.57 306.703C1672.19 307.951 1669.38 306.703 1669.38 306.703C1669.38 306.703 1680.76 318.243 1680.76 321.781C1680.76 325.319 1674.64 320.839 1674.64 320.839C1675.22 321.891 1678.57 326.632 1676.95 326.632C1674.19 326.743 1665.64 321.781 1665.64 321.781C1665.64 321.781 1673.64 331.396 1661.88 331.396C1661.18 331.396 1655.46 330.669 1651.69 328.311C1651.98 329.488 1652.12 332.409 1650.9 332.409C1649.69 332.409 1648.63 331.748 1647.68 330.144C1647.68 330.638 1647.37 333.113 1645.35 333.822C1641.18 335.28 1639.73 321.874 1639.73 321.874C1626.63 326.632 1630.61 320.555 1632.35 316.494C1632.35 316.494 1629.29 318.963 1628.18 315.913C1627.7 314.612 1630.77 311.203 1632.35 308.699C1630.97 310.025 1623.1 315.12 1620.17 312.213C1619.21 311.264 1630.91 301.781 1630.91 300.79C1628.18 302.992 1616.8 303.339 1627.51 296.004C1629.87 294.383 1631.53 292.503 1631.53 290.579C1626.92 291.607 1631.53 284.853 1631.53 284.33C1631.53 284.33 1630.2 285.945 1628.85 284.33C1627.21 281.409 1633.1 272.671 1636.1 265.276C1636.1 265.276 1639.39 270.815 1642.22 269.587C1645.05 268.359 1643.57 262.619 1643.57 261.832C1643.85 262.233 1644.38 264.66 1646.17 264.192C1648.27 263.645 1646.43 254.43 1645.75 253.495C1645.54 259.72 1644.2 261.834 1641.95 256.208C1643.11 263.026 1642.05 263.116 1641.32 263.833C1640.35 264.432 1638.43 262.779 1638.22 260.626C1635.92 252.27 1644.94 243.394 1644.94 243.394C1644.03 244.378 1641.95 245.254 1640.9 243.394C1640 241.789 1644.12 238.034 1644.94 234.673Z" fill="#5C885C"/>
<path d="M1636.12 290.295C1633.8 289.231 1635.13 284.845 1635.46 280.924C1635.68 282.854 1636.47 286.729 1637.87 286.784C1639.53 286.849 1640.88 284.457 1641.03 284.075C1641.03 284.06 1641.04 284.045 1641.04 284.03C1641.04 284.037 1641.04 284.053 1641.03 284.075C1640.3 286.701 1641.74 291.398 1643.11 291.398C1644.21 291.398 1644.9 288.644 1645.11 287.266C1645.86 288.85 1647.76 291.894 1649.28 291.398C1650.1 291.132 1650.22 289.805 1650.06 288.319C1649.85 286.996 1649.55 285.677 1649.28 284.691C1649.58 285.632 1649.93 287.035 1650.06 288.319C1650.49 290.958 1650.56 293.613 1649.28 293.684C1647.37 293.791 1646.27 291.779 1645.96 290.76C1645.69 291.934 1644.58 294.309 1642.24 294.415C1639.9 294.522 1639.58 290.605 1639.71 288.633C1639.29 289.542 1637.98 291.146 1636.12 290.295Z" fill="#3F693E"/>
<path d="M1657.34 314.976C1655.42 314.35 1654.87 309.747 1654.84 307.523C1654.84 307.523 1656.5 311.643 1658.43 311.901C1660.01 312.111 1660.57 308.357 1660.57 308.357C1660.57 308.357 1662.63 316.2 1665.26 314.454C1666.38 313.711 1665.78 310.077 1665.78 310.077C1665.78 310.077 1669.23 313.992 1671.09 313.168C1672.94 312.354 1669.55 306.835 1669.55 306.835C1670.88 308.219 1674.76 311.473 1673.97 313.308C1672.98 315.601 1667.5 312.682 1667.5 313.308C1667.5 313.933 1667.92 318.363 1665.26 318.988C1663.13 319.489 1660.9 314.941 1660.57 312.891C1660.33 314.194 1659.26 315.601 1657.34 314.976Z" fill="#3F693E"/>
<path fill-rule="evenodd" clip-rule="evenodd" d="M1669.08 306.628C1670.59 309.081 1671.34 310.97 1671.39 312.06C1671.4 312.427 1671.34 312.696 1671.23 312.864C1671.11 313.03 1670.95 313.118 1670.69 313.132C1670.3 313.153 1669.68 312.949 1668.88 312.471C1668.09 311.994 1667.12 311.25 1665.98 310.213C1665.93 310.173 1665.87 310.164 1665.81 310.19C1665.76 310.216 1665.73 310.272 1665.73 310.33C1665.74 310.33 1665.74 310.409 1665.76 310.549C1665.77 310.689 1665.78 310.888 1665.79 311.125C1665.82 311.751 1665.82 312.639 1665.67 313.363C1665.59 313.724 1665.48 314.044 1665.32 314.264C1665.16 314.485 1664.98 314.604 1664.72 314.618C1664.54 314.626 1664.32 314.574 1664.04 314.43C1662.82 313.801 1662.02 312.275 1661.55 310.898C1661.32 310.21 1661.16 309.562 1661.06 309.087C1661.01 308.849 1660.98 308.655 1660.96 308.52C1660.93 308.385 1660.92 308.312 1660.92 308.312C1660.92 308.244 1660.86 308.193 1660.79 308.191C1660.72 308.188 1660.66 308.234 1660.64 308.3C1660.64 308.3 1660.63 308.353 1660.6 308.449C1660.52 308.784 1660.28 309.63 1659.9 310.389C1659.71 310.769 1659.49 311.126 1659.24 311.385C1658.98 311.645 1658.71 311.801 1658.43 311.814L1658.35 311.815C1658.03 311.807 1657.62 311.534 1657.23 311.097C1656.64 310.445 1656.06 309.46 1655.65 308.641C1655.44 308.231 1655.26 307.863 1655.14 307.597C1655.03 307.331 1654.96 307.17 1654.96 307.169C1654.93 307.098 1654.85 307.064 1654.77 307.092C1654.7 307.12 1654.66 307.201 1654.69 307.272C1654.69 307.275 1655.17 308.447 1655.86 309.632C1656.2 310.225 1656.6 310.822 1657.01 311.28C1657.43 311.736 1657.87 312.069 1658.34 312.092L1658.44 312.091C1658.89 312.069 1659.26 311.802 1659.56 311.444C1660.02 310.905 1660.36 310.137 1660.58 309.501C1660.81 308.865 1660.92 308.361 1660.92 308.358L1660.78 308.329L1660.64 308.347C1660.64 308.352 1660.8 309.582 1661.28 310.986C1661.76 312.388 1662.56 313.973 1663.9 314.674C1664.21 314.834 1664.49 314.906 1664.74 314.895C1665.09 314.88 1665.37 314.689 1665.56 314.42C1665.84 314.016 1665.98 313.431 1666.04 312.824C1666.11 312.218 1666.1 311.59 1666.08 311.111C1666.06 310.63 1666.02 310.3 1666.02 310.298L1665.88 310.313L1665.78 310.415C1666.93 311.46 1667.91 312.215 1668.73 312.706C1669.55 313.197 1670.2 313.43 1670.71 313.409C1671.03 313.397 1671.3 313.258 1671.47 313.015C1671.63 312.772 1671.69 312.447 1671.67 312.047C1671.62 310.861 1670.85 308.962 1669.33 306.486C1669.29 306.42 1669.2 306.399 1669.13 306.438C1669.07 306.477 1669.04 306.562 1669.08 306.628V306.628Z" fill="#2B5129"/>
<path d="M1638.31 261.101C1638.65 262.124 1639.83 264.116 1640.98 263.965C1643.74 263.602 1642.02 258.509 1642.01 256.057C1642.31 257.263 1643.1 259.474 1644.19 259.445C1645.51 259.409 1645.66 255.442 1645.7 253.481" stroke="#2B5129"/>
<path fill-rule="evenodd" clip-rule="evenodd" d="M1649.37 284.546C1650.15 287.317 1650.35 289.338 1650.1 290.4C1650.02 290.757 1649.89 290.999 1649.73 291.13C1649.57 291.258 1649.4 291.299 1649.14 291.243C1648.76 291.155 1648.22 290.791 1647.58 290.115C1646.95 289.44 1646.21 288.458 1645.4 287.15C1645.37 287.1 1645.31 287.074 1645.25 287.084C1645.19 287.094 1645.15 287.14 1645.14 287.197C1645.14 287.198 1645.12 287.276 1645.1 287.414C1645.07 287.552 1645.03 287.748 1644.98 287.978C1644.84 288.589 1644.59 289.443 1644.25 290.098C1644.08 290.425 1643.88 290.701 1643.67 290.869C1643.45 291.038 1643.24 291.104 1643 291.048C1642.82 291.007 1642.62 290.896 1642.39 290.681C1641.38 289.743 1641.03 288.059 1640.96 286.605C1640.92 285.88 1640.94 285.213 1640.98 284.729C1640.99 284.487 1641.01 284.291 1641.03 284.155C1641.05 284.019 1641.06 283.946 1641.06 283.946C1641.07 283.879 1641.03 283.814 1640.96 283.793C1640.89 283.771 1640.82 283.798 1640.79 283.858C1640.79 283.858 1640.76 283.906 1640.71 283.991C1640.54 284.291 1640.08 285.039 1639.51 285.667C1639.22 285.981 1638.91 286.263 1638.6 286.444C1638.28 286.626 1637.98 286.702 1637.7 286.637L1637.63 286.617C1637.32 286.521 1637 286.148 1636.74 285.621C1636.35 284.832 1636.07 283.728 1635.89 282.826C1635.8 282.375 1635.73 281.974 1635.69 281.686C1635.65 281.398 1635.63 281.224 1635.63 281.224C1635.62 281.147 1635.55 281.091 1635.47 281.098C1635.39 281.106 1635.33 281.173 1635.34 281.25C1635.34 281.253 1635.49 282.512 1635.82 283.838C1635.99 284.502 1636.21 285.183 1636.48 285.738C1636.76 286.29 1637.09 286.729 1637.54 286.88L1637.64 286.907C1638.07 287.007 1638.5 286.851 1638.89 286.59C1639.48 286.196 1640.01 285.548 1640.4 284.998C1640.79 284.447 1641.04 283.993 1641.04 283.99L1640.91 283.924L1640.77 283.902C1640.77 283.907 1640.59 285.134 1640.67 286.616C1640.75 288.097 1641.09 289.84 1642.19 290.879C1642.45 291.117 1642.69 291.261 1642.93 291.318C1643.28 291.4 1643.6 291.292 1643.85 291.084C1644.24 290.773 1644.52 290.246 1644.75 289.681C1644.98 289.116 1645.15 288.51 1645.26 288.044C1645.37 287.574 1645.42 287.246 1645.42 287.244L1645.28 287.22L1645.16 287.291C1645.98 288.61 1646.72 289.604 1647.37 290.299C1648.03 290.994 1648.59 291.395 1649.08 291.513C1649.4 291.59 1649.7 291.531 1649.92 291.34C1650.14 291.152 1650.29 290.855 1650.38 290.465C1650.65 289.308 1650.43 287.273 1649.64 284.477C1649.62 284.403 1649.54 284.358 1649.47 284.377C1649.39 284.396 1649.34 284.472 1649.37 284.546V284.546Z" fill="#2B5129"/>
<path fill-rule="evenodd" clip-rule="evenodd" d="M1796.41 123.517C1805.5 110.412 1843.45 61.1874 1843.45 0.114258C1869.12 2.82218 1925.23 134.733 1910.05 142.66C1898.17 148.866 1882.42 126.187 1882.42 126.187C1882.42 142.66 1948.4 222.014 1942.07 240.686C1935.74 259.357 1916.23 249.084 1901.81 243.182C1944.14 284.766 1989.64 354.782 1980.1 366.65C1970.56 378.519 1949.15 356.618 1949.15 356.618C1949.15 356.618 1969.98 380.17 1961.25 385.239C1955.26 388.716 1942.07 378.452 1942.07 378.452C1942.07 378.452 1983.97 431.754 1980.1 444.325C1978.2 450.496 1964.32 444.325 1964.32 444.325C1964.32 444.325 2020.59 501.396 2020.59 518.896C2020.59 536.395 1990.32 514.237 1990.32 514.237C1993.17 519.44 2009.79 542.89 2001.76 542.89C1988.09 543.435 1945.84 518.896 1945.84 518.896C1945.84 518.896 1985.39 566.451 1927.22 566.451C1923.75 566.451 1895.48 562.854 1876.84 551.19C1878.24 557.013 1878.93 571.457 1872.93 571.457C1866.93 571.457 1861.71 568.187 1856.98 560.257C1856.98 562.701 1855.46 574.942 1845.45 578.445C1824.84 585.656 1804.92 541.01 1804.92 541.01C1804.92 541.01 1804.63 564.545 1793.34 564.545C1782.04 564.545 1784 541.01 1784 541.01C1703.25 595.678 1709.62 544.662 1726.85 496.911C1719.41 502.632 1680.68 538.239 1675.18 523.158C1672.83 516.721 1678.49 508.192 1686.3 495.808C1679.47 502.364 1642.04 533.273 1627.53 518.896C1622.79 514.203 1688.71 454.017 1688.71 449.113C1675.19 460.005 1622.23 464.897 1675.18 428.619C1697.54 413.294 1717.18 397.81 1726.85 356.618C1726.85 356.618 1718.05 367.417 1711.36 359.428C1707.88 347.688 1746.29 298.079 1773.53 249.084C1766.65 256.588 1755.62 267.413 1746.29 261.429C1736.95 255.445 1758.39 229.21 1758.39 229.21C1758.39 229.21 1740.2 244.494 1735.63 236.551C1724.14 216.595 1809.77 171.671 1809.77 142.66C1806.93 147.113 1793.83 156.315 1788.66 147.113C1784.21 139.179 1792 129.873 1796.41 123.517Z" fill="#3F693E"/>
<path fill-rule="evenodd" clip-rule="evenodd" d="M1843.45 88.0864C1847.51 71.4647 1851.96 33.277 1843.45 0.114258C1869.12 2.82218 1925.23 134.733 1910.05 142.66C1898.17 148.866 1882.42 126.187 1882.42 126.187C1882.42 142.66 1948.4 222.014 1942.07 240.686C1935.74 259.357 1916.23 249.084 1901.81 243.182C1944.14 284.766 1989.64 354.782 1980.1 366.65C1970.56 378.519 1949.15 356.618 1949.15 356.618C1949.15 356.618 1969.98 380.17 1961.25 385.239C1955.26 388.716 1942.07 378.452 1942.07 378.452C1942.07 378.452 1983.97 431.754 1980.1 444.325C1978.2 450.496 1964.32 444.325 1964.32 444.325C1964.32 444.325 2020.59 501.396 2020.59 518.896C2020.59 536.395 1990.32 514.237 1990.32 514.237C1993.17 519.44 2009.79 542.89 2001.76 542.89C1988.09 543.435 1945.84 518.896 1945.84 518.896C1945.84 518.896 1985.39 566.451 1927.22 566.451C1923.75 566.451 1895.48 562.854 1876.84 551.19C1878.24 557.013 1878.93 571.457 1872.93 571.457C1866.93 571.457 1861.71 568.187 1856.98 560.257C1856.98 562.701 1855.46 574.942 1845.45 578.445C1824.84 585.656 1817.67 519.355 1817.67 519.355C1752.89 542.89 1772.56 512.833 1781.17 492.746C1781.17 492.746 1766.03 504.957 1760.53 489.876C1758.18 483.44 1773.37 466.581 1781.17 454.197C1774.34 460.753 1735.43 485.953 1720.91 471.576C1716.18 466.884 1774.06 419.983 1774.06 415.079C1760.54 425.971 1704.28 427.687 1757.23 391.408C1768.93 383.392 1777.09 374.097 1777.09 364.582C1754.34 369.665 1777.09 336.262 1777.09 333.672C1777.09 333.672 1770.54 341.662 1763.85 333.672C1755.74 319.228 1784.9 276.014 1799.73 239.438C1799.73 239.438 1816 266.832 1829.99 260.759C1843.97 254.685 1836.66 226.297 1836.66 222.405C1838.07 224.391 1840.65 236.394 1849.52 234.078C1859.89 231.372 1850.81 185.797 1847.43 181.171C1846.39 211.962 1839.8 222.413 1828.64 194.589C1834.37 228.312 1829.14 228.757 1825.54 232.3C1820.74 235.265 1811.26 227.09 1810.2 216.44C1798.81 175.112 1843.45 131.215 1843.45 131.215C1838.92 136.082 1828.64 140.416 1823.47 131.215C1819.01 123.281 1839.39 104.708 1843.45 88.0864Z" fill="#5C885C"/>
<path d="M1799.83 363.172C1788.33 357.913 1794.9 336.219 1796.55 316.826C1797.64 326.374 1801.57 345.538 1808.5 345.81C1816.68 346.132 1823.38 334.301 1824.1 332.413C1824.12 332.337 1824.14 332.262 1824.16 332.187C1824.16 332.225 1824.14 332.301 1824.1 332.413C1820.5 345.4 1827.61 368.629 1834.38 368.629C1839.83 368.629 1843.24 355.006 1844.26 348.194C1848 356.028 1857.38 371.082 1864.92 368.629C1868.96 367.314 1869.57 360.751 1868.78 353.401C1867.73 346.858 1866.23 340.336 1864.92 335.458C1866.37 340.11 1868.1 347.049 1868.78 353.401C1870.88 366.451 1871.22 379.586 1864.92 379.936C1855.45 380.462 1850.02 370.513 1848.48 365.473C1847.17 371.28 1841.64 383.026 1830.07 383.551C1818.5 384.077 1816.93 364.706 1817.58 354.955C1815.5 359.447 1809.04 367.38 1799.83 363.172Z" fill="#3F693E"/>
<path d="M1904.75 485.236C1895.27 482.143 1892.55 459.376 1892.38 448.378C1892.38 448.378 1900.6 468.754 1910.17 470.029C1917.97 471.069 1920.73 452.502 1920.73 452.502C1920.73 452.502 1930.95 491.291 1943.93 482.659C1949.46 478.984 1946.51 461.008 1946.51 461.008C1946.51 461.008 1963.56 480.372 1972.79 476.296C1981.9 472.269 1965.15 444.975 1965.15 444.975C1971.73 451.819 1990.94 467.916 1987.02 476.988C1982.13 488.329 1955.01 473.895 1955.01 476.988C1955.01 480.081 1957.08 501.99 1943.93 505.083C1933.41 507.557 1922.37 485.064 1920.73 474.926C1919.53 481.37 1914.24 488.329 1904.75 485.236Z" fill="#3F693E"/>
<path fill-rule="evenodd" clip-rule="evenodd" d="M1962.85 443.948C1970.31 456.081 1974 465.424 1974.23 470.818C1974.32 472.629 1974.01 473.96 1973.44 474.79C1972.87 475.614 1972.08 476.046 1970.81 476.119C1968.84 476.222 1965.78 475.214 1961.86 472.849C1957.93 470.491 1953.12 466.809 1947.48 461.679C1947.27 461.483 1946.94 461.438 1946.67 461.567C1946.41 461.696 1946.25 461.972 1946.29 462.258C1946.29 462.26 1946.33 462.651 1946.4 463.343C1946.46 464.034 1946.53 465.02 1946.58 466.189C1946.73 469.285 1946.72 473.68 1945.96 477.259C1945.58 479.047 1945.01 480.627 1944.23 481.715C1943.44 482.807 1942.53 483.399 1941.29 483.466C1940.4 483.507 1939.28 483.249 1937.9 482.535C1931.86 479.426 1927.92 471.88 1925.6 465.068C1924.43 461.668 1923.65 458.462 1923.17 456.111C1922.93 454.936 1922.76 453.974 1922.65 453.307C1922.54 452.64 1922.5 452.277 1922.49 452.277C1922.45 451.944 1922.17 451.692 1921.82 451.679C1921.48 451.663 1921.17 451.891 1921.09 452.219C1921.09 452.22 1921.03 452.481 1920.91 452.955C1920.49 454.614 1919.31 458.796 1917.44 462.553C1916.5 464.43 1915.39 466.198 1914.14 467.477C1912.89 468.765 1911.56 469.536 1910.14 469.6L1909.78 469.602C1908.16 469.565 1906.16 468.215 1904.21 466.053C1901.28 462.83 1898.45 457.955 1896.39 453.905C1895.35 451.877 1894.5 450.056 1893.91 448.743C1893.32 447.429 1892.99 446.63 1892.99 446.628C1892.85 446.276 1892.43 446.105 1892.07 446.244C1891.7 446.386 1891.53 446.783 1891.67 447.135C1891.68 447.152 1894.05 452.947 1897.44 458.808C1899.14 461.741 1901.08 464.69 1903.14 466.957C1905.21 469.211 1907.37 470.86 1909.72 470.972L1910.2 470.969C1912.41 470.861 1914.25 469.54 1915.76 467.771C1918.04 465.101 1919.69 461.307 1920.8 458.16C1921.92 455.015 1922.48 452.522 1922.48 452.506L1921.79 452.362L1921.08 452.45C1921.09 452.475 1921.87 458.561 1924.25 465.504C1926.64 472.437 1930.59 480.278 1937.23 483.745C1938.75 484.536 1940.12 484.89 1941.35 484.835C1943.1 484.762 1944.47 483.818 1945.4 482.487C1946.81 480.487 1947.48 477.595 1947.81 474.595C1948.14 471.597 1948.11 468.491 1948 466.123C1947.89 463.743 1947.7 462.11 1947.7 462.1L1946.99 462.178L1946.5 462.678C1952.19 467.849 1957.06 471.583 1961.11 474.012C1965.16 476.437 1968.37 477.591 1970.87 477.488C1972.48 477.427 1973.83 476.742 1974.63 475.538C1975.44 474.339 1975.74 472.73 1975.65 470.752C1975.37 464.885 1971.58 455.495 1964.07 443.248C1963.87 442.923 1963.44 442.817 1963.1 443.01C1962.76 443.203 1962.65 443.624 1962.85 443.948V443.948Z" fill="#2B5129"/>
<path d="M1810.63 218.787C1812.34 223.848 1818.19 233.697 1823.87 232.949C1837.48 231.157 1829.02 205.966 1828.93 193.84C1830.44 199.807 1834.33 210.74 1839.71 210.596C1846.26 210.419 1847.03 190.797 1847.2 181.1" stroke="#2B5129"/>
<path fill-rule="evenodd" clip-rule="evenodd" d="M1865.33 334.74C1869.21 348.446 1870.22 358.439 1868.98 363.693C1868.57 365.459 1867.91 366.657 1867.13 367.3C1866.36 367.937 1865.48 368.138 1864.24 367.862C1862.32 367.426 1859.65 365.625 1856.52 362.281C1853.38 358.942 1849.75 354.09 1845.72 347.62C1845.57 347.372 1845.27 347.241 1844.97 347.292C1844.68 347.344 1844.46 347.568 1844.41 347.852C1844.41 347.854 1844.35 348.242 1844.22 348.925C1844.09 349.607 1843.89 350.576 1843.63 351.715C1842.93 354.734 1841.72 358.961 1840.01 362.197C1839.17 363.815 1838.18 365.179 1837.14 366.014C1836.08 366.85 1835.05 367.174 1833.83 366.899C1832.97 366.696 1831.96 366.144 1830.83 365.082C1825.86 360.445 1824.12 352.113 1823.74 344.926C1823.54 341.337 1823.66 338.039 1823.84 335.646C1823.93 334.449 1824.03 333.477 1824.1 332.807C1824.18 332.135 1824.24 331.773 1824.23 331.773C1824.28 331.441 1824.08 331.122 1823.75 331.014C1823.42 330.905 1823.06 331.041 1822.9 331.336C1822.9 331.338 1822.77 331.573 1822.53 331.996C1821.67 333.477 1819.4 337.18 1816.57 340.285C1815.16 341.837 1813.61 343.234 1812.06 344.128C1810.51 345.027 1809.01 345.405 1807.63 345.08L1807.28 344.984C1805.73 344.507 1804.18 342.665 1802.89 340.055C1800.95 336.156 1799.56 330.695 1798.67 326.235C1798.22 324.002 1797.9 322.018 1797.69 320.594C1797.48 319.169 1797.38 318.311 1797.38 318.309C1797.34 317.931 1796.99 317.654 1796.6 317.689C1796.21 317.726 1795.93 318.06 1795.97 318.438C1795.97 318.455 1796.68 324.679 1798.35 331.24C1799.18 334.524 1800.25 337.892 1801.62 340.634C1802.99 343.363 1804.62 345.539 1806.85 346.285L1807.32 346.415C1809.48 346.913 1811.61 346.142 1813.54 344.851C1816.45 342.9 1819.07 339.698 1821.01 336.974C1822.93 334.251 1824.15 332.005 1824.16 331.991L1823.53 331.663L1822.83 331.556C1822.83 331.581 1821.92 337.649 1822.32 344.978C1822.74 352.301 1824.41 360.922 1829.85 366.062C1831.1 367.24 1832.32 367.952 1833.52 368.234C1835.22 368.638 1836.8 368.103 1838.06 367.076C1839.96 365.536 1841.38 362.933 1842.52 360.138C1843.66 357.342 1844.47 354.346 1845.01 352.038C1845.56 349.718 1845.81 348.094 1845.82 348.084L1845.12 347.967L1844.51 348.315C1848.57 354.838 1852.24 359.756 1855.47 363.195C1858.72 366.631 1861.49 368.615 1863.93 369.197C1865.49 369.576 1866.98 369.284 1868.08 368.344C1869.18 367.409 1869.91 365.943 1870.36 364.016C1871.68 358.293 1870.6 348.228 1866.7 334.399C1866.6 334.031 1866.21 333.811 1865.83 333.904C1865.45 333.998 1865.23 334.373 1865.33 334.74V334.74Z" fill="#2B5129"/>
<path fill-rule="evenodd" clip-rule="evenodd" d="M1660.11 579.498C1737.84 610.767 1845.17 555.439 1770.53 509.747C1695.89 464.056 1614.29 561.069 1660.11 579.498V579.498Z" fill="url(#paint2_linear_1322_12964)"/>
<path fill-rule="evenodd" clip-rule="evenodd" d="M1763.42 593.641C1846.95 624.053 1955.82 586.319 1874.58 544.437C1793.34 502.555 1714.18 575.717 1763.42 593.641V593.641Z" fill="url(#paint3_linear_1322_12964)"/>
<path fill-rule="evenodd" clip-rule="evenodd" d="M343.755 589.981C348.938 603.91 368.74 596.437 363.765 583.829C358.789 571.22 339.595 578.8 343.755 589.981Z" fill="url(#paint4_linear_1322_12964)"/>
<ellipse rx="517.182" ry="208.983" transform="matrix(-1 0 0 1 198.047 636.334)" fill="url(#paint5_linear_1322_12964)"/>
<path d="M349.78 548.637C349.78 564.746 327.934 554.405 298.191 554.405C268.448 554.405 242.071 564.746 242.071 548.637C242.071 532.529 266.183 519.471 295.926 519.471C325.669 519.471 349.78 532.529 349.78 548.637Z" fill="white"/>
<path fill-rule="evenodd" clip-rule="evenodd" d="M319.462 464.631C320.844 462.638 326.613 455.154 326.613 445.869C330.516 446.281 339.046 466.336 336.738 467.541C334.932 468.484 332.538 465.036 332.538 465.036C332.538 467.541 342.57 479.605 341.607 482.444C340.645 485.283 337.678 483.721 335.486 482.824C341.921 489.146 348.839 499.79 347.389 501.595C345.938 503.399 342.684 500.07 342.684 500.07C342.684 500.07 345.851 503.65 344.523 504.421C343.612 504.95 341.607 503.389 341.607 503.389C341.607 503.389 347.977 511.493 347.389 513.404C347.1 514.342 344.99 513.404 344.99 513.404C344.99 513.404 353.544 522.081 353.544 524.741C353.544 527.402 348.942 524.033 348.942 524.033C349.376 524.824 351.902 528.389 350.681 528.389C348.604 528.472 342.179 524.741 342.179 524.741C342.179 524.741 348.194 531.971 339.349 531.971C338.822 531.971 334.524 531.424 331.69 529.651C331.903 530.536 332.008 532.732 331.095 532.732C330.182 532.732 329.389 532.235 328.67 531.03C328.67 531.401 328.44 533.262 326.918 533.795C323.784 534.891 320.756 528.103 320.756 528.103C320.756 528.103 320.712 531.681 318.995 531.681C317.278 531.681 317.574 528.103 317.574 528.103C305.298 536.415 306.267 528.659 308.886 521.399C307.755 522.269 301.867 527.682 301.031 525.389C300.674 524.411 301.535 523.114 302.721 521.231C301.682 522.228 295.993 526.927 293.786 524.741C293.066 524.028 303.089 514.877 303.088 514.132C301.032 515.788 292.981 516.532 301.031 511.016C304.431 508.686 307.416 506.332 308.886 500.07C308.886 500.07 307.549 501.711 306.531 500.497C306.003 498.712 311.842 491.17 315.984 483.721C314.938 484.862 313.261 486.507 311.842 485.598C310.422 484.688 313.681 480.699 313.681 480.699C313.681 480.699 310.917 483.023 310.221 481.815C308.474 478.781 321.493 471.952 321.493 467.541C321.061 468.218 319.07 469.617 318.284 468.218C317.606 467.012 318.791 465.597 319.462 464.631Z" fill="#3F693E"/>
<path fill-rule="evenodd" clip-rule="evenodd" d="M326.613 459.244C327.23 456.717 327.906 450.911 326.613 445.869C330.516 446.281 339.046 466.336 336.738 467.541C334.931 468.484 332.538 465.036 332.538 465.036C332.538 467.541 342.569 479.605 341.607 482.444C340.645 485.283 337.677 483.721 335.486 482.824C341.921 489.146 348.839 499.79 347.388 501.595C345.938 503.399 342.683 500.07 342.683 500.07C342.683 500.07 345.85 503.65 344.523 504.421C343.612 504.95 341.607 503.389 341.607 503.389C341.607 503.389 347.976 511.493 347.388 513.404C347.099 514.342 344.99 513.404 344.99 513.404C344.99 513.404 353.544 522.081 353.544 524.741C353.544 527.402 348.942 524.033 348.942 524.033C349.375 524.824 351.902 528.389 350.681 528.389C348.603 528.472 342.179 524.741 342.179 524.741C342.179 524.741 348.193 531.971 339.349 531.971C338.821 531.971 334.524 531.424 331.689 529.651C331.902 530.536 332.008 532.732 331.095 532.732C330.182 532.732 329.388 532.235 328.67 531.03C328.67 531.401 328.44 533.262 326.917 533.795C323.784 534.891 322.694 524.811 322.694 524.811C312.845 528.389 315.836 523.819 317.145 520.766C317.145 520.766 314.843 522.622 314.006 520.329C313.649 519.351 315.959 516.788 317.145 514.905C316.106 515.902 310.19 519.733 307.983 517.547C307.263 516.834 316.064 509.703 316.064 508.958C314.008 510.614 305.455 510.874 313.505 505.359C315.283 504.14 316.524 502.727 316.524 501.28C313.065 502.053 316.524 496.975 316.524 496.581C316.524 496.581 315.528 497.796 314.51 496.581C313.279 494.385 317.711 487.815 319.967 482.254C319.967 482.254 322.44 486.419 324.566 485.496C326.692 484.572 325.58 480.256 325.58 479.665C325.795 479.967 326.188 481.792 327.536 481.439C329.112 481.028 327.731 474.099 327.218 473.396C327.059 478.077 326.058 479.666 324.362 475.436C325.233 480.563 324.438 480.63 323.89 481.169C323.161 481.62 321.719 480.377 321.558 478.758C319.827 472.475 326.613 465.801 326.613 465.801C325.925 466.541 324.362 467.2 323.576 465.801C322.898 464.595 325.996 461.771 326.613 459.244Z" fill="#5C885C"/>
<path d="M319.982 501.066C318.233 500.266 319.233 496.968 319.482 494.02C319.649 495.471 320.245 498.385 321.299 498.426C322.543 498.475 323.562 496.676 323.671 496.389C323.674 496.378 323.677 496.366 323.681 496.355C323.681 496.361 323.677 496.372 323.671 496.389C323.124 498.364 324.205 501.895 325.234 501.895C326.063 501.895 326.58 499.824 326.736 498.789C327.305 499.979 328.731 502.268 329.877 501.895C330.491 501.695 330.584 500.698 330.464 499.58C330.304 498.585 330.077 497.594 329.877 496.852C330.098 497.559 330.36 498.614 330.464 499.58C330.783 501.564 330.835 503.561 329.877 503.614C328.437 503.694 327.611 502.182 327.378 501.416C327.178 502.298 326.339 504.084 324.58 504.164C322.821 504.244 322.581 501.299 322.681 499.816C322.364 500.499 321.381 501.705 319.982 501.066Z" fill="#3F693E"/>
<path d="M335.934 519.624C334.492 519.154 334.079 515.692 334.053 514.021C334.053 514.021 335.302 517.118 336.757 517.312C337.942 517.47 338.363 514.648 338.363 514.648C338.363 514.648 339.916 520.545 341.89 519.232C342.73 518.674 342.282 515.941 342.282 515.941C342.282 515.941 344.875 518.885 346.277 518.265C347.662 517.653 345.116 513.503 345.116 513.503C346.117 514.544 349.037 516.991 348.442 518.37C347.697 520.094 343.575 517.9 343.575 518.37C343.575 518.84 343.888 522.171 341.89 522.641C340.291 523.018 338.611 519.598 338.363 518.057C338.18 519.036 337.376 520.094 335.934 519.624Z" fill="#3F693E"/>
<path fill-rule="evenodd" clip-rule="evenodd" d="M344.766 513.347C345.901 515.192 346.461 516.612 346.497 517.432C346.51 517.708 346.463 517.91 346.377 518.036C346.29 518.161 346.169 518.227 345.976 518.238C345.677 518.254 345.212 518.101 344.616 517.741C344.018 517.383 343.286 516.823 342.429 516.043C342.397 516.013 342.348 516.006 342.307 516.026C342.266 516.046 342.243 516.088 342.248 516.131C342.248 516.131 342.255 516.191 342.264 516.296C342.274 516.401 342.285 516.551 342.293 516.729C342.315 517.199 342.314 517.867 342.198 518.412C342.141 518.683 342.053 518.924 341.935 519.089C341.815 519.255 341.677 519.345 341.488 519.355C341.353 519.361 341.183 519.322 340.973 519.214C340.054 518.741 339.456 517.594 339.103 516.558C338.925 516.041 338.807 515.554 338.733 515.196C338.696 515.018 338.671 514.871 338.654 514.77C338.638 514.669 338.631 514.614 338.631 514.614C338.624 514.563 338.581 514.525 338.528 514.523C338.476 514.52 338.429 514.555 338.418 514.605C338.418 514.605 338.409 514.645 338.39 514.717C338.326 514.969 338.147 515.605 337.862 516.176C337.719 516.461 337.55 516.73 337.361 516.924C337.171 517.12 336.968 517.237 336.752 517.247L336.697 517.248C336.451 517.242 336.147 517.037 335.851 516.708C335.406 516.218 334.976 515.477 334.661 514.861C334.504 514.553 334.375 514.276 334.285 514.076C334.195 513.876 334.145 513.755 334.145 513.755C334.123 513.701 334.061 513.675 334.005 513.696C333.95 513.718 333.922 513.778 333.944 513.832C333.945 513.834 334.307 514.715 334.822 515.606C335.08 516.052 335.376 516.501 335.689 516.845C336.002 517.188 336.331 517.439 336.688 517.456L336.762 517.455C337.098 517.439 337.378 517.238 337.607 516.969C337.953 516.563 338.204 515.986 338.374 515.508C338.543 515.03 338.628 514.651 338.629 514.648L338.523 514.626L338.416 514.64C338.417 514.644 338.535 515.569 338.897 516.624C339.261 517.679 339.862 518.871 340.87 519.398C341.103 519.518 341.311 519.572 341.498 519.563C341.763 519.552 341.971 519.409 342.113 519.207C342.328 518.902 342.429 518.463 342.48 518.007C342.53 517.551 342.525 517.079 342.509 516.719C342.492 516.357 342.463 516.108 342.463 516.107L342.355 516.119L342.281 516.195C343.145 516.981 343.886 517.549 344.501 517.918C345.117 518.287 345.605 518.462 345.986 518.446C346.23 518.437 346.435 518.333 346.557 518.15C346.68 517.968 346.726 517.723 346.713 517.422C346.669 516.53 346.094 515.103 344.952 513.241C344.921 513.191 344.855 513.175 344.804 513.205C344.753 513.234 344.735 513.298 344.766 513.347V513.347Z" fill="#2B5129"/>
<path d="M321.624 479.115C321.885 479.884 322.773 481.382 323.637 481.268C325.706 480.995 324.42 477.166 324.407 475.322C324.636 476.229 325.227 477.891 326.045 477.869C327.041 477.843 327.157 474.859 327.183 473.385" stroke="#2B5129"/>
<path fill-rule="evenodd" clip-rule="evenodd" d="M329.94 496.744C330.53 498.828 330.683 500.347 330.494 501.146C330.432 501.414 330.332 501.596 330.214 501.694C330.096 501.791 329.963 501.821 329.774 501.779C329.481 501.713 329.076 501.439 328.6 500.931C328.123 500.423 327.571 499.686 326.958 498.702C326.935 498.664 326.889 498.644 326.845 498.652C326.801 498.66 326.767 498.694 326.759 498.737C326.76 498.738 326.75 498.797 326.731 498.9C326.711 499.004 326.681 499.151 326.64 499.324C326.533 499.783 326.351 500.426 326.091 500.918C325.962 501.164 325.813 501.372 325.654 501.498C325.493 501.626 325.336 501.675 325.151 501.633C325.019 501.602 324.866 501.518 324.694 501.357C323.938 500.652 323.675 499.385 323.617 498.292C323.586 497.747 323.605 497.245 323.632 496.882C323.645 496.7 323.66 496.552 323.672 496.45C323.684 496.348 323.692 496.293 323.692 496.293C323.699 496.242 323.668 496.194 323.618 496.177C323.568 496.161 323.514 496.181 323.489 496.226C323.489 496.227 323.47 496.262 323.433 496.327C323.302 496.552 322.956 497.115 322.527 497.587C322.312 497.823 322.076 498.035 321.841 498.171C321.605 498.308 321.378 498.365 321.167 498.316L321.114 498.301C320.879 498.229 320.643 497.949 320.447 497.552C320.152 496.959 319.94 496.129 319.805 495.451C319.737 495.111 319.688 494.81 319.656 494.593C319.624 494.376 319.609 494.246 319.609 494.246C319.603 494.188 319.55 494.146 319.49 494.151C319.431 494.157 319.388 494.208 319.395 494.265C319.395 494.268 319.503 495.214 319.756 496.212C319.883 496.711 320.046 497.223 320.253 497.64C320.462 498.055 320.71 498.386 321.049 498.499L321.12 498.519C321.448 498.594 321.772 498.477 322.066 498.281C322.509 497.984 322.907 497.498 323.201 497.083C323.494 496.669 323.679 496.328 323.681 496.326L323.585 496.276L323.478 496.26C323.478 496.263 323.34 497.186 323.401 498.3C323.465 499.414 323.718 500.724 324.545 501.506C324.736 501.685 324.921 501.793 325.104 501.836C325.362 501.897 325.601 501.816 325.793 501.66C326.082 501.426 326.299 501.03 326.472 500.605C326.644 500.18 326.769 499.725 326.851 499.374C326.933 499.021 326.972 498.774 326.973 498.772L326.866 498.755L326.774 498.808C327.392 499.799 327.95 500.547 328.441 501.07C328.934 501.592 329.356 501.894 329.726 501.982C329.964 502.04 330.19 501.996 330.357 501.853C330.525 501.711 330.636 501.488 330.704 501.195C330.905 500.325 330.74 498.794 330.148 496.692C330.132 496.636 330.073 496.602 330.015 496.617C329.958 496.631 329.924 496.688 329.94 496.744V496.744Z" fill="#2B5129"/>
<path d="M335.116 489.698H250.03V494.574H335.116V489.698Z" fill="#B0373B"/>
<path d="M323.458 494.573H261.691V533.617H323.458V494.573Z" fill="#EAC5A6"/>
<path d="M323.458 494.573H261.691V503.746H323.458V494.573Z" fill="#7E241E"/>
<path d="M323.458 505.953H261.691V506.389H323.458V505.953Z" fill="#48201D"/>
<path d="M323.458 509.202H261.691V509.637H323.458V509.202Z" fill="#48201D"/>
<path d="M323.458 526.606H261.691V527.042H323.458V526.606Z" fill="#48201D"/>
<path d="M286.526 503.687L286.526 514.153H286.091L286.091 503.687H286.526Z" fill="#48201D"/>
<path d="M292.792 503.687L292.792 514.153H292.357L292.357 503.687H292.792Z" fill="#48201D"/>
<path d="M300.063 503.687L300.063 514.153H299.628L299.628 503.687H300.063Z" fill="#48201D"/>
<path d="M311.139 503.727L311.139 533.617H310.703L310.703 503.727H311.139Z" fill="#48201D"/>
<path d="M273.659 503.727L273.659 533.617H273.224L273.224 503.727H273.659Z" fill="#48201D"/>
<path d="M323.458 514.15H261.691V520.416H323.458V514.15Z" fill="#E31E24"/>
<path d="M300.473 515.717H284.679V533.617H300.473V515.717Z" fill="#E31E24"/>
<path d="M296.377 520.864H288.775V533.617H296.377V520.864Z" fill="#FEF5B2"/>
<path d="M262.321 494.573H261.691V533.617H262.321V494.573Z" fill="#48201D"/>
<path d="M323.457 494.573H322.828V533.617H323.457V494.573Z" fill="#48201D"/>
<path d="M254.153 494.573H251.957V533.617H254.153V494.573Z" fill="#48201D"/>
<path d="M278.654 494.573H276.458V533.617H278.654V494.573Z" fill="#48201D"/>
<path d="M306.959 494.573H304.763V533.617H306.959V494.573Z" fill="#48201D"/>
<path d="M332.466 494.573H330.271V533.617H332.466V494.573Z" fill="#48201D"/>
<path fill-rule="evenodd" clip-rule="evenodd" d="M250.03 479.938C278.392 479.938 306.754 479.938 335.116 479.938C335.116 480.167 335.116 480.397 335.116 480.626C306.754 480.626 278.392 480.626 250.03 480.626C250.03 480.397 250.03 480.167 250.03 479.938V479.938ZM250.03 478.085H335.116V478.773H250.03V478.085V478.085ZM250.03 481.791C278.392 481.791 306.754 481.791 335.116 481.791C335.116 482.021 335.116 482.25 335.116 482.479C306.754 482.479 278.392 482.479 250.03 482.479C250.03 482.25 250.03 482.021 250.03 481.791V481.791ZM250.03 483.645C278.392 483.645 306.754 483.645 335.116 483.645C335.116 483.874 335.116 484.103 335.116 484.333C306.754 484.333 278.392 484.333 250.03 484.333C250.03 484.103 250.03 483.874 250.03 483.645V483.645ZM250.03 485.498C278.392 485.498 306.754 485.498 335.116 485.498C335.116 485.727 335.116 485.956 335.116 486.186C306.754 486.186 278.392 486.186 250.03 486.186C250.03 485.956 250.03 485.727 250.03 485.498V485.498ZM250.03 487.351C278.392 487.351 306.754 487.351 335.116 487.351C335.116 487.58 335.116 487.81 335.116 488.039C306.754 488.039 278.392 488.039 250.03 488.039C250.03 487.81 250.03 487.58 250.03 487.351V487.351ZM250.03 489.204H335.116V489.892H250.03V489.204V489.204Z" fill="#48201D"/>
<path d="M322.883 478.315L262.264 478.325V489.662L322.883 489.652V478.315Z" fill="white"/>
<path d="M311.95 484.281C311.95 486.121 312.862 487.77 314.468 488.575C315.978 489.333 317.989 489.332 319.503 488.574C320.996 487.827 322.016 486.12 322.016 484.28C322.016 481.465 319.8 479.165 316.983 479.166C314.152 479.166 311.95 481.449 311.95 484.281V484.281Z" fill="#407842"/>
<path d="M317.076 480.492C316.57 482.237 315.061 484.795 313.96 486.049L316.57 486.049L316.576 486.809C316.57 487.24 316.233 487.687 315.742 487.682C315.061 487.673 314.208 487.353 313.693 486.465C313.318 485.817 313.045 485.306 313.045 484.281C313.045 482.044 314.819 480.19 317.074 480.189C319.305 480.189 321.104 482.097 321.104 484.28C321.104 485.304 320.633 486.189 320.477 486.445C319.927 487.352 319.087 487.672 318.438 487.681C317.991 487.686 317.578 487.352 317.578 486.807V486.049L320.229 486.048C319.087 484.794 317.578 482.237 317.076 480.492V480.492Z" fill="white"/>
<path d="M263.264 479.31L310.605 479.302V488.904L263.264 488.912V479.31Z" fill="#E31E24"/>
<path d="M296.361 482.656C296.284 482.539 296.255 482.529 296.172 482.529C296.079 482.529 296.042 482.576 295.98 482.662C295.878 482.8 294.693 484.574 294.68 484.574L297.671 484.573C297.666 484.573 296.527 482.904 296.361 482.656V482.656ZM296.185 481.065C296.61 481.065 296.873 481.224 297.271 481.741L300.225 486.035C300.381 486.261 300.366 486.619 300.095 486.852C299.856 487.058 299.431 487.077 299.2 486.767L298.494 485.773L293.84 485.774L293.134 486.787C292.885 487.088 292.58 487.088 292.304 486.9C292.016 486.705 291.944 486.328 292.119 486.065L295.101 481.741C295.48 481.206 295.779 481.065 296.185 481.065V481.065Z" fill="white"/>
<path d="M276.037 481.079L280.293 481.078C281.348 481.078 281.445 482.313 281.445 482.313L276.21 482.315C275.95 482.315 275.71 482.513 275.71 482.859C275.71 483.254 276.004 483.442 276.191 483.442L279.891 483.441C280.624 483.441 281.667 484.061 281.667 485.133C281.667 486.523 280.455 487.017 280.034 487.017L275.704 487.018C274.417 487.018 274.489 485.772 274.489 485.772L279.854 485.771C280.069 485.771 280.385 485.555 280.385 485.232C280.385 484.923 280.107 484.687 279.904 484.687L276.277 484.687C275.249 484.688 274.451 483.912 274.451 482.859C274.451 481.675 275.452 481.079 276.037 481.079V481.079Z" fill="white"/>
<path d="M302.627 481.084L307.021 481.083C307.687 481.083 308.72 481.636 308.72 482.958V483.042C308.72 483.747 308.286 484.365 307.677 484.665C307.677 484.665 307.721 484.733 308.665 486.035C308.787 486.203 308.794 486.607 308.526 486.85C308.271 487.083 307.845 487.113 307.631 486.86C307.331 486.507 306.984 486.044 306.034 484.816L304.316 484.816C303.827 484.816 303.162 484.422 303.162 483.551L306.874 483.55C307.075 483.541 307.398 483.345 307.398 482.959C307.398 482.602 307.087 482.36 306.872 482.36L302.772 482.36L302.776 486.308C302.776 486.739 302.451 487.03 302.101 487.03C301.768 487.03 301.436 486.73 301.436 486.327V482.303C301.436 481.628 302.138 481.084 302.627 481.084V481.084Z" fill="white"/>
<path d="M285.246 481.07L289.641 481.069C290.306 481.069 291.339 481.622 291.339 482.945V483.03C291.339 483.734 290.905 484.352 290.296 484.652C290.296 484.652 289.981 484.756 289.686 484.793L286.925 484.793C286.436 484.794 285.808 484.391 285.808 483.518L289.482 483.517C289.684 483.509 290.017 483.331 290.017 482.946C290.017 482.59 289.706 482.346 289.491 482.346L285.393 482.346L285.395 486.295C285.395 486.726 285.071 487.017 284.72 487.017C284.388 487.017 284.055 486.717 284.055 486.313V482.289C284.055 481.614 284.756 481.07 285.246 481.07V481.07Z" fill="white"/>
<path fill-rule="evenodd" clip-rule="evenodd" d="M255.066 507.082C255.82 505.995 258.968 501.913 258.968 496.847C261.097 497.072 265.75 508.013 264.491 508.67C263.506 509.185 262.2 507.304 262.2 507.304C262.2 508.67 267.672 515.252 267.147 516.8C266.622 518.349 265.004 517.497 263.808 517.007C267.319 520.456 271.093 526.263 270.301 527.248C269.51 528.232 267.735 526.416 267.735 526.416C267.735 526.416 269.462 528.369 268.738 528.789C268.241 529.078 267.147 528.226 267.147 528.226C267.147 528.226 270.622 532.647 270.301 533.69C270.144 534.202 268.993 533.69 268.993 533.69C268.993 533.69 273.659 538.423 273.659 539.875C273.659 541.326 271.149 539.488 271.149 539.488C271.385 539.92 272.763 541.865 272.098 541.865C270.964 541.91 267.459 539.875 267.459 539.875C267.459 539.875 270.74 543.819 265.916 543.819C265.628 543.819 263.283 543.521 261.737 542.553C261.853 543.036 261.911 544.234 261.413 544.234C260.915 544.234 260.482 543.963 260.09 543.305C260.09 543.508 259.964 544.523 259.134 544.814C257.424 545.412 255.772 541.709 255.772 541.709C255.772 541.709 255.748 543.661 254.811 543.661C253.875 543.661 254.037 541.709 254.037 541.709C247.339 546.243 247.868 542.012 249.297 538.051C248.68 538.526 245.468 541.479 245.011 540.228C244.817 539.694 245.286 538.987 245.934 537.96C245.367 538.504 242.263 541.067 241.059 539.875C240.666 539.486 246.134 534.494 246.134 534.087C245.012 534.99 240.62 535.396 245.011 532.387C246.866 531.116 248.495 529.832 249.297 526.416C249.297 526.416 248.568 527.311 248.012 526.649C247.724 525.675 250.909 521.56 253.169 517.497C252.598 518.119 251.684 519.017 250.909 518.521C250.135 518.024 251.912 515.848 251.912 515.848C251.912 515.848 250.405 517.116 250.025 516.457C249.072 514.802 256.174 511.076 256.174 508.67C255.939 509.039 254.852 509.803 254.424 509.039C254.054 508.381 254.7 507.61 255.066 507.082Z" fill="#3F693E"/>
<path fill-rule="evenodd" clip-rule="evenodd" d="M258.968 504.144C259.305 502.765 259.674 499.598 258.968 496.847C261.097 497.072 265.751 508.013 264.492 508.67C263.506 509.185 262.2 507.304 262.2 507.304C262.2 508.67 267.673 515.252 267.148 516.8C266.623 518.349 265.004 517.497 263.808 517.007C267.319 520.456 271.093 526.263 270.302 527.248C269.51 528.232 267.735 526.416 267.735 526.416C267.735 526.416 269.463 528.369 268.739 528.789C268.242 529.078 267.148 528.226 267.148 528.226C267.148 528.226 270.623 532.647 270.302 533.69C270.144 534.202 268.993 533.69 268.993 533.69C268.993 533.69 273.66 538.423 273.66 539.875C273.66 541.326 271.149 539.488 271.149 539.488C271.386 539.92 272.764 541.865 272.098 541.865C270.965 541.91 267.46 539.875 267.46 539.875C267.46 539.875 270.741 543.819 265.916 543.819C265.628 543.819 263.284 543.521 261.738 542.553C261.854 543.036 261.911 544.234 261.413 544.234C260.915 544.234 260.482 543.963 260.09 543.305C260.09 543.508 259.965 544.523 259.134 544.814C257.425 545.412 256.83 539.913 256.83 539.913C251.457 541.865 253.089 539.372 253.803 537.706C253.803 537.706 252.547 538.719 252.091 537.468C251.896 536.934 253.156 535.536 253.803 534.509C253.236 535.052 250.009 537.143 248.805 535.95C248.412 535.561 253.213 531.671 253.213 531.264C252.092 532.168 247.426 532.31 251.817 529.301C252.788 528.636 253.465 527.865 253.465 527.076C251.578 527.498 253.465 524.727 253.465 524.512C253.465 524.512 252.921 525.175 252.366 524.512C251.694 523.314 254.112 519.73 255.342 516.697C255.342 516.697 256.692 518.969 257.852 518.465C259.011 517.961 258.405 515.607 258.405 515.284C258.522 515.449 258.736 516.444 259.472 516.252C260.331 516.028 259.578 512.248 259.298 511.864C259.212 514.418 258.666 515.285 257.74 512.977C258.215 515.774 257.781 515.811 257.483 516.105C257.085 516.351 256.298 515.673 256.21 514.789C255.266 511.362 258.968 507.721 258.968 507.721C258.593 508.124 257.74 508.484 257.311 507.721C256.942 507.063 258.631 505.522 258.968 504.144Z" fill="#5C885C"/>
<path d="M255.35 526.959C254.396 526.523 254.941 524.723 255.077 523.115C255.168 523.907 255.494 525.496 256.068 525.519C256.747 525.546 257.303 524.564 257.362 524.408C257.364 524.401 257.366 524.395 257.368 524.389C257.368 524.392 257.366 524.398 257.362 524.408C257.064 525.485 257.654 527.412 258.215 527.412C258.667 527.412 258.95 526.282 259.034 525.717C259.345 526.366 260.123 527.615 260.748 527.412C261.083 527.302 261.134 526.758 261.068 526.148C260.981 525.606 260.857 525.065 260.748 524.66C260.869 525.046 261.012 525.622 261.068 526.148C261.242 527.231 261.271 528.32 260.748 528.349C259.963 528.393 259.512 527.568 259.385 527.15C259.276 527.631 258.818 528.606 257.858 528.649C256.899 528.693 256.768 527.086 256.822 526.277C256.65 526.65 256.113 527.308 255.35 526.959Z" fill="#3F693E"/>
<path d="M264.052 537.083C263.266 536.827 263.041 534.938 263.026 534.026C263.026 534.026 263.708 535.716 264.501 535.822C265.148 535.908 265.378 534.368 265.378 534.368C265.378 534.368 266.225 537.585 267.302 536.87C267.76 536.565 267.516 535.074 267.516 535.074C267.516 535.074 268.93 536.68 269.695 536.342C270.451 536.008 269.062 533.744 269.062 533.744C269.608 534.312 271.201 535.647 270.876 536.399C270.47 537.34 268.221 536.143 268.221 536.399C268.221 536.656 268.392 538.473 267.302 538.729C266.43 538.935 265.513 537.069 265.378 536.228C265.278 536.763 264.839 537.34 264.052 537.083Z" fill="#3F693E"/>
<path fill-rule="evenodd" clip-rule="evenodd" d="M268.871 533.659C269.49 534.665 269.796 535.44 269.815 535.887C269.822 536.037 269.797 536.148 269.749 536.217C269.702 536.285 269.636 536.321 269.531 536.327C269.368 536.335 269.114 536.252 268.789 536.056C268.463 535.86 268.064 535.555 267.596 535.129C267.578 535.113 267.551 535.109 267.529 535.12C267.507 535.131 267.494 535.154 267.497 535.177C267.497 535.177 267.501 535.21 267.506 535.267C267.511 535.325 267.517 535.406 267.522 535.503C267.534 535.76 267.533 536.125 267.47 536.421C267.439 536.57 267.391 536.701 267.326 536.791C267.261 536.882 267.186 536.931 267.083 536.936C267.009 536.94 266.916 536.918 266.802 536.859C266.3 536.601 265.974 535.975 265.781 535.41C265.684 535.128 265.62 534.862 265.58 534.667C265.56 534.57 265.546 534.49 265.537 534.435C265.528 534.38 265.524 534.349 265.524 534.349C265.52 534.322 265.497 534.301 265.468 534.3C265.439 534.299 265.414 534.317 265.408 534.345C265.408 534.345 265.403 534.366 265.393 534.406C265.358 534.543 265.26 534.89 265.104 535.202C265.027 535.357 264.934 535.504 264.831 535.61C264.728 535.717 264.617 535.781 264.499 535.786L264.469 535.786C264.335 535.783 264.169 535.671 264.008 535.492C263.765 535.225 263.53 534.82 263.358 534.484C263.272 534.316 263.202 534.165 263.153 534.056C263.104 533.947 263.077 533.881 263.077 533.881C263.065 533.852 263.031 533.838 263 533.849C262.97 533.861 262.955 533.894 262.967 533.923C262.968 533.924 263.165 534.405 263.446 534.891C263.587 535.134 263.748 535.379 263.919 535.567C264.09 535.754 264.269 535.891 264.464 535.9L264.504 535.9C264.688 535.891 264.84 535.781 264.966 535.634C265.154 535.413 265.291 535.098 265.384 534.837C265.476 534.577 265.522 534.37 265.523 534.368L265.465 534.356L265.407 534.364C265.407 534.366 265.472 534.871 265.669 535.446C265.868 536.021 266.196 536.672 266.746 536.959C266.872 537.025 266.986 537.054 267.088 537.05C267.232 537.044 267.346 536.965 267.424 536.855C267.541 536.689 267.596 536.449 267.624 536.2C267.651 535.952 267.649 535.694 267.639 535.498C267.63 535.3 267.614 535.165 267.614 535.164L267.556 535.171L267.515 535.212C267.987 535.641 268.391 535.951 268.726 536.152C269.062 536.353 269.329 536.449 269.536 536.44C269.67 536.435 269.782 536.379 269.848 536.279C269.915 536.179 269.94 536.046 269.933 535.882C269.909 535.395 269.595 534.616 268.972 533.601C268.956 533.574 268.919 533.565 268.891 533.581C268.864 533.597 268.854 533.632 268.871 533.659V533.659Z" fill="#2B5129"/>
<path d="M256.246 514.984C256.388 515.403 256.873 516.22 257.344 516.158C258.473 516.01 257.771 513.92 257.764 512.915C257.889 513.41 258.211 514.316 258.658 514.304C259.201 514.29 259.264 512.662 259.279 511.858" stroke="#2B5129"/>
<path fill-rule="evenodd" clip-rule="evenodd" d="M260.782 524.601C261.104 525.738 261.187 526.567 261.084 527.003C261.05 527.149 260.996 527.249 260.932 527.302C260.867 527.355 260.795 527.371 260.691 527.349C260.532 527.312 260.311 527.163 260.051 526.886C259.791 526.609 259.49 526.206 259.155 525.67C259.143 525.649 259.118 525.638 259.094 525.643C259.07 525.647 259.051 525.665 259.047 525.689C259.047 525.689 259.042 525.721 259.031 525.778C259.02 525.834 259.004 525.915 258.982 526.009C258.924 526.26 258.824 526.61 258.682 526.879C258.612 527.013 258.53 527.126 258.444 527.195C258.356 527.265 258.27 527.292 258.17 527.269C258.098 527.252 258.014 527.206 257.92 527.118C257.508 526.733 257.364 526.042 257.333 525.446C257.316 525.149 257.326 524.875 257.341 524.677C257.348 524.577 257.356 524.497 257.363 524.441C257.369 524.385 257.374 524.355 257.373 524.355C257.378 524.328 257.361 524.301 257.333 524.292C257.306 524.283 257.276 524.295 257.263 524.319C257.263 524.319 257.252 524.339 257.232 524.374C257.161 524.497 256.972 524.804 256.738 525.061C256.621 525.19 256.492 525.306 256.364 525.38C256.235 525.455 256.111 525.486 255.996 525.459L255.968 525.451C255.839 525.412 255.71 525.259 255.604 525.042C255.442 524.719 255.327 524.266 255.253 523.896C255.216 523.711 255.19 523.546 255.172 523.428C255.154 523.31 255.146 523.239 255.146 523.239C255.143 523.207 255.114 523.184 255.081 523.187C255.049 523.19 255.026 523.218 255.029 523.249C255.03 523.251 255.089 523.767 255.227 524.311C255.296 524.584 255.385 524.863 255.498 525.09C255.611 525.317 255.747 525.497 255.932 525.559L255.971 525.57C256.149 525.611 256.326 525.547 256.487 525.44C256.728 525.278 256.946 525.013 257.106 524.787C257.266 524.561 257.367 524.375 257.367 524.373L257.315 524.346L257.257 524.337C257.257 524.339 257.182 524.843 257.215 525.451C257.25 526.058 257.388 526.773 257.839 527.199C257.943 527.297 258.044 527.356 258.144 527.379C258.285 527.413 258.415 527.369 258.52 527.283C258.678 527.156 258.796 526.94 258.89 526.708C258.984 526.476 259.052 526.228 259.097 526.036C259.142 525.844 259.163 525.709 259.163 525.708L259.105 525.698L259.055 525.727C259.392 526.268 259.696 526.676 259.965 526.962C260.233 527.246 260.463 527.411 260.666 527.459C260.795 527.491 260.918 527.467 261.01 527.389C261.101 527.311 261.162 527.189 261.199 527.03C261.309 526.555 261.219 525.72 260.896 524.573C260.887 524.543 260.855 524.524 260.823 524.532C260.792 524.54 260.773 524.571 260.782 524.601V524.601Z" fill="#2B5129"/>
<path fill-rule="evenodd" clip-rule="evenodd" d="M294.069 405.925C342.127 405.925 381.085 442.627 381.085 487.9C381.085 533.174 342.127 569.876 294.069 569.876C246.011 569.876 207.053 533.174 207.053 487.9C207.053 442.627 246.011 405.925 294.069 405.925Z" fill="#FEFEFE" fill-opacity="0.431373"/>
<path fill-rule="evenodd" clip-rule="evenodd" d="M216.802 494.381C216.801 494.774 216.483 495.091 216.09 495.09C215.698 495.09 215.38 494.771 215.381 494.379C215.381 493.986 215.7 493.668 216.093 493.669C216.485 493.67 216.802 493.988 216.802 494.381Z" fill="#FEFEFE"/>
<path fill-rule="evenodd" clip-rule="evenodd" d="M280.239 431.841C280.236 433.22 279.117 434.337 277.737 434.334C276.358 434.332 275.242 433.212 275.244 431.833C275.246 430.454 276.366 429.338 277.745 429.34C279.125 429.342 280.241 430.462 280.239 431.841Z" fill="#FEFEFE"/>
<path fill-rule="evenodd" clip-rule="evenodd" d="M354.418 449.578C354.418 450.061 354.025 450.452 353.542 450.451C353.06 450.45 352.669 450.058 352.67 449.575C352.67 449.093 353.062 448.702 353.545 448.703C354.028 448.703 354.419 449.096 354.418 449.578Z" fill="#FEFEFE"/>
<path fill-rule="evenodd" clip-rule="evenodd" d="M230.471 504.974C230.469 506.294 229.397 507.363 228.076 507.361C226.756 507.359 225.688 506.287 225.69 504.967C225.692 503.646 226.764 502.578 228.084 502.58C229.404 502.582 230.473 503.654 230.471 504.974Z" fill="#FEFEFE"/>
<path fill-rule="evenodd" clip-rule="evenodd" d="M247.453 470.568C247.451 471.62 246.597 472.471 245.545 472.47C244.493 472.468 243.642 471.614 243.643 470.562C243.645 469.51 244.499 468.659 245.551 468.66C246.603 468.662 247.454 469.516 247.453 470.568Z" fill="#FEFEFE"/>
<path fill-rule="evenodd" clip-rule="evenodd" d="M295.665 458.137C295.664 458.777 295.144 459.295 294.504 459.294C293.865 459.293 293.347 458.774 293.348 458.134C293.349 457.494 293.868 456.976 294.508 456.977C295.148 456.978 295.666 457.498 295.665 458.137Z" fill="#FEFEFE"/>
<path fill-rule="evenodd" clip-rule="evenodd" d="M355.114 508.394C355.112 509.773 353.992 510.889 352.613 510.887C351.234 510.885 350.117 509.765 350.119 508.386C350.121 507.007 351.241 505.89 352.621 505.893C354 505.895 355.116 507.015 355.114 508.394Z" fill="#FEFEFE"/>
<path fill-rule="evenodd" clip-rule="evenodd" d="M266.19 450.178C266.189 450.641 265.813 451.016 265.351 451.015C264.888 451.014 264.514 450.638 264.514 450.176C264.515 449.713 264.89 449.338 265.353 449.339C265.816 449.34 266.19 449.716 266.19 450.178Z" fill="#FEFEFE"/>
<path fill-rule="evenodd" clip-rule="evenodd" d="M325.432 468.01C325.43 469.054 324.582 469.9 323.538 469.898C322.493 469.896 321.648 469.048 321.649 468.004C321.651 466.959 322.499 466.114 323.544 466.115C324.588 466.117 325.434 466.965 325.432 468.01Z" fill="#FEFEFE"/>
<path fill-rule="evenodd" clip-rule="evenodd" d="M231.268 443.204C231.954 441.274 233.647 438.782 236.631 435.928C239.615 433.074 243.89 429.858 247.842 427.044C251.794 424.231 255.424 421.819 258.851 420.251C262.279 418.683 265.505 417.96 267.441 418.161C269.377 418.362 270.022 419.487 267.36 421.899C264.699 424.311 258.73 428.009 253.609 432.431C248.487 436.853 244.213 441.998 240.624 444.691C237.035 447.384 234.131 447.625 232.518 447.063C230.905 446.5 230.582 445.133 231.268 443.204V443.204Z" fill="#FEFEFE"/>
<path fill-rule="evenodd" clip-rule="evenodd" d="M342.802 547.414C338.785 546.734 333.725 547.164 326.435 547.627C319.146 548.089 309.627 548.584 299.567 548.964C289.506 549.344 278.904 549.609 269.678 549.692C260.452 549.774 252.603 549.674 247.829 549.854C239.094 550.276 239.314 551.686 235.4 557.724C234.519 559.083 228.877 567.674 230.02 568.673C230.9 569.443 243.507 568.906 245.388 568.885C258.905 568.773 272.653 569.767 286.313 569.858C309.88 569.981 334.205 569.48 357.694 567.91C358.89 567.829 367.138 567.566 366.146 565.643C365.641 564.663 362.069 561.439 360.919 560.03C357.144 555.406 355.661 553.377 349.82 550.015C347.443 548.645 345.615 547.971 342.802 547.414V547.414Z" fill="#AF6032"/>
<path d="M471.913 508.829H415.658V581.456H471.913V508.829Z" fill="#F8B255"/>
<path d="M471.915 508.831L491.146 498.696V571.323L471.915 581.458V508.831Z" fill="#F49C3D"/>
<path fill-rule="evenodd" clip-rule="evenodd" d="M491.983 498.362L471.922 508.665V529.492L491.983 515.173V498.362Z" fill="#F8B255"/>
<path fill-rule="evenodd" clip-rule="evenodd" d="M414.849 508.828H471.904L491.876 498.358H434.388L414.849 508.828Z" fill="#FFF7B2"/>
<path d="M471.923 508.343L414.849 508.343L414.849 528.319L471.923 528.319L471.923 508.343Z" fill="#FCCD70"/>
<path d="M449.197 508.939H438.772V582.183H449.197V508.939Z" fill="#C23E22"/>
<path fill-rule="evenodd" clip-rule="evenodd" d="M430.102 500.811L485.155 501.88L481.493 503.811L424.154 503.843L430.102 500.811Z" fill="#E76A3B"/>
<path d="M449.197 508.941H438.772L454.692 498.241H465.116L449.197 508.941Z" fill="#E76A3B"/>
<path fill-rule="evenodd" clip-rule="evenodd" d="M453.588 501.246C456.588 503.052 457.612 501.861 461.071 504.896C464.514 507.918 472.192 509.242 473.68 502.501C473.833 501.811 474.552 496.851 472.933 498.568C469.77 501.92 466.122 503.771 461.998 501.775C458.974 500.311 456.578 498.373 453.588 501.246V501.246Z" fill="#C23E22"/>
<path fill-rule="evenodd" clip-rule="evenodd" d="M453.758 500.712C457.974 495.885 469.071 482.836 473.155 494.483C473.403 495.189 475.245 500.122 473.267 498.885C469.403 496.47 465.383 495.808 461.727 499.36C459.045 501.966 457.347 502.682 453.758 500.712V500.712Z" fill="#E76A3B"/>
<path fill-rule="evenodd" clip-rule="evenodd" d="M452.338 499.131C449.051 496.193 447.637 497.346 444 492.821C440.38 488.317 431.435 484.732 428.573 492.384C428.281 493.166 426.625 498.895 428.832 497.271C433.144 494.098 437.794 492.843 442.392 496.303C445.764 498.839 448.308 501.776 452.338 499.131Z" fill="#C23E22"/>
<path fill-rule="evenodd" clip-rule="evenodd" d="M452.045 499.722C446.238 504.378 430.899 517.045 427.903 502.084C427.721 501.177 426.319 494.811 428.479 496.803C432.699 500.693 437.388 502.534 442.322 499.253C445.94 496.846 448.081 496.434 452.045 499.722Z" fill="#C23E22"/>
<path d="M453.389 497.368H450.178C448.678 497.368 447.462 498.917 447.462 500.828C447.462 502.739 448.678 504.288 450.178 504.288H453.389C454.89 504.288 456.106 502.739 456.106 500.828C456.106 498.917 454.89 497.368 453.389 497.368Z" fill="#C23E22"/>
<path d="M453.179 497.25H450.395C449.094 497.25 448.039 498.594 448.039 500.251C448.039 501.908 449.094 503.252 450.395 503.252H453.179C454.48 503.252 455.535 501.908 455.535 500.251C455.535 498.594 454.48 497.25 453.179 497.25Z" fill="#E76A3B"/>
<path d="M427.618 543.911H369.709V588.666H427.618V543.911Z" fill="#C23E22"/>
<path d="M369.711 543.909L349.915 537.664V582.418L369.711 588.664V543.909Z" fill="#F08143"/>
<path fill-rule="evenodd" clip-rule="evenodd" d="M349.053 537.46L369.703 543.809V556.642L349.053 547.819V537.46Z" fill="#E76A3B"/>
<path fill-rule="evenodd" clip-rule="evenodd" d="M428.46 543.911H369.727L349.168 537.46H408.346L428.46 543.911Z" fill="#F08143"/>
<path d="M428.454 543.911H369.702V556.221H428.454V543.911Z" fill="#B5280A"/>
<path d="M403.828 543.979H393.098V589.114H403.828V543.979Z" fill="#FCCC70"/>
<path fill-rule="evenodd" clip-rule="evenodd" d="M359.843 540.819L356.09 539.627V584.353L359.739 586.257L359.843 540.819Z" fill="#FCCC70"/>
<path fill-rule="evenodd" clip-rule="evenodd" d="M412.754 538.971L356.083 539.63L359.854 540.82L418.877 540.84L412.754 538.971Z" fill="#FFF7B2"/>
<path d="M393.093 543.979H403.823L387.436 537.386H376.705L393.093 543.979Z" fill="#F8B255"/>
<path fill-rule="evenodd" clip-rule="evenodd" d="M388.579 539.239C385.491 540.353 384.437 539.618 380.877 541.489C377.332 543.351 369.429 544.167 367.896 540.013C367.74 539.588 367 536.531 368.666 537.59C371.922 539.655 375.677 540.796 379.922 539.566C383.036 538.663 385.501 537.469 388.579 539.239Z" fill="#FCCC70"/>
<path fill-rule="evenodd" clip-rule="evenodd" d="M388.402 538.91C384.061 535.935 372.638 527.894 368.434 535.072C368.179 535.507 366.283 538.546 368.319 537.784C372.296 536.296 376.434 535.888 380.199 538.077C382.959 539.682 384.707 540.124 388.402 538.91Z" fill="#FCCC70"/>
<path fill-rule="evenodd" clip-rule="evenodd" d="M389.878 537.936C393.262 536.125 394.718 536.836 398.461 534.048C402.188 531.272 411.396 529.063 414.342 533.778C414.643 534.261 416.348 537.79 414.075 536.789C409.637 534.834 404.85 534.061 400.117 536.193C396.646 537.756 394.027 539.566 389.878 537.936Z" fill="#FCCC70"/>
<path fill-rule="evenodd" clip-rule="evenodd" d="M390.177 538.3C396.155 541.17 411.945 548.974 415.028 539.755C415.215 539.196 416.66 535.274 414.436 536.501C410.092 538.899 405.265 540.033 400.186 538.011C396.461 536.528 394.258 536.274 390.177 538.3V538.3Z" fill="#FCCC70"/>
<path d="M392.094 536.853H388.788C387.244 536.853 385.992 537.807 385.992 538.985C385.992 540.162 387.244 541.117 388.788 541.117H392.094C393.638 541.117 394.89 540.162 394.89 538.985C394.89 537.807 393.638 536.853 392.094 536.853Z" fill="#F8B255"/>
<path d="M392.094 536.853H388.788C387.244 536.853 385.992 537.807 385.992 538.985C385.992 540.162 387.244 541.117 388.788 541.117H392.094C393.638 541.117 394.89 540.162 394.89 538.985C394.89 537.807 393.638 536.853 392.094 536.853Z" fill="#F49C3D"/>
<path d="M392.154 535.925H388.849C387.305 535.925 386.053 536.879 386.053 538.057C386.053 539.235 387.305 540.189 388.849 540.189H392.154C393.699 540.189 394.95 539.235 394.95 538.057C394.95 536.879 393.699 535.925 392.154 535.925Z" fill="#FCCD70"/>
<path d="M375.134 706.198C380.001 815.718 534.919 897.793 721.153 889.518C907.387 881.242 1158.79 791.659 1153.92 682.139C1149.06 572.619 889.763 484.634 703.529 492.909C517.295 501.185 370.267 596.677 375.134 706.198Z" fill="url(#paint6_linear_1322_12964)"/>
<path fill-rule="evenodd" clip-rule="evenodd" d="M328.474 573.322C316.272 593.433 351.975 607.739 362.655 589.217C373.334 570.696 338.27 557.177 328.474 573.322Z" fill="url(#paint7_linear_1322_12964)"/>
<path fill-rule="evenodd" clip-rule="evenodd" d="M360.9 587.384C358.108 595.53 369.728 599.453 372.128 591.974C374.529 584.495 363.141 580.844 360.9 587.384Z" fill="url(#paint8_linear_1322_12964)"/>
<path fill-rule="evenodd" clip-rule="evenodd" d="M397.67 607.268C448.8 632.988 523.766 607.163 475.361 572.711C426.958 538.259 367.532 592.109 397.67 607.268V607.268Z" fill="url(#paint9_linear_1322_12964)"/>
<path d="M-202.664 707.004C-202.664 797.145 -61.0614 870.22 113.614 870.22C288.289 870.22 427.287 791.679 427.287 701.537C427.287 611.395 213.015 531.228 38.3396 531.228C-136.336 531.228 -202.664 616.862 -202.664 707.004Z" fill="url(#paint10_linear_1322_12964)"/>
<path fill-rule="evenodd" clip-rule="evenodd" d="M-16.3573 572.965C61.3739 604.234 168.707 548.905 94.0639 503.214C19.4223 457.523 -62.1759 554.536 -16.3573 572.965V572.965Z" fill="url(#paint11_linear_1322_12964)"/>
<path fill-rule="evenodd" clip-rule="evenodd" d="M93.5152 572.918C125.502 586.886 171.901 556.624 141.54 535.332C111.179 514.04 74.6608 564.686 93.5152 572.918V572.918Z" fill="url(#paint12_linear_1322_12964)"/>
<defs>
<linearGradient id="paint0_linear_1322_12964" x1="566.186" y1="59.1758" x2="480.83" y2="348.166" gradientUnits="userSpaceOnUse">
<stop stop-color="white"/>
<stop offset="1" stop-color="#E7FCF9"/>
</linearGradient>
<linearGradient id="paint1_linear_1322_12964" x1="316.278" y1="0" x2="270.391" y2="119.077" gradientUnits="userSpaceOnUse">
<stop stop-color="white"/>
<stop offset="1" stop-color="#EFFDFB"/>
</linearGradient>
<linearGradient id="paint2_linear_1322_12964" x1="1699.25" y1="520.515" x2="1738.34" y2="566.496" gradientUnits="userSpaceOnUse">
<stop stop-color="white"/>
<stop offset="1" stop-color="#EFFDFB"/>
</linearGradient>
<linearGradient id="paint3_linear_1322_12964" x1="1813.67" y1="535.874" x2="1843.8" y2="593.257" gradientUnits="userSpaceOnUse">
<stop stop-color="white"/>
<stop offset="1" stop-color="#EFFDFB"/>
</linearGradient>
<linearGradient id="paint4_linear_1322_12964" x1="346.698" y1="594.634" x2="353.58" y2="593.609" gradientUnits="userSpaceOnUse">
<stop stop-color="white"/>
<stop offset="1" stop-color="#EFFDFB"/>
</linearGradient>
<linearGradient id="paint5_linear_1322_12964" x1="500.404" y1="14.0577" x2="490.496" y2="202.321" gradientUnits="userSpaceOnUse">
<stop stop-color="#D1E7E3"/>
<stop offset="1" stop-color="white"/>
</linearGradient>
<linearGradient id="paint6_linear_1322_12964" x1="755.483" y1="490.601" x2="817.162" y2="633.291" gradientUnits="userSpaceOnUse">
<stop stop-color="white"/>
<stop offset="1" stop-color="#EFFDFB"/>
</linearGradient>
<linearGradient id="paint7_linear_1322_12964" x1="325.963" y1="581.386" x2="347.01" y2="603.813" gradientUnits="userSpaceOnUse">
<stop stop-color="white"/>
<stop offset="1" stop-color="#EFFDFB"/>
</linearGradient>
<linearGradient id="paint8_linear_1322_12964" x1="362.321" y1="589.958" x2="369.772" y2="598.035" gradientUnits="userSpaceOnUse">
<stop stop-color="white"/>
<stop offset="1" stop-color="#EFFDFB"/>
</linearGradient>
<linearGradient id="paint9_linear_1322_12964" x1="441.933" y1="561.571" x2="475.164" y2="600.651" gradientUnits="userSpaceOnUse">
<stop stop-color="white"/>
<stop offset="1" stop-color="#EFFDFB"/>
</linearGradient>
<linearGradient id="paint10_linear_1322_12964" x1="112.312" y1="531.228" x2="161.447" y2="653.505" gradientUnits="userSpaceOnUse">
<stop stop-color="white"/>
<stop offset="1" stop-color="#EFFDFB"/>
</linearGradient>
<linearGradient id="paint11_linear_1322_12964" x1="46.4153" y1="514.77" x2="94.6421" y2="566.42" gradientUnits="userSpaceOnUse">
<stop stop-color="white"/>
<stop offset="1" stop-color="#ECFAF8"/>
</linearGradient>
<linearGradient id="paint12_linear_1322_12964" x1="120.696" y1="548.681" x2="133.584" y2="572.278" gradientUnits="userSpaceOnUse">
<stop stop-color="white"/>
<stop offset="1" stop-color="#E8F8F5"/>
</linearGradient>
</defs>
</svg>
