<svg width="520" height="485" viewBox="0 0 520 485" fill="none" xmlns="http://www.w3.org/2000/svg">
<path d="M497.378 160.221L513.777 104.614C511.624 104.086 511.781 88.0438 508.677 87.5676C443.479 77.5655 173.862 94.2358 42.1949 99.4564C47.5773 119.037 40.7963 164.684 38.6407 194.19C38.132 201.153 42.4945 206.385 42.049 211.117L69.5973 228.62L46.6627 238.341L39.9448 258.685L43.266 274.421C123.176 257.804 369.057 280.962 484.234 299.842C476.448 287.679 494.65 228.724 504.361 204.634L500.557 188.056L456.277 156.351L497.378 160.221Z" fill="#A45526"/>
<path d="M509.961 88.1616C462.571 76.5562 176.315 77.535 38.379 83.0042C45.0316 107.205 40.5664 169.881 38.2331 194.665L65.7815 212.168L42.8469 221.889L39.4501 257.969C119.36 241.352 365.242 264.51 480.418 283.39C472.632 271.227 490.835 212.271 500.545 188.182L452.461 139.899L493.563 143.768L509.961 88.1616Z" fill="#C17A48"/>
<mask id="mask0_1322_14085" style="mask-type:alpha" maskUnits="userSpaceOnUse" x="38" y="79" width="472" height="205">
<path d="M509.961 88.1618C462.571 76.5564 176.315 77.5353 38.379 83.0044C45.0316 107.206 40.5664 169.882 38.2331 194.665L65.7815 212.168L42.8469 221.889L39.4501 257.969C119.36 241.352 365.242 264.51 480.418 283.39C472.632 271.227 490.835 212.272 500.545 188.182L452.461 139.899L493.563 143.769L509.961 88.1618Z" fill="#C17A48"/>
</mask>
<g mask="url(#mask0_1322_14085)">
<path d="M43.5924 98.8553C73.9401 97.0185 140.203 91.1869 173.475 101.025C206.747 110.863 265.496 92.2538 288.032 95.046C310.567 97.8381 387.183 124.496 406.333 127.64C425.483 130.784 498.401 104.122 502.201 106.491" stroke="url(#paint0_radial_1322_14085)" stroke-width="1.05955"/>
<path d="M36.8345 170.64C67.1822 168.803 133.445 162.971 166.717 172.809C199.989 182.647 258.738 164.038 281.274 166.83C303.81 169.622 382.122 178.248 401.272 181.392C420.422 184.536 491.643 175.906 495.443 178.275" stroke="url(#paint1_radial_1322_14085)" stroke-width="1.05955"/>
<path d="M34.3697 182.571C64.7174 180.734 128.894 189.946 162.165 199.784C195.437 209.622 255.099 202.681 277.635 205.473C300.171 208.265 378.484 216.891 397.634 220.035C416.784 223.179 488.004 214.549 491.805 216.918" stroke="url(#paint2_radial_1322_14085)" stroke-width="1.05955"/>
<path d="M39.6394 240.554C69.9872 238.717 118.453 222.493 151.725 232.33C184.997 242.168 246.819 226.531 269.355 229.323" stroke="url(#paint3_linear_1322_14085)" stroke-width="1.05955"/>
<path d="M39.3844 129.304C69.7321 127.468 154.348 111.876 187.62 121.714C220.892 131.552 15.2298 143.707 37.7657 146.499" stroke="url(#paint4_linear_1322_14085)" stroke-width="1.05955"/>
<path d="M482.682 245.093C452.28 244.85 366.963 233.716 334.253 245.285C301.542 256.854 507.559 258.21 485.2 262.179" stroke="url(#paint5_linear_1322_14085)" stroke-width="1.05955"/>
</g>
<path d="M294.595 274.615L224.806 268.045L219.398 446.573L273.313 465.059L294.595 274.615Z" fill="#A45526"/>
<path d="M287.119 268.546L217.33 261.976L211.922 440.504L265.837 458.991L287.119 268.546Z" fill="#C17A48"/>
<path fill-rule="evenodd" clip-rule="evenodd" d="M433.693 69.4722C461.358 51.1617 529.479 66.8453 504.838 93.0256C480.199 119.206 417.385 80.2637 433.693 69.4722Z" fill="url(#paint6_linear_1322_14085)"/>
<path fill-rule="evenodd" clip-rule="evenodd" d="M112.874 83.2497C114.111 72.7815 100.389 67.4886 85.5057 66.9587C66.1658 66.2702 58.7516 68.1202 53.3784 69.9355C43.4987 73.2733 37.1422 83.1601 36.9231 89.3152C36.3569 105.217 112.107 89.7414 112.874 83.2497Z" fill="url(#paint7_linear_1322_14085)"/>
<path fill-rule="evenodd" clip-rule="evenodd" d="M406.616 85.8385C425.187 98.0299 451.584 91.5949 435.205 72.9853C418.828 54.3759 395.67 78.6535 406.616 85.8385Z" fill="#FEFEFE"/>
<path fill-rule="evenodd" clip-rule="evenodd" d="M80.5361 231.6C66.469 229.671 51.3781 245.052 65.5756 249.773C79.7725 254.494 88.8277 232.736 80.5361 231.6Z" fill="#FEFEFE"/>
<path fill-rule="evenodd" clip-rule="evenodd" d="M56.824 224.904C56.0754 230.24 67.5284 229 68.2263 225.326C68.9239 221.651 57.5427 219.777 56.824 224.904Z" fill="#FEFEFE"/>
<g filter="url(#filter0_i_1322_14085)">
<path d="M172.922 190.43C183.547 195.463 181.152 183.325 178.851 181.405C169.335 173.452 152.551 190.362 159.433 206.075C166.317 221.724 181.929 210.382 181.929 210.382C181.929 210.382 182.169 206.709 180.946 207.943C172.166 214.376 165.326 211.334 163.873 203.831C162.111 194.697 172.112 180.308 176.103 183.407C178.162 184.992 172.922 190.43 172.922 190.43V190.43ZM206.666 188.099C208.609 183.991 204.964 181.748 201.157 181.566C197.802 181.406 194.034 181.743 189.519 186.892C183.296 193.964 184.453 206.301 187.236 210.313C196.893 223.443 211.692 203.401 209.812 195.36C214.47 193.967 213.669 191.795 213.669 191.795C208.205 192.439 205.403 188.815 205.403 188.815L199.795 191.133C202.784 192.18 205.436 198.965 201.409 207.435C197.241 216.156 185.752 212.957 191.521 197.783C196.999 183.307 206.666 188.099 206.666 188.099V188.099ZM213.703 188.371C213.884 188.638 213.952 188.577 214.133 188.844C216.933 187.103 219.373 186.121 219.145 190.894C218.932 195.343 214.646 216.018 214.646 216.018C217.651 216.743 220.312 217.904 220.312 217.904C222.384 212.444 221.143 204.564 230.074 203.116C234.52 202.1 232.127 219.697 236.484 221.909C243.534 224.638 248.303 216.85 248.303 216.85L247.95 216.122C247.95 216.122 245.645 218.339 242.575 217.611C235.047 214.083 242.901 199.979 234.007 199.296C231.675 199.378 229.782 199.74 228.412 199.998C229.654 195.662 233.538 190.159 236.36 186.609C243.862 177.142 243.766 185.929 243.76 186.058C247.993 192.207 256.335 180.065 243.229 179.568C233.611 179.174 228.154 193.198 224.426 200.842C225.514 192.943 227.073 187.393 223.672 185.486C218.912 182.22 213.703 188.371 213.703 188.371V188.371ZM242.021 250.874C242.021 250.874 249.5 254.076 249.332 252.193C247.367 233.741 253.095 212.683 256.784 200.448C259.544 191.401 266.784 188.774 268.741 192.487C269.159 193.218 269.46 195.042 269.476 197.435C265.686 199.581 262.131 202.256 260.403 204.565C257.222 208.873 254.876 217.358 260.122 218.578C263.895 219.47 271.086 216.516 274.25 204.45C274.899 201.702 275.344 199.137 275.452 196.88C277.376 195.873 278.762 195.293 278.762 195.293L278.977 193.493C277.932 193.702 276.685 194.095 275.431 194.617C275.294 189.374 273.459 185.796 270.553 184.364C264.426 182.65 259.256 189.319 259.256 189.319L258.922 185.489L253.099 184.177L242.021 250.874V250.874ZM261.383 208.425C262.557 205.508 265.864 202.628 269.269 200.399C268.879 204.517 267.677 209.372 265.26 212.554C260.226 219.1 259.545 213.056 261.383 208.425V208.425ZM300.946 192.604C302.888 188.495 299.244 186.252 295.437 186.07C292.081 185.91 288.314 186.247 283.799 191.397C277.575 198.468 278.732 210.805 281.516 214.817C291.173 227.947 305.971 207.905 304.092 199.864C308.751 198.471 307.949 196.3 307.949 196.3C302.485 196.944 299.683 193.319 299.683 193.319L294.074 195.637C297.064 196.685 299.715 203.469 295.689 211.939C291.521 220.66 280.031 217.461 285.802 202.287C291.279 187.811 300.946 192.604 300.946 192.604V192.604ZM321.788 182.804C321.705 181.831 327.657 158.78 333.64 159.453C339.236 160.109 334.071 177.509 321.788 182.804ZM302.948 180.482C302.134 179.926 301.823 185.082 302.836 185.519C306.764 187.258 309.296 187.055 313.266 186.534C308.592 207.19 310.467 230.227 326.875 221.185C330.394 219.285 333.264 214.703 334.915 211.291C337.352 206.302 337.067 200.082 335.949 196.409C338.242 195.808 339.889 193.818 339.889 193.818L339.032 192.807C337.809 194.042 336.377 194.232 335.024 194.103C332.708 189.79 328.649 189.467 324.847 193.229C322.404 195.633 326.309 199.181 329.305 197.385C329.305 197.385 331.317 204.009 330.177 208.932C328.064 217.946 323.915 223.565 320.157 219.636C313.813 212.998 321.323 185.756 321.323 185.756C330.518 184.191 346.333 168.593 340.007 160.21C336.36 155.317 327.71 156.326 323.941 162.093C319.829 168.296 316.211 174.975 313.909 183.915C310.995 183.969 308.457 184.301 302.948 180.482V180.482ZM371.439 219.824C371.325 219.495 371.257 219.557 371.076 219.289C368.098 220.699 365.603 221.485 366.283 216.733C366.947 212.305 373.191 192.63 373.191 192.63C370.588 191.6 367.946 188.694 367.946 188.694C364.933 193.527 356.578 216.787 352.295 215.742C350.359 215.649 351.401 210.075 352.238 204.751C353.336 198.016 355.909 188.83 352.495 187.18C346.503 183.985 342.892 190.535 342.022 191.14L342.888 191.957C342.888 191.957 344.96 189.212 347.95 190.26C348.884 191.015 347.015 199.006 345.895 206.192C344.606 214.211 341.726 223.058 349.651 222.338C354.924 222.978 363.829 204.464 363.829 204.464C362.563 207.959 359.676 216.935 363.077 221.558C367.492 225.26 371.439 219.824 371.439 219.824ZM415.574 228.785C411.001 228.372 406.807 226.814 398.962 227.215C382.039 228.087 382.471 240.713 382.471 240.713C386.804 238.011 391.823 233.144 416.206 233.145C421.99 232.582 422.778 224.216 424.28 222.543C424.615 222.3 424.818 222.116 424.818 222.116C424.705 221.787 424.659 221.397 424.477 221.13C421.499 222.539 416.143 223.64 416.823 218.889C417.487 214.461 423.731 194.785 423.731 194.785C421.128 193.756 418.486 190.85 418.486 190.85C414.979 195.207 406.682 218.599 402.893 218.03C400.957 217.938 400.267 213.444 401.103 208.119C404.266 196.053 405.549 192.236 405.549 192.236C402.946 191.207 399.64 190.014 399.64 190.014C396.133 194.372 389.962 216.572 386.174 216.003C384.238 215.911 384.893 211.675 385.73 206.351C386.827 199.616 389.4 190.43 385.987 188.781C379.995 185.585 376.66 193.118 375.514 192.741L376.38 193.557C376.38 193.557 378.452 190.812 381.441 191.86C382.375 192.616 380.506 200.607 379.387 207.792C378.098 215.811 375.217 224.659 383.142 223.938C388.222 224.569 396.746 207.265 397.25 206.19C395.624 210.443 392.645 222.712 400.624 224.903C406.617 225.383 413.118 209.792 414.218 207.065C412.875 210.815 410.336 219.29 413.617 223.714C416.106 225.772 419.375 225.023 421.689 223.97C420.688 225.991 419.446 228.97 415.574 228.785V228.785Z" fill="#874118"/>
</g>
<g filter="url(#filter1_i_1322_14085)">
<path d="M377.924 108.58C379.661 108.856 383.37 108.612 386.907 107.687C386.133 106.915 385.418 106.347 384.763 105.915C380.792 102.855 366.353 99.212 366.657 103.123C366.493 106.948 373.56 108.393 377.924 108.58V108.58ZM359.341 131.041C359.92 128.512 363.028 126.628 373.991 128.174C378.405 128.765 382.191 129.869 385.555 131.425C389.272 129.433 392.086 126.528 392.7 123.194C393.516 116.709 391.704 113.472 389.031 109.93L386.784 110.572C376.433 113.557 365.874 110.417 362.384 107.108C359.022 103.939 361.888 99.8274 369.441 99.3443C375.915 98.9493 383.508 100.686 390.382 106.626C393.598 105.352 395.771 103.295 395.221 100.448C394.095 93.7452 381.116 95.2732 381.116 95.2732L380.924 95.0633C390.843 92.732 395.857 96.5766 397.099 98.9824C398.347 101.254 398.303 105.42 392.591 108.469C401.942 116.263 399.134 125.284 397.56 127.502C396.301 130.204 393.783 132.449 390.682 134.198C396.108 137.859 400.004 142.663 403.07 148.037C411.05 161.15 400.67 172.67 400.67 172.67C400.67 172.67 388.298 189.886 365.771 181.931C343.537 173.451 349.519 159.389 349.519 159.389C357.118 178.267 385.184 182.493 393.564 165.846C397.143 157.664 395.565 150.539 392.832 145.247C390.36 141.713 387.93 138.786 385.269 136.521C373.603 140.39 358.533 138.938 359.341 131.041ZM371.243 134.24C374.323 134.573 377.632 134.244 380.629 133.364C377.934 131.905 375.015 130.973 371.67 130.561C369.261 130.256 365.074 130.682 364.695 131.674C364.5 133.077 368.497 133.987 371.243 134.24Z" fill="#E63535"/>
</g>
<g filter="url(#filter2_i_1322_14085)">
<path d="M129.969 102.459C130.617 106.497 134.852 105.86 135.639 102.923C135.956 101.71 135.341 99.6774 133.212 99.5756C130.243 99.4338 129.969 102.459 129.969 102.459V102.459ZM139.167 102.187C139.814 106.226 144.049 105.588 144.836 102.652C145.153 101.439 144.539 99.4057 142.409 99.304C139.44 99.1621 139.167 102.187 139.167 102.187V102.187ZM134.903 112.908C133.216 113.021 128.988 112.173 125.681 110.981C126.49 110.308 127.163 109.758 128.742 109.187C134.065 107.438 144.814 107.175 144.998 110.094C144.823 113.77 139.098 113.108 134.903 112.908V112.908ZM150.019 134.962C149.685 132.489 146.873 130.416 136.241 130.942C131.963 131.125 128.242 131.852 124.886 133.05C121.5 130.819 119.057 127.794 118.76 124.547C118.542 118.267 120.559 115.325 123.426 112.165L125.522 112.977C134.666 116.517 143.716 116.625 148.194 112.25C151.381 109.17 146.63 107.068 144.642 106.715C136.622 105.362 130.095 105.244 122.799 109.033C119.831 107.534 117.548 105.227 118.323 102.549C119.983 96.2288 132.278 98.8199 132.278 98.8199L132.48 98.6358C123.185 95.5414 118.05 98.7864 116.651 100.982C115.259 103.049 114.939 107.041 120.144 110.457C110.513 117.108 112.417 125.99 113.732 128.25C114.702 130.947 116.918 133.315 119.735 135.259C114.222 138.293 110.073 142.555 106.671 147.435C97.8902 159.297 106.828 171.23 106.828 171.23C106.828 171.23 117.178 188.789 139.439 183.13C161.467 176.943 156.96 162.959 156.96 162.959C148.043 180.374 120.802 181.981 114.225 165.313C111.509 157.168 113.64 150.482 116.716 145.652C119.39 142.483 121.972 139.892 124.717 137.954C135.551 142.673 150.107 142.593 150.019 134.962V134.962ZM138.345 136.989C135.367 137.041 132.227 136.438 129.433 135.335C132.141 134.172 135.017 133.534 138.256 133.43C140.588 133.347 144.562 134.119 144.838 135.102C144.903 136.462 140.997 136.987 138.345 136.989V136.989ZM183.425 160.022C182.165 162.03 179.666 162.88 178.545 161.987C173.595 157.29 174.153 140.187 175.163 131.25C175.163 131.25 158.243 130.7 157.724 132.097C157.724 132.097 157.441 133.958 158.817 134.929C160.314 134.742 161.749 134.488 161.733 134.81C160.542 152.982 158.402 158.503 154.321 162.704C148.743 168.449 134.463 168.155 131.216 163.022C129.943 162.573 134.828 176.769 151.065 172.632C163.677 168.581 167.292 136.239 167.311 134.494C168.282 134.476 168.285 134.412 168.995 134.446C164.931 165.344 174.104 165.588 178.627 165.675C180.364 165.887 182.923 163.747 184.605 161.048L183.425 160.022ZM204.981 137.975C206.924 133.867 203.279 131.624 199.472 131.442C196.117 131.282 192.349 131.618 187.834 136.768C181.611 143.84 182.768 156.177 185.551 160.188C195.208 173.319 210.007 153.276 208.127 145.236C212.785 143.842 211.984 141.671 211.984 141.671C206.52 142.315 203.718 138.69 203.718 138.69L198.11 141.008C201.099 142.056 203.751 148.841 199.724 157.31C195.556 166.031 184.067 162.832 189.837 147.658C195.314 133.182 204.981 137.975 204.981 137.975V137.975ZM229.54 141.087C229.211 141.201 219.123 161.469 226.5 165.441C236.149 170.621 240.505 153.893 240.505 153.893L239.758 153.276C238.114 157.916 231.998 164.088 230.376 157.417C228.672 151.13 233.163 139.709 234.647 137.065C236.706 134.578 232.936 132.265 232.936 132.265C227.699 141.711 216.792 143.904 219.141 136.712C221.535 136.697 222.605 134.616 222.605 134.616C225.703 127.976 216.995 123.423 215.055 134.255C215.048 134.384 214.978 134.509 214.971 134.639C213.137 135.133 211.244 135.495 211.244 135.495L211.038 137.101C212.261 137.224 213.693 137.034 214.867 136.832C214.462 152.067 228.23 141.413 229.54 141.087V141.087ZM240.863 139.625C241.045 139.892 241.112 139.83 241.294 140.098C244.093 138.357 246.533 137.375 246.305 142.147C246.093 146.597 241.806 167.271 241.806 167.271C244.812 167.997 247.472 169.158 247.472 169.158C249.544 163.698 248.304 155.817 257.234 154.369C261.681 153.354 259.288 170.951 263.645 173.163C270.694 175.891 275.464 168.104 275.464 168.104L275.111 167.376C275.111 167.376 272.806 169.592 269.736 168.864C262.208 165.337 270.061 151.233 261.168 150.55C258.835 150.632 256.943 150.994 255.572 151.252C256.814 146.916 260.699 141.413 263.52 137.863C271.022 128.396 270.926 137.182 270.92 137.312C275.154 143.46 283.495 131.319 270.389 130.822C260.771 130.427 255.315 144.452 251.586 152.096C252.675 144.196 254.234 138.647 250.832 136.74C246.073 133.474 240.863 139.625 240.863 139.625V139.625ZM296.932 141.14C287.279 121.157 261.751 157.3 280.104 168.455C286.452 172.313 292.784 158.912 292.784 158.912C292.784 158.912 290.453 169.789 298.37 169.263C301.808 169.039 303.456 165.692 304.138 163.591L303.889 163.385C298.157 170.998 295.97 161.262 296.075 159.069C296.186 156.747 297.737 144.605 297.737 144.605L293.536 143.175C293.536 143.175 291.801 157.831 288.168 162.117C285.906 164.789 279.08 169.569 280.588 158.329C283.983 135.996 296.873 142.365 296.932 141.14V141.14Z" fill="#874118"/>
</g>
<path fill-rule="evenodd" clip-rule="evenodd" d="M208.834 500.948C334.013 551.305 506.864 462.203 386.657 388.621C266.454 315.039 135.047 471.27 208.834 500.948V500.948Z" fill="url(#paint8_linear_1322_14085)"/>
<path fill-rule="evenodd" clip-rule="evenodd" d="M379.222 512.568C448.042 543.989 504.945 501.644 461.753 458.237C403.495 407.336 338.656 494.05 379.222 512.568Z" fill="url(#paint9_linear_1322_14085)"/>
<defs>
<filter id="filter0_i_1322_14085" x="157.82" y="157.081" width="266.998" height="95.7051" filterUnits="userSpaceOnUse" color-interpolation-filters="sRGB">
<feFlood flood-opacity="0" result="BackgroundImageFix"/>
<feBlend mode="normal" in="SourceGraphic" in2="BackgroundImageFix" result="shape"/>
<feColorMatrix in="SourceAlpha" type="matrix" values="0 0 0 0 0 0 0 0 0 0 0 0 0 0 0 0 0 0 127 0" result="hardAlpha"/>
<feOffset dy="1.05955"/>
<feComposite in2="hardAlpha" operator="arithmetic" k2="-1" k3="1"/>
<feColorMatrix type="matrix" values="0 0 0 0 0 0 0 0 0 0 0 0 0 0 0 0 0 0 0.25 0"/>
<feBlend mode="normal" in2="shape" result="effect1_innerShadow_1322_14085"/>
</filter>
<filter id="filter1_i_1322_14085" x="348.786" y="94.3403" width="57.2998" height="89.6899" filterUnits="userSpaceOnUse" color-interpolation-filters="sRGB">
<feFlood flood-opacity="0" result="BackgroundImageFix"/>
<feBlend mode="normal" in="SourceGraphic" in2="BackgroundImageFix" result="shape"/>
<feColorMatrix in="SourceAlpha" type="matrix" values="0 0 0 0 0 0 0 0 0 0 0 0 0 0 0 0 0 0 127 0" result="hardAlpha"/>
<feOffset dy="1.05955"/>
<feComposite in2="hardAlpha" operator="arithmetic" k2="-1" k3="1"/>
<feColorMatrix type="matrix" values="0 0 0 0 0 0 0 0 0 0 0 0 0 0 0 0 0 0 0.25 0"/>
<feBlend mode="normal" in2="shape" result="effect1_innerShadow_1322_14085"/>
</filter>
<filter id="filter2_i_1322_14085" x="102.809" y="97.3625" width="201.329" height="86.8914" filterUnits="userSpaceOnUse" color-interpolation-filters="sRGB">
<feFlood flood-opacity="0" result="BackgroundImageFix"/>
<feBlend mode="normal" in="SourceGraphic" in2="BackgroundImageFix" result="shape"/>
<feColorMatrix in="SourceAlpha" type="matrix" values="0 0 0 0 0 0 0 0 0 0 0 0 0 0 0 0 0 0 127 0" result="hardAlpha"/>
<feOffset dy="1.05955"/>
<feComposite in2="hardAlpha" operator="arithmetic" k2="-1" k3="1"/>
<feColorMatrix type="matrix" values="0 0 0 0 0 0 0 0 0 0 0 0 0 0 0 0 0 0 0.25 0"/>
<feBlend mode="normal" in2="shape" result="effect1_innerShadow_1322_14085"/>
</filter>
<radialGradient id="paint0_radial_1322_14085" cx="0" cy="0" r="1" gradientUnits="userSpaceOnUse" gradientTransform="translate(76.8742 101.465) rotate(2.08896) scale(174.531 2250.18)">
<stop stop-color="#AF6032"/>
<stop offset="1" stop-color="#AF6032" stop-opacity="0.32"/>
</radialGradient>
<radialGradient id="paint1_radial_1322_14085" cx="0" cy="0" r="1" gradientUnits="userSpaceOnUse" gradientTransform="translate(-10.9722 165.615) rotate(1.16774) scale(545.566 7015.1)">
<stop stop-color="#AF6032"/>
<stop offset="0.555241" stop-color="#AF6032" stop-opacity="0.36"/>
<stop offset="1" stop-color="#AF6032"/>
</radialGradient>
<radialGradient id="paint2_radial_1322_14085" cx="0" cy="0" r="1" gradientUnits="userSpaceOnUse" gradientTransform="translate(67.0537 192.571) rotate(3.89863) scale(174.81 1015.59)">
<stop stop-color="#AF6032"/>
<stop offset="1" stop-color="#AF6032" stop-opacity="0.32"/>
</radialGradient>
<linearGradient id="paint3_linear_1322_14085" x1="95.9886" y1="212.507" x2="226.971" y2="309.358" gradientUnits="userSpaceOnUse">
<stop stop-color="#AF6032"/>
<stop offset="1" stop-color="#AF6032" stop-opacity="0"/>
</linearGradient>
<linearGradient id="paint4_linear_1322_14085" x1="75.4584" y1="109.379" x2="186.213" y2="158.027" gradientUnits="userSpaceOnUse">
<stop stop-color="#AF6032"/>
<stop offset="1" stop-color="#AF6032" stop-opacity="0"/>
</linearGradient>
<linearGradient id="paint5_linear_1322_14085" x1="445.613" y1="227.086" x2="337.561" y2="281.474" gradientUnits="userSpaceOnUse">
<stop stop-color="#AF6032"/>
<stop offset="1" stop-color="#AF6032" stop-opacity="0"/>
</linearGradient>
<linearGradient id="paint6_linear_1322_14085" x1="471.152" y1="65.1718" x2="448.576" y2="95.1654" gradientUnits="userSpaceOnUse">
<stop stop-color="white"/>
<stop offset="1" stop-color="#EFFDFB"/>
</linearGradient>
<linearGradient id="paint7_linear_1322_14085" x1="65.2534" y1="83.8531" x2="96.846" y2="103.826" gradientUnits="userSpaceOnUse">
<stop stop-color="white"/>
<stop offset="1" stop-color="#E5FDF9"/>
</linearGradient>
<linearGradient id="paint8_linear_1322_14085" x1="271.858" y1="405.962" x2="334.822" y2="480.01" gradientUnits="userSpaceOnUse">
<stop stop-color="white"/>
<stop offset="1" stop-color="#E1FAF6"/>
</linearGradient>
<linearGradient id="paint9_linear_1322_14085" x1="410.17" y1="449.093" x2="440.223" y2="501.658" gradientUnits="userSpaceOnUse">
<stop stop-color="white"/>
<stop offset="1" stop-color="#E8F8F5"/>
</linearGradient>
</defs>
</svg>
