<svg width="1920" height="541" viewBox="0 0 1920 541" fill="none" xmlns="http://www.w3.org/2000/svg">
<path d="M1423.58 272.1C1423.58 370.005 1627.31 449.373 1878.61 449.373C2129.91 449.373 2333.63 370.005 2333.63 272.1C2333.63 174.194 2129.91 61.8843 1878.61 61.8843C1627.31 61.8843 1423.58 174.194 1423.58 272.1Z" fill="url(#paint0_linear_1322_13640)"/>
<path fill-rule="evenodd" clip-rule="evenodd" d="M1752.42 35.9573C1755.05 32.3179 1766 18.6687 1766.33 1.48054C1773.54 2.38084 1788.62 39.8074 1784.3 41.9566C1780.92 43.6391 1776.62 37.1716 1776.62 37.1716C1776.53 41.8078 1794.67 64.4959 1792.79 69.7167C1790.91 74.9375 1785.47 71.9413 1781.44 70.2026C1793.13 82.1336 1805.56 102.083 1802.81 105.372C1800.06 108.661 1794.16 102.382 1794.16 102.382C1794.16 102.382 1799.89 109.123 1797.41 110.502C1795.7 111.449 1792.05 108.489 1792.05 108.489C1792.05 108.489 1803.55 123.716 1802.39 127.233C1801.83 128.959 1797.95 127.148 1797.95 127.148C1797.95 127.148 1813.48 143.513 1813.39 148.438C1813.29 153.363 1804.89 146.963 1804.89 146.963C1805.67 148.443 1810.22 155.132 1807.96 155.089C1804.11 155.169 1792.35 148.035 1792.35 148.035C1792.35 148.035 1803.23 161.632 1786.85 161.319C1785.88 161.3 1777.94 160.136 1772.76 156.753C1773.12 158.399 1773.24 162.468 1771.55 162.435C1769.86 162.403 1768.41 161.455 1767.12 159.197C1767.11 159.885 1766.61 163.322 1763.78 164.254C1757.94 166.172 1752.57 153.5 1752.57 153.5C1752.57 153.5 1752.36 160.122 1749.18 160.061C1746.01 160.001 1746.68 153.388 1746.68 153.388C1723.66 168.338 1725.73 154.015 1730.84 140.669C1728.71 142.239 1717.62 152.052 1716.15 147.778C1715.53 145.954 1717.17 143.583 1719.43 140.14C1717.47 141.949 1706.77 150.446 1702.77 146.322C1701.46 144.975 1720.34 128.392 1720.36 127.012C1716.5 130.004 1701.57 131.096 1716.66 121.171C1723.04 116.979 1728.65 112.726 1731.59 101.186C1731.59 101.186 1729.06 104.178 1727.22 101.893C1726.3 98.5704 1737.38 84.8153 1745.31 71.1732C1743.33 73.2478 1740.17 76.2351 1737.58 74.5008C1734.98 72.7665 1741.15 65.4983 1741.15 65.4983C1741.15 65.4983 1735.95 69.7018 1734.71 67.4417C1731.58 61.7636 1755.92 49.5815 1756.08 41.4167C1755.26 42.6547 1751.52 45.1739 1750.12 42.5563C1748.9 40.2995 1751.15 37.7224 1752.42 35.9573Z" fill="#3F693E"/>
<path fill-rule="evenodd" clip-rule="evenodd" d="M1765.85 26.2389C1767.09 21.5828 1768.54 10.8594 1766.33 1.48045C1773.54 2.38074 1788.62 39.8073 1784.3 41.9565C1780.93 43.639 1776.62 37.1715 1776.62 37.1715C1776.53 41.8077 1794.67 64.4959 1792.79 69.7166C1790.91 74.9374 1785.47 71.9412 1781.44 70.2025C1793.13 82.1335 1805.56 102.083 1802.81 105.372C1800.06 108.661 1794.16 102.382 1794.16 102.382C1794.16 102.382 1799.89 109.123 1797.41 110.502C1795.7 111.449 1792.05 108.489 1792.05 108.489C1792.05 108.489 1803.55 123.715 1802.39 127.233C1801.83 128.959 1797.95 127.148 1797.95 127.148C1797.95 127.148 1813.48 143.512 1813.39 148.437C1813.29 153.362 1804.89 146.963 1804.89 146.963C1805.67 148.443 1810.22 155.132 1807.96 155.089C1804.11 155.169 1792.35 148.035 1792.35 148.035C1792.35 148.035 1803.23 161.632 1786.85 161.319C1785.88 161.3 1777.94 160.135 1772.76 156.752C1773.12 158.399 1773.24 162.468 1771.55 162.435C1769.86 162.403 1768.41 161.455 1767.12 159.197C1767.11 159.885 1766.61 163.322 1763.78 164.254C1757.94 166.172 1756.28 147.474 1756.28 147.474C1737.92 153.749 1743.62 145.396 1746.15 139.789C1746.15 139.789 1741.82 143.144 1740.35 138.87C1739.73 137.046 1744.09 132.383 1746.36 128.94C1744.4 130.749 1733.31 137.631 1729.3 133.507C1728 132.161 1744.54 119.273 1744.57 117.893C1740.7 120.885 1724.86 121.065 1739.96 111.14C1743.29 108.947 1745.64 106.375 1745.69 103.697C1739.26 105.005 1745.84 95.7272 1745.86 94.9982C1745.86 94.9982 1743.97 97.2114 1742.13 94.9269C1739.93 90.8182 1748.36 78.8131 1752.74 68.5993C1752.74 68.5993 1757.17 76.3965 1761.14 74.7625C1765.1 73.1285 1763.2 65.0996 1763.22 64.0045C1763.61 64.5708 1764.27 67.9629 1766.78 67.3588C1769.71 66.6529 1767.4 53.7776 1766.47 52.4577C1766.01 61.1176 1764.1 64.0237 1761.11 56.1328C1762.54 65.6545 1761.07 65.7515 1760.04 66.7294C1758.67 67.5379 1756.05 65.1862 1755.8 62.183C1752.82 50.4908 1765.62 38.3767 1765.62 38.3767C1764.32 39.7221 1761.4 40.8867 1760 38.2692C1758.79 36.0123 1764.62 30.895 1765.85 26.2389Z" fill="#5C885C"/>
<path d="M1752.1 103.423C1748.89 101.881 1750.86 95.8112 1751.42 90.3621C1751.68 93.0551 1752.68 98.4696 1754.63 98.5835C1756.93 98.7181 1758.88 95.4247 1759.09 94.8969C1759.1 94.8758 1759.1 94.8547 1759.11 94.8338C1759.11 94.8444 1759.1 94.8659 1759.09 94.8969C1758.01 98.5327 1759.88 105.109 1761.79 105.145C1763.32 105.174 1764.36 101.359 1764.68 99.447C1765.69 101.672 1768.25 105.959 1770.38 105.309C1771.53 104.961 1771.74 103.117 1771.55 101.044C1771.29 99.1972 1770.91 97.3537 1770.56 95.9738C1770.95 97.2908 1771.4 99.2531 1771.55 101.044C1772.07 104.728 1772.1 108.427 1770.32 108.491C1767.66 108.588 1766.18 105.759 1765.78 104.333C1765.37 105.96 1763.76 109.236 1760.5 109.321C1757.24 109.407 1756.9 103.947 1757.14 101.206C1756.53 102.459 1754.67 104.657 1752.1 103.423Z" fill="#3F693E"/>
<path d="M1780.97 138.341C1778.32 137.42 1777.67 130.997 1777.68 127.902C1777.68 127.902 1779.89 133.68 1782.57 134.091C1784.76 134.425 1785.64 129.215 1785.64 129.215C1785.64 129.215 1788.31 140.186 1792.01 137.827C1793.58 136.822 1792.85 131.747 1792.85 131.747C1792.85 131.747 1797.55 137.289 1800.16 136.191C1802.75 135.107 1798.18 127.336 1798.18 127.336C1800 129.297 1805.32 133.931 1804.17 136.463C1802.73 139.628 1795.17 135.42 1795.16 136.291C1795.14 137.161 1795.6 143.338 1791.89 144.138C1788.91 144.777 1785.93 138.388 1785.52 135.526C1785.15 137.333 1783.62 139.263 1780.97 138.341Z" fill="#3F693E"/>
<path fill-rule="evenodd" clip-rule="evenodd" d="M1797.54 127.034C1799.58 130.489 1800.56 133.138 1800.6 134.657C1800.61 135.168 1800.52 135.541 1800.36 135.771C1800.19 136 1799.97 136.117 1799.61 136.131C1799.05 136.149 1798.2 135.849 1797.11 135.163C1796.01 134.478 1794.68 133.416 1793.12 131.942C1793.06 131.885 1792.97 131.871 1792.89 131.906C1792.82 131.941 1792.77 132.017 1792.78 132.098C1792.78 132.099 1792.79 132.209 1792.81 132.404C1792.82 132.599 1792.83 132.877 1792.84 133.206C1792.87 134.078 1792.84 135.315 1792.61 136.318C1792.49 136.819 1792.32 137.261 1792.1 137.563C1791.87 137.866 1791.61 138.028 1791.26 138.04C1791.01 138.046 1790.7 137.968 1790.31 137.759C1788.63 136.852 1787.56 134.707 1786.94 132.777C1786.63 131.814 1786.43 130.908 1786.31 130.244C1786.25 129.911 1786.2 129.64 1786.18 129.452C1786.15 129.263 1786.14 129.161 1786.14 129.161C1786.13 129.067 1786.05 128.994 1785.95 128.989C1785.86 128.983 1785.77 129.045 1785.74 129.137C1785.74 129.137 1785.73 129.211 1785.69 129.343C1785.56 129.808 1785.21 130.978 1784.66 132.026C1784.39 132.549 1784.06 133.04 1783.71 133.394C1783.35 133.75 1782.97 133.959 1782.57 133.97L1782.47 133.968C1782.01 133.949 1781.46 133.559 1780.92 132.94C1780.11 132.017 1779.34 130.629 1778.78 129.478C1778.5 128.902 1778.27 128.385 1778.11 128.012C1777.95 127.639 1777.87 127.413 1777.87 127.412C1777.83 127.312 1777.71 127.262 1777.61 127.299C1777.5 127.337 1777.45 127.448 1777.49 127.548C1777.49 127.553 1778.13 129.196 1779.05 130.864C1779.51 131.699 1780.05 132.539 1780.61 133.188C1781.18 133.834 1781.78 134.309 1782.44 134.353L1782.58 134.355C1783.2 134.337 1783.73 133.975 1784.16 133.485C1784.81 132.746 1785.3 131.687 1785.63 130.807C1785.96 129.928 1786.13 129.23 1786.13 129.225L1785.94 129.181L1785.74 129.202C1785.74 129.209 1785.93 130.926 1786.56 132.893C1787.2 134.857 1788.27 137.085 1790.12 138.096C1790.54 138.327 1790.92 138.434 1791.27 138.425C1791.76 138.414 1792.15 138.156 1792.42 137.786C1792.83 137.231 1793.03 136.421 1793.14 135.578C1793.25 134.736 1793.26 133.862 1793.24 133.195C1793.23 132.524 1793.18 132.064 1793.18 132.061L1792.98 132.079L1792.84 132.217C1794.41 133.703 1795.76 134.78 1796.89 135.486C1798.02 136.19 1798.91 136.532 1799.62 136.517C1800.07 136.508 1800.45 136.323 1800.69 135.988C1800.92 135.655 1801.01 135.204 1801 134.647C1800.95 132.994 1799.94 130.331 1797.89 126.844C1797.83 126.751 1797.71 126.719 1797.62 126.771C1797.52 126.824 1797.49 126.942 1797.54 127.034V127.034Z" fill="#2B5129"/>
<path d="M1755.91 62.8461C1756.37 64.2797 1757.96 67.0832 1759.56 66.9033C1763.4 66.4721 1761.16 59.337 1761.2 55.9238C1761.59 57.6113 1762.63 60.7092 1764.14 60.6974C1765.99 60.6831 1766.31 55.1648 1766.41 52.4366" stroke="#2B5129" stroke-width="0.4"/>
<path fill-rule="evenodd" clip-rule="evenodd" d="M1770.68 95.7737C1771.7 99.6521 1771.93 102.47 1771.55 103.942C1771.43 104.437 1771.24 104.77 1771.02 104.947C1770.79 105.122 1770.55 105.174 1770.2 105.09C1769.66 104.957 1768.92 104.435 1768.05 103.477C1767.19 102.521 1766.19 101.136 1765.09 99.2931C1765.05 99.2226 1764.97 99.1839 1764.89 99.1969C1764.8 99.21 1764.74 99.2717 1764.73 99.3513C1764.73 99.3519 1764.71 99.4608 1764.67 99.6524C1764.63 99.8435 1764.57 100.115 1764.48 100.434C1764.27 101.28 1763.91 102.463 1763.41 103.365C1763.16 103.816 1762.88 104.194 1762.58 104.424C1762.28 104.653 1761.99 104.739 1761.65 104.655C1761.4 104.593 1761.12 104.432 1760.81 104.127C1759.44 102.796 1758.99 100.441 1758.92 98.4166C1758.89 97.4054 1758.94 96.478 1759 95.8055C1759.03 95.469 1759.07 95.1961 1759.09 95.0078C1759.12 94.8192 1759.13 94.7177 1759.13 94.7175C1759.15 94.6243 1759.09 94.5334 1759 94.5013C1758.91 94.469 1758.81 94.5053 1758.76 94.5874C1758.76 94.5879 1758.72 94.6533 1758.65 94.7711C1758.4 95.1833 1757.74 96.2133 1756.93 97.0718C1756.53 97.5011 1756.08 97.886 1755.64 98.1291C1755.2 98.3738 1754.78 98.4722 1754.39 98.3732L1754.29 98.3443C1753.86 98.2019 1753.43 97.6751 1753.08 96.9335C1752.56 95.8258 1752.19 94.2814 1751.97 93.0213C1751.85 92.3905 1751.78 91.8305 1751.72 91.4284C1751.67 91.0263 1751.65 90.7844 1751.65 90.7838C1751.64 90.6772 1751.54 90.5974 1751.43 90.605C1751.32 90.6133 1751.24 90.7058 1751.25 90.8125C1751.25 90.8174 1751.42 92.5728 1751.85 94.4283C1752.07 95.3571 1752.35 96.3106 1752.72 97.0895C1753.09 97.8652 1753.54 98.4862 1754.16 98.7082L1754.29 98.7473C1754.9 98.899 1755.5 98.6935 1756.05 98.3406C1756.88 97.8071 1757.64 96.9201 1758.2 96.1639C1758.75 95.4079 1759.11 94.7824 1759.11 94.7784L1758.94 94.6828L1758.74 94.6488C1758.74 94.6559 1758.45 96.3587 1758.52 98.4237C1758.6 100.487 1759.03 102.922 1760.53 104.398C1760.88 104.736 1761.21 104.943 1761.55 105.029C1762.03 105.152 1762.47 105.01 1762.83 104.728C1763.38 104.304 1763.79 103.579 1764.13 102.799C1764.46 102.018 1764.71 101.179 1764.87 100.533C1765.04 99.8826 1765.12 99.427 1765.12 99.4241L1764.92 99.3875L1764.75 99.4821C1765.86 101.34 1766.87 102.744 1767.76 103.729C1768.65 104.713 1769.42 105.287 1770.1 105.464C1770.54 105.579 1770.96 105.505 1771.28 105.246C1771.59 104.989 1771.8 104.58 1771.94 104.04C1772.34 102.437 1772.09 99.5981 1771.07 95.6853C1771.04 95.5811 1770.93 95.517 1770.83 95.5413C1770.72 95.5657 1770.66 95.6701 1770.68 95.7737V95.7737Z" fill="#2B5129"/>
<path fill-rule="evenodd" clip-rule="evenodd" d="M1694.83 74.9546C1696.54 72.486 1703.69 63.2142 1703.69 51.7104C1708.52 52.2205 1719.09 77.0673 1716.23 78.5604C1713.99 79.7293 1711.03 75.4574 1711.03 75.4574C1711.03 78.5604 1723.46 93.5074 1722.27 97.0244C1721.07 100.541 1717.4 98.6064 1714.68 97.4946C1722.65 105.327 1731.22 118.515 1729.43 120.751C1727.63 122.987 1723.6 118.861 1723.6 118.861C1723.6 118.861 1727.52 123.298 1725.88 124.252C1724.75 124.907 1722.27 122.974 1722.27 122.974C1722.27 122.974 1730.16 133.014 1729.43 135.382C1729.07 136.544 1726.46 135.382 1726.46 135.382C1726.46 135.382 1737.05 146.132 1737.05 149.428C1737.05 152.724 1731.35 148.55 1731.35 148.55C1731.89 149.53 1735.02 153.947 1733.51 153.947C1730.93 154.05 1722.97 149.428 1722.97 149.428C1722.97 149.428 1730.43 158.385 1719.47 158.385C1718.81 158.385 1713.49 157.708 1709.98 155.511C1710.24 156.608 1710.37 159.328 1709.24 159.328C1708.11 159.328 1707.13 158.713 1706.24 157.219C1706.24 157.679 1705.95 159.985 1704.07 160.645C1700.18 162.003 1696.43 153.593 1696.43 153.593C1696.43 153.593 1696.38 158.026 1694.25 158.026C1692.12 158.026 1692.49 153.593 1692.49 153.593C1677.28 163.891 1678.48 154.281 1681.73 145.287C1680.32 146.365 1673.03 153.071 1671.99 150.231C1671.55 149.018 1672.62 147.412 1674.09 145.079C1672.8 146.314 1665.75 152.136 1663.02 149.428C1662.13 148.544 1674.54 137.207 1674.54 136.284C1672 138.335 1662.02 139.257 1671.99 132.423C1676.21 129.537 1679.9 126.62 1681.73 118.861C1681.73 118.861 1680.07 120.896 1678.81 119.391C1678.15 117.179 1685.39 107.835 1690.52 98.6064C1689.22 100.02 1687.15 102.059 1685.39 100.932C1683.63 99.8046 1687.67 94.8629 1687.67 94.8629C1687.67 94.8629 1684.24 97.7417 1683.38 96.2455C1681.22 92.4867 1697.34 84.0249 1697.34 78.5604C1696.81 79.3991 1694.34 81.1324 1693.37 79.3991C1692.53 77.9047 1694 76.1518 1694.83 74.9546Z" fill="#3F693E"/>
<path fill-rule="evenodd" clip-rule="evenodd" d="M1703.69 68.2816C1704.46 65.1507 1705.29 57.9577 1703.69 51.7112C1708.53 52.2212 1719.09 77.068 1716.24 78.5611C1714 79.73 1711.03 75.4582 1711.03 75.4582C1711.03 78.5611 1723.46 93.5081 1722.27 97.0251C1721.08 100.542 1717.4 98.6071 1714.68 97.4954C1722.66 105.328 1731.23 118.516 1729.43 120.752C1727.63 122.987 1723.6 118.862 1723.6 118.862C1723.6 118.862 1727.53 123.298 1725.88 124.253C1724.75 124.908 1722.27 122.975 1722.27 122.975C1722.27 122.975 1730.16 133.015 1729.43 135.383C1729.07 136.545 1726.46 135.383 1726.46 135.383C1726.46 135.383 1737.06 146.133 1737.06 149.429C1737.06 152.725 1731.36 148.551 1731.36 148.551C1731.89 149.531 1735.02 153.948 1733.51 153.948C1730.94 154.051 1722.98 149.429 1722.98 149.429C1722.98 149.429 1730.43 158.386 1719.47 158.386C1718.82 158.386 1713.49 157.709 1709.98 155.512C1710.24 156.609 1710.38 159.329 1709.24 159.329C1708.11 159.329 1707.13 158.713 1706.24 157.22C1706.24 157.68 1705.95 159.986 1704.07 160.645C1700.19 162.004 1698.84 149.515 1698.84 149.515C1686.63 153.948 1690.34 148.287 1691.96 144.503C1691.96 144.503 1689.11 146.803 1688.07 143.963C1687.63 142.75 1690.49 139.575 1691.96 137.242C1690.67 138.477 1683.34 143.224 1680.61 140.516C1679.72 139.632 1690.62 130.797 1690.62 129.874C1688.07 131.925 1677.48 132.249 1687.45 125.415C1689.65 123.905 1691.19 122.154 1691.19 120.362C1686.91 121.32 1691.19 115.028 1691.19 114.54C1691.19 114.54 1689.96 116.045 1688.7 114.54C1687.17 111.819 1692.66 103.68 1695.46 96.7901C1695.46 96.7901 1698.52 101.95 1701.16 100.806C1703.79 99.6621 1702.41 94.3148 1702.41 93.5819C1702.68 93.9558 1703.16 96.2168 1704.83 95.7805C1706.79 95.2708 1705.08 86.6863 1704.44 85.815C1704.24 91.6147 1703 93.5834 1700.9 88.3424C1701.98 94.6945 1701 94.7782 1700.32 95.4457C1699.41 96.0041 1697.63 94.4643 1697.43 92.4582C1695.28 84.6737 1703.69 76.4052 1703.69 76.4052C1702.84 77.3219 1700.9 78.1385 1699.93 76.4052C1699.09 74.9108 1702.93 71.4124 1703.69 68.2816Z" fill="#5C885C"/>
<path d="M1695.47 120.096C1693.31 119.106 1694.54 115.019 1694.85 111.366C1695.06 113.165 1695.8 116.775 1697.1 116.826C1698.65 116.886 1699.91 114.658 1700.04 114.302C1700.05 114.288 1700.05 114.274 1700.06 114.26C1700.06 114.267 1700.05 114.281 1700.04 114.302C1699.37 116.749 1700.7 121.124 1701.98 121.124C1703.01 121.124 1703.65 118.558 1703.84 117.275C1704.55 118.75 1706.31 121.586 1707.73 121.124C1708.49 120.876 1708.61 119.64 1708.46 118.256C1708.26 117.023 1707.98 115.795 1707.73 114.876C1708.01 115.752 1708.33 117.059 1708.46 118.256C1708.86 120.714 1708.92 123.188 1707.73 123.254C1705.95 123.353 1704.93 121.479 1704.64 120.53C1704.39 121.623 1703.35 123.836 1701.17 123.935C1698.99 124.034 1698.69 120.385 1698.82 118.548C1698.42 119.395 1697.21 120.889 1695.47 120.096Z" fill="#3F693E"/>
<path d="M1715.24 143.088C1713.45 142.505 1712.94 138.217 1712.91 136.145C1712.91 136.145 1714.45 139.983 1716.26 140.224C1717.72 140.419 1718.25 136.922 1718.25 136.922C1718.25 136.922 1720.17 144.228 1722.62 142.602C1723.66 141.91 1723.1 138.524 1723.1 138.524C1723.1 138.524 1726.31 142.172 1728.05 141.404C1729.77 140.645 1726.61 135.504 1726.61 135.504C1727.85 136.793 1731.47 139.825 1730.73 141.534C1729.81 143.671 1724.7 140.952 1724.7 141.534C1724.7 142.117 1725.09 146.244 1722.62 146.826C1720.63 147.292 1718.55 143.056 1718.25 141.146C1718.02 142.36 1717.02 143.67 1715.24 143.088Z" fill="#3F693E"/>
<path fill-rule="evenodd" clip-rule="evenodd" d="M1726.18 135.311C1727.58 137.596 1728.28 139.356 1728.32 140.372C1728.34 140.713 1728.28 140.964 1728.17 141.12C1728.07 141.275 1727.92 141.357 1727.68 141.37C1727.31 141.39 1726.73 141.2 1725.99 140.755C1725.25 140.31 1724.35 139.617 1723.28 138.651C1723.24 138.614 1723.18 138.605 1723.13 138.63C1723.08 138.654 1723.05 138.706 1723.06 138.76C1723.06 138.76 1723.07 138.834 1723.08 138.964C1723.09 139.094 1723.1 139.28 1723.11 139.5C1723.14 140.083 1723.14 140.911 1723 141.585C1722.93 141.922 1722.82 142.22 1722.67 142.425C1722.52 142.63 1722.35 142.742 1722.12 142.754C1721.95 142.762 1721.74 142.714 1721.48 142.579C1720.34 141.993 1719.6 140.572 1719.16 139.289C1718.94 138.649 1718.8 138.045 1718.7 137.602C1718.66 137.38 1718.63 137.199 1718.61 137.074C1718.59 136.948 1718.58 136.88 1718.58 136.88C1718.57 136.817 1718.52 136.77 1718.45 136.767C1718.39 136.764 1718.33 136.807 1718.31 136.869C1718.31 136.869 1718.3 136.918 1718.28 137.007C1718.2 137.32 1717.98 138.108 1717.62 138.815C1717.45 139.169 1717.24 139.502 1717 139.743C1716.77 139.985 1716.52 140.131 1716.25 140.143L1716.18 140.143C1715.88 140.136 1715.5 139.882 1715.13 139.475C1714.58 138.867 1714.05 137.949 1713.66 137.186C1713.46 136.804 1713.3 136.461 1713.19 136.214C1713.08 135.966 1713.02 135.816 1713.02 135.816C1712.99 135.749 1712.92 135.717 1712.85 135.743C1712.78 135.77 1712.74 135.845 1712.77 135.911C1712.77 135.914 1713.22 137.006 1713.86 138.11C1714.18 138.662 1714.54 139.218 1714.93 139.645C1715.32 140.069 1715.73 140.38 1716.17 140.401L1716.26 140.401C1716.68 140.38 1717.02 140.131 1717.31 139.798C1717.74 139.295 1718.05 138.581 1718.26 137.988C1718.47 137.395 1718.57 136.926 1718.58 136.923L1718.44 136.896L1718.31 136.912C1718.31 136.917 1718.46 138.063 1718.91 139.371C1719.36 140.677 1720.1 142.154 1721.35 142.807C1721.64 142.956 1721.9 143.023 1722.13 143.012C1722.46 142.999 1722.72 142.821 1722.89 142.57C1723.16 142.193 1723.28 141.649 1723.35 141.083C1723.41 140.519 1723.4 139.934 1723.38 139.488C1723.36 139.039 1723.32 138.732 1723.32 138.73L1723.19 138.745L1723.1 138.839C1724.17 139.813 1725.09 140.516 1725.85 140.974C1726.61 141.43 1727.22 141.648 1727.69 141.628C1727.99 141.617 1728.25 141.488 1728.4 141.261C1728.55 141.035 1728.61 140.732 1728.59 140.36C1728.54 139.255 1727.82 137.486 1726.41 135.179C1726.37 135.118 1726.29 135.098 1726.23 135.134C1726.16 135.17 1726.14 135.25 1726.18 135.311V135.311Z" fill="#2B5129"/>
<path d="M1697.51 92.8999C1697.83 93.8532 1698.93 95.7084 1700 95.5676C1702.56 95.23 1700.97 90.485 1700.95 88.201C1701.24 89.325 1701.97 91.3843 1702.98 91.3571C1704.22 91.3239 1704.36 87.6278 1704.39 85.8013" stroke="#2B5129" stroke-width="0.186315"/>
<path fill-rule="evenodd" clip-rule="evenodd" d="M1707.81 114.74C1708.54 117.322 1708.73 119.204 1708.5 120.194C1708.42 120.527 1708.3 120.752 1708.15 120.873C1708 120.993 1707.84 121.031 1707.6 120.979C1707.24 120.897 1706.74 120.558 1706.15 119.928C1705.56 119.299 1704.87 118.385 1704.12 117.166C1704.09 117.12 1704.03 117.095 1703.98 117.105C1703.92 117.115 1703.88 117.157 1703.87 117.21C1703.87 117.21 1703.86 117.284 1703.83 117.412C1703.81 117.541 1703.77 117.723 1703.72 117.938C1703.59 118.506 1703.36 119.303 1703.04 119.912C1702.88 120.217 1702.7 120.474 1702.5 120.631C1702.3 120.789 1702.11 120.85 1701.88 120.798C1701.71 120.76 1701.52 120.656 1701.31 120.456C1700.37 119.582 1700.05 118.013 1699.98 116.659C1699.94 115.983 1699.96 115.362 1699.99 114.911C1700.01 114.686 1700.03 114.503 1700.04 114.376C1700.06 114.25 1700.07 114.182 1700.07 114.181C1700.08 114.119 1700.04 114.059 1699.98 114.039C1699.92 114.018 1699.85 114.044 1699.82 114.099C1699.82 114.1 1699.79 114.144 1699.75 114.223C1699.59 114.502 1699.16 115.2 1698.63 115.785C1698.36 116.077 1698.07 116.34 1697.78 116.509C1697.48 116.678 1697.2 116.749 1696.94 116.688L1696.88 116.67C1696.58 116.58 1696.29 116.233 1696.05 115.741C1695.68 115.007 1695.42 113.978 1695.25 113.138C1695.17 112.718 1695.11 112.344 1695.07 112.076C1695.03 111.807 1695.01 111.646 1695.01 111.645C1695 111.574 1694.94 111.522 1694.86 111.529C1694.79 111.536 1694.74 111.598 1694.75 111.67C1694.75 111.673 1694.88 112.845 1695.19 114.081C1695.35 114.7 1695.55 115.334 1695.81 115.85C1696.07 116.365 1696.37 116.774 1696.79 116.915L1696.88 116.939C1697.29 117.033 1697.69 116.888 1698.05 116.645C1698.6 116.277 1699.1 115.674 1699.46 115.161C1699.82 114.648 1700.05 114.225 1700.06 114.223L1699.94 114.161L1699.8 114.141C1699.8 114.145 1699.63 115.288 1699.71 116.669C1699.79 118.048 1700.1 119.672 1701.13 120.64C1701.36 120.862 1701.59 120.996 1701.82 121.049C1702.14 121.125 1702.43 121.025 1702.67 120.831C1703.03 120.541 1703.3 120.051 1703.51 119.524C1703.73 118.998 1703.88 118.433 1703.98 117.999C1704.08 117.562 1704.13 117.256 1704.13 117.254L1704 117.232L1703.89 117.297C1704.65 118.526 1705.34 119.452 1705.95 120.1C1706.56 120.747 1707.09 121.121 1707.55 121.231C1707.84 121.302 1708.12 121.247 1708.33 121.07C1708.53 120.894 1708.67 120.618 1708.76 120.255C1709.01 119.177 1708.8 117.281 1708.07 114.676C1708.05 114.607 1707.97 114.565 1707.9 114.583C1707.83 114.601 1707.79 114.671 1707.81 114.74V114.74Z" fill="#2B5129"/>
<path fill-rule="evenodd" clip-rule="evenodd" d="M1853.8 30.5299C1854.74 29.1707 1858.68 24.0653 1858.68 17.731C1861.34 18.0118 1867.16 31.6932 1865.58 32.5154C1864.35 33.159 1862.72 30.8068 1862.72 30.8068C1862.72 32.5154 1869.56 40.7457 1868.9 42.6823C1868.25 44.6189 1866.22 43.5534 1864.73 42.9412C1869.12 47.2542 1873.84 54.516 1872.85 55.7469C1871.86 56.9779 1869.64 54.7065 1869.64 54.7065C1869.64 54.7065 1871.8 57.1492 1870.89 57.6749C1870.27 58.0356 1868.9 56.971 1868.9 56.971C1868.9 56.971 1873.25 62.4993 1872.85 63.8032C1872.65 64.4432 1871.21 63.8032 1871.21 63.8032C1871.21 63.8032 1877.05 69.7224 1877.05 71.5374C1877.05 73.3524 1873.91 71.0542 1873.91 71.0542C1874.2 71.5938 1875.93 74.026 1875.1 74.026C1873.68 74.0825 1869.29 71.5374 1869.29 71.5374C1869.29 71.5374 1873.4 76.4697 1867.36 76.4697C1867 76.4697 1864.07 76.0966 1862.14 74.8869C1862.28 75.4908 1862.36 76.9889 1861.73 76.9889C1861.11 76.9889 1860.57 76.6497 1860.08 75.8273C1860.08 76.0807 1859.92 77.3503 1858.88 77.7137C1856.75 78.4615 1854.68 73.831 1854.68 73.831C1854.68 73.831 1854.65 76.2719 1853.48 76.2719C1852.31 76.2719 1852.51 73.831 1852.51 73.831C1844.13 79.501 1844.8 74.2098 1846.58 69.2572C1845.81 69.8506 1841.79 73.5436 1841.22 71.9794C1840.98 71.3118 1841.57 70.4272 1842.38 69.1428C1841.67 69.8228 1837.79 73.0285 1836.28 71.5374C1835.79 71.0507 1842.63 64.8083 1842.63 64.2997C1841.22 65.4294 1835.73 65.9368 1841.22 62.1741C1843.54 60.5847 1845.58 58.9787 1846.58 54.7065C1846.58 54.7065 1845.67 55.8265 1844.98 54.9979C1844.62 53.7803 1848.6 48.6349 1851.42 43.5534C1850.71 44.3316 1849.57 45.4544 1848.6 44.8337C1847.63 44.2131 1849.85 41.4921 1849.85 41.4921C1849.85 41.4921 1847.97 43.0773 1847.49 42.2534C1846.3 40.1837 1855.18 35.5243 1855.18 32.5154C1854.89 32.9772 1853.53 33.9316 1852.99 32.9772C1852.53 32.1544 1853.34 31.1892 1853.8 30.5299Z" fill="#3F693E"/>
<path fill-rule="evenodd" clip-rule="evenodd" d="M1858.68 26.8549C1859.1 25.131 1859.56 21.1702 1858.68 17.7307C1861.34 18.0116 1867.16 31.693 1865.58 32.5152C1864.35 33.1588 1862.72 30.8066 1862.72 30.8066C1862.72 32.5152 1869.56 40.7455 1868.91 42.682C1868.25 44.6186 1866.22 43.5531 1864.73 42.941C1869.12 47.2539 1873.84 54.5157 1872.85 55.7467C1871.86 56.9777 1869.64 54.7062 1869.64 54.7062C1869.64 54.7062 1871.8 57.149 1870.89 57.6746C1870.27 58.0353 1868.91 56.9708 1868.91 56.9708C1868.91 56.9708 1873.25 62.499 1872.85 63.8029C1872.65 64.4429 1871.21 63.8029 1871.21 63.8029C1871.21 63.8029 1877.05 69.7221 1877.05 71.5371C1877.05 73.3521 1873.91 71.0539 1873.91 71.0539C1874.2 71.5935 1875.93 74.0257 1875.1 74.0257C1873.68 74.0822 1869.3 71.5371 1869.3 71.5371C1869.3 71.5371 1873.4 76.4694 1867.36 76.4694C1867 76.4694 1864.07 76.0964 1862.14 74.8866C1862.28 75.4906 1862.36 76.9887 1861.73 76.9887C1861.11 76.9887 1860.57 76.6495 1860.08 75.827C1860.08 76.0805 1859.92 77.3501 1858.88 77.7134C1856.75 78.4613 1856 71.5848 1856 71.5848C1849.28 74.0257 1851.32 70.9083 1852.22 68.8249C1852.22 68.8249 1850.65 70.0914 1850.08 68.5273C1849.83 67.8597 1851.41 66.1112 1852.22 64.8268C1851.51 65.5068 1847.47 68.1204 1845.97 66.6293C1845.48 66.1426 1851.48 61.2782 1851.48 60.7695C1850.08 61.8992 1844.24 62.0772 1849.73 58.3145C1850.95 57.4831 1851.79 56.5191 1851.79 55.5322C1849.43 56.0594 1851.79 52.595 1851.79 52.3263C1851.79 52.3263 1851.11 53.1549 1850.42 52.3263C1849.58 50.8282 1852.6 46.3462 1854.14 42.5526C1854.14 42.5526 1855.83 45.3939 1857.28 44.7639C1858.73 44.134 1857.97 41.1896 1857.97 40.7861C1858.12 40.992 1858.39 42.2369 1859.31 41.9967C1860.38 41.716 1859.44 36.9891 1859.09 36.5094C1858.98 39.7029 1858.3 40.7869 1857.14 37.901C1857.73 41.3987 1857.19 41.4448 1856.82 41.8123C1856.32 42.1198 1855.34 41.272 1855.23 40.1673C1854.05 35.881 1858.68 31.328 1858.68 31.328C1858.21 31.8328 1857.14 32.2824 1856.6 31.328C1856.14 30.5052 1858.25 28.5789 1858.68 26.8549Z" fill="#5C885C"/>
<path d="M1854.15 55.3862C1852.96 54.8408 1853.64 52.5907 1853.81 50.5793C1853.92 51.5696 1854.33 53.5572 1855.05 53.5855C1855.9 53.6188 1856.59 52.3918 1856.67 52.1959C1856.67 52.1881 1856.67 52.1803 1856.68 52.1725C1856.68 52.1764 1856.67 52.1844 1856.67 52.1959C1856.3 53.5429 1857.03 55.9522 1857.74 55.9522C1858.3 55.9522 1858.65 54.5392 1858.76 53.8328C1859.15 54.6452 1860.12 56.2065 1860.9 55.9522C1861.32 55.8158 1861.38 55.1351 1861.3 54.3728C1861.19 53.6941 1861.04 53.0177 1860.9 52.5118C1861.05 52.9942 1861.23 53.714 1861.3 54.3728C1861.52 55.7262 1861.56 57.0886 1860.9 57.1249C1859.92 57.1794 1859.36 56.1476 1859.2 55.6249C1859.06 56.2272 1858.49 57.4453 1857.29 57.4999C1856.09 57.5544 1855.92 55.5453 1855.99 54.534C1855.78 54.9999 1855.11 55.8226 1854.15 55.3862Z" fill="#3F693E"/>
<path d="M1865.03 68.0463C1864.05 67.7256 1863.77 65.3641 1863.75 64.2235C1863.75 64.2235 1864.6 66.3369 1865.6 66.4691C1866.4 66.5769 1866.69 64.6513 1866.69 64.6513C1866.69 64.6513 1867.75 68.6743 1869.1 67.779C1869.67 67.3978 1869.36 65.5335 1869.36 65.5335C1869.36 65.5335 1871.13 67.5418 1872.09 67.1191C1873.04 66.7014 1871.3 63.8706 1871.3 63.8706C1871.98 64.5804 1873.97 66.2499 1873.57 67.1909C1873.06 68.3671 1870.25 66.8701 1870.25 67.1909C1870.25 67.5117 1870.46 69.784 1869.1 70.1047C1868.01 70.3614 1866.86 68.0285 1866.69 66.977C1866.57 67.6453 1866.02 68.3671 1865.03 68.0463Z" fill="#3F693E"/>
<path fill-rule="evenodd" clip-rule="evenodd" d="M1871.06 63.7641C1871.83 65.0225 1872.22 65.9916 1872.24 66.5509C1872.25 66.7388 1872.22 66.8769 1872.16 66.9629C1872.1 67.0484 1872.02 67.0932 1871.89 67.1007C1871.68 67.1115 1871.36 67.007 1870.96 66.7616C1870.55 66.517 1870.05 66.1352 1869.47 65.6031C1869.44 65.5828 1869.41 65.5781 1869.38 65.5915C1869.35 65.6049 1869.34 65.6335 1869.34 65.6632C1869.34 65.6633 1869.35 65.7039 1869.35 65.7757C1869.36 65.8474 1869.37 65.9496 1869.37 66.0708C1869.39 66.392 1869.39 66.8478 1869.31 67.219C1869.27 67.4044 1869.21 67.5683 1869.13 67.6811C1869.05 67.7944 1868.95 67.8559 1868.82 67.8627C1868.73 67.867 1868.62 67.8403 1868.47 67.7662C1867.85 67.4438 1867.44 66.6611 1867.2 65.9546C1867.07 65.602 1866.99 65.2694 1866.94 65.0256C1866.92 64.9037 1866.9 64.8039 1866.89 64.7348C1866.88 64.6656 1866.87 64.6279 1866.87 64.628C1866.87 64.5934 1866.84 64.5673 1866.8 64.5659C1866.77 64.5643 1866.74 64.5879 1866.73 64.6219C1866.73 64.6221 1866.72 64.6492 1866.71 64.6983C1866.67 64.8704 1866.54 65.3041 1866.35 65.6937C1866.25 65.8885 1866.14 66.0718 1866.01 66.2045C1865.88 66.338 1865.74 66.418 1865.59 66.4246L1865.56 66.4249C1865.39 66.421 1865.18 66.281 1864.98 66.0568C1864.67 65.7225 1864.38 65.2169 1864.17 64.7968C1864.06 64.5865 1863.97 64.3976 1863.91 64.2614C1863.85 64.1251 1863.81 64.0423 1863.81 64.042C1863.8 64.0056 1863.76 63.9878 1863.72 64.0022C1863.68 64.0169 1863.66 64.0582 1863.68 64.0947C1863.68 64.0964 1863.92 64.6975 1864.28 65.3053C1864.45 65.6095 1864.65 65.9154 1864.87 66.1505C1865.08 66.3843 1865.31 66.5553 1865.55 66.5669L1865.6 66.5667C1865.83 66.5555 1866.02 66.4184 1866.18 66.2349C1866.41 65.958 1866.58 65.5645 1866.7 65.2381C1866.81 64.9119 1866.87 64.6534 1866.87 64.6517L1866.8 64.6368L1866.73 64.6459C1866.73 64.6485 1866.81 65.2797 1867.06 65.9998C1867.3 66.7189 1867.71 67.5322 1868.4 67.8917C1868.56 67.9738 1868.7 68.0105 1868.83 68.0047C1869.01 67.9972 1869.15 67.8993 1869.25 67.7613C1869.4 67.5538 1869.47 67.2538 1869.5 66.9427C1869.53 66.6317 1869.53 66.3096 1869.52 66.064C1869.51 65.8171 1869.49 65.6478 1869.49 65.6467L1869.42 65.6548L1869.36 65.7067C1869.95 66.243 1870.46 66.6303 1870.88 66.8823C1871.3 67.1337 1871.63 67.2534 1871.89 67.2428C1872.06 67.2364 1872.2 67.1654 1872.28 67.0405C1872.37 66.9162 1872.4 66.7493 1872.39 66.5441C1872.36 65.9357 1871.97 64.9618 1871.19 63.6915C1871.17 63.6577 1871.12 63.6468 1871.09 63.6668C1871.05 63.6868 1871.04 63.7305 1871.06 63.7641V63.7641Z" fill="#2B5129"/>
<path d="M1855.27 40.4111C1855.45 40.936 1856.06 41.9575 1856.64 41.88C1858.06 41.6941 1857.18 39.0814 1857.17 37.8237C1857.33 38.4426 1857.73 39.5765 1858.29 39.5615C1858.97 39.5433 1859.05 37.5081 1859.06 36.5023" stroke="#2B5129" stroke-width="0.2"/>
<path fill-rule="evenodd" clip-rule="evenodd" d="M1860.95 52.4373C1861.35 53.8589 1861.45 54.8954 1861.32 55.4403C1861.28 55.6235 1861.21 55.7477 1861.13 55.8144C1861.05 55.8805 1860.96 55.9013 1860.83 55.8727C1860.63 55.8275 1860.36 55.6406 1860.03 55.2938C1859.71 54.9476 1859.33 54.4442 1858.91 53.7732C1858.9 53.7475 1858.86 53.7339 1858.83 53.7392C1858.8 53.7446 1858.78 53.7678 1858.78 53.7973C1858.78 53.7975 1858.77 53.8378 1858.76 53.9086C1858.74 53.9793 1858.72 54.0798 1858.69 54.1979C1858.62 54.511 1858.5 54.9495 1858.32 55.2851C1858.23 55.4529 1858.13 55.5944 1858.02 55.681C1857.91 55.7677 1857.81 55.8013 1857.68 55.7728C1857.59 55.7518 1857.48 55.6945 1857.37 55.5844C1856.85 55.1035 1856.67 54.2392 1856.63 53.4938C1856.61 53.1216 1856.62 52.7795 1856.64 52.5313C1856.65 52.4072 1856.66 52.3064 1856.67 52.2368C1856.68 52.1672 1856.68 52.1297 1856.68 52.1296C1856.69 52.0952 1856.67 52.0621 1856.63 52.0509C1856.6 52.0396 1856.56 52.0537 1856.55 52.0843C1856.55 52.0845 1856.53 52.1089 1856.51 52.1527C1856.42 52.3064 1856.18 52.6904 1855.89 53.0124C1855.74 53.1734 1855.58 53.3184 1855.42 53.411C1855.26 53.5043 1855.1 53.5435 1854.96 53.5098L1854.93 53.4998C1854.76 53.4504 1854.6 53.2594 1854.47 52.9886C1854.27 52.5842 1854.12 52.0179 1854.03 51.5552C1853.99 51.3237 1853.95 51.1179 1853.93 50.9702C1853.91 50.8224 1853.9 50.7334 1853.9 50.7332C1853.89 50.694 1853.86 50.6653 1853.82 50.6689C1853.78 50.6727 1853.75 50.7073 1853.75 50.7466C1853.75 50.7484 1853.83 51.3939 1854 52.0744C1854.09 52.415 1854.2 52.7643 1854.34 53.0486C1854.48 53.3318 1854.65 53.5574 1854.88 53.6348L1854.93 53.6483C1855.15 53.6999 1855.37 53.6199 1855.57 53.486C1855.88 53.2837 1856.15 52.9516 1856.35 52.6691C1856.55 52.3866 1856.67 52.1537 1856.68 52.1522L1856.61 52.1182L1856.54 52.1071C1856.54 52.1097 1856.44 52.739 1856.49 53.4992C1856.53 54.2587 1856.7 55.1528 1857.27 55.686C1857.4 55.8081 1857.52 55.882 1857.65 55.9112C1857.82 55.9532 1857.99 55.8977 1858.12 55.7912C1858.31 55.6314 1858.46 55.3615 1858.58 55.0715C1858.7 54.7816 1858.78 54.4708 1858.84 54.2314C1858.89 53.9908 1858.92 53.8224 1858.92 53.8213L1858.85 53.8092L1858.79 53.8453C1859.21 54.5218 1859.59 55.032 1859.92 55.3886C1860.26 55.745 1860.55 55.9507 1860.8 56.0111C1860.96 56.0504 1861.12 56.0202 1861.23 55.9226C1861.34 55.8257 1861.42 55.6737 1861.47 55.4738C1861.6 54.8802 1861.49 53.8363 1861.09 52.402C1861.08 52.3638 1861.04 52.341 1861 52.3507C1860.96 52.3604 1860.94 52.3993 1860.95 52.4373V52.4373Z" fill="#2B5129"/>
<ellipse rx="476" ry="222.5" transform="matrix(-1 0 0 1 2186.38 453.44)" fill="white"/>
<ellipse rx="321.5" ry="163.216" transform="matrix(-1 0 0 1 364.226 548.376)" fill="white"/>
<ellipse rx="316.278" ry="163.216" transform="matrix(-1 0 0 1 103.004 548.376)" fill="url(#paint1_linear_1322_13640)"/>
<path fill-rule="evenodd" clip-rule="evenodd" d="M344.48 429.143C349.663 443.072 369.465 435.6 364.489 422.991C359.514 410.382 340.32 417.962 344.48 429.143Z" fill="url(#paint2_linear_1322_13640)"/>
<path d="M-270.906 479.495C-270.906 594.913 -61.9364 711.821 254.439 711.821C570.815 711.821 809.484 669.272 809.484 553.854C809.484 438.436 492.308 311.959 254.439 301.595C17.5498 291.274 -270.906 305.582 -270.906 479.495Z" fill="url(#paint3_linear_1322_13640)"/>
<path d="M342.28 394.986C342.28 412.332 318.756 401.196 286.728 401.196C254.7 401.196 226.298 412.332 226.298 394.986C226.298 377.64 252.261 363.579 284.289 363.579C316.317 363.579 342.28 377.64 342.28 394.986Z" fill="white"/>
<path fill-rule="evenodd" clip-rule="evenodd" d="M309.633 304.525C311.122 302.38 317.334 294.321 317.334 284.323C321.537 284.766 330.722 306.361 328.237 307.659C326.292 308.675 323.714 304.962 323.714 304.962C323.714 307.659 334.516 320.65 333.48 323.707C332.444 326.764 329.249 325.082 326.888 324.116C333.818 330.924 341.267 342.386 339.705 344.329C338.143 346.272 334.639 342.687 334.639 342.687C334.639 342.687 338.049 346.542 336.62 347.372C335.639 347.941 333.48 346.261 333.48 346.261C333.48 346.261 340.338 354.987 339.705 357.045C339.394 358.055 337.123 357.045 337.123 357.045C337.123 357.045 346.334 366.388 346.334 369.253C346.334 372.118 341.378 368.491 341.378 368.491C341.845 369.342 344.565 373.181 343.251 373.181C341.013 373.271 334.096 369.253 334.096 369.253C334.096 369.253 340.572 377.039 331.048 377.039C330.48 377.039 325.853 376.45 322.8 374.54C323.03 375.494 323.143 377.858 322.16 377.858C321.177 377.858 320.323 377.323 319.549 376.025C319.549 376.425 319.301 378.429 317.662 379.002C314.288 380.183 311.027 372.874 311.027 372.874C311.027 372.874 310.979 376.727 309.13 376.727C307.281 376.727 307.601 372.874 307.601 372.874C294.381 381.823 295.425 373.472 298.245 365.654C297.028 366.591 290.687 372.42 289.786 369.951C289.402 368.897 290.329 367.501 291.606 365.474C290.488 366.547 284.361 371.607 281.985 369.253C281.21 368.485 292.002 358.632 292.002 357.829C289.788 359.612 281.118 360.413 289.786 354.474C293.448 351.965 296.662 349.43 298.245 342.687C298.245 342.687 296.806 344.454 295.71 343.147C295.14 341.225 301.428 333.103 305.888 325.082C304.762 326.31 302.956 328.083 301.428 327.103C299.899 326.123 303.408 321.828 303.408 321.828C303.408 321.828 300.432 324.331 299.683 323.03C297.802 319.763 311.82 312.409 311.82 307.659C311.355 308.388 309.211 309.895 308.365 308.388C307.635 307.089 308.911 305.566 309.633 304.525Z" fill="#3F693E"/>
<path fill-rule="evenodd" clip-rule="evenodd" d="M317.334 298.725C317.999 296.004 318.727 289.752 317.334 284.323C321.537 284.766 330.722 306.361 328.237 307.659C326.292 308.675 323.714 304.962 323.714 304.962C323.714 307.659 334.516 320.65 333.48 323.707C332.444 326.764 329.249 325.082 326.888 324.116C333.818 330.924 341.267 342.386 339.705 344.329C338.143 346.272 334.639 342.687 334.639 342.687C334.639 342.687 338.049 346.542 336.62 347.372C335.639 347.941 333.48 346.261 333.48 346.261C333.48 346.261 340.339 354.987 339.705 357.045C339.394 358.055 337.123 357.045 337.123 357.045C337.123 357.045 346.334 366.388 346.334 369.253C346.334 372.118 341.378 368.491 341.378 368.491C341.845 369.342 344.565 373.181 343.251 373.181C341.014 373.271 334.096 369.253 334.096 369.253C334.096 369.253 340.572 377.039 331.048 377.039C330.481 377.039 325.853 376.45 322.801 374.54C323.03 375.494 323.143 377.858 322.16 377.858C321.177 377.858 320.323 377.323 319.549 376.025C319.549 376.425 319.301 378.429 317.662 379.002C314.288 380.183 313.114 369.328 313.114 369.328C302.509 373.181 305.73 368.261 307.139 364.972C307.139 364.972 304.66 366.971 303.759 364.502C303.375 363.449 305.861 360.689 307.139 358.661C306.02 359.735 299.65 363.86 297.274 361.507C296.498 360.738 305.975 353.06 305.975 352.257C303.761 354.04 294.551 354.321 303.219 348.382C305.135 347.07 306.471 345.548 306.471 343.99C302.746 344.823 306.471 339.354 306.471 338.93C306.471 338.93 305.398 340.238 304.302 338.93C302.976 336.565 307.748 329.491 310.177 323.503C310.177 323.503 312.841 327.988 315.13 326.993C317.419 325.999 316.222 321.351 316.222 320.714C316.453 321.039 316.876 323.004 318.328 322.625C320.025 322.182 318.539 314.721 317.986 313.964C317.815 319.005 316.737 320.716 314.91 316.161C315.848 321.681 314.992 321.754 314.402 322.334C313.617 322.82 312.064 321.481 311.891 319.738C310.027 312.972 317.334 305.785 317.334 305.785C316.593 306.582 314.91 307.292 314.064 305.785C313.334 304.487 316.669 301.446 317.334 298.725Z" fill="#5C885C"/>
<path d="M310.194 343.76C308.31 342.899 309.386 339.347 309.655 336.172C309.835 337.735 310.477 340.873 311.611 340.917C312.951 340.97 314.048 339.033 314.166 338.724C314.169 338.712 314.173 338.699 314.176 338.687C314.176 338.693 314.173 338.706 314.166 338.724C313.576 340.85 314.74 344.653 315.849 344.653C316.741 344.653 317.299 342.423 317.466 341.308C318.079 342.59 319.614 345.055 320.848 344.653C321.51 344.438 321.61 343.363 321.48 342.16C321.308 341.089 321.064 340.021 320.848 339.223C321.086 339.984 321.369 341.12 321.48 342.16C321.824 344.296 321.88 346.447 320.848 346.504C319.298 346.59 318.409 344.962 318.158 344.136C317.942 345.087 317.038 347.01 315.144 347.096C313.25 347.182 312.992 344.011 313.099 342.414C312.758 343.15 311.7 344.449 310.194 343.76Z" fill="#3F693E"/>
<path d="M327.37 363.742C325.817 363.236 325.373 359.508 325.345 357.708C325.345 357.708 326.69 361.044 328.256 361.252C329.533 361.423 329.986 358.383 329.986 358.383C329.986 358.383 331.658 364.733 333.784 363.32C334.689 362.718 334.206 359.776 334.206 359.776C334.206 359.776 336.998 362.946 338.508 362.278C339.999 361.619 337.258 357.151 337.258 357.151C338.335 358.271 341.48 360.906 340.839 362.392C340.037 364.248 335.598 361.885 335.598 362.392C335.598 362.898 335.936 366.485 333.784 366.991C332.062 367.396 330.254 363.714 329.986 362.054C329.789 363.109 328.923 364.248 327.37 363.742Z" fill="#3F693E"/>
<path fill-rule="evenodd" clip-rule="evenodd" d="M336.882 356.985C338.104 358.971 338.707 360.501 338.745 361.384C338.76 361.68 338.709 361.898 338.616 362.034C338.522 362.169 338.393 362.24 338.185 362.252C337.862 362.269 337.362 362.104 336.72 361.716C336.077 361.33 335.288 360.727 334.366 359.888C334.33 359.856 334.278 359.848 334.234 359.869C334.19 359.89 334.165 359.936 334.17 359.982C334.17 359.983 334.178 360.047 334.188 360.16C334.198 360.273 334.21 360.435 334.219 360.626C334.243 361.133 334.242 361.852 334.116 362.438C334.055 362.731 333.961 362.99 333.833 363.168C333.704 363.346 333.556 363.443 333.352 363.454C333.206 363.461 333.023 363.419 332.798 363.302C331.808 362.793 331.164 361.558 330.783 360.442C330.592 359.886 330.465 359.361 330.385 358.976C330.346 358.784 330.318 358.626 330.301 358.517C330.283 358.408 330.275 358.348 330.275 358.348C330.268 358.294 330.222 358.253 330.165 358.25C330.108 358.248 330.058 358.285 330.046 358.339C330.046 358.339 330.036 358.382 330.016 358.459C329.947 358.731 329.754 359.416 329.447 360.031C329.294 360.338 329.112 360.627 328.908 360.837C328.704 361.048 328.485 361.174 328.252 361.184L328.193 361.185C327.928 361.179 327.601 360.958 327.282 360.604C326.803 360.076 326.34 359.278 326.001 358.615C325.831 358.283 325.692 357.985 325.595 357.77C325.499 357.555 325.445 357.424 325.445 357.424C325.421 357.366 325.354 357.338 325.294 357.361C325.234 357.384 325.205 357.449 325.229 357.507C325.23 357.509 325.619 358.458 326.174 359.418C326.451 359.898 326.77 360.381 327.107 360.752C327.445 361.121 327.799 361.391 328.183 361.409L328.263 361.409C328.625 361.391 328.926 361.175 329.173 360.885C329.545 360.448 329.815 359.827 329.998 359.311C330.181 358.797 330.273 358.389 330.273 358.386L330.16 358.362L330.044 358.377C330.045 358.381 330.172 359.377 330.562 360.514C330.954 361.649 331.601 362.933 332.687 363.5C332.937 363.63 333.161 363.688 333.363 363.678C333.648 363.667 333.872 363.512 334.025 363.294C334.256 362.967 334.365 362.493 334.42 362.002C334.474 361.511 334.469 361.003 334.451 360.615C334.433 360.225 334.402 359.958 334.402 359.956L334.286 359.969L334.206 360.051C335.136 360.898 335.934 361.509 336.596 361.907C337.26 362.304 337.785 362.493 338.195 362.476C338.458 362.466 338.679 362.354 338.811 362.156C338.943 361.96 338.992 361.697 338.978 361.373C338.931 360.413 338.312 358.875 337.082 356.87C337.049 356.817 336.978 356.8 336.922 356.831C336.867 356.863 336.849 356.932 336.882 356.985V356.985Z" fill="#2B5129"/>
<path d="M311.961 320.122C312.241 320.951 313.198 322.563 314.128 322.441C316.357 322.147 314.972 318.023 314.957 316.038C315.204 317.015 315.84 318.805 316.721 318.781C317.794 318.752 317.919 315.54 317.947 313.953" stroke="#2B5129"/>
<path fill-rule="evenodd" clip-rule="evenodd" d="M320.917 339.106C321.552 341.35 321.716 342.986 321.513 343.846C321.446 344.135 321.338 344.331 321.211 344.436C321.085 344.541 320.941 344.574 320.737 344.528C320.422 344.457 319.986 344.162 319.473 343.615C318.959 343.068 318.365 342.274 317.705 341.214C317.68 341.174 317.631 341.152 317.583 341.161C317.536 341.169 317.499 341.206 317.491 341.252C317.492 341.253 317.481 341.316 317.46 341.428C317.439 341.54 317.407 341.698 317.363 341.885C317.248 342.379 317.051 343.071 316.771 343.601C316.633 343.866 316.472 344.089 316.301 344.226C316.128 344.363 315.959 344.416 315.76 344.371C315.617 344.338 315.453 344.247 315.268 344.073C314.454 343.314 314.17 341.95 314.107 340.773C314.075 340.186 314.095 339.646 314.123 339.254C314.138 339.058 314.154 338.899 314.167 338.789C314.179 338.679 314.188 338.62 314.188 338.62C314.196 338.566 314.163 338.514 314.109 338.496C314.055 338.478 313.996 338.5 313.97 338.549C313.97 338.549 313.949 338.587 313.909 338.657C313.768 338.899 313.396 339.505 312.934 340.014C312.702 340.268 312.448 340.497 312.196 340.643C311.941 340.79 311.696 340.852 311.47 340.799L311.413 340.783C311.16 340.705 310.905 340.403 310.694 339.976C310.377 339.338 310.148 338.444 310.003 337.714C309.93 337.348 309.877 337.023 309.842 336.79C309.808 336.557 309.792 336.416 309.792 336.416C309.785 336.354 309.728 336.309 309.664 336.314C309.6 336.32 309.554 336.375 309.561 336.437C309.562 336.44 309.678 337.459 309.95 338.533C310.087 339.071 310.262 339.622 310.486 340.071C310.71 340.518 310.977 340.874 311.342 340.996L311.419 341.017C311.772 341.099 312.121 340.973 312.438 340.761C312.914 340.442 313.343 339.918 313.66 339.472C313.975 339.026 314.175 338.658 314.176 338.656L314.073 338.602L313.958 338.585C313.958 338.589 313.809 339.582 313.875 340.782C313.943 341.981 314.217 343.392 315.107 344.234C315.313 344.426 315.512 344.543 315.709 344.589C315.986 344.655 316.245 344.568 316.451 344.4C316.762 344.148 316.996 343.721 317.182 343.264C317.368 342.806 317.502 342.316 317.59 341.938C317.679 341.558 317.721 341.292 317.721 341.29L317.607 341.271L317.507 341.328C318.172 342.396 318.773 343.201 319.303 343.764C319.833 344.327 320.287 344.652 320.686 344.747C320.942 344.809 321.185 344.761 321.365 344.607C321.546 344.454 321.665 344.214 321.739 343.899C321.956 342.962 321.778 341.314 321.14 339.05C321.123 338.99 321.059 338.954 320.997 338.969C320.936 338.984 320.899 339.046 320.917 339.106V339.106Z" fill="#2B5129"/>
<path d="M326.49 331.518H234.868V336.768H326.49V331.518Z" fill="#B0373B"/>
<path d="M313.936 336.766H247.425V378.809H313.936V336.766Z" fill="#EAC5A6"/>
<path d="M313.936 336.766H247.425V346.644H313.936V336.766Z" fill="#7E241E"/>
<path d="M313.936 349.02H247.425V349.489H313.936V349.02Z" fill="#48201D"/>
<path d="M313.936 352.52H247.425V352.989H313.936V352.52Z" fill="#48201D"/>
<path d="M313.936 371.26H247.425V371.729H313.936V371.26Z" fill="#48201D"/>
<path d="M274.167 346.58L274.167 357.85H273.698L273.698 346.58H274.167Z" fill="#48201D"/>
<path d="M280.915 346.58L280.915 357.85H280.446L280.446 346.58H280.915Z" fill="#48201D"/>
<path d="M288.745 346.58L288.745 357.85H288.276L288.276 346.58H288.745Z" fill="#48201D"/>
<path d="M300.67 346.623L300.67 378.809H300.201L300.201 346.623H300.67Z" fill="#48201D"/>
<path d="M260.313 346.623L260.312 378.809H259.844L259.844 346.623H260.313Z" fill="#48201D"/>
<path d="M313.936 357.848H247.425V364.595H313.936V357.848Z" fill="#E31E24"/>
<path d="M289.185 359.536H272.178V378.811H289.185V359.536Z" fill="#E31E24"/>
<path d="M284.775 365.077H276.59V378.81H284.775V365.077Z" fill="#FEF5B2"/>
<path d="M248.102 336.766H247.425V378.809H248.102V336.766Z" fill="#48201D"/>
<path d="M313.935 336.766H313.258V378.809H313.935V336.766Z" fill="#48201D"/>
<path d="M239.307 336.766H236.942V378.809H239.307V336.766Z" fill="#48201D"/>
<path d="M265.691 336.766H263.326V378.809H265.691V336.766Z" fill="#48201D"/>
<path d="M296.169 336.766H293.805V378.809H296.169V336.766Z" fill="#48201D"/>
<path d="M323.637 336.766H321.272V378.809H323.637V336.766Z" fill="#48201D"/>
<path fill-rule="evenodd" clip-rule="evenodd" d="M234.868 321.008C265.409 321.008 295.949 321.008 326.49 321.008C326.49 321.255 326.49 321.502 326.49 321.748C295.949 321.748 265.409 321.748 234.868 321.748C234.868 321.502 234.868 321.255 234.868 321.008V321.008ZM234.868 319.012H326.49V319.753H234.868V319.012V319.012ZM234.868 323.003C265.409 323.003 295.949 323.003 326.49 323.003C326.49 323.25 326.49 323.497 326.49 323.744C295.949 323.744 265.409 323.744 234.868 323.744C234.868 323.497 234.868 323.25 234.868 323.003V323.003ZM234.868 324.999C265.409 324.999 295.949 324.999 326.49 324.999C326.49 325.246 326.49 325.493 326.49 325.74C295.949 325.74 265.409 325.74 234.868 325.74C234.868 325.493 234.868 325.246 234.868 324.999V324.999ZM234.868 326.995C265.409 326.995 295.949 326.995 326.49 326.995C326.49 327.241 326.49 327.488 326.49 327.735C295.949 327.735 265.409 327.735 234.868 327.735C234.868 327.488 234.868 327.241 234.868 326.995V326.995ZM234.868 328.99C265.409 328.99 295.949 328.99 326.49 328.99C326.49 329.237 326.49 329.484 326.49 329.731C295.949 329.731 265.409 329.731 234.868 329.731C234.868 329.484 234.868 329.237 234.868 328.99V328.99ZM234.868 330.986H326.49V331.726H234.868V330.986V330.986Z" fill="#48201D"/>
<path d="M313.317 319.26L248.041 319.271V331.478L313.317 331.468V319.26Z" fill="white"/>
<path d="M301.544 325.685C301.544 327.666 302.526 329.441 304.255 330.308C305.881 331.124 308.047 331.124 309.677 330.307C311.285 329.503 312.383 327.664 312.383 325.683C312.383 322.652 309.997 320.176 306.964 320.176C303.915 320.177 301.544 322.635 301.544 325.685V325.685Z" fill="#407842"/>
<path d="M307.064 321.604C306.519 323.483 304.893 326.237 303.708 327.588L306.519 327.587L306.525 328.406C306.519 328.87 306.156 329.352 305.627 329.345C304.893 329.336 303.975 328.991 303.421 328.035C303.016 327.337 302.723 326.787 302.723 325.684C302.723 323.275 304.633 321.278 307.061 321.278C309.464 321.277 311.4 323.332 311.4 325.682C311.4 326.785 310.893 327.738 310.726 328.014C310.133 328.99 309.229 329.335 308.53 329.344C308.049 329.35 307.604 328.991 307.604 328.403V327.587L310.458 327.587C309.229 326.236 307.604 323.483 307.064 321.604V321.604Z" fill="white"/>
<path d="M249.117 320.331L300.095 320.323V330.662L249.117 330.671V320.331Z" fill="#E31E24"/>
<path d="M284.758 323.934C284.675 323.807 284.643 323.797 284.554 323.797C284.454 323.797 284.414 323.847 284.347 323.94C284.237 324.088 282.962 325.999 282.947 325.999L286.169 325.998C286.163 325.998 284.936 324.201 284.758 323.934V323.934ZM284.568 322.221C285.026 322.221 285.309 322.392 285.737 322.948L288.919 327.573C289.087 327.816 289.07 328.202 288.779 328.452C288.521 328.674 288.063 328.694 287.815 328.361L287.054 327.291L282.043 327.292L281.283 328.382C281.015 328.706 280.686 328.706 280.389 328.504C280.079 328.294 280.001 327.888 280.19 327.605L283.401 322.949C283.809 322.373 284.131 322.221 284.568 322.221V322.221Z" fill="white"/>
<path d="M262.872 322.236L267.455 322.235C268.592 322.235 268.696 323.565 268.696 323.565L263.058 323.566C262.779 323.566 262.52 323.78 262.52 324.152C262.52 324.578 262.838 324.78 263.038 324.78L267.023 324.779C267.812 324.779 268.935 325.447 268.935 326.601C268.935 328.098 267.63 328.63 267.176 328.63L262.514 328.631C261.129 328.631 261.205 327.29 261.205 327.29L266.983 327.289C267.214 327.289 267.554 327.056 267.554 326.708C267.554 326.376 267.255 326.121 267.037 326.121L263.132 326.121C262.024 326.122 261.165 325.286 261.165 324.152C261.165 322.878 262.243 322.236 262.872 322.236V322.236Z" fill="white"/>
<path d="M291.505 322.242L296.237 322.241C296.954 322.241 298.066 322.836 298.066 324.26V324.35C298.066 325.109 297.598 325.775 296.943 326.098C296.943 326.098 296.99 326.171 298.006 327.573C298.138 327.754 298.146 328.189 297.857 328.451C297.582 328.702 297.124 328.734 296.893 328.462C296.57 328.082 296.197 327.583 295.173 326.26L293.324 326.26C292.797 326.26 292.081 325.837 292.081 324.898L296.077 324.897C296.294 324.888 296.642 324.676 296.642 324.261C296.642 323.877 296.307 323.615 296.076 323.615L291.661 323.616L291.665 327.867C291.666 328.332 291.315 328.644 290.938 328.644C290.58 328.644 290.222 328.321 290.222 327.887V323.555C290.222 322.827 290.978 322.242 291.505 322.242V322.242Z" fill="white"/>
<path d="M272.788 322.226L277.521 322.225C278.237 322.225 279.35 322.82 279.35 324.245V324.336C279.35 325.095 278.883 325.76 278.227 326.083C278.227 326.083 277.887 326.194 277.569 326.235L274.597 326.235C274.07 326.235 273.394 325.802 273.394 324.862L277.351 324.861C277.567 324.852 277.926 324.661 277.926 324.246C277.926 323.862 277.592 323.599 277.36 323.599L272.946 323.6L272.949 327.852C272.949 328.316 272.6 328.629 272.222 328.629C271.865 328.629 271.506 328.306 271.506 327.871V323.539C271.506 322.812 272.261 322.226 272.788 322.226V322.226Z" fill="white"/>
<path fill-rule="evenodd" clip-rule="evenodd" d="M240.291 350.238C241.103 349.068 244.492 344.672 244.492 339.217C246.785 339.459 251.796 351.24 250.44 351.948C249.379 352.502 247.973 350.477 247.973 350.477C247.973 351.948 253.866 359.035 253.3 360.703C252.735 362.37 250.992 361.453 249.704 360.926C253.485 364.64 257.549 370.893 256.696 371.953C255.844 373.013 253.933 371.057 253.933 371.057C253.933 371.057 255.793 373.16 255.013 373.613C254.478 373.923 253.3 373.007 253.3 373.007C253.3 373.007 257.042 377.767 256.696 378.89C256.527 379.441 255.288 378.89 255.288 378.89C255.288 378.89 260.312 383.987 260.312 385.55C260.312 387.113 257.609 385.134 257.609 385.134C257.864 385.598 259.348 387.693 258.631 387.693C257.41 387.741 253.636 385.55 253.636 385.55C253.636 385.55 257.169 389.797 251.974 389.797C251.664 389.797 249.14 389.476 247.474 388.434C247.599 388.954 247.661 390.244 247.125 390.244C246.589 390.244 246.123 389.952 245.701 389.244C245.701 389.462 245.565 390.555 244.671 390.868C242.83 391.512 241.051 387.525 241.051 387.525C241.051 387.525 241.025 389.627 240.017 389.627C239.008 389.627 239.182 387.525 239.182 387.525C231.971 392.407 232.54 387.851 234.079 383.586C233.414 384.097 229.955 387.277 229.464 385.93C229.254 385.356 229.76 384.594 230.457 383.488C229.847 384.073 226.504 386.834 225.208 385.55C224.785 385.131 230.673 379.755 230.673 379.317C229.465 380.29 224.735 380.727 229.464 377.487C231.461 376.118 233.215 374.736 234.079 371.057C234.079 371.057 233.293 372.021 232.695 371.308C232.385 370.259 235.815 365.829 238.248 361.453C237.634 362.123 236.649 363.09 235.815 362.555C234.981 362.021 236.895 359.678 236.895 359.678C236.895 359.678 235.271 361.043 234.863 360.333C233.837 358.551 241.484 354.539 241.484 351.948C241.231 352.346 240.061 353.168 239.599 352.346C239.201 351.637 239.897 350.806 240.291 350.238Z" fill="#3F693E"/>
<path fill-rule="evenodd" clip-rule="evenodd" d="M244.493 347.074C244.855 345.59 245.253 342.179 244.493 339.217C246.785 339.459 251.796 351.24 250.441 351.948C249.379 352.502 247.973 350.477 247.973 350.477C247.973 351.948 253.866 359.035 253.301 360.703C252.736 362.37 250.992 361.453 249.705 360.926C253.485 364.64 257.549 370.893 256.697 371.953C255.845 373.013 253.933 371.057 253.933 371.057C253.933 371.057 255.793 373.16 255.014 373.613C254.479 373.923 253.301 373.007 253.301 373.007C253.301 373.007 257.042 377.767 256.697 378.89C256.527 379.441 255.288 378.89 255.288 378.89C255.288 378.89 260.313 383.987 260.313 385.55C260.313 387.113 257.61 385.134 257.61 385.134C257.864 385.598 259.348 387.693 258.631 387.693C257.411 387.741 253.637 385.55 253.637 385.55C253.637 385.55 257.17 389.797 251.974 389.797C251.665 389.797 249.14 389.476 247.475 388.434C247.6 388.954 247.662 390.244 247.126 390.244C246.589 390.244 246.123 389.952 245.701 389.244C245.701 389.462 245.566 390.555 244.671 390.868C242.831 391.512 242.191 385.591 242.191 385.591C236.405 387.693 238.162 385.008 238.931 383.214C238.931 383.214 237.578 384.305 237.087 382.958C236.877 382.383 238.234 380.877 238.931 379.772C238.321 380.357 234.845 382.608 233.549 381.324C233.126 380.905 238.296 376.716 238.296 376.278C237.088 377.251 232.064 377.404 236.792 374.164C237.837 373.448 238.566 372.618 238.566 371.768C236.534 372.222 238.566 369.239 238.566 369.007C238.566 369.007 237.981 369.721 237.383 369.007C236.66 367.717 239.263 363.858 240.588 360.591C240.588 360.591 242.042 363.038 243.29 362.495C244.539 361.953 243.886 359.418 243.886 359.07C244.012 359.247 244.243 360.319 245.035 360.113C245.961 359.871 245.15 355.801 244.848 355.387C244.755 358.137 244.167 359.071 243.17 356.586C243.682 359.598 243.215 359.637 242.893 359.954C242.465 360.219 241.618 359.489 241.523 358.537C240.506 354.846 244.493 350.926 244.493 350.926C244.088 351.361 243.17 351.748 242.709 350.926C242.31 350.217 244.13 348.559 244.493 347.074Z" fill="#5C885C"/>
<path d="M240.597 371.642C239.57 371.172 240.157 369.234 240.304 367.502C240.402 368.355 240.752 370.067 241.371 370.091C242.102 370.12 242.7 369.063 242.764 368.894C242.766 368.888 242.768 368.881 242.77 368.874C242.77 368.878 242.768 368.885 242.764 368.894C242.443 370.054 243.078 372.129 243.683 372.129C244.169 372.129 244.474 370.912 244.565 370.304C244.899 371.004 245.737 372.348 246.41 372.129C246.771 372.012 246.825 371.425 246.755 370.769C246.661 370.185 246.528 369.602 246.41 369.166C246.54 369.582 246.694 370.202 246.755 370.769C246.942 371.934 246.973 373.107 246.41 373.139C245.564 373.186 245.079 372.297 244.942 371.847C244.825 372.366 244.332 373.415 243.298 373.462C242.265 373.509 242.124 371.779 242.183 370.908C241.997 371.309 241.419 372.017 240.597 371.642Z" fill="#3F693E"/>
<path d="M249.967 382.543C249.12 382.267 248.878 380.234 248.862 379.252C248.862 379.252 249.596 381.071 250.451 381.185C251.147 381.278 251.394 379.62 251.394 379.62C251.394 379.62 252.307 383.084 253.466 382.313C253.96 381.985 253.696 380.38 253.696 380.38C253.696 380.38 255.219 382.109 256.043 381.745C256.857 381.385 255.362 378.948 255.362 378.948C255.949 379.559 257.665 380.997 257.315 381.807C256.878 382.82 254.456 381.531 254.456 381.807C254.456 382.083 254.64 384.04 253.466 384.316C252.527 384.537 251.54 382.528 251.394 381.623C251.287 382.198 250.814 382.82 249.967 382.543Z" fill="#3F693E"/>
<path fill-rule="evenodd" clip-rule="evenodd" d="M255.156 378.857C255.823 379.94 256.152 380.775 256.173 381.256C256.18 381.418 256.153 381.537 256.102 381.611C256.051 381.685 255.98 381.723 255.867 381.73C255.691 381.739 255.418 381.649 255.068 381.438C254.717 381.227 254.287 380.898 253.783 380.44C253.764 380.423 253.735 380.419 253.711 380.43C253.688 380.442 253.674 380.466 253.677 380.492C253.677 380.492 253.681 380.527 253.686 380.589C253.692 380.651 253.698 380.739 253.703 380.843C253.716 381.12 253.716 381.512 253.647 381.832C253.614 381.991 253.562 382.132 253.493 382.23C253.422 382.327 253.342 382.38 253.231 382.386C253.151 382.39 253.051 382.367 252.928 382.303C252.388 382.025 252.037 381.351 251.829 380.743C251.725 380.439 251.655 380.153 251.612 379.943C251.59 379.838 251.575 379.752 251.566 379.693C251.556 379.633 251.552 379.601 251.552 379.601C251.548 379.571 251.523 379.548 251.492 379.547C251.461 379.546 251.433 379.566 251.427 379.595C251.427 379.595 251.421 379.619 251.411 379.661C251.373 379.809 251.268 380.183 251.1 380.518C251.017 380.686 250.917 380.844 250.806 380.958C250.694 381.073 250.575 381.142 250.448 381.148L250.416 381.148C250.271 381.145 250.093 381.024 249.919 380.831C249.657 380.543 249.405 380.108 249.22 379.746C249.128 379.565 249.052 379.402 248.999 379.285C248.946 379.168 248.917 379.096 248.917 379.096C248.904 379.065 248.867 379.049 248.835 379.062C248.802 379.074 248.786 379.11 248.799 379.141C248.8 379.143 249.012 379.66 249.314 380.184C249.466 380.446 249.64 380.709 249.824 380.912C250.008 381.113 250.201 381.26 250.411 381.27L250.454 381.27C250.651 381.26 250.816 381.142 250.951 380.984C251.154 380.746 251.301 380.407 251.401 380.126C251.5 379.845 251.55 379.622 251.551 379.621L251.489 379.608L251.426 379.616C251.426 379.618 251.496 380.162 251.709 380.782C251.922 381.401 252.275 382.101 252.868 382.411C253.004 382.482 253.126 382.513 253.236 382.508C253.392 382.502 253.514 382.417 253.598 382.299C253.724 382.12 253.783 381.862 253.813 381.594C253.842 381.326 253.84 381.049 253.83 380.837C253.82 380.625 253.803 380.479 253.803 380.478L253.74 380.485L253.696 380.529C254.204 380.991 254.639 381.325 255 381.542C255.362 381.758 255.649 381.861 255.872 381.852C256.016 381.847 256.137 381.786 256.208 381.678C256.28 381.571 256.307 381.427 256.299 381.251C256.274 380.727 255.936 379.888 255.265 378.794C255.247 378.765 255.208 378.756 255.178 378.773C255.148 378.79 255.138 378.828 255.156 378.857V378.857Z" fill="#2B5129"/>
<path d="M241.562 358.747C241.715 359.199 242.237 360.078 242.744 360.012C243.96 359.852 243.204 357.602 243.196 356.519C243.331 357.052 243.678 358.028 244.159 358.015C244.744 357.999 244.812 356.247 244.827 355.381" stroke="#2B5129"/>
<path fill-rule="evenodd" clip-rule="evenodd" d="M246.446 369.103C246.793 370.328 246.883 371.22 246.772 371.689C246.735 371.847 246.676 371.954 246.607 372.011C246.538 372.068 246.46 372.086 246.349 372.062C246.177 372.023 245.939 371.862 245.659 371.563C245.379 371.265 245.054 370.832 244.695 370.254C244.681 370.232 244.654 370.22 244.628 370.224C244.602 370.229 244.582 370.249 244.578 370.274C244.578 370.275 244.572 370.309 244.561 370.37C244.549 370.431 244.532 370.518 244.508 370.619C244.445 370.889 244.338 371.267 244.185 371.556C244.109 371.7 244.022 371.822 243.928 371.896C243.834 371.971 243.742 372 243.633 371.976C243.556 371.957 243.466 371.908 243.365 371.813C242.921 371.399 242.766 370.655 242.732 370.013C242.714 369.693 242.725 369.398 242.741 369.184C242.748 369.077 242.757 368.991 242.764 368.931C242.771 368.871 242.776 368.838 242.776 368.838C242.78 368.809 242.762 368.78 242.732 368.771C242.703 368.761 242.671 368.773 242.657 368.799C242.657 368.8 242.645 368.821 242.624 368.858C242.547 368.991 242.344 369.321 242.091 369.599C241.965 369.737 241.827 369.862 241.689 369.942C241.55 370.022 241.417 370.056 241.293 370.027L241.262 370.018C241.124 369.976 240.985 369.811 240.87 369.578C240.696 369.23 240.572 368.742 240.493 368.344C240.453 368.144 240.424 367.967 240.405 367.84C240.386 367.713 240.378 367.636 240.378 367.636C240.374 367.602 240.343 367.577 240.308 367.581C240.273 367.584 240.248 367.614 240.252 367.647C240.252 367.649 240.315 368.205 240.464 368.791C240.539 369.084 240.634 369.385 240.756 369.63C240.878 369.874 241.024 370.068 241.223 370.135L241.265 370.146C241.458 370.191 241.648 370.122 241.821 370.006C242.081 369.832 242.315 369.546 242.488 369.303C242.66 369.06 242.768 368.859 242.769 368.858L242.713 368.829L242.65 368.819C242.65 368.821 242.569 369.363 242.605 370.018C242.642 370.672 242.791 371.442 243.277 371.901C243.389 372.006 243.498 372.07 243.605 372.095C243.757 372.131 243.898 372.083 244.01 371.991C244.18 371.854 244.307 371.621 244.409 371.372C244.51 371.122 244.583 370.854 244.632 370.648C244.68 370.441 244.703 370.296 244.703 370.295L244.641 370.285L244.586 370.316C244.949 370.898 245.277 371.338 245.566 371.645C245.855 371.952 246.103 372.129 246.321 372.181C246.46 372.215 246.593 372.189 246.691 372.105C246.79 372.021 246.855 371.89 246.895 371.718C247.013 371.207 246.916 370.308 246.569 369.073C246.559 369.04 246.524 369.02 246.491 369.029C246.457 369.037 246.437 369.071 246.446 369.103V369.103Z" fill="#2B5129"/>
<path fill-rule="evenodd" clip-rule="evenodd" d="M282.29 241.311C334.039 241.311 375.99 280.832 375.99 329.583C375.99 378.335 334.039 417.856 282.29 417.856C230.541 417.856 188.59 378.335 188.59 329.583C188.59 280.832 230.541 241.311 282.29 241.311Z" fill="#FEFEFE" fill-opacity="0.431373"/>
<path fill-rule="evenodd" clip-rule="evenodd" d="M199.089 336.563C199.088 336.986 198.745 337.328 198.323 337.327C197.9 337.326 197.558 336.984 197.558 336.561C197.559 336.138 197.902 335.796 198.325 335.797C198.748 335.797 199.089 336.141 199.089 336.563Z" fill="#FEFEFE"/>
<path fill-rule="evenodd" clip-rule="evenodd" d="M267.397 269.219C267.395 270.705 266.189 271.907 264.704 271.904C263.219 271.902 262.017 270.696 262.019 269.211C262.022 267.726 263.227 266.524 264.712 266.526C266.198 266.529 267.4 267.734 267.397 269.219Z" fill="#FEFEFE"/>
<path fill-rule="evenodd" clip-rule="evenodd" d="M347.275 288.318C347.274 288.837 346.852 289.258 346.332 289.258C345.812 289.257 345.391 288.835 345.392 288.315C345.393 287.795 345.815 287.374 346.335 287.375C346.855 287.376 347.276 287.798 347.275 288.318Z" fill="#FEFEFE"/>
<path fill-rule="evenodd" clip-rule="evenodd" d="M213.807 347.97C213.804 349.391 212.65 350.542 211.228 350.54C209.807 350.537 208.656 349.383 208.658 347.961C208.66 346.54 209.815 345.389 211.236 345.391C212.658 345.393 213.809 346.548 213.807 347.97Z" fill="#FEFEFE"/>
<path fill-rule="evenodd" clip-rule="evenodd" d="M232.093 310.921C232.091 312.054 231.171 312.971 230.039 312.969C228.906 312.967 227.989 312.047 227.991 310.915C227.993 309.782 228.912 308.865 230.045 308.867C231.178 308.869 232.095 309.788 232.093 310.921Z" fill="#FEFEFE"/>
<path fill-rule="evenodd" clip-rule="evenodd" d="M284.009 297.535C284.007 298.224 283.448 298.781 282.759 298.78C282.071 298.779 281.513 298.22 281.514 297.531C281.515 296.842 282.074 296.285 282.763 296.286C283.452 296.287 284.009 296.846 284.009 297.535Z" fill="#FEFEFE"/>
<path fill-rule="evenodd" clip-rule="evenodd" d="M348.025 351.651C348.022 353.136 346.816 354.339 345.331 354.336C343.846 354.334 342.644 353.128 342.646 351.643C342.649 350.158 343.855 348.956 345.34 348.958C346.825 348.96 348.027 350.166 348.025 351.651Z" fill="#FEFEFE"/>
<path fill-rule="evenodd" clip-rule="evenodd" d="M252.269 288.964C252.269 289.462 251.864 289.866 251.366 289.865C250.867 289.864 250.465 289.46 250.465 288.961C250.466 288.463 250.87 288.06 251.369 288.06C251.867 288.061 252.27 288.466 252.269 288.964Z" fill="#FEFEFE"/>
<path fill-rule="evenodd" clip-rule="evenodd" d="M316.062 308.167C316.06 309.292 315.147 310.202 314.022 310.2C312.897 310.198 311.987 309.285 311.989 308.16C311.991 307.036 312.904 306.125 314.029 306.127C315.154 306.128 316.064 307.042 316.062 308.167Z" fill="#FEFEFE"/>
<path fill-rule="evenodd" clip-rule="evenodd" d="M214.665 281.454C215.403 279.376 217.227 276.692 220.44 273.619C223.654 270.546 228.257 267.083 232.512 264.053C236.768 261.023 240.676 258.426 244.367 256.738C248.058 255.05 251.532 254.271 253.617 254.487C255.701 254.703 256.396 255.916 253.53 258.513C250.664 261.11 244.237 265.092 238.722 269.853C233.207 274.615 228.604 280.155 224.74 283.055C220.875 285.955 217.748 286.215 216.011 285.609C214.274 285.003 213.927 283.531 214.665 281.454V281.454Z" fill="#FEFEFE"/>
<path fill-rule="evenodd" clip-rule="evenodd" d="M334.766 393.668C330.44 392.936 324.991 393.399 317.142 393.897C309.293 394.395 299.043 394.928 288.21 395.337C277.376 395.747 265.959 396.032 256.025 396.121C246.091 396.21 237.639 396.102 232.498 396.296C223.092 396.75 223.329 398.268 219.114 404.77C218.166 406.233 212.09 415.484 213.321 416.561C214.269 417.389 227.844 416.811 229.869 416.789C244.425 416.667 259.229 417.738 273.938 417.836C299.315 417.969 325.508 417.43 350.802 415.738C352.09 415.652 360.971 415.369 359.904 413.298C359.359 412.242 355.513 408.77 354.275 407.253C350.21 402.274 348.612 400.09 342.323 396.469C339.763 394.994 337.796 394.268 334.766 393.668V393.668Z" fill="#AF6032"/>
<path d="M444.075 370.465H387.82V443.092H444.075V370.465Z" fill="#F8B255"/>
<path d="M444.078 370.466L463.309 360.331V432.958L444.078 443.093V370.466Z" fill="#F49C3D"/>
<path fill-rule="evenodd" clip-rule="evenodd" d="M464.146 359.998L444.085 370.301V391.127L464.146 376.808V359.998Z" fill="#F8B255"/>
<path fill-rule="evenodd" clip-rule="evenodd" d="M387.012 370.464H444.067L464.039 359.994H406.551L387.012 370.464Z" fill="#FFF7B2"/>
<path d="M444.087 369.979L387.012 369.979L387.012 389.954L444.087 389.954L444.087 369.979Z" fill="#FCCD70"/>
<path d="M421.36 370.575H410.936V443.818H421.36V370.575Z" fill="#C23E22"/>
<path fill-rule="evenodd" clip-rule="evenodd" d="M402.265 362.446L457.318 363.516L453.656 365.446L396.317 365.479L402.265 362.446Z" fill="#E76A3B"/>
<path d="M421.36 370.576H410.936L426.855 359.877H437.279L421.36 370.576Z" fill="#E76A3B"/>
<path fill-rule="evenodd" clip-rule="evenodd" d="M425.751 362.882C428.751 364.688 429.775 363.497 433.234 366.532C436.678 369.553 444.355 370.877 445.843 364.137C445.996 363.447 446.715 358.487 445.096 360.204C441.933 363.556 438.285 365.407 434.161 363.411C431.137 361.947 428.741 360.009 425.751 362.882V362.882Z" fill="#C23E22"/>
<path fill-rule="evenodd" clip-rule="evenodd" d="M425.921 362.348C430.137 357.521 441.234 344.471 445.318 356.119C445.566 356.825 447.408 361.758 445.431 360.521C441.567 358.106 437.546 357.444 433.89 360.996C431.208 363.601 429.51 364.318 425.921 362.348V362.348Z" fill="#E76A3B"/>
<path fill-rule="evenodd" clip-rule="evenodd" d="M424.501 360.767C421.214 357.829 419.8 358.982 416.163 354.457C412.543 349.953 403.598 346.368 400.736 354.02C400.444 354.802 398.788 360.53 400.995 358.906C405.307 355.733 409.957 354.479 414.555 357.939C417.927 360.475 420.471 363.411 424.501 360.767Z" fill="#C23E22"/>
<path fill-rule="evenodd" clip-rule="evenodd" d="M424.208 361.358C418.401 366.014 403.062 378.68 400.066 363.72C399.885 362.813 398.482 356.447 400.642 358.439C404.862 362.329 409.551 364.17 414.485 360.889C418.103 358.482 420.244 358.07 424.208 361.358Z" fill="#C23E22"/>
<path d="M425.552 359.004H422.341C420.841 359.004 419.625 360.553 419.625 362.464C419.625 364.375 420.841 365.924 422.341 365.924H425.552C427.053 365.924 428.269 364.375 428.269 362.464C428.269 360.553 427.053 359.004 425.552 359.004Z" fill="#C23E22"/>
<path d="M425.342 358.886H422.558C421.257 358.886 420.202 360.229 420.202 361.887C420.202 363.544 421.257 364.887 422.558 364.887H425.342C426.644 364.887 427.698 363.544 427.698 361.887C427.698 360.229 426.644 358.886 425.342 358.886Z" fill="#E76A3B"/>
<path d="M399.782 405.547H341.873V450.302H399.782V405.547Z" fill="#C23E22"/>
<path d="M341.874 405.545L322.078 399.299V444.054L341.874 450.3V405.545Z" fill="#F08143"/>
<path fill-rule="evenodd" clip-rule="evenodd" d="M321.216 399.096L341.866 405.444V418.278L321.216 409.454V399.096Z" fill="#E76A3B"/>
<path fill-rule="evenodd" clip-rule="evenodd" d="M400.623 405.547H341.89L321.331 399.095H380.509L400.623 405.547Z" fill="#F08143"/>
<path d="M400.617 405.547H341.865V417.856H400.617V405.547Z" fill="#B5280A"/>
<path d="M375.99 405.615H365.26V450.75H375.99V405.615Z" fill="#FCCC70"/>
<path fill-rule="evenodd" clip-rule="evenodd" d="M332.006 402.455L328.253 401.263V445.988L331.902 447.893L332.006 402.455Z" fill="#FCCC70"/>
<path fill-rule="evenodd" clip-rule="evenodd" d="M384.918 400.606L328.246 401.265L332.017 402.455L391.04 402.476L384.918 400.606Z" fill="#FFF7B2"/>
<path d="M365.256 405.615H375.986L359.599 399.022H348.868L365.256 405.615Z" fill="#F8B255"/>
<path fill-rule="evenodd" clip-rule="evenodd" d="M360.742 400.875C357.654 401.989 356.6 401.254 353.04 403.124C349.495 404.987 341.592 405.802 340.06 401.648C339.903 401.223 339.163 398.167 340.83 399.225C344.085 401.291 347.841 402.431 352.085 401.201C355.199 400.299 357.664 399.105 360.742 400.875Z" fill="#FCCC70"/>
<path fill-rule="evenodd" clip-rule="evenodd" d="M360.565 400.546C356.224 397.571 344.801 389.53 340.597 396.707C340.343 397.143 338.446 400.182 340.482 399.42C344.459 397.931 348.597 397.524 352.362 399.712C355.122 401.318 356.87 401.76 360.565 400.546Z" fill="#FCCC70"/>
<path fill-rule="evenodd" clip-rule="evenodd" d="M362.041 399.572C365.425 397.761 366.881 398.472 370.624 395.683C374.351 392.908 383.559 390.699 386.505 395.414C386.806 395.896 388.511 399.426 386.239 398.425C381.8 396.47 377.013 395.697 372.28 397.828C368.809 399.392 366.19 401.202 362.041 399.572Z" fill="#FCCC70"/>
<path fill-rule="evenodd" clip-rule="evenodd" d="M362.34 399.936C368.318 402.805 384.108 410.61 387.192 401.391C387.378 400.832 388.823 396.909 386.599 398.137C382.255 400.534 377.428 401.668 372.349 399.647C368.625 398.163 366.421 397.91 362.34 399.936V399.936Z" fill="#FCCC70"/>
<path d="M364.257 398.488H360.951C359.407 398.488 358.155 399.443 358.155 400.62C358.155 401.798 359.407 402.753 360.951 402.753H364.257C365.801 402.753 367.053 401.798 367.053 400.62C367.053 399.443 365.801 398.488 364.257 398.488Z" fill="#F8B255"/>
<path d="M364.257 398.488H360.951C359.407 398.488 358.155 399.443 358.155 400.62C358.155 401.798 359.407 402.753 360.951 402.753H364.257C365.801 402.753 367.053 401.798 367.053 400.62C367.053 399.443 365.801 398.488 364.257 398.488Z" fill="#F49C3D"/>
<path d="M364.317 397.561H361.012C359.468 397.561 358.216 398.515 358.216 399.693C358.216 400.87 359.468 401.825 361.012 401.825H364.317C365.862 401.825 367.113 400.87 367.113 399.693C367.113 398.515 365.862 397.561 364.317 397.561Z" fill="#FCCD70"/>
<path d="M387.012 536.002C387.012 686.907 784.436 774.828 1191.3 774.828C1598.16 774.828 1970.79 743.427 1956.73 536.002C1956.73 385.096 1563.92 228.682 1157.06 228.682C750.195 228.682 387.012 385.096 387.012 536.002Z" fill="url(#paint4_linear_1322_13640)"/>
<path fill-rule="evenodd" clip-rule="evenodd" d="M280.108 415.639C262.942 435.374 314.152 450.008 329.164 431.826C344.175 413.643 293.888 399.796 280.108 415.639Z" fill="url(#paint5_linear_1322_13640)"/>
<path fill-rule="evenodd" clip-rule="evenodd" d="M382.887 466.233C434.017 491.952 508.983 466.128 460.578 431.676C412.175 397.224 352.748 451.074 382.887 466.233V466.233Z" fill="url(#paint6_linear_1322_13640)"/>
<path d="M-155.108 564.79C-155.108 662.298 -60.501 738.812 114.174 738.812C288.85 738.812 475.93 651.599 475.93 554.091C475.93 456.583 234.409 378.359 24.1104 391.376C-148.544 422.358 -155.108 467.282 -155.108 564.79Z" fill="url(#paint7_linear_1322_13640)"/>
<path fill-rule="evenodd" clip-rule="evenodd" d="M-2.54344 418.848C51.6264 440.64 123.393 410.621 74.4077 370.24C22.3909 338.398 -28.3456 393.1 -2.54344 418.848Z" fill="url(#paint8_linear_1322_13640)"/>
<path fill-rule="evenodd" clip-rule="evenodd" d="M76.5548 408.031C80.6157 423.366 137.763 417.113 121.416 393.571C105.069 370.029 69.6165 390.735 76.5548 408.031Z" fill="url(#paint9_linear_1322_13640)"/>
<defs>
<linearGradient id="paint0_linear_1322_13640" x1="1878.61" y1="94.8265" x2="1918.71" y2="360.519" gradientUnits="userSpaceOnUse">
<stop stop-color="#D5EDE8"/>
<stop offset="1" stop-color="white"/>
</linearGradient>
<linearGradient id="paint1_linear_1322_13640" x1="316.278" y1="0" x2="270.391" y2="119.077" gradientUnits="userSpaceOnUse">
<stop stop-color="white"/>
<stop offset="1" stop-color="#EFFDFB"/>
</linearGradient>
<linearGradient id="paint2_linear_1322_13640" x1="347.423" y1="433.796" x2="354.305" y2="432.771" gradientUnits="userSpaceOnUse">
<stop stop-color="white"/>
<stop offset="1" stop-color="#EFFDFB"/>
</linearGradient>
<linearGradient id="paint3_linear_1322_13640" x1="273.023" y1="307.912" x2="306.924" y2="526.327" gradientUnits="userSpaceOnUse">
<stop stop-color="#D1E7E3"/>
<stop offset="1" stop-color="white"/>
</linearGradient>
<linearGradient id="paint4_linear_1322_13640" x1="1200.31" y1="301.02" x2="1301.17" y2="658.407" gradientUnits="userSpaceOnUse">
<stop stop-color="white"/>
<stop offset="1" stop-color="#E7FCF9"/>
</linearGradient>
<linearGradient id="paint5_linear_1322_13640" x1="276.628" y1="423.584" x2="295.818" y2="453.285" gradientUnits="userSpaceOnUse">
<stop stop-color="white"/>
<stop offset="1" stop-color="#EFFDFB"/>
</linearGradient>
<linearGradient id="paint6_linear_1322_13640" x1="427.15" y1="420.536" x2="460.381" y2="459.616" gradientUnits="userSpaceOnUse">
<stop stop-color="white"/>
<stop offset="1" stop-color="#EFFDFB"/>
</linearGradient>
<linearGradient id="paint7_linear_1322_13640" x1="112.872" y1="372.119" x2="169.038" y2="501.332" gradientUnits="userSpaceOnUse">
<stop stop-color="white"/>
<stop offset="1" stop-color="#F7FFFE"/>
</linearGradient>
<linearGradient id="paint8_linear_1322_13640" x1="41.2021" y1="378.293" x2="74.8106" y2="414.287" gradientUnits="userSpaceOnUse">
<stop stop-color="white"/>
<stop offset="1" stop-color="#ECFAF8"/>
</linearGradient>
<linearGradient id="paint9_linear_1322_13640" x1="102.736" y1="397.698" x2="105.793" y2="418.252" gradientUnits="userSpaceOnUse">
<stop stop-color="white"/>
<stop offset="1" stop-color="#E8F8F5"/>
</linearGradient>
</defs>
</svg>
