<svg xmlns="http://www.w3.org/2000/svg" width="736" height="817" fill="none"><path fill="#C17A48" fill-rule="evenodd" d="M556.928 313.187c13.693-.16 15.228-72.739-1.608-82.848-16.838-10.111-231.189 7.849-235.151 17.342-3.96 9.494-7.48 72.906 8.006 77.866 15.484 4.96 228.752-12.36 228.753-12.36Z" clip-rule="evenodd"/><path fill="#183946" fill-rule="evenodd" d="m316.924 289.326 250.65-13.54c.004-3.077-.087-6.189-.277-9.265l-250.503 13.531c-.025 3.069.014 6.182.13 9.274Z" clip-rule="evenodd"/><path fill="#A8592D" fill-rule="evenodd" d="M319.243 310.15c-2.756-12.598-2.88-30.351-1.915-43.91 3.123-.762 6.443-1.305 9.896-1.491 4.341-.235 8.886.094 13.51 1.252 8.921 2.234 17.436 5.94 25.037 9.554l.1 1.846-49.078 2.651c-.026 3.069.013 6.182.129 9.275l37.629-2.034c-12.532 6.597-24.428 14.217-35.308 22.857Zm247.986-24.66a104.074 104.074 0 0 0-12.253-9.023l12.595-.681a141.9 141.9 0 0 1-.343 9.704h.001Zm.067-18.97-28.358 1.532c-23.197-9.995-49.775-13.104-74.956-11.744-7.039.38-13.979 1.11-20.696 2.138a292.57 292.57 0 0 0-51.62 12.808 295.977 295.977 0 0 0-1.597-9.838c8.151-.744 18.719-2.738 18.773-8.085a6.982 6.982 0 0 0-.009-.433c-.454-8.577-16.64-17.573-16.64-17.573 0-.001 25.693-1.928 52.877-3.397 13.595-.735 27.557-1.353 38.873-1.56 33.942-.616 56.925 7.346 69.735 17.46 5.106 4.031 9.202 8.442 13.143 12.965.196 1.884.354 3.8.473 5.727h.002Zm-176.812 4.952c-4.436-5.126-9.703-9.617-9.703-9.617h.028l.017.001.055-.001a101.505 101.505 0 0 0 5.253-.156c.849-.046 1.766-.105 2.73-.182a302.229 302.229 0 0 1 1.62 9.955Z" clip-rule="evenodd"/><path fill="#17292C" fill-rule="evenodd" d="m567.572 275.787-12.594.68c-5.108-3.223-10.476-6.016-16.038-8.414l28.357-1.532c.189 3.077.28 6.188.275 9.266Zm-213.02 11.506-37.628 2.033a205.334 205.334 0 0 1-.13-9.273l49.079-2.652.225 4.181a258.823 258.823 0 0 0-11.546 5.711Z" clip-rule="evenodd"/><path fill="#183946" fill-rule="evenodd" d="m469.828 298.174-55.404 2.993c-4.576.247-8.495-3.4-8.752-8.148l-.113-2.103 71.978-3.888.114 2.103c.256 4.747-3.245 8.796-7.823 9.043Z" clip-rule="evenodd"/><path fill="#F8B255" fill-rule="evenodd" d="m406.361 290.875-1.531-28.336c-.025-.459-.404-.812-.847-.788-.442.024-.781.416-.756.875l1.53 28.335c.025.459.405.813.846.789.443-.025.782-.416.758-.875ZM478.042 287.003l-1.531-28.335a.816.816 0 0 0-.846-.788c-.442.023-.782.416-.757.874l1.531 28.335c.025.46.404.813.846.789a.818.818 0 0 0 .757-.875ZM526.171 295.131l-31.786 1.717-.578-10.698 31.786-1.717.578 10.698ZM389.043 302.54l-31.786 1.717-.578-10.699 31.786-1.717.578 10.699Z" clip-rule="evenodd"/><path fill="#F8B255" fill-rule="evenodd" d="m512.089 288.641-4.406.238c-2.017.109-3.744-1.498-3.857-3.591l-1.09-20.181c-.113-2.092 1.431-3.876 3.447-3.985l4.407-.239c2.016-.109 3.743 1.499 3.856 3.592l1.09 20.18c.113 2.093-1.431 3.877-3.447 3.986ZM374.961 296.05l-4.405.238c-2.018.109-3.745-1.498-3.858-3.592l-1.09-20.18c-.113-2.093 1.43-3.877 3.448-3.986l4.405-.238c2.018-.109 3.745 1.498 3.858 3.591l1.09 20.181c.113 2.093-1.43 3.877-3.448 3.986Z" clip-rule="evenodd"/><path fill="#FED785" fill-rule="evenodd" d="m515.55 284.975-.007.001a3.424 3.424 0 0 0-.004-.32l-.327-6.042.331 6.125c.005.08.007.159.007.236ZM503.856 285.606l-.005.001a3.66 3.66 0 0 1-.019-.235l-.004-.084c.006.108.014.213.028.318Z" clip-rule="evenodd"/><path fill="#FFE98D" fill-rule="evenodd" d="m512.17 288.636-4.566.247c-1.896.103-3.531-1.348-3.752-3.277h.004c.263 1.935 1.914 3.376 3.828 3.273l4.407-.238c1.914-.104 3.4-1.714 3.451-3.666l.007-.001c-.013 1.942-1.482 3.56-3.379 3.662Z" clip-rule="evenodd"/><path fill="#FFE98D" fill-rule="evenodd" d="m512.089 288.642-4.406.238c-1.914.103-3.566-1.338-3.828-3.273a4.153 4.153 0 0 1-.029-.319l-.274-5.091c4.091-2.143 7.891-4.962 11.297-8.265l.361 6.682.326 6.042c.006.108.008.213.004.32-.051 1.952-1.537 3.562-3.451 3.666Z" clip-rule="evenodd"/><path fill="#FED785" fill-rule="evenodd" d="M378.416 292.383h-.004a4.905 4.905 0 0 0-.004-.32l-.327-6.042.331 6.126c.004.08.005.158.004.236ZM366.728 293.013l-.006.001a3.66 3.66 0 0 1-.02-.235l-.005-.084c.006.109.017.213.031.318Z" clip-rule="evenodd"/><path fill="#FFE98D" fill-rule="evenodd" d="m375.04 296.045-4.565.246c-1.898.103-3.533-1.347-3.753-3.276l.005-.001c.261 1.936 1.913 3.377 3.827 3.273l4.405-.238c1.914-.103 3.403-1.714 3.453-3.666h.005c-.011 1.941-1.48 3.559-3.377 3.662Z" clip-rule="evenodd"/><path fill="#FFE98D" fill-rule="evenodd" d="m374.96 296.05-4.405.238c-1.914.104-3.567-1.337-3.827-3.272a3.743 3.743 0 0 1-.03-.319l-.356-6.584c3.194-1.594 6.22-3.588 9.029-5.911.838.405 1.657.795 2.46 1.171l.251 4.649.327 6.042c.005.109.006.214.004.32-.05 1.952-1.539 3.563-3.453 3.666Z" clip-rule="evenodd"/><path fill="#D04F29" fill-rule="evenodd" d="m136.928 593.09 542.036-29.281s-8.379-139.607-59.085-146.439c0 0-24.252-91.774-49.26-104.342-25.007-12.569-208.056-.07-250.107 13.511-42.05 13.581-84.395 99.384-84.395 99.384-67.88 26.267-102.934 80.307-99.189 167.167Z" clip-rule="evenodd"/><path fill="#FCE5D3" fill-rule="evenodd" d="M166.255 597.596c9.278-35.298 16.638-64.694-17.253-60.545l-1.357-25.119s-28.06-12.15-32.138 15.909c-4.077 28.058 9.482 71.984 9.482 71.984l41.266-2.229ZM651.413 571.388l42.939-2.32s10.348-67.256-3.749-69.393c-14.098-2.139-50.118 24.746-50.546 37.529-.427 12.781 11.355 34.184 11.356 34.184Z" clip-rule="evenodd"/><path fill="#F8B255" fill-rule="evenodd" d="M150.297 505.201c21.368 6.501 42.033-35.736 33.433-47.697-29.875-16.988-52.571 28.78-33.433 47.697Z" clip-rule="evenodd"/><path fill="#E68A4B" fill-rule="evenodd" d="M155.656 505.854c2.221-.12 4.406-.708 6.525-1.673-2.118.965-4.304 1.553-6.525 1.673Zm6.53-1.674.044-.021-.044.021Zm.054-.025c.015-.008.029-.013.043-.021-.014.008-.028.013-.043.021Zm.071-.034a.06.06 0 0 0 .016-.008c-.005.004-.011.006-.016.008Z" clip-rule="evenodd"/><path fill="#FCCC70" fill-rule="evenodd" d="M155.657 505.854a15.354 15.354 0 0 1-4.433-.403 14.937 14.937 0 0 1-.926-.25c-2.467-2.438-4.234-5.325-5.384-8.464 3.09-15.276 15.795-25.828 31.986-26.702a42.231 42.231 0 0 1 8.321.387c-2.211 12.439-11.561 28.431-22.893 33.691a.034.034 0 0 1-.015.007.243.243 0 0 1-.028.014l-.044.02c-.003.002-.007.002-.009.005l-.044.02-.006.002c-2.119.964-4.304 1.553-6.525 1.673Z" clip-rule="evenodd"/><path fill="#F8B255" fill-rule="evenodd" d="M652 437.386c-10.809-7.555-28.378-7.665-28.162-3.658.217 4.007 18.456 51.739 20.936 56.244 2.482 4.505 26.545 3.227 27.325-1.476.776-4.68-13.264-43.651-20.099-51.11Z" clip-rule="evenodd"/><path fill="#CDD9CA" fill-rule="evenodd" d="m672.101 488.508.003-.013-.003.013Z" clip-rule="evenodd"/><path fill="#E68A4B" fill-rule="evenodd" d="M623.847 433.787c0 .002-.001 0-.001 0h.001Zm0-.009h-.001.001Zm-.001-.031h-.001.001Zm-.002-.009v-.001.001Z" clip-rule="evenodd"/><path fill="#FCCC70" fill-rule="evenodd" d="M670.857 490.054c-5.354-14.513-20.947-42.102-44.668-48.409-1.371-4.013-2.261-6.908-2.346-7.854 0 0 0 .002 0 0l-.001-.01a.325.325 0 0 0-.002-.033l-.001-.009v-.003l-.001-.009c-.08-1.479 2.262-2.396 5.791-2.587 6.037-.326 15.55 1.477 22.371 6.245 6.555 7.152 19.736 43.286 20.121 50.365.017.303.01.553-.022.745l-.002.014c-.099.566-.543 1.082-1.24 1.545Z" clip-rule="evenodd"/><path fill="#183946" fill-rule="evenodd" d="M272.663 455.266c.293 5.429-3.713 10.059-8.948 10.342-5.237.283-9.72-3.888-10.013-9.318-.293-5.428 3.714-10.059 8.95-10.342 5.236-.283 9.718 3.889 10.011 9.318ZM464.338 436.94l-17.274 11.517 18.414 9.589 17.275-11.517-18.415-9.589ZM529.351 433.426l-17.273 11.518 18.413 9.589 17.275-11.517-18.415-9.59ZM594.358 429.916l-17.276 11.518 18.416 9.589 17.275-11.517-18.415-9.59Z" clip-rule="evenodd"/><path fill="#F8B255" fill-rule="evenodd" d="M503.647 444.964c.155 2.874-1.966 5.326-4.737 5.476-2.773.149-5.145-2.06-5.301-4.933-.155-2.876 1.966-5.327 4.738-5.476 2.771-.15 5.144 2.058 5.3 4.933ZM568.89 441.44c.155 2.874-1.966 5.326-4.738 5.476-2.771.149-5.144-2.06-5.3-4.933-.155-2.876 1.967-5.327 4.738-5.476 2.772-.15 5.145 2.058 5.3 4.933Z" clip-rule="evenodd"/><path fill="#B23121" fill-rule="evenodd" d="m438.27 566.337-77.731 4.199a.796.796 0 0 1-.603-.234.862.862 0 0 1-.243-.619c.087-4.013.031-7.915-.174-11.698-1.047-19.353-5.942-35.624-15.051-48.571-9.11-12.946-22.447-22.603-40.52-28.67a.832.832 0 0 1-.556-.749l-2.312-42.792c-.025-.459.314-.85.756-.874.443-.024.822.329.847.787l2.281 42.222c18.061 6.157 31.562 15.962 40.8 29.098 9.332 13.261 14.302 29.878 15.358 49.462.191 3.547.255 7.19.193 10.929l76.064-4.109-7.265-134.486c-.025-.458.313-.85.757-.874.443-.024.822.33.846.788l7.31 135.317a.855.855 0 0 1-.204.601.793.793 0 0 1-.553.273ZM181.58 539.606a.78.78 0 0 1-.334-.055.846.846 0 0 1-.46-1.079c7.456-20.023 22.245-34.749 39.335-44.687 17.097-9.939 36.509-15.112 53.358-16.023 7.601-.411 14.683.047 20.804 1.338.436.092.716.532.63.981a.807.807 0 0 1-.742.665.77.77 0 0 1-.202-.016c-5.957-1.256-12.913-1.711-20.401-1.307l-.011.001c-16.596.897-35.801 6.015-52.647 15.813-16.853 9.802-31.336 24.261-38.626 43.84a.801.801 0 0 1-.704.529ZM614.898 537.348a.81.81 0 0 1-.818-.611c-6.592-24.542-19.893-42.133-36.194-53.37-16.3-11.234-35.615-16.102-54.202-15.098h-.001c-23.601 1.275-45.99 12.016-59.544 31.103a.785.785 0 0 1-1.122.174.853.853 0 0 1-.171-1.164c13.895-19.557 36.742-30.478 60.749-31.775 18.91-1.022 38.563 3.926 55.176 15.375 16.614 11.445 30.172 29.408 36.856 54.314.119.444-.131.903-.558 1.024a.802.802 0 0 1-.171.028Z" clip-rule="evenodd"/><path fill="#E66D3B" fill-rule="evenodd" d="M332.796 522.022c-8.813.475-19.307-15.843-49.404-20.775-8.707-1.429-16.371-1.673-23.014-1.314-7.569.409-13.815 1.601-18.771 2.726-4.957 1.123-8.625 2.176-11.038 2.306-1.292.07-2.223-.124-2.802-.713-3.75-3.825 13.248-16.388 42.025-17.942 5.29-.286 10.978-.2 17.008.381 38.833 3.742 59.011 28.565 49.252 34.312-1.082.638-2.155.96-3.256 1.019ZM580.082 508.663c-7.923.427-17.448-15.942-44.544-21.037-7.839-1.476-14.732-1.761-20.706-1.439-6.804.368-12.416 1.526-16.867 2.624-4.45 1.095-7.743 2.128-9.913 2.245-1.161.063-2.001-.136-2.523-.728-3.394-3.845 11.825-16.311 37.697-17.709a91.953 91.953 0 0 1 15.299.474c34.942 3.952 53.225 28.877 44.482 34.57-.971.632-1.935.948-2.925 1Z" clip-rule="evenodd"/><path fill="#A1C6BF" fill-rule="evenodd" d="m439.153 421.044 159.489-8.616s-16.888-74.484-32.601-85.813c-8.991-6.485-74.803-6.538-132.111-2.249l5.223 96.678Z" clip-rule="evenodd"/><path fill="#C17A48" fill-rule="evenodd" d="M598.641 412.429s-1.406-6.19-3.777-15.265c-16.195-21.945-35.039-40.351-37.986-51.205-3.14-11.575-12.554-14.981-28.818-13.232-16.263 1.749-83.715 22.79-90.431 60.127l1.523 28.191 159.489-8.616Z" clip-rule="evenodd"/><path fill="#B23C21" fill-rule="evenodd" d="m598.641 412.429-.001-.001-.096-.417.097.418Z" clip-rule="evenodd"/><path fill="#878265" fill-rule="evenodd" d="M598.644 412.428h-.001.001Zm0 0a461.178 461.178 0 0 0-.096-.417l.096.417Zm-9.193-22.374-.002-.002.002.002Zm-.031-.04a.678.678 0 0 0-.033-.042c.012.014.02.028.033.042Zm-.035-.045c-14.097-17.972-28.615-33.054-32.109-42.769l.005-.004c3.488 9.716 18.005 24.799 32.104 42.773Zm-151.751 2.885Zm.881-3.719.016-.052-.016.052Zm.016-.054.015-.049-.015.049Zm.017-.056Zm.015-.053.015-.045-.015.045Zm.017-.056a.32.32 0 0 0 0 .001v-.001Zm.016-.054c.005-.012.008-.026.011-.038l-.011.038Zm.017-.056Zm.016-.053.01-.033a.682.682 0 0 1-.01.033Zm.018-.056.008-.025c-.002.008-.006.015-.008.025Zm.017-.054.007-.022-.007.022Zm.018-.056c.001-.007.004-.012.005-.017a.184.184 0 0 0-.005.017Zm.016-.053.005-.017a.064.064 0 0 1-.005.017Zm.018-.056c.002-.005.001-.007.003-.01l-.003.01Zm.016-.055c.002-.001.002-.005.003-.006-.001.001-.001.005-.003.006Z" clip-rule="evenodd"/><path fill="#A25025" fill-rule="evenodd" d="m598.645 412.429-3.539-13.896a12.186 12.186 0 0 0-.687-1.978l.449.608a592.922 592.922 0 0 1 1.528 5.964 452.22 452.22 0 0 1 2.248 9.301v.001h.001Zm-159.489 8.615-1.522-28.191c.226-1.257.521-2.497.881-3.718l.016-.053v-.001l.015-.05.002-.006.013-.046c.002-.003.001-.005.002-.007l.015-.046c-.001-.003.001-.006.002-.01a.4.4 0 0 0 .016-.054c.005-.013.007-.023.011-.038l.006-.018a.19.19 0 0 0 .01-.034c.002-.005.005-.012.006-.019a.417.417 0 0 0 .01-.032l.008-.024.008-.025.009-.029.006-.022c.004-.012.009-.023.011-.033l.006-.018c.004-.012.006-.023.011-.035l.005-.017.012-.039.003-.01.014-.044c.002-.002.001-.006.002-.007.007-.018.01-.032.016-.05a39.315 39.315 0 0 1 2.51-6.033l.954 17.658c-2.436 2.308-3.887 5.694-3.688 9.386l.63 11.665Zm152.023-28.77c-2.138-1.775-4.878-2.753-7.769-2.597l.001-.001-20.135 1.088c-.241-4.337-.464-10.085-.588-17.571-.19-11.591-3.599-19.877-6.83-25.164.476-.272.946-.55 1.418-.83 3.494 9.715 18.013 24.798 32.109 42.769l.003.004.032.041a.327.327 0 0 1 .029.039l.002.001a341.89 341.89 0 0 1 1.727 2.221h.001Zm-61.476.303-18.701 1.011-1.853-13.69h-.001.001l-.113-.833-.739-5.463 3.227-.254-1.903-13.959c3.077.22 6.134.242 9.164.078 7.849-.424 15.512-2.093 22.861-4.782-.036 3.148-1.115 8.505-5.912 16.485-4.143 6.894-5.612 14.965-6.031 21.408v-.001Zm-70.237-30.766c5.939-4.58 12.615-8.645 19.443-12.176 5.302 3.411 11.339 6.021 17.956 7.694.364.092.726.18 1.089.266l-38.488 4.216Z" clip-rule="evenodd"/><path fill="#D04F29" fill-rule="evenodd" d="m511.362 396.264-3.723-27.513-66.801 5.805 1.499 27.757 69.025-6.049Z" clip-rule="evenodd"/><path fill="#8D2E1F" fill-rule="evenodd" d="M509.143 379.898s.001 0 0 0l-.113-.833.113.833Z" clip-rule="evenodd"/><path fill="#B23121" fill-rule="evenodd" d="m442.053 397.039-.978-18.106 67.22-5.33.739 5.462.113.833c-1.123.03-2.245.076-3.366.136-21.929 1.185-43.382 8.174-63.728 17.005Z" clip-rule="evenodd"/><path fill="#F8B255" fill-rule="evenodd" d="m511.519 373.348-2.315-16.984-73.113 8.009.804 14.892 74.624-5.917Z" clip-rule="evenodd"/><path fill="#9C8B3F" fill-rule="evenodd" d="m436.09 364.372 6.399-.7c.002 0 0-.002 0 0l-6.399.7Z" clip-rule="evenodd"/><path fill="#EE7C1C" fill-rule="evenodd" d="m436.895 379.263-.805-14.891 6.399-.701c17.515 8.163 35.737 10.469 54.014 9.482 4.929-.267 9.864-.773 14.789-1.467l.227 1.661-3.227.255-67.221 5.33-4.176.331Z" clip-rule="evenodd"/><path fill="#1A1E21" fill-rule="evenodd" d="m477.507 400.359-5.465-39.946-.597.086.479.383c.007-.011 2.362-3.188 4.685-7.126 1.161-1.967 2.316-4.127 3.168-6.19.848-2.068 1.409-4.026 1.327-5.69-.052-1.031-.392-1.994-1.143-2.655-.421-.378-.926-.594-1.437-.565-.763.051-1.36.549-1.874 1.203-.899 1.161-1.66 2.986-2.359 5.112-2.077 6.363-3.435 15.413-3.439 15.43l.593.098.57-.201c-.004-.013-1.723-5.197-4.136-10.371-1.209-2.589-2.586-5.175-4.037-7.13-.728-.979-1.472-1.803-2.25-2.394-.773-.587-1.605-.957-2.479-.911a2.68 2.68 0 0 0-.923.218c-.481.202-.875.537-1.111.97-.236.431-.313.925-.286 1.427.102 1.555 1.074 3.375 2.424 5.393 4.057 6.001 11.807 13.44 11.821 13.456l.407-.457.361-.498c-.015-.011-2.728-2.12-6.347-4.19-3.624-2.063-8.117-4.123-11.874-3.935-1.173.064-2.286.357-3.249.976-.965.617-1.763 1.559-2.315 2.83a.638.638 0 0 0 .304.828.591.591 0 0 0 .795-.312c.471-1.077 1.097-1.796 1.852-2.283.757-.485 1.658-.737 2.68-.792 3.281-.193 7.699 1.748 11.23 3.78a60.848 60.848 0 0 1 5.739 3.745c.305.226.464.351.465.351a.59.59 0 0 0 .823-.098.645.645 0 0 0-.054-.86 30.67 30.67 0 0 1-.588-.571c-1.312-1.295-4.605-4.613-7.588-8.156-1.49-1.771-2.904-3.598-3.946-5.245-1.048-1.635-1.701-3.12-1.737-4.027-.018-.332.035-.569.13-.74.097-.17.241-.313.526-.439.18-.076.351-.115.529-.125.487-.03 1.061.183 1.703.671 1.123.845 2.363 2.49 3.527 4.47 1.756 2.968 3.379 6.684 4.555 9.647.59 1.484 1.068 2.779 1.398 3.703.331.924.512 1.469.512 1.471.09.272.347.446.622.421a.61.61 0 0 0 .543-.523c0-.003.196-1.302.553-3.267.534-2.944 1.431-7.374 2.552-11.054.56-1.837 1.179-3.491 1.813-4.65.316-.581.637-1.035.929-1.321.293-.291.531-.396.703-.403.156-.005.327.038.592.266.437.39.67.953.719 1.772.077 1.304-.413 3.155-1.232 5.129-1.226 2.971-3.155 6.246-4.776 8.765a95.68 95.68 0 0 1-2.072 3.09c-.53.755-.854 1.191-.854 1.193a.642.642 0 0 0-.118.466l5.465 39.947c.048.34.351.579.682.533a.62.62 0 0 0 .51-.705Z" clip-rule="evenodd"/><path fill="#1A1E21" fill-rule="evenodd" d="M491.045 352.119c-.451-.738-1.055-1.269-1.746-1.583-.692-.317-1.457-.422-2.25-.379-1.62.092-3.392.775-5.179 1.722-5.339 2.843-10.813 8.148-10.835 8.166a.639.639 0 0 0-.027.881.586.586 0 0 0 .85.033c0-.001.147-.142.421-.397.958-.89 3.454-3.135 6.332-5.179 2.867-2.049 6.163-3.87 8.505-3.979.654-.036 1.223.055 1.699.273.479.221.878.563 1.216 1.109a.59.59 0 0 0 .832.192.633.633 0 0 0 .182-.859Z" clip-rule="evenodd"/><path fill="#A1C6BF" fill-rule="evenodd" d="M279.22 424.03c11.685-55.437 51.682-91.526 51.682-91.526l-24.82 1.34c-36.785 24.858-69.965 92.08-69.965 92.08 18.139-5.125 31.521-4.582 43.103-1.894Z" clip-rule="evenodd"/><path fill="#D2E7E4" fill-rule="evenodd" d="M279.22 424.03c-6.435-1.494-13.426-2.325-21.479-1.89-6.442.348-13.562 1.506-21.624 3.784 0 0 33.18-67.222 69.965-92.079l24.819-1.341s-39.996 36.089-51.681 91.526Z" clip-rule="evenodd"/><path fill="#A1C6BF" fill-rule="evenodd" d="M425.238 325.055c-35.029 2.941-65.472 7.525-75.564 13.248-27.133 15.384-48.702 71.646-48.26 90.181l129.034-6.97-5.21-96.459ZM598.642 412.428l-3.539-13.895c-1.387-5.45-6.275-9.15-11.696-8.857l-134.105 7.244c-6.306.341-11.133 5.918-10.779 12.459l.63 11.665 159.489-8.616Z" clip-rule="evenodd"/><path fill="#DFF0ED" fill-rule="evenodd" d="m511.185 417.152-19.287 1.042 13.167-24.287 18.968-1.025-12.848 24.27ZM594.417 396.554a11.834 11.834 0 0 0-3.239-4.277v-.002a11.85 11.85 0 0 1 3.239 4.279Z" clip-rule="evenodd"/><path fill="#EAE3D1" fill-rule="evenodd" d="M594.419 396.556h-.002v-.002l.002.002Zm-3.241-4.279v-.002.002Z" clip-rule="evenodd"/><path fill="#DDD8C9" fill-rule="evenodd" d="m598.643 412.429-3.538-13.896a12.288 12.288 0 0 0-.689-1.978h.002c.281.628.511 1.289.687 1.978l3.538 13.896Zm-7.466-20.155c-2.138-1.776-4.878-2.754-7.769-2.597 2.89-.157 5.631.821 7.768 2.597h.001Z" clip-rule="evenodd"/><path fill="#DFF0ED" fill-rule="evenodd" d="m598.642 412.429-66.775 3.607 5.38-10.727c3.677.372 7.289.474 10.835.282 5.586-.302 11.003-1.333 16.224-3.197 0 0-.554-3.043-1.034-11.63l20.135-1.088c2.892-.156 5.631.822 7.768 2.598v.002a11.842 11.842 0 0 1 3.239 4.277v.002c.282.628.513 1.289.689 1.978l3.539 13.896Z" clip-rule="evenodd"/><path fill="#C17A48" fill-rule="evenodd" d="M541.083 351.161c5.715-2.917 8.949-10.342 8.949-10.342s12.289 10.065 12.654 32.375c.368 22.309 1.621 29.201 1.621 29.201-10.698 3.818-22.213 4.143-34.338 1.855 0 0-2.704-18.994 5.763-33.08 8.468-14.087 5.351-20.009 5.351-20.009Z" clip-rule="evenodd"/><path fill="#97411F" fill-rule="evenodd" d="m543.138 349.855-.028-.055.01-.434a.39.39 0 0 1 .377-.187c.009 0 .15.016.394.065-.244.209-.495.414-.753.611Z" clip-rule="evenodd"/><path fill="#97411F" fill-rule="evenodd" d="M543.887 372.016a.391.391 0 0 1-.22-.054.427.427 0 0 1-.152-.568c2.077-3.821 2.596-7.702 2.414-11.113-.282-5.241-2.239-9.361-2.715-10.287l-.074-.14c.258-.197.509-.4.753-.611.654.13 2.042.494 3.583 1.449 2.113 1.307 4.506 3.749 5.601 8.15a.413.413 0 0 1-.366.518.403.403 0 0 1-.41-.313c-.982-3.923-2.996-6.13-4.865-7.401a10.61 10.61 0 0 0-3.241-1.482c.735 1.567 2.277 5.362 2.535 10.074.191 3.532-.349 7.586-2.515 11.567a.398.398 0 0 1-.328.211Z" clip-rule="evenodd"/><path fill="#1A1E21" fill-rule="evenodd" d="M541.686 351.182c.088-3.269 2.164-5.708 4.307-7.354a18.639 18.639 0 0 1 3.895-2.279l.262-.108.087-.034a.63.63 0 0 0 .362-.797.602.602 0 0 0-.772-.379c-.032.014-2.261.836-4.552 2.592-2.278 1.748-4.677 4.48-4.793 8.318a.618.618 0 0 0 .583.645.61.61 0 0 0 .621-.604Z" clip-rule="evenodd"/><path fill="#183946" fill-rule="evenodd" d="M326.784 576.231c1.907 35.313-24.153 65.433-58.21 67.273-34.053 1.839-63.207-25.298-65.115-60.611-1.908-35.316 24.153-65.436 58.207-67.275 34.056-1.84 63.21 25.297 65.118 60.613Z" clip-rule="evenodd"/><path fill="#1A1E21" fill-rule="evenodd" d="M300.042 577.678c1.081 20-13.678 37.058-32.967 38.1-19.286 1.042-35.795-14.327-36.876-34.327-1.08-20 13.677-37.058 32.964-38.1 19.288-1.042 35.799 14.327 36.879 34.327Z" clip-rule="evenodd"/><path fill="#183946" fill-rule="evenodd" d="M588.593 562.088c1.908 35.314-24.153 65.434-58.208 67.273-34.056 1.839-63.211-25.297-65.118-60.611-1.907-35.316 24.153-65.435 58.209-67.275 34.056-1.84 63.21 25.297 65.117 60.613Z" clip-rule="evenodd"/><path fill="#1A1E21" fill-rule="evenodd" d="M561.85 563.533c1.081 20-13.679 37.058-32.965 38.1-19.286 1.042-35.798-14.327-36.878-34.327-1.08-20 13.679-37.058 32.965-38.099 19.287-1.042 35.798 14.326 36.878 34.326Z" clip-rule="evenodd"/><path fill="#C17A48" fill-rule="evenodd" d="M617.566 172.625c40.696 23.443 47.177 50.236 50.021 56.302 2.845 6.067 41.195-40.502 32.273-70.338-2.046-6.849-68.2-48.078-101.875-40.169-33.675 7.909 1.796 33.251 1.796 33.251l17.785 20.954Z" clip-rule="evenodd"/><path fill="#AF6032" fill-rule="evenodd" d="M680.218 203.921a.599.599 0 0 1-.517-.252c-7.559-10.518-17.537-20.202-27.702-28.551a87.122 87.122 0 0 1-.965-2.371c10.803 8.705 21.553 18.953 29.631 30.178a.638.638 0 0 1-.121.873.587.587 0 0 1-.326.123ZM688.247 181.735a.598.598 0 0 1-.48-.206c-14.932-17.151-30.195-27.579-42.361-33.848a81.605 81.605 0 0 1-.044-1.412c12.376 6.294 28.012 16.869 43.297 34.425a.638.638 0 0 1-.041.881.597.597 0 0 1-.371.16Zm3.772-18.184a.589.589 0 0 1-.442-.165c-9.703-9.309-26.206-18.341-42.513-24.884a215.348 215.348 0 0 0-3.343-1.31c.044-.424.088-.848.136-1.274 1.209.46 2.423.933 3.637 1.42 16.404 6.589 32.984 15.636 42.899 25.133a.64.64 0 0 1 .034.882.581.581 0 0 1-.408.198ZM682.522 194.804a.592.592 0 0 1-.502-.232c-10.132-13.058-22.366-23.949-34.406-32.518a81.888 81.888 0 0 1-.443-1.822c12.478 8.742 25.243 19.979 35.785 33.56a.64.64 0 0 1-.09.878.572.572 0 0 1-.344.134Z" clip-rule="evenodd"/><path fill="#92A08D" fill-rule="evenodd" d="M668.106 229.414Z" clip-rule="evenodd"/><path fill="#B06234" fill-rule="evenodd" d="M668.546 229.464a1.185 1.185 0 0 1-.44-.051.863.863 0 0 1-.484-.415.94.94 0 0 1-.036-.071 22.008 22.008 0 0 1-.315-.714c-2.346-5.602-7.324-22.313-27.71-40.079a226.892 226.892 0 0 0-4.308-10.176 204.116 204.116 0 0 1 9.474 7.041c6.509 5.142 12.825 10.869 17.809 16.833 4.986 5.964 8.629 12.164 9.847 18.216a.608.608 0 0 0 .623.499.623.623 0 0 0 .556-.749c-1.475-7.284-6.18-14.535-12.365-21.359-7.737-8.525-17.821-16.397-26.95-22.68a276.842 276.842 0 0 0-10.951-21.126c8.284 5.181 18.586 12.171 28.704 20.482 6.526 15.364 17.538 28.698 33.442 34.359.356.127.71.243 1.065.366-7.274 11.384-15.105 19.47-17.961 19.624Zm-17.512-56.72c-10.422-8.399-20.892-15.362-29.06-20.382-1.742-2.961-2.819-4.639-2.819-4.639.001 0 1.009-.364 2.597-.993 7.858 3.746 16.804 8.876 25.861 15.321a91.447 91.447 0 0 0 3.421 10.693Zm-3.863-12.514a184.26 184.26 0 0 0-11.714-7.562 168.06 168.06 0 0 0-12.151-6.563c2.553-1.043 5.935-2.507 9.115-4.144 3.673 1.341 8.077 3.192 12.985 5.721.135 3.252.497 6.438 1.104 9.491.202 1.018.422 2.04.66 3.057h.001Zm-1.808-13.961a114.877 114.877 0 0 0-11.471-5.086c3.334-1.818 6.246-3.79 7.445-5.605a198.35 198.35 0 0 1 4.385 1.615 76.234 76.234 0 0 0-.359 9.076Zm.495-10.351a228.94 228.94 0 0 0-4.003-1.472c.155-.652.03-1.272-.445-1.843-3.303-3.986-13.674-4.051-18.913-3.809-.628-.137-1.245-.263-1.857-.385a111.456 111.456 0 0 0 11.686-6.747c5.002 1.497 10.065 3.316 15.056 5.34a82.207 82.207 0 0 0-1.524 8.916Z" clip-rule="evenodd"/><path fill="#A04E24" fill-rule="evenodd" d="M673.007 220.549a.609.609 0 0 1-.624-.497c-1.218-6.053-4.861-12.253-9.847-18.216-4.984-5.965-11.3-11.692-17.808-16.834a204.636 204.636 0 0 0-9.475-7.04c-.336-.743-.671-1.474-1.006-2.2 9.13 6.283 19.213 14.156 26.95 22.68 6.185 6.825 10.89 14.075 12.366 21.359a.625.625 0 0 1-.467.737c-.03.005-.061.011-.09.012l.001-.001Zm-21.006-45.432c-10.119-8.311-20.42-15.3-28.704-20.481a229.44 229.44 0 0 0-1.322-2.271c8.167 5.02 18.638 11.983 29.06 20.382.311.796.632 1.585.966 2.37ZM645.409 147.68c-4.908-2.529-9.312-4.38-12.985-5.722.496-.255.986-.515 1.47-.778a115.138 115.138 0 0 1 11.471 5.087c.011.473.025.944.044 1.413Zm.316-10.49a196.506 196.506 0 0 0-4.386-1.614c.254-.387.431-.764.518-1.133 1.327.474 2.664.965 4.003 1.473-.048.426-.093.851-.135 1.274Zm-26.318-8.186s.446-.205 1.235-.598c.612.122 1.229.249 1.857.385-.202.008-.394.019-.58.029-1.544.083-2.512.184-2.512.184ZM647.612 162.051c-9.057-6.446-18.003-11.575-25.861-15.322.472-.186.993-.394 1.554-.624a168.03 168.03 0 0 1 12.151 6.562 184.416 184.416 0 0 1 11.714 7.562c.141.609.289 1.215.442 1.822Z" clip-rule="evenodd"/><path fill="#5C885C" fill-rule="evenodd" d="M169.696 319.738c36.314 9.636 76.366-4.706 91.898-17.434 15.531-12.73 29.723-8.856 37.389-11.879 7.668-3.025-5.722-12.741-5.722-12.741s22.617-17.781 47.475-11.553c24.857 6.227 46.557 23.873 54.147 19.114 7.59-4.76-14.103-23.26-14.103-23.26s27.973.181 28.062-8.524c.09-8.704-16.649-18.007-16.649-18.007.001 0 57.807-4.34 91.751-4.956 33.942-.617 56.925 7.345 69.734 17.46 12.809 10.112 19.256 22.593 32.839 33.314 13.582 10.719 3.598-26.584 3.598-26.584s36.385 44.578 41.266 49.534c4.882 4.955 6.759-22.405-13.553-49.001 0 0 18.416 14.809 16.413.999-2.005-13.812-16.283-37.397-16.283-37.397 0-.001 33.269 41.265 30.978 6.59-2.293-34.675-29.779-77.558-29.779-77.558.001 0 26.742-9.708 22.255-15.12-4.487-5.413-22.006-3.596-22.006-3.596s19.235-8.869 27.828-20.643c8.592-11.773 3.824-22.39-7.281-18.31 0 0 12.805-19.831 10.115-22.73-2.692-2.9-19.258 1.04-19.258 1.04.001 0 16.937-15.792 9.448-30.177-7.488-14.384-27.398.699-54.419 5.203 0 0 27.302-14.814-15.827-5.67-20.36 4.317-41.66 5.296-41.66 5.296S556.73 23.78 553.86 17.846c-2.867-5.935-41.663 13.56-41.663 13.56s24.065-20.439 11.005-21.473c-13.06-1.035-78.076 45.54-78.076 45.54s17.165-16.151 13.26-18.55c-3.906-2.4-16.194 3.05-16.194 3.05s15.7-20.857 8.542-20.47c-28.023 1.513-58.493 69.258-118.24 125.135 0 0 2.939-31.042-10.493-31.187-13.429-.144-23.223 28.224-35.918 65.012-12.693 36.789-32.501 66.133-32.501 66.133.001 0 6.402-29.054-5.236-19.292-11.637 9.762-16.66 33.233-39.505 60.71-22.843 27.478-39.145 33.724-39.145 33.724Z" clip-rule="evenodd"/><path fill="#6E9884" fill-rule="evenodd" d="m585.895 43.38.02-.003-.02.003Zm.058-.01.026-.004-.026.004Zm.06-.01.028-.004-.028.004Zm.057-.01.032-.005a.348.348 0 0 0-.032.006Zm.06-.01Zm.057-.01a.605.605 0 0 0 .034-.006l-.034.005Zm.055-.01.04-.007-.04.007Zm.045-.008.213-.038-.214.038h.001Zm.221-.04.049-.008-.049.009Zm.058-.01Zm.056-.01.053-.01-.053.01Zm.055-.01c9.299-1.712 19.712-6.245 29.669-10.864l.001.001c-9.96 4.62-20.373 9.152-29.67 10.863Z" clip-rule="evenodd"/><path fill="#3F693E" fill-rule="evenodd" d="M548.436 121.584c-4.183.226-7.036-.108-7.036-.108 22.998-9.072 31.15-21.256 12.653-21.997 0 0 51.343-20.173 51.105-32.34-.207-10.645-25.977-9.918-32.413-9.57a59.63 59.63 0 0 0-1.446.09s22.621-6.957 24.038-9.273c2.569-4.198-9.498-4.996-9.498-4.996l.059-.01.021-.003.038-.007.026-.004.033-.006.029-.005a.33.33 0 0 1 .028-.004l.032-.006.029-.005a.63.63 0 0 0 .03-.006c.01 0 .018-.003.027-.004a.669.669 0 0 0 .055-.01l.039-.007h.005c.071-.014.141-.025.213-.038l.009-.002.049-.009c.003 0 .005 0 .008-.002l.049-.008c.004 0 .005-.001.006-.002l.053-.009h.001c9.299-1.712 21.183-4.184 31.142-8.803-3.143 8.409-16.557 17.52-16.557 17.52s20.417 1.199 17.45 20.232c-2.967 19.034-43.516 24.405-43.516 24.405s8.733 5.554-3.114 16.321c-7.237 6.576-17.08 8.312-23.647 8.666Z" clip-rule="evenodd"/><path fill="#6E9884" fill-rule="evenodd" d="M585.838 43.387Zm.002 0c0-.001 0 0 0 0Zm.001-.002Z" clip-rule="evenodd"/><path fill="#3F693E" fill-rule="evenodd" d="m585.838 43.39 6.92-4.695c-2.426 2.238-6.762 4.608-6.917 4.692l-.001.002c0-.001 0 0 0 0h-.002Z" clip-rule="evenodd"/><path fill="#6E9884" fill-rule="evenodd" d="M634.541 296.021c-.512-9.448-4.791-25.321-16.712-40.931 11.92 15.609 16.2 31.485 16.711 40.931h.001Zm-47.96-14.832a2.592 2.592 0 0 1-.062-.048c-8.166-6.446-13.754-13.527-19.694-20.348 5.942 6.821 11.528 13.903 19.694 20.348l.062.048Z" clip-rule="evenodd"/><path fill="#865F31" fill-rule="evenodd" d="m566.825 260.795-.004-.002.001-.001.003.003Z" clip-rule="evenodd"/><path fill="#74441F" fill-rule="evenodd" d="M566.821 260.793c-3.941-4.523-8.038-8.933-13.144-12.965-12.809-10.114-35.793-18.077-69.734-17.46-11.317.206-25.279.825-38.873 1.56-27.184 1.468-52.878 3.397-52.878 3.397l.001-.001s25.693-1.928 52.877-3.396c13.595-.735 27.556-1.354 38.873-1.56 33.942-.617 56.925 7.346 69.734 17.46 5.106 4.031 9.203 8.44 13.143 12.965h.001Z" clip-rule="evenodd"/><path fill="#6E9884" fill-rule="evenodd" d="M632.484 261.773c1.456-.537 2.247-2.178 1.764-5.61.483 3.431-.308 5.073-1.764 5.61Zm1.545-6.923c-2.621-13.935-16.074-36.158-16.074-36.158h.001c.091.15 13.461 22.272 16.073 36.159v-.001Zm-43.674.651ZM648.977 225.974a60.513 60.513 0 0 0-.041-.691c0-.004 0-.011-.002-.015a.034.034 0 0 1 .002.015c.015.234.028.463.041.691Zm-.045-.756-.001-.023.001.023Zm-.006-.077-.002-.027.002.027Zm-.004-.078-.002-.023.002.023Zm-.006-.079-.002-.024.002.024Zm-.006-.076-.001-.02.001.02Zm-.006-.085-.001-.011v.012l.001-.001Zm-.005-.068-.001-.022.001.022Zm-.006-.086-.001-.012.001.012Zm-.004-.069c-.002-.006-.002-.013-.003-.02.001.007.001.014.003.02Zm-.008-.085-.001-.007.001.007Zm-.005-.076-.001-.008.001.008Zm-.006-.08-.001-.006a.017.017 0 0 1 .001.007v-.001Zm-.006-.075v-.006.006Zm-.006-.082v-.001.001Zm-.007-.074v-.005.005Z" clip-rule="evenodd"/><path fill="#3F693E" fill-rule="evenodd" d="M632.532 304.675c-.355.019-.743-.17-1.152-.584-4.881-4.956-41.266-49.534-41.266-49.534l.006.027c.024.089.109.41.238.917 1.236 4.901 6.53 27.238.368 27.571-1.033.056-2.392-.509-4.147-1.883l-.063-.048c-8.165-6.446-13.752-13.527-19.694-20.348l-.002-.001c-3.94-4.526-8.037-8.934-13.143-12.965-12.809-10.115-35.793-18.077-69.734-17.46-11.317.206-25.279.825-38.873 1.56-27.184 1.468-52.878 3.396-52.878 3.396h.001s16.186 8.997 16.64 17.574c.007.144.01.29.008.433-.053 5.346-10.622 7.341-18.773 8.084-3.387-18.85-8.822-38.448-17.467-59.501.448-.033.897-.06 1.349-.085 7.46-.403 15.622.252 23.323 3.12 23.104 8.607-4.872 16.647-4.872 16.647s53.113-2.869 56.021-14.771c.504-2.055-.16-3.747-1.6-5.136 7.96-2.482 13.687-10.027 13.928-18.873 5.569 7.369 12.675 14.615 18.91 14.278.098-.005.195-.012.293-.022 12.581-1.17-4.111-16.789-4.111-16.789 0-.001 24.127 11.104 44.784 12.218.837.045 1.591.047 2.274.01 16.165-.875-9.572-23.844-9.572-23.844 39.25 12.234 61.892 35.37 70.261 42.746.832.734 1.555 1.225 2.171 1.492-.616-.268-1.339-.757-2.171-1.492-2.88-2.538-7.45-6.943-13.805-12.127-3.626 3.863-5.758 9.213-5.458 15.028v.012l.001.043h.001c.594 11.004 9.612 19.479 20.199 19.046l.25-.012.061-.004.019-.001.043-.002.026-.002.035-.001.029-.002c.011-.002.022-.002.034-.003l.032-.002.028-.001c.012-.001.024-.004.036-.004l.025-.002a.413.413 0 0 0 .037-.002l.026-.003a.54.54 0 0 0 .038-.002c.007 0 .015 0 .022-.003l.041-.002c.006-.001.012 0 .02-.002l.042-.003.019-.002.043-.004.018-.001.045-.004.014-.001c.018-.003.032-.003.048-.004.005-.003.008-.003.013-.003l.049-.004.012-.001c.017-.003.033-.003.052-.006h.007l.054-.007h.005c10.213-1.08 17.886-10.297 17.305-21.048-.573-10.617-8.994-18.856-19.094-19.033l-.008-.001h-.045c-.011-.001-.023 0-.034-.002l-.023.001-.052-.001A116.086 116.086 0 0 0 578 181.702c.001 0 11.26 7.38 17.279 7.055 3.913-.213 5.609-3.679.561-14.544 18.013 8.946 30.168 12.819 37.406 12.427 2.128-.115 3.833-.599 5.136-1.432 5.065 12.32 9.424 26.131 10.466 38.916l.001.005.007.073v.001c.001.027.002.05.005.076l.001.006.005.068v.007l.006.071v.009c.004.023.004.044.005.068l.001.007c.003.02.004.044.005.066.001.006.001.013.003.019l.003.057.001.012c.003.021.004.043.005.064l.001.022c.003.018.003.036.004.056l.001.012c.003.021.004.043.005.065l.001.02.005.051.001.025c.001.018.002.038.005.055l.001.023.003.051.001.027a.47.47 0 0 1 .005.054l.001.023.003.05a96.785 96.785 0 0 1 .042.706c.512 9.456-1.75 12.981-5.255 13.17-8.885.48-25.763-20.454-25.763-20.454l.002.003h-.001c-.001-.001 13.453 22.223 16.074 36.158.08.421.149.834.208 1.239.004.023.006.05.011.073.482 3.431-.308 5.073-1.765 5.61a3.507 3.507 0 0 1-1.024.199c-4.758.257-13.635-6.881-13.635-6.881.002.002-.002-.001 0 0 11.922 15.61 16.2 31.483 16.712 40.931.223 4.092-.261 6.978-1.135 8.115-.258.337-.553.522-.872.539Z" clip-rule="evenodd"/><path fill="#6E9884" fill-rule="evenodd" d="M201.001 322.596c-.909.049-1.818.088-2.731.116v-.001c.913-.028 1.824-.066 2.733-.116 7.338-.396 14.498-1.48 21.242-3.038-6.744 1.558-13.904 2.642-21.244 3.039Zm62.477-21.893Z" clip-rule="evenodd"/><path fill="#865F31" fill-rule="evenodd" d="M390.066 285.796a18.664 18.664 0 0 1-1.71-.33l.001-.001c.594.143 1.165.254 1.709.331Z" clip-rule="evenodd"/><path fill="#132C30" fill-rule="evenodd" d="M388.356 285.467c-1.245-.301-2.597-.742-4.047-1.292 1.45.55 2.802.991 4.047 1.292Z" clip-rule="evenodd"/><path fill="#3F693E" fill-rule="evenodd" d="M201.004 322.594c-.909.049-1.82.088-2.733.116-1.342-1.148-3.014-2.265-4.712-3.272 29.381-3.309 21.774-19.824 41.621-30.34 23.997-12.713 33.979-6.988 52.261-13.673 18.284-6.684 5.012-12.837 5.012-12.837s37.283-9.529 38.235-13.156c.952-3.628-17.046-6.039-17.046-6.039s8.346-2.26 16.597-5.286a9.83 9.83 0 0 0-.067 1.764c.274 5.075 4.31 9.019 9.143 9.075a8.445 8.445 0 0 0 1.184-.064c4.8-.577 8.387-4.933 8.113-10.007l-.002-.042v-.008l-.002-.035-.001-.005c-.2-3.17-1.874-5.885-4.284-7.477 1.162-.94 1.87-1.858 1.942-2.728.231-2.78-5.303-3.236-11.411-2.906-7.331.396-15.488 1.926-15.488 1.926.001 0 7.867-1.906 16.016-14.09 4.732-7.073 2.967-11.45-3.357-11.108-4.57.246-11.521 2.957-20.117 8.897 11.737-10.648 21.121-16.998 27.213-17.328 5.253-.284 8.058 3.914 7.805 13.695 0 0 10.718-4.456 24.411-5.654 8.683 21.069 14.132 40.661 17.526 59.503-.964.076-1.882.136-2.73.182-2.667.144-4.645.156-5.198.156h-.055l-.055.001-.017-.001h-.028s5.267 4.491 9.703 9.618c.046.319.09.637.137.958.046.321.32.551.628.535l.054-.006a.587.587 0 0 0 .308-.146c4.004 4.91 6.799 10.087 3.273 12.3-.771.483-1.686.735-2.737.792a10.833 10.833 0 0 1-2.081-.108 18.939 18.939 0 0 1-1.709-.331c-1.244-.302-2.596-.742-4.047-1.292l-.002-.002-.049-.017-.164-.064-.304-.117-.089-.034-.131-.053c-10.538-4.17-25.96-13.662-42.835-17.888-4.624-1.159-9.169-1.487-13.51-1.252-3.453.186-6.773.729-9.896 1.491-14.039 3.431-24.068 11.314-24.068 11.314s13.389 9.717 5.722 12.742c-7.208 2.843-20.183-.413-34.619 9.768-.294.208-.59.422-.885.64-.279.208-.559.42-.84.637-.347.271-.696.548-1.045.833-.108.089-.219.179-.329.266-3.543 2.847-8.295 5.763-13.949 8.47-2.082-4.258-6.443-7.071-11.326-6.807-6.587.355-11.629 6.182-11.26 13.014.033.61.106 1.206.22 1.787-.893.227-1.794.446-2.704.655-6.745 1.558-13.904 2.641-21.242 3.038Zm225.494-126.8c-6.199-.567-11.283-.516-11.283-.516s3.885-1.63 8.266-4.047a20.642 20.642 0 0 0 3.017 4.564v-.001Zm5.56-10.335h.002-.002Zm.053-.047.001-.001-.001.001Zm.05-.044c.002-.002.004-.001.004-.003l-.004.003Zm.08-.07Zm.023-.022a.038.038 0 0 1 .009-.009l-.009.009Zm.026-.025.006-.005-.006.005Zm.023-.022.009-.006a.028.028 0 0 0-.009.007v-.001Zm.026-.023c.003-.002.005-.006.008-.007-.003.001-.005.005-.008.007Zm.025-.024a.023.023 0 0 0 .007-.007c-.003.004-.004.006-.008.007h.001Zm.023-.021.009-.009-.009.009Zm.011-.009.063-.06c-.02.021-.042.04-.063.06Zm.067-.062.019-.019a.121.121 0 0 0-.019.02v-.001Zm.023-.023.018-.016-.018.016Zm.023-.022.018-.017-.018.017Zm.022-.02.019-.018-.02.019.001-.001Zm.022-.021c1.582-1.494 2.712-3.027 3.018-4.509-.305 1.482-1.436 3.015-3.018 4.509Zm3.018-4.511.003-.018a.335.335 0 0 1-.003.018Zm.005-.022.003-.016a.09.09 0 0 1-.003.016Zm.004-.02.003-.019a.129.129 0 0 1-.004.019h.001Zm.004-.02.018-.1-.018.1Zm.018-.103c.002-.006.001-.01.002-.015l-.002.015Zm.004-.022.002-.015-.002.015Zm.004-.022.002-.015a.077.077 0 0 0-.002.015Zm.002-.021c.001-.005.003-.011.002-.016a.044.044 0 0 1-.002.016Zm.004-.022.003-.014c-.002.004-.002.01-.003.014Zm.003-.02a.809.809 0 0 0 .007-.057c-.001.02-.005.039-.007.057Zm.007-.059.002-.013-.002.013Zm.004-.023c0-.003-.001-.008.001-.013-.002.005-.001.011-.001.014v-.001Zm.002-.022.001-.011-.001.011Zm.002-.022.001-.011-.001.012v-.001Zm.002-.022.001-.011-.001.011Zm.002-.022c.002-.004.002-.008.002-.011 0 .003 0 .008-.002.011Zm.003-.021c-.001-.004.001-.007.001-.012l-.002.012h.001Zm.002-.021.001-.023-.001.024v-.001Zm.003-.033v-.01.01Zm.001-.022.001-.012-.001.012Zm.002-.022.001-.012-.001.012Zm0-.022c.002-.003.002-.009.002-.012 0 .003 0 .009-.002.012Zm.002-.024c0-.003 0-.007.002-.01-.002.003-.002.007-.002.011v-.001Zm.001-.022Zm.002-.024-.001-.008.001.008Zm.001-.054v-.006.006Zm.001-.023-.001-.008a.022.022 0 0 1 .001.008Zm.001-.024-.001-.008v.009l.001-.001Zm-.001-.031v-.008.008Zm.001-.025-.001-.009.001.01v-.001Zm-.001-.022Zm.001-.023.001-.012-.001.012Zm.001-.013-.002-.034.002.034Zm-.002-.042c.002-.006.001-.011.001-.014 0 .003.001.009-.001.014Zm.001-.023-.001-.014.001.015v-.001Zm-.001-.021-.002-.052c.002.016.001.035.002.052Zm-.001-.057-.002-.016.001.016h.001Zm-.001-.022c-.088-1.829-1.295-3.411-3.007-4.743 1.712 1.332 2.919 2.914 3.006 4.743h.001Zm-3.02-4.753-.006-.007.006.007Zm-.023-.019-.004-.003c.002 0 .002.002.004.003Zm-7.905-3.931c-2.719-.936-4.875-1.403-4.875-1.403s3.072-.418 7.193-1.552a20.284 20.284 0 0 0-2.319 2.956l.001-.001Zm28.332-4.778c-3.393-2.704-7.646-4.285-12.212-4.242 2.5-1.757 4.626-3.887 5.93-6.453 4.309-8.472-8.514-8.777-14.984-8.428-2.071.112-3.493.291-3.493.291 14.748-16.463 15.854-25.067 7.368-24.609-4.943.267-13.145 3.612-23.8 10.272 0 0 23.358-14.822 32.855-15.335 1.902-.102 3.249.369 3.741 1.648 2.944 7.667-11.431 22.714-11.431 22.714s.476-.129 1.757-.198c2.562-.139 8.335-.041 19.931 1.787 14.322 2.259-.118 17.309-5.662 22.553Z" clip-rule="evenodd"/><path fill="#1F1B20" fill-rule="evenodd" d="M392.238 285.893c.563 5.671.978 11.3 1.281 16.912.459 8.484.659 16.924.723 25.397a.615.615 0 0 0 .605.621.61.61 0 0 0 .598-.626c-.063-8.487-.265-16.948-.724-25.457a379.468 379.468 0 0 0-1.286-16.969.613.613 0 0 0-.661-.56.615.615 0 0 0-.536.682ZM337.974 139.121c33.248 51.808 47.045 93.917 52.643 133.308a.61.61 0 0 0 .683.528.617.617 0 0 0 .509-.706c-5.619-39.561-19.5-81.889-52.834-133.819a.59.59 0 0 0-.834-.175.635.635 0 0 0-.167.864ZM444.56 55.553c13.714 38.476 19.978 75.518 21.795 109.146 2.491 46.115-3.383 85.814-9.879 113.978-3.249 14.08-6.653 25.279-9.243 32.954a224.234 224.234 0 0 1-3.154 8.788c-.383.997-.686 1.756-.892 2.262-.207.508-.314.76-.316.76a.637.637 0 0 0 .308.825c.304.141.66 0 .794-.314.021-.055 28.581-66.787 23.584-159.318-1.822-33.738-8.108-70.904-21.868-109.51a.599.599 0 0 0-.774-.372.628.628 0 0 0-.355.801ZM552.281 115.991c-2.786 57.291-16.049 108.597-28.616 145.572-6.283 18.489-12.391 33.394-16.929 43.676a366.278 366.278 0 0 1-5.451 11.822 212.771 212.771 0 0 1-1.514 3.066c-.347.689-.531 1.037-.531 1.039a.638.638 0 0 0 .242.847.591.591 0 0 0 .817-.249c.021-.045 47.592-90.801 53.183-205.705a.617.617 0 0 0-.57-.656.605.605 0 0 0-.631.588Z" clip-rule="evenodd"/><path fill="#D04F29" fill-rule="evenodd" d="M248.588 315.827c.369 6.831-4.673 12.658-11.261 13.014-6.588.356-12.228-4.894-12.597-11.726-.369-6.832 4.673-12.658 11.261-13.014 6.588-.357 12.228 4.894 12.597 11.726Z" clip-rule="evenodd"/><path fill="#C23E22" fill-rule="evenodd" d="M237.327 328.842c-6.001.325-11.215-4.001-12.377-9.938a12.814 12.814 0 0 1-.047-4.639c1.532 5.396 6.472 9.216 12.118 8.911 5.646-.305 10.145-4.634 11.087-10.164.257.899.427 1.838.48 2.816.369 6.832-4.673 12.658-11.261 13.014Z" clip-rule="evenodd"/><path fill="#E76F3B" fill-rule="evenodd" d="M236.329 310.408c-3.018.163-5.527-.842-5.603-2.245-.076-1.405 2.31-2.674 5.329-2.837 3.019-.163 5.526.842 5.602 2.247.076 1.403-2.309 2.672-5.328 2.835Z" clip-rule="evenodd"/><path fill="#F8B255" fill-rule="evenodd" d="M288.589 251.708c.369 6.832-4.673 12.659-11.261 13.015-6.588.355-12.228-4.894-12.597-11.726-.369-6.831 4.673-12.659 11.26-13.014 6.589-.356 12.229 4.894 12.598 11.725Z" clip-rule="evenodd"/><path fill="#F49C3D" fill-rule="evenodd" d="M277.328 264.723a.51.51 0 0 0-.039.002c-6.417.324-11.926-4.668-12.525-11.251a12.814 12.814 0 0 1 .14-3.329c1.531 5.397 6.47 9.214 12.117 8.909 5.648-.305 10.146-4.632 11.087-10.163.256.9.427 1.84.48 2.817.37 6.831-4.672 12.659-11.26 13.015Z" clip-rule="evenodd"/><path fill="#FCD074" fill-rule="evenodd" d="M276.33 246.288c-3.018.163-5.527-.841-5.603-2.246-.076-1.403 2.311-2.672 5.329-2.835 3.019-.163 5.527.842 5.603 2.245.076 1.404-2.31 2.673-5.329 2.836Z" clip-rule="evenodd"/><path fill="#F8B255" fill-rule="evenodd" d="M440.812 161.753c-4.248 2.985-9.565 4.901-13.788 6.061a20.202 20.202 0 0 0-2.322 2.96c4.698 1.616 11.082 4.632 10.952 9.047-.113 3.917-6.55 8.312-12.17 11.411 3.417 7.051 10.618 11.726 18.689 11.29 10.856-.586 19.165-10.186 18.557-21.445-.592-10.964-9.428-19.43-19.918-19.324Z" clip-rule="evenodd"/><path fill="#5C7743" fill-rule="evenodd" d="M423.484 191.235c.393-.216.789-.441 1.187-.669h.001c-.398.23-.795.453-1.188.669Zm37.246-10.155-.003-.058.003.058Zm-.005-.069-.003-.053.003.054v-.001Zm-.004-.067-.003-.052.003.052Zm-.003-.064-.003-.053.003.053Zm-.004-.065c-.003-.017-.003-.032-.004-.048.001.016.001.033.004.048Zm-.005-.06-.003-.051.003.051Zm-.005-.07Zm-.005-.066-.003-.038.003.038Zm-.005-.07-.002-.029.002.029Zm-.006-.067-.001-.027.001.027Zm-.01-.129v-.002.002Z" clip-rule="evenodd"/><path fill="#F49C3D" fill-rule="evenodd" d="M442.173 202.523c-8.071.436-15.272-4.239-18.69-11.29.394-.216.79-.439 1.189-.669 3.195 1.919 6.937 2.939 10.892 2.726 10.855-.587 19.164-10.189 18.556-21.446a21.06 21.06 0 0 0-1.179-5.916c4.275 3.365 7.214 8.499 7.736 14.422v.002l.009.103.002.027.004.038.001.028.003.032.002.038a.064.064 0 0 1 .003.02l.003.046c0 .007 0 .013.002.018l.003.051v.012a.407.407 0 0 0 .005.049v.011l.003.054a.034.034 0 0 1 .001.011l.003.053.001.013.002.054a21.934 21.934 0 0 1 .029 1.805c-.241 8.847-5.968 16.392-13.928 18.874a19.102 19.102 0 0 1-4.652.834Z" clip-rule="evenodd"/><path fill="#F8B255" fill-rule="evenodd" d="M583.795 193.241c6.156 14.264 6.47 24.056-.205 18.172-2.879-2.539-7.45-6.943-13.805-12.127-3.638 3.875-5.772 9.245-5.457 15.083.6 11.09 9.756 19.611 20.45 19.033 10.695-.578 18.878-10.035 18.279-21.125-.577-10.675-9.087-18.947-19.262-19.036Z" clip-rule="evenodd"/><path fill="#B5B87B" fill-rule="evenodd" d="M586.793 201.219c0-.001-.002-.003-.004-.003-.755-2.418-1.755-5.105-2.993-7.977 1.239 2.872 2.241 5.562 2.997 7.98Z" clip-rule="evenodd"/><path fill="#A9A563" fill-rule="evenodd" d="m583.959 193.245-.009-.001.008.001h.001Zm-.052-.001c-.011-.001-.022 0-.033-.002l.033.002ZM583.849 193.24Z" clip-rule="evenodd"/><path fill="#FCD074" fill-rule="evenodd" d="M589.569 202.521c-.696.038-1.618-.374-2.776-1.302-.756-2.418-1.759-5.108-2.997-7.98h.005c.018 0 .036.002.053.001h.022l.034.001h.045a18.734 18.734 0 0 1 6.608 1.341c1.078 4.81.785 7.843-.994 7.939Z" clip-rule="evenodd"/><path fill="#3E5C2E" fill-rule="evenodd" d="M584.776 233.402c-.083.005-.167.01-.25.013.083-.003.166-.008.25-.013l.061-.003-.061.003Zm.08-.004.044-.002-.044.002Zm.069-.004.035-.001-.035.001Zm.065-.003.033-.003a.184.184 0 0 0-.033.003Zm.065-.005.029-.001-.029.001Zm.064-.006.026-.001-.026.001Zm.063-.003c.009-.001.016-.003.025-.003l-.025.003Zm.064-.005c.007-.001.015-.001.022-.003-.007.002-.015.002-.022.003Zm.063-.005c.007-.001.014-.001.02-.003l-.02.003Zm.062-.006.019-.002-.019.003v-.001Zm.063-.007h.017c-.006-.001-.011 0-.018.001l.001-.001Zm.063-.005.014-.001-.015.001h.001Zm.062-.006c.005-.002.01-.002.013-.002-.005 0-.008 0-.013.003v-.001Zm.063-.007.011-.001-.011.001Zm.064-.006.006-.001h-.006v.001Zm.06-.007h.006-.006Zm-21.418-19-.001-.011a.05.05 0 0 1 .001.011Z" clip-rule="evenodd"/><path fill="#F49C3D" fill-rule="evenodd" d="m584.777 233.401-.249.013c-10.587.433-19.606-8.042-20.2-19.046-.001-.015-.002-.028-.001-.043l-.001-.012a20.418 20.418 0 0 1 2.691-11.25c.005.229-.01.453.002.684.599 11.09 9.753 19.611 20.448 19.033 6.696-.361 12.406-4.204 15.593-9.747.189 10.42-7.339 19.236-17.309 20.291h-.006c-.017.003-.034.004-.054.006l-.006.001-.053.006h-.011l-.049.005c-.004 0-.008 0-.013.003a.26.26 0 0 0-.048.004l-.014.001c-.015 0-.031.003-.045.004-.006-.001-.012 0-.018.001-.014.001-.029.003-.044.003l-.018.003-.042.002a.071.071 0 0 1-.021.003l-.04.002a.09.09 0 0 1-.022.003l-.039.002c-.009.001-.015.003-.025.003l-.037.002-.025.002-.036.004-.029.001-.032.002a.184.184 0 0 0-.033.003l-.029.001-.036.002-.025.002a.619.619 0 0 0-.043.002l-.02.001-.061.003Z" clip-rule="evenodd"/><path fill="#D04F29" fill-rule="evenodd" d="M344.314 231.303c-2.851 2.308-8.432 4.734-14.075 6.804a9.927 9.927 0 0 0-.068 1.765c.286 5.281 4.645 9.338 9.737 9.063 5.091-.275 8.989-4.778 8.704-10.059-.174-3.213-1.861-5.965-4.298-7.573Z" clip-rule="evenodd"/><path fill="#56613B" fill-rule="evenodd" d="m330.237 238.106.11-.041.001.002-.111.039Z" clip-rule="evenodd"/><path fill="#C23E22" fill-rule="evenodd" d="M339.908 248.937a8.433 8.433 0 0 1-.594.012c-4.833-.056-8.869-4.002-9.143-9.075a9.849 9.849 0 0 1 .067-1.766l.113-.041c1.784 2.562 4.738 4.17 8.002 3.994 4.445-.24 7.978-3.703 8.613-8.094a9.732 9.732 0 0 1 1.64 4.821l.001.005.002.035v.008a.563.563 0 0 1 .002.042c.274 5.073-3.313 9.431-8.113 10.007a8.852 8.852 0 0 1-.59.052Z" clip-rule="evenodd"/><path fill="#2B5129" fill-rule="evenodd" d="M541.617 122.057c7.283-2.873 13.095-6.056 17.087-9.124 1.997-1.536 3.54-3.041 4.589-4.49 1.044-1.448 1.615-2.856 1.547-4.212a3.875 3.875 0 0 0-.822-2.193c-.752-.97-1.954-1.698-3.596-2.227-1.644-.527-3.744-.853-6.347-.958l-.021.624.215.583c.011-.004 12.858-5.05 25.696-11.63 6.42-3.292 12.837-6.963 17.664-10.6 2.414-1.821 4.434-3.631 5.865-5.408 1.425-1.775 2.294-3.535 2.267-5.294l-.009-.246a6.587 6.587 0 0 0-1.427-3.764c-1.46-1.861-3.823-3.133-6.61-4.057-8.361-2.749-20.774-2.34-25.004-2.118-.924.05-1.456.092-1.459.092l.048.623.174.598c.002-.001 5.662-1.742 11.507-3.774 2.922-1.017 5.891-2.106 8.231-3.093 1.171-.495 2.184-.961 2.968-1.389a9.071 9.071 0 0 0 1.002-.619c.276-.206.495-.392.664-.66.316-.515.478-1.05.449-1.572-.029-.565-.282-1.064-.629-1.456-.615-.69-1.522-1.154-2.539-1.536-3.046-1.123-7.226-1.386-7.252-1.391a.608.608 0 0 0-.638.582.622.622 0 0 0 .566.663c.002 0 .589.039 1.485.147 1.345.16 3.373.48 5.031 1.032.829.274 1.562.61 2.053.977.499.375.706.72.72 1.046.011.21-.045.476-.263.836-.008.021-.131.16-.344.312-.804.594-2.732 1.49-5.088 2.427-3.544 1.415-8.118 2.986-11.798 4.2a422.69 422.69 0 0 1-4.619 1.491c-1.156.366-1.852.58-1.854.58a.621.621 0 0 0-.418.712.607.607 0 0 0 .639.51c.003-.001.518-.042 1.432-.091 3.175-.173 11.114-.435 18.272.635 3.577.531 6.959 1.403 9.421 2.74 1.23.668 2.227 1.448 2.92 2.336.691.89 1.092 1.877 1.158 3.046l.006.201c.033 1.283-.65 2.815-1.988 4.472-2.33 2.901-6.562 6.106-11.58 9.223-7.527 4.68-16.823 9.2-24.229 12.541a347.99 347.99 0 0 1-9.239 4.01c-2.305.959-3.678 1.498-3.681 1.5a.628.628 0 0 0-.38.684.614.614 0 0 0 .574.523c3.374.132 5.818.662 7.368 1.434.776.383 1.325.822 1.678 1.282.355.46.526.936.559 1.479.055.917-.357 2.083-1.308 3.395-2.843 3.958-10.341 8.95-21.146 13.2a.631.631 0 0 0-.346.806.598.598 0 0 0 .779.36ZM312.242 211.954c8.538-5.905 15.435-8.565 19.816-8.793 1.794-.099 3.145.213 4.014.788.862.582 1.314 1.38 1.387 2.559.097 1.62-.68 3.963-2.573 6.78-4.03 6.028-7.975 9.49-10.896 11.447-1.46.979-2.666 1.579-3.498 1.934-.417.178-.74.295-.957.366l-.24.074-.068.019a.62.62 0 0 0-.451.734.606.606 0 0 0 .699.488c.001-.001.504-.094 1.379-.243 2.625-.447 8.576-1.379 14.032-1.673 2.928-.159 5.721-.129 7.736.239 1.007.18 1.814.453 2.322.78.513.338.695.639.723 1.03l-.004.177c-.025.482-.459 1.202-1.34 1.976-1.526 1.36-4.249 2.852-7.439 4.272-4.789 2.136-10.647 4.145-15.299 5.614a256.52 256.52 0 0 1-5.797 1.754c-1.443.416-2.299.648-2.302.649a.622.622 0 0 0-.426.762.599.599 0 0 0 .734.445c.01-.002 8.048-2.177 16.169-5.126 4.061-1.475 8.142-3.14 11.27-4.842 1.564-.851 2.892-1.708 3.876-2.579.972-.874 1.654-1.763 1.754-2.813l.006-.354c-.041-.88-.581-1.584-1.298-2.028-1.083-.68-2.636-1.006-4.497-1.175-1.86-.166-4.022-.147-6.255-.028-7.383.4-15.549 1.932-15.563 1.934l.11.615.139.607c.114-.022 8.138-2.021 16.374-14.339 1.965-2.951 2.887-5.481 2.782-7.561-.07-1.508-.766-2.781-1.947-3.547-1.178-.772-2.774-1.085-4.723-.982-4.759.265-11.762 3.027-20.419 9a.64.64 0 0 0-.166.866c.186.287.56.364.836.174ZM595.296 174.484c2.043 4.391 2.95 7.542 3.059 9.65.081 1.535-.238 2.473-.749 3.053-.51.579-1.295.889-2.363.949-2.77.166-7.077-1.55-10.599-3.343a74.264 74.264 0 0 1-5.839-3.306c-.316-.2-.486-.31-.486-.31a.584.584 0 0 0-.741.078.641.641 0 0 0-.097.765c3.258 5.694 5.792 11.173 7.544 15.901 1.752 4.723 2.717 8.708 2.858 11.339.065 1.16-.041 2.051-.255 2.576-.104.265-.227.43-.347.529a.712.712 0 0 1-.436.164c-.498.048-1.523-.386-2.869-1.589-4.161-3.668-11.951-11.332-23.6-19.592-11.653-8.264-27.185-17.139-46.88-23.277a.595.595 0 0 0-.748.417.631.631 0 0 0 .406.778c19.555 6.095 34.972 14.905 46.544 23.111 11.577 8.21 19.291 15.803 23.5 19.512 1.457 1.27 2.62 1.924 3.714 1.887a1.91 1.91 0 0 0 1.126-.436c.473-.398.747-.988.902-1.678.155-.695.195-1.516.145-2.467-.157-2.859-1.159-6.914-2.937-11.717-1.78-4.802-4.341-10.34-7.632-16.092l-.517.318-.321.527c.012.006 2.841 1.861 6.441 3.683 3.61 1.814 7.943 3.626 11.191 3.469 1.249-.066 2.393-.451 3.186-1.353.795-.903 1.157-2.232 1.061-3.961-.132-2.396-1.101-5.649-3.177-10.123a.592.592 0 0 0-.803-.293.63.63 0 0 0-.281.831ZM412.154 133.357c10.606-6.639 18.787-9.94 23.523-10.183 1.59-.089 2.762.171 3.494.666.728.497 1.113 1.188 1.185 2.304.105 1.729-.759 4.421-2.81 7.882-2.044 3.468-5.245 7.722-9.712 12.708a.645.645 0 0 0-.093.709.603.603 0 0 0 .61.337c.002-.002.345-.044.952-.104a62.817 62.817 0 0 1 2.498-.184c2.719-.149 6.579-.174 9.728.473 1.573.318 2.965.811 3.926 1.488.964.686 1.491 1.477 1.558 2.568.042.783-.176 1.768-.794 2.982-2.689 5.332-9.29 8.841-15.257 10.928a64.767 64.767 0 0 1-10.31 2.671c-.585.1-.904.142-.904.144a.61.61 0 0 0-.521.595.62.62 0 0 0 .479.634c.002 0 .232.051.649.154 1.46.36 5.141 1.367 8.453 2.988 1.656.809 3.216 1.776 4.349 2.858 1.139 1.089 1.826 2.257 1.892 3.504l.004.318c-.022 1.422-1.193 3.185-3.079 4.911-2.811 2.595-7.073 5.113-10.616 6.958a102.971 102.971 0 0 1-4.517 2.211c-1.15.528-1.85.82-1.852.82a.633.633 0 0 0-.33.814.596.596 0 0 0 .785.344c.015-.006 5.089-2.133 10.213-5.149 2.565-1.511 5.142-3.241 7.119-5.064 1.965-1.827 3.399-3.738 3.48-5.802l-.005-.426c-.11-1.941-1.283-3.548-2.848-4.864-2.361-1.977-5.704-3.399-8.476-4.36-2.77-.957-4.963-1.432-4.978-1.437l-.121.612.081.617c.023-.003 5.363-.728 11.445-2.868 6.073-2.151 12.933-5.675 15.932-11.525.685-1.348.986-2.551.929-3.633-.076-1.529-.914-2.728-2.09-3.538-1.766-1.227-4.311-1.789-6.949-2.063-2.635-.269-5.363-.223-7.442-.11-2.09.112-3.523.294-3.532.294l.073.619.443.427c4.503-5.029 7.749-9.333 9.855-12.904 2.102-3.576 3.093-6.404 2.986-8.602-.065-1.412-.676-2.593-1.739-3.289-1.058-.7-2.474-.955-4.211-.863-5.151.291-13.372 3.679-24.077 10.36a.639.639 0 0 0-.203.859c.171.294.543.39.825.211Z" clip-rule="evenodd"/><path fill="#D04F29" fill-rule="evenodd" d="M355.425 134.133c.531 9.82-6.718 18.195-16.188 18.707-9.47.512-17.578-7.034-18.108-16.854-.531-9.822 6.717-18.197 16.187-18.709 9.47-.512 17.579 7.034 18.109 16.856Z" clip-rule="evenodd"/><path fill="#56613B" fill-rule="evenodd" d="m355.425 134.132-.002-.047.002.047Zm-34.296 1.853-.003-.048.003.048Z" clip-rule="evenodd"/><path fill="#C23E22" fill-rule="evenodd" d="M339.236 152.84c-9.47.511-17.578-7.035-18.109-16.855l-.002-.048a18.407 18.407 0 0 1 .252-4.051c2.204 7.757 9.303 13.246 17.419 12.807 8.117-.438 14.583-6.659 15.938-14.609.363 1.279.607 2.614.687 4l.003.048c.381 7.053-3.251 13.363-8.836 16.547a16.605 16.605 0 0 1-7.352 2.161Z" clip-rule="evenodd"/><path fill="#E76F3B" fill-rule="evenodd" d="M337.805 126.339c-4.339.234-7.945-1.21-8.054-3.228-.109-2.017 3.32-3.843 7.659-4.077 4.339-.235 7.944 1.211 8.053 3.228.109 2.018-3.319 3.843-7.658 4.077Z" clip-rule="evenodd"/><path fill="#D04F29" fill-rule="evenodd" d="M528.25 97.92c.578 10.705-7.32 19.833-17.642 20.391-10.322.557-19.159-7.667-19.737-18.37-.578-10.704 7.32-19.832 17.643-20.39 10.322-.558 19.158 7.667 19.736 18.37Z" clip-rule="evenodd"/><path fill="#56613B" fill-rule="evenodd" d="M510.607 118.311a18.886 18.886 0 0 1-.001 0h.001Zm.9-.071c4.728-.489 8.896-2.787 11.894-6.189-2.998 3.402-7.166 5.7-11.894 6.189Zm11.894-6.19a.402.402 0 0 0 .021-.023l-.021.023Zm.038-.043.065-.074-.065.074Zm.076-.087c.018-.021.034-.041.053-.061l-.053.061Zm.112-.13v-.001.001Zm.075-.088.002-.003-.003.003h.001Zm4.548-13.783-.003-.05.003.05Zm-37.379 2.019a28.6 28.6 0 0 1-.003-.05l.003.05Z" clip-rule="evenodd"/><path fill="#C23E22" fill-rule="evenodd" d="M510.608 118.309c-.263.014-.525.023-.783.026-9.982.112-18.391-7.965-18.954-18.396l-.003-.051a20.108 20.108 0 0 1 .276-4.416c2.4 8.455 10.138 14.436 18.984 13.958 8.845-.478 15.893-7.257 17.369-15.922a20.118 20.118 0 0 1 .753 4.412c.283 5.245-1.47 10.112-4.545 13.778-.002.001-.003.002-.003.004l-.075.087c.001 0 0 0 0 0l-.058.068-.053.062-.011.013c-.022.024-.042.049-.065.073l-.017.02-.021.023v.001c-2.998 3.402-7.166 5.7-11.894 6.189l-.073.008c-.272.027-.55.048-.827.063Z" clip-rule="evenodd"/><path fill="#E76F3B" fill-rule="evenodd" d="M509.046 89.43c-4.73.256-8.659-1.32-8.778-3.518-.118-2.2 3.617-4.188 8.348-4.444 4.728-.256 8.657 1.32 8.776 3.519.119 2.198-3.618 4.188-8.346 4.443Z" clip-rule="evenodd"/><path fill="#D04F29" fill-rule="evenodd" d="M162.499 333.567s10.373 21.188 14.198 19.531c3.825-1.657 3.925-20.51 3.925-20.51s19.119.437 20.471-4.865c1.352-5.303-16.101-12.597-16.101-12.597s7.525-21.168 2.97-22.662c-4.554-1.495-17.624 10.231-17.624 10.231s-6.278-12.71-10.105-11.054c-3.825 1.657-2.845 24.976-2.845 24.976s-11.014 18.691-8.844 22.633c2.17 3.943 13.954-5.683 13.955-5.683Z" clip-rule="evenodd"/><path fill="#948E7E" fill-rule="evenodd" d="M177.411 352.55c3.126-3.53 3.213-19.964 3.213-19.964s2.479.056 5.711-.118c2.472-.134 5.383-.403 7.972-.934-2.589.531-5.501.8-7.973.934-3.234.175-5.71.118-5.71.118s-.089 16.434-3.213 19.964Zm-8.923-8.067c-3.211-5.245-5.989-10.918-5.989-10.918.001 0-7.842 6.407-11.909 6.627 4.067-.22 11.909-6.627 11.909-6.627.001 0 2.778 5.673 5.989 10.918Zm-19.949-5.246-.004-.008a.03.03 0 0 0 .004.008Zm-.007-.013-.003-.006.003.006Zm-.007-.013-.003-.006c.002.003.003.004.003.007v-.001Zm-.007-.015-.001-.003a.01.01 0 0 0 .001.003Zm45.805-7.665a.105.105 0 0 1 .019-.005l-.019.005Zm6.75-5.126-.001-.003.001.003Zm-.002-.014c-.002-.001-.003-.004-.003-.006 0 .003.001.005.003.006Zm-.004-.013c-.322-1.197-1.374-2.451-2.798-3.667l.002-.001c1.422 1.217 2.474 2.471 2.796 3.668Z" clip-rule="evenodd"/><path fill="#56613B" fill-rule="evenodd" d="M193.559 319.439c-.002 0 .001 0 0 0Z" clip-rule="evenodd"/><path fill="#3A4B28" fill-rule="evenodd" d="M198.271 322.713h-.002c-1.34-1.148-3.011-2.265-4.71-3.272.001 0-.002 0 0 0 1.699 1.007 3.37 2.124 4.712 3.272Z" clip-rule="evenodd"/><path fill="#C23E22" fill-rule="evenodd" d="M176.307 353.188c-1.905.101-5.027-4.139-7.82-8.704-3.211-5.245-5.989-10.918-5.989-10.918.001 0-7.842 6.406-11.909 6.626a2.993 2.993 0 0 1-.957-.088 1.734 1.734 0 0 1-1.094-.866l-.004-.008-.003-.005-.003-.007-.004-.006-.003-.006-.004-.009-.001-.003c-.282-.56-.31-1.402-.161-2.427 5.732-2.212 15.226-16.348 15.226-16.348s7.232 9.37 11.73 9.127c.334-.018.657-.09.959-.223 4.334-1.92-2.568-15.534-2.568-15.534s3.165 2.688 9.538 2.344a23.427 23.427 0 0 0 3.152-.392 83.606 83.606 0 0 1 3.898 1.891h.002l.013.008a66.675 66.675 0 0 1 3.253 1.799c1.699 1.007 3.37 2.124 4.71 3.273v-.001c1.424 1.217 2.476 2.47 2.797 3.669a.01.01 0 0 1 .002.006c0 .002.001.005.003.006l.001.01.001.004c.117.448.13.888.021 1.315-.492 1.929-3.334 3.098-6.752 3.806a.106.106 0 0 0-.019.004l-.016.003c-2.589.532-5.5.801-7.972.934-3.232.175-5.711.119-5.711.119s-.087 16.433-3.213 19.963a2.039 2.039 0 0 1-.713.547 1.134 1.134 0 0 1-.39.091Z" clip-rule="evenodd"/><path fill="#A04E24" fill-rule="evenodd" d="M334.052 454.127c.254 4.697-3.213 8.705-7.744 8.95-4.53.244-8.408-3.367-8.662-8.064-.253-4.7 3.213-8.706 7.743-8.951 4.531-.245 8.409 3.365 8.663 8.065Z" clip-rule="evenodd"/><path fill="#A1C6BF" d="M236.06 581.895c.596 11.034 6.403 20.632 15.947 24.958 8.978 4.073 20.607 3.443 29.116-1.578 8.391-4.946 13.739-15.501 13.143-26.534-.912-16.876-14.471-29.974-30.759-29.091-16.371.887-28.364 15.264-27.447 32.245Zm28.42-24.322c-2.362 10.624-10.261 26.431-16.222 34.296l15.095-.818.279 4.557c.107 2.584-1.696 5.372-4.538 5.491-3.943.161-8.975-1.494-12.242-6.657-2.381-3.768-4.123-6.748-4.455-12.889-.724-13.413 8.93-25.087 21.973-25.794 12.899-.699 23.918 10.179 24.625 23.268.332 6.142-2.105 11.595-2.92 13.18-2.89 5.607-7.641 7.791-11.391 8.045-2.584.171-5.081-1.703-5.258-4.973l-.246-4.544 15.328-.83c-7.006-7.163-16.562-22.024-20.028-32.332ZM497.866 567.752c.596 11.033 6.403 20.631 15.946 24.957 8.978 4.073 20.608 3.443 29.117-1.578 8.391-4.945 13.738-15.501 13.142-26.534-.911-16.876-14.47-29.974-30.758-29.091-16.371.887-28.364 15.264-27.447 32.246Zm28.42-24.323c-2.362 10.624-10.262 26.432-16.222 34.296l15.095-.818.279 4.557c.106 2.584-1.697 5.372-4.538 5.491-3.943.161-8.976-1.494-12.243-6.657-2.38-3.768-4.122-6.747-4.454-12.889-.725-13.413 8.93-25.087 21.972-25.794 12.9-.699 23.918 10.179 24.625 23.268.332 6.142-2.105 11.595-2.92 13.181-2.889 5.606-7.64 7.79-11.391 8.044-2.583.172-5.081-1.702-5.257-4.973l-.246-4.544 15.327-.83c-7.005-7.163-16.561-22.024-20.027-32.332Z"/><path fill="#FEFEFE" fill-rule="evenodd" d="M379.112 322.301c.066 1.229-.841 2.277-2.027 2.341-1.185.064-2.2-.88-2.266-2.109-.067-1.23.84-2.278 2.026-2.342 1.185-.064 2.2.88 2.267 2.11ZM364.128 425.81c.067 1.231-.841 2.279-2.026 2.343-1.185.064-2.2-.88-2.267-2.11-.066-1.23.841-2.279 2.026-2.343 1.186-.064 2.201.882 2.267 2.11ZM429.059 356.783c.066 1.231-.841 2.279-2.027 2.343-1.185.063-2.2-.88-2.266-2.11-.067-1.23.84-2.277 2.026-2.341 1.186-.064 2.2.88 2.267 2.108Z" clip-rule="evenodd"/><path fill="#E63535" fill-rule="evenodd" d="M370.396 367.21c-18.678.941-39.17 35.495-37.117 59.479 21.08 12.138 64.737 9.285 83.62-4.518-2.054-23.983-27.826-55.901-46.503-54.961Z" clip-rule="evenodd"/><path fill="#293843" fill-rule="evenodd" d="M333.314 419.251c22.677 10.554 60.825 8.448 82.347-4.25a88.609 88.609 0 0 0-2.189-6.824c-19.03 12.73-58.959 14.884-79.049 3.824a84.515 84.515 0 0 0-1.109 7.25Z" clip-rule="evenodd"/><path fill="#FDD173" fill-rule="evenodd" d="m346.662 416.763-.003.002a.619.619 0 0 0-.229.379l-1.069 5.723a.636.636 0 0 0 .075.441l.001.004a.536.536 0 0 0 .341.243l8.267 1.693a.512.512 0 0 0 .404-.09l.003-.003a.628.628 0 0 0 .228-.38l1.07-5.721a.645.645 0 0 0-.076-.442l-.001-.003a.536.536 0 0 0-.341-.243l-8.267-1.693a.504.504 0 0 0-.403.09Zm9.318-1.865c1.008.205 1.839.85 2.367 1.718l.005.007c.528.871.752 1.965.544 3.076l-1.07 5.721a4.249 4.249 0 0 1-1.611 2.635l-.008.005c-.802.597-1.804.863-2.812.657l-8.266-1.694c-1.007-.206-1.839-.849-2.366-1.718l-.005-.008a4.375 4.375 0 0 1-.544-3.075l1.07-5.723c.208-1.11.809-2.037 1.611-2.632l.007-.005c.802-.598 1.805-.866 2.812-.659l8.266 1.695Z" clip-rule="evenodd"/><path fill="#363637" fill-rule="evenodd" d="M312.916 368.614c-1.995-1.671-4.683-1.692-5.172 1.006-.617 3.417.932 7.602 2.291 11.089 2.05 5.259 4.675 10.479 7.58 15.418l-.007.132c.512 3.898 10.259 23.232 14.061 16.247 2.251-4.143.375-8.824-1.838-13.664-2.928-6.399-5.546-13.304-9.134-19.374-2.131-3.615-4.642-8.226-7.781-10.854ZM429 367.194c-2.44-5.688-8.557-1.679-11.287 1.361-5.924 6.598-8.178 18.643-9.778 27.104-1.758 9.33-5.187 18.388-6.765 27.76-.532.091-1.017.451-1.125 1.102-.813 4.924-4.528 16.36 1.234 19.842 4.182 2.526 8.138-2.565 10.418-5.545 10.574-13.835 15.806-32.006 17.398-49.358.628-6.795 2.75-15.638-.095-22.266Z" clip-rule="evenodd"/><path fill="#0F539D" fill-rule="evenodd" d="M430.322 296.537c.983-.089 1.979-.189 2.981-.28-1.002.091-1.992.19-2.973.279l-.008.001Zm3.002-.283c.065-.004.127-.011.191-.015-.064.004-.128.011-.191.015Z" clip-rule="evenodd"/><path fill="#FEFEFE" fill-rule="evenodd" d="M444.209 299.326c1.454 10.146 15.132 3.07 10.707-2.762 4.307-1.659 7.15-11.546-2.284-9.986 3.251-5.807-7.247-10.773-8.491-1.408-4.536-6.525-10.836 1.628-6.18 6.074-4.202 3.882-1.26 15.347 6.248 8.082Z" clip-rule="evenodd"/><path fill="#E3F1FC" fill-rule="evenodd" d="M389.233 308.108c27.453 12.83 55.078 59.139 28.627 50.067 7.915 24.578-11.136 26.472-48.065-4.547-27.453-12.83-66.764-10.768-34.489-34.896-17.225-9.433 26.473-23.452 53.927-10.624Z" clip-rule="evenodd"/><path fill="#F5C8B3" fill-rule="evenodd" d="M391.756 303.065c-19.562-8.594-43.365 1.54-50.727 19.661-7.361 18.123 2.53 39.78 22.092 48.374 19.561 8.594 41.385.87 48.747-17.252 7.362-18.121-.551-42.189-20.112-50.783Z" clip-rule="evenodd"/><path fill="#FEFEFE" fill-rule="evenodd" d="M367.245 342.124c-25.653-27.016-44.517-5.007-27.076-.045-33.134 11.388-30.528 36.324 1.46 29.418-15.678 18.012 11.204 28.563 19.256 10.434 6.733 19.879 35.973 26.748 28.166 1.262 12.364 14.741 28.95 3.107 12.265-15.222 22.907 4.722-9.993-30.789-34.071-25.847Z" clip-rule="evenodd"/><path fill="#F08689" fill-rule="evenodd" d="M375.782 322.344c-5.278-2.465-11.467-.037-13.826 5.425-2.359 5.461.008 11.888 5.285 14.355 5.278 2.466 11.468.037 13.826-5.424 2.359-5.463-.008-11.889-5.285-14.356Z" clip-rule="evenodd"/><path fill="#FEFEFE" fill-rule="evenodd" d="M368.53 306.846c5.47.097 9.874 2.355 9.839 5.04-.035 2.686-4.755-.125-10.225-.224-5.468-.098-9.614 2.556-9.579-.131.035-2.686 4.495-4.783 9.965-4.685ZM398.492 321.978c-3.527-4.349-7.992-6.475-9.973-4.75-1.979 1.725 3.098 3.755 6.626 8.102 3.529 4.347 4.17 9.367 6.15 7.642 1.979-1.725.725-6.646-2.803-10.994Z" clip-rule="evenodd"/><path fill="#F7C1B8" fill-rule="evenodd" d="M370.451 323.781c-1.432-.67-3.114-.011-3.754 1.472-.64 1.482.002 3.228 1.436 3.898 1.433.669 3.112.011 3.752-1.473.641-1.483-.002-3.227-1.434-3.897Z" clip-rule="evenodd"/><path fill="#E63535" fill-rule="evenodd" d="M362.927 295.224c9.123-16.122 48.385-32.191 82.95-6.164 2.015 1.516 2.939 3.868-.935 3.783-25.693-.557-2.358 29.196-26.672 51.408-7.296-34.772-38.382-48.008-55.343-49.027Z" clip-rule="evenodd"/><path fill="#E3F1FC" fill-rule="evenodd" d="M372.91 371.2c4.576 22.433 19.849 14.949 13.993-2.647 2.464 12.273-9.501 15.49-13.993 2.647ZM357.187 358.879c-18.682 7.905-22.663-9.146-6.249-13.284-10.907 4.831-5.829 16.664 6.249 13.284Z" clip-rule="evenodd"/><path fill="#E3F1FC" fill-rule="evenodd" d="M357.785 368.73c-14.691 13.323-24.235-1.384-10.134-10.404-8.451 8.439.081 17.83 10.134 10.404ZM378.071 361.62c-2.975 21.496-18.666 14.877-14.112-1.978-1.105 12.144 10.982 14.998 14.112 1.978ZM410.953 323.344c-1.787 8.746-.183 20.234 5.107 22.439 5.292 2.206 3.613-14.35-5.107-22.439Z" clip-rule="evenodd"/><path fill="#F5C8B3" fill-rule="evenodd" d="M420.423 343.76c-2.426-2.235-6.92-1.098-10.036 2.542-3.117 3.639-3.677 8.401-1.25 10.637 2.427 2.236 6.919 1.098 10.036-2.54 3.117-3.64 3.676-8.403 1.25-10.639Z" clip-rule="evenodd"/><path fill="#E3F1FC" fill-rule="evenodd" d="M364.731 302.553c-8.923 3.55-17.234 10.116-19.745 13.112-5.17-2.499 8.108-14.178 19.745-13.112Z" clip-rule="evenodd"/><path fill="#FEFEFE" fill-rule="evenodd" d="M357.784 294.316c1.001-6.894 9.933-5.208 14.019 2.149.839-12.34 33.482-.553 31.431 10.948 10.874-.62 21.235 8.318 14.444 11.844 11.607 5.708 14.034 16.365 9.7 19.56-5.944 4.383-16.424 2.182-16.183-12.416-4.088 7.395-14.723-5.896-13.052-11.925-3.055 2.444-26.111-3.201-29.576-13.645-5.087 6.635-20.72 7.726-16.381 2.93-11.648 4.362-11.143.163-10.465-4.353.58-3.864 5.62-7.819 16.063-5.092Z" clip-rule="evenodd"/><path fill="#F08689" fill-rule="evenodd" d="M365.709 342.85c-1.25-1.207-3.281-.492-4.535 1.599-1.254 2.09-1.257 4.765-.006 5.972 1.252 1.209 3.282.494 4.536-1.598 1.254-2.089 1.257-4.763.005-5.973Z" clip-rule="evenodd"/><path fill="#293843" fill-rule="evenodd" d="M387.335 330.804a.66.66 0 0 0 .833.446.688.688 0 0 0 .43-.862c-.342-1.105-1.336-2.082-2.559-2.682-1.158-.568-2.551-.813-3.802-.514a.685.685 0 0 0-.495.822c.085.369.44.6.796.515.943-.226 2.02-.027 2.936.422.912.447 1.636 1.124 1.861 1.853ZM362.121 317.363a.692.692 0 0 0-.438.86c.108.363.48.567.829.456.791-.249 1.708-.121 2.568.299a5.367 5.367 0 0 1 2.248 2.13.65.65 0 0 0 .909.238.699.699 0 0 0 .226-.942c-.695-1.203-1.713-2.129-2.82-2.671-1.147-.562-2.403-.722-3.522-.37Z" clip-rule="evenodd"/><path fill="#AD2C2D" fill-rule="evenodd" d="M362.435 387.368c-8.818 1.577-15.757 3.933-25.259.001-3.391 2.343-5.574 5.636-5.987 10.057 10.74 4.579 23.253 7.156 32.31 5.316 12.082-2.453 11.472-17.614-1.064-15.374Z" clip-rule="evenodd"/><path fill="#293843" fill-rule="evenodd" d="M337.316 383.109c-3.638-6.219-9.793-7.316-8.242-2.222-5.296-2.956-10.635.669-10.023 5.896.537 4.569 5.283 8.458 12.146 9.135 5.295.521 11.565-3.504 6.119-12.809Z" clip-rule="evenodd"/><path fill="#FEFEFE" fill-rule="evenodd" d="M339.706 391.083c2.417 1.297.438 3.995-2.901 4.07-.445 8.181-9.132 4.826-5.618 2.272-4.499.886-5.128-3.369-.674-5.181-2.422-1.029.258-4.649 4.204-4.855.334-4.401 5.634-6.222 5.371-1.232 1.986-1.744 5.138 3.949-.382 4.926Z" clip-rule="evenodd"/><path fill="#363637" fill-rule="evenodd" stroke="#363637" stroke-miterlimit="22.926" stroke-width="2.246" d="M316.374 391.684c-.592-.26-1.062.349-2.499 1.957-1.436 1.609-3.839 4.217-5.1 5.692-1.262 1.476-1.382 1.82-1.717 2.829a216.656 216.656 0 0 0-1.416 4.397 264.986 264.986 0 0 0-1.297 4.362c-.256.885-.258.894-.125.742.133-.154.403-.469 2.242-2.532s5.248-5.873 7.4-8.539c2.153-2.667 3.048-4.19 3.594-5.064.545-.875.74-1.101.482-1.778-.26-.677-.972-1.806-1.564-2.066Z" clip-rule="evenodd"/><path fill="#D04F29" fill-rule="evenodd" stroke="#D04F29" stroke-miterlimit="22.926" stroke-width="2.246" d="M328.051 428.429c.236-1.396 2.392-1.513 18.864-2.402l62.886-3.397c15.628-.845 16.101-.87 16.278-.327.178.544.061 1.658-1.755 4.522-1.816 2.864-5.33 7.478-7.578 11.395-2.248 3.916-3.229 7.134-5.535 8.887-2.305 1.753-5.934 2.041-9.536.914-3.601-1.126-7.176-3.668-10.154-5.596-2.979-1.929-5.361-3.244-9.405-3.502-4.043-.258-9.749.542-18.514.094-8.765-.449-20.591-2.146-27.346-4.331-6.755-2.186-8.44-4.861-8.205-6.257Z" clip-rule="evenodd"/><path fill="#FEFEFE" fill-rule="evenodd" d="M178.131 574.754a3.833 3.833 0 1 1-7.636.684 3.833 3.833 0 0 1 7.636-.684ZM170.607 738.08c-28.085-1.609-55.485 31.128-26.706 38.232 28.777 7.105 43.26-37.284 26.706-38.232Z" clip-rule="evenodd"/><path fill="#DDF1ED" fill-rule="evenodd" d="M572.828 721.233c71.231-9.876 37.809 37.161 101.918 13.411 45.206-16.748 42.322-49.349 20.299-86.443-17.278-29.099-24.827-38.709-40.137-81.948-9.813-27.717.796-43.878-15.886-62.519-20.079-22.437-69.722-18.829-84.285 15.212-11.578 27.062 4.643 49.377 2.688 68.998-1.781 17.877-16.152 18.73-30.59 19.391-34.821-2.723-45.772-40.991-114.346-36.311l-8.935 1.523c-41.428 12.189-133.921 51.354-162.958 2.719-11.059-18.522-13.018-29.313-39.726-21.589-40.73 11.778-38.243 71.709-36.711 106.279 3.652 82.422 67.68 29.889 99.753 77.992 25.397 38.093 93.989-24.831 118.831 3.086 5.151 5.789 10.607 24.17 13.366 31.186 3.386 14.83 19.46 28.082 37.621 10.395 23.696-23.079-38.829-48.718 75.284-52.906 30.483-.428 33.672-4.293 63.814-8.476Z" clip-rule="evenodd"/><path fill="#FEFEFE" fill-rule="evenodd" d="M567.38 707.553c70.18-9.73 23.996 34.044 87.16 10.644 44.54-16.501 41.698-48.621 19.999-85.169-17.022-28.669-24.461-38.137-39.544-80.739-9.669-27.308.784-43.232-15.652-61.598-19.784-22.106-68.694-18.551-83.043 14.988-11.407 26.663 4.575 48.649 2.649 67.981-1.755 17.614-15.915 18.454-30.139 19.105-34.308-2.683-45.097-40.386-112.661-35.776l-8.802 1.501c-40.818 12.009-131.947 50.597-160.557 2.679-10.896-18.249-12.826-28.881-39.14-21.271-40.129 11.604-37.679 70.652-36.17 104.712 3.599 81.207 66.683 29.449 98.283 76.843 25.023 37.531 101.952-16.559 126.428 10.947 5.075 5.703 7.615 13.065 10.334 19.977 3.337 14.612 10.006 35.152 27.899 17.726 23.348-22.738-35.603-52.642 76.827-56.768 30.034-.422 46.43-1.66 76.129-5.782Z" clip-rule="evenodd"/><path fill="#3F693E" d="M275.595 685.963c17.875 5.629 11.445-13.013 7.392-15.543-16.759-10.481-39.571 19.879-25.278 43.188 14.283 23.208 36.46 1.894 36.46 1.894s-.423-5.852-2.084-3.637c-12.461 12.072-23.924 8.762-27.854-2.768-4.775-14.038 7.877-38.94 14.856-34.916 3.595 2.053-3.492 11.782-3.492 11.782Zm52.772-11.04c2.171-6.911-4.073-9.658-10.124-9.114-5.333.478-11.208 1.832-17.213 10.948-8.284 12.523-3.767 31.75 1.503 37.477 18.111 18.626 37.106-16.248 32.385-28.533 7.051-3.217 5.312-6.47 5.312-6.47-8.487 2.208-13.701-2.903-13.701-2.903l-8.35 4.883c4.949 1.002 10.615 11.136 6.105 25.387-4.68 14.68-23.518 12.135-17.718-13.082 5.492-24.052 21.801-18.593 21.801-18.593Zm11.17-1.107c.344.383.437.271.783.654 4.04-3.36 7.679-5.443 8.36 2.142.635 7.073-1.624 40.651-1.624 40.651 4.904.49 9.358 1.743 9.358 1.743 2.081-9.072-1.597-21.245 12.188-25.48 6.799-2.573 6.859 25.734 14.221 28.276 11.726 2.771 17.558-10.566 17.558-10.566l-.716-1.072s-3.156 4.002-8.162 3.522c-12.657-3.927-3.333-27.909-17.524-27.049-3.664.639-6.574 1.623-8.682 2.33 1.015-7.118 5.949-16.654 9.629-22.875 9.781-16.583 11.546-2.69 11.564-2.484 8.026 8.785 18.549-12.205-2.254-10.131-15.272 1.475-20.829 24.809-25.048 37.691-.004-12.71 1.247-21.811-4.54-24.081-8.228-4.118-15.111 6.729-15.111 6.729Zm58.346 92.512s12.507 3.424 11.831.488c-7.127-28.706-2.677-63.204.48-83.327 2.385-14.887 13.243-20.615 17.143-15.178.819 1.062 1.693 3.877 2.239 7.651-5.515 4.216-10.546 9.214-12.77 13.237-4.083 7.496-5.936 21.405 2.613 22.187 6.152.585 16.862-5.647 19.225-25.388.425-4.481.57-8.627.247-12.215 2.819-2.01 4.88-3.229 4.88-3.229l-.052-2.888c-1.605.558-3.489 1.45-5.354 2.548-1.361-8.248-5.038-13.498-9.939-15.125-10.049-1.37-16.757 10.288-16.757 10.288l-1.363-5.974-9.481-.802-2.942 107.727Zm21.312-71.248c1.218-4.862 5.811-10.13 10.701-14.393.282 6.587-.557 14.516-3.678 20.066-6.521 11.436-8.915 2.041-7.023-5.673Zm59.018-33.61c2.17-6.911-4.073-9.658-10.124-9.114-5.334.478-11.209 1.832-17.214 10.948-8.284 12.523-3.767 31.75 1.504 37.477 18.111 18.626 37.106-16.248 32.384-28.533 7.052-3.217 5.312-6.47 5.312-6.47-8.487 2.208-13.701-2.903-13.701-2.903l-8.35 4.883c4.949 1.002 10.615 11.136 6.105 25.387-4.679 14.68-23.518 12.135-17.717-13.083 5.492-24.051 21.801-18.592 21.801-18.592Zm30.77-20.019c-.344-1.52 4.026-39.213 13.62-39.455 8.978-.187 4.619 28.414-13.62 39.455Zm-30.254.442c-1.407-.699-.773 7.51.922 7.978 6.581 1.889 10.535 1.017 16.69-.672-2.874 33.634 5.111 69.599 29.046 51.744 5.141-3.768 8.674-11.629 10.536-17.376 2.76-8.41.954-18.168-1.613-23.724 3.489-1.45 5.656-4.951 5.656-4.951l-1.574-1.408c-1.662 2.215-3.882 2.828-6.045 2.919-4.598-6.304-11.078-5.929-16.26.84-3.334 4.329 3.607 9.079 7.945 5.59 0 0 4.623 10.02 3.895 18.042-1.369 14.693-6.694 24.471-13.485 19.087-11.466-9.097-5.549-53.75-5.549-53.75 14.176-4.476 35.746-32.555 23.928-44.41-6.825-6.931-20.264-3.451-24.956 6.477-5.14 10.691-9.395 22.026-11.081 36.644-4.588.721-8.523 1.798-18.055-3.03Zm116.725 47.179c-.251-.494-.346-.381-.69-.764-4.394 2.874-8.162 4.659-8.126-2.991.083-7.137 5.651-39.565 5.651-39.565-4.336-1.058-9.141-5.07-9.141-5.07-3.702 8.289-11.821 46.836-18.812 46.121-3.077.276-2.647-8.752-2.487-17.342.264-10.874 2.323-25.938-3.427-27.799-10.158-3.738-14.431 7.392-15.672 8.537l1.546 1.101s2.672-4.787 7.622-3.784c1.639.989.43 14.014.23 25.605-.286 12.942-2.903 27.54 9.453 24.674 8.465-.14 18.487-31.315 18.487-31.315-1.237 5.794-3.838 20.596 2.541 27.154 7.779 4.882 12.825-4.562 12.825-4.562Zm71.641 4.522c-7.31.346-14.272-1.199-26.571 1.145-26.53 5.069-23.095 24.91-23.095 24.91 6.253-5.212 13.115-13.991 51.616-19.308 9.009-2.151 8.428-15.532 10.436-18.502.476-.456.756-.791.756-.791-.251-.495-.409-1.1-.754-1.483-4.394 2.875-12.611 5.782-12.574-1.868.083-7.137 5.649-39.566 5.649-39.566-4.334-1.057-9.139-5.069-9.139-5.069-4.587 7.645-12.585 46.388-18.692 46.317-3.077.276-5.147-6.668-4.988-15.259 2.363-19.741 3.555-26.048 3.555-26.048-4.334-1.057-9.815-2.219-9.815-2.219-4.586 7.646-9.487 44.044-15.593 43.973-3.077.276-2.966-6.554-2.807-15.144.265-10.874 2.324-25.938-3.426-27.799-10.158-3.738-13.78 8.884-15.673 8.537l1.547 1.101s2.671-4.787 7.621-3.784c1.639.989.431 14.014.231 25.605-.286 12.942-2.904 27.54 9.452 24.674 8.158-.112 17.842-29.294 18.403-31.101-1.639 7.071-3.667 27.091 9.41 28.811 9.567-.549 16.431-26.585 17.574-31.131-1.303 6.214-3.464 20.151 2.681 26.419 4.379 2.707 9.378.811 12.802-1.356-1.141 3.409-2.452 8.383-8.606 8.936Z"/><path fill="#E42032" d="M581.428 512.007c2.803.057 8.607-1.137 13.989-3.369-1.39-1.05-2.644-1.792-3.771-2.33-6.938-3.966-30.531-6.568-29.198-.459.575 6.074 12.049 6.815 18.98 6.158Zm-24.442 39.519c.363-4.121 4.859-7.772 22.507-7.724 7.097-.028 13.317.889 18.967 2.611 5.434-3.956 9.245-9.156 9.486-14.554-.126-10.418-3.693-15.133-8.686-20.143l-3.408 1.505c-15.692 6.971-33.05 4.315-39.282-.148-5.999-4.27-2.37-11.388 9.45-13.798 10.136-2.036 22.503-.95 34.653 6.93 4.8-2.713 7.782-6.436 6.292-10.811-3.239-10.337-23.399-5.094-23.399-5.094l-.35-.289c15.154-5.845 23.909-.868 26.396 2.66 2.465 3.314 3.305 9.901-5.05 15.961 16.465 10.267 14 25.124 11.997 28.969-1.398 4.541-4.883 8.634-9.398 12.073 9.365 4.596 16.566 11.333 22.578 19.149 15.46 18.964 1.584 39.418 1.584 39.418s-15.78 29.881-53.083 22.234c-36.957-8.539-30.579-32.046-30.579-32.046 16.116 28.149 61.353 28.7 70.954.587 3.865-13.699-.18-24.606-5.65-32.366-4.673-5.041-9.15-9.132-13.844-12.128-17.577 8.655-41.689 9.649-42.135-2.996Zm19.491 2.454c4.935-.145 10.089-1.386 14.629-3.43-4.574-1.717-9.387-2.551-14.758-2.472-3.87.045-10.389 1.63-10.771 3.279-.001 2.258 6.508 2.824 10.9 2.623Z"/><path fill="#3F693E" d="M188.586 556.431c1.904 6.235 8.451 4.305 9.053-.503.236-1.984-1.178-5.06-4.562-4.757-4.718.424-4.491 5.26-4.491 5.26Zm14.463-2.435c1.904 6.236 8.451 4.305 9.053-.502.235-1.985-1.177-5.062-4.563-4.758-4.718.424-4.49 5.26-4.49 5.26Zm-4.394 17.857c-2.638.547-9.499.13-14.981-1.031 1.131-1.239 2.073-2.253 4.442-3.499 8.023-3.923 24.938-6.683 25.865-2.115.525 5.842-8.659 6.047-15.326 6.645Zm28.678 31.525c-1.067-3.831-5.958-6.492-22.632-3.341-6.714 1.222-12.431 3.182-17.469 5.804-5.833-2.783-10.349-7.027-11.527-12.088-1.714-9.869.828-14.954 4.667-20.568l3.486.824c15.211 3.594 29.524 1.792 35.639-6.093 4.361-5.559-3.599-7.841-6.815-7.965-12.959-.387-23.29.851-33.983 8.424-5.014-1.72-9.121-4.864-8.482-9.261 1.242-10.341 21.22-8.932 21.22-8.932l.28-.335c-15.352-2.858-22.752 3.386-24.481 7.157-1.748 3.567-1.382 9.941 7.581 14.199-13.757 12.602-8.813 26.211-6.243 29.493 2.12 4.046 6.135 7.302 11.008 9.758-8.043 5.992-13.665 13.627-17.973 22.073-11.276 20.646 5.439 37.538 5.439 37.538s20.172 25.468 54.086 11.676c33.432-14.574 23.266-35.67 23.266-35.67-10.281 29.441-52.942 37.921-66.963 13.038-6.065-12.268-4.159-23.29-.355-31.587 3.531-5.588 7.041-10.242 10.953-13.9 18.136 5.088 41.103 1.787 39.298-10.244Zm-17.991 5.748c-4.69.731-9.78.464-14.431-.668 4.021-2.427 8.424-4.063 13.515-4.933 3.664-.639 10.107-.287 10.758 1.204.398 2.134-5.655 3.814-9.842 4.397Zm76.203 26.534c-1.551 3.446-5.311 5.333-7.276 4.167-8.84-6.337-11.689-33.463-12.045-47.795 0 0-26.835 2.823-27.35 5.143 0 0-.041 3 2.344 4.232 2.322-.621 4.532-1.336 4.578-.824 2.083 28.953-.092 38.137-5.619 45.66-7.554 10.288-30.166 12.938-36.413 5.542-2.107-.431 8.702 20.918 33.438 10.844 19.03-9.148 17.683-61.002 17.332-63.761 1.529-.24 1.52-.342 2.648-.444.324 49.673 14.861 48.058 22.021 47.208 2.788-.043 6.363-3.981 8.43-8.609l-2.088-1.363Zm29.228-39.513c2.171-6.911-4.073-9.657-10.124-9.114-5.333.479-11.208 1.833-17.213 10.949-8.284 12.523-3.767 31.75 1.503 37.477 18.111 18.626 37.106-16.248 32.385-28.534 7.051-3.216 5.312-6.47 5.312-6.47-8.487 2.209-13.701-2.903-13.701-2.903l-8.351 4.883c4.95 1.003 10.616 11.137 6.105 25.388-4.679 14.679-23.517 12.135-17.716-13.083 5.491-24.052 21.8-18.593 21.8-18.593Zm39.455-.443c-.494.252-12.002 34.454.513 39.117 16.365 6.074 19.594-21.288 19.594-21.288l-1.314-.813c-1.584 7.686-9.894 18.765-13.91 8.586-4.063-9.556.537-28.567 2.304-33.066 2.709-4.377-3.748-7.206-3.748-7.206-6.209 16.056-22.952 21.899-20.812 10.031 3.776-.546 5.012-4.066 5.012-4.066 3.444-11.159-11.299-16.449-12 1.077.018.205-.067.419-.048.624-2.789 1.181-5.698 2.165-5.698 2.165l.024 2.581c1.958-.073 4.178-.685 5.987-1.261 2.685 24.145 22.099 4.319 24.096 3.519Zm17.561-4.779c.344.383.438.271.782.653 4.041-3.359 7.679-5.443 8.36 2.143.635 7.073-1.623 40.651-1.623 40.651 4.903.49 9.358 1.743 9.358 1.743 2.08-9.073-1.598-21.246 12.187-25.48 6.8-2.573 6.86 25.733 14.222 28.275 11.725 2.771 17.558-10.565 17.558-10.565l-.717-1.073s-3.155 4.003-8.161 3.523c-12.656-3.927-3.333-27.91-17.523-27.049-3.666.639-6.575 1.623-8.683 2.329 1.015-7.117 5.949-16.653 9.629-22.874 9.781-16.584 11.545-2.69 11.564-2.484 8.026 8.785 18.548-12.206-2.254-10.131-15.273 1.475-20.829 24.809-25.048 37.691-.005-12.71 1.247-21.812-4.54-24.081-8.228-4.119-15.111 6.729-15.111 6.729Zm88.859-9.837c-19.6-29.446-52.024 33.189-20.612 46.798 10.865 4.709 17.94-17.833 17.94-17.833s-1.308 17.683 11.077 15.125c5.38-1.103 7.251-6.747 7.871-10.213l-.438-.271c-7.39 13.27-12.967-1.626-13.28-5.11-.331-3.691-.531-23.202-.531-23.202l-6.945-1.34s.457 23.518-4.344 31.079c-2.988 4.711-12.723 13.749-12.794-4.328.489-36.003 22.231-28.758 22.056-30.705Z"/><path fill="#FEFEFE" fill-rule="evenodd" d="M732.541 545.324c-4.307-9.45-21.635 4.413-18.966 11.11 2.669 6.696 23.105-2.028 18.966-11.11Z" clip-rule="evenodd"/><path fill="url(#a)" fill-rule="evenodd" d="M68.685 610.714c-30.047-19.847-81.439-1.216-54.16 25.163 27.28 26.379 71.872-13.465 54.16-25.163Z" clip-rule="evenodd"/><path fill="#FEFEFE" fill-rule="evenodd" d="M21.807 569.38c-7.57 11.387 19.98 21.116 25.61 13.475 5.629-7.641-18.337-24.418-25.61-13.475Z" clip-rule="evenodd"/><defs><linearGradient id="a" x1="42.788" x2="51.816" y1="613.906" y2="635.438" gradientUnits="userSpaceOnUse"><stop stop-color="#fff"/><stop offset="1" stop-color="#DAFDF8"/></linearGradient></defs></svg>