<svg width="25" height="24" viewBox="0 0 25 24" fill="none" xmlns="http://www.w3.org/2000/svg">
<g clip-path="url(#clip0_1301_11113)">
<rect x="1.81836" y="1" width="22" height="22" rx="11" stroke="white" stroke-width="2"/>
<path d="M12.8184 7.55556C12.671 7.55556 12.5297 7.49702 12.4255 7.39284C12.3213 7.28865 12.2628 7.14734 12.2628 7C12.2628 6.85266 12.3213 6.71135 12.4255 6.60716C12.5297 6.50298 12.671 6.44444 12.8184 6.44444C12.9657 6.44444 13.107 6.50298 13.2112 6.60716C13.3154 6.71135 13.3739 6.85266 13.3739 7C13.3739 7.14734 13.3154 7.28865 13.2112 7.39284C13.107 7.49702 12.9657 7.55556 12.8184 7.55556ZM12.2628 10.5C12.2628 10.3527 12.3213 10.2114 12.4255 10.1072L12.1113 9.79289L12.4255 10.1072C12.5297 10.003 12.671 9.94444 12.8184 9.94444C12.9657 9.94444 13.107 10.003 13.2112 10.1072C13.3154 10.2114 13.3739 10.3527 13.3739 10.5V17C13.3739 17.1473 13.3154 17.2886 13.2112 17.3928C13.107 17.497 12.9657 17.5556 12.8184 17.5556C12.671 17.5556 12.5297 17.497 12.4255 17.3928C12.3213 17.2886 12.2628 17.1473 12.2628 17V10.5Z" fill="white" stroke="white" stroke-width="0.888889"/>
</g>
<defs>
<clipPath id="clip0_1301_11113">
<rect width="24" height="24" fill="white" transform="translate(0.818359)"/>
</clipPath>
</defs>
</svg>
