<svg width="400" height="136" viewBox="0 0 400 136" fill="none" xmlns="http://www.w3.org/2000/svg">
<path d="M66.7784 8.17178C47.4804 11.098 31.956 14.0016 19.4274 28.9685C4.9278 46.2897 2.68507 62.7766 13.0413 86.4577C19.4265 101.058 48.1766 112.465 75.5524 109.28C116.763 104.486 146.7 99.3651 182.318 103.796C219.052 108.365 216.561 138.285 253.49 135.734C283.969 133.629 280.871 118.284 310.067 109.28C331.797 102.578 371.728 111.577 387.828 95.5169C401.467 81.9125 401.437 68.8467 395.844 50.4128C390.347 32.2939 383.54 25.2727 365.655 19.0565C342.417 10.9798 315.864 29.1086 291.36 31.2899C260.93 33.9987 215.522 35.6645 205.582 34.8999C195.642 34.1353 165.248 32.33 140.096 25.1731C126.067 21.1812 95.9594 3.74694 66.7784 8.17178Z" fill="#247062"/>
<path d="M60.7784 1.17178C41.4804 4.09801 25.956 7.0016 13.4274 21.9685C-1.0722 39.2897 -3.31493 55.7766 7.04135 79.4577C13.4265 94.0581 42.1766 105.465 69.5524 102.28C110.763 97.4855 140.426 96.7957 176.318 96.7957C224.769 96.7957 216.371 130.138 253.299 127.588C283.778 125.483 274.871 111.284 304.067 102.28C325.797 95.5782 365.728 104.577 381.828 88.5169C395.467 74.9125 395.437 61.8467 389.844 43.4128C384.347 25.2939 377.54 18.2727 359.655 12.0565C336.417 3.97985 309.864 22.1086 285.36 24.2899C254.93 26.9987 209.522 28.6645 199.582 27.8999C189.642 27.1353 159.248 25.33 134.096 18.1731C120.067 14.1812 89.9594 -3.25306 60.7784 1.17178Z" fill="white"/>
<path d="M69.4329 25.8083C69.4329 25.8083 70.2484 25.7455 70.2484 24.0519C70.2484 21.48 65.6065 21.3545 66.1083 24.2401C66.0456 23.4873 34.1795 24.491 25.2093 34.0884C17.2427 42.6195 24.0174 48.9551 27.1539 51.4643C31.8585 55.228 46.3488 56.0434 52.998 48.0142C52.998 48.0142 40.9541 53.4088 31.4821 45.6932C21.2574 37.3503 45.7215 24.2401 66.4847 25.9337C66.4847 25.9337 65.4183 42.745 64.5401 48.3906C62.5328 59.3681 62.2819 62.8809 55.7581 69.4674C48.1052 77.2457 30.5412 77.9357 32.9876 63.5709L31.984 63.8218C31.984 63.8218 27.2166 77.873 45.0315 79.3157C59.71 80.5076 66.0456 71.0983 68.492 59.3053C69.2447 67.3346 71.4402 75.7402 77.274 76.4302C82.6059 77.0575 86.8087 68.9655 89.6942 60.309C89.4433 70.9101 90.5724 90.0423 102.428 90.7951C113.155 91.4224 113.845 79.5039 113.845 79.5039L112.716 79.253C112.716 79.253 108.513 89.2896 101.926 82.7031C92.6425 73.4193 95.5907 56.2944 96.0298 48.0769C96.0298 48.0769 97.9744 25.4946 102.428 15.6462C102.365 15.2699 99.6681 14.6426 97.598 16.2108C93.5834 24.4282 89.8197 74.2347 77.274 71.161C65.5437 68.2755 70.1857 30.1365 69.4329 25.8083ZM125.746 49.0806C127.44 45.0032 123.802 42.9959 120.101 42.9959C116.839 42.9959 113.201 43.4977 109.061 48.7042C103.352 55.8553 105.046 67.7737 107.932 71.5374C117.905 83.8322 131.329 63.6963 129.134 55.9807C133.588 54.4125 132.709 52.3425 132.709 52.3425C127.44 53.2207 124.555 49.8333 124.555 49.8333L119.223 52.3425C122.171 53.2207 125.056 59.6817 121.544 68.0873C117.905 76.7439 106.614 74.172 111.507 59.1799C116.149 44.8778 125.746 49.0806 125.746 49.0806ZM162.766 72.2274C162.64 71.9138 162.577 71.9765 162.389 71.7256C159.566 73.2311 157.183 74.1093 157.622 69.4674C158.061 65.1391 163.205 45.756 163.205 45.756C160.633 44.8778 157.936 42.1804 157.936 42.1804C155.238 47.0105 148.213 69.9692 144.01 69.1537C142.128 69.1537 142.881 63.6963 143.445 58.4899C144.198 51.9034 146.268 42.8704 142.881 41.4277C136.921 38.6049 133.722 45.1287 132.907 45.756L133.785 46.5087C133.785 46.5087 135.667 43.7486 138.615 44.6268C139.556 45.3169 138.113 53.1579 137.361 60.1835C136.482 68.0246 134.099 76.7439 141.752 75.6775C146.895 76.0539 154.674 57.6744 154.674 57.6744C153.607 61.1245 151.224 69.9692 154.736 74.2975C159.19 77.6848 162.766 72.2274 162.766 72.2274ZM190.605 49.0178C190.793 49.2688 190.856 49.206 191.044 49.4569C193.679 47.6378 196 46.5714 196 51.2133C196 55.5416 192.8 75.8029 192.8 75.8029C195.749 76.3675 198.383 77.3712 198.383 77.3712C200.14 71.9765 198.571 64.3863 207.165 62.5672C211.431 61.3754 209.925 78.563 214.254 80.5076C221.216 82.8285 225.482 75.0502 225.482 75.0502L225.106 74.3602C225.106 74.3602 222.973 76.6184 219.962 76.0539C212.497 72.9802 219.46 58.929 210.803 58.678C208.545 58.8662 206.726 59.3053 205.409 59.619C206.412 55.3534 209.925 49.8333 212.497 46.2578C219.335 36.723 219.648 45.2541 219.648 45.3796C224.039 51.1506 231.567 38.9813 218.833 39.1067C209.486 39.1695 204.844 53.0325 201.582 60.6226C202.272 52.907 203.527 47.4496 200.14 45.756C195.372 42.8077 190.605 49.0178 190.605 49.0178ZM245.046 47.8887C234.758 28.9447 211.674 65.2018 229.991 75.1757C236.327 78.6257 241.847 65.3273 241.847 65.3273C241.847 65.3273 240.09 75.9911 247.743 75.1129C251.068 74.7366 252.511 71.4119 253.075 69.3419L252.824 69.1537C247.618 76.8066 245.046 67.46 245.046 65.3273C245.046 63.069 245.987 51.2133 245.987 51.2133L241.847 50.0215C241.847 50.0215 240.843 64.3236 237.519 68.6519C235.448 71.3492 229.05 76.3048 229.991 65.3273C232.249 43.4977 245.046 49.0806 245.046 47.8887ZM250.975 108.359C250.975 108.359 258.377 111.119 258.126 109.3C255.366 91.4851 259.945 70.7847 262.956 58.7408C265.214 49.8333 272.114 46.9478 274.184 50.4606C274.623 51.1506 275 52.907 275.125 55.228C271.55 57.4862 268.225 60.2463 266.657 62.5672C263.771 66.8955 261.89 75.2384 267.033 76.1793C270.734 76.8693 277.572 73.6702 280.081 61.8145C280.583 59.1171 280.896 56.608 280.896 54.4125C282.715 53.3461 284.033 52.7188 284.033 52.7188L284.158 50.9624C283.155 51.2133 281.963 51.6524 280.771 52.217C280.394 47.136 278.45 43.7486 275.564 42.4941C269.542 41.114 264.838 47.826 264.838 47.826L264.336 44.125L258.628 43.1214L250.975 108.359ZM267.786 66.2682C268.79 63.3827 271.863 60.4344 275.063 58.1135C274.874 62.1281 273.933 66.8955 271.738 70.0946C267.159 76.6811 266.218 70.8474 267.786 66.2682ZM306.421 42.9332C300.023 42.5568 293.248 61.1872 293.248 61.1872C294.314 57.7998 297.325 48.8924 293.875 44.5014C289.421 41.114 283.023 46.5087 283.023 46.5087C283.149 46.8223 283.211 47.1987 283.4 47.4496C286.222 45.9441 291.429 44.6896 290.927 49.3315C290.425 53.6598 286.222 74.7993 286.222 74.7993C288.731 75.6775 292.558 76.1793 292.558 76.1793C293.875 71.7883 300.775 49.2688 304.476 49.6451C306.358 49.7079 306.546 54.1616 305.919 59.3681C303.285 71.161 302.908 75.2384 302.908 75.2384C305.48 76.1166 308.805 76.1793 308.805 76.1793C309.683 70.0319 317.085 50.5861 320.723 51.0252C322.605 51.0252 321.727 54.9771 321.099 60.1835C320.284 66.77 316.583 75.8657 319.97 77.3084C325.867 80.1939 329.819 74.0465 331.136 73.2938L331.011 71.9138C331.011 71.9138 327.623 75.2384 324.675 74.3602C321.225 70.8474 335.652 42.1804 323.42 43.1841C318.277 42.8077 309.557 60.8108 309.557 60.8108C310.937 56.6707 311.753 43.6232 306.421 42.9332ZM321.35 39.2949C321.35 39.3576 323.734 31.7048 321.413 32.5202C314.011 35.1548 298.015 36.4094 298.58 35.9703C298.768 37.0994 298.58 38.2285 298.141 38.7931C308.616 42.1177 320.033 39.1695 321.35 39.2949ZM345.346 57.7998C344.97 59.2426 345.722 61.9399 350.615 61.4381C352.058 67.2091 348.294 75.9911 342.837 73.1683C340.767 71.2865 342.649 65.0136 343.213 60.1208C343.966 53.9107 345.973 45.3169 342.649 43.9996C336.878 41.3022 333.992 48.3278 332.988 48.0769L333.741 48.7669C333.741 48.7669 335.623 46.1323 338.509 47.0105C339.449 47.6378 338.007 55.0398 337.317 61.689C336.439 69.091 333.929 75.1757 341.896 76.3048C354.316 77.873 359.774 66.2055 356.261 59.9326C357.202 59.4308 358.331 58.8662 359.585 58.0508L361.154 57.1726C360.213 64.8882 359.648 73.1056 361.467 75.3011C364.98 79.1276 373.135 72.9174 373.135 72.9174C373.009 72.6038 372.947 72.2274 372.758 72.0392C370.061 73.4193 364.98 74.6738 365.419 70.2828C365.858 66.2055 370.437 45.0032 370.437 45.0032C367.928 44.1877 363.976 42.1177 363.976 42.1177C363.537 43.3723 362.471 48.3278 361.593 54.0361C359.899 55.4162 357.515 57.1098 355.32 58.4271C354.065 57.1098 352.309 56.3571 349.737 56.1689C347.918 56.0434 345.66 56.8589 345.346 57.7998Z" fill="#E63535"/>
<path d="M69.4329 25.8083L69.4196 25.6345L69.2284 25.6492L69.2612 25.8381L69.4329 25.8083ZM66.1083 24.2401L65.9366 24.2699L66.2819 24.2256L66.1083 24.2401ZM25.2093 34.0884L25.082 33.9695L25.0819 33.9695L25.2093 34.0884ZM27.1539 51.4643L27.045 51.6003L27.1539 51.4643ZM52.998 48.0142L53.1322 48.1253L52.9268 47.8552L52.998 48.0142ZM31.4821 45.6932L31.372 45.8282L31.3721 45.8283L31.4821 45.6932ZM66.4847 25.9337L66.6586 25.9448L66.6694 25.774L66.4988 25.7601L66.4847 25.9337ZM64.5401 48.3906L64.7116 48.4219L64.7123 48.4173L64.5401 48.3906ZM55.7581 69.4674L55.6343 69.3447L55.6339 69.3452L55.7581 69.4674ZM32.9876 63.5709L33.1594 63.6001L33.2042 63.3371L32.9454 63.4018L32.9876 63.5709ZM31.984 63.8218L31.9417 63.6527L31.8495 63.6758L31.819 63.7658L31.984 63.8218ZM45.0315 79.3157L45.0456 79.1421H45.0456L45.0315 79.3157ZM68.492 59.3053L68.6655 59.2891L68.3214 59.2699L68.492 59.3053ZM77.274 76.4302L77.2535 76.6033L77.2536 76.6033L77.274 76.4302ZM89.6942 60.309L89.8684 60.3131L89.5289 60.2539L89.6942 60.309ZM102.428 90.7951L102.417 90.969L102.418 90.969L102.428 90.7951ZM113.845 79.5039L114.019 79.514L114.027 79.366L113.883 79.3338L113.845 79.5039ZM112.716 79.253L112.753 79.0829L112.611 79.0513L112.555 79.1857L112.716 79.253ZM101.926 82.7031L101.803 82.8263L101.926 82.7031ZM96.0298 48.0769L95.8561 48.062L95.8558 48.0676L96.0298 48.0769ZM102.428 15.6462L102.587 15.718L102.609 15.6698L102.6 15.6176L102.428 15.6462ZM97.598 16.2108L97.4928 16.0719L97.4597 16.097L97.4415 16.1343L97.598 16.2108ZM77.274 71.161L77.2324 71.3302L77.2325 71.3303L77.274 71.161ZM69.4329 25.8083C69.4463 25.982 69.4465 25.982 69.4466 25.982C69.4467 25.982 69.4469 25.982 69.447 25.982C69.4473 25.9819 69.4476 25.9819 69.4478 25.9819C69.4484 25.9818 69.449 25.9818 69.4497 25.9817C69.4511 25.9816 69.4526 25.9814 69.4544 25.9812C69.4579 25.9808 69.4622 25.9803 69.4673 25.9796C69.4774 25.9781 69.4905 25.9758 69.5062 25.9723C69.5377 25.9652 69.5795 25.9531 69.6282 25.9325C69.7262 25.891 69.8499 25.8159 69.9704 25.6815C70.2124 25.4116 70.4226 24.925 70.4226 24.0519H70.0741C70.0741 24.8724 69.8767 25.264 69.7109 25.4489C69.6275 25.5419 69.5474 25.5883 69.4924 25.6115C69.4647 25.6233 69.4428 25.6293 69.4297 25.6323C69.4231 25.6338 69.4187 25.6345 69.4169 25.6347C69.416 25.6349 69.4157 25.6349 69.4161 25.6349C69.4163 25.6348 69.4167 25.6348 69.4173 25.6347C69.4176 25.6347 69.4179 25.6347 69.4183 25.6346C69.4185 25.6346 69.4187 25.6346 69.4189 25.6346C69.419 25.6346 69.4192 25.6346 69.4192 25.6346C69.4194 25.6346 69.4196 25.6345 69.4329 25.8083ZM70.4226 24.0519C70.4226 23.35 70.1034 22.8106 69.6371 22.4523C69.175 22.0973 68.5712 21.921 67.9889 21.9252C67.4073 21.9294 66.8267 22.114 66.4221 22.5066C66.0111 22.9055 65.8026 23.4991 65.9366 24.2699L66.28 24.2102C66.1631 23.5383 66.3466 23.0655 66.6648 22.7567C66.9895 22.4417 67.4753 22.2774 67.9914 22.2737C68.5068 22.27 69.0322 22.4271 69.4248 22.7287C69.8131 23.0271 70.0741 23.4678 70.0741 24.0519H70.4226ZM66.2819 24.2256C66.2743 24.1336 66.2101 24.0819 66.179 24.0612C66.143 24.0371 66.1015 24.0208 66.0638 24.0088C65.9866 23.9842 65.8827 23.9647 65.7601 23.9484C65.5122 23.9156 65.1553 23.8923 64.7059 23.8793C63.8053 23.8533 62.5158 23.8684 60.9451 23.9376C57.8032 24.076 53.5277 24.4314 48.9734 25.1106C44.4197 25.7897 39.5826 26.7933 35.3196 28.2297C31.0612 29.6646 27.3544 31.5382 25.082 33.9695L25.3366 34.2074C27.5493 31.84 31.1896 29.9891 35.4309 28.56C39.6676 27.1324 44.4828 26.1326 49.0248 25.4553C53.5661 24.778 57.8295 24.4237 60.9605 24.2857C62.5262 24.2168 63.8066 24.202 64.6958 24.2276C65.1412 24.2405 65.4841 24.2634 65.7143 24.2939C65.8307 24.3093 65.9104 24.3257 65.958 24.3409C65.9828 24.3488 65.9889 24.3533 65.9856 24.351C65.9834 24.3496 65.9736 24.3428 65.9628 24.3288C65.9513 24.3138 65.9375 24.2886 65.9347 24.2545L66.2819 24.2256ZM25.0819 33.9695C23.0746 36.1191 21.9863 38.1407 21.5417 40.0093C21.0967 41.8792 21.299 43.5844 21.8544 45.0947C22.962 48.1067 25.4737 50.3433 27.045 51.6003L27.2627 51.3282C25.6976 50.0761 23.2537 47.8903 22.1815 44.9744C21.647 43.5208 21.4534 41.8857 21.8807 40.09C22.3083 38.2929 23.3607 36.3234 25.3366 34.2074L25.0819 33.9695ZM27.045 51.6003C28.2494 52.5638 30.0652 53.3286 32.2033 53.8121C34.3443 54.2962 36.8212 54.5012 39.3581 54.3355C44.4273 54.0043 49.7661 52.1901 53.1322 48.1253L52.8638 47.9031C49.5808 51.8675 44.3498 53.6602 39.3354 53.9877C36.8304 54.1513 34.3871 53.9486 32.2802 53.4722C30.1704 52.9951 28.4107 52.2466 27.2627 51.3282L27.045 51.6003ZM52.998 48.0142C52.9268 47.8552 52.9268 47.8552 52.9268 47.8552C52.9267 47.8552 52.9267 47.8552 52.9265 47.8553C52.9262 47.8554 52.9258 47.8556 52.9251 47.8559C52.9238 47.8565 52.9218 47.8574 52.9191 47.8586C52.9136 47.861 52.9053 47.8646 52.8941 47.8695C52.8717 47.8791 52.8381 47.8935 52.7936 47.912C52.7046 47.949 52.5722 48.0025 52.4 48.0681C52.0556 48.1992 51.5521 48.3784 50.9179 48.5697C49.6491 48.9524 47.8594 49.3827 45.7762 49.5735C41.6091 49.9552 36.2812 49.3777 31.5922 45.5581L31.3721 45.8283C36.1551 49.7244 41.5851 50.3074 45.808 49.9206C47.9197 49.7272 49.733 49.2911 51.0185 48.9034C51.6614 48.7095 52.1728 48.5275 52.524 48.3938C52.6997 48.3269 52.8353 48.2721 52.9273 48.2338C52.9734 48.2147 53.0085 48.1997 53.0323 48.1894C53.0442 48.1842 53.0533 48.1803 53.0595 48.1776C53.0625 48.1762 53.0649 48.1751 53.0665 48.1744C53.0674 48.1741 53.068 48.1738 53.0685 48.1736C53.0687 48.1735 53.0689 48.1734 53.069 48.1733C53.0692 48.1733 53.0693 48.1732 52.998 48.0142ZM31.5923 45.5582C30.3359 44.5331 29.6268 43.4468 29.3686 42.3398C29.1106 41.2336 29.2979 40.0852 29.8739 38.9255C31.0304 36.5973 33.7411 34.2508 37.4472 32.2023C44.852 28.1094 56.1247 25.2635 66.4705 26.1074L66.4988 25.7601C56.0815 24.9103 44.7406 27.7727 37.2786 31.8973C33.5514 33.9575 30.7656 36.347 29.5618 38.7705C28.9578 39.9866 28.7491 41.218 29.0292 42.419C29.3091 43.6192 30.0722 44.7677 31.372 45.8282L31.5923 45.5582ZM66.4847 25.9337C66.3108 25.9227 66.3108 25.9228 66.3108 25.9229C66.3108 25.923 66.3107 25.9232 66.3107 25.9235C66.3107 25.924 66.3106 25.9247 66.3106 25.9257C66.3105 25.9278 66.3103 25.9308 66.31 25.9349C66.3095 25.943 66.3087 25.955 66.3077 25.971C66.3057 26.003 66.3026 26.0505 66.2986 26.1127C66.2906 26.2372 66.2787 26.4204 66.2633 26.6557C66.2324 27.1263 66.1873 27.8049 66.1305 28.6368C66.0168 30.3008 65.8561 32.5781 65.668 35.0317C65.2915 39.9421 64.8058 45.549 64.3679 48.3638L64.7123 48.4173C65.1526 45.5865 65.6392 39.9651 66.0154 35.0584C66.2037 32.6035 66.3645 30.3252 66.4782 28.6606C66.535 27.8283 66.5801 27.1494 66.611 26.6785C66.6264 26.4431 66.6383 26.2597 66.6464 26.1351C66.6504 26.0728 66.6534 26.0253 66.6555 25.9932C66.6565 25.9772 66.6573 25.9651 66.6578 25.957C66.6581 25.953 66.6582 25.9499 66.6584 25.9479C66.6584 25.9468 66.6585 25.9461 66.6585 25.9455C66.6585 25.9453 66.6586 25.9451 66.6586 25.945C66.6586 25.9448 66.6586 25.9448 66.4847 25.9337ZM64.3687 48.3592C63.3632 53.8579 62.8017 57.4599 61.6792 60.5155C60.5611 63.5592 58.8843 66.0635 55.6343 69.3447L55.8819 69.59C59.1557 66.2847 60.8662 63.7394 62.0063 60.6357C63.1421 57.5439 63.7097 53.9007 64.7115 48.4219L64.3687 48.3592ZM55.6339 69.3452C51.8453 73.1959 45.5951 75.2938 40.6079 74.65C38.1182 74.3286 35.961 73.3267 34.5749 71.5394C33.1904 69.7542 32.5536 67.1573 33.1594 63.6001L32.8158 63.5416C32.1984 67.1669 32.8397 69.8706 34.2995 71.753C35.7578 73.6333 38.0112 74.6662 40.5633 74.9956C45.6598 75.6535 52.018 73.5172 55.8823 69.5896L55.6339 69.3452ZM32.9454 63.4018L31.9417 63.6527L32.0262 63.9908L33.0299 63.7399L32.9454 63.4018ZM31.984 63.8218C31.819 63.7658 31.8189 63.7659 31.8188 63.7662C31.8188 63.7663 31.8187 63.7665 31.8186 63.7668C31.8184 63.7674 31.8182 63.7681 31.8178 63.7691C31.8172 63.7711 31.8163 63.7739 31.8151 63.7775C31.8127 63.7848 31.8092 63.7954 31.8048 63.8093C31.796 63.837 31.7833 63.8777 31.7677 63.9305C31.7364 64.0361 31.6932 64.1903 31.6447 64.3866C31.5478 64.7791 31.4298 65.3403 31.3445 66.0181C31.1742 67.3722 31.1336 69.1987 31.6594 71.0748C32.186 72.9538 33.2803 74.8802 35.3736 76.4263C37.465 77.9709 40.5412 79.1269 45.0174 79.4894L45.0456 79.1421C40.6144 78.7832 37.6059 77.6418 35.5807 76.146C33.5574 74.6517 32.5033 72.7948 31.9949 70.9807C31.4857 69.1636 31.5235 67.3871 31.6903 66.0616C31.7736 65.3995 31.8889 64.8517 31.9831 64.4701C32.0302 64.2794 32.072 64.1303 32.1019 64.0294C32.1168 63.9789 32.1287 63.9405 32.1369 63.915C32.1409 63.9022 32.144 63.8927 32.1461 63.8864C32.1471 63.8833 32.1479 63.881 32.1484 63.8796C32.1486 63.8788 32.1488 63.8783 32.1489 63.878C32.1489 63.8779 32.149 63.8778 32.149 63.8777C32.149 63.8777 32.149 63.8778 31.984 63.8218ZM45.0174 79.4894C52.4001 80.0889 57.7058 78.0217 61.4712 74.3038C65.2301 70.5924 67.4359 65.2539 68.6626 59.3407L68.3214 59.2699C67.1016 65.1498 64.9164 70.4124 61.2263 74.0559C57.5428 77.6929 52.3414 79.7345 45.0456 79.1421L45.0174 79.4894ZM68.3185 59.3216C68.6955 63.3427 69.4347 67.4726 70.8175 70.6888C72.1989 73.9015 74.244 76.2473 77.2535 76.6033L77.2945 76.2572C74.4702 75.9231 72.5007 73.7211 71.1377 70.5512C69.7762 67.3847 69.0412 63.2973 68.6655 59.2891L68.3185 59.3216ZM77.2536 76.6033C80.0229 76.9291 82.4602 74.9866 84.5452 71.9497C86.6368 68.903 88.415 64.6978 89.8596 60.3641L89.5289 60.2539C88.088 64.5767 86.322 68.7458 84.2579 71.7524C82.187 74.7688 79.857 76.5587 77.2943 76.2572L77.2536 76.6033ZM89.5201 60.3049C89.3945 65.6099 89.6134 73.0642 91.3534 79.2921C93.0906 85.5098 96.3705 90.5851 102.417 90.969L102.439 90.6212C96.63 90.2523 93.4176 85.3851 91.689 79.1983C89.9633 73.0215 89.7431 65.6092 89.8684 60.3131L89.5201 60.3049ZM102.418 90.969C105.134 91.1279 107.226 90.4924 108.833 89.4413C110.437 88.3916 111.547 86.9345 112.313 85.4653C113.08 83.9963 113.505 82.5098 113.74 81.3922C113.857 80.8329 113.927 80.3649 113.967 80.036C113.987 79.8716 114 79.7419 114.008 79.6529C114.012 79.6084 114.015 79.5741 114.016 79.5507C114.017 79.539 114.018 79.53 114.018 79.5239C114.018 79.5208 114.018 79.5184 114.019 79.5168C114.019 79.516 114.019 79.5153 114.019 79.5148C114.019 79.5146 114.019 79.5144 114.019 79.5143C114.019 79.5141 114.019 79.514 113.845 79.5039C113.671 79.4939 113.671 79.4938 113.671 79.4938C113.671 79.4939 113.671 79.494 113.671 79.4941C113.671 79.4944 113.671 79.4948 113.671 79.4954C113.671 79.4967 113.67 79.4986 113.67 79.5013C113.67 79.5066 113.669 79.5147 113.669 79.5255C113.667 79.5472 113.665 79.5797 113.661 79.6223C113.653 79.7076 113.641 79.8334 113.621 79.9936C113.582 80.3141 113.514 80.7723 113.399 81.3206C113.169 82.4181 112.751 83.8719 112.004 85.3041C111.257 86.7361 110.184 88.1411 108.642 89.1497C107.102 90.1568 105.086 90.7759 102.438 90.6211L102.418 90.969ZM113.883 79.3338L112.753 79.0829L112.678 79.4231L113.807 79.674L113.883 79.3338ZM112.716 79.253C112.555 79.1857 112.555 79.1857 112.555 79.1857C112.555 79.1858 112.555 79.1858 112.555 79.1859C112.555 79.1861 112.555 79.1865 112.554 79.187C112.554 79.1881 112.553 79.1897 112.552 79.1919C112.55 79.1964 112.547 79.2032 112.544 79.2122C112.536 79.2303 112.524 79.2574 112.508 79.2926C112.476 79.3629 112.429 79.4659 112.366 79.5949C112.24 79.8531 112.052 80.2152 111.806 80.6294C111.314 81.4596 110.593 82.4919 109.674 83.3184C108.755 84.1451 107.652 84.7544 106.389 84.7685C105.129 84.7825 103.674 84.2045 102.05 82.5799L101.803 82.8263C103.472 84.4949 105.012 85.1323 106.393 85.1169C107.77 85.1016 108.952 84.4367 109.907 83.5775C110.863 82.7182 111.604 81.653 112.106 80.8072C112.357 80.3835 112.549 80.0129 112.679 79.7479C112.743 79.6153 112.793 79.5091 112.826 79.4357C112.842 79.399 112.855 79.3705 112.863 79.351C112.867 79.3412 112.871 79.3337 112.873 79.3286C112.874 79.326 112.875 79.324 112.875 79.3226C112.876 79.322 112.876 79.3214 112.876 79.321C112.876 79.3208 112.876 79.3207 112.876 79.3206C112.876 79.3204 112.876 79.3203 112.716 79.253ZM102.05 82.5799C97.4527 77.983 95.8736 71.4334 95.5059 64.9802C95.1381 58.5238 95.9833 52.2141 96.2038 48.0862L95.8558 48.0676C95.6373 52.1572 94.7888 58.5187 95.158 65C95.5274 71.4846 97.1161 78.1393 101.803 82.8263L102.05 82.5799ZM96.0298 48.0769C96.2034 48.0919 96.2034 48.0918 96.2035 48.0916C96.2035 48.0915 96.2035 48.0912 96.2035 48.0909C96.2036 48.0902 96.2037 48.0892 96.2038 48.0879C96.204 48.0852 96.2044 48.0811 96.2048 48.0757C96.2058 48.0649 96.2072 48.0487 96.2091 48.0272C96.2129 47.9843 96.2186 47.9205 96.2263 47.8368C96.2416 47.6693 96.2646 47.4222 96.2955 47.1042C96.3573 46.4682 96.4506 45.5484 96.5764 44.4138C96.8282 42.1444 97.2101 39.0163 97.7311 35.5809C98.7742 28.7028 100.371 20.6176 102.587 15.718L102.269 15.5745C100.031 20.5233 98.4292 28.6534 97.3866 35.5286C96.8647 38.9698 96.4821 42.1027 96.2301 44.3753C96.104 45.5117 96.0106 46.4331 95.9487 47.0705C95.9177 47.3892 95.8946 47.6369 95.8792 47.805C95.8716 47.8891 95.8658 47.9533 95.862 47.9964C95.8601 48.018 95.8586 48.0344 95.8577 48.0453C95.8572 48.0508 95.8568 48.055 95.8566 48.0577C95.8565 48.0591 95.8564 48.0602 95.8563 48.0609C95.8563 48.0612 95.8563 48.0615 95.8562 48.0617C95.8562 48.0619 95.8562 48.062 96.0298 48.0769ZM102.6 15.6176C102.588 15.5469 102.549 15.4919 102.512 15.4532C102.474 15.4132 102.427 15.3786 102.377 15.3486C102.276 15.2884 102.143 15.2341 101.988 15.1881C101.676 15.0956 101.252 15.0291 100.767 15.0251C99.7987 15.017 98.5661 15.2588 97.4928 16.0719L97.7033 16.3497C98.7 15.5946 99.8511 15.3659 100.764 15.3735C101.221 15.3774 101.612 15.4402 101.889 15.5222C102.027 15.5634 102.131 15.6076 102.198 15.6477C102.232 15.6677 102.251 15.6837 102.26 15.6935C102.271 15.7045 102.26 15.6985 102.256 15.6749L102.6 15.6176ZM97.4415 16.1343C96.9303 17.1806 96.4288 18.8746 95.9172 21.0168C95.4046 23.1632 94.8786 25.7741 94.3219 28.6628C93.2079 34.4427 91.9699 41.3378 90.4654 47.881C88.9603 54.4267 87.1918 60.6038 85.0219 64.9495C83.9366 67.1231 82.7579 68.8238 81.4736 69.8851C80.1955 70.9414 78.8196 71.3603 77.3154 70.9918L77.2325 71.3303C78.8648 71.7302 80.3509 71.265 81.6956 70.1537C83.0342 69.0475 84.2392 67.2971 85.3337 65.1052C87.5234 60.7199 89.2991 54.5081 90.805 47.9591C92.3114 41.4079 93.5512 34.5026 94.6641 28.7287C95.2207 25.8405 95.7455 23.2361 96.2561 21.0978C96.7678 18.9554 97.2621 17.2954 97.7546 16.2873L97.4415 16.1343ZM77.3156 70.9918C74.4797 70.2942 72.5959 67.4545 71.3727 63.4155C70.1531 59.3882 69.6108 54.2328 69.411 49.019C69.2113 43.8076 69.3542 38.5496 69.5002 34.3209C69.5732 32.2078 69.647 30.3494 69.679 28.8852C69.7109 27.4278 69.7022 26.3397 69.6046 25.7784L69.2612 25.8381C69.3518 26.3589 69.3627 27.4095 69.3306 28.8776C69.2987 30.3388 69.225 32.1927 69.1519 34.3088C69.0059 38.5386 68.8626 43.8073 69.0628 49.0324C69.2629 54.255 69.8065 59.4459 71.0392 63.5165C72.2684 67.5753 74.2031 70.5851 77.2324 71.3302L77.3156 70.9918ZM125.746 49.0806L125.677 49.2402L125.839 49.3114L125.907 49.1474L125.746 49.0806ZM109.061 48.7042L109.197 48.8129L109.197 48.8127L109.061 48.7042ZM107.932 71.5374L107.793 71.6435L107.796 71.6472L107.932 71.5374ZM129.134 55.9807L129.076 55.8164L128.921 55.8708L128.966 56.0284L129.134 55.9807ZM132.709 52.3425L132.87 52.2744L132.816 52.148L132.681 52.1706L132.709 52.3425ZM124.555 49.8333L124.687 49.7203L124.601 49.619L124.48 49.6757L124.555 49.8333ZM119.223 52.3425L119.149 52.1848L118.736 52.3792L119.173 52.5095L119.223 52.3425ZM121.544 68.0873L121.704 68.1548L121.704 68.1545L121.544 68.0873ZM111.507 59.1799L111.673 59.2339L111.673 59.2337L111.507 59.1799ZM125.907 49.1474C126.341 48.1029 126.439 47.1767 126.27 46.3737C126.1 45.57 125.666 44.9048 125.061 44.3779C123.858 43.329 121.976 42.8217 120.101 42.8217V43.1702C121.927 43.1702 123.715 43.6665 124.832 44.6406C125.388 45.1252 125.777 45.7263 125.929 46.4457C126.081 47.1658 125.999 48.0196 125.586 49.0137L125.907 49.1474ZM120.101 42.8217C118.461 42.8217 116.709 42.9476 114.842 43.7372C112.975 44.527 111.009 45.9746 108.924 48.5958L109.197 48.8127C111.253 46.2273 113.175 44.8208 114.978 44.0581C116.781 43.2952 118.479 43.1702 120.101 43.1702V42.8217ZM108.925 48.5955C106.037 52.2134 105.028 57.0257 105.099 61.3939C105.17 65.7559 106.318 69.7196 107.793 71.6434L108.07 71.4314C106.659 69.5915 105.518 65.7141 105.448 61.3882C105.378 57.0685 106.377 52.3461 109.197 48.8129L108.925 48.5955ZM107.796 71.6472C110.32 74.7576 113.083 75.8385 115.779 75.5518C118.462 75.2665 121.042 73.6304 123.221 71.3843C125.402 69.136 127.198 66.2602 128.312 63.4598C129.422 60.6661 129.866 57.9169 129.301 55.933L128.966 56.0284C129.499 57.9023 129.088 60.5635 127.988 63.3311C126.89 66.092 125.118 68.9284 122.971 71.1416C120.822 73.3571 118.313 74.9319 115.742 75.2053C113.185 75.4772 110.531 74.4646 108.067 71.4276L107.796 71.6472ZM129.192 56.1451C131.441 55.3531 132.384 54.4205 132.749 53.648C132.932 53.262 132.965 52.9247 132.951 52.6803C132.944 52.5585 132.925 52.4604 132.907 52.3912C132.898 52.3565 132.89 52.3291 132.883 52.3094C132.88 52.2996 132.877 52.2917 132.874 52.2859C132.873 52.2829 132.872 52.2805 132.872 52.2786C132.871 52.2776 132.871 52.2768 132.87 52.2761C132.87 52.2758 132.87 52.2754 132.87 52.2752C132.87 52.275 132.87 52.2748 132.87 52.2748C132.87 52.2746 132.87 52.2744 132.709 52.3425C132.549 52.4105 132.549 52.4104 132.549 52.4102C132.549 52.4102 132.549 52.41 132.549 52.4099C132.549 52.4098 132.549 52.4097 132.549 52.4096C132.548 52.4094 132.548 52.4093 132.548 52.4093C132.549 52.4094 132.549 52.41 132.549 52.411C132.55 52.4131 132.551 52.417 132.553 52.4227C132.557 52.4342 132.563 52.4527 132.57 52.4778C132.582 52.5279 132.597 52.6038 132.603 52.7005C132.614 52.8933 132.589 53.1715 132.434 53.4991C132.125 54.1536 131.281 55.0401 129.076 55.8164L129.192 56.1451ZM132.681 52.1706C130.09 52.6023 128.09 51.9857 126.738 51.2635C126.061 50.902 125.546 50.5138 125.202 50.2168C125.029 50.0684 124.899 49.9429 124.813 49.8551C124.77 49.8113 124.738 49.7768 124.717 49.7538C124.707 49.7422 124.699 49.7335 124.694 49.7278C124.691 49.725 124.69 49.723 124.688 49.7217C124.688 49.7211 124.688 49.7206 124.687 49.7204C124.687 49.7203 124.687 49.7202 124.687 49.7202C124.687 49.7202 124.687 49.7202 124.687 49.7202C124.687 49.7203 124.687 49.7203 124.555 49.8333C124.422 49.9463 124.422 49.9464 124.422 49.9465C124.422 49.9465 124.422 49.9466 124.422 49.9467C124.423 49.9469 124.423 49.9472 124.423 49.9475C124.424 49.9481 124.424 49.9488 124.425 49.9498C124.427 49.9518 124.429 49.9546 124.432 49.9582C124.439 49.9653 124.448 49.9755 124.46 49.9885C124.483 50.0146 124.518 50.0521 124.565 50.0992C124.657 50.1933 124.794 50.3255 124.974 50.4809C125.335 50.7916 125.871 51.1953 126.574 51.5709C127.982 52.3228 130.059 52.9608 132.738 52.5143L132.681 52.1706ZM124.48 49.6757L119.149 52.1848L119.297 52.5001L124.629 49.991L124.48 49.6757ZM119.173 52.5095C120.559 52.9223 121.992 54.6813 122.636 57.4319C123.278 60.1684 123.127 63.8476 121.383 68.0201L121.704 68.1545C123.474 63.9214 123.636 60.1673 122.976 57.3523C122.319 54.5515 120.835 52.6409 119.272 52.1755L119.173 52.5095ZM121.383 68.0198C119.587 72.294 115.949 73.7159 113.409 72.3484C110.862 70.9775 109.233 66.7104 111.673 59.2339L111.341 59.1258C108.889 66.6414 110.459 71.1564 113.244 72.6553C116.035 74.1577 119.862 72.5372 121.704 68.1548L121.383 68.0198ZM111.673 59.2337C113.98 52.125 117.502 49.6553 120.409 48.9361C121.87 48.5748 123.189 48.6515 124.144 48.819C124.622 48.9027 125.007 49.0089 125.272 49.0939C125.404 49.1363 125.507 49.1734 125.575 49.1996C125.61 49.2127 125.636 49.2231 125.653 49.2301C125.661 49.2336 125.667 49.2363 125.671 49.238C125.673 49.2388 125.675 49.2394 125.676 49.2398C125.676 49.24 125.676 49.2401 125.677 49.2402C125.677 49.2402 125.677 49.2402 125.677 49.2402C125.677 49.2402 125.677 49.2402 125.746 49.0806C125.816 48.921 125.816 48.9209 125.816 48.9208C125.816 48.9208 125.816 48.9207 125.816 48.9206C125.815 48.9204 125.814 48.9201 125.814 48.9198C125.812 48.9192 125.81 48.9183 125.808 48.9172C125.802 48.915 125.795 48.9118 125.785 48.9078C125.765 48.8997 125.737 48.8883 125.7 48.8741C125.626 48.8457 125.517 48.8065 125.378 48.762C125.1 48.6729 124.7 48.5626 124.204 48.4757C123.215 48.3021 121.845 48.222 120.326 48.5978C117.274 49.3527 113.676 51.9326 111.341 59.1261L111.673 59.2337ZM162.766 72.2274L162.911 72.3229L162.961 72.247L162.927 72.1627L162.766 72.2274ZM162.389 71.7256L162.529 71.621L162.439 71.5016L162.307 71.5718L162.389 71.7256ZM157.622 69.4674L157.449 69.4498L157.448 69.4509L157.622 69.4674ZM163.205 45.756L163.373 45.8007L163.415 45.6436L163.261 45.5911L163.205 45.756ZM157.936 42.1804L158.059 42.0572L157.896 41.8943L157.783 42.0955L157.936 42.1804ZM144.01 69.1537L144.043 68.9827L144.027 68.9795H144.01V69.1537ZM143.445 58.4899L143.272 58.4701L143.272 58.4711L143.445 58.4899ZM142.881 41.4277L142.806 41.5853L142.812 41.588L142.881 41.4277ZM132.907 45.756L132.801 45.6178L132.631 45.7486L132.793 45.8883L132.907 45.756ZM133.785 46.5087L133.672 46.641L133.819 46.7676L133.929 46.6069L133.785 46.5087ZM138.615 44.6268L138.718 44.4863L138.694 44.4685L138.665 44.4599L138.615 44.6268ZM137.361 60.1835L137.534 60.2029L137.534 60.2021L137.361 60.1835ZM141.752 75.6775L141.764 75.5037L141.746 75.5024L141.728 75.5049L141.752 75.6775ZM154.674 57.6744L154.84 57.7258L154.513 57.6065L154.674 57.6744ZM154.736 74.2975L154.601 74.4073L154.614 74.4235L154.631 74.4361L154.736 74.2975ZM162.927 72.1627C162.858 71.9891 162.799 71.9049 162.724 71.8298C162.658 71.7632 162.613 71.7333 162.529 71.621L162.25 71.8301C162.354 71.9688 162.435 72.033 162.478 72.0762C162.512 72.1109 162.548 72.152 162.604 72.2921L162.927 72.1627ZM162.307 71.5718C161.603 71.9476 160.934 72.2797 160.333 72.4967C159.727 72.7152 159.215 72.8078 158.815 72.7307C158.434 72.6571 158.135 72.4253 157.948 71.9288C157.756 71.4191 157.686 70.6352 157.795 69.4838L157.448 69.4509C157.338 70.6205 157.402 71.4675 157.622 72.0516C157.846 72.649 158.237 72.9739 158.749 73.0728C159.244 73.1682 159.829 73.049 160.451 72.8245C161.077 72.5985 161.764 72.2563 162.471 71.8793L162.307 71.5718ZM157.795 69.4849C158.013 67.3365 159.405 61.4239 160.747 56.0306C161.417 53.338 162.074 50.7804 162.563 48.896C162.807 47.9538 163.01 47.1799 163.151 46.6416C163.222 46.3724 163.278 46.1622 163.315 46.0192C163.334 45.9477 163.349 45.8931 163.358 45.8563C163.363 45.8379 163.367 45.824 163.369 45.8147C163.371 45.81 163.372 45.8065 163.372 45.8042C163.373 45.803 163.373 45.8021 163.373 45.8015C163.373 45.8012 163.373 45.801 163.373 45.8009C163.373 45.8007 163.373 45.8007 163.205 45.756C163.036 45.7113 163.036 45.7113 163.036 45.7115C163.036 45.7116 163.036 45.7119 163.036 45.7122C163.036 45.7128 163.036 45.7136 163.035 45.7148C163.035 45.7172 163.034 45.7207 163.033 45.7254C163.03 45.7347 163.026 45.7487 163.022 45.7671C163.012 45.8039 162.997 45.8587 162.978 45.9302C162.941 46.0733 162.885 46.2837 162.814 46.553C162.673 47.0916 162.47 47.8658 162.226 48.8084C161.736 50.6936 161.079 53.2523 160.409 55.9465C159.07 61.3268 157.67 67.27 157.449 69.4498L157.795 69.4849ZM163.261 45.5911C162.003 45.1616 160.705 44.2825 159.714 43.502C159.22 43.113 158.805 42.7512 158.514 42.4867C158.369 42.3545 158.255 42.2468 158.177 42.1722C158.138 42.135 158.108 42.106 158.088 42.0865C158.078 42.0767 158.071 42.0693 158.066 42.0644C158.063 42.0619 158.062 42.0601 158.06 42.0589C158.06 42.0583 158.059 42.0578 158.059 42.0576C158.059 42.0574 158.059 42.0573 158.059 42.0573C158.059 42.0572 158.059 42.0572 158.059 42.0572C158.059 42.0572 158.059 42.0572 157.936 42.1804C157.812 42.3036 157.812 42.3037 157.812 42.3037C157.812 42.3037 157.812 42.3038 157.813 42.3038C157.813 42.3039 157.813 42.3041 157.813 42.3043C157.813 42.3047 157.814 42.3052 157.815 42.3059C157.816 42.3073 157.818 42.3094 157.821 42.312C157.826 42.3174 157.834 42.3252 157.845 42.3354C157.865 42.3558 157.896 42.3857 157.936 42.4239C158.016 42.5003 158.132 42.6101 158.28 42.7445C158.575 43.0132 158.996 43.3806 159.498 43.7758C160.498 44.5634 161.834 45.4721 163.148 45.9209L163.261 45.5911ZM157.783 42.0955C157.102 43.3159 156.152 45.6697 155.05 48.4839C153.946 51.3045 152.685 54.5985 151.377 57.7167C150.068 60.8363 148.715 63.7703 147.431 65.8715C146.788 66.9231 146.168 67.7563 145.585 68.2995C144.997 68.8478 144.484 69.0682 144.043 68.9827L143.977 69.3248C144.587 69.4431 145.212 69.1244 145.823 68.5544C146.44 67.9793 147.079 67.1149 147.728 66.0533C149.027 63.9282 150.388 60.9735 151.698 57.8516C153.008 54.7283 154.272 51.428 155.375 48.6109C156.48 45.7873 157.421 43.4601 158.088 42.2654L157.783 42.0955ZM144.01 68.9795C143.822 68.9795 143.672 68.9136 143.546 68.7862C143.414 68.6541 143.303 68.4498 143.215 68.1677C143.038 67.6022 142.973 66.7803 142.984 65.7762C143.008 63.772 143.336 61.1181 143.618 58.5086L143.272 58.4711C142.99 61.0681 142.66 63.7461 142.636 65.7722C142.624 66.7833 142.688 67.6511 142.882 68.2716C142.979 68.5825 143.113 68.8452 143.299 69.0319C143.489 69.2233 143.727 69.328 144.01 69.328V68.9795ZM143.618 58.5096C143.993 55.2356 144.701 51.3061 144.889 48.0399C144.984 46.4039 144.95 44.9137 144.673 43.7363C144.397 42.5605 143.87 41.6598 142.949 41.2674L142.812 41.588C143.585 41.917 144.069 42.6864 144.334 43.8159C144.599 44.9438 144.635 46.394 144.542 48.0198C144.354 51.2774 143.651 55.1576 143.272 58.4701L143.618 58.5096ZM142.955 41.2702C141.434 40.5498 140.079 40.4218 138.89 40.6539C137.702 40.8855 136.692 41.473 135.854 42.1636C135.016 42.8539 134.344 43.6517 133.834 44.3114C133.58 44.6387 133.36 44.9408 133.186 45.1686C133.005 45.4073 132.88 45.5566 132.801 45.6178L133.013 45.8941C133.137 45.7985 133.291 45.6067 133.464 45.3796C133.645 45.1416 133.855 44.8532 134.109 44.5248C134.614 43.8731 135.267 43.0987 136.076 42.4325C136.884 41.7666 137.842 41.2132 138.956 40.9959C140.068 40.7791 141.347 40.8942 142.806 41.5852L142.955 41.2702ZM132.793 45.8883L133.672 46.641L133.898 46.3764L133.02 45.6237L132.793 45.8883ZM133.785 46.5087C133.929 46.6069 133.929 46.6069 133.929 46.607L133.929 46.607C133.929 46.607 133.929 46.6069 133.929 46.6069C133.929 46.6067 133.929 46.6064 133.93 46.6059C133.93 46.6049 133.932 46.6032 133.933 46.601C133.936 46.5965 133.941 46.5895 133.948 46.5802C133.961 46.5616 133.982 46.5339 134.009 46.4986C134.064 46.428 134.146 46.3271 134.254 46.2083C134.47 45.9704 134.788 45.6625 135.194 45.3818C136.004 44.821 137.157 44.3744 138.565 44.7938L138.665 44.4599C137.125 44.0011 135.863 44.4954 134.995 45.0951C134.562 45.3947 134.225 45.7219 133.996 45.974C133.882 46.1003 133.794 46.2081 133.734 46.285C133.704 46.3235 133.681 46.3542 133.666 46.3756C133.658 46.3864 133.652 46.3948 133.648 46.4006C133.646 46.4036 133.644 46.4059 133.643 46.4075C133.643 46.4084 133.642 46.409 133.642 46.4095C133.642 46.4098 133.641 46.41 133.641 46.4102C133.641 46.4103 133.641 46.4103 133.641 46.4104C133.641 46.4105 133.641 46.4105 133.785 46.5087ZM138.512 44.7674C138.536 44.7848 138.569 44.8243 138.604 44.9058C138.638 44.9859 138.667 45.0946 138.69 45.234C138.737 45.5128 138.755 45.891 138.748 46.358C138.733 47.2906 138.618 48.5476 138.45 50.0094C138.114 52.9197 137.563 56.6578 137.187 60.165L137.534 60.2021C137.911 56.6837 138.457 52.9884 138.796 50.0493C138.965 48.5863 139.081 47.3146 139.096 46.3634C139.104 45.8885 139.086 45.486 139.034 45.1765C139.008 45.0218 138.973 44.8843 138.925 44.7704C138.877 44.6578 138.812 44.5552 138.718 44.4863L138.512 44.7674ZM137.187 60.1641C136.967 62.1319 136.656 64.1215 136.427 66.0417C136.199 67.9467 136.056 69.7532 136.183 71.2852C136.31 72.8141 136.708 74.1019 137.594 74.9359C138.486 75.7757 139.834 76.1207 141.776 75.8501L141.728 75.5049C139.843 75.7675 138.619 75.4225 137.833 74.6822C137.041 73.9363 136.655 72.7542 136.531 71.2564C136.407 69.7618 136.546 67.9849 136.773 66.083C136.998 64.1964 137.315 62.1557 137.534 60.2029L137.187 60.1641ZM141.739 75.8513C142.435 75.9022 143.158 75.635 143.88 75.1573C144.603 74.6788 145.34 73.979 146.072 73.1376C147.536 71.4546 148.997 69.1808 150.293 66.9032C151.59 64.6242 152.725 62.3342 153.536 60.6146C153.941 59.7546 154.265 59.0369 154.489 58.5341C154.6 58.2826 154.687 58.0849 154.745 57.9499C154.774 57.8824 154.796 57.8306 154.811 57.7956C154.819 57.7782 154.825 57.7649 154.828 57.7559C154.83 57.7515 154.832 57.7481 154.833 57.7458C154.833 57.7447 154.833 57.7438 154.834 57.7432C154.834 57.7429 154.834 57.7427 154.834 57.7425C154.834 57.7424 154.834 57.7423 154.674 57.6744C154.513 57.6065 154.513 57.6065 154.513 57.6066C154.513 57.6068 154.513 57.607 154.513 57.6072C154.513 57.6078 154.512 57.6086 154.512 57.6097C154.511 57.6118 154.51 57.6151 154.508 57.6195C154.504 57.6282 154.498 57.6413 154.491 57.6586C154.476 57.6931 154.454 57.7445 154.425 57.8115C154.367 57.9456 154.281 58.1423 154.17 58.3927C153.948 58.8935 153.624 59.6088 153.22 60.466C152.412 62.1808 151.281 64.4622 149.99 66.7309C148.698 69.0012 147.251 71.2517 145.809 72.9089C145.088 73.7377 144.374 74.4121 143.687 74.8667C142.999 75.3221 142.354 75.5468 141.764 75.5037L141.739 75.8513ZM154.507 57.6229C153.973 59.3516 153.106 62.439 152.814 65.6408C152.523 68.833 152.799 72.187 154.601 74.4073L154.872 74.1877C153.161 72.0796 152.872 68.8472 153.161 65.6724C153.45 62.5072 154.308 59.4473 154.84 57.7258L154.507 57.6229ZM154.631 74.4361C155.773 75.305 156.871 75.6141 157.876 75.5772C158.878 75.5404 159.773 75.1607 160.516 74.6789C161.259 74.197 161.857 73.6086 162.268 73.1425C162.474 72.9091 162.634 72.7054 162.743 72.5595C162.797 72.4866 162.839 72.4281 162.867 72.3875C162.882 72.3672 162.892 72.3514 162.9 72.3405C162.903 72.335 162.906 72.3308 162.908 72.3278C162.909 72.3264 162.91 72.3252 162.91 72.3244C162.911 72.324 162.911 72.3236 162.911 72.3234C162.911 72.3233 162.911 72.3232 162.911 72.3231C162.911 72.323 162.911 72.3229 162.766 72.2274C162.62 72.1319 162.62 72.1319 162.62 72.1319C162.62 72.1319 162.62 72.1319 162.62 72.1319C162.62 72.132 162.62 72.1322 162.62 72.1324C162.619 72.1329 162.619 72.1337 162.618 72.1349C162.616 72.1372 162.614 72.1407 162.611 72.1455C162.604 72.155 162.595 72.1694 162.581 72.1883C162.555 72.226 162.516 72.2814 162.464 72.3511C162.36 72.4905 162.206 72.6866 162.007 72.9119C161.608 73.3632 161.034 73.9274 160.326 74.3865C159.619 74.8456 158.784 75.1951 157.863 75.2289C156.946 75.2626 155.926 74.9836 154.842 74.1588L154.631 74.4361ZM190.605 49.0178L190.467 48.9117L190.386 49.0166L190.465 49.1224L190.605 49.0178ZM191.044 49.4569L190.905 49.5615L191.005 49.6955L191.143 49.6003L191.044 49.4569ZM192.8 75.8029L192.628 75.7758L192.602 75.9424L192.768 75.9741L192.8 75.8029ZM198.383 77.3712L198.321 77.534L198.492 77.5992L198.549 77.4251L198.383 77.3712ZM207.165 62.5672L207.201 62.738L207.212 62.735L207.165 62.5672ZM214.254 80.5076L214.182 80.6665L214.19 80.6701L214.198 80.6729L214.254 80.5076ZM225.482 75.0502L225.635 75.134L225.681 75.0504L225.635 74.9668L225.482 75.0502ZM225.106 74.3602L225.259 74.2767L225.144 74.0661L224.979 74.2405L225.106 74.3602ZM219.962 76.0539L219.896 76.215L219.912 76.2218L219.93 76.2251L219.962 76.0539ZM210.803 58.678L210.809 58.5039L210.799 58.5036L210.789 58.5044L210.803 58.678ZM205.409 59.619L205.239 59.5791L205.175 59.8539L205.449 59.7885L205.409 59.619ZM212.497 46.2578L212.639 46.3595L212.639 46.3593L212.497 46.2578ZM219.648 45.3796H219.474V45.4383L219.51 45.4851L219.648 45.3796ZM218.833 39.1067L218.834 39.281L218.834 39.281L218.833 39.1067ZM201.582 60.6226L201.409 60.6071L201.742 60.6914L201.582 60.6226ZM200.14 45.756L200.048 45.9042L200.055 45.9083L200.062 45.9118L200.14 45.756ZM190.465 49.1224C190.573 49.2659 190.65 49.3243 190.72 49.3768C190.775 49.4184 190.824 49.4541 190.905 49.5615L191.183 49.3524C191.076 49.2089 190.999 49.1505 190.929 49.098C190.874 49.0564 190.825 49.0207 190.744 48.9133L190.465 49.1224ZM191.143 49.6003C191.8 49.1468 192.43 48.7454 193.005 48.4682C193.585 48.1891 194.087 48.0472 194.493 48.0857C194.882 48.1226 195.205 48.3259 195.439 48.8019C195.681 49.2905 195.825 50.0623 195.825 51.2133H196.174C196.174 50.0435 196.028 49.2078 195.752 48.6477C195.469 48.0749 195.047 47.7882 194.526 47.7388C194.023 47.6911 193.451 47.8668 192.854 48.1542C192.254 48.4435 191.605 48.8575 190.945 49.3136L191.143 49.6003ZM195.825 51.2133C195.825 53.3618 195.028 59.4936 194.227 65.1066C193.828 67.9091 193.428 70.5764 193.128 72.5432C192.978 73.5266 192.853 74.3348 192.766 74.8971C192.722 75.1783 192.688 75.398 192.664 75.5474C192.652 75.622 192.643 75.6792 192.637 75.7176C192.634 75.7368 192.632 75.7514 192.631 75.7611C192.63 75.766 192.629 75.7696 192.629 75.7721C192.629 75.7733 192.629 75.7742 192.628 75.7748C192.628 75.7752 192.628 75.7754 192.628 75.7755C192.628 75.7757 192.628 75.7758 192.8 75.8029C192.973 75.8301 192.973 75.83 192.973 75.8299C192.973 75.8297 192.973 75.8295 192.973 75.8292C192.973 75.8286 192.973 75.8276 192.973 75.8264C192.973 75.8239 192.974 75.8203 192.975 75.8154C192.976 75.8056 192.979 75.791 192.982 75.7718C192.988 75.7333 192.997 75.6761 193.008 75.6013C193.032 75.4518 193.066 75.232 193.11 74.9507C193.198 74.388 193.323 73.5795 193.473 72.5957C193.772 70.6283 194.172 67.9598 194.572 65.1559C195.371 59.5562 196.174 53.3931 196.174 51.2133H195.825ZM192.768 75.9741C194.233 76.2547 195.622 76.6448 196.645 76.965C197.157 77.1251 197.576 77.2676 197.868 77.3699C198.013 77.4211 198.127 77.4622 198.204 77.4905C198.243 77.5047 198.272 77.5156 198.292 77.5229C198.302 77.5266 198.309 77.5294 198.314 77.5313C198.316 77.5322 198.318 77.5329 198.32 77.5333C198.32 77.5336 198.321 77.5337 198.321 77.5339C198.321 77.5339 198.321 77.5339 198.321 77.534C198.321 77.534 198.321 77.534 198.321 77.534C198.321 77.534 198.321 77.534 198.383 77.3712C198.445 77.2083 198.445 77.2083 198.445 77.2083C198.445 77.2083 198.445 77.2083 198.445 77.2083C198.445 77.2082 198.445 77.2082 198.445 77.2081C198.444 77.208 198.444 77.2078 198.443 77.2075C198.442 77.207 198.44 77.2062 198.437 77.2052C198.432 77.2033 198.424 77.2004 198.414 77.1965C198.394 77.1889 198.364 77.1777 198.324 77.1633C198.246 77.1345 198.131 77.0928 197.983 77.0411C197.689 76.9376 197.265 76.7939 196.749 76.6325C195.718 76.3098 194.316 75.9157 192.833 75.6318L192.768 75.9741ZM198.549 77.4251C198.993 76.0607 199.226 74.5604 199.46 73.0649C199.695 71.5637 199.93 70.0662 200.376 68.6818C200.821 67.3 201.473 66.0403 202.536 65.0145C203.597 63.9894 205.079 63.1869 207.201 62.7377L207.129 62.3967C204.955 62.8571 203.41 63.6856 202.293 64.7638C201.178 65.8414 200.501 67.1575 200.044 68.5749C199.589 69.9898 199.35 71.515 199.116 73.0111C198.881 74.5128 198.652 75.9842 198.218 77.3172L198.549 77.4251ZM207.212 62.735C207.681 62.604 208.062 62.7212 208.396 63.042C208.742 63.3734 209.039 63.9237 209.3 64.6527C209.819 66.1083 210.164 68.1879 210.514 70.3886C210.862 72.58 211.215 74.8857 211.752 76.7644C212.021 77.7042 212.339 78.5459 212.731 79.2173C213.122 79.8879 213.595 80.4029 214.182 80.6665L214.325 80.3486C213.83 80.1261 213.403 79.6787 213.032 79.0417C212.661 78.4056 212.353 77.5948 212.087 76.6685C211.557 74.8148 211.208 72.5335 210.858 70.3339C210.51 68.1436 210.161 66.0282 209.628 64.5355C209.362 63.7905 209.043 63.1783 208.637 62.7903C208.221 62.3916 207.716 62.2325 207.118 62.3994L207.212 62.735ZM214.198 80.6729C217.759 81.8598 220.629 80.4587 222.592 78.7817C223.573 77.9434 224.333 77.0327 224.847 76.3324C225.104 75.982 225.301 75.6836 225.433 75.4723C225.499 75.3666 225.549 75.2827 225.583 75.2249C225.6 75.1959 225.613 75.1735 225.621 75.1582C225.626 75.1506 225.629 75.1447 225.631 75.1406C225.632 75.1386 225.633 75.137 225.634 75.1359C225.634 75.1353 225.634 75.1349 225.634 75.1346C225.635 75.1344 225.635 75.1343 225.635 75.1342C225.635 75.1341 225.635 75.134 225.482 75.0502C225.329 74.9664 225.329 74.9664 225.329 74.9664C225.329 74.9664 225.329 74.9665 225.329 74.9665C225.329 74.9667 225.329 74.967 225.329 74.9673C225.328 74.9681 225.328 74.9694 225.327 74.9711C225.325 74.9745 225.322 74.9797 225.318 74.9867C225.31 75.0006 225.298 75.0216 225.282 75.0491C225.25 75.1041 225.201 75.185 225.137 75.2875C225.009 75.4925 224.818 75.7836 224.566 76.1262C224.063 76.8118 223.321 77.7007 222.366 78.5168C220.455 80.1487 217.711 81.4763 214.309 80.3423L214.198 80.6729ZM225.635 74.9668L225.259 74.2767L224.953 74.4436L225.329 75.1336L225.635 74.9668ZM225.106 74.3602C224.979 74.2405 224.979 74.2405 224.979 74.2405L224.979 74.2404C224.979 74.2404 224.979 74.2405 224.979 74.2405C224.979 74.2407 224.979 74.2409 224.978 74.2414C224.977 74.2422 224.976 74.2435 224.974 74.2453C224.971 74.249 224.965 74.2548 224.958 74.2624C224.942 74.2776 224.919 74.3004 224.888 74.3294C224.827 74.3876 224.735 74.4709 224.615 74.5696C224.374 74.767 224.023 75.0249 223.58 75.2656C222.693 75.7472 221.448 76.1553 219.994 75.8826L219.93 76.2251C221.486 76.517 222.814 76.0782 223.746 75.5719C224.212 75.3185 224.582 75.0472 224.836 74.8389C224.963 74.7346 225.061 74.6459 225.128 74.5828C225.161 74.5512 225.187 74.526 225.204 74.5084C225.213 74.4997 225.22 74.4928 225.224 74.488C225.227 74.4855 225.229 74.4837 225.23 74.4823C225.231 74.4816 225.231 74.4811 225.232 74.4807C225.232 74.4804 225.232 74.4803 225.232 74.4801C225.232 74.4801 225.232 74.48 225.232 74.48C225.232 74.4799 225.232 74.4798 225.106 74.3602ZM220.028 75.8927C218.225 75.1501 217.288 73.7473 216.766 72.0268C216.241 70.2968 216.141 68.2684 216.003 66.2953C215.867 64.338 215.692 62.4267 214.993 60.9904C214.642 60.2671 214.155 59.6583 213.47 59.2235C212.785 58.789 211.915 58.5359 210.809 58.5039L210.798 58.8522C211.856 58.8829 212.662 59.1238 213.283 59.5177C213.903 59.9114 214.351 60.4656 214.68 61.1428C215.344 62.5078 215.518 64.3484 215.656 66.3195C215.792 68.2748 215.893 70.3512 216.432 72.1281C216.975 73.9146 217.967 75.4208 219.896 76.215L220.028 75.8927ZM210.789 58.5044C208.516 58.6938 206.686 59.1358 205.368 59.4495L205.449 59.7885C206.766 59.4749 208.574 59.0387 210.818 58.8517L210.789 58.5044ZM205.578 59.6589C206.075 57.5497 207.195 55.12 208.517 52.7649C209.838 50.4121 211.355 48.1438 212.639 46.3595L212.356 46.156C211.067 47.9473 209.542 50.2268 208.213 52.5943C206.885 54.9596 205.747 57.4227 205.239 59.5791L205.578 59.6589ZM212.639 46.3593C214.345 43.9804 215.627 42.753 216.582 42.2335C217.057 41.9753 217.439 41.8982 217.747 41.9301C218.051 41.9617 218.302 42.1024 218.512 42.3178C218.941 42.758 219.187 43.495 219.322 44.1579C219.388 44.4847 219.426 44.7848 219.448 45.007C219.459 45.118 219.465 45.2093 219.469 45.2743C219.471 45.3068 219.472 45.3327 219.473 45.3512C219.474 45.3709 219.474 45.3797 219.474 45.3796H219.822C219.822 45.3375 219.802 44.7691 219.663 44.0883C219.526 43.4142 219.265 42.5909 218.761 42.0744C218.505 41.8115 218.182 41.6249 217.782 41.5835C217.385 41.5423 216.932 41.6465 216.416 41.9274C215.389 42.4861 214.068 43.7678 212.356 46.1562L212.639 46.3593ZM219.51 45.4851C220.645 46.9779 222.011 47.3337 223.213 46.9838C224.397 46.6388 225.39 45.6171 225.826 44.4198C226.264 43.216 226.146 41.8127 225.074 40.7233C224.01 39.6416 222.036 38.9009 218.831 38.9325L218.834 39.281C221.997 39.2498 223.857 39.9832 224.826 40.9677C225.786 41.9444 225.899 43.1992 225.499 44.3007C225.095 45.4086 224.179 46.3394 223.115 46.6492C222.069 46.9539 220.847 46.6668 219.787 45.2741L219.51 45.4851ZM218.832 38.9325C214.062 38.9645 210.52 42.5176 207.778 46.9502C205.032 51.3872 203.048 56.7713 201.422 60.5538L201.742 60.6914C203.379 56.8838 205.346 51.5414 208.074 47.1336C210.804 42.7214 214.256 39.3117 218.834 39.281L218.832 38.9325ZM201.756 60.6381C202.099 56.7967 202.588 53.4812 202.564 50.9295C202.541 48.3787 202.007 46.4946 200.218 45.6001L200.062 45.9118C201.66 46.711 202.192 48.4024 202.216 50.9327C202.239 53.462 201.755 56.733 201.409 60.6071L201.756 60.6381ZM200.231 45.6078C197.762 44.0806 195.299 44.9369 193.488 46.136C192.581 46.737 191.826 47.4302 191.299 47.9721C191.036 48.2433 190.828 48.4773 190.686 48.6438C190.615 48.7271 190.561 48.7936 190.524 48.8395C190.505 48.8624 190.491 48.8802 190.482 48.8924C190.477 48.8985 190.473 48.9032 190.471 48.9065C190.469 48.9081 190.469 48.9093 190.468 48.9102C190.467 48.9107 190.467 48.911 190.467 48.9113C190.467 48.9114 190.467 48.9115 190.467 48.9116C190.467 48.9117 190.467 48.9117 190.605 49.0178C190.743 49.124 190.743 49.124 190.743 49.124C190.743 49.1239 190.743 49.1239 190.743 49.1239C190.743 49.1237 190.743 49.1235 190.744 49.1232C190.744 49.1226 190.745 49.1216 190.746 49.1202C190.748 49.1175 190.751 49.1134 190.756 49.1078C190.764 49.0967 190.778 49.08 190.795 49.0582C190.83 49.0145 190.883 48.9505 190.952 48.8697C191.089 48.7082 191.292 48.48 191.549 48.2151C192.065 47.6846 192.8 47.0096 193.681 46.4266C195.446 45.2578 197.75 44.4831 200.048 45.9042L200.231 45.6078ZM245.046 47.8887H245.22V47.8445L245.199 47.8056L245.046 47.8887ZM229.991 75.1757L230.074 75.0226L229.991 75.1757ZM241.847 65.3273L242.019 65.3556L241.686 65.2605L241.847 65.3273ZM247.743 75.1129L247.724 74.9398L247.723 74.9398L247.743 75.1129ZM253.075 69.3419L253.243 69.3877L253.274 69.2735L253.18 69.2025L253.075 69.3419ZM252.824 69.1537L252.929 69.0143L252.783 68.9048L252.68 69.0557L252.824 69.1537ZM245.987 51.2133L246.161 51.2271L246.172 51.0853L246.035 51.0459L245.987 51.2133ZM241.847 50.0215L241.895 49.8541L241.688 49.7945L241.673 50.0093L241.847 50.0215ZM237.519 68.6519L237.38 68.5457L237.38 68.5458L237.519 68.6519ZM229.991 65.3273L229.818 65.3093L229.817 65.3124L229.991 65.3273ZM245.199 47.8056C243.902 45.4162 242.393 43.8802 240.773 43.0578C239.15 42.234 237.432 42.1342 235.733 42.5894C232.346 43.497 229.037 46.6082 226.643 50.5983C224.245 54.593 222.742 59.5024 222.995 64.05C223.249 68.6048 225.266 72.8014 229.908 75.3287L230.074 75.0226C225.557 72.563 223.592 68.4872 223.343 64.0307C223.095 59.567 224.572 54.726 226.941 50.7777C229.314 46.8247 232.56 43.8004 235.823 42.926C237.449 42.4904 239.078 42.588 240.615 43.3685C242.155 44.1503 243.618 45.6252 244.893 47.9719L245.199 47.8056ZM229.908 75.3287C231.554 76.2249 233.15 76.0293 234.599 75.2456C236.04 74.4665 237.342 73.1045 238.434 71.6498C239.528 70.1927 240.421 68.629 241.04 67.4313C241.35 66.832 241.591 66.3235 241.756 65.9645C241.838 65.7849 241.901 65.6427 241.943 65.5452C241.964 65.4965 241.98 65.4589 241.991 65.4334C241.997 65.4207 242.001 65.4109 242.003 65.4043C242.005 65.401 242.006 65.3985 242.007 65.3968C242.007 65.396 242.007 65.3953 242.007 65.3948C242.007 65.3946 242.008 65.3944 242.008 65.3943C242.008 65.3942 242.008 65.3941 241.847 65.3273C241.686 65.2605 241.686 65.2605 241.686 65.2605C241.686 65.2606 241.686 65.2607 241.686 65.2609C241.686 65.2613 241.685 65.2618 241.685 65.2626C241.684 65.2641 241.683 65.2664 241.682 65.2695C241.68 65.2756 241.676 65.2849 241.67 65.2972C241.66 65.3218 241.644 65.3585 241.623 65.4063C241.582 65.5019 241.52 65.6421 241.439 65.8194C241.276 66.1742 241.037 66.6777 240.73 67.2712C240.117 68.4592 239.234 70.0045 238.155 71.4406C237.075 72.8793 235.81 74.195 234.433 74.9391C233.066 75.6786 231.596 75.8514 230.074 75.0226L229.908 75.3287ZM241.847 65.3273C241.675 65.299 241.675 65.2991 241.675 65.2992C241.675 65.2993 241.675 65.2995 241.675 65.2997C241.675 65.3001 241.675 65.3006 241.674 65.3014C241.674 65.3028 241.674 65.3049 241.673 65.3076C241.673 65.3131 241.671 65.321 241.67 65.3314C241.667 65.3522 241.662 65.3828 241.656 65.4225C241.645 65.5018 241.63 65.6174 241.613 65.764C241.58 66.0571 241.541 66.4742 241.518 66.9718C241.472 67.9656 241.492 69.2867 241.754 70.584C242.017 71.8791 242.525 73.1692 243.473 74.08C244.427 74.9976 245.807 75.5106 247.763 75.286L247.723 74.9398C245.854 75.1544 244.583 74.6637 243.714 73.8288C242.839 72.9872 242.351 71.7759 242.096 70.5149C241.841 69.2559 241.821 67.966 241.866 66.9877C241.888 66.4993 241.927 66.0902 241.959 65.8035C241.976 65.6602 241.991 65.5477 242.001 65.4712C242.007 65.4329 242.011 65.4037 242.014 65.3842C242.016 65.3745 242.017 65.3672 242.018 65.3624C242.018 65.36 242.018 65.3582 242.018 65.3571C242.019 65.3565 242.019 65.3561 242.019 65.3558C242.019 65.3557 242.019 65.3557 242.019 65.3556C242.019 65.3556 242.019 65.3556 241.847 65.3273ZM247.763 75.2861C249.486 75.091 250.717 74.1306 251.584 72.9666C252.449 71.8054 252.958 70.4336 253.243 69.3877L252.907 69.2961C252.628 70.3203 252.133 71.6458 251.305 72.7585C250.478 73.8684 249.325 74.7585 247.724 74.9398L247.763 75.2861ZM253.18 69.2025L252.929 69.0143L252.72 69.2931L252.971 69.4813L253.18 69.2025ZM252.68 69.0557C251.385 70.9589 250.284 71.7584 249.383 71.9126C248.5 72.0637 247.748 71.6019 247.12 70.8025C246.492 70.0032 246.015 68.8971 245.696 67.8502C245.376 66.8025 245.22 65.8367 245.22 65.3273H244.872C244.872 65.8842 245.037 66.8866 245.362 67.952C245.688 69.0183 246.18 70.1704 246.846 71.0178C247.511 71.8649 248.378 72.4382 249.442 72.2561C250.488 72.077 251.66 71.175 252.968 69.2517L252.68 69.0557ZM245.22 65.3273C245.22 64.2062 245.455 60.6861 245.69 57.4361C245.808 55.8133 245.925 54.261 246.014 53.1144C246.058 52.5412 246.094 52.0693 246.12 51.7408C246.133 51.5765 246.143 51.4481 246.15 51.3607C246.153 51.3171 246.156 51.2837 246.158 51.2612C246.159 51.2499 246.159 51.2414 246.16 51.2357C246.16 51.2329 246.16 51.2307 246.16 51.2293C246.16 51.2286 246.16 51.228 246.161 51.2277C246.161 51.2275 246.161 51.2274 246.161 51.2273C246.161 51.2272 246.161 51.2271 245.987 51.2133C245.813 51.1996 245.813 51.1996 245.813 51.1997C245.813 51.1998 245.813 51.1999 245.813 51.2001C245.813 51.2005 245.813 51.201 245.813 51.2017C245.813 51.2032 245.813 51.2053 245.812 51.2082C245.812 51.2139 245.811 51.2224 245.81 51.2337C245.809 51.2562 245.806 51.2896 245.803 51.3333C245.796 51.4208 245.786 51.5492 245.773 51.7136C245.747 52.0422 245.71 52.5143 245.666 53.0877C245.578 54.2346 245.46 55.7874 245.343 57.4109C245.108 60.6533 244.872 64.1901 244.872 65.3273H245.22ZM246.035 51.0459L241.895 49.8541L241.799 50.1889L245.939 51.3808L246.035 51.0459ZM241.847 50.0215C241.673 50.0093 241.673 50.0093 241.673 50.0094C241.673 50.0095 241.673 50.0097 241.673 50.0099C241.673 50.0103 241.673 50.0109 241.673 50.0118C241.673 50.0135 241.672 50.016 241.672 50.0194C241.672 50.0262 241.671 50.0364 241.67 50.0499C241.668 50.0769 241.665 50.1171 241.661 50.1698C241.653 50.2752 241.64 50.4305 241.624 50.6298C241.59 51.0283 241.538 51.6028 241.465 52.3059C241.319 53.7121 241.09 55.6317 240.757 57.6857C240.425 59.7404 239.989 61.9264 239.43 63.8667C238.87 65.8117 238.191 67.4907 237.38 68.5457L237.657 68.758C238.509 67.6489 239.202 65.9171 239.765 63.9631C240.329 62.0044 240.768 59.8033 241.101 57.7414C241.435 55.679 241.665 53.7525 241.811 52.3418C241.884 51.6364 241.937 51.0597 241.971 50.6592C241.988 50.459 242 50.3028 242.008 50.1966C242.013 50.1435 242.016 50.1028 242.018 50.0754C242.019 50.0617 242.019 50.0514 242.02 50.0444C242.02 50.0409 242.02 50.0382 242.02 50.0365C242.02 50.0356 242.021 50.0349 242.021 50.0344C242.021 50.0342 242.021 50.034 242.021 50.0339C242.021 50.0338 242.021 50.0337 241.847 50.0215ZM237.38 68.5458C236.872 69.2083 236.095 70.0129 235.231 70.6758C234.363 71.3419 233.429 71.8482 232.605 71.9446C232.198 71.9923 231.824 71.9389 231.497 71.7614C231.17 71.5839 230.874 71.2741 230.636 70.7815C230.157 69.7882 229.93 68.0787 230.165 65.3422L229.817 65.3124C229.582 68.0645 229.801 69.8523 230.322 70.9328C230.585 71.4773 230.927 71.8486 231.33 72.0677C231.734 72.2866 232.183 72.3449 232.646 72.2907C233.563 72.1833 234.558 71.6309 235.443 70.9523C236.331 70.2705 237.13 69.4441 237.657 68.758L237.38 68.5458ZM230.164 65.3452C231.29 54.4639 235.033 50.4765 238.434 49.0292C240.142 48.3018 241.785 48.2062 243.009 48.2208C243.315 48.2244 243.595 48.2349 243.844 48.2441C244.091 48.2532 244.311 48.2612 244.494 48.2591C244.672 48.2571 244.833 48.2457 244.954 48.2072C245.016 48.1877 245.082 48.1566 245.134 48.1029C245.191 48.0444 245.22 47.9699 245.22 47.8887H244.872C244.872 47.8821 244.876 47.8688 244.884 47.8604C244.887 47.8568 244.882 47.8647 244.849 47.8751C244.782 47.8964 244.666 47.9086 244.49 47.9106C244.318 47.9126 244.106 47.9051 243.857 47.8959C243.608 47.8867 243.325 47.876 243.013 47.8723C241.768 47.8575 240.07 47.9539 238.297 48.7085C234.734 50.2251 230.95 54.3611 229.818 65.3093L230.164 65.3452ZM250.975 108.359L250.802 108.339L250.786 108.475L250.914 108.522L250.975 108.359ZM258.126 109.3L258.298 109.276L258.298 109.273L258.126 109.3ZM262.956 58.7408L262.787 58.698L262.787 58.6985L262.956 58.7408ZM274.184 50.4606L274.034 50.5491L274.037 50.5541L274.184 50.4606ZM275.125 55.228L275.218 55.3753L275.305 55.3207L275.299 55.2186L275.125 55.228ZM266.657 62.5672L266.513 62.4697L266.512 62.4706L266.657 62.5672ZM267.033 76.1793L267.065 76.008L267.065 76.0079L267.033 76.1793ZM280.081 61.8145L280.251 61.8506L280.252 61.8463L280.081 61.8145ZM280.896 54.4125L280.808 54.2622L280.722 54.3127V54.4125H280.896ZM284.033 52.7188L284.108 52.8761L284.199 52.8325L284.207 52.7312L284.033 52.7188ZM284.158 50.9624L284.332 50.9748L284.349 50.7351L284.116 50.7934L284.158 50.9624ZM280.771 52.217L280.597 52.2299L280.616 52.4832L280.845 52.3745L280.771 52.217ZM275.564 42.4941L275.634 42.3343L275.619 42.3278L275.603 42.3242L275.564 42.4941ZM264.838 47.826L264.665 47.8494L264.725 48.2906L264.98 47.926L264.838 47.826ZM264.336 44.125L264.509 44.1016L264.492 43.9754L264.366 43.9534L264.336 44.125ZM258.628 43.1214L258.658 42.9497L258.476 42.9178L258.455 43.1011L258.628 43.1214ZM267.786 66.2682L267.621 66.211L267.621 66.2117L267.786 66.2682ZM275.063 58.1135L275.237 58.1216L275.254 57.7596L274.96 57.9725L275.063 58.1135ZM271.738 70.0946L271.881 70.1941L271.882 70.1932L271.738 70.0946ZM250.975 108.359C250.914 108.522 250.914 108.522 250.914 108.522C250.914 108.522 250.914 108.522 250.914 108.522C250.915 108.523 250.915 108.523 250.915 108.523C250.916 108.523 250.918 108.524 250.92 108.524C250.923 108.526 250.929 108.528 250.936 108.53C250.95 108.536 250.971 108.543 250.998 108.553C251.053 108.573 251.132 108.602 251.234 108.638C251.437 108.71 251.726 108.812 252.072 108.927C252.764 109.158 253.686 109.448 254.601 109.681C255.513 109.912 256.432 110.092 257.114 110.095C257.451 110.096 257.756 110.055 257.975 109.934C258.088 109.872 258.183 109.785 258.242 109.668C258.302 109.551 258.318 109.418 258.298 109.276L257.953 109.324C257.965 109.41 257.953 109.468 257.931 109.51C257.91 109.553 257.872 109.593 257.806 109.629C257.668 109.706 257.437 109.748 257.115 109.746C256.479 109.743 255.595 109.574 254.687 109.343C253.783 109.113 252.87 108.826 252.183 108.597C251.839 108.482 251.552 108.382 251.351 108.31C251.25 108.274 251.171 108.246 251.118 108.226C251.091 108.216 251.07 108.209 251.056 108.203C251.049 108.201 251.044 108.199 251.041 108.198C251.039 108.197 251.038 108.197 251.037 108.196C251.036 108.196 251.036 108.196 251.036 108.196C251.036 108.196 251.036 108.196 251.036 108.196C251.036 108.196 251.036 108.196 250.975 108.359ZM258.298 109.273C255.544 91.4972 260.114 70.8282 263.125 58.783L262.787 58.6985C259.776 70.7411 255.188 91.473 257.954 109.327L258.298 109.273ZM263.125 58.7836C264.245 54.3644 266.512 51.4587 268.732 50.0915C269.843 49.4074 270.933 49.1132 271.859 49.1934C272.779 49.2731 273.547 49.7221 274.034 50.5491L274.334 50.3721C273.787 49.4427 272.915 48.9351 271.889 48.8462C270.869 48.7578 269.705 49.0831 268.549 49.7947C266.237 51.2189 263.925 54.2097 262.787 58.698L263.125 58.7836ZM274.037 50.5541C274.239 50.8708 274.438 51.4559 274.602 52.2672C274.764 53.0726 274.889 54.0834 274.951 55.2374L275.299 55.2186C275.236 54.0516 275.11 53.0237 274.943 52.1982C274.778 51.3786 274.569 50.7404 274.331 50.3671L274.037 50.5541ZM275.032 55.0807C271.451 57.3428 268.101 60.1184 266.513 62.4697L266.801 62.6648C268.349 60.3741 271.649 57.6296 275.218 55.3753L275.032 55.0807ZM266.512 62.4706C265.054 64.6569 263.851 67.8535 263.66 70.6316C263.565 72.0207 263.722 73.3225 264.243 74.3434C264.77 75.3728 265.662 76.1055 267.002 76.3507L267.065 76.0079C265.833 75.7826 265.031 75.1196 264.554 74.1848C264.072 73.2416 263.915 72.0107 264.008 70.6554C264.194 67.9448 265.374 64.8058 266.802 62.6639L266.512 62.4706ZM267.001 76.3506C270.835 77.0654 277.732 73.7532 280.251 61.8506L279.91 61.7784C277.411 73.5871 270.633 76.6733 267.065 76.008L267.001 76.3506ZM280.252 61.8463C280.755 59.144 281.071 56.6231 281.071 54.4125H280.722C280.722 56.5929 280.41 59.0903 279.91 61.7826L280.252 61.8463ZM280.984 54.5628C281.891 54.0313 282.673 53.6093 283.227 53.3203C283.504 53.1758 283.725 53.0646 283.876 52.9896C283.951 52.9521 284.01 52.9236 284.049 52.9046C284.068 52.8951 284.083 52.8879 284.093 52.8832C284.098 52.8808 284.102 52.879 284.104 52.8778C284.105 52.8773 284.106 52.8768 284.107 52.8765C284.107 52.8764 284.107 52.8763 284.107 52.8762C284.108 52.8762 284.108 52.8762 284.108 52.8762C284.108 52.8762 284.108 52.8762 284.108 52.8761C284.108 52.8761 284.108 52.8761 284.033 52.7188C283.958 52.5615 283.958 52.5615 283.958 52.5615C283.958 52.5615 283.958 52.5615 283.958 52.5616C283.958 52.5616 283.958 52.5616 283.957 52.5617C283.957 52.5617 283.957 52.5619 283.957 52.562C283.956 52.5624 283.955 52.5629 283.954 52.5635C283.951 52.5648 283.947 52.5666 283.942 52.5691C283.932 52.5741 283.916 52.5814 283.896 52.5912C283.856 52.6106 283.797 52.6395 283.721 52.6775C283.568 52.7534 283.346 52.8656 283.066 53.0112C282.507 53.3025 281.721 53.7273 280.808 54.2622L280.984 54.5628ZM284.207 52.7312L284.332 50.9748L283.984 50.95L283.859 52.7064L284.207 52.7312ZM284.116 50.7934C283.099 51.0477 281.896 51.4912 280.696 52.0595L280.845 52.3745C282.029 51.8137 283.21 51.379 284.2 51.1315L284.116 50.7934ZM280.945 52.2041C280.566 47.0935 278.605 43.6261 275.634 42.3343L275.495 42.6539C278.295 43.8711 280.223 47.1784 280.597 52.2299L280.945 52.2041ZM275.603 42.3242C272.517 41.6171 269.782 42.9862 267.836 44.5052C266.86 45.2663 266.076 46.0703 265.536 46.6837C265.266 46.9905 265.056 47.2501 264.914 47.4334C264.843 47.5251 264.788 47.5977 264.752 47.6477C264.733 47.6727 264.719 47.692 264.71 47.7052C264.705 47.7118 264.702 47.7169 264.699 47.7203C264.698 47.7221 264.697 47.7234 264.696 47.7244C264.696 47.7248 264.696 47.7252 264.695 47.7255C264.695 47.7256 264.695 47.7257 264.695 47.7258C264.695 47.7259 264.695 47.726 264.838 47.826C264.98 47.926 264.98 47.926 264.98 47.926C264.98 47.926 264.98 47.926 264.981 47.9259C264.981 47.9258 264.981 47.9255 264.981 47.9252C264.982 47.9245 264.982 47.9234 264.983 47.9219C264.985 47.919 264.989 47.9145 264.993 47.9084C265.002 47.8963 265.015 47.8781 265.032 47.8542C265.068 47.8065 265.12 47.7363 265.189 47.6472C265.328 47.4688 265.533 47.2148 265.798 46.914C266.328 46.312 267.096 45.5242 268.05 44.7799C269.962 43.2878 272.589 41.9911 275.525 42.6639L275.603 42.3242ZM265.01 47.8026L264.509 44.1016L264.163 44.1484L264.665 47.8494L265.01 47.8026ZM264.366 43.9534L258.658 42.9497L258.597 43.293L264.306 44.2966L264.366 43.9534ZM258.455 43.1011L250.802 108.339L251.148 108.379L258.801 43.1417L258.455 43.1011ZM267.951 66.3254C268.441 64.9147 269.443 63.4769 270.728 62.0979C272.012 60.7205 273.572 59.4105 275.165 58.2545L274.96 57.9725C273.354 59.1374 271.777 60.462 270.473 61.8603C269.171 63.2571 268.134 64.7362 267.621 66.211L267.951 66.3254ZM274.888 58.1053C274.701 62.108 273.763 66.8365 271.594 69.996L271.882 70.1932C274.104 66.9544 275.048 62.1483 275.237 58.1216L274.888 58.1053ZM271.595 69.9952C270.452 71.6385 269.558 72.4726 268.899 72.7596C268.575 72.9004 268.323 72.9029 268.127 72.8241C267.927 72.7442 267.753 72.5682 267.612 72.2898C267.327 71.7274 267.212 70.812 267.272 69.7339C267.332 68.6623 267.564 67.4548 267.951 66.3247L267.621 66.2117C267.224 67.3712 266.986 68.6101 266.924 69.7144C266.863 70.8122 266.975 71.8022 267.301 72.4473C267.466 72.7727 267.694 73.026 267.997 73.1475C268.302 73.2701 268.654 73.2462 269.038 73.0792C269.793 72.7506 270.734 71.8441 271.881 70.1941L271.595 69.9952ZM306.421 42.9332L306.443 42.7599L306.431 42.7592L306.421 42.9332ZM293.248 61.1872L293.082 61.1349L293.412 61.2467L293.248 61.1872ZM293.875 44.5014L294.012 44.3937L293.998 44.3762L293.981 44.3627L293.875 44.5014ZM283.023 46.5087L282.911 46.3755L282.815 46.4566L282.861 46.5734L283.023 46.5087ZM283.4 47.4496L283.26 47.5542L283.35 47.6737L283.482 47.6034L283.4 47.4496ZM290.927 49.3315L291.1 49.3516L291.1 49.3502L290.927 49.3315ZM286.222 74.7993L286.051 74.7653L286.022 74.9137L286.165 74.9637L286.222 74.7993ZM292.558 76.1793L292.535 76.3521L292.682 76.3714L292.725 76.2294L292.558 76.1793ZM304.476 49.6451L304.459 49.8189L304.471 49.8193L304.476 49.6451ZM305.919 59.3681L306.089 59.406L306.091 59.3975L306.092 59.3889L305.919 59.3681ZM302.908 75.2384L302.735 75.2224L302.722 75.359L302.852 75.4033L302.908 75.2384ZM308.805 76.1793L308.801 76.3535L308.955 76.3564L308.977 76.204L308.805 76.1793ZM320.723 51.0252L320.702 51.1982L320.713 51.1994H320.723V51.0252ZM321.099 60.1835L321.272 60.2049L321.272 60.2044L321.099 60.1835ZM319.97 77.3084L320.047 77.1517L320.039 77.1481L319.97 77.3084ZM331.136 73.2938L331.222 73.4451L331.32 73.3895L331.31 73.278L331.136 73.2938ZM331.011 71.9138L331.184 71.898L331.151 71.532L330.888 71.7894L331.011 71.9138ZM324.675 74.3602L324.551 74.4823L324.582 74.5143L324.625 74.5272L324.675 74.3602ZM323.42 43.1841L323.408 43.3579L323.421 43.3589L323.435 43.3577L323.42 43.1841ZM309.557 60.8108L309.392 60.7557L309.714 60.8868L309.557 60.8108ZM321.35 39.2949H321.525V39.1365L321.367 39.1215L321.35 39.2949ZM321.413 32.5202L321.355 32.3558L321.355 32.3561L321.413 32.5202ZM298.58 35.9703L298.752 35.9417L298.704 35.6533L298.473 35.8328L298.58 35.9703ZM298.141 38.7931L298.003 38.6861L297.85 38.8835L298.088 38.9592L298.141 38.7931ZM306.431 42.7592C304.747 42.6602 303.075 43.8092 301.534 45.5096C299.986 47.2184 298.531 49.526 297.282 51.8362C296.032 54.148 294.982 56.4705 294.246 58.2143C293.878 59.0864 293.587 59.8142 293.389 60.3243C293.29 60.5793 293.214 60.7799 293.162 60.9168C293.137 60.9853 293.117 61.0379 293.104 61.0734C293.098 61.0912 293.093 61.1046 293.089 61.1137C293.088 61.1183 293.086 61.1217 293.085 61.124C293.085 61.1252 293.085 61.1261 293.085 61.1267C293.084 61.127 293.084 61.1272 293.084 61.1274C293.084 61.1275 293.084 61.1276 293.248 61.1872C293.412 61.2467 293.412 61.2467 293.412 61.2466C293.412 61.2464 293.412 61.2463 293.412 61.246C293.412 61.2454 293.412 61.2446 293.413 61.2435C293.414 61.2414 293.415 61.238 293.416 61.2336C293.42 61.2248 293.425 61.2116 293.431 61.1941C293.444 61.1592 293.463 61.1072 293.489 61.0393C293.54 60.9035 293.615 60.7042 293.714 60.4505C293.911 59.9432 294.2 59.2185 294.567 58.3499C295.301 56.6123 296.345 54.3007 297.588 52.0019C298.832 49.7015 300.271 47.4221 301.792 45.7436C303.321 44.0566 304.896 43.018 306.411 43.1071L306.431 42.7592ZM293.414 61.2395C293.946 59.5493 294.971 56.4612 295.428 53.2452C295.883 50.0394 295.785 46.6497 294.012 44.3937L293.738 44.609C295.416 46.7441 295.537 50.0036 295.083 53.1961C294.63 56.3784 293.616 59.4377 293.082 61.1349L293.414 61.2395ZM293.981 44.3627C291.677 42.6103 288.884 43.1421 286.71 44.0747C285.619 44.5429 284.67 45.1175 283.995 45.5744C283.657 45.803 283.387 46.0026 283.201 46.1453C283.108 46.2166 283.036 46.2738 282.987 46.3133C282.962 46.3331 282.943 46.3484 282.931 46.3589C282.924 46.3642 282.92 46.3682 282.916 46.371C282.915 46.3724 282.913 46.3735 282.912 46.3742C282.912 46.3746 282.912 46.3749 282.911 46.3751C282.911 46.3752 282.911 46.3753 282.911 46.3754C282.911 46.3754 282.911 46.3755 283.023 46.5087C283.135 46.6419 283.135 46.6419 283.135 46.6419C283.136 46.6419 283.136 46.6419 283.136 46.6418C283.136 46.6417 283.136 46.6415 283.136 46.6412C283.137 46.6407 283.138 46.6398 283.139 46.6386C283.142 46.6362 283.147 46.6326 283.153 46.6277C283.164 46.618 283.182 46.6035 283.206 46.5846C283.252 46.5467 283.322 46.4913 283.413 46.4218C283.594 46.2827 283.859 46.0873 284.19 45.863C284.854 45.4143 285.783 44.8519 286.848 44.3949C288.987 43.477 291.62 43.0052 293.77 44.6401L293.981 44.3627ZM282.861 46.5734C282.922 46.7246 282.963 46.8796 283.023 47.0578C283.078 47.2256 283.148 47.405 283.26 47.5542L283.539 47.3451C283.463 47.2433 283.407 47.1091 283.353 46.9476C283.303 46.7964 283.25 46.6064 283.185 46.444L282.861 46.5734ZM283.482 47.6034C284.88 46.8573 286.855 46.1831 288.401 46.2593C289.172 46.2973 289.811 46.5199 290.23 46.9842C290.647 47.4463 290.876 48.1818 290.754 49.3128L291.1 49.3502C291.229 48.1602 290.995 47.3118 290.489 46.7507C289.984 46.1917 289.24 45.9517 288.419 45.9113C286.782 45.8306 284.741 46.5365 283.318 47.2959L283.482 47.6034ZM290.754 49.3114C290.504 51.4675 289.329 57.8263 288.215 63.6558C287.659 66.5684 287.118 69.3458 286.716 71.3951C286.515 72.4197 286.349 73.2623 286.233 73.8487C286.175 74.1419 286.13 74.3711 286.099 74.5269C286.083 74.6049 286.071 74.6645 286.064 74.7046C286.06 74.7246 286.057 74.7398 286.054 74.75C286.053 74.7551 286.053 74.7589 286.052 74.7615C286.052 74.7627 286.052 74.7637 286.052 74.7644C286.052 74.7647 286.052 74.7649 286.051 74.7651C286.051 74.7652 286.051 74.7653 286.222 74.7993C286.393 74.8333 286.393 74.8332 286.393 74.833C286.393 74.8329 286.393 74.8326 286.393 74.8323C286.394 74.8316 286.394 74.8307 286.394 74.8294C286.395 74.8268 286.395 74.823 286.396 74.8179C286.398 74.8077 286.401 74.7925 286.405 74.7724C286.413 74.7323 286.425 74.6727 286.441 74.5947C286.471 74.4388 286.517 74.2096 286.575 73.9163C286.691 73.3297 286.857 72.487 287.058 71.4621C287.46 69.4125 288.001 66.6345 288.558 63.7212C289.67 57.8989 290.848 51.5238 291.1 49.3516L290.754 49.3114ZM286.165 74.9637C287.432 75.4074 289.027 75.7543 290.299 75.99C290.937 76.108 291.495 76.1984 291.895 76.2594C292.094 76.2899 292.254 76.3131 292.364 76.3286C292.419 76.3363 292.462 76.3422 292.491 76.3461C292.505 76.3481 292.516 76.3496 292.524 76.3506C292.528 76.3511 292.53 76.3514 292.532 76.3517C292.533 76.3518 292.534 76.3519 292.534 76.352C292.535 76.352 292.535 76.352 292.535 76.3521C292.535 76.3521 292.535 76.3521 292.535 76.3521C292.535 76.3521 292.535 76.3521 292.558 76.1793C292.581 76.0065 292.581 76.0065 292.581 76.0065C292.581 76.0065 292.581 76.0065 292.58 76.0065C292.58 76.0065 292.58 76.0065 292.58 76.0065C292.58 76.0064 292.579 76.0063 292.578 76.0062C292.576 76.006 292.574 76.0056 292.57 76.0051C292.563 76.0042 292.552 76.0027 292.538 76.0008C292.509 75.9969 292.467 75.9912 292.413 75.9835C292.304 75.9681 292.145 75.9452 291.947 75.9149C291.551 75.8544 290.996 75.7645 290.363 75.6473C289.095 75.4125 287.521 75.0694 286.28 74.6348L286.165 74.9637ZM292.725 76.2294C293.383 74.0347 295.436 67.3122 297.786 61.1869C298.961 58.1232 300.208 55.2156 301.39 53.0998C301.982 52.041 302.552 51.1889 303.083 50.6156C303.624 50.0325 304.085 49.7805 304.459 49.8185L304.494 49.4718C303.943 49.4157 303.378 49.7851 302.828 50.3786C302.269 50.9819 301.682 51.8618 301.086 52.9299C299.892 55.0678 298.638 57.994 297.461 61.062C295.106 67.2002 293.05 73.933 292.391 76.1292L292.725 76.2294ZM304.471 49.8193C304.857 49.8322 305.175 50.0658 305.43 50.541C305.688 51.0202 305.865 51.72 305.966 52.5976C306.167 54.3495 306.059 56.7488 305.746 59.3472L306.092 59.3889C306.406 56.7809 306.518 54.35 306.312 52.5578C306.209 51.6633 306.025 50.9125 305.737 50.3762C305.448 49.836 305.036 49.4895 304.482 49.471L304.471 49.8193ZM305.749 59.3301C304.431 65.2289 303.678 69.1995 303.254 71.6964C303.042 72.9449 302.912 73.8251 302.835 74.3937C302.797 74.6781 302.772 74.8846 302.756 75.0203C302.749 75.0882 302.743 75.1383 302.74 75.1717C302.738 75.1884 302.737 75.2009 302.736 75.2093C302.735 75.2135 302.735 75.2167 302.735 75.2189C302.735 75.2199 302.735 75.2208 302.735 75.2214C302.735 75.2217 302.735 75.2219 302.735 75.2221C302.735 75.2221 302.735 75.2222 302.735 75.2223C302.735 75.2223 302.735 75.2224 302.908 75.2384C303.082 75.2544 303.082 75.2544 303.082 75.2544C303.082 75.2544 303.082 75.2544 303.082 75.2543C303.082 75.2543 303.082 75.2541 303.082 75.2539C303.082 75.2535 303.082 75.2528 303.082 75.2519C303.082 75.2501 303.082 75.2472 303.083 75.2433C303.083 75.2356 303.085 75.2238 303.086 75.2077C303.09 75.1756 303.095 75.1267 303.103 75.06C303.118 74.9267 303.143 74.7225 303.181 74.4403C303.257 73.876 303.386 72.9997 303.597 71.7548C304.02 69.2648 304.772 65.3002 306.089 59.406L305.749 59.3301ZM302.852 75.4033C304.155 75.8484 305.644 76.0854 306.802 76.2114C307.382 76.2745 307.881 76.31 308.235 76.3298C308.412 76.3396 308.554 76.3456 308.651 76.349C308.699 76.3508 308.736 76.3519 308.762 76.3526C308.775 76.3529 308.784 76.3532 308.791 76.3533C308.794 76.3534 308.797 76.3534 308.799 76.3535C308.799 76.3535 308.8 76.3535 308.801 76.3535C308.801 76.3535 308.801 76.3535 308.801 76.3535C308.801 76.3535 308.801 76.3535 308.801 76.3535C308.801 76.3535 308.801 76.3535 308.805 76.1793C308.808 76.0051 308.808 76.0051 308.808 76.0051C308.808 76.0051 308.808 76.0051 308.808 76.0051C308.808 76.0051 308.808 76.0051 308.807 76.0051C308.807 76.0051 308.807 76.0051 308.806 76.0051C308.804 76.005 308.802 76.005 308.799 76.0049C308.793 76.0048 308.784 76.0045 308.771 76.0042C308.747 76.0035 308.71 76.0025 308.663 76.0008C308.568 75.9974 308.429 75.9915 308.255 75.9818C307.905 75.9623 307.412 75.9273 306.84 75.865C305.692 75.7401 304.233 75.5065 302.964 75.0735L302.852 75.4033ZM308.977 76.204C309.413 73.1535 311.476 66.7722 313.889 61.2016C315.095 58.4179 316.384 55.8466 317.595 54.0014C318.201 53.078 318.783 52.3442 319.32 51.8568C319.863 51.3633 320.326 51.1528 320.702 51.1982L320.744 50.8522C320.21 50.7878 319.647 51.0889 319.085 51.5988C318.517 52.1148 317.917 52.8762 317.304 53.8102C316.076 55.6796 314.778 58.2717 313.569 61.063C311.152 66.6424 309.075 73.0577 308.632 76.1547L308.977 76.204ZM320.723 51.1994C320.926 51.1994 321.079 51.252 321.2 51.3436C321.322 51.4368 321.423 51.5808 321.501 51.7861C321.66 52.2029 321.709 52.8291 321.678 53.6453C321.616 55.2747 321.242 57.5465 320.926 60.1627L321.272 60.2044C321.585 57.6141 321.963 55.3067 322.026 53.6586C322.058 52.8359 322.013 52.1488 321.827 51.6618C321.733 51.4153 321.599 51.21 321.411 51.0666C321.221 50.9219 320.991 50.8509 320.723 50.8509V51.1994ZM320.926 60.1621C320.724 61.7993 320.341 63.5952 319.933 65.3965C319.525 67.1946 319.09 68.9999 318.787 70.6433C318.485 72.2846 318.31 73.7831 318.43 74.9677C318.549 76.1513 318.968 77.0711 319.902 77.4687L320.039 77.1481C319.279 76.8244 318.891 76.0662 318.776 74.9328C318.662 73.8003 318.829 72.3427 319.13 70.7064C319.431 69.0723 319.863 67.2786 320.273 65.4736C320.681 63.672 321.067 61.861 321.272 60.2049L320.926 60.1621ZM319.894 77.4649C322.916 78.9438 325.445 78.1023 327.368 76.8101C328.326 76.1657 329.137 75.4077 329.787 74.7687C330.114 74.4467 330.395 74.1605 330.64 73.9268C330.887 73.6913 331.079 73.5273 331.222 73.4451L331.05 73.1425C330.864 73.2485 330.644 73.4412 330.4 73.6747C330.153 73.9101 329.863 74.205 329.543 74.5202C328.897 75.1553 328.104 75.895 327.173 76.5209C325.316 77.7692 322.921 78.5586 320.047 77.1519L319.894 77.4649ZM331.31 73.278L331.184 71.898L330.837 71.9295L330.962 73.3096L331.31 73.278ZM331.011 71.9138C330.888 71.7894 330.889 71.7894 330.889 71.7894C330.888 71.7894 330.888 71.7894 330.888 71.7894C330.888 71.7895 330.888 71.7896 330.888 71.7897C330.888 71.7901 330.887 71.7906 330.887 71.7913C330.885 71.7927 330.883 71.7949 330.88 71.7978C330.874 71.8037 330.864 71.8126 330.852 71.8243C330.827 71.8476 330.79 71.8821 330.742 71.9258C330.646 72.0133 330.504 72.1378 330.325 72.2847C329.966 72.5788 329.458 72.9614 328.859 73.3165C327.654 74.0321 326.126 74.6105 324.725 74.1932L324.625 74.5272C326.172 74.9881 327.812 74.3433 329.037 73.6161C329.654 73.2498 330.177 72.8561 330.546 72.5543C330.73 72.4033 330.876 72.2749 330.976 72.184C331.026 72.1385 331.065 72.1024 331.091 72.0775C331.105 72.0651 331.115 72.0554 331.122 72.0487C331.125 72.0454 331.128 72.0429 331.13 72.0411C331.13 72.0402 331.131 72.0395 331.132 72.039C331.132 72.0388 331.132 72.0386 331.132 72.0384C331.132 72.0383 331.132 72.0383 331.132 72.0382C331.133 72.0382 331.133 72.0381 331.011 71.9138ZM324.799 74.2381C324.615 74.0504 324.48 73.7676 324.397 73.3834C324.314 73 324.286 72.5282 324.306 71.9772C324.346 70.8748 324.576 69.4829 324.914 67.9022C325.251 66.323 325.694 64.5645 326.156 62.7301C326.618 60.897 327.099 58.989 327.511 57.1159C328.334 53.3773 328.891 49.7481 328.464 47.1101C328.249 45.7881 327.785 44.6926 326.96 43.9611C326.132 43.2264 324.968 42.8823 323.406 43.0104L323.435 43.3577C324.931 43.235 325.991 43.5672 326.729 44.2218C327.47 44.8797 327.912 45.8865 328.12 47.1658C328.535 49.7303 327.994 53.2992 327.171 57.041C326.76 58.9081 326.28 60.8109 325.818 62.645C325.356 64.4778 324.912 66.2428 324.573 67.8294C324.235 69.4146 323.999 70.8308 323.958 71.9646C323.938 72.5316 323.965 73.0349 324.056 73.4569C324.147 73.8781 324.304 74.2309 324.551 74.4823L324.799 74.2381ZM323.433 43.0103C322.738 42.9595 322.002 43.2195 321.256 43.6856C320.507 44.1528 319.733 44.8367 318.957 45.66C317.405 47.3068 315.826 49.5327 314.413 51.763C312.998 53.9948 311.745 56.2374 310.846 57.9217C310.397 58.7639 310.036 59.4669 309.787 59.9594C309.662 60.2056 309.566 60.3993 309.5 60.5315C309.468 60.5976 309.443 60.6484 309.426 60.6826C309.418 60.6998 309.411 60.7128 309.407 60.7215C309.405 60.7259 309.403 60.7292 309.402 60.7314C309.402 60.7326 309.401 60.7334 309.401 60.734C309.401 60.7343 309.401 60.7345 309.401 60.7346C309.401 60.7348 309.401 60.7349 309.557 60.8108C309.714 60.8868 309.714 60.8867 309.714 60.8866C309.714 60.8865 309.714 60.8863 309.715 60.886C309.715 60.8855 309.715 60.8847 309.716 60.8836C309.717 60.8815 309.718 60.8783 309.72 60.874C309.725 60.8655 309.731 60.8527 309.739 60.8357C309.756 60.8019 309.78 60.7516 309.813 60.6859C309.878 60.5546 309.974 60.3619 310.098 60.1166C310.346 59.626 310.706 58.9254 311.154 58.0858C312.05 56.4062 313.299 54.1716 314.707 51.9496C316.116 49.7262 317.682 47.5219 319.211 45.899C319.976 45.0874 320.727 44.4266 321.44 43.9812C322.155 43.5348 322.816 43.3146 323.408 43.3579L323.433 43.0103ZM309.723 60.8659C310.421 58.7695 310.971 54.4487 310.68 50.5652C310.534 48.6229 310.177 46.7738 309.512 45.3613C308.847 43.9476 307.858 42.9435 306.443 42.7604L306.399 43.106C307.65 43.2679 308.559 44.1535 309.197 45.5097C309.836 46.867 310.188 48.6679 310.332 50.5913C310.621 54.439 310.073 58.712 309.392 60.7557L309.723 60.8659ZM321.176 39.2949C321.176 39.3035 321.179 39.3276 321.183 39.3429C321.195 39.3745 321.263 39.4462 321.325 39.4677C321.38 39.467 321.453 39.4359 321.473 39.4197C321.481 39.4108 321.493 39.3956 321.497 39.3897C321.504 39.3796 321.508 39.371 321.509 39.3686C321.511 39.3648 321.512 39.3615 321.513 39.3594C321.516 39.3517 321.519 39.3431 321.521 39.3365C321.527 39.3217 321.534 39.3003 321.542 39.2737C321.56 39.2199 321.585 39.1401 321.615 39.0386C321.676 38.8353 321.761 38.5431 321.855 38.1934C322.043 37.4947 322.27 36.5637 322.424 35.6544C322.577 34.7514 322.662 33.8476 322.554 33.2142C322.5 32.9 322.393 32.6173 322.188 32.446C321.97 32.2633 321.683 32.2408 321.355 32.3558L321.471 32.6846C321.724 32.5958 321.87 32.6341 321.965 32.7135C322.074 32.8044 322.161 32.9854 322.211 33.2729C322.308 33.8431 322.233 34.6958 322.08 35.5962C321.929 36.4904 321.705 37.4098 321.518 38.1029C321.425 38.4491 321.342 38.7381 321.281 38.9382C321.251 39.0383 321.227 39.1158 321.211 39.1668C321.202 39.1925 321.196 39.2104 321.193 39.2208C321.191 39.2269 321.19 39.2274 321.191 39.2252C321.192 39.2244 321.192 39.2223 321.194 39.2194C321.195 39.2179 321.198 39.2099 321.205 39.2003C321.208 39.1946 321.22 39.1796 321.229 39.1708C321.248 39.1546 321.321 39.1236 321.376 39.1229C321.438 39.1444 321.506 39.216 321.518 39.2475C321.522 39.2627 321.524 39.2866 321.525 39.2949H321.176ZM321.355 32.3561C317.673 33.6663 311.841 34.6369 306.988 35.2249C304.564 35.5186 302.389 35.7163 300.857 35.8131C300.091 35.8615 299.488 35.8845 299.096 35.8819C298.898 35.8807 298.763 35.8728 298.69 35.8609C298.672 35.858 298.662 35.8555 298.657 35.8541C298.65 35.8518 298.662 35.854 298.679 35.867C298.698 35.8809 298.749 35.9307 298.738 36.0134C298.729 36.0772 298.688 36.1073 298.687 36.1078L298.473 35.8328C298.455 35.847 298.403 35.89 298.393 35.9659C298.38 36.0606 298.438 36.1217 298.47 36.146C298.502 36.1694 298.535 36.1813 298.557 36.1878C298.581 36.1951 298.608 36.2006 298.634 36.2049C298.736 36.2215 298.895 36.2291 299.094 36.2304C299.498 36.233 300.11 36.2095 300.879 36.1609C302.419 36.0636 304.6 35.8653 307.03 35.5709C311.884 34.9827 317.751 34.0087 321.471 32.6844L321.355 32.3561ZM298.408 35.9989C298.499 36.5458 298.499 37.0914 298.423 37.5661C298.348 38.0437 298.198 38.4354 298.003 38.6861L298.278 38.9001C298.522 38.5862 298.687 38.1311 298.768 37.6207C298.849 37.1074 298.849 36.524 298.752 35.9417L298.408 35.9989ZM298.088 38.9592C303.356 40.6309 308.853 40.7241 313.192 40.4175C315.363 40.2642 317.245 40.0106 318.666 39.8035C319.378 39.6998 319.97 39.6083 320.428 39.5464C320.894 39.4833 321.194 39.455 321.334 39.4684L321.367 39.1215C321.178 39.1035 320.833 39.1399 320.381 39.201C319.921 39.2633 319.323 39.3556 318.616 39.4587C317.199 39.6652 315.326 39.9174 313.168 40.0699C308.85 40.3749 303.402 40.2799 298.193 38.627L298.088 38.9592ZM345.346 57.7998L345.18 57.7446L345.177 57.7559L345.346 57.7998ZM350.615 61.4381L350.784 61.3958L350.748 61.2494L350.597 61.2648L350.615 61.4381ZM342.837 73.1683L342.72 73.2973L342.736 73.3126L342.757 73.3231L342.837 73.1683ZM343.213 60.1208L343.04 60.0998L343.04 60.1008L343.213 60.1208ZM342.649 43.9996L342.575 44.1577L342.584 44.1616L342.649 43.9996ZM332.988 48.0769L333.031 47.9079L332.871 48.2054L332.988 48.0769ZM333.741 48.7669L333.623 48.8954L333.769 49.0284L333.883 48.8682L333.741 48.7669ZM338.509 47.0105L338.605 46.8656L338.584 46.8513L338.559 46.8438L338.509 47.0105ZM337.317 61.689L337.49 61.7095L337.49 61.707L337.317 61.689ZM341.896 76.3048L341.871 76.4773L341.874 76.4776L341.896 76.3048ZM356.261 59.9326L356.179 59.7789L356.022 59.8626L356.109 60.0178L356.261 59.9326ZM359.585 58.0508L359.5 57.8984L359.49 57.9047L359.585 58.0508ZM361.154 57.1726L361.327 57.1937L361.368 56.8527L361.068 57.0205L361.154 57.1726ZM361.467 75.3011L361.333 75.4124L361.339 75.419L361.467 75.3011ZM373.135 72.9174L373.24 73.0561L373.346 72.9758L373.297 72.8527L373.135 72.9174ZM372.758 72.0392L372.882 71.916L372.792 71.8263L372.679 71.8841L372.758 72.0392ZM365.419 70.2828L365.246 70.2642L365.246 70.2655L365.419 70.2828ZM370.437 45.0032L370.608 45.04L370.641 44.8862L370.491 44.8375L370.437 45.0032ZM363.976 42.1177L364.057 41.9633L363.879 41.8698L363.812 42.0601L363.976 42.1177ZM361.593 54.0361L361.703 54.1712L361.755 54.1289L361.765 54.0626L361.593 54.0361ZM355.32 58.4271L355.194 58.5473L355.29 58.6483L355.409 58.5765L355.32 58.4271ZM349.737 56.1689L349.75 55.9951L349.749 55.9951L349.737 56.1689ZM345.177 57.7559C344.977 58.5234 345.076 59.6242 345.878 60.4682C346.683 61.3144 348.158 61.8653 350.633 61.6114L350.597 61.2648C348.18 61.5127 346.832 60.9659 346.131 60.2281C345.428 59.4883 345.338 58.519 345.515 57.8438L345.177 57.7559ZM350.446 61.4804C351.156 64.3196 350.584 67.9123 349.162 70.4405C348.451 71.7033 347.537 72.6843 346.483 73.1802C345.437 73.6725 344.236 73.6957 342.917 73.0136L342.757 73.3231C344.167 74.0524 345.482 74.0364 346.632 73.4956C347.773 72.9585 348.733 71.9125 349.465 70.6114C350.928 68.0114 351.517 64.3277 350.784 61.3958L350.446 61.4804ZM342.954 73.0394C342.482 72.6106 342.22 71.9161 342.116 71.0041C342.012 70.0949 342.069 68.9971 342.21 67.7939C342.351 66.5919 342.573 65.2951 342.797 63.9884C343.02 62.6838 343.245 61.3696 343.386 60.1408L343.04 60.1008C342.9 61.3185 342.677 62.6231 342.453 63.9296C342.23 65.234 342.006 66.5404 341.864 67.7535C341.722 68.9653 341.662 70.0944 341.77 71.0435C341.878 71.9898 342.156 72.7852 342.72 73.2973L342.954 73.0394ZM343.386 60.1418C343.76 57.0551 344.453 53.3305 344.634 50.2355C344.724 48.6855 344.688 47.2729 344.414 46.1593C344.141 45.0461 343.619 44.1968 342.713 43.8376L342.584 44.1616C343.34 44.461 343.815 45.1799 344.076 46.2426C344.337 47.3049 344.376 48.6758 344.286 50.2152C344.106 53.299 343.419 56.9763 343.04 60.0998L343.386 60.1418ZM342.722 43.8417C341.245 43.1514 339.942 43.0793 338.803 43.365C337.669 43.6497 336.711 44.286 335.915 44.9903C335.12 45.6939 334.476 46.4752 333.978 47.0525C333.726 47.3445 333.516 47.5785 333.34 47.7319C333.253 47.8086 333.181 47.8583 333.124 47.8855C333.067 47.9127 333.04 47.9102 333.031 47.9079L332.946 48.246C333.062 48.275 333.176 48.247 333.274 48.2001C333.372 48.1533 333.471 48.0805 333.57 47.9943C333.767 47.8222 333.992 47.5695 334.242 47.2802C334.747 46.6952 335.373 45.9356 336.146 45.2513C336.919 44.5678 337.827 43.9692 338.888 43.703C339.945 43.4379 341.166 43.4991 342.575 44.1574L342.722 43.8417ZM332.871 48.2054L333.623 48.8954L333.859 48.6385L333.106 47.9485L332.871 48.2054ZM333.741 48.7669C333.883 48.8682 333.883 48.8683 333.883 48.8683C333.883 48.8683 333.883 48.8683 333.883 48.8683C333.883 48.8683 333.883 48.8683 333.883 48.8682C333.883 48.8681 333.883 48.8678 333.884 48.8673C333.884 48.8664 333.885 48.8648 333.887 48.8627C333.89 48.8584 333.895 48.8518 333.902 48.8429C333.915 48.8253 333.936 48.7989 333.963 48.7653C334.018 48.698 334.099 48.602 334.207 48.489C334.422 48.2627 334.737 47.9702 335.139 47.7048C335.942 47.1747 337.08 46.7578 338.458 47.1772L338.559 46.8438C337.052 46.3851 335.806 46.8463 334.947 47.414C334.517 47.6975 334.182 48.0088 333.954 48.249C333.84 48.3693 333.752 48.4722 333.692 48.5456C333.663 48.5823 333.64 48.6117 333.624 48.6322C333.616 48.6424 333.61 48.6505 333.606 48.6561C333.604 48.6589 333.603 48.6612 333.601 48.6628C333.601 48.6636 333.6 48.6642 333.6 48.6647C333.6 48.6649 333.6 48.6651 333.6 48.6653C333.6 48.6654 333.6 48.6655 333.599 48.6655C333.599 48.6656 333.599 48.6657 333.741 48.7669ZM338.412 47.1555C338.434 47.1702 338.466 47.2043 338.499 47.2777C338.532 47.3502 338.561 47.4498 338.584 47.5793C338.631 47.8384 338.649 48.192 338.642 48.6309C338.629 49.5072 338.516 50.6913 338.351 52.0709C338.023 54.8204 337.488 58.3473 337.143 61.671L337.49 61.707C337.835 58.3815 338.367 54.8828 338.697 52.1122C338.862 50.7317 338.977 49.5321 338.991 48.6363C338.997 48.1892 338.979 47.8097 338.927 47.518C338.901 47.372 338.866 47.2418 338.816 47.1337C338.768 47.0266 338.701 46.9293 338.605 46.8656L338.412 47.1555ZM337.144 61.6685C336.924 63.5175 336.605 65.273 336.369 66.9118C336.134 68.5422 335.984 70.0501 336.116 71.3666C336.248 72.6869 336.665 73.8286 337.575 74.7107C338.482 75.5905 339.859 76.1921 341.871 76.4773L341.92 76.1322C339.949 75.8529 338.653 75.2705 337.817 74.4605C336.984 73.6529 336.59 72.599 336.463 71.3319C336.336 70.0608 336.48 68.5891 336.714 66.9615C336.947 65.3423 337.27 63.5615 337.49 61.7095L337.144 61.6685ZM341.874 76.4776C354.425 78.0623 360.001 66.2551 356.413 59.8475L356.109 60.0178C359.546 66.1558 354.208 77.6837 341.918 76.1319L341.874 76.4776ZM356.343 60.0864C357.279 59.5868 358.418 59.0176 359.68 58.1969L359.49 57.9047C358.244 58.7149 357.124 59.2748 356.179 59.7789L356.343 60.0864ZM359.67 58.2028L361.239 57.3246L361.068 57.0205L359.5 57.8987L359.67 58.2028ZM360.981 57.1515C360.51 61.0111 360.133 65.0021 360.101 68.3052C360.085 69.9565 360.156 71.4413 360.346 72.6543C360.535 73.8606 360.847 74.8255 361.333 75.4123L361.601 75.1899C361.178 74.6789 360.878 73.7934 360.691 72.6003C360.504 71.414 360.434 69.9505 360.45 68.3085C360.481 65.0252 360.856 61.0496 361.327 57.1937L360.981 57.1515ZM361.339 75.419C362.261 76.4234 363.485 76.7624 364.778 76.7171C366.068 76.6719 367.439 76.2452 368.688 75.7041C369.938 75.1621 371.075 74.5003 371.899 73.9749C372.312 73.712 372.646 73.4828 372.878 73.3191C372.994 73.2373 373.084 73.1718 373.146 73.1266C373.176 73.104 373.2 73.0865 373.216 73.0746C373.224 73.0686 373.23 73.0641 373.234 73.061C373.236 73.0594 373.237 73.0582 373.239 73.0574C373.239 73.057 373.239 73.0567 373.24 73.0564C373.24 73.0563 373.24 73.0562 373.24 73.0562C373.24 73.0561 373.24 73.0561 373.135 72.9174C373.029 72.7788 373.029 72.7788 373.029 72.7788C373.029 72.7789 373.029 72.7789 373.029 72.779C373.029 72.7791 373.028 72.7794 373.028 72.7797C373.027 72.7804 373.026 72.7815 373.024 72.7829C373.02 72.7857 373.014 72.79 373.007 72.7956C372.992 72.807 372.969 72.8239 372.939 72.8459C372.879 72.8898 372.791 72.954 372.677 73.0345C372.449 73.1955 372.119 73.4215 371.712 73.681C370.897 74.2005 369.777 74.8521 368.549 75.3843C367.319 75.9174 365.994 76.3258 364.766 76.3688C363.543 76.4117 362.43 76.092 361.596 75.1833L361.339 75.419ZM373.297 72.8527C373.234 72.6974 373.196 72.5499 373.135 72.3737C373.079 72.2151 373.006 72.0403 372.882 71.916L372.635 72.1624C372.699 72.2263 372.751 72.3339 372.806 72.4888C372.854 72.6263 372.91 72.8238 372.973 72.9821L373.297 72.8527ZM372.679 71.8841C371.342 72.5681 369.429 73.212 367.92 73.1511C367.167 73.1206 366.541 72.9162 366.127 72.4834C365.717 72.054 365.486 71.3667 365.592 70.3002L365.246 70.2655C365.133 71.3945 365.372 72.197 365.875 72.7241C366.375 73.2479 367.106 73.467 367.906 73.4993C369.501 73.5637 371.477 72.8904 372.838 72.1944L372.679 71.8841ZM365.592 70.3015C365.811 68.2735 367.063 61.9645 368.264 56.1493C368.863 53.2446 369.449 50.4672 369.885 48.416C370.104 47.3904 370.284 46.5464 370.41 45.9588C370.473 45.665 370.523 45.4352 370.556 45.279C370.573 45.2009 370.586 45.1411 370.595 45.1009C370.599 45.0808 370.602 45.0656 370.604 45.0554C370.605 45.0503 370.606 45.0464 370.607 45.0439C370.607 45.0426 370.607 45.0416 370.607 45.041C370.608 45.0406 370.608 45.0404 370.608 45.0402C370.608 45.0401 370.608 45.04 370.437 45.0032C370.267 44.9664 370.267 44.9665 370.267 44.9667C370.267 44.9668 370.267 44.9671 370.267 44.9674C370.267 44.9681 370.267 44.969 370.266 44.9703C370.266 44.9729 370.265 44.9767 370.264 44.9818C370.262 44.9921 370.258 45.0073 370.254 45.0274C370.245 45.0677 370.232 45.1275 370.216 45.2057C370.182 45.362 370.132 45.5918 370.069 45.8857C369.943 46.4735 369.763 47.3177 369.545 48.3435C369.108 50.3952 368.522 53.1732 367.922 56.0788C366.724 61.884 365.467 68.2148 365.246 70.2642L365.592 70.3015ZM370.491 44.8375C369.248 44.4335 367.642 43.7164 366.341 43.0973C365.691 42.7883 365.12 42.5047 364.712 42.2983C364.507 42.1952 364.343 42.1113 364.231 42.0533C364.175 42.0243 364.131 42.0018 364.102 41.9865C364.087 41.9789 364.076 41.9731 364.068 41.9692C364.065 41.9672 364.062 41.9658 364.06 41.9648C364.059 41.9643 364.058 41.9639 364.058 41.9637C364.058 41.9636 364.057 41.9635 364.057 41.9634C364.057 41.9634 364.057 41.9634 364.057 41.9634C364.057 41.9634 364.057 41.9633 363.976 42.1177C363.895 42.2721 363.896 42.2721 363.896 42.2721C363.896 42.2721 363.896 42.2721 363.896 42.2722C363.896 42.2722 363.896 42.2723 363.896 42.2725C363.897 42.2727 363.898 42.2731 363.898 42.2736C363.9 42.2746 363.903 42.2762 363.907 42.2781C363.915 42.2821 363.926 42.288 363.941 42.2958C363.971 42.3112 364.015 42.3339 364.071 42.3631C364.185 42.4215 364.349 42.5058 364.555 42.6094C364.965 42.8167 365.539 43.1016 366.191 43.412C367.493 44.0318 369.117 44.7574 370.384 45.1689L370.491 44.8375ZM363.812 42.0601C363.367 43.3321 362.298 48.303 361.42 54.0096L361.765 54.0626C362.643 48.3527 363.708 43.4125 364.141 42.1753L363.812 42.0601ZM361.483 53.901C359.795 55.2759 357.418 56.9648 355.23 58.2777L355.409 58.5765C357.612 57.2549 360.003 55.5564 361.703 54.1712L361.483 53.901ZM355.446 58.307C354.153 56.9496 352.351 56.1855 349.75 55.9951L349.724 56.3427C352.267 56.5287 353.977 57.2701 355.194 58.5473L355.446 58.307ZM349.749 55.9951C348.812 55.9305 347.768 56.1077 346.917 56.4209C346.491 56.5777 346.107 56.7707 345.806 56.9895C345.508 57.206 345.276 57.4601 345.181 57.7447L345.511 57.8549C345.573 57.6691 345.74 57.4684 346.011 57.2713C346.279 57.0765 346.632 56.897 347.037 56.748C347.848 56.4496 348.843 56.2819 349.725 56.3427L349.749 55.9951Z" fill="#E63535"/>
</svg>
