<svg width="215" height="70" viewBox="0 0 215 70" fill="none" xmlns="http://www.w3.org/2000/svg">
<g clip-path="url(#clip0_1113_10404)">
<path d="M30.3185 10.6238C17.0328 10.9734 8.31401 11.9296 4.31831 16.5C2.59973 18.4657 1.31833 22 1.81825 26C2.1903 28.9768 4.99771 32.5027 7.22886 34.0466C8.019 34.5933 8.47727 35.5523 8.31848 36.5C5.77688 51.668 24.2976 54.702 31.7111 49.5525C32.6679 48.8879 34.015 48.8538 35.0132 49.4545C37.1491 50.7399 39.461 50.8552 41.2191 50.6217C42.3748 50.4681 43.5872 51.0887 44.1043 52.1336C45.6307 55.2182 49.0095 59.1238 54.8185 59.1238C60.797 59.1238 63.8577 54.3825 64.9352 51.1297C65.2051 50.3148 66.6536 49.5802 67.4806 49.1607L67.5924 49.104C69.1503 48.3108 72.6 48.4434 74.2716 48.9552C76.4228 49.6139 78.8762 49.4165 80.5443 48.9068C81.0502 48.7522 81.5946 48.7384 82.0975 48.9025C85.7756 50.1031 88.8185 50.1607 90.8185 49.1607C92.8185 48.1607 95.2758 47.6238 97.8185 47.6238C101.818 47.6238 105.005 49.6582 105.818 50.053C106.425 50.3473 108.818 52.1238 110.318 50.9301C112.292 49.3596 113.507 50.4021 114.13 50.9301C118.291 54.4588 122.699 52.6641 125.222 50.6361C125.913 50.0808 126.864 49.9383 127.743 50.053C129.13 50.2341 130.545 49.8177 131.604 49.321C132.299 48.9953 133.356 49.3279 134.086 49.5615C134.989 49.8503 135.426 51.0581 135.318 52L133.55 64.4884C133.485 65.0534 133.886 66.1307 134.318 66.5C138.757 70.2905 149.554 69.9161 148.318 62.5C147.586 58.1062 147.158 55.1405 147.446 52.7482C147.585 51.5915 148.774 50.9806 149.939 50.9899C151.296 51.0008 152.432 50.5672 153.29 50.0212C154.249 49.4112 155.564 49.2388 156.622 49.6538C158.918 50.5541 161.347 50.1359 163.105 49.4663C164.105 49.0852 165.285 49.3518 166.13 50.0093C168.769 52.064 172.589 51.6474 174.938 50.9313C175.504 50.7586 176.117 50.7969 176.66 51.0341C180.488 52.7069 183.75 51.5107 185.641 50.1581C186.391 49.6214 187.385 49.4496 188.247 49.7772C192.141 51.2573 195.917 50.3315 198.137 49.2819C198.876 48.9323 199.753 48.9457 200.48 49.3202C206.032 52.1795 211.818 47.6238 213.818 45.1238C214.278 44.6751 214.818 42.6422 214.818 42C214.818 39.5 213.494 36.7254 212.818 36C212.332 35.4781 210.898 37.1921 211.028 36.4909L209.818 32C210.035 30.8313 212.28 24.0489 211.122 23.7827C207.776 23.014 204.71 21.2233 202.757 19.7867C201.971 19.2092 200.635 19.6915 200.199 20.5634C199.405 22.1515 194.08 22.6714 192.363 22.2192C191.073 21.8795 189.725 21.9303 188.469 22.1935C186.868 22.5294 184.925 21.3077 184.594 19.705C184.252 18.052 183.649 16.6851 183.085 15.726C182.673 15.0251 181.815 14.7919 181.041 15.0395C179.072 15.6688 175.789 16.6774 172.318 17.6238C168.806 18.5818 165.059 18.7537 162.758 18.6993C161.983 18.681 161.318 19.2922 161.318 20.0675C161.318 20.8822 160.581 21.488 159.767 21.5349C159.22 21.5664 158.738 21.6648 158.326 21.7957C157.377 22.0973 156.235 22.1487 155.318 21.7614C152.785 20.6915 150.02 21.2315 148.422 21.8576C148.022 22.0142 147.59 22.0835 147.168 22.0089L140.36 20.8076C139.794 20.7076 139.259 21.1025 139.187 21.6734C139.068 22.6281 137.641 22.9792 136.874 22.3986C134.336 20.4782 131.002 20.6856 128.83 21.2863C128.187 21.4642 127.49 21.388 126.916 21.0469C120.705 17.3507 115.508 19.9353 112.868 22.4612C112.203 23.0981 111.228 23.3373 110.334 23.1151C108.165 22.576 106.157 22.9614 104.408 23.8069C96.1647 27.3737 92.3132 25.3131 88.7927 22.3917C87.9596 21.7004 86.6236 21.6598 85.5795 21.9463C83.6365 22.4795 80.7087 22.6413 79.2456 21.9102C75.7563 20.1665 72.4373 20.7024 70.4791 21.7779C69.7245 22.1924 68.8031 22.3515 68.0038 22.0318C64.2205 20.5185 61.1915 20.9681 59.0069 21.9397C57.5205 22.6008 54.0348 21.6018 54.3185 20C54.5411 18.7431 54.6541 17.327 55.3185 15.5C56.3753 12.5938 60.3185 6.43633 53.3185 5.12381C46.1257 3.77514 45.1754 13.7437 44.5319 20.4934C44.4597 21.2509 44.3913 21.9679 44.3185 22.6238C43.6817 28.355 42.2338 31.6531 41.2661 33.2929C40.7816 34.1139 39.7476 34.1609 39.5087 33.2379C38.9957 31.255 37.9791 27.1758 38.3185 23.5C38.7465 18.8632 40.5359 14.5716 39.3185 12.6238C36.8185 8.62377 32.1518 9.79047 30.3185 10.6238Z" fill="#247062"/>
<path d="M30.3184 6.00002C11.3184 6.50002 2.31836 15 2.31836 21.5C2.31836 26.033 5.15763 29.1244 7.38878 30.6683C8.17892 31.2151 8.63719 32.1741 8.4784 33.1217C5.93681 48.2897 24.2975 50.0783 31.711 44.9288C32.6678 44.2641 34.0149 44.23 35.0131 44.8308C37.149 46.1161 39.4609 46.2314 41.219 45.9979C42.3747 45.8444 43.5871 46.4649 44.1042 47.5098C45.6306 50.5944 49.0094 54.5 54.8184 54.5C60.7968 54.5 63.8576 49.7587 64.9351 46.5059C65.205 45.691 66.6535 44.9564 67.4805 44.537L67.5922 44.4802C69.1502 43.687 72.5998 43.8196 74.2715 44.3315C76.4227 44.9901 78.8761 44.7927 80.5441 44.283C81.05 44.1284 81.5945 44.1146 82.0974 44.2788C85.7755 45.4793 88.8184 45.537 90.8184 44.537C92.8184 43.537 95.2756 43 97.8184 43C101.818 43 105.005 45.0344 105.818 45.4292C106.425 45.7235 108.818 47.5 110.318 46.3063C112.292 44.7358 113.507 45.7783 114.13 46.3063C118.291 49.835 122.699 48.0403 125.222 46.0123C125.913 45.457 126.864 45.3145 127.743 45.4292C129.13 45.6103 130.545 45.1939 131.604 44.6972C132.299 44.3715 133.356 44.7041 134.086 44.9377C134.989 45.2265 135.704 46.0047 135.596 46.9466L133.92 61.6121C133.855 62.1771 134.024 62.7544 134.456 63.1237C138.895 66.9142 149.054 65.9161 147.818 58.5C147.086 54.1062 147.158 50.5167 147.446 48.1244C147.585 46.9677 148.774 46.3569 149.939 46.3662C151.296 46.377 152.432 45.9434 153.29 45.3974C154.249 44.7875 155.564 44.615 156.622 45.03C158.918 45.9304 161.347 45.5121 163.105 44.8425C164.105 44.4614 165.285 44.7281 166.13 45.3855C168.769 47.4402 172.588 47.0236 174.937 46.3076C175.504 46.1348 176.117 46.1731 176.66 46.4103C180.488 48.0831 183.75 46.8869 185.64 45.5343C186.39 44.9977 187.385 44.8258 188.247 45.1534C192.141 46.6335 195.917 45.7077 198.137 44.6581C198.876 44.3085 199.753 44.3219 200.48 44.6964C206.032 47.5557 211.818 43 213.818 40.5C214.278 40.0513 214.451 39.3883 214.257 38.7761C213.536 36.5 212.318 34.528 211.643 33.8025C211.157 33.2806 210.898 32.5684 211.028 31.8671L212.913 21.6876C213.13 20.519 212.28 19.4251 211.122 19.159C207.775 18.3902 204.71 16.5995 202.757 15.163C201.971 14.5854 200.635 15.0678 200.199 15.9396C199.405 17.5278 194.08 18.0476 192.363 17.5954C191.073 17.2557 189.724 17.3065 188.469 17.5697C186.867 17.9056 184.925 16.684 184.594 15.0812C184.252 13.4282 183.649 12.0613 183.085 11.1022C182.673 10.4013 181.815 10.1681 181.041 10.4157C179.072 11.045 175.788 12.0536 172.318 13C168.806 13.958 165.059 14.13 162.758 14.0755C161.983 14.0572 161.318 14.6684 161.318 15.4437C161.318 16.2584 160.58 16.8642 159.767 16.9111C159.22 16.9426 158.738 17.041 158.326 17.1719C157.377 17.4735 156.235 17.525 155.318 17.1377C152.785 16.0677 150.02 16.6077 148.422 17.2338C148.022 17.3904 147.59 17.4597 147.168 17.3851L140.36 16.1838C139.793 16.0838 139.259 16.4787 139.187 17.0496C139.068 18.0043 137.641 18.3554 136.874 17.7748C134.336 15.8544 131.001 16.0618 128.829 16.6626C128.186 16.8404 127.49 16.7642 126.916 16.4231C120.705 12.7269 115.508 15.3115 112.868 17.8375C112.202 18.4743 111.227 18.7135 110.333 18.4913C108.165 17.9522 106.157 18.3377 104.407 19.1831C96.1646 22.7499 92.3131 20.6894 88.7926 17.768C87.9594 17.0766 86.6234 17.036 85.5794 17.3225C83.6364 17.8557 80.7085 18.0175 79.2455 17.2864C75.7562 15.5427 72.4372 16.0786 70.4789 17.1542C69.7244 17.5686 68.803 17.7278 68.0037 17.408C64.2204 15.8947 61.1914 16.3443 59.0067 17.3159C57.5204 17.977 55.7592 17.2369 56.0429 15.6351C56.2655 14.3781 56.654 12.827 57.3184 11C58.3752 8.09384 60.3184 1.81255 53.3184 0.500027C46.1256 -0.848641 45.1753 9.11995 44.5318 15.8697C44.4596 16.6272 44.3912 17.3441 44.3184 18C43.9711 21.1251 43.8184 23 42.8184 24C41.8184 25 40.8184 24.7234 40.3184 24C39.8184 23.2766 39.8184 22 39.8184 19.5C39.8184 14.8435 40.5358 9.94787 39.3184 7.99999C36.8184 3.99999 32.1517 5.16669 30.3184 6.00002Z" fill="white"/>
<path d="M34.8789 11.956C34.8789 11.956 35.3469 11.92 35.3469 10.948C35.3469 9.472 32.6829 9.4 32.9709 11.056C32.9349 10.624 14.6469 11.2 9.49886 16.708C4.92686 21.604 8.81486 25.24 10.6149 26.68C13.3149 28.84 21.6309 29.308 25.4469 24.7C25.4469 24.7 18.5349 27.796 13.0989 23.368C7.23086 18.58 21.2709 11.056 33.1869 12.028C33.1869 12.028 32.5749 21.676 32.0709 24.916C30.9189 31.216 30.7749 33.232 27.0309 37.012C22.6389 41.476 12.5589 41.872 13.9629 33.628L13.3869 33.772C13.3869 33.772 10.6509 41.836 20.8749 42.664C29.2989 43.348 32.9349 37.948 34.3389 31.18C34.7709 35.788 36.0309 40.612 39.3789 41.008C42.4389 41.368 44.8509 36.724 46.5069 31.756C46.3629 37.84 47.0109 48.82 53.8149 49.252C59.9709 49.612 60.3669 42.772 60.3669 42.772L59.7189 42.628C59.7189 42.628 57.3069 48.388 53.5269 44.608C48.1989 39.28 49.8909 29.452 50.1429 24.736C50.1429 24.736 51.2589 11.776 53.8149 6.124C53.7789 5.908 52.2309 5.548 51.0429 6.448C48.7389 11.164 46.5789 39.748 39.3789 37.984C32.6469 36.328 35.3109 14.44 34.8789 11.956ZM67.1973 25.312C68.1693 22.972 66.0813 21.82 63.9573 21.82C62.0853 21.82 59.9973 22.108 57.6213 25.096C54.3453 29.2 55.3173 36.04 56.9733 38.2C62.6973 45.256 70.4013 33.7 69.1413 29.272C71.6973 28.372 71.1933 27.184 71.1933 27.184C68.1693 27.688 66.5133 25.744 66.5133 25.744L63.4533 27.184C65.1453 27.688 66.8013 31.396 64.7853 36.22C62.6973 41.188 56.2173 39.712 59.0253 31.108C61.6893 22.9 67.1973 25.312 67.1973 25.312ZM88.4426 38.596C88.3706 38.416 88.3346 38.452 88.2266 38.308C86.6066 39.172 85.2386 39.676 85.4906 37.012C85.7426 34.528 88.6946 23.404 88.6946 23.404C87.2186 22.9 85.6706 21.352 85.6706 21.352C84.1226 24.124 80.0906 37.3 77.6786 36.832C76.5986 36.832 77.0306 33.7 77.3546 30.712C77.7866 26.932 78.9746 21.748 77.0306 20.92C73.6106 19.3 71.7746 23.044 71.3066 23.404L71.8106 23.836C71.8106 23.836 72.8906 22.252 74.5826 22.756C75.1226 23.152 74.2946 27.652 73.8626 31.684C73.3586 36.184 71.9906 41.188 76.3826 40.576C79.3346 40.792 83.7986 30.244 83.7986 30.244C83.1866 32.224 81.8186 37.3 83.8346 39.784C86.3906 41.728 88.4426 38.596 88.4426 38.596ZM104.42 25.276C104.528 25.42 104.564 25.384 104.672 25.528C106.184 24.484 107.516 23.872 107.516 26.536C107.516 29.02 105.68 40.648 105.68 40.648C107.372 40.972 108.884 41.548 108.884 41.548C109.892 38.452 108.992 34.096 113.924 33.052C116.372 32.368 115.508 42.232 117.992 43.348C121.988 44.68 124.436 40.216 124.436 40.216L124.22 39.82C124.22 39.82 122.996 41.116 121.268 40.792C116.984 39.028 120.98 30.964 116.012 30.82C114.716 30.928 113.672 31.18 112.916 31.36C113.492 28.912 115.508 25.744 116.984 23.692C120.908 18.22 121.088 23.116 121.088 23.188C123.608 26.5 127.928 19.516 120.62 19.588C115.256 19.624 112.592 27.58 110.72 31.936C111.116 27.508 111.836 24.376 109.892 23.404C107.156 21.712 104.42 25.276 104.42 25.276ZM135.663 24.628C129.759 13.756 116.511 34.564 127.023 40.288C130.659 42.268 133.827 34.636 133.827 34.636C133.827 34.636 132.819 40.756 137.211 40.252C139.119 40.036 139.947 38.128 140.271 36.94L140.127 36.832C137.139 41.224 135.663 35.86 135.663 34.636C135.663 33.34 136.203 26.536 136.203 26.536L133.827 25.852C133.827 25.852 133.251 34.06 131.343 36.544C130.155 38.092 126.483 40.936 127.023 34.636C128.319 22.108 135.663 25.312 135.663 24.628ZM139.066 59.332C139.066 59.332 143.314 60.916 143.17 59.872C141.586 49.648 144.214 37.768 145.942 30.856C147.238 25.744 151.198 24.088 152.386 26.104C152.638 26.5 152.854 27.508 152.926 28.84C150.874 30.136 148.966 31.72 148.066 33.052C146.41 35.536 145.33 40.324 148.282 40.864C150.406 41.26 154.33 39.424 155.77 32.62C156.058 31.072 156.238 29.632 156.238 28.372C157.282 27.76 158.038 27.4 158.038 27.4L158.11 26.392C157.534 26.536 156.85 26.788 156.166 27.112C155.95 24.196 154.834 22.252 153.178 21.532C149.722 20.74 147.022 24.592 147.022 24.592L146.734 22.468L143.458 21.892L139.066 59.332ZM148.714 35.176C149.29 33.52 151.054 31.828 152.89 30.496C152.782 32.8 152.242 35.536 150.982 37.372C148.354 41.152 147.814 37.804 148.714 35.176ZM170.887 21.784C167.215 21.568 163.327 32.26 163.327 32.26C163.939 30.316 165.667 25.204 163.687 22.684C161.131 20.74 157.459 23.836 157.459 23.836C157.531 24.016 157.567 24.232 157.675 24.376C159.295 23.512 162.283 22.792 161.995 25.456C161.707 27.94 159.295 40.072 159.295 40.072C160.735 40.576 162.931 40.864 162.931 40.864C163.687 38.344 167.647 25.42 169.771 25.636C170.851 25.672 170.959 28.228 170.599 31.216C169.087 37.984 168.871 40.324 168.871 40.324C170.347 40.828 172.255 40.864 172.255 40.864C172.759 37.336 177.007 26.176 179.095 26.428C180.175 26.428 179.671 28.696 179.311 31.684C178.843 35.464 176.719 40.684 178.663 41.512C182.047 43.168 184.315 39.64 185.071 39.208L184.999 38.416C184.999 38.416 183.055 40.324 181.363 39.82C179.383 37.804 187.663 21.352 180.643 21.928C177.691 21.712 172.687 32.044 172.687 32.044C173.479 29.668 173.947 22.18 170.887 21.784ZM179.455 19.696C179.455 19.732 180.823 15.34 179.491 15.808C175.243 17.32 166.063 18.04 166.387 17.788C166.495 18.436 166.387 19.084 166.135 19.408C172.147 21.316 178.699 19.624 179.455 19.696ZM193.226 30.316C193.01 31.144 193.442 32.692 196.25 32.404C197.078 35.716 194.918 40.756 191.786 39.136C190.598 38.056 191.678 34.456 192.002 31.648C192.434 28.084 193.586 23.152 191.678 22.396C188.366 20.848 186.71 24.88 186.134 24.736L186.566 25.132C186.566 25.132 187.646 23.62 189.302 24.124C189.842 24.484 189.014 28.732 188.618 32.548C188.114 36.796 186.674 40.288 191.246 40.936C198.374 41.836 201.506 35.14 199.49 31.54C200.03 31.252 200.678 30.928 201.398 30.46L202.298 29.956C201.758 34.384 201.434 39.1 202.478 40.36C204.494 42.556 209.174 38.992 209.174 38.992C209.102 38.812 209.066 38.596 208.958 38.488C207.41 39.28 204.494 40 204.746 37.48C204.998 35.14 207.626 22.972 207.626 22.972C206.186 22.504 203.918 21.316 203.918 21.316C203.666 22.036 203.054 24.88 202.55 28.156C201.578 28.948 200.21 29.92 198.95 30.676C198.23 29.92 197.222 29.488 195.746 29.38C194.702 29.308 193.406 29.776 193.226 30.316Z" fill="#E42032"/>
<path d="M34.8789 11.956L34.8712 11.8563L34.7615 11.8647L34.7803 11.9731L34.8789 11.956ZM32.9709 11.056L32.8723 11.0731L33.0705 11.0477L32.9709 11.056ZM9.49886 16.708L9.4258 16.6397L9.42577 16.6397L9.49886 16.708ZM10.6149 26.68L10.5524 26.7581L10.6149 26.68ZM25.4469 24.7L25.5239 24.7638L25.406 24.6087L25.4469 24.7ZM13.0989 23.368L13.0356 23.4455L13.0357 23.4455L13.0989 23.368ZM33.1869 12.028L33.2867 12.0343L33.2929 11.9363L33.195 11.9283L33.1869 12.028ZM32.0709 24.916L32.1693 24.934L32.1697 24.9314L32.0709 24.916ZM27.0309 37.012L26.9598 36.9416L26.9596 36.9419L27.0309 37.012ZM13.9629 33.628L14.0614 33.6448L14.0871 33.4939L13.9386 33.531L13.9629 33.628ZM13.3869 33.772L13.3626 33.675L13.3097 33.6882L13.2922 33.7399L13.3869 33.772ZM20.8749 42.664L20.883 42.5643H20.8829L20.8749 42.664ZM34.3389 31.18L34.4384 31.1707L34.2409 31.1597L34.3389 31.18ZM39.3789 41.008L39.3671 41.1073L39.3672 41.1073L39.3789 41.008ZM46.5069 31.756L46.6068 31.7584L46.412 31.7244L46.5069 31.756ZM53.8149 49.252L53.8085 49.3518L53.809 49.3518L53.8149 49.252ZM60.3669 42.772L60.4667 42.7778L60.4716 42.6928L60.3886 42.6744L60.3669 42.772ZM59.7189 42.628L59.7406 42.5304L59.6589 42.5122L59.6266 42.5894L59.7189 42.628ZM53.5269 44.608L53.4562 44.6787L53.5269 44.608ZM50.1429 24.736L50.0432 24.7274L50.043 24.7307L50.1429 24.736ZM53.8149 6.124L53.906 6.1652L53.9185 6.13752L53.9135 6.10756L53.8149 6.124ZM51.0429 6.448L50.9825 6.36829L50.9635 6.38268L50.953 6.4041L51.0429 6.448ZM39.3789 37.984L39.355 38.0811L39.3551 38.0811L39.3789 37.984ZM34.8789 11.956C34.8865 12.0557 34.8866 12.0557 34.8867 12.0557C34.8868 12.0557 34.8869 12.0557 34.887 12.0557C34.8871 12.0557 34.8873 12.0556 34.8874 12.0556C34.8878 12.0556 34.8881 12.0556 34.8885 12.0555C34.8893 12.0555 34.8902 12.0554 34.8912 12.0553C34.8932 12.055 34.8957 12.0547 34.8986 12.0543C34.9044 12.0535 34.9119 12.0521 34.9209 12.0501C34.939 12.046 34.963 12.0391 34.9909 12.0273C35.0472 12.0035 35.1182 11.9604 35.1873 11.8833C35.3262 11.7284 35.4469 11.4491 35.4469 10.948H35.2469C35.2469 11.4189 35.1335 11.6436 35.0384 11.7497C34.9906 11.8031 34.9445 11.8298 34.913 11.8431C34.8971 11.8498 34.8846 11.8533 34.877 11.855C34.8732 11.8558 34.8707 11.8563 34.8697 11.8564C34.8691 11.8565 34.869 11.8565 34.8692 11.8565C34.8694 11.8565 34.8696 11.8564 34.8699 11.8564C34.8701 11.8564 34.8703 11.8564 34.8705 11.8564C34.8706 11.8563 34.8707 11.8563 34.8708 11.8563C34.8709 11.8563 34.871 11.8563 34.871 11.8563C34.8711 11.8563 34.8712 11.8563 34.8789 11.956ZM35.4469 10.948C35.4469 10.5452 35.2637 10.2356 34.996 10.03C34.7308 9.82624 34.3843 9.72511 34.0501 9.7275C33.7164 9.72989 33.3832 9.83584 33.151 10.0612C32.9151 10.2901 32.7954 10.6307 32.8723 11.0731L33.0694 11.0389C33.0023 10.6533 33.1076 10.3819 33.2903 10.2047C33.4766 10.0239 33.7554 9.92961 34.0516 9.9275C34.3474 9.92538 34.6489 10.0155 34.8742 10.1886C35.0971 10.3599 35.2469 10.6128 35.2469 10.948H35.4469ZM33.0705 11.0477C33.0661 10.9949 33.0293 10.9652 33.0114 10.9533C32.9908 10.9395 32.9669 10.9302 32.9453 10.9233C32.901 10.9092 32.8414 10.898 32.771 10.8886C32.6288 10.8698 32.4239 10.8564 32.166 10.849C31.6492 10.834 30.9091 10.8427 30.0077 10.8824C28.2045 10.9619 25.7508 11.1658 23.1371 11.5556C20.5238 11.9453 17.7477 12.5213 15.3012 13.3457C12.8573 14.1691 10.7299 15.2444 9.4258 16.6397L9.57192 16.7763C10.8418 15.4176 12.931 14.3554 15.365 13.5352C17.7965 12.7159 20.56 12.1422 23.1666 11.7534C25.7729 11.3647 28.2197 11.1614 30.0165 11.0822C30.9151 11.0426 31.6499 11.0341 32.1602 11.0489C32.4158 11.0563 32.6127 11.0694 32.7448 11.0869C32.8115 11.0957 32.8573 11.1051 32.8846 11.1139C32.8988 11.1184 32.9024 11.121 32.9004 11.1197C32.8992 11.1189 32.8935 11.115 32.8874 11.1069C32.8807 11.0983 32.8728 11.0838 32.8712 11.0643L33.0705 11.0477ZM9.42577 16.6397C8.27379 17.8734 7.64921 19.0336 7.39401 20.106C7.13863 21.1791 7.25477 22.1577 7.5735 23.0245C8.20915 24.7531 9.6506 26.0367 10.5524 26.7581L10.6773 26.6019C9.77912 25.8833 8.37657 24.6289 7.76121 22.9555C7.45445 22.1213 7.34333 21.1829 7.58858 20.1523C7.83401 19.1209 8.43793 17.9906 9.57195 16.7763L9.42577 16.6397ZM10.5524 26.7581C11.2436 27.311 12.2857 27.7499 13.5127 28.0274C14.7414 28.3052 16.163 28.4229 17.6189 28.3278C20.5281 28.1378 23.592 27.0966 25.5239 24.7638L25.3698 24.6362C23.4857 26.9114 20.4836 27.9402 17.6058 28.1282C16.1683 28.2221 14.766 28.1058 13.5569 27.8323C12.3461 27.5586 11.3362 27.129 10.6773 26.6019L10.5524 26.7581ZM25.4469 24.7C25.406 24.6087 25.406 24.6087 25.406 24.6087C25.4059 24.6088 25.4059 24.6088 25.4058 24.6088C25.4057 24.6089 25.4054 24.609 25.405 24.6092C25.4043 24.6095 25.4031 24.61 25.4016 24.6107C25.3984 24.6121 25.3936 24.6142 25.3872 24.6169C25.3744 24.6225 25.3551 24.6307 25.3295 24.6413C25.2785 24.6626 25.2025 24.6933 25.1037 24.7309C24.906 24.8062 24.617 24.909 24.253 25.0188C23.5249 25.2384 22.4978 25.4854 21.3022 25.5949C18.9107 25.814 15.8531 25.4825 13.162 23.2905L13.0357 23.4455C15.7807 25.6815 18.897 26.016 21.3205 25.7941C22.5324 25.6831 23.573 25.4328 24.3108 25.2103C24.6798 25.099 24.9733 24.9946 25.1748 24.9178C25.2756 24.8795 25.3535 24.848 25.4063 24.826C25.4327 24.815 25.4529 24.8064 25.4665 24.8005C25.4734 24.7976 25.4786 24.7953 25.4821 24.7938C25.4839 24.793 25.4852 24.7924 25.4862 24.792C25.4867 24.7917 25.487 24.7916 25.4873 24.7915C25.4874 24.7914 25.4875 24.7914 25.4876 24.7913C25.4877 24.7913 25.4877 24.7913 25.4469 24.7ZM13.1621 23.2905C12.441 22.7022 12.0341 22.0788 11.8859 21.4435C11.7378 20.8086 11.8453 20.1495 12.1759 19.484C12.8396 18.1478 14.3953 16.8012 16.5222 15.6255C20.7718 13.2766 27.2413 11.6433 33.1787 12.1277L33.195 11.9283C27.2165 11.4407 20.7079 13.0834 16.4255 15.4505C14.2864 16.6328 12.6876 18.0042 11.9968 19.395C11.6501 20.093 11.5304 20.7996 11.6911 21.4889C11.8518 22.1777 12.2897 22.8368 13.0356 23.4455L13.1621 23.2905ZM33.1869 12.028C33.0871 12.0217 33.0871 12.0217 33.0871 12.0218C33.087 12.0218 33.087 12.022 33.087 12.0221C33.087 12.0224 33.087 12.0228 33.087 12.0234C33.0869 12.0246 33.0868 12.0263 33.0866 12.0287C33.0863 12.0333 33.0859 12.0402 33.0853 12.0494C33.0841 12.0677 33.0824 12.095 33.0801 12.1307C33.0755 12.2021 33.0687 12.3073 33.0598 12.4423C33.0421 12.7124 33.0162 13.1018 32.9836 13.5793C32.9184 14.5342 32.8261 15.8412 32.7182 17.2494C32.5021 20.0674 32.2233 23.2852 31.972 24.9006L32.1697 24.9314C32.4224 23.3068 32.7016 20.0806 32.9176 17.2646C33.0256 15.8558 33.1179 14.5483 33.1831 13.5929C33.2158 13.1153 33.2416 12.7257 33.2594 12.4554C33.2682 12.3203 33.275 12.2151 33.2797 12.1436C33.282 12.1078 33.2837 12.0805 33.2849 12.0622C33.2855 12.053 33.2859 12.046 33.2862 12.0414C33.2864 12.039 33.2865 12.0373 33.2865 12.0361C33.2866 12.0355 33.2866 12.0351 33.2866 12.0348C33.2866 12.0346 33.2866 12.0345 33.2867 12.0344C33.2867 12.0344 33.2867 12.0343 33.1869 12.028ZM31.9725 24.898C31.3954 28.0537 31.0732 30.1209 30.429 31.8745C29.7873 33.6213 28.825 35.0585 26.9598 36.9416L27.1019 37.0824C28.9807 35.1855 29.9624 33.7247 30.6167 31.9435C31.2685 30.1691 31.5943 28.0783 32.1692 24.934L31.9725 24.898ZM26.9596 36.9419C24.7853 39.1518 21.1983 40.3558 18.3362 39.9863C16.9073 39.8019 15.6693 39.2269 14.8738 38.2012C14.0793 37.1766 13.7138 35.6863 14.0614 33.6448L13.8643 33.6112C13.51 35.6917 13.878 37.2434 14.7158 38.3237C15.5527 39.4028 16.8459 39.9956 18.3106 40.1847C21.2354 40.5622 24.8844 39.3362 27.1021 37.0821L26.9596 36.9419ZM13.9386 33.531L13.3626 33.675L13.4111 33.869L13.9871 33.725L13.9386 33.531ZM13.3869 33.772C13.2922 33.7399 13.2921 33.74 13.2921 33.7401C13.2921 33.7402 13.292 33.7403 13.292 33.7405C13.2919 33.7408 13.2917 33.7412 13.2915 33.7418C13.2911 33.7429 13.2906 33.7445 13.2899 33.7466C13.2885 33.7508 13.2866 33.7569 13.284 33.7648C13.279 33.7807 13.2717 33.8041 13.2627 33.8344C13.2448 33.895 13.22 33.9835 13.1922 34.0961C13.1366 34.3214 13.0688 34.6435 13.0199 35.0325C12.9221 35.8096 12.8988 36.8578 13.2006 37.9345C13.5028 39.0129 14.1308 40.1185 15.3322 41.0058C16.5324 41.8922 18.2978 42.5556 20.8668 42.7637L20.8829 42.5643C18.3399 42.3584 16.6133 41.7033 15.451 40.8449C14.2899 39.9873 13.6849 38.9216 13.3931 37.8805C13.1009 36.8377 13.1226 35.8181 13.2183 35.0574C13.2661 34.6774 13.3323 34.3631 13.3864 34.1441C13.4134 34.0346 13.4374 33.9491 13.4545 33.8911C13.4631 33.8622 13.4699 33.8401 13.4746 33.8255C13.4769 33.8182 13.4787 33.8127 13.4799 33.8091C13.4805 33.8073 13.4809 33.806 13.4812 33.8052C13.4813 33.8047 13.4814 33.8045 13.4815 33.8043C13.4815 33.8042 13.4815 33.8042 13.4816 33.8041C13.4816 33.8041 13.4816 33.8041 13.3869 33.772ZM20.8668 42.7637C25.1037 43.1077 28.1486 41.9213 30.3096 39.7877C32.4669 37.6577 33.7328 34.5939 34.4368 31.2003L34.2409 31.1597C33.5409 34.5341 32.2869 37.5543 30.1691 39.6453C28.0551 41.7327 25.07 42.9043 20.883 42.5643L20.8668 42.7637ZM34.2393 31.1893C34.4556 33.497 34.8799 35.8672 35.6735 37.713C36.4663 39.5568 37.64 40.903 39.3671 41.1073L39.3906 40.9087C37.7698 40.717 36.6394 39.4532 35.8572 37.634C35.0759 35.8168 34.6541 33.471 34.4384 31.1707L34.2393 31.1893ZM39.3672 41.1073C40.9565 41.2943 42.3553 40.1795 43.5518 38.4366C44.7522 36.6881 45.7727 34.2747 46.6017 31.7876L46.412 31.7244C45.585 34.2053 44.5715 36.5979 43.3869 38.3234C42.1985 40.0545 40.8612 41.0817 39.3905 40.9087L39.3672 41.1073ZM46.4069 31.7536C46.3348 34.7982 46.4605 39.0763 47.459 42.6504C48.456 46.2188 50.3384 49.1315 53.8085 49.3518L53.8212 49.1522C50.4873 48.9405 48.6437 46.1472 47.6517 42.5966C46.6613 39.0517 46.5349 34.7978 46.6068 31.7584L46.4069 31.7536ZM53.809 49.3518C55.3678 49.443 56.5683 49.0783 57.4904 48.4751C58.4113 47.8726 59.0482 47.0364 59.488 46.1932C59.9278 45.3502 60.1721 44.4971 60.3067 43.8557C60.374 43.5347 60.4139 43.2661 60.4371 43.0774C60.4487 42.983 60.456 42.9086 60.4605 42.8575C60.4628 42.832 60.4643 42.8123 60.4653 42.7988C60.4658 42.7921 60.4661 42.787 60.4663 42.7835C60.4665 42.7817 60.4665 42.7803 60.4666 42.7794C60.4666 42.7789 60.4667 42.7785 60.4667 42.7783C60.4667 42.7781 60.4667 42.778 60.4667 42.7779C60.4667 42.7779 60.4667 42.7778 60.3669 42.772C60.267 42.7662 60.267 42.7662 60.267 42.7662C60.267 42.7662 60.267 42.7663 60.267 42.7664C60.267 42.7665 60.267 42.7668 60.267 42.7671C60.2669 42.7678 60.2669 42.7689 60.2668 42.7705C60.2666 42.7735 60.2663 42.7782 60.2658 42.7844C60.2649 42.7968 60.2635 42.8155 60.2613 42.84C60.257 42.8889 60.2498 42.9611 60.2386 43.053C60.216 43.237 60.1769 43.4999 60.1109 43.8146C59.9788 44.4444 59.7394 45.2788 59.3107 46.1008C58.882 46.9226 58.2657 47.7289 57.3809 48.3077C56.4974 48.8857 55.3399 49.241 53.8207 49.1522L53.809 49.3518ZM60.3886 42.6744L59.7406 42.5304L59.6972 42.7256L60.3452 42.8696L60.3886 42.6744ZM59.7189 42.628C59.6266 42.5894 59.6266 42.5894 59.6266 42.5894C59.6266 42.5894 59.6266 42.5894 59.6266 42.5895C59.6265 42.5896 59.6264 42.5898 59.6263 42.5901C59.626 42.5907 59.6257 42.5917 59.6251 42.593C59.624 42.5955 59.6223 42.5994 59.6201 42.6046C59.6156 42.615 59.6088 42.6305 59.5997 42.6507C59.5815 42.6911 59.5542 42.7502 59.518 42.8242C59.4456 42.9724 59.3379 43.1802 59.1969 43.4179C58.9144 43.8944 58.5008 44.4868 57.9735 44.9612C57.4461 45.4356 56.8126 45.7852 56.0879 45.7933C55.365 45.8014 54.5299 45.4696 53.5976 44.5373L53.4562 44.6787C54.4138 45.6364 55.2977 46.0021 56.0902 45.9933C56.8808 45.9845 57.5591 45.6029 58.1072 45.1098C58.6554 44.6167 59.0811 44.0054 59.3689 43.5199C59.5131 43.2768 59.6234 43.0641 59.6977 42.912C59.7349 42.8359 59.763 42.775 59.782 42.7328C59.7915 42.7118 59.7987 42.6954 59.8036 42.6842C59.806 42.6786 59.8078 42.6743 59.8091 42.6714C59.8097 42.6699 59.8102 42.6688 59.8105 42.668C59.8107 42.6676 59.8108 42.6673 59.8109 42.667C59.811 42.6669 59.811 42.6668 59.811 42.6668C59.8111 42.6667 59.8111 42.6666 59.7189 42.628ZM53.5976 44.5373C50.9594 41.8992 50.0532 38.1403 49.8422 34.4368C49.6311 30.7315 50.1161 27.1103 50.2427 24.7413L50.043 24.7307C49.9176 27.0777 49.4306 30.7285 49.6425 34.4482C49.8545 38.1697 50.7663 41.9888 53.4562 44.6787L53.5976 44.5373ZM50.1429 24.736C50.2425 24.7446 50.2425 24.7445 50.2425 24.7444C50.2425 24.7444 50.2425 24.7442 50.2425 24.744C50.2426 24.7436 50.2426 24.7431 50.2427 24.7423C50.2428 24.7407 50.243 24.7384 50.2433 24.7353C50.2438 24.7291 50.2447 24.7198 50.2458 24.7075C50.2479 24.6829 50.2512 24.6462 50.2556 24.5982C50.2644 24.5021 50.2776 24.3603 50.2953 24.1778C50.3308 23.8127 50.3843 23.2849 50.4566 22.6337C50.601 21.3313 50.8202 19.5361 51.1192 17.5645C51.7179 13.6172 52.6344 8.97706 53.906 6.1652L53.7237 6.08279C52.4394 8.92294 51.5199 13.5888 50.9215 17.5345C50.622 19.5094 50.4025 21.3074 50.2578 22.6117C50.1854 23.2638 50.1318 23.7926 50.0963 24.1584C50.0785 24.3413 50.0652 24.4835 50.0564 24.58C50.052 24.6282 50.0487 24.665 50.0465 24.6898C50.0454 24.7022 50.0446 24.7116 50.0441 24.7179C50.0438 24.721 50.0436 24.7234 50.0434 24.725C50.0434 24.7258 50.0433 24.7264 50.0433 24.7268C50.0433 24.727 50.0433 24.7272 50.0432 24.7273C50.0432 24.7274 50.0432 24.7274 50.1429 24.736ZM53.9135 6.10756C53.9067 6.06698 53.8844 6.03543 53.8633 6.01318C53.8414 5.99024 53.8143 5.9704 53.7855 5.95316C53.7277 5.91862 53.6511 5.88747 53.5621 5.86107C53.3831 5.80799 53.1397 5.76982 52.8617 5.7675C52.3058 5.76287 51.5984 5.90164 50.9825 6.36829L51.1032 6.52771C51.6753 6.09436 52.3359 5.96313 52.86 5.9675C53.122 5.96968 53.3466 6.00576 53.5052 6.05281C53.5849 6.07646 53.6444 6.10184 53.6828 6.12482C53.7021 6.13634 53.7131 6.1455 53.7184 6.15113C53.7245 6.15744 53.7185 6.15401 53.7162 6.14044L53.9135 6.10756ZM50.953 6.4041C50.6597 7.00456 50.3718 7.97675 50.0782 9.20619C49.784 10.438 49.4822 11.9364 49.1627 13.5942C48.5233 16.9113 47.8129 20.8684 46.9494 24.6236C46.0856 28.3801 45.0707 31.9252 43.8254 34.4192C43.2025 35.6666 42.5261 36.6427 41.789 37.2517C41.0555 37.858 40.2659 38.0984 39.4027 37.8869L39.3551 38.0811C40.2918 38.3106 41.1447 38.0437 41.9164 37.4059C42.6847 36.771 43.3762 35.7665 44.0043 34.5085C45.261 31.9918 46.2801 28.4268 47.1443 24.6684C48.0088 20.9086 48.7204 16.9457 49.3591 13.632C49.6785 11.9745 49.9797 10.4798 50.2728 9.25265C50.5664 8.02312 50.8501 7.07044 51.1327 6.49189L50.953 6.4041ZM39.4027 37.8869C37.7752 37.4865 36.6941 35.8568 35.9921 33.5388C35.2922 31.2275 34.9809 28.2689 34.8663 25.2767C34.7517 22.2858 34.8337 19.2683 34.9175 16.8414C34.9594 15.6287 35.0017 14.5621 35.0201 13.7218C35.0384 12.8854 35.0334 12.261 34.9774 11.9389L34.7803 11.9731C34.8323 12.272 34.8386 12.8749 34.8202 13.7175C34.8018 14.5561 34.7595 15.62 34.7176 16.8345C34.6338 19.262 34.5515 22.2857 34.6664 25.2843C34.7813 28.2816 35.0933 31.2607 35.8007 33.5968C36.5061 35.9262 37.6165 37.6535 39.355 38.0811L39.4027 37.8869ZM67.1973 25.312L67.1572 25.4036L67.2505 25.4445L67.2896 25.3504L67.1973 25.312ZM57.6213 25.096L57.6995 25.1584L57.6996 25.1582L57.6213 25.096ZM56.9733 38.2L56.8939 38.2609L56.8956 38.263L56.9733 38.2ZM69.1413 29.272L69.1081 29.1777L69.0194 29.2089L69.0451 29.2994L69.1413 29.272ZM71.1933 27.184L71.2854 27.1449L71.2546 27.0724L71.1769 27.0854L71.1933 27.184ZM66.5133 25.744L66.5894 25.6792L66.5399 25.621L66.4707 25.6535L66.5133 25.744ZM63.4533 27.184L63.4107 27.0935L63.1737 27.2051L63.4248 27.2798L63.4533 27.184ZM64.7853 36.22L64.8775 36.2587L64.8776 36.2586L64.7853 36.22ZM59.0253 31.108L59.1204 31.139L59.1204 31.1389L59.0253 31.108ZM67.2896 25.3504C67.5387 24.7509 67.5949 24.2194 67.4976 23.7585C67.4003 23.2973 67.1509 22.9155 66.804 22.6131C66.1134 22.0112 65.0333 21.72 63.9573 21.72V21.92C65.0053 21.92 66.0312 22.2048 66.6726 22.7639C66.9916 23.042 67.2148 23.387 67.302 23.7998C67.3892 24.2131 67.3419 24.7031 67.1049 25.2736L67.2896 25.3504ZM63.9573 21.72C63.016 21.72 62.0104 21.7923 60.9393 22.2454C59.8679 22.6987 58.7392 23.5295 57.543 25.0338L57.6996 25.1582C58.8794 23.6745 59.9827 22.8673 61.0173 22.4296C62.0522 21.9917 63.0266 21.92 63.9573 21.92V21.72ZM57.5431 25.0336C55.8857 27.1099 55.3071 29.8717 55.3478 32.3786C55.3885 34.882 56.0475 37.1568 56.8939 38.2608L57.0527 38.1392C56.2431 37.0832 55.5881 34.858 55.5478 32.3754C55.5075 29.8963 56.0809 27.1861 57.6995 25.1584L57.5431 25.0336ZM56.8956 38.263C58.3437 40.0481 59.9298 40.6684 61.4771 40.5039C63.017 40.3401 64.4976 39.4012 65.7481 38.1121C66.9998 36.8218 68.0305 35.1714 68.6695 33.5643C69.307 31.9609 69.5615 30.3832 69.2375 29.2446L69.0451 29.2994C69.3511 30.3748 69.1151 31.9021 68.4836 33.4904C67.8536 35.0749 66.8368 36.7027 65.6045 37.9729C64.371 39.2443 62.9311 40.1481 61.456 40.305C59.9883 40.4611 58.4649 39.8799 57.051 38.137L56.8956 38.263ZM69.1745 29.3663C70.4653 28.9118 71.0067 28.3766 71.2162 27.9332C71.3209 27.7117 71.3401 27.5181 71.3319 27.3779C71.3279 27.308 71.317 27.2517 71.3068 27.2119C71.3017 27.1921 71.2968 27.1763 71.2929 27.165C71.291 27.1594 71.2893 27.1549 71.288 27.1515C71.2873 27.1498 71.2868 27.1484 71.2864 27.1473C71.2861 27.1468 71.2859 27.1463 71.2858 27.1459C71.2857 27.1457 71.2856 27.1455 71.2855 27.1454C71.2855 27.1453 71.2855 27.1452 71.2854 27.1451C71.2854 27.145 71.2854 27.1449 71.1933 27.184C71.1012 27.2231 71.1012 27.223 71.1012 27.2229C71.1012 27.2229 71.1011 27.2228 71.1011 27.2227C71.1011 27.2226 71.101 27.2226 71.101 27.2225C71.101 27.2224 71.1009 27.2224 71.101 27.2224C71.101 27.2224 71.1011 27.2228 71.1013 27.2234C71.1018 27.2245 71.1026 27.2268 71.1038 27.2301C71.106 27.2366 71.1094 27.2473 71.1131 27.2617C71.1205 27.2904 71.129 27.334 71.1323 27.3895C71.1387 27.5001 71.1242 27.6598 71.0354 27.8478C70.8579 28.2234 70.3733 28.7322 69.1081 29.1777L69.1745 29.3663ZM71.1769 27.0854C69.6902 27.3331 68.5424 26.9793 67.7664 26.5648C67.378 26.3573 67.0825 26.1346 66.8845 25.9641C66.7856 25.8789 66.7111 25.8069 66.6617 25.7565C66.637 25.7313 66.6186 25.7116 66.6065 25.6983C66.6005 25.6917 66.596 25.6867 66.5932 25.6835C66.5918 25.6819 66.5907 25.6807 66.5901 25.6799C66.5898 25.6796 66.5896 25.6793 66.5895 25.6792C66.5894 25.6791 66.5894 25.6791 66.5894 25.6791C66.5894 25.6791 66.5894 25.6791 66.5894 25.6791C66.5894 25.6791 66.5894 25.6792 66.5133 25.744C66.4372 25.8088 66.4372 25.8089 66.4373 25.8089C66.4373 25.809 66.4373 25.809 66.4374 25.8091C66.4375 25.8092 66.4376 25.8093 66.4377 25.8095C66.438 25.8098 66.4384 25.8103 66.4389 25.8109C66.4399 25.812 66.4413 25.8136 66.4431 25.8156C66.4467 25.8197 66.4519 25.8256 66.4587 25.8331C66.4724 25.8481 66.4925 25.8696 66.519 25.8966C66.5719 25.9506 66.6505 26.0265 66.754 26.1157C66.9611 26.2939 67.2686 26.5257 67.6722 26.7412C68.4802 27.1727 69.6724 27.5389 71.2097 27.2826L71.1769 27.0854ZM66.4707 25.6535L63.4107 27.0935L63.4959 27.2745L66.5559 25.8345L66.4707 25.6535ZM63.4248 27.2798C64.2201 27.5168 65.0423 28.5263 65.4124 30.1048C65.7807 31.6753 65.6938 33.7868 64.693 36.1814L64.8776 36.2586C65.8928 33.8292 65.9859 31.6747 65.6072 30.0592C65.2303 28.4517 64.3785 27.3552 63.4818 27.0882L63.4248 27.2798ZM64.6931 36.1813C63.6622 38.6342 61.5747 39.4502 60.1167 38.6654C58.6549 37.8787 57.72 35.4298 59.1204 31.139L58.9302 31.077C57.5226 35.3902 58.4237 37.9813 60.0219 38.8416C61.6239 39.7038 63.8204 38.7738 64.8775 36.2587L64.6931 36.1813ZM59.1204 31.1389C60.4445 27.0592 62.4657 25.6418 64.1343 25.2291C64.9725 25.0217 65.7297 25.0657 66.2778 25.1619C66.5517 25.2099 66.7728 25.2709 66.9249 25.3196C67.001 25.344 67.0597 25.3653 67.0991 25.3803C67.1188 25.3879 67.1337 25.3938 67.1434 25.3978C67.1483 25.3998 67.1519 25.4014 67.1542 25.4023C67.1554 25.4028 67.1562 25.4032 67.1567 25.4034C67.1569 25.4035 67.1571 25.4036 67.1572 25.4036C67.1572 25.4036 67.1572 25.4036 67.1572 25.4036C67.1572 25.4036 67.1572 25.4036 67.1973 25.312C67.2374 25.2204 67.2373 25.2204 67.2372 25.2203C67.2372 25.2203 67.237 25.2202 67.2369 25.2202C67.2366 25.2201 67.2363 25.2199 67.2359 25.2197C67.2351 25.2194 67.2339 25.2189 67.2324 25.2182C67.2294 25.217 67.225 25.2151 67.2194 25.2128C67.2082 25.2082 67.1918 25.2016 67.1705 25.1935C67.1279 25.1772 67.0657 25.1547 66.9859 25.1292C66.8264 25.0781 66.5964 25.0147 66.3123 24.9649C65.7444 24.8653 64.9581 24.8193 64.0863 25.0349C62.3349 25.4682 60.2701 26.9488 58.9302 31.0771L59.1204 31.1389ZM88.4426 38.596L88.5263 38.6508L88.5548 38.6072L88.5355 38.5589L88.4426 38.596ZM88.2266 38.308L88.3066 38.248L88.2552 38.1794L88.1796 38.2198L88.2266 38.308ZM85.4906 37.012L85.3912 37.0019L85.3911 37.0026L85.4906 37.012ZM88.6946 23.404L88.7913 23.4296L88.8152 23.3395L88.727 23.3094L88.6946 23.404ZM85.6706 21.352L85.7413 21.2813L85.6478 21.1878L85.5833 21.3032L85.6706 21.352ZM77.6786 36.832L77.6977 36.7338L77.6883 36.732H77.6786V36.832ZM77.3546 30.712L77.2553 30.7006L77.2552 30.7012L77.3546 30.712ZM77.0306 20.92L76.9878 21.0104L76.9915 21.012L77.0306 20.92ZM71.3066 23.404L71.2457 23.3247L71.1481 23.3998L71.2416 23.4799L71.3066 23.404ZM71.8106 23.836L71.7456 23.9119L71.8304 23.9846L71.8933 23.8923L71.8106 23.836ZM74.5826 22.756L74.6418 22.6754L74.6278 22.6651L74.6112 22.6602L74.5826 22.756ZM73.8626 31.684L73.962 31.6951L73.9621 31.6947L73.8626 31.684ZM76.3826 40.576L76.3899 40.4763L76.3793 40.4755L76.3688 40.477L76.3826 40.576ZM83.7986 30.244L83.8942 30.2735L83.7066 30.205L83.7986 30.244ZM83.8346 39.784L83.757 39.847L83.7646 39.8563L83.7741 39.8636L83.8346 39.784ZM88.5355 38.5589C88.4956 38.4593 88.462 38.4109 88.4189 38.3678C88.3807 38.3296 88.355 38.3124 88.3066 38.248L88.1466 38.368C88.2063 38.4476 88.2526 38.4844 88.2774 38.5092C88.2973 38.5291 88.3176 38.5527 88.3498 38.6331L88.5355 38.5589ZM88.1796 38.2198C87.7752 38.4354 87.3913 38.626 87.0463 38.7506C86.699 38.876 86.405 38.9291 86.1756 38.8848C85.9568 38.8426 85.7848 38.7095 85.6776 38.4247C85.5675 38.1321 85.5277 37.6822 85.5902 37.0214L85.3911 37.0026C85.3276 37.6738 85.3643 38.1599 85.4904 38.4951C85.6195 38.838 85.8435 39.0244 86.1377 39.0812C86.4213 39.1359 86.7573 39.0675 87.1142 38.9387C87.4735 38.809 87.868 38.6126 88.2737 38.3962L88.1796 38.2198ZM85.5901 37.0221C85.7152 35.7891 86.5138 32.3959 87.2842 29.3007C87.6688 27.7553 88.0456 26.2875 88.3262 25.2061C88.4666 24.6653 88.5828 24.2212 88.664 23.9123C88.7046 23.7578 88.7364 23.6371 88.7581 23.5551C88.7689 23.5141 88.7772 23.4827 88.7828 23.4616C88.7856 23.451 88.7877 23.443 88.7892 23.4377C88.7899 23.435 88.7904 23.433 88.7908 23.4317C88.7909 23.431 88.7911 23.4305 88.7912 23.4302C88.7912 23.43 88.7912 23.4299 88.7913 23.4298C88.7913 23.4297 88.7913 23.4296 88.6946 23.404C88.598 23.3783 88.598 23.3784 88.598 23.3785C88.5979 23.3786 88.5979 23.3787 88.5978 23.3789C88.5978 23.3792 88.5976 23.3797 88.5974 23.3804C88.5971 23.3817 88.5965 23.3838 88.5958 23.3864C88.5944 23.3918 88.5923 23.3998 88.5895 23.4104C88.5839 23.4315 88.5756 23.4629 88.5647 23.504C88.5431 23.5861 88.5112 23.7069 88.4706 23.8614C88.3894 24.1705 88.273 24.6149 88.1327 25.1558C87.8519 26.2377 87.475 27.7062 87.0901 29.2523C86.3215 32.3401 85.5181 35.7509 85.3912 37.0019L85.5901 37.0221ZM88.727 23.3094C88.0052 23.0629 87.2599 22.5584 86.691 22.1104C86.4075 21.8872 86.1697 21.6796 86.0029 21.5278C85.9195 21.4519 85.8539 21.3901 85.8092 21.3473C85.7869 21.3259 85.7698 21.3093 85.7584 21.2981C85.7526 21.2925 85.7483 21.2882 85.7455 21.2854C85.7441 21.284 85.743 21.2829 85.7423 21.2822C85.742 21.2819 85.7417 21.2816 85.7415 21.2815C85.7415 21.2814 85.7414 21.2813 85.7414 21.2813C85.7414 21.2813 85.7414 21.2813 85.7413 21.2813C85.7413 21.2813 85.7413 21.2813 85.6706 21.352C85.5999 21.4227 85.5999 21.4227 85.6 21.4228C85.6 21.4228 85.6 21.4228 85.6 21.4228C85.6001 21.4229 85.6002 21.423 85.6003 21.4231C85.6005 21.4233 85.6008 21.4236 85.6012 21.424C85.602 21.4248 85.6032 21.426 85.6048 21.4275C85.6079 21.4306 85.6124 21.4351 85.6184 21.4409C85.6304 21.4527 85.648 21.4698 85.6709 21.4917C85.7166 21.5356 85.7835 21.5986 85.8683 21.6757C86.0378 21.8299 86.2793 22.0408 86.5673 22.2676C87.1414 22.7196 87.9081 23.2411 88.6623 23.4986L88.727 23.3094ZM85.5833 21.3032C85.1922 22.0036 84.6472 23.3545 84.0149 24.9695C83.3811 26.5883 82.6573 28.4788 81.9064 30.2683C81.1552 32.0586 80.3791 33.7425 79.6419 34.9483C79.273 35.5518 78.9172 36.03 78.5829 36.3418C78.2455 36.6564 77.9506 36.7829 77.6977 36.7338L77.6596 36.9302C78.0097 36.9981 78.3685 36.8152 78.7193 36.488C79.0732 36.158 79.4401 35.6619 79.8126 35.0527C80.5582 33.833 81.3391 32.1374 82.0909 30.3457C82.843 28.5532 83.5681 26.6592 84.2011 25.0425C84.8356 23.422 85.3751 22.0864 85.7579 21.4008L85.5833 21.3032ZM77.6786 36.732C77.571 36.732 77.4849 36.6942 77.4123 36.6211C77.3369 36.5453 77.2729 36.428 77.2223 36.2661C77.1209 35.9416 77.0834 35.4699 77.0901 34.8937C77.1036 33.7434 77.2917 32.2203 77.4541 30.7228L77.2552 30.7012C77.0936 32.1917 76.9037 33.7286 76.8901 34.8913C76.8834 35.4716 76.9201 35.9697 77.0314 36.3258C77.0871 36.5042 77.1639 36.6549 77.2704 36.7621C77.3796 36.8719 77.5163 36.932 77.6786 36.932V36.732ZM77.454 30.7234C77.6687 28.8444 78.0753 26.5893 78.1835 24.7148C78.2376 23.7758 78.2181 22.9206 78.0595 22.2449C77.9011 21.5701 77.5986 21.0532 77.0698 20.828L76.9915 21.012C77.4347 21.2008 77.7127 21.6424 77.8648 22.2906C78.0167 22.9379 78.0376 23.7701 77.9838 24.7032C77.876 26.5727 77.4725 28.7996 77.2553 30.7006L77.454 30.7234ZM77.0734 20.8296C76.2007 20.4162 75.423 20.3427 74.7401 20.4759C74.0587 20.6088 73.4791 20.946 72.9981 21.3423C72.5171 21.7385 72.1316 22.1964 71.8384 22.575C71.693 22.7628 71.5665 22.9362 71.4671 23.0669C71.3629 23.2039 71.2914 23.2896 71.2457 23.3247L71.3676 23.4833C71.4389 23.4284 71.5272 23.3183 71.6263 23.188C71.7302 23.0514 71.8506 22.8859 71.9966 22.6974C72.2862 22.3234 72.6611 21.879 73.1252 21.4967C73.5891 21.1145 74.139 20.7969 74.7784 20.6722C75.4163 20.5478 76.1506 20.6138 76.9878 21.0104L77.0734 20.8296ZM71.2416 23.4799L71.7456 23.9119L71.8757 23.7601L71.3717 23.3281L71.2416 23.4799ZM71.8106 23.836C71.8933 23.8923 71.8932 23.8924 71.8932 23.8924L71.8932 23.8924C71.8932 23.8924 71.8932 23.8924 71.8933 23.8923C71.8933 23.8922 71.8935 23.892 71.8937 23.8918C71.8941 23.8912 71.8947 23.8903 71.8956 23.889C71.8974 23.8864 71.9003 23.8824 71.9041 23.877C71.9119 23.8664 71.9236 23.8505 71.9394 23.8302C71.9708 23.7897 72.018 23.7318 72.0799 23.6636C72.2038 23.527 72.3861 23.3503 72.619 23.1892C73.0843 22.8675 73.746 22.6111 74.5541 22.8518L74.6112 22.6602C73.7273 22.3969 73.003 22.6805 72.5053 23.0248C72.2567 23.1967 72.0632 23.3845 71.9318 23.5292C71.866 23.6016 71.8156 23.6635 71.7813 23.7076C71.7642 23.7297 71.7511 23.7473 71.7422 23.7596C71.7378 23.7658 71.7343 23.7706 71.732 23.774C71.7308 23.7757 71.7299 23.777 71.7292 23.7779C71.7289 23.7784 71.7286 23.7788 71.7284 23.7791C71.7283 23.7792 71.7282 23.7794 71.7282 23.7795C71.7281 23.7795 71.7281 23.7796 71.7281 23.7796C71.728 23.7796 71.728 23.7797 71.8106 23.836ZM74.5235 22.8366C74.5371 22.8466 74.5564 22.8693 74.5761 22.9161C74.5956 22.9621 74.6125 23.0244 74.6258 23.1044C74.6526 23.2645 74.6629 23.4815 74.6587 23.7495C74.6504 24.2847 74.5845 25.0061 74.4878 25.845C74.2952 27.5153 73.9789 29.6606 73.7632 31.6733L73.9621 31.6947C74.1784 29.6754 74.492 27.5547 74.6865 25.868C74.7833 25.0284 74.8502 24.2985 74.8587 23.7526C74.8629 23.4801 74.8528 23.2491 74.8231 23.0715C74.8083 22.9827 74.788 22.9038 74.7604 22.8384C74.7332 22.7737 74.6956 22.7149 74.6418 22.6754L74.5235 22.8366ZM73.7633 31.6729C73.6368 32.8022 73.4585 33.944 73.3268 35.046C73.1962 36.1393 73.1141 37.176 73.187 38.0553C73.2597 38.9327 73.4882 39.6718 73.9966 40.1504C74.5084 40.6324 75.2819 40.8304 76.3964 40.675L76.3688 40.477C75.2874 40.6276 74.5849 40.4296 74.1337 40.0048C73.679 39.5767 73.4576 38.8983 73.3863 38.0387C73.3152 37.181 73.395 36.1612 73.5254 35.0697C73.6548 33.987 73.8365 32.8158 73.962 31.6951L73.7633 31.6729ZM76.3753 40.6757C76.775 40.705 77.1898 40.5516 77.604 40.2775C78.019 40.0028 78.4423 39.6013 78.8622 39.1184C79.7023 38.1525 80.5409 36.8475 81.2846 35.5405C82.0287 34.2325 82.6802 32.9183 83.1455 31.9314C83.3782 31.4379 83.5644 31.026 83.6925 30.7374C83.7565 30.5931 83.806 30.4796 83.8396 30.4021C83.8563 30.3634 83.8691 30.3337 83.8777 30.3136C83.882 30.3036 83.8852 30.2959 83.8874 30.2908C83.8885 30.2882 83.8893 30.2863 83.8899 30.285C83.8902 30.2843 83.8904 30.2838 83.8905 30.2835C83.8906 30.2833 83.8906 30.2832 83.8907 30.2831C83.8907 30.283 83.8907 30.283 83.7986 30.244C83.7066 30.205 83.7065 30.2051 83.7065 30.2051C83.7065 30.2052 83.7064 30.2053 83.7064 30.2055C83.7062 30.2058 83.706 30.2062 83.7058 30.2069C83.7052 30.2081 83.7044 30.21 83.7034 30.2125C83.7012 30.2175 83.6981 30.225 83.6938 30.2349C83.6853 30.2547 83.6727 30.2842 83.656 30.3227C83.6227 30.3996 83.5734 30.5125 83.5097 30.6562C83.3821 30.9437 83.1965 31.3541 82.9646 31.8461C82.5006 32.8302 81.8515 34.1395 81.1107 35.4415C80.3694 36.7445 79.5385 38.036 78.7113 38.9871C78.2977 39.4627 77.8879 39.8498 77.4937 40.1107C77.0987 40.372 76.7283 40.501 76.3899 40.4763L76.3753 40.6757ZM83.7031 30.2145C83.3965 31.2065 82.899 32.9784 82.7316 34.8159C82.5646 36.6479 82.7229 38.5728 83.757 39.847L83.9123 39.721C82.9304 38.5112 82.7647 36.6561 82.9307 34.8341C83.0963 33.0176 83.5888 31.2615 83.8942 30.2735L83.7031 30.2145ZM83.7741 39.8636C84.4297 40.3622 85.0596 40.5396 85.6366 40.5184C86.2117 40.4973 86.7252 40.2794 87.1516 40.0029C87.5779 39.7264 87.921 39.3887 88.1571 39.1212C88.2753 38.9872 88.3671 38.8703 88.4296 38.7866C88.4609 38.7447 88.4848 38.7112 88.501 38.6879C88.5091 38.6762 88.5153 38.6671 88.5196 38.6609C88.5217 38.6577 88.5233 38.6553 88.5244 38.6536C88.525 38.6528 88.5254 38.6521 88.5257 38.6517C88.5259 38.6514 88.526 38.6512 88.5261 38.6511C88.5261 38.651 88.5262 38.6509 88.5262 38.6509C88.5263 38.6508 88.5263 38.6508 88.4426 38.596C88.359 38.5412 88.359 38.5412 88.359 38.5412C88.359 38.5412 88.359 38.5412 88.359 38.5412C88.359 38.5412 88.3589 38.5413 88.3588 38.5415C88.3586 38.5418 88.3583 38.5422 88.3579 38.5429C88.357 38.5442 88.3556 38.5462 88.3538 38.549C88.3501 38.5544 88.3445 38.5627 88.3369 38.5735C88.3219 38.5952 88.2992 38.627 88.2693 38.667C88.2096 38.747 88.1212 38.8596 88.0071 38.9888C87.7785 39.2478 87.4489 39.5716 87.0427 39.8351C86.6365 40.0986 86.1578 40.2992 85.6293 40.3186C85.1027 40.3379 84.5176 40.1778 83.8952 39.7044L83.7741 39.8636ZM104.42 25.276L104.34 25.2151L104.294 25.2753L104.34 25.336L104.42 25.276ZM104.672 25.528L104.592 25.588L104.649 25.6649L104.728 25.6103L104.672 25.528ZM105.68 40.648L105.581 40.6324L105.566 40.728L105.661 40.7462L105.68 40.648ZM108.884 41.548L108.848 41.6414L108.946 41.6788L108.979 41.579L108.884 41.548ZM113.924 33.052L113.944 33.15L113.951 33.1483L113.924 33.052ZM117.992 43.348L117.95 43.4397L117.96 43.4429L117.992 43.348ZM124.436 40.216L124.523 40.2641L124.55 40.2161L124.523 40.1681L124.436 40.216ZM124.22 39.82L124.307 39.7721L124.241 39.6512L124.147 39.7513L124.22 39.82ZM121.268 40.792L121.23 40.8845L121.239 40.8884L121.249 40.8903L121.268 40.792ZM116.012 30.82L116.015 30.7194L116.003 30.7203L116.012 30.82ZM112.916 31.36L112.818 31.3371L112.781 31.4948L112.939 31.4573L112.916 31.36ZM116.984 23.692L117.065 23.7504L117.065 23.7503L116.984 23.692ZM121.088 23.188H120.988V23.2217L121.008 23.2486L121.088 23.188ZM120.62 19.588L120.62 19.688L120.621 19.688L120.62 19.588ZM110.72 31.936L110.62 31.9271L110.811 31.9755L110.72 31.936ZM109.892 23.404L109.839 23.4894L109.847 23.4934L109.892 23.404ZM104.34 25.336C104.401 25.4184 104.445 25.4519 104.486 25.482C104.517 25.5059 104.545 25.5264 104.592 25.588L104.752 25.468C104.69 25.3856 104.646 25.3521 104.606 25.322C104.574 25.2981 104.546 25.2776 104.5 25.216L104.34 25.336ZM104.728 25.6103C105.105 25.35 105.467 25.1196 105.797 24.9605C106.13 24.8004 106.418 24.7189 106.651 24.7411C106.874 24.7622 107.059 24.8789 107.194 25.1521C107.333 25.4325 107.416 25.8754 107.416 26.536H107.616C107.616 25.8646 107.532 25.385 107.374 25.0636C107.211 24.7349 106.969 24.5703 106.67 24.5419C106.381 24.5146 106.053 24.6154 105.71 24.7803C105.366 24.9464 104.994 25.184 104.615 25.4457L104.728 25.6103ZM107.416 26.536C107.416 27.769 106.958 31.288 106.499 34.5094C106.269 36.1177 106.04 37.6485 105.868 38.7772C105.782 39.3416 105.71 39.8054 105.66 40.1281C105.635 40.2895 105.615 40.4156 105.601 40.5013C105.595 40.5442 105.59 40.577 105.586 40.599C105.584 40.6101 105.583 40.6184 105.582 40.624C105.582 40.6268 105.581 40.6289 105.581 40.6303C105.581 40.631 105.581 40.6315 105.581 40.6319C105.581 40.6321 105.581 40.6322 105.581 40.6323C105.581 40.6324 105.581 40.6324 105.68 40.648C105.778 40.6636 105.778 40.6636 105.778 40.6635C105.778 40.6634 105.778 40.6632 105.778 40.6631C105.779 40.6627 105.779 40.6622 105.779 40.6615C105.779 40.66 105.779 40.6579 105.78 40.6551C105.781 40.6495 105.782 40.6412 105.784 40.6301C105.787 40.608 105.792 40.5752 105.799 40.5323C105.812 40.4465 105.832 40.3203 105.857 40.1589C105.908 39.836 105.979 39.372 106.065 38.8074C106.237 37.6782 106.467 36.1468 106.697 34.5376C107.155 31.324 107.616 27.787 107.616 26.536H107.416ZM105.661 40.7462C106.502 40.9073 107.299 41.1311 107.886 41.3149C108.18 41.4068 108.421 41.4885 108.588 41.5473C108.671 41.5767 108.737 41.6003 108.781 41.6165C108.803 41.6246 108.82 41.6309 108.831 41.6351C108.837 41.6372 108.841 41.6388 108.844 41.6399C108.845 41.6404 108.846 41.6408 108.847 41.6411C108.847 41.6412 108.848 41.6413 108.848 41.6414C108.848 41.6414 108.848 41.6414 108.848 41.6414C108.848 41.6414 108.848 41.6414 108.848 41.6414C108.848 41.6414 108.848 41.6414 108.884 41.548C108.919 41.4546 108.919 41.4545 108.919 41.4545C108.919 41.4545 108.919 41.4545 108.919 41.4545C108.919 41.4545 108.919 41.4545 108.919 41.4544C108.919 41.4543 108.918 41.4542 108.918 41.4541C108.917 41.4538 108.916 41.4534 108.915 41.4528C108.912 41.4516 108.907 41.45 108.901 41.4478C108.89 41.4434 108.872 41.437 108.85 41.4287C108.805 41.4122 108.739 41.3883 108.654 41.3586C108.485 41.2992 108.242 41.2167 107.946 41.1241C107.354 40.9389 106.549 40.7127 105.698 40.5498L105.661 40.7462ZM108.979 41.579C109.234 40.7959 109.367 39.9349 109.502 39.0766C109.636 38.2151 109.771 37.3557 110.027 36.5612C110.283 35.7681 110.657 35.0452 111.267 34.4565C111.876 33.8682 112.726 33.4077 113.944 33.1498L113.903 32.9542C112.655 33.2183 111.768 33.6938 111.128 34.3126C110.487 34.931 110.099 35.6864 109.837 36.4998C109.575 37.3118 109.438 38.1871 109.304 39.0457C109.169 39.9076 109.038 40.7521 108.789 41.517L108.979 41.579ZM113.951 33.1483C114.22 33.0731 114.438 33.1404 114.63 33.3245C114.829 33.5146 114.999 33.8305 115.148 34.2489C115.447 35.0843 115.645 36.2777 115.845 37.5407C116.045 38.7983 116.248 40.1216 116.556 41.1998C116.711 41.7391 116.893 42.2222 117.118 42.6075C117.342 42.9923 117.614 43.2879 117.951 43.4392L118.033 43.2568C117.748 43.1291 117.504 42.8723 117.29 42.5067C117.077 42.1417 116.901 41.6764 116.748 41.1447C116.444 40.0809 116.243 38.7717 116.043 37.5093C115.843 36.2523 115.643 35.0382 115.337 34.1816C115.184 33.754 115.001 33.4027 114.769 33.18C114.53 32.9512 114.24 32.8599 113.897 32.9557L113.951 33.1483ZM117.96 43.4429C120.003 44.124 121.65 43.32 122.777 42.3575C123.34 41.8764 123.776 41.3537 124.071 40.9519C124.219 40.7508 124.332 40.5795 124.407 40.4583C124.445 40.3976 124.474 40.3494 124.493 40.3162C124.503 40.2996 124.511 40.2868 124.516 40.278C124.518 40.2736 124.52 40.2702 124.521 40.2679C124.522 40.2667 124.522 40.2658 124.523 40.2652C124.523 40.2649 124.523 40.2646 124.523 40.2644C124.523 40.2643 124.523 40.2642 124.523 40.2642C124.523 40.2641 124.523 40.2641 124.436 40.216C124.348 40.1679 124.348 40.1679 124.348 40.1679C124.348 40.1679 124.348 40.1679 124.348 40.168C124.348 40.1681 124.348 40.1682 124.348 40.1684C124.347 40.1689 124.347 40.1696 124.346 40.1706C124.345 40.1725 124.344 40.1755 124.341 40.1795C124.337 40.1876 124.33 40.1996 124.321 40.2154C124.302 40.2469 124.275 40.2934 124.238 40.3522C124.164 40.4698 124.054 40.6369 123.91 40.8335C123.621 41.227 123.195 41.7371 122.647 42.2055C121.551 43.142 119.976 43.904 118.023 43.2531L117.96 43.4429ZM124.523 40.1681L124.307 39.7721L124.132 39.8679L124.348 40.2639L124.523 40.1681ZM124.22 39.82C124.147 39.7513 124.147 39.7513 124.147 39.7513L124.147 39.7513C124.147 39.7513 124.147 39.7513 124.147 39.7513C124.147 39.7514 124.147 39.7516 124.146 39.7518C124.146 39.7523 124.145 39.753 124.144 39.7541C124.142 39.7562 124.139 39.7595 124.135 39.7639C124.126 39.7726 124.113 39.7857 124.095 39.8024C124.06 39.8357 124.007 39.8836 123.938 39.9402C123.8 40.0535 123.598 40.2015 123.344 40.3396C122.835 40.616 122.121 40.8502 121.286 40.6937L121.249 40.8903C122.143 41.0578 122.904 40.806 123.439 40.5154C123.707 40.37 123.919 40.2143 124.065 40.0947C124.138 40.0349 124.194 39.984 124.232 39.9478C124.251 39.9296 124.266 39.9152 124.276 39.9051C124.281 39.9 124.285 39.8961 124.288 39.8933C124.289 39.8919 124.29 39.8909 124.291 39.8901C124.291 39.8897 124.292 39.8894 124.292 39.8891C124.292 39.889 124.292 39.8889 124.292 39.8888C124.292 39.8888 124.292 39.8888 124.292 39.8887C124.292 39.8887 124.292 39.8887 124.22 39.82ZM121.306 40.6995C120.271 40.2733 119.733 39.4682 119.433 38.4809C119.132 37.488 119.075 36.3239 118.996 35.1915C118.917 34.0682 118.817 32.9714 118.416 32.1471C118.214 31.732 117.935 31.3826 117.542 31.133C117.149 30.8837 116.649 30.7384 116.015 30.72L116.009 30.92C116.616 30.9376 117.078 31.0758 117.435 31.3019C117.79 31.5278 118.047 31.8459 118.236 32.2345C118.617 33.0179 118.717 34.0743 118.796 35.2055C118.875 36.3276 118.932 37.5192 119.242 38.539C119.553 39.5643 120.123 40.4287 121.23 40.8845L121.306 40.6995ZM116.003 30.7203C114.699 30.829 113.649 31.0827 112.892 31.2627L112.939 31.4573C113.695 31.2773 114.732 31.027 116.02 30.9197L116.003 30.7203ZM113.013 31.3829C113.298 30.1724 113.94 28.778 114.699 27.4265C115.457 26.0762 116.328 24.7744 117.065 23.7504L116.902 23.6336C116.163 24.6616 115.288 25.9698 114.525 27.3285C113.763 28.686 113.109 30.0996 112.818 31.3371L113.013 31.3829ZM117.065 23.7503C118.044 22.385 118.78 21.6806 119.328 21.3825C119.6 21.2343 119.82 21.19 119.996 21.2083C120.171 21.2265 120.315 21.3072 120.436 21.4308C120.682 21.6835 120.823 22.1064 120.9 22.4868C120.938 22.6744 120.96 22.8466 120.973 22.9742C120.979 23.0379 120.983 23.0902 120.985 23.1276C120.986 23.1463 120.987 23.1611 120.987 23.1717C120.988 23.183 120.988 23.1881 120.988 23.188H121.188C121.188 23.1638 121.176 22.8376 121.096 22.4469C121.017 22.0601 120.868 21.5875 120.579 21.2912C120.432 21.1403 120.246 21.0332 120.017 21.0094C119.789 20.9858 119.529 21.0456 119.233 21.2068C118.643 21.5274 117.885 22.263 116.902 23.6337L117.065 23.7503ZM121.008 23.2486C121.66 24.1053 122.443 24.3095 123.133 24.1086C123.813 23.9106 124.383 23.3243 124.633 22.6372C124.885 21.9463 124.817 21.141 124.201 20.5157C123.591 19.895 122.458 19.4699 120.619 19.488L120.621 19.688C122.435 19.6701 123.503 20.091 124.059 20.656C124.61 21.2165 124.675 21.9367 124.445 22.5688C124.214 23.2047 123.688 23.7389 123.077 23.9166C122.477 24.0915 121.775 23.9267 121.167 23.1274L121.008 23.2486ZM120.619 19.488C117.882 19.5064 115.849 21.5455 114.275 24.0894C112.699 26.6357 111.561 29.7257 110.628 31.8965L110.811 31.9755C111.751 29.7903 112.88 26.7242 114.445 24.1946C116.012 21.6625 117.993 19.7056 120.62 19.688L120.619 19.488ZM110.819 31.9449C111.016 29.7403 111.297 27.8375 111.283 26.3731C111.27 24.9092 110.963 23.8279 109.936 23.3146L109.847 23.4934C110.764 23.9521 111.07 24.9228 111.083 26.3749C111.097 27.8265 110.819 29.7037 110.62 31.9271L110.819 31.9449ZM109.944 23.3189C108.527 22.4425 107.114 22.9339 106.074 23.6221C105.554 23.967 105.121 24.3649 104.818 24.6758C104.667 24.8315 104.548 24.9658 104.466 25.0613C104.426 25.1091 104.394 25.1473 104.373 25.1736C104.363 25.1868 104.354 25.197 104.349 25.204C104.346 25.2075 104.344 25.2102 104.343 25.2121C104.342 25.213 104.341 25.2137 104.341 25.2142C104.341 25.2145 104.341 25.2147 104.34 25.2148C104.34 25.2149 104.34 25.215 104.34 25.215C104.34 25.2151 104.34 25.2151 104.42 25.276C104.499 25.3369 104.499 25.3369 104.499 25.3369C104.499 25.3369 104.499 25.3369 104.499 25.3368C104.499 25.3368 104.499 25.3366 104.499 25.3365C104.5 25.3361 104.5 25.3355 104.501 25.3348C104.502 25.3332 104.504 25.3308 104.506 25.3276C104.511 25.3212 104.519 25.3117 104.529 25.2991C104.549 25.2741 104.579 25.2373 104.619 25.191C104.698 25.0983 104.814 24.9673 104.962 24.8153C105.258 24.5109 105.68 24.1235 106.185 23.7889C107.198 23.1181 108.52 22.6735 109.839 23.489L109.944 23.3189ZM135.663 24.628H135.763V24.6026L135.751 24.5803L135.663 24.628ZM127.023 40.288L127.071 40.2002L127.023 40.288ZM133.827 34.636L133.926 34.6523L133.735 34.5977L133.827 34.636ZM137.211 40.252L137.2 40.1526L137.2 40.1527L137.211 40.252ZM140.271 36.94L140.368 36.9663L140.386 36.9008L140.331 36.86L140.271 36.94ZM140.127 36.832L140.187 36.752L140.104 36.6892L140.045 36.7757L140.127 36.832ZM136.203 26.536L136.303 26.5439L136.31 26.4625L136.231 26.4399L136.203 26.536ZM133.827 25.852L133.855 25.7559L133.736 25.7217L133.728 25.845L133.827 25.852ZM131.343 36.544L131.264 36.4831L131.264 36.4831L131.343 36.544ZM127.023 34.636L126.924 34.6257L126.924 34.6275L127.023 34.636ZM135.751 24.5803C135.007 23.209 134.141 22.3275 133.211 21.8555C132.28 21.3827 131.293 21.3254 130.319 21.5867C128.375 22.1076 126.476 23.8931 125.102 26.183C123.726 28.4756 122.863 31.2931 123.009 33.903C123.154 36.517 124.312 38.9254 126.976 40.3758L127.071 40.2002C124.479 38.7886 123.351 36.4495 123.208 33.8919C123.066 31.3302 123.913 28.5519 125.273 26.286C126.635 24.0174 128.498 22.2817 130.37 21.7799C131.303 21.5299 132.238 21.5859 133.121 22.0338C134.004 22.4825 134.844 23.329 135.576 24.6757L135.751 24.5803ZM126.976 40.3758C127.92 40.8902 128.836 40.7779 129.668 40.3282C130.495 39.881 131.242 39.0994 131.869 38.2645C132.497 37.4283 133.009 36.5309 133.364 35.8435C133.542 35.4996 133.681 35.2077 133.775 35.0017C133.822 34.8987 133.858 34.8171 133.883 34.7611C133.895 34.7331 133.904 34.7115 133.91 34.6969C133.913 34.6896 133.916 34.684 133.917 34.6802C133.918 34.6783 133.919 34.6769 133.919 34.6759C133.919 34.6754 133.919 34.675 133.92 34.6748C133.92 34.6746 133.92 34.6745 133.92 34.6745C133.92 34.6744 133.92 34.6743 133.827 34.636C133.735 34.5977 133.735 34.5977 133.735 34.5977C133.735 34.5978 133.735 34.5978 133.735 34.5979C133.735 34.5981 133.735 34.5984 133.735 34.5989C133.734 34.5997 133.734 34.6011 133.733 34.6028C133.731 34.6064 133.729 34.6117 133.726 34.6188C133.72 34.6329 133.711 34.6539 133.699 34.6814C133.675 34.7362 133.64 34.8167 133.593 34.9185C133.5 35.1221 133.363 35.411 133.187 35.7516C132.834 36.4334 132.328 37.3202 131.709 38.1445C131.089 38.9701 130.363 39.7252 129.573 40.1522C128.788 40.5766 127.945 40.6758 127.071 40.2002L126.976 40.3758ZM133.827 34.636C133.729 34.6197 133.729 34.6198 133.729 34.6199C133.729 34.6199 133.729 34.62 133.729 34.6202C133.729 34.6204 133.729 34.6207 133.728 34.6211C133.728 34.622 133.728 34.6232 133.728 34.6247C133.727 34.6278 133.727 34.6324 133.726 34.6384C133.724 34.6503 133.721 34.6679 133.718 34.6906C133.712 34.7361 133.703 34.8025 133.693 34.8866C133.674 35.0549 133.652 35.2942 133.639 35.5798C133.613 36.1501 133.624 36.9083 133.774 37.6528C133.925 38.3961 134.217 39.1365 134.76 39.6592C135.308 40.1858 136.1 40.4802 137.223 40.3513L137.2 40.1527C136.127 40.2758 135.397 39.9942 134.899 39.515C134.397 39.032 134.117 38.3369 133.97 37.6132C133.824 36.8907 133.813 36.1504 133.838 35.5889C133.851 35.3086 133.873 35.0738 133.892 34.9093C133.901 34.8271 133.91 34.7625 133.916 34.7186C133.919 34.6966 133.922 34.6799 133.923 34.6687C133.924 34.6631 133.925 34.6589 133.925 34.6561C133.926 34.6548 133.926 34.6538 133.926 34.6531C133.926 34.6528 133.926 34.6525 133.926 34.6524C133.926 34.6523 133.926 34.6523 133.926 34.6523C133.926 34.6522 133.926 34.6523 133.827 34.636ZM137.223 40.3514C138.211 40.2394 138.918 39.6882 139.416 39.0202C139.912 38.3538 140.204 37.5665 140.368 36.9663L140.175 36.9137C140.015 37.5015 139.731 38.2622 139.255 38.9008C138.781 39.5378 138.119 40.0486 137.2 40.1526L137.223 40.3514ZM140.331 36.86L140.187 36.752L140.067 36.912L140.211 37.02L140.331 36.86ZM140.045 36.7757C139.302 37.868 138.669 38.3268 138.152 38.4153C137.646 38.5021 137.214 38.237 136.854 37.7782C136.493 37.3195 136.22 36.6847 136.036 36.0839C135.853 35.4826 135.763 34.9284 135.763 34.636H135.563C135.563 34.9556 135.658 35.5309 135.845 36.1423C136.032 36.7543 136.314 37.4155 136.696 37.9018C137.078 38.388 137.576 38.7169 138.186 38.6124C138.786 38.5097 139.459 37.992 140.21 36.8882L140.045 36.7757ZM135.763 34.636C135.763 33.9926 135.898 31.9724 136.033 30.1072C136.101 29.1759 136.168 28.2851 136.219 27.627C136.244 27.298 136.265 27.0272 136.28 26.8387C136.287 26.7444 136.293 26.6707 136.297 26.6206C136.299 26.5955 136.301 26.5763 136.302 26.5634C136.302 26.557 136.302 26.5521 136.303 26.5488C136.303 26.5472 136.303 26.546 136.303 26.5451C136.303 26.5447 136.303 26.5444 136.303 26.5442C136.303 26.5441 136.303 26.544 136.303 26.544C136.303 26.5439 136.303 26.5439 136.203 26.536C136.104 26.5281 136.104 26.5281 136.104 26.5282C136.104 26.5282 136.104 26.5283 136.104 26.5284C136.104 26.5286 136.104 26.5289 136.104 26.5293C136.104 26.5302 136.103 26.5314 136.103 26.533C136.103 26.5363 136.103 26.5412 136.102 26.5477C136.101 26.5606 136.1 26.5798 136.098 26.6049C136.094 26.655 136.088 26.7288 136.08 26.8231C136.066 27.0117 136.045 27.2826 136.019 27.6117C135.969 28.2699 135.901 29.1611 135.834 30.0928C135.699 31.9536 135.563 33.9834 135.563 34.636H135.763ZM136.231 26.4399L133.855 25.7559L133.8 25.9481L136.176 26.6321L136.231 26.4399ZM133.827 25.852C133.728 25.845 133.728 25.845 133.728 25.8451C133.728 25.8451 133.728 25.8452 133.728 25.8453C133.728 25.8456 133.728 25.8459 133.728 25.8464C133.727 25.8474 133.727 25.8488 133.727 25.8508C133.727 25.8547 133.727 25.8605 133.726 25.8683C133.725 25.8838 133.723 25.9069 133.721 25.9371C133.716 25.9976 133.709 26.0867 133.699 26.2011C133.68 26.4298 133.65 26.7595 133.608 27.163C133.524 27.97 133.393 29.0717 133.202 30.2505C133.011 31.4297 132.761 32.6843 132.44 33.7978C132.119 34.914 131.729 35.8776 131.264 36.4831L131.423 36.6049C131.912 35.9684 132.309 34.9745 132.633 33.8531C132.956 32.729 133.208 31.4658 133.4 30.2825C133.591 29.0988 133.723 27.9932 133.807 27.1836C133.849 26.7788 133.879 26.4478 133.899 26.218C133.908 26.1031 133.915 26.0134 133.92 25.9525C133.923 25.922 133.924 25.8987 133.925 25.883C133.926 25.8751 133.926 25.8691 133.927 25.8651C133.927 25.8631 133.927 25.8616 133.927 25.8606C133.927 25.8601 133.927 25.8597 133.927 25.8594C133.927 25.8593 133.927 25.8592 133.927 25.8591C133.927 25.859 133.927 25.859 133.827 25.852ZM131.264 36.4831C130.972 36.8633 130.526 37.3251 130.03 37.7055C129.532 38.0878 128.996 38.3783 128.524 38.4337C128.29 38.4611 128.075 38.4304 127.887 38.3285C127.7 38.2267 127.53 38.0489 127.394 37.7662C127.119 37.1961 126.988 36.2151 127.123 34.6445L126.924 34.6275C126.788 36.2069 126.914 37.2329 127.213 37.853C127.364 38.1655 127.56 38.3786 127.792 38.5043C128.024 38.6299 128.281 38.6634 128.547 38.6323C129.074 38.5707 129.645 38.2537 130.152 37.8642C130.662 37.4729 131.121 36.9987 131.423 36.6049L131.264 36.4831ZM127.123 34.6463C127.769 28.4015 129.917 26.1131 131.869 25.2825C132.849 24.8651 133.792 24.8102 134.494 24.8186C134.67 24.8206 134.831 24.8267 134.973 24.8319C135.115 24.8372 135.242 24.8418 135.346 24.8406C135.449 24.8394 135.541 24.8329 135.611 24.8108C135.646 24.7996 135.684 24.7817 135.714 24.7509C135.747 24.7173 135.763 24.6746 135.763 24.628H135.563C135.563 24.6242 135.566 24.6166 135.57 24.6117C135.572 24.6097 135.569 24.6142 135.55 24.6202C135.512 24.6324 135.445 24.6394 135.344 24.6406C135.245 24.6417 135.124 24.6374 134.981 24.6321C134.838 24.6268 134.675 24.6207 134.497 24.6186C133.782 24.6101 132.808 24.6654 131.79 25.0985C129.746 25.9689 127.574 28.3425 126.924 34.6257L127.123 34.6463ZM139.066 59.332L138.967 59.3204L138.957 59.3983L139.031 59.4257L139.066 59.332ZM143.17 59.872L143.269 59.8583L143.269 59.8567L143.17 59.872ZM145.942 30.856L145.845 30.8314L145.845 30.8317L145.942 30.856ZM152.386 26.104L152.3 26.1548L152.302 26.1577L152.386 26.104ZM152.926 28.84L152.979 28.9245L153.029 28.8932L153.026 28.8346L152.926 28.84ZM148.066 33.052L147.983 32.996L147.983 32.9965L148.066 33.052ZM148.282 40.864L148.3 40.7657L148.3 40.7656L148.282 40.864ZM155.77 32.62L155.868 32.6407L155.868 32.6383L155.77 32.62ZM156.238 28.372L156.187 28.2857L156.138 28.3147V28.372H156.238ZM158.038 27.4L158.081 27.4903L158.134 27.4652L158.138 27.4071L158.038 27.4ZM158.11 26.392L158.21 26.3991L158.22 26.2615L158.086 26.295L158.11 26.392ZM156.166 27.112L156.066 27.1194L156.077 27.2648L156.209 27.2024L156.166 27.112ZM153.178 21.532L153.218 21.4403L153.209 21.4366L153.2 21.4345L153.178 21.532ZM147.022 24.592L146.923 24.6054L146.957 24.8586L147.104 24.6494L147.022 24.592ZM146.734 22.468L146.833 22.4546L146.823 22.3822L146.751 22.3695L146.734 22.468ZM143.458 21.892L143.475 21.7935L143.371 21.7752L143.359 21.8803L143.458 21.892ZM148.714 35.176L148.62 35.1431L148.619 35.1436L148.714 35.176ZM152.89 30.496L152.99 30.5007L153 30.2929L152.831 30.4151L152.89 30.496ZM150.982 37.372L151.064 37.4291L151.064 37.4286L150.982 37.372ZM139.066 59.332C139.031 59.4257 139.031 59.4257 139.031 59.4257C139.031 59.4257 139.031 59.4258 139.031 59.4258C139.031 59.4258 139.032 59.4259 139.032 59.426C139.032 59.4262 139.033 59.4265 139.034 59.4269C139.036 59.4277 139.039 59.4288 139.044 59.4303C139.052 59.4333 139.064 59.4378 139.079 59.4435C139.111 59.4549 139.156 59.4715 139.215 59.4922C139.331 59.5337 139.497 59.5917 139.696 59.658C140.093 59.7906 140.622 59.9568 141.147 60.0904C141.67 60.2234 142.198 60.3263 142.589 60.3281C142.782 60.3289 142.958 60.3054 143.083 60.2361C143.148 60.2002 143.203 60.1504 143.237 60.0832C143.271 60.0159 143.28 59.9396 143.269 59.8583L143.071 59.8857C143.078 59.9349 143.071 59.9686 143.058 59.9927C143.046 60.017 143.024 60.0402 142.987 60.061C142.907 60.1049 142.774 60.1289 142.59 60.1281C142.225 60.1264 141.718 60.0291 141.197 59.8966C140.678 59.7647 140.154 59.6001 139.759 59.4683C139.562 59.4025 139.397 59.3449 139.282 59.3038C139.224 59.2833 139.179 59.2669 139.148 59.2556C139.132 59.25 139.121 59.2456 139.113 59.2427C139.109 59.2412 139.106 59.2401 139.104 59.2394C139.103 59.239 139.102 59.2387 139.102 59.2386C139.101 59.2385 139.101 59.2384 139.101 59.2384C139.101 59.2383 139.101 59.2383 139.101 59.2383C139.101 59.2383 139.101 59.2383 139.066 59.332ZM143.269 59.8567C141.688 49.6549 144.311 37.793 146.039 30.8803L145.845 30.8317C144.117 37.743 141.484 49.6411 143.071 59.8873L143.269 59.8567ZM146.039 30.8806C146.682 28.3444 147.983 26.6768 149.257 25.8921C149.894 25.4995 150.52 25.3307 151.052 25.3768C151.58 25.4225 152.02 25.6802 152.3 26.1548L152.472 26.0532C152.158 25.5198 151.658 25.2285 151.069 25.1775C150.483 25.1268 149.815 25.3134 149.152 25.7219C147.825 26.5392 146.498 28.2556 145.845 30.8314L146.039 30.8806ZM152.302 26.1577C152.417 26.3394 152.531 26.6752 152.625 27.1408C152.719 27.6031 152.79 28.1831 152.826 28.8454L153.026 28.8346C152.99 28.1649 152.917 27.5749 152.821 27.1012C152.726 26.6308 152.607 26.2646 152.47 26.0503L152.302 26.1577ZM152.873 28.7555C150.817 30.0537 148.895 31.6466 147.983 32.996L148.149 33.108C149.037 31.7934 150.931 30.2183 152.979 28.9245L152.873 28.7555ZM147.983 32.9965C147.146 34.2513 146.456 36.0858 146.346 37.6802C146.292 38.4773 146.382 39.2245 146.681 39.8104C146.983 40.4012 147.495 40.8217 148.264 40.9624L148.3 40.7656C147.593 40.6363 147.133 40.2558 146.859 39.7194C146.582 39.178 146.492 38.4717 146.546 37.6938C146.652 36.1382 147.33 34.3367 148.149 33.1075L147.983 32.9965ZM148.264 40.9623C150.464 41.3725 154.422 39.4717 155.868 32.6407L155.672 32.5993C154.238 39.3763 150.348 41.1475 148.3 40.7657L148.264 40.9623ZM155.868 32.6383C156.157 31.0874 156.338 29.6407 156.338 28.372H156.138C156.138 29.6233 155.959 31.0566 155.672 32.6017L155.868 32.6383ZM156.289 28.4583C156.809 28.1532 157.257 27.9111 157.576 27.7452C157.735 27.6623 157.861 27.5984 157.948 27.5554C157.991 27.5338 158.025 27.5175 158.047 27.5066C158.058 27.5011 158.067 27.497 158.073 27.4943C158.075 27.4929 158.078 27.4919 158.079 27.4913C158.08 27.4909 158.08 27.4907 158.08 27.4905C158.081 27.4904 158.081 27.4904 158.081 27.4903C158.081 27.4903 158.081 27.4903 158.081 27.4903C158.081 27.4903 158.081 27.4903 158.081 27.4903C158.081 27.4903 158.081 27.4903 158.038 27.4C157.995 27.3097 157.995 27.3097 157.995 27.3097C157.995 27.3097 157.995 27.3097 157.995 27.3097C157.995 27.3098 157.995 27.3098 157.995 27.3098C157.995 27.3099 157.995 27.3099 157.994 27.31C157.994 27.3102 157.993 27.3105 157.993 27.3108C157.991 27.3116 157.989 27.3127 157.986 27.3141C157.98 27.3169 157.971 27.3211 157.96 27.3267C157.937 27.3379 157.903 27.3545 157.859 27.3763C157.771 27.4198 157.644 27.4842 157.483 27.5678C157.163 27.7349 156.711 27.9788 156.187 28.2857L156.289 28.4583ZM158.138 27.4071L158.21 26.3991L158.01 26.3849L157.938 27.3929L158.138 27.4071ZM158.086 26.295C157.502 26.4409 156.812 26.6954 156.123 27.0216L156.209 27.2024C156.888 26.8806 157.566 26.6311 158.134 26.489L158.086 26.295ZM156.266 27.1046C156.048 24.1716 154.923 22.1817 153.218 21.4403L153.138 21.6237C154.745 22.3223 155.851 24.2204 156.066 27.1194L156.266 27.1046ZM153.2 21.4345C151.429 21.0287 149.859 21.8145 148.742 22.6862C148.183 23.123 147.733 23.5844 147.423 23.9364C147.268 24.1125 147.147 24.2615 147.066 24.3667C147.025 24.4193 146.994 24.461 146.973 24.4897C146.962 24.504 146.954 24.5151 146.949 24.5227C146.946 24.5264 146.944 24.5294 146.942 24.5314C146.942 24.5324 146.941 24.5331 146.941 24.5337C146.941 24.5339 146.94 24.5342 146.94 24.5343C146.94 24.5344 146.94 24.5345 146.94 24.5345C146.94 24.5346 146.94 24.5346 147.022 24.592C147.104 24.6494 147.104 24.6494 147.104 24.6494C147.104 24.6494 147.104 24.6494 147.104 24.6493C147.104 24.6493 147.104 24.6491 147.104 24.6489C147.104 24.6485 147.105 24.6479 147.105 24.6471C147.107 24.6454 147.109 24.6428 147.111 24.6393C147.116 24.6323 147.124 24.6219 147.134 24.6082C147.154 24.5808 147.184 24.5405 147.224 24.4894C147.303 24.387 147.421 24.2412 147.573 24.0686C147.877 23.7231 148.318 23.271 148.865 22.8438C149.963 21.9875 151.471 21.2433 153.156 21.6295L153.2 21.4345ZM147.121 24.5786L146.833 22.4546L146.635 22.4814L146.923 24.6054L147.121 24.5786ZM146.751 22.3695L143.475 21.7935L143.441 21.9905L146.717 22.5665L146.751 22.3695ZM143.359 21.8803L138.967 59.3204L139.165 59.3437L143.557 21.9037L143.359 21.8803ZM148.808 35.2089C149.09 34.3992 149.665 33.5741 150.403 32.7827C151.14 31.9922 152.034 31.2403 152.949 30.5769L152.831 30.4151C151.91 31.0837 151.004 31.8438 150.256 32.6463C149.509 33.4479 148.914 34.2968 148.62 35.1431L148.808 35.2089ZM152.79 30.4913C152.682 32.7884 152.144 35.5022 150.9 37.3154L151.064 37.4286C152.34 35.5698 152.882 32.8116 152.99 30.5007L152.79 30.4913ZM150.9 37.3149C150.244 38.258 149.731 38.7367 149.352 38.9014C149.167 38.9822 149.022 38.9837 148.909 38.9384C148.795 38.8926 148.695 38.7916 148.614 38.6318C148.451 38.309 148.384 37.7837 148.419 37.165C148.453 36.55 148.586 35.857 148.809 35.2084L148.619 35.1436C148.391 35.809 148.255 36.52 148.219 37.1538C148.184 37.7838 148.248 38.352 148.436 38.7222C148.53 38.9089 148.661 39.0543 148.835 39.1241C149.01 39.1944 149.212 39.1807 149.432 39.0848C149.866 38.8963 150.406 38.376 151.064 37.4291L150.9 37.3149ZM170.887 21.784L170.899 21.6846L170.892 21.6842L170.887 21.784ZM163.327 32.26L163.231 32.23L163.421 32.2942L163.327 32.26ZM163.687 22.684L163.765 22.6222L163.757 22.6122L163.747 22.6044L163.687 22.684ZM157.459 23.836L157.394 23.7595L157.339 23.8061L157.366 23.8731L157.459 23.836ZM157.675 24.376L157.595 24.436L157.646 24.5046L157.722 24.4642L157.675 24.376ZM161.995 25.456L162.094 25.4675L162.094 25.4667L161.995 25.456ZM159.295 40.072L159.197 40.0525L159.18 40.1377L159.262 40.1664L159.295 40.072ZM162.931 40.864L162.918 40.9632L163.002 40.9742L163.026 40.8927L162.931 40.864ZM169.771 25.636L169.76 25.7357L169.767 25.7359L169.771 25.636ZM170.599 31.216L170.697 31.2379L170.698 31.228L170.599 31.216ZM168.871 40.324L168.771 40.3148L168.764 40.3932L168.838 40.4186L168.871 40.324ZM172.255 40.864L172.253 40.964L172.341 40.9656L172.354 40.8781L172.255 40.864ZM179.095 26.428L179.083 26.528H179.095V26.428ZM179.311 31.684L179.41 31.6963L179.41 31.696L179.311 31.684ZM178.663 41.512L178.707 41.4221L178.702 41.42L178.663 41.512ZM185.071 39.208L185.12 39.2948L185.176 39.2629L185.17 39.1989L185.071 39.208ZM184.999 38.416L185.098 38.4069L185.079 38.1969L184.929 38.3446L184.999 38.416ZM181.363 39.82L181.291 39.8901L181.309 39.9085L181.334 39.9158L181.363 39.82ZM180.643 21.928L180.635 22.0277L180.643 22.0283L180.651 22.0277L180.643 21.928ZM172.687 32.044L172.592 32.0124L172.777 32.0876L172.687 32.044ZM179.455 19.696H179.555V19.6051L179.464 19.5965L179.455 19.696ZM179.491 15.808L179.457 15.7137L179.457 15.7138L179.491 15.808ZM166.387 17.788L166.485 17.7716L166.458 17.606L166.325 17.7091L166.387 17.788ZM166.135 19.408L166.056 19.3466L165.968 19.4599L166.104 19.5033L166.135 19.408ZM170.892 21.6842C169.926 21.6273 168.966 22.2868 168.082 23.2626C167.193 24.2433 166.359 25.5676 165.642 26.8934C164.924 28.2202 164.322 29.5531 163.899 30.5538C163.688 31.0544 163.521 31.4721 163.408 31.7648C163.351 31.9111 163.307 32.0262 163.278 32.1048C163.263 32.1441 163.252 32.1743 163.244 32.1947C163.24 32.2049 163.237 32.2126 163.236 32.2178C163.235 32.2205 163.234 32.2224 163.233 32.2238C163.233 32.2244 163.233 32.2249 163.233 32.2253C163.233 32.2255 163.233 32.2256 163.233 32.2257C163.233 32.2258 163.233 32.2258 163.327 32.26C163.421 32.2942 163.421 32.2941 163.421 32.2941C163.421 32.294 163.421 32.2939 163.421 32.2937C163.421 32.2934 163.421 32.293 163.421 32.2923C163.422 32.2911 163.422 32.2892 163.423 32.2867C163.425 32.2816 163.428 32.274 163.432 32.264C163.439 32.2439 163.45 32.2141 163.465 32.1751C163.494 32.0972 163.537 31.9828 163.594 31.8372C163.707 31.5461 163.873 31.1301 164.084 30.6317C164.505 29.6344 165.104 28.3078 165.818 26.9886C166.532 25.6684 167.357 24.3602 168.23 23.3969C169.108 22.4287 170.011 21.8327 170.881 21.8838L170.892 21.6842ZM163.422 32.29C163.727 31.32 164.315 29.5478 164.578 27.7021C164.839 25.8623 164.782 23.9169 163.765 22.6222L163.608 22.7458C164.571 23.9711 164.64 25.8417 164.38 27.6739C164.12 29.5002 163.538 31.256 163.231 32.23L163.422 32.29ZM163.747 22.6044C162.425 21.5987 160.822 21.9039 159.575 22.4391C158.948 22.7078 158.404 23.0376 158.016 23.2998C157.822 23.431 157.667 23.5455 157.56 23.6274C157.507 23.6684 157.466 23.7012 157.438 23.7239C157.424 23.7352 157.413 23.744 157.406 23.7501C157.402 23.7531 157.399 23.7554 157.397 23.757C157.396 23.7578 157.395 23.7584 157.395 23.7588C157.395 23.759 157.395 23.7592 157.394 23.7593C157.394 23.7594 157.394 23.7594 157.394 23.7595C157.394 23.7595 157.394 23.7595 157.459 23.836C157.523 23.9125 157.523 23.9125 157.523 23.9125C157.523 23.9124 157.523 23.9124 157.523 23.9124C157.523 23.9123 157.523 23.9122 157.524 23.9121C157.524 23.9117 157.524 23.9112 157.525 23.9105C157.527 23.9092 157.529 23.9071 157.533 23.9043C157.54 23.8987 157.55 23.8904 157.563 23.8795C157.59 23.8578 157.63 23.826 157.682 23.7861C157.786 23.7063 157.938 23.5941 158.128 23.4655C158.509 23.2079 159.042 22.8852 159.654 22.6229C160.881 22.0961 162.392 21.8253 163.626 22.7636L163.747 22.6044ZM157.366 23.8731C157.4 23.9599 157.424 24.0489 157.458 24.1511C157.49 24.2474 157.53 24.3504 157.595 24.436L157.755 24.316C157.711 24.2576 157.679 24.1806 157.648 24.0879C157.619 24.0011 157.589 23.8921 157.551 23.7989L157.366 23.8731ZM157.722 24.4642C158.524 24.0361 159.658 23.6492 160.545 23.6929C160.987 23.7147 161.354 23.8424 161.595 24.1089C161.834 24.3741 161.965 24.7962 161.895 25.4453L162.094 25.4667C162.168 24.7838 162.034 24.2969 161.743 23.9749C161.454 23.6541 161.026 23.5163 160.555 23.4931C159.616 23.4468 158.445 23.8519 157.628 24.2878L157.722 24.4642ZM161.895 25.4445C161.752 26.6819 161.078 30.3312 160.438 33.6767C160.119 35.3483 159.808 36.9422 159.578 38.1183C159.463 38.7064 159.367 39.1899 159.301 39.5265C159.267 39.6947 159.241 39.8263 159.224 39.9157C159.215 39.9604 159.208 39.9946 159.203 40.0176C159.201 40.0292 159.199 40.0379 159.198 40.0437C159.198 40.0466 159.197 40.0488 159.197 40.0503C159.197 40.051 159.197 40.0516 159.197 40.0519C159.197 40.0521 159.197 40.0523 159.197 40.0524C159.197 40.0525 159.197 40.0525 159.295 40.072C159.393 40.0915 159.393 40.0915 159.393 40.0914C159.393 40.0913 159.393 40.0911 159.393 40.0909C159.393 40.0906 159.393 40.09 159.393 40.0893C159.393 40.0878 159.394 40.0856 159.394 40.0827C159.396 40.0768 159.397 40.0681 159.4 40.0566C159.404 40.0336 159.411 39.9993 159.42 39.9546C159.438 39.8651 159.464 39.7336 159.497 39.5652C159.563 39.2286 159.659 38.745 159.774 38.1568C160.005 36.9805 160.315 35.3862 160.635 33.7143C161.273 30.3728 161.949 26.7141 162.094 25.4675L161.895 25.4445ZM159.262 40.1664C159.989 40.421 160.904 40.6201 161.634 40.7553C162 40.8231 162.321 40.875 162.55 40.91C162.664 40.9275 162.756 40.9408 162.819 40.9497C162.851 40.9541 162.876 40.9575 162.892 40.9597C162.9 40.9609 162.907 40.9617 162.911 40.9623C162.913 40.9626 162.915 40.9628 162.916 40.9629C162.916 40.963 162.917 40.9631 162.917 40.9631C162.917 40.9631 162.917 40.9631 162.917 40.9631C162.917 40.9631 162.918 40.9631 162.918 40.9631C162.918 40.9632 162.918 40.9632 162.931 40.864C162.944 40.7649 162.944 40.7649 162.944 40.7648C162.944 40.7648 162.944 40.7648 162.944 40.7648C162.943 40.7648 162.943 40.7648 162.943 40.7648C162.943 40.7648 162.943 40.7647 162.942 40.7647C162.941 40.7645 162.94 40.7643 162.937 40.764C162.933 40.7635 162.927 40.7627 162.919 40.7616C162.903 40.7593 162.879 40.756 162.847 40.7516C162.785 40.7428 162.694 40.7296 162.58 40.7123C162.352 40.6775 162.034 40.6259 161.671 40.5587C160.943 40.4239 160.04 40.227 159.328 39.9776L159.262 40.1664ZM163.026 40.8927C163.404 39.6332 164.582 35.7752 165.931 32.2598C166.605 30.5016 167.321 28.8329 167.999 27.6186C168.339 27.011 168.666 26.522 168.971 26.1929C169.281 25.8583 169.546 25.7137 169.76 25.7355L169.781 25.5365C169.464 25.5043 169.14 25.7163 168.825 26.057C168.504 26.4032 168.167 26.9082 167.825 27.5211C167.139 28.7481 166.42 30.4274 165.744 32.1882C164.393 35.7108 163.213 39.5748 162.835 40.8353L163.026 40.8927ZM169.767 25.7359C169.989 25.7433 170.172 25.8774 170.318 26.1502C170.466 26.4251 170.567 26.8268 170.625 27.3304C170.741 28.3359 170.679 29.7128 170.499 31.204L170.698 31.228C170.878 29.7312 170.942 28.3361 170.824 27.3076C170.765 26.7942 170.659 26.3633 170.494 26.0556C170.328 25.7456 170.092 25.5467 169.774 25.5361L169.767 25.7359ZM170.501 31.1942C169.745 34.5796 169.312 36.8583 169.069 38.2913C168.947 39.0078 168.873 39.5129 168.829 39.8393C168.807 40.0024 168.792 40.1209 168.783 40.1988C168.779 40.2378 168.776 40.2666 168.774 40.2857C168.773 40.2953 168.772 40.3025 168.772 40.3073C168.771 40.3097 168.771 40.3116 168.771 40.3128C168.771 40.3134 168.771 40.3139 168.771 40.3142C168.771 40.3144 168.771 40.3145 168.771 40.3146C168.771 40.3147 168.771 40.3147 168.771 40.3147C168.771 40.3148 168.771 40.3148 168.871 40.324C168.97 40.3332 168.97 40.3332 168.97 40.3332C168.97 40.3332 168.97 40.3332 168.97 40.3332C168.97 40.3331 168.97 40.333 168.97 40.3329C168.97 40.3327 168.97 40.3323 168.97 40.3318C168.97 40.3307 168.971 40.3291 168.971 40.3269C168.971 40.3224 168.972 40.3156 168.973 40.3064C168.975 40.288 168.978 40.2599 168.982 40.2216C168.991 40.1451 169.005 40.0279 169.027 39.866C169.071 39.5421 169.145 39.0392 169.266 38.3247C169.509 36.8957 169.94 34.6204 170.696 31.2378L170.501 31.1942ZM168.838 40.4186C169.586 40.6741 170.441 40.8101 171.105 40.8824C171.438 40.9186 171.724 40.939 171.928 40.9503C172.03 40.956 172.11 40.9594 172.166 40.9614C172.194 40.9624 172.215 40.963 172.23 40.9634C172.237 40.9636 172.243 40.9638 172.247 40.9639C172.249 40.9639 172.25 40.9639 172.251 40.964C172.252 40.964 172.252 40.964 172.252 40.964C172.252 40.964 172.252 40.964 172.253 40.964C172.253 40.964 172.253 40.964 172.253 40.964C172.253 40.964 172.253 40.964 172.255 40.864C172.256 40.764 172.256 40.764 172.256 40.764C172.256 40.764 172.256 40.764 172.256 40.764C172.256 40.764 172.256 40.764 172.256 40.764C172.256 40.764 172.256 40.764 172.255 40.764C172.254 40.764 172.253 40.7639 172.251 40.7639C172.248 40.7638 172.243 40.7637 172.235 40.7635C172.221 40.7631 172.201 40.7625 172.173 40.7615C172.119 40.7596 172.039 40.7562 171.939 40.7507C171.738 40.7395 171.456 40.7194 171.127 40.6836C170.468 40.6119 169.631 40.4779 168.903 40.2294L168.838 40.4186ZM172.354 40.8781C172.604 39.1275 173.787 35.4652 175.172 32.2682C175.864 30.6707 176.604 29.195 177.299 28.1361C177.647 27.6061 177.981 27.185 178.289 26.9053C178.601 26.622 178.867 26.5012 179.083 26.5273L179.107 26.3287C178.8 26.2918 178.477 26.4646 178.155 26.7572C177.829 27.0533 177.484 27.4903 177.132 28.0263C176.428 29.0992 175.683 30.5868 174.989 32.1887C173.602 35.3908 172.409 39.0725 172.156 40.8499L172.354 40.8781ZM179.095 26.528C179.211 26.528 179.299 26.5582 179.368 26.6108C179.438 26.6642 179.496 26.7469 179.541 26.8647C179.632 27.1039 179.661 27.4633 179.643 27.9317C179.607 28.8668 179.392 30.1706 179.211 31.672L179.41 31.696C179.589 30.2094 179.806 28.8852 179.842 27.9393C179.861 27.4672 179.835 27.0729 179.728 26.7934C179.674 26.6519 179.597 26.5341 179.489 26.4518C179.381 26.3687 179.248 26.328 179.095 26.328V26.528ZM179.211 31.6717C179.095 32.6113 178.876 33.642 178.641 34.6757C178.407 35.7076 178.157 36.7437 177.984 37.6869C177.81 38.6288 177.71 39.4888 177.778 40.1686C177.847 40.8479 178.088 41.3758 178.623 41.604L178.702 41.42C178.266 41.2342 178.043 40.7991 177.977 40.1486C177.912 39.4987 178.007 38.6622 178.18 37.7231C178.353 36.7853 178.601 35.7559 178.836 34.72C179.071 33.686 179.292 32.6467 179.41 31.6963L179.211 31.6717ZM178.619 41.6018C180.353 42.4506 181.805 41.9676 182.908 41.226C183.458 40.8562 183.923 40.4212 184.296 40.0544C184.484 39.8697 184.646 39.7054 184.786 39.5713C184.928 39.4361 185.038 39.342 185.12 39.2948L185.021 39.1212C184.914 39.182 184.788 39.2926 184.648 39.4266C184.506 39.5617 184.34 39.731 184.156 39.9118C183.785 40.2763 183.331 40.7008 182.796 41.06C181.731 41.7764 180.356 42.2295 178.707 41.4222L178.619 41.6018ZM185.17 39.1989L185.098 38.4069L184.899 38.4251L184.971 39.2171L185.17 39.1989ZM184.999 38.416C184.929 38.3446 184.929 38.3446 184.929 38.3446C184.929 38.3446 184.929 38.3446 184.929 38.3446C184.928 38.3447 184.928 38.3447 184.928 38.3448C184.928 38.345 184.928 38.3453 184.927 38.3457C184.927 38.3465 184.925 38.3478 184.924 38.3495C184.92 38.3528 184.915 38.3579 184.908 38.3646C184.893 38.378 184.872 38.3978 184.845 38.4229C184.789 38.4731 184.708 38.5446 184.605 38.6289C184.399 38.7977 184.107 39.0173 183.764 39.221C183.072 39.6317 182.195 39.9637 181.391 39.7242L181.334 39.9158C182.222 40.1803 183.163 39.8103 183.866 39.393C184.22 39.1827 184.52 38.9568 184.732 38.7836C184.838 38.6969 184.921 38.6233 184.979 38.5711C185.008 38.545 185.03 38.5243 185.045 38.51C185.053 38.5028 185.058 38.4973 185.062 38.4935C185.064 38.4916 185.066 38.4901 185.067 38.4891C185.067 38.4886 185.068 38.4882 185.068 38.4879C185.068 38.4877 185.068 38.4876 185.068 38.4875C185.068 38.4875 185.069 38.4874 185.069 38.4874C185.069 38.4874 185.069 38.4874 184.999 38.416ZM181.434 39.7499C181.328 39.6422 181.251 39.4799 181.203 39.2594C181.156 39.0394 181.14 38.7686 181.151 38.4524C181.174 37.8197 181.306 37.0209 181.5 36.1138C181.693 35.2074 181.947 34.1982 182.213 33.1455C182.478 32.0934 182.754 30.9985 182.99 29.9235C183.463 27.7779 183.782 25.6951 183.537 24.1811C183.414 23.4225 183.147 22.7937 182.674 22.3739C182.199 21.9523 181.531 21.7548 180.634 21.8283L180.651 22.0277C181.509 21.9572 182.118 22.1478 182.541 22.5235C182.967 22.9011 183.221 23.4789 183.339 24.2131C183.578 25.6849 183.268 27.7331 182.795 29.8805C182.559 30.952 182.284 32.0441 182.019 33.0966C181.754 34.1485 181.499 35.1614 181.304 36.072C181.11 36.9817 180.975 37.7945 180.951 38.4452C180.939 38.7706 180.955 39.0594 181.008 39.3016C181.06 39.5433 181.15 39.7458 181.291 39.8901L181.434 39.7499ZM180.65 21.8283C180.251 21.7991 179.829 21.9483 179.4 22.2158C178.971 22.4839 178.527 22.8764 178.081 23.3489C177.191 24.294 176.284 25.5715 175.473 26.8515C174.661 28.1323 173.942 29.4193 173.426 30.3859C173.168 30.8693 172.961 31.2727 172.818 31.5554C172.747 31.6967 172.691 31.8078 172.654 31.8837C172.635 31.9217 172.621 31.9508 172.611 31.9704C172.606 31.9803 172.603 31.9877 172.6 31.9928C172.599 31.9953 172.598 31.9972 172.598 31.9984C172.597 31.9991 172.597 31.9996 172.597 31.9999C172.597 32.0001 172.597 32.0002 172.597 32.0003C172.597 32.0004 172.597 32.0004 172.687 32.044C172.777 32.0876 172.777 32.0876 172.777 32.0875C172.777 32.0874 172.777 32.0873 172.777 32.0872C172.777 32.0869 172.777 32.0864 172.777 32.0858C172.778 32.0846 172.779 32.0827 172.78 32.0803C172.783 32.0754 172.786 32.068 172.791 32.0583C172.8 32.0389 172.815 32.01 172.833 31.9723C172.87 31.897 172.925 31.7863 172.997 31.6456C173.139 31.3641 173.346 30.962 173.603 30.4801C174.117 29.5162 174.834 28.2337 175.642 26.9585C176.451 25.6825 177.349 24.4175 178.227 23.4861C178.666 23.0203 179.097 22.6411 179.506 22.3855C179.916 22.1293 180.296 22.0029 180.635 22.0277L180.65 21.8283ZM172.781 32.0756C173.182 30.8725 173.498 28.3928 173.331 26.164C173.247 25.0493 173.042 23.9881 172.661 23.1775C172.279 22.3662 171.711 21.7899 170.899 21.6848L170.874 21.8832C171.592 21.9761 172.113 22.4843 172.48 23.2626C172.846 24.0416 173.049 25.0752 173.131 26.179C173.297 28.3872 172.983 30.8395 172.592 32.0124L172.781 32.0756ZM179.355 19.696C179.355 19.7009 179.356 19.7147 179.358 19.7235C179.366 19.7417 179.405 19.7828 179.44 19.7952C179.472 19.7948 179.514 19.7769 179.525 19.7676C179.53 19.7625 179.536 19.7538 179.539 19.7504C179.542 19.7446 179.545 19.7397 179.546 19.7383C179.547 19.7361 179.547 19.7342 179.548 19.733C179.55 19.7286 179.551 19.7237 179.553 19.7199C179.556 19.7114 179.56 19.6991 179.565 19.6838C179.575 19.6529 179.589 19.6072 179.607 19.5489C179.642 19.4322 179.69 19.2645 179.744 19.0639C179.852 18.6629 179.982 18.1285 180.071 17.6067C180.159 17.0885 180.208 16.5698 180.145 16.2063C180.115 16.0259 180.053 15.8637 179.936 15.7654C179.81 15.6605 179.645 15.6477 179.457 15.7137L179.524 15.9023C179.669 15.8513 179.753 15.8733 179.807 15.9189C179.87 15.9711 179.92 16.075 179.948 16.24C180.004 16.5672 179.961 17.0565 179.873 17.5733C179.786 18.0865 179.658 18.6141 179.551 19.0119C179.497 19.2106 179.45 19.3765 179.415 19.4913C179.398 19.5487 179.384 19.5932 179.374 19.6224C179.37 19.6372 179.366 19.6475 179.364 19.6535C179.363 19.6569 179.363 19.6572 179.363 19.656C179.363 19.6555 179.364 19.6543 179.365 19.6526C179.365 19.6518 179.367 19.6472 179.371 19.6417C179.373 19.6384 179.38 19.6298 179.385 19.6248C179.396 19.6155 179.438 19.5977 179.469 19.5973C179.505 19.6096 179.544 19.6507 179.551 19.6688C179.553 19.6775 179.554 19.6912 179.555 19.696H179.355ZM179.457 15.7138C177.344 16.4657 173.997 17.0228 171.212 17.3602C169.821 17.5288 168.573 17.6422 167.694 17.6978C167.254 17.7256 166.908 17.7387 166.683 17.7373C166.569 17.7366 166.492 17.732 166.45 17.7252C166.44 17.7236 166.434 17.7221 166.431 17.7213C166.427 17.72 166.434 17.7213 166.444 17.7287C166.454 17.7367 166.484 17.7653 166.477 17.8127C166.472 17.8494 166.448 17.8666 166.448 17.8669L166.325 17.7091C166.315 17.7172 166.285 17.7419 166.279 17.7855C166.272 17.8398 166.305 17.8749 166.324 17.8889C166.342 17.9023 166.361 17.9091 166.373 17.9128C166.387 17.917 166.403 17.9202 166.418 17.9226C166.476 17.9322 166.567 17.9365 166.682 17.9373C166.914 17.9388 167.265 17.9253 167.706 17.8974C168.59 17.8415 169.842 17.7277 171.236 17.5588C174.022 17.2212 177.389 16.6623 179.524 15.9022L179.457 15.7138ZM166.288 17.8044C166.34 18.1183 166.34 18.4314 166.297 18.7038C166.253 18.9779 166.168 19.2027 166.056 19.3466L166.214 19.4694C166.354 19.2893 166.448 19.0281 166.494 18.7352C166.541 18.4406 166.541 18.1057 166.485 17.7716L166.288 17.8044ZM166.104 19.5033C169.127 20.4627 172.283 20.5162 174.773 20.3403C176.018 20.2522 177.099 20.1067 177.914 19.9879C178.323 19.9284 178.663 19.8759 178.925 19.8403C179.192 19.8041 179.365 19.7879 179.445 19.7955L179.464 19.5965C179.356 19.5861 179.158 19.607 178.898 19.6421C178.635 19.6778 178.291 19.7308 177.885 19.79C177.072 19.9085 175.997 20.0533 174.759 20.1407C172.281 20.3158 169.154 20.2613 166.165 19.3127L166.104 19.5033ZM193.226 30.316L193.131 30.2843L193.129 30.2908L193.226 30.316ZM196.25 32.404L196.347 32.3797L196.326 32.2957L196.24 32.3045L196.25 32.404ZM191.786 39.136L191.718 39.21L191.728 39.2188L191.74 39.2248L191.786 39.136ZM192.002 31.648L191.902 31.636L191.902 31.6365L192.002 31.648ZM191.678 22.396L191.635 22.4868L191.641 22.489L191.678 22.396ZM186.134 24.736L186.158 24.639L186.066 24.8097L186.134 24.736ZM186.566 25.132L186.498 25.2057L186.581 25.2821L186.647 25.1901L186.566 25.132ZM189.302 24.124L189.357 24.0408L189.345 24.0326L189.331 24.0283L189.302 24.124ZM188.618 32.548L188.717 32.5598L188.717 32.5583L188.618 32.548ZM191.246 40.936L191.232 41.035L191.233 41.0352L191.246 40.936ZM199.49 31.54L199.443 31.4518L199.353 31.4998L199.402 31.5889L199.49 31.54ZM201.398 30.46L201.349 30.3726L201.343 30.3762L201.398 30.46ZM202.298 29.956L202.397 29.9681L202.421 29.7724L202.249 29.8687L202.298 29.956ZM202.478 40.36L202.401 40.4239L202.404 40.4276L202.478 40.36ZM209.174 38.992L209.234 39.0716L209.295 39.0255L209.267 38.9549L209.174 38.992ZM208.958 38.488L209.028 38.4173L208.977 38.3658L208.912 38.399L208.958 38.488ZM204.746 37.48L204.646 37.4693L204.646 37.4701L204.746 37.48ZM207.626 22.972L207.723 22.9931L207.743 22.9048L207.657 22.8769L207.626 22.972ZM203.918 21.316L203.964 21.2274L203.862 21.1737L203.823 21.283L203.918 21.316ZM202.55 28.156L202.613 28.2335L202.643 28.2092L202.649 28.1712L202.55 28.156ZM198.95 30.676L198.877 30.745L198.933 30.8029L199.001 30.7617L198.95 30.676ZM195.746 29.38L195.753 29.2803L195.753 29.2802L195.746 29.38ZM193.129 30.2908C193.014 30.7313 193.071 31.363 193.531 31.8474C193.993 32.333 194.839 32.6492 196.26 32.5035L196.24 32.3045C194.852 32.4468 194.079 32.133 193.676 31.7096C193.273 31.285 193.221 30.7287 193.322 30.3412L193.129 30.2908ZM196.153 32.4283C196.56 34.0577 196.232 36.1196 195.416 37.5705C195.008 38.2952 194.483 38.8582 193.878 39.1428C193.278 39.4253 192.589 39.4387 191.832 39.0472L191.74 39.2248C192.549 39.6433 193.304 39.6342 193.964 39.3238C194.619 39.0156 195.17 38.4153 195.59 37.6685C196.429 36.1764 196.767 34.0623 196.347 32.3797L196.153 32.4283ZM191.853 39.062C191.582 38.8159 191.432 38.4174 191.372 37.8939C191.313 37.3721 191.345 36.7421 191.426 36.0516C191.507 35.3618 191.634 34.6175 191.763 33.8676C191.891 33.1189 192.02 32.3647 192.101 31.6595L191.902 31.6365C191.822 32.3353 191.694 33.0841 191.566 33.8339C191.438 34.5825 191.309 35.3322 191.227 36.0284C191.146 36.7239 191.111 37.3719 191.173 37.9166C191.235 38.4596 191.395 38.9161 191.718 39.21L191.853 39.062ZM192.101 31.66C192.316 29.8886 192.713 27.751 192.817 25.9748C192.869 25.0853 192.848 24.2746 192.691 23.6355C192.534 22.9966 192.235 22.5092 191.715 22.303L191.641 22.489C192.075 22.6608 192.347 23.0734 192.497 23.6833C192.647 24.2929 192.669 25.0797 192.617 25.9632C192.514 27.733 192.12 29.8434 191.902 31.636L192.101 31.66ZM191.72 22.3054C190.872 21.9092 190.124 21.8679 189.471 22.0318C188.82 22.1952 188.27 22.5604 187.813 22.9646C187.357 23.3684 186.988 23.8167 186.702 24.1481C186.557 24.3156 186.436 24.4499 186.336 24.538C186.285 24.582 186.244 24.6105 186.211 24.6262C186.179 24.6418 186.163 24.6403 186.158 24.639L186.109 24.833C186.176 24.8497 186.241 24.8336 186.298 24.8067C186.354 24.7799 186.411 24.738 186.467 24.6886C186.58 24.5898 186.71 24.4448 186.853 24.2788C187.143 23.943 187.502 23.5071 187.946 23.1144C188.389 22.7221 188.911 22.3786 189.52 22.2258C190.126 22.0736 190.827 22.1088 191.635 22.4866L191.72 22.3054ZM186.066 24.8097L186.498 25.2057L186.633 25.0583L186.201 24.6623L186.066 24.8097ZM186.566 25.132C186.647 25.1901 186.647 25.1902 186.647 25.1902L186.647 25.1902C186.647 25.1902 186.647 25.1902 186.647 25.1901C186.647 25.19 186.647 25.1899 186.647 25.1896C186.648 25.1891 186.648 25.1882 186.649 25.1869C186.651 25.1845 186.654 25.1807 186.658 25.1756C186.666 25.1655 186.677 25.1503 186.693 25.131C186.724 25.0924 186.771 25.0373 186.833 24.9725C186.956 24.8426 187.137 24.6748 187.368 24.5224C187.828 24.2182 188.482 23.9789 189.273 24.2197L189.331 24.0283C188.466 23.7651 187.751 24.0298 187.258 24.3556C187.011 24.5182 186.819 24.6969 186.688 24.8348C186.622 24.9038 186.572 24.9629 186.538 25.005C186.521 25.0261 186.508 25.0429 186.499 25.0547C186.494 25.0606 186.491 25.0652 186.488 25.0684C186.487 25.07 186.486 25.0713 186.486 25.0722C186.485 25.0727 186.485 25.073 186.485 25.0733C186.485 25.0735 186.485 25.0736 186.484 25.0737C186.484 25.0737 186.484 25.0738 186.484 25.0738C186.484 25.0738 186.484 25.0739 186.566 25.132ZM189.246 24.2072C189.259 24.2156 189.277 24.2352 189.296 24.2773C189.315 24.3189 189.332 24.3761 189.345 24.4504C189.372 24.5991 189.382 24.8021 189.378 25.054C189.371 25.5569 189.306 26.2364 189.211 27.0282C189.023 28.6061 188.716 30.6302 188.518 32.5377L188.717 32.5583C188.915 30.6498 189.22 28.6419 189.41 27.0518C189.505 26.2596 189.57 25.5711 189.578 25.057C189.582 24.8004 189.572 24.5826 189.542 24.4152C189.527 24.3315 189.507 24.2567 189.478 24.1947C189.451 24.1332 189.412 24.0774 189.357 24.0408L189.246 24.2072ZM188.518 32.5362C188.393 33.5974 188.209 34.6048 188.074 35.5454C187.939 36.481 187.853 37.3464 187.929 38.102C188.004 38.8597 188.244 39.5149 188.766 40.0212C189.286 40.5261 190.077 40.8713 191.232 41.035L191.26 40.837C190.129 40.6767 189.384 40.3424 188.905 39.8776C188.427 39.4141 188.2 38.8093 188.128 38.0821C188.055 37.3526 188.137 36.508 188.272 35.5739C188.405 34.6446 188.591 33.6226 188.717 32.5598L188.518 32.5362ZM191.233 41.0352C198.436 41.9447 201.636 35.1685 199.577 31.4911L199.402 31.5889C201.375 35.1115 198.311 41.7273 191.258 40.8368L191.233 41.0352ZM199.537 31.6282C200.074 31.3415 200.728 31.0149 201.452 30.5438L201.343 30.3762C200.628 30.8411 199.985 31.1625 199.443 31.4518L199.537 31.6282ZM201.447 30.5473L202.347 30.0433L202.249 29.8687L201.349 30.3727L201.447 30.5473ZM202.198 29.9439C201.928 32.1589 201.712 34.4494 201.694 36.345C201.685 37.2927 201.725 38.1448 201.834 38.841C201.943 39.5333 202.122 40.0871 202.401 40.4238L202.555 40.2962C202.312 40.0029 202.139 39.4947 202.032 38.81C201.925 38.1292 201.885 37.2893 201.894 36.347C201.912 34.4626 202.127 32.1811 202.397 29.9681L202.198 29.9439ZM202.404 40.4276C202.933 41.0041 203.636 41.1986 204.378 41.1726C205.118 41.1467 205.905 40.9018 206.621 40.5912C207.339 40.2802 207.992 39.9004 208.465 39.5989C208.701 39.448 208.893 39.3165 209.026 39.2225C209.093 39.1756 209.145 39.138 209.18 39.1121C209.198 39.0991 209.211 39.089 209.22 39.0822C209.225 39.0788 209.228 39.0762 209.231 39.0744C209.232 39.0735 209.233 39.0728 209.233 39.0723C209.234 39.0721 209.234 39.0719 209.234 39.0718C209.234 39.0717 209.234 39.0717 209.234 39.0716C209.234 39.0716 209.234 39.0716 209.174 38.992C209.113 38.9124 209.113 38.9124 209.113 38.9125C209.113 38.9125 209.113 38.9125 209.113 38.9125C209.113 38.9126 209.113 38.9128 209.112 38.913C209.112 38.9134 209.111 38.914 209.11 38.9148C209.108 38.9164 209.105 38.9189 209.1 38.9221C209.092 38.9286 209.079 38.9383 209.061 38.9509C209.027 38.9761 208.976 39.013 208.911 39.0592C208.78 39.1516 208.591 39.2813 208.357 39.4302C207.89 39.7283 207.246 40.1023 206.542 40.4078C205.836 40.7137 205.075 40.9481 204.371 40.9727C203.669 40.9974 203.03 40.8139 202.551 40.2924L202.404 40.4276ZM209.267 38.9549C209.231 38.8657 209.209 38.7811 209.174 38.68C209.142 38.5889 209.1 38.4886 209.028 38.4173L208.887 38.5587C208.924 38.5954 208.954 38.6571 208.985 38.746C209.012 38.8249 209.045 38.9383 209.081 39.0291L209.267 38.9549ZM208.912 38.399C208.145 38.7915 207.047 39.1611 206.181 39.1261C205.749 39.1086 205.389 38.9913 205.152 38.7429C204.917 38.4965 204.784 38.102 204.845 37.49L204.646 37.4701C204.581 38.118 204.719 38.5785 205.008 38.8811C205.295 39.1817 205.714 39.3074 206.173 39.3259C207.088 39.3629 208.223 38.9765 209.003 38.577L208.912 38.399ZM204.845 37.4907C204.97 36.3268 205.689 32.7061 206.378 29.3687C206.722 27.7017 207.059 26.1078 207.309 24.9306C207.434 24.342 207.538 23.8576 207.61 23.5204C207.646 23.3518 207.675 23.2199 207.694 23.1303C207.704 23.0854 207.711 23.0511 207.716 23.0281C207.718 23.0165 207.72 23.0078 207.722 23.0019C207.722 22.999 207.723 22.9968 207.723 22.9953C207.723 22.9946 207.723 22.994 207.723 22.9937C207.723 22.9935 207.723 22.9933 207.723 22.9932C207.723 22.9932 207.723 22.9931 207.626 22.972C207.528 22.9509 207.528 22.9509 207.528 22.951C207.528 22.9511 207.528 22.9513 207.528 22.9514C207.528 22.9518 207.528 22.9524 207.527 22.9531C207.527 22.9546 207.527 22.9568 207.526 22.9597C207.525 22.9656 207.523 22.9743 207.52 22.9859C207.515 23.009 207.508 23.0433 207.498 23.0882C207.479 23.1779 207.451 23.3098 207.415 23.4784C207.342 23.8158 207.238 24.3003 207.113 24.889C206.863 26.0664 206.527 27.6608 206.182 29.3283C205.494 32.6599 204.773 36.2932 204.646 37.4693L204.845 37.4907ZM207.657 22.8769C206.943 22.645 206.021 22.2335 205.275 21.8782C204.902 21.7009 204.574 21.5381 204.34 21.4197C204.222 21.3605 204.128 21.3123 204.064 21.2791C204.031 21.2624 204.007 21.2495 203.99 21.2407C203.981 21.2363 203.975 21.233 203.971 21.2308C203.968 21.2296 203.967 21.2288 203.966 21.2282C203.965 21.228 203.965 21.2278 203.964 21.2276C203.964 21.2275 203.964 21.2275 203.964 21.2275C203.964 21.2274 203.964 21.2274 203.964 21.2274C203.964 21.2274 203.964 21.2274 203.918 21.316C203.871 21.4046 203.871 21.4046 203.871 21.4046C203.871 21.4046 203.871 21.4046 203.871 21.4046C203.872 21.4047 203.872 21.4047 203.872 21.4048C203.872 21.405 203.872 21.4052 203.873 21.4055C203.874 21.4061 203.876 21.4069 203.878 21.4081C203.882 21.4104 203.889 21.4138 203.897 21.4182C203.914 21.4271 203.94 21.4401 203.972 21.4569C204.037 21.4904 204.132 21.5387 204.25 21.5982C204.485 21.7172 204.814 21.8806 205.189 22.0588C205.936 22.4145 206.868 22.8309 207.595 23.0671L207.657 22.8769ZM203.823 21.283C203.568 22.0129 202.955 24.8657 202.451 28.1408L202.649 28.1712C203.153 24.8943 203.764 22.0591 204.012 21.349L203.823 21.283ZM202.487 28.0785C201.518 28.8675 200.154 29.8368 198.898 30.5903L199.001 30.7617C200.265 30.0033 201.637 29.0285 202.613 28.2335L202.487 28.0785ZM199.022 30.607C198.28 29.828 197.246 29.3895 195.753 29.2803L195.738 29.4797C197.198 29.5865 198.179 30.012 198.877 30.745L199.022 30.607ZM195.753 29.2802C195.215 29.2432 194.616 29.3449 194.127 29.5247C193.883 29.6146 193.662 29.7254 193.49 29.851C193.319 29.9752 193.185 30.121 193.131 30.2844L193.321 30.3476C193.356 30.241 193.452 30.1258 193.607 30.0127C193.761 29.9009 193.964 29.7979 194.196 29.7123C194.662 29.5411 195.233 29.4448 195.739 29.4798L195.753 29.2802Z" fill="#E42032"/>
</g>
<defs>
<clipPath id="clip0_1113_10404">
<rect width="214" height="70" fill="white" transform="translate(0.818359)"/>
</clipPath>
</defs>
</svg>
