<svg width="130" height="36" viewBox="0 0 130 36" fill="none" xmlns="http://www.w3.org/2000/svg">
<g clip-path="url(#clip0_1501_10492)">
<path d="M-0.103516 28.9315L62.333 28.8789L62.3355 31.9305L-0.100775 31.983L-0.103516 28.9315Z" fill="#FEFEFE"/>
<path d="M123.3 10.5939C124.236 11.5278 124.836 12.8226 124.876 14.2636L124.88 14.2875L124.89 25.8319L120.753 25.8354L120.75 21.6236L112.251 21.6308L112.255 25.8427L108.119 25.8459L108.109 14.3015C108.108 12.8938 108.696 11.5699 109.656 10.6078C110.593 9.66977 111.885 9.07159 113.332 9.07016L119.649 9.06519C121.058 9.06377 122.352 9.64673 123.3 10.5939ZM122.853 14.2891C122.822 13.4078 122.447 12.6113 121.866 12.0309C121.286 11.4516 120.5 11.095 119.65 11.0956L113.333 11.101C112.454 11.1018 111.666 11.4679 111.093 12.0422C110.501 12.635 110.139 13.4448 110.14 14.3L110.147 23.8135L110.223 23.8134L110.219 19.602L122.779 19.5913L122.782 23.8031L122.857 23.8029L122.849 14.2891H122.853ZM120.422 13.5219C120.224 13.324 119.951 13.2014 119.652 13.2015L113.335 13.2069C113.036 13.207 112.764 13.3303 112.566 13.5284C112.368 13.7268 112.245 13.9994 112.245 14.2984L112.248 17.4946L120.747 17.4872L120.744 14.2911C120.744 13.9922 120.62 13.7199 120.422 13.5219ZM119.651 11.1707C120.51 11.17 121.291 11.5203 121.857 12.085C122.422 12.6497 122.774 13.4297 122.774 14.2891L122.779 19.5162L110.219 19.5269L110.215 14.2998C110.214 13.4404 110.564 12.6596 111.129 12.094C111.694 11.5284 112.474 11.1768 113.333 11.1761L119.651 11.1707ZM104.902 25.8486L84.9342 25.8654L84.9307 21.729L87.0366 21.7274L87.0304 14.3194C87.0292 12.9117 87.6174 11.5874 88.5776 10.6258C89.514 9.68754 90.8058 9.08935 92.2529 9.08803L103.797 9.07828L103.808 21.7133L105.913 21.7112L105.917 25.8477L104.902 25.8486ZM86.9633 23.8331L103.885 23.8187L103.885 23.7436L101.779 23.7457L101.768 11.1107L92.2547 11.1189C91.3755 11.1193 90.5877 11.4857 90.0146 12.0601C89.4225 12.6529 89.0603 13.4625 89.0609 14.3177L89.069 23.7562L86.9631 23.7579L86.9633 23.8331ZM91.4873 13.5462C91.2893 13.7446 91.1666 14.0172 91.1668 14.3158L91.1729 21.7238L99.6712 21.7165L99.664 13.2183L92.2564 13.2244C91.9575 13.2249 91.6852 13.3481 91.4873 13.5462ZM89.136 14.3176C89.1353 13.4582 89.4857 12.6774 90.0502 12.1118C90.6149 11.546 91.3951 11.1945 92.2545 11.1939L101.693 11.1859L101.704 23.7454L89.144 23.7561L89.136 14.3176Z" fill="#FEFEFE"/>
<path d="M61.8163 16.268C62.7515 17.2017 63.3518 18.4969 63.3919 19.938L63.396 19.9617L63.3966 20.6566C63.3978 22.0645 62.8097 23.3883 61.8495 24.3503C60.913 25.2885 59.621 25.8867 58.1742 25.888L46.6298 25.8977L46.6155 9.1263L61.281 9.11401L61.2846 13.2504L50.7555 13.2594L50.7566 14.7455L58.1646 14.739C59.5733 14.7379 60.8676 15.321 61.8163 16.268ZM61.3683 19.9633C61.3375 19.0819 60.963 18.2854 60.3816 17.7051C59.8015 17.1259 59.0161 16.7692 58.1661 16.7698L48.7277 16.7779L48.7231 11.2305L59.2522 11.2214L59.252 11.1463L48.6479 11.1554L48.6588 23.8653L58.1723 23.8572C59.0512 23.8563 59.839 23.4903 60.4124 22.916C61.0042 22.3231 61.3667 21.5135 61.3658 20.6582L61.3652 19.9632L61.3683 19.9633ZM58.9397 21.4298C59.1377 21.2315 59.2604 20.9588 59.2601 20.6602L59.2596 19.9653C59.2591 19.6663 59.1362 19.3942 58.9378 19.1962C58.7395 18.9983 58.4668 18.8753 58.1682 18.8758L50.7603 18.8819L50.7627 21.7577L58.1707 21.7513C58.4692 21.751 58.7418 21.6279 58.9397 21.4298ZM61.2907 20.6584C61.2914 21.5177 60.9411 22.2986 60.3768 22.8642C59.8118 23.4301 59.0316 23.7814 58.1722 23.7821L48.7337 23.7901L48.7279 16.8529L58.1663 16.8449C59.0257 16.8442 59.8066 17.1945 60.3721 17.7592C60.938 18.3239 61.2894 19.104 61.2902 19.9634L61.2907 20.6584ZM42.0231 10.6888C42.9701 11.6341 43.575 12.934 43.5759 14.3557L43.5814 20.6731C43.5827 22.1119 42.9959 23.4193 42.0499 24.3668C41.1039 25.3147 39.7974 25.9033 38.3589 25.9047L32.0416 25.9101C30.5927 25.9112 29.2857 25.3304 28.3399 24.3863C27.3944 23.4421 26.8114 22.1364 26.8103 20.6874L26.8049 14.37C26.8037 12.9316 27.3903 11.6241 28.3363 10.6764C29.2823 9.72885 30.5889 9.1399 32.0273 9.13878L38.3449 9.1334C39.7469 9.13208 41.064 9.73139 42.0231 10.6888ZM41.5454 14.3576C41.5448 13.5002 41.1719 12.7083 40.5885 12.1258C39.9954 11.534 39.1922 11.1634 38.3465 11.1639L32.0291 11.1693C31.1512 11.1702 30.3526 11.5307 29.7733 12.1111C29.1941 12.6914 28.8348 13.4902 28.8354 14.3682L28.8408 20.6859C28.8417 21.574 29.1973 22.3733 29.7745 22.9493C30.3518 23.5256 31.1513 23.8798 32.0397 23.8793L38.3575 23.874C39.235 23.8732 40.0336 23.5128 40.6129 22.9324C41.1925 22.3521 41.5514 21.5529 41.5508 20.675L41.5454 14.3576ZM39.1246 21.4463C39.3224 21.2481 39.4451 20.9755 39.4449 20.6766L39.4395 14.3593C39.4393 14.0607 39.3161 13.7882 39.1178 13.5902C38.9197 13.3923 38.6472 13.2696 38.3482 13.2698L32.0308 13.2752C31.7322 13.2754 31.4597 13.3986 31.2617 13.5969C31.0638 13.7953 30.9412 14.0676 30.9413 14.3665L30.9467 20.6839C30.9468 20.9828 31.0701 21.2549 31.2684 21.453C31.4669 21.651 31.7394 21.7736 32.0381 21.7734L38.3554 21.7681C38.6544 21.7679 38.9265 21.6446 39.1246 21.4463ZM41.4758 20.6751C41.4764 21.5345 41.1262 22.3154 40.5615 22.881C39.9969 23.4465 39.2166 23.7982 38.3573 23.7988L32.0396 23.8042C31.1805 23.8049 30.3996 23.4546 29.8338 22.8899C29.2682 22.3252 28.9169 21.5452 28.9159 20.6857L28.9108 14.3681C28.9101 13.5089 29.2601 12.7281 29.8248 12.1623C30.3897 11.5967 31.17 11.2453 32.0293 11.2447L38.3466 11.2392C39.206 11.2386 39.9867 11.5885 40.5525 12.1532C41.118 12.7179 41.4696 13.4984 41.4704 14.3577L41.4758 20.6751ZM8.00054 9.15888L23.7567 9.14578L23.7707 25.9169L19.6343 25.9205L19.6235 13.2857L11.1253 13.2926L11.136 25.9277L6.99956 25.9312L6.98535 9.1598L8.00054 9.15888ZM21.7277 11.1782L9.01765 11.1887L9.02862 23.8988L9.10363 23.8987L9.09287 11.2637L21.6525 11.2534L21.6633 23.8881L21.7384 23.8879L21.7277 11.1782Z" fill="#FEFEFE"/>
<path d="M73.4753 6.21105L73.6007 5.18226L74.4298 5.18156L74.0959 7.9233L73.2668 7.92391L73.3918 6.89735L72.5628 6.89796L72.4374 7.92645L71.6084 7.92716L71.9423 5.18389L72.7716 5.18328L72.6463 6.21177L73.4753 6.21105ZM75.539 7.23842L75.2354 7.92421L74.407 7.92492L75.6215 5.18084L76.8646 5.17973L77.4123 7.92249L76.583 7.9232L76.4466 7.23771L75.539 7.23842ZM76.165 5.82512L75.8438 6.55212L76.3108 6.55161L76.165 5.82512ZM78.1609 5.17851L80.2853 5.17668L80.6062 5.51968L80.4813 6.54624L80.0766 6.88954L78.7811 6.89268L78.6561 7.92117L77.8268 7.92188L78.1609 5.17851ZM78.8646 6.20639L79.6939 6.20446L79.7354 5.86349L78.9063 5.8642L78.8646 6.20639ZM83.2583 7.57238L82.8534 7.91569L81.0915 7.91934L80.7706 7.57634L81.0212 5.51938L81.4236 5.17587L83.1873 5.17435L83.5083 5.51704L83.2583 7.57238ZM82.6375 5.86085L81.8085 5.86146L81.6413 7.23355L82.4707 7.23061L82.6375 5.86085ZM85.4068 5.79172L84.8005 7.12828L85.9218 7.12727L86.0845 5.79122L85.4068 5.79172ZM86.7503 7.12656L87.0841 7.12626L86.9144 8.52159L86.0498 8.5222L86.1238 7.91488L84.4998 7.91447L84.4256 8.52362L83.561 8.52443L83.6355 7.91295L83.6291 7.91305L83.7247 7.1293L84.0769 7.12879L84.8228 5.17303L86.9884 5.1712L86.7503 7.12656ZM89.083 6.19786L89.2083 5.16938L90.0374 5.16846L89.7038 7.9101L88.8747 7.91082L88.9998 6.88426L88.1703 6.88487L88.0455 7.91345L87.216 7.91406L87.5498 5.1708L88.3792 5.17008L88.254 6.19857L89.083 6.19786ZM93.6083 7.90878L92.7793 7.90919L93.1135 5.16582L93.9425 5.16521L93.6083 7.90878ZM91.0306 7.22533L91.8598 7.22462L91.9013 6.88375L91.0724 6.88223L91.0306 7.22533ZM90.4519 5.16805L91.2809 5.16745L91.156 6.19623L92.4508 6.19684L92.7721 6.53994L92.647 7.56619L92.2425 7.9098L90.1181 7.91173L90.4519 5.16805ZM96.354 5.16328L97.4428 5.16227L97.1092 7.90361L96.2801 7.90442L96.4846 6.22517L95.295 7.90726L93.9996 7.90838L94.3334 5.16511L95.1628 5.1641L94.915 7.20005L96.354 5.16328ZM95.283 4.88129L94.9617 4.5385L94.9818 4.18982L95.661 4.18921L95.6831 4.19479L96.5648 4.19398L96.8858 4.53708L96.8443 4.87997L96.2213 4.88058L95.283 4.88129ZM102.831 5.1577L102.497 7.90137L101.669 7.90188L101.806 6.77291L101.305 7.90229L100.373 7.903L100.148 6.77433L100.01 7.9032L99.1811 7.90412L99.5148 5.16054L100.655 5.15963L100.977 6.77361L101.691 5.15872L102.831 5.1577ZM103.94 7.21447L103.636 7.90006L102.808 7.90076L104.023 5.15659L105.266 5.15587L105.813 7.89833L104.984 7.89904L104.848 7.21386L103.94 7.21447ZM104.566 5.80086L104.245 6.52786L104.712 6.52776L104.566 5.80086ZM106.564 5.15465L108.844 5.15252L108.758 5.83882L107.307 5.84004L107.057 7.89732L106.248 7.89802L106.564 5.15465ZM109.953 7.20929L109.65 7.89518L108.821 7.89589L110.036 5.15171L111.279 5.1506L111.826 7.89335L110.997 7.89406L110.861 7.20858L109.953 7.20929ZM110.579 5.79599L110.258 6.52309L110.725 6.52258L110.579 5.79599ZM112.988 6.86386L113.072 6.17786L114.109 6.17542L114.15 5.83436L112.492 5.83578L112.575 5.14948L114.7 5.14796L115.021 5.49055L114.919 6.32322L114.688 6.51934L114.872 6.71504L114.771 7.54569L114.366 7.8893L112.241 7.89305L112.325 7.20736L113.983 7.20381L114.024 6.86294L112.988 6.86386ZM117.498 5.14532L118.586 5.14461L118.253 7.88605L117.423 7.88665L117.628 6.2072L116.438 7.8895L115.143 7.89041L115.477 5.14714L116.306 5.14643L116.058 7.18209L117.498 5.14532ZM120.533 6.17137L120.658 5.14288L121.487 5.14186L121.154 7.88361L120.325 7.88422L120.45 6.85736L119.62 6.85828L119.495 7.88686L118.666 7.88747L119 5.1441L119.829 5.14349L119.704 6.17197L120.533 6.17137Z" fill="#FEFEFE"/>
<path d="M68.2562 21.128C69.2656 21.1255 70.2729 21.1248 71.2803 21.1238C72.2871 21.123 73.2944 21.122 74.3036 21.1213C75.6302 21.1202 76.9542 21.1175 78.278 21.1163C79.602 21.1151 80.928 21.1139 82.2543 21.1128C81.8177 22.0424 81.3812 22.9734 80.9422 23.9032C78.1648 24.2341 75.3822 24.5665 72.6047 24.8962C69.8294 25.2255 67.0494 25.5552 64.2812 25.8827C64.3279 25.096 64.3796 24.3029 64.4283 23.513C64.4774 22.7196 64.5287 21.9245 64.58 21.1313C65.8045 21.1301 67.0314 21.1291 68.2562 21.128Z" fill="#FEFEFE"/>
<path d="M68.6517 15.1538C70.3469 15.1523 72.0421 15.1511 73.7396 15.1495C75.6261 15.1478 77.5104 15.148 79.3968 15.1466C81.2837 15.1449 83.1723 15.1434 85.0614 15.1416C84.6248 16.071 84.1884 17.0007 83.7516 17.9269C77.3871 18.5907 71.0226 19.2536 64.6582 19.917C64.7069 19.1236 64.7583 18.3303 64.8074 17.5369C64.8563 16.7453 64.9101 15.9503 64.9614 15.1552C66.1907 15.1543 67.42 15.1547 68.6517 15.1538Z" fill="#FEFEFE"/>
<path d="M86.5928 11.885L65.043 13.8688C65.0917 13.0753 65.1431 12.2822 65.192 11.4904C65.2412 10.6988 65.2947 9.90368 65.346 9.11059C69.1076 9.10724 72.8664 9.1042 76.6232 9.10085L87.9097 9.09131L86.5928 11.885Z" fill="#FEFEFE"/>
<path d="M68.8978 28.3506C69.9674 28.3499 70.8354 29.1961 70.8361 30.241C70.8372 31.286 69.9708 32.1337 68.9009 32.1344C67.8314 32.1356 66.9636 31.2894 66.9629 30.2443C66.9619 29.1994 67.8283 28.3514 68.8978 28.3506Z" fill="#FEFEFE"/>
<path d="M76.5241 28.3445C77.5937 28.3437 78.4617 29.1899 78.4624 30.2349C78.4635 31.2796 77.5971 32.1275 76.5273 32.1283C75.4578 32.1291 74.59 31.2828 74.5889 30.2379C74.5882 29.1933 75.4545 28.3454 76.5241 28.3445Z" fill="#FEFEFE"/>
<path d="M70.3979 7.87943L69.4699 5.76338L61.2266 4.27588L61.4461 7.88694L70.3979 7.87943Z" fill="#FEFEFE"/>
<path d="M130.006 28.8218L84.5273 28.86L84.5301 31.9119L130.008 31.8736L130.006 28.8218Z" fill="#FEFEFE"/>
<path d="M-0.103516 28.9315L62.333 28.8789L62.3355 31.9305L-0.100775 31.983L-0.103516 28.9315Z" fill="#FEFEFE"/>
<path d="M123.3 10.5939C124.236 11.5278 124.836 12.8226 124.876 14.2636L124.88 14.2875L124.89 25.8319L120.753 25.8354L120.75 21.6236L112.251 21.6308L112.255 25.8427L108.119 25.8459L108.109 14.3015C108.108 12.8938 108.696 11.5699 109.656 10.6078C110.593 9.66977 111.885 9.07159 113.332 9.07016L119.649 9.06519C121.058 9.06377 122.352 9.64673 123.3 10.5939ZM122.853 14.2891C122.822 13.4078 122.447 12.6113 121.866 12.0309C121.286 11.4516 120.5 11.095 119.65 11.0956L113.333 11.101C112.454 11.1018 111.666 11.4679 111.093 12.0422C110.501 12.635 110.139 13.4448 110.14 14.3L110.147 23.8135L110.223 23.8134L110.219 19.602L122.779 19.5913L122.782 23.8031L122.857 23.8029L122.849 14.2891H122.853ZM120.422 13.5219C120.224 13.324 119.951 13.2014 119.652 13.2015L113.335 13.2069C113.036 13.207 112.764 13.3303 112.566 13.5284C112.368 13.7268 112.245 13.9994 112.245 14.2984L112.248 17.4946L120.747 17.4872L120.744 14.2911C120.744 13.9922 120.62 13.7199 120.422 13.5219ZM119.651 11.1707C120.51 11.17 121.291 11.5203 121.857 12.085C122.422 12.6497 122.774 13.4297 122.774 14.2891L122.779 19.5162L110.219 19.5269L110.215 14.2998C110.214 13.4404 110.564 12.6596 111.129 12.094C111.694 11.5284 112.474 11.1768 113.333 11.1761L119.651 11.1707ZM104.902 25.8486L84.9342 25.8654L84.9307 21.729L87.0366 21.7274L87.0304 14.3194C87.0292 12.9117 87.6174 11.5874 88.5776 10.6258C89.514 9.68754 90.8058 9.08935 92.2529 9.08803L103.797 9.07828L103.808 21.7133L105.913 21.7112L105.917 25.8477L104.902 25.8486ZM86.9633 23.8331L103.885 23.8187L103.885 23.7436L101.779 23.7457L101.768 11.1107L92.2547 11.1189C91.3755 11.1193 90.5877 11.4857 90.0146 12.0601C89.4225 12.6529 89.0603 13.4625 89.0609 14.3177L89.069 23.7562L86.9631 23.7579L86.9633 23.8331ZM91.4873 13.5462C91.2893 13.7446 91.1666 14.0172 91.1668 14.3158L91.1729 21.7238L99.6712 21.7165L99.664 13.2183L92.2564 13.2244C91.9575 13.2249 91.6852 13.3481 91.4873 13.5462ZM89.136 14.3176C89.1353 13.4582 89.4857 12.6774 90.0502 12.1118C90.6149 11.546 91.3951 11.1945 92.2545 11.1939L101.693 11.1859L101.704 23.7454L89.144 23.7561L89.136 14.3176Z" fill="#FEFEFE"/>
<path d="M61.8163 16.268C62.7515 17.2017 63.3518 18.4969 63.3919 19.938L63.396 19.9617L63.3966 20.6566C63.3978 22.0645 62.8097 23.3883 61.8495 24.3503C60.913 25.2885 59.621 25.8867 58.1742 25.888L46.6298 25.8977L46.6155 9.1263L61.281 9.11401L61.2846 13.2504L50.7555 13.2594L50.7566 14.7455L58.1646 14.739C59.5734 14.7379 60.8676 15.321 61.8163 16.268ZM61.3683 19.9633C61.3375 19.0819 60.963 18.2854 60.3816 17.7051C59.8015 17.1259 59.0161 16.7692 58.1661 16.7698L48.7277 16.7779L48.7231 11.2305L59.2522 11.2214L59.252 11.1463L48.6479 11.1554L48.6589 23.8653L58.1723 23.8572C59.0512 23.8563 59.839 23.4903 60.4124 22.916C61.0042 22.3231 61.3667 21.5135 61.3658 20.6582L61.3652 19.9632L61.3683 19.9633ZM58.9397 21.4298C59.1377 21.2315 59.2604 20.9588 59.2601 20.6602L59.2596 19.9653C59.2591 19.6663 59.1362 19.3942 58.9378 19.1962C58.7395 18.9983 58.4668 18.8753 58.1682 18.8758L50.7603 18.8819L50.7627 21.7577L58.1707 21.7513C58.4692 21.751 58.7418 21.6279 58.9397 21.4298ZM61.2907 20.6584C61.2914 21.5177 60.9411 22.2986 60.3768 22.8642C59.8118 23.4301 59.0316 23.7814 58.1722 23.7821L48.7337 23.7901L48.7279 16.8529L58.1663 16.8449C59.0257 16.8442 59.8066 17.1945 60.3721 17.7592C60.938 18.3239 61.2894 19.104 61.2902 19.9634L61.2907 20.6584ZM42.0231 10.6888C42.9701 11.6341 43.575 12.934 43.5759 14.3557L43.5814 20.6731C43.5827 22.1119 42.9959 23.4193 42.0499 24.3668C41.1039 25.3147 39.7974 25.9033 38.3589 25.9047L32.0416 25.9101C30.5927 25.9112 29.2857 25.3304 28.3399 24.3863C27.3944 23.4421 26.8114 22.1364 26.8103 20.6874L26.8049 14.37C26.8037 12.9316 27.3903 11.6241 28.3363 10.6764C29.2823 9.72885 30.5889 9.1399 32.0273 9.13878L38.3449 9.1334C39.7469 9.13208 41.064 9.73139 42.0231 10.6888ZM41.5454 14.3576C41.5448 13.5002 41.1719 12.7083 40.5885 12.1258C39.9954 11.534 39.1922 11.1634 38.3465 11.1639L32.0291 11.1693C31.1512 11.1702 30.3526 11.5307 29.7733 12.1111C29.1941 12.6914 28.8349 13.4902 28.8354 14.3682L28.8408 20.6859C28.8417 21.574 29.1973 22.3733 29.7745 22.9493C30.3518 23.5256 31.1513 23.8798 32.0397 23.8793L38.3575 23.874C39.235 23.8732 40.0336 23.5128 40.6129 22.9324C41.1925 22.3521 41.5514 21.5529 41.5508 20.675L41.5454 14.3576ZM39.1246 21.4463C39.3224 21.2481 39.4451 20.9755 39.4449 20.6766L39.4395 14.3593C39.4393 14.0607 39.3161 13.7882 39.1178 13.5902C38.9197 13.3923 38.6472 13.2696 38.3482 13.2698L32.0308 13.2752C31.7322 13.2754 31.4597 13.3986 31.2617 13.5969C31.0638 13.7953 30.9412 14.0676 30.9413 14.3665L30.9467 20.6839C30.9468 20.9828 31.0701 21.2549 31.2684 21.453C31.4669 21.651 31.7394 21.7736 32.0381 21.7734L38.3554 21.7681C38.6544 21.7679 38.9265 21.6446 39.1246 21.4463ZM41.4758 20.6751C41.4764 21.5345 41.1262 22.3154 40.5615 22.881C39.9969 23.4465 39.2166 23.7982 38.3573 23.7988L32.0396 23.8042C31.1805 23.8049 30.3996 23.4546 29.8338 22.8899C29.2682 22.3252 28.9169 21.5452 28.9159 20.6857L28.9108 14.3681C28.9101 13.5089 29.2601 12.7281 29.8248 12.1623C30.3897 11.5967 31.17 11.2453 32.0293 11.2447L38.3466 11.2392C39.206 11.2386 39.9867 11.5885 40.5525 12.1532C41.118 12.7179 41.4696 13.4984 41.4704 14.3577L41.4758 20.6751ZM8.00054 9.15888L23.7567 9.14578L23.7707 25.9169L19.6343 25.9205L19.6235 13.2857L11.1253 13.2926L11.136 25.9277L6.99956 25.9312L6.98535 9.1598L8.00054 9.15888ZM21.7277 11.1782L9.01765 11.1887L9.02862 23.8988L9.10363 23.8987L9.09287 11.2637L21.6525 11.2534L21.6633 23.8881L21.7384 23.8879L21.7277 11.1782Z" fill="#FEFEFE"/>
<path d="M73.4753 6.21105L73.6007 5.18226L74.4298 5.18156L74.0959 7.9233L73.2668 7.92391L73.3918 6.89735L72.5628 6.89796L72.4374 7.92645L71.6084 7.92716L71.9423 5.18389L72.7716 5.18328L72.6463 6.21177L73.4753 6.21105ZM75.539 7.23842L75.2354 7.92421L74.407 7.92492L75.6215 5.18084L76.8646 5.17973L77.4123 7.92249L76.583 7.9232L76.4466 7.23771L75.539 7.23842ZM76.165 5.82512L75.8438 6.55212L76.3108 6.55161L76.165 5.82512ZM78.1609 5.17851L80.2853 5.17668L80.6062 5.51968L80.4813 6.54624L80.0766 6.88954L78.7811 6.89268L78.6561 7.92117L77.8268 7.92188L78.1609 5.17851ZM78.8646 6.20639L79.6939 6.20446L79.7354 5.86349L78.9063 5.8642L78.8646 6.20639ZM83.2583 7.57238L82.8534 7.91569L81.0915 7.91934L80.7706 7.57634L81.0212 5.51938L81.4236 5.17587L83.1873 5.17435L83.5083 5.51704L83.2583 7.57238ZM82.6375 5.86085L81.8085 5.86146L81.6413 7.23355L82.4707 7.23061L82.6375 5.86085ZM85.4068 5.79172L84.8005 7.12828L85.9218 7.12727L86.0845 5.79122L85.4068 5.79172ZM86.7503 7.12656L87.0841 7.12626L86.9144 8.52159L86.0498 8.5222L86.1238 7.91488L84.4998 7.91447L84.4256 8.52362L83.561 8.52443L83.6355 7.91295L83.6291 7.91305L83.7247 7.1293L84.0769 7.12879L84.8228 5.17303L86.9884 5.1712L86.7503 7.12656ZM89.083 6.19786L89.2083 5.16938L90.0374 5.16846L89.7038 7.9101L88.8747 7.91082L88.9998 6.88426L88.1703 6.88487L88.0455 7.91345L87.216 7.91406L87.5498 5.1708L88.3792 5.17008L88.254 6.19857L89.083 6.19786ZM93.6083 7.90878L92.7793 7.90919L93.1135 5.16582L93.9425 5.16521L93.6083 7.90878ZM91.0306 7.22533L91.8598 7.22462L91.9013 6.88375L91.0724 6.88223L91.0306 7.22533ZM90.4519 5.16805L91.2809 5.16745L91.156 6.19623L92.4508 6.19684L92.7721 6.53994L92.647 7.56619L92.2425 7.9098L90.1181 7.91173L90.4519 5.16805ZM96.354 5.16328L97.4428 5.16227L97.1092 7.90361L96.2801 7.90442L96.4846 6.22517L95.295 7.90726L93.9996 7.90838L94.3334 5.16511L95.1628 5.1641L94.915 7.20005L96.354 5.16328ZM95.283 4.88129L94.9617 4.5385L94.9818 4.18982L95.661 4.18921L95.6831 4.19479L96.5648 4.19398L96.8858 4.53708L96.8443 4.87997L96.2213 4.88058L95.283 4.88129ZM102.831 5.1577L102.497 7.90137L101.669 7.90188L101.806 6.77291L101.305 7.90229L100.373 7.903L100.148 6.77433L100.01 7.9032L99.1811 7.90412L99.5148 5.16054L100.655 5.15963L100.977 6.77361L101.691 5.15872L102.831 5.1577ZM103.94 7.21447L103.636 7.90006L102.808 7.90076L104.023 5.15659L105.266 5.15587L105.813 7.89833L104.984 7.89904L104.848 7.21386L103.94 7.21447ZM104.566 5.80086L104.245 6.52786L104.712 6.52776L104.566 5.80086ZM106.564 5.15465L108.844 5.15252L108.758 5.83882L107.307 5.84004L107.057 7.89732L106.248 7.89802L106.564 5.15465ZM109.953 7.20929L109.65 7.89518L108.821 7.89589L110.036 5.15171L111.279 5.1506L111.826 7.89335L110.997 7.89406L110.861 7.20858L109.953 7.20929ZM110.579 5.79599L110.258 6.52309L110.725 6.52258L110.579 5.79599ZM112.988 6.86386L113.072 6.17786L114.109 6.17542L114.15 5.83436L112.492 5.83578L112.575 5.14948L114.7 5.14796L115.021 5.49055L114.919 6.32322L114.688 6.51934L114.872 6.71504L114.771 7.54569L114.366 7.8893L112.241 7.89305L112.325 7.20736L113.983 7.20381L114.024 6.86294L112.988 6.86386ZM117.498 5.14532L118.586 5.14461L118.253 7.88605L117.423 7.88665L117.628 6.2072L116.438 7.8895L115.143 7.89041L115.477 5.14714L116.306 5.14643L116.058 7.18209L117.498 5.14532ZM120.533 6.17137L120.658 5.14288L121.487 5.14186L121.154 7.88361L120.325 7.88422L120.45 6.85736L119.62 6.85828L119.495 7.88686L118.666 7.88747L119 5.1441L119.829 5.14349L119.704 6.17197L120.533 6.17137Z" fill="#FEFEFE"/>
<path d="M68.2562 21.128C69.2656 21.1255 70.2729 21.1248 71.2803 21.1238C72.2871 21.123 73.2944 21.122 74.3036 21.1213C75.6302 21.1202 76.9542 21.1175 78.278 21.1163C79.602 21.1151 80.928 21.1139 82.2543 21.1128C81.8177 22.0424 81.3812 22.9734 80.9422 23.9032C78.1648 24.2341 75.3822 24.5665 72.6047 24.8962C69.8294 25.2255 67.0494 25.5552 64.2812 25.8827C64.3279 25.096 64.3796 24.3029 64.4283 23.513C64.4774 22.7196 64.5287 21.9245 64.58 21.1313C65.8045 21.1301 67.0314 21.1291 68.2562 21.128Z" fill="#FEFEFE"/>
<path d="M68.6517 15.1538C70.3469 15.1523 72.0421 15.1511 73.7396 15.1495C75.6261 15.1478 77.5104 15.148 79.3968 15.1466C81.2837 15.1449 83.1723 15.1434 85.0614 15.1416C84.6248 16.071 84.1884 17.0007 83.7516 17.9269C77.3871 18.5907 71.0226 19.2536 64.6582 19.917C64.7069 19.1236 64.7583 18.3303 64.8074 17.5369C64.8563 16.7453 64.9101 15.9503 64.9614 15.1552C66.1907 15.1543 67.42 15.1547 68.6517 15.1538Z" fill="#FEFEFE"/>
<path d="M86.5928 11.885L65.043 13.8688C65.0917 13.0753 65.1431 12.2822 65.192 11.4904C65.2412 10.6988 65.2947 9.90368 65.346 9.11059C69.1076 9.10724 72.8664 9.1042 76.6232 9.10085L87.9097 9.09131L86.5928 11.885Z" fill="#FEFEFE"/>
<path d="M68.8978 28.3506C69.9674 28.3499 70.8354 29.1961 70.8361 30.241C70.8372 31.286 69.9708 32.1337 68.9009 32.1344C67.8314 32.1356 66.9636 31.2894 66.9629 30.2443C66.9619 29.1994 67.8283 28.3514 68.8978 28.3506Z" fill="#FEFEFE"/>
<path d="M76.5241 28.3445C77.5937 28.3437 78.4617 29.1899 78.4624 30.2349C78.4635 31.2796 77.5971 32.1275 76.5273 32.1283C75.4578 32.1291 74.59 31.2828 74.5889 30.2379C74.5882 29.1933 75.4545 28.3454 76.5241 28.3445Z" fill="#FEFEFE"/>
<path d="M70.3979 7.87943L69.4699 5.76338L61.2266 4.27588L61.4461 7.88694L70.3979 7.87943Z" fill="#FEFEFE"/>
<path d="M130.006 28.8218L84.5273 28.86L84.5301 31.9119L130.008 31.8736L130.006 28.8218Z" fill="#FEFEFE"/>
</g>
<defs>
<clipPath id="clip0_1501_10492">
<rect width="130" height="36" fill="white"/>
</clipPath>
</defs>
</svg>
