<svg width="1658" height="1658" viewBox="0 0 1658 1658" fill="none" xmlns="http://www.w3.org/2000/svg">
<path fill-rule="evenodd" clip-rule="evenodd" d="M828.878 829.121L870.323 1658H787.435L828.878 829.121ZM828.878 829.121L1083.44 1619.03L1003.38 1640.48L828.878 829.121ZM828.878 829.121L1207.43 1567.67L1279.21 1526.23L828.878 829.121ZM828.878 829.121L574.316 1619.03L654.38 1640.48L828.878 829.121ZM828.878 829.121L1525.99 1279.45L1567.43 1207.67L828.878 829.121ZM828.878 829.121L1640.24 1003.62L1618.79 1083.68L828.878 829.121ZM1657.76 870.322V870.566L828.878 829.121L450.331 1567.67L378.548 1526.23L828.878 829.121L131.771 1279.45L90.3267 1207.67L828.878 829.121L38.9698 1083.68L17.5168 1003.62L828.878 829.121L0 870.566L3.62314e-06 870.322V787.678L0 787.435L828.878 828.879L17.5168 654.381L38.9698 574.317L828.878 828.879L90.3267 450.331L131.771 378.548L828.878 828.879L828.877 828.876L378.548 131.771L450.331 90.3269L828.877 828.876L574.316 38.97L654.38 17.5171L828.877 828.876L787.435 0H870.323L828.878 828.879L1003.38 17.5171L1083.44 38.97L828.878 828.879L1207.43 90.3269L1279.21 131.771L828.878 828.879L1525.99 378.548L1567.43 450.331L828.878 828.879L1618.79 574.317L1640.24 654.381L828.878 828.879L1657.76 787.435V787.678V870.322ZM831.303 829L828.878 829.121L826.453 829L828.878 828.879L831.303 829ZM1444.32 1385.95L1385.71 1444.56L828.91 829.153L1444.32 1385.95ZM213.437 1385.95L272.047 1444.56L828.848 829.153L213.437 1385.95ZM1444.32 272.047L1385.71 213.436L828.91 828.847L1444.32 272.047ZM213.437 272.047L272.047 213.436L828.848 828.847L213.437 272.047Z" fill="url(#paint0_radial_1119_9167)" fill-opacity="0.3"/>
<defs>
<radialGradient id="paint0_radial_1119_9167" cx="0" cy="0" r="1" gradientUnits="userSpaceOnUse" gradientTransform="translate(828.878 870.322) rotate(-90) scale(870.322 966.159)">
<stop stop-color="white"/>
<stop offset="1" stop-color="white" stop-opacity="0"/>
</radialGradient>
</defs>
</svg>
