<svg width="2493" height="2493" viewBox="0 0 2493 2493" fill="none" xmlns="http://www.w3.org/2000/svg">
<path fill-rule="evenodd" clip-rule="evenodd" d="M1246.16 1246.52L1308.47 2492.68H1183.85L1246.16 1246.53L1246.15 1246.54L983.812 2466.35L863.443 2434.1L1246.15 1246.54L677.039 2356.88L569.119 2294.58L1246.16 1246.52ZM1246.16 1246.52L1815.28 2356.88L1923.2 2294.58L1246.16 1246.52ZM1246.16 1246.52L1508.5 2466.35L1628.87 2434.1L1246.16 1246.52ZM1246.16 1246.52L2356.52 1815.64L2294.21 1923.56L1246.16 1246.52ZM1246.16 1246.52L2465.98 1508.87L2433.73 1629.24L1246.16 1246.52ZM2492.32 1308.47V1308.83L1246.16 1246.52L198.107 1923.56L135.8 1815.64L1246.16 1246.52L58.5882 1629.24L26.3352 1508.87L1246.16 1246.52L0 1308.83L5.44714e-06 1308.47V1184.22L0 1183.85L1246.16 1246.16L26.3352 983.814L58.5882 863.444L1246.16 1246.16L135.8 677.041L198.108 569.12L1246.16 1246.16L1246.16 1246.15L569.119 198.108L677.039 135.8L1246.16 1246.15L863.443 58.5886L983.812 26.3357L1246.16 1246.15L1183.85 0H1308.47L1246.16 1246.16L1508.5 26.3357L1628.87 58.5886L1246.16 1246.16L1815.28 135.8L1923.2 198.108L1246.16 1246.16L2294.21 569.12L2356.52 677.041L1246.16 1246.16L2433.73 863.444L2465.98 983.814L1246.16 1246.16L2492.32 1183.85V1184.22V1308.47ZM1249.81 1246.34L1246.16 1246.52L1242.51 1246.34L1246.16 1246.16L1249.81 1246.34ZM2171.43 2083.68L2083.32 2171.8L1246.21 1246.57L2171.43 2083.68ZM320.887 2083.68L409.003 2171.8L1246.11 1246.57L320.887 2083.68ZM2171.43 409.002L2083.32 320.886L1246.21 1246.11L2171.43 409.002ZM320.887 409.002L409.004 320.886L1246.11 1246.11L320.887 409.002Z" fill="url(#paint0_radial_1404_12163)" fill-opacity="0.7"/>
<defs>
<radialGradient id="paint0_radial_1404_12163" cx="0" cy="0" r="1" gradientUnits="userSpaceOnUse" gradientTransform="translate(1274 1208) rotate(179.869) scale(1094 1214.47)">
<stop stop-color="white" stop-opacity="0.42"/>
<stop offset="1" stop-color="white" stop-opacity="0"/>
</radialGradient>
</defs>
</svg>
