<svg width="86" height="30" viewBox="0 0 86 30" fill="none" xmlns="http://www.w3.org/2000/svg">
<path fill-rule="evenodd" clip-rule="evenodd" d="M10.4897 30.0002C7.44083 30.0002 4.98723 29.1062 3.12403 27.3205C1.26216 25.5357 0.333008 23.1813 0.333008 20.2506C0.333008 17.3903 1.29516 15.0478 3.22692 13.2289C5.15075 11.409 7.59224 10.5002 10.5496 10.5002C12.2855 10.5002 13.758 10.7954 14.9584 11.3877C16.1605 11.9796 16.7583 12.6671 16.7583 13.453C16.7583 13.9585 16.5594 14.4002 16.1605 14.7803C15.7611 15.1588 15.2944 15.3505 14.7496 15.3505C14.4487 15.3505 13.8314 15.2295 12.9068 14.9869C11.9781 14.7494 11.2049 14.6288 10.5781 14.6288C9.02723 14.6288 7.79219 15.1481 6.86755 16.1802C5.93986 17.2133 5.47753 18.6031 5.47753 20.3547C5.47753 22.0664 5.94988 23.4224 6.89749 24.4264C7.84021 25.4239 9.11473 25.9261 10.7191 25.9261C11.4577 25.9261 12.3055 25.7649 13.2567 25.4507C14.2052 25.1356 14.8335 24.9752 15.1349 24.9752C15.6217 24.9752 16.059 25.1605 16.4474 25.532C16.8368 25.9039 17.0296 26.3285 17.0296 26.8113C17.0296 27.6804 16.4029 28.4274 15.1444 29.0581C13.8843 29.6847 12.3335 30.0002 10.4897 30.0002Z" fill="white"/>
<path fill-rule="evenodd" clip-rule="evenodd" d="M26.0869 10.5C27.0752 10.5 27.8145 10.6731 28.3065 11.0156C28.799 11.3577 29.0467 11.884 29.0467 12.5873C29.0467 13.2747 28.8033 13.7899 28.3152 14.1276C27.8232 14.4667 27.0842 14.6356 26.0869 14.6356H22.7087V18.1193H25.6251C26.6177 18.1193 27.3614 18.2877 27.849 18.6269C28.3381 18.9655 28.581 19.4861 28.581 20.1812C28.581 20.8753 28.3381 21.3919 27.849 21.7259C27.3614 22.0592 26.6177 22.2286 25.6251 22.2286H22.7087V25.8898H26.2154C27.2168 25.8898 27.9604 26.0596 28.4438 26.3968C28.9271 26.7359 29.171 27.2522 29.171 27.9392C29.171 28.6323 28.9271 29.1542 28.4438 29.4919C27.9604 29.8306 27.2168 30 26.2154 30H21.3646C20.287 30 19.5477 29.8043 19.1493 29.4104C18.7475 29.017 18.5459 28.2817 18.5459 27.2028V13.6167C18.5459 12.4328 18.7591 11.6149 19.1838 11.1653C19.6103 10.7245 20.3561 10.5 21.416 10.5H26.0869Z" fill="white"/>
<path fill-rule="evenodd" clip-rule="evenodd" d="M62.2884 20.9023H64.1301C65.0968 20.9023 65.8269 21.1146 66.3141 21.5446C66.8019 21.9728 67.0486 22.6094 67.0486 23.4534C67.0486 24.3074 66.8109 24.9398 66.3368 25.3496C65.8576 25.7618 65.1232 25.964 64.1301 25.964H62.2884V20.9023ZM62.2884 13.6115C62.2884 12.5594 62.1133 11.777 61.7609 11.2679C61.4097 10.7575 60.8734 10.5 60.152 10.5C59.4272 10.5 58.8904 10.7575 58.5393 11.2679C58.1887 11.777 58.0117 12.5594 58.0117 13.6115V26.9173C58.0117 28.0907 58.2315 28.8985 58.6663 29.3366C59.1064 29.7798 59.8716 30 60.9614 30H64.8106C66.9302 30 68.6045 29.4128 69.831 28.2351C71.056 27.0566 71.6726 25.4635 71.6726 23.4534C71.6726 21.4086 71.0968 19.8094 69.9454 18.6543C68.7987 17.4988 67.2024 16.9215 65.1579 16.9215H62.2884V13.6115Z" fill="white"/>
<path fill-rule="evenodd" clip-rule="evenodd" d="M81.0326 19.1534H79.0528C78.1781 19.1534 77.505 18.947 77.0334 18.5344C76.5596 18.1275 76.3212 17.5445 76.3212 16.7916C76.3212 16.0645 76.5554 15.4996 77.0192 15.1004C77.4843 14.7032 78.1469 14.5064 79.0004 14.5064H81.0326V19.1534ZM81.0326 22.0665V26.7676C81.0326 27.8119 81.2094 28.5874 81.5641 29.0938C81.9165 29.6003 82.4558 29.8559 83.1808 29.8559C83.9097 29.8559 84.4494 29.6003 84.8037 29.0938C85.1561 28.5874 85.3328 27.8119 85.3328 26.7676V13.56C85.3328 12.3959 85.1128 11.5922 84.6749 11.1577C84.2336 10.7182 83.4639 10.5 82.3679 10.5H79.0262C76.7891 10.5 75.0347 11.036 73.758 12.1078C72.4807 13.1791 71.8394 14.6361 71.8394 16.4733C71.8394 17.8398 72.2373 18.9786 73.037 19.8924C73.833 20.8072 74.9381 21.3897 76.3443 21.6314L72.9537 25.4549C72.5202 25.9384 72.2019 26.3865 71.9889 26.799C71.7782 27.2156 71.6719 27.6023 71.6719 27.9502C71.6719 28.5295 71.8656 29.0134 72.2558 29.4069C72.6446 29.8028 73.1294 30 73.7179 30C74.0989 30 74.4605 29.8818 74.8148 29.6443C75.1636 29.4069 75.5653 29.0034 76.0249 28.4337L81.0326 22.0665Z" fill="white"/>
<path fill-rule="evenodd" clip-rule="evenodd" d="M37.2196 12.8909L43.4862 17.1483L46.3248 15.3019L49.8541 12.8685C52.1172 11.1463 49.365 8.17527 47.0753 9.67444L43.5537 12.0293L40.1705 9.79495C37.6262 8.17985 35.1995 11.1243 37.2196 12.8909ZM33.515 4.30166C33.5305 4.30389 33.546 4.30501 33.5615 4.30724L33.515 4.30166ZM53.1611 0.00223051C54.4832 0.00223051 55.5606 0.975259 55.5606 2.16912C55.5606 3.20599 54.7484 4.07804 53.6692 4.28793C53.6715 4.28793 53.6739 4.28793 53.6763 4.28793C56.701 5.06703 58.881 8.00233 57.67 11.1467C57.038 12.5012 56.2531 13.3167 54.8382 14.1888L54.8527 28.154C54.8527 28.9508 53.8759 29.9968 52.6552 29.9968H52.5411C51.4045 29.9968 50.3446 29.0343 50.3422 27.9934L50.3295 17.2241L45.1968 20.6404L44.6494 20.9996C43.8436 21.4053 43.2597 21.3802 42.4062 20.9522L36.7042 17.0566L36.6765 27.96C36.6729 28.9499 35.7482 29.9999 34.43 29.9999L34.2721 29.9995C33.2079 29.9995 32.1528 29.0325 32.1528 28.0445L32.1387 14.0501C31.9823 13.9401 30.4221 13.0757 29.7271 11.5994C28.0668 8.07218 30.358 5.07752 33.5017 4.29943C33.5041 4.29943 33.5064 4.29942 33.5076 4.29987C32.3891 4.11687 31.537 3.2292 31.537 2.16812C31.537 0.973362 32.6158 0 33.936 0C35.2583 0 36.337 0.973362 36.337 2.16812C36.337 3.04352 35.7552 3.80153 34.9245 4.14242C34.9552 4.12915 34.9872 4.11688 35.0173 4.10226C36.2059 4.08396 37.4436 4.38155 38.586 5.07105L43.5595 8.49152L48.8332 4.97342C49.8862 4.36784 50.9855 4.09444 52.0419 4.08584C52.0666 4.09812 52.0934 4.1104 52.1196 4.12189C51.3182 3.7714 50.7615 3.027 50.7615 2.16912C50.7615 0.975259 51.8409 0.00223051 53.1611 0.00223051Z" fill="white"/>
</svg>
