<svg width="1796" height="769" viewBox="0 0 1796 769" fill="none" xmlns="http://www.w3.org/2000/svg">
<path fill-rule="evenodd" clip-rule="evenodd" d="M956.762 314.6C956.762 315.915 955.697 316.98 954.382 316.98C953.066 316.98 952 315.915 952 314.6C952 313.284 953.066 312.218 954.382 312.218C955.697 312.218 956.762 313.284 956.762 314.6Z" fill="#FEFEFE"/>
<path fill-rule="evenodd" clip-rule="evenodd" d="M1202.43 89.6939C1202.43 94.3154 1198.69 98.0621 1194.07 98.0621C1189.44 98.0621 1185.7 94.3154 1185.7 89.6939C1185.7 85.0725 1189.44 81.3262 1194.07 81.3262C1198.69 81.3262 1202.43 85.0725 1202.43 89.6939Z" fill="#FEFEFE" fill-opacity="0.5"/>
<path fill-rule="evenodd" clip-rule="evenodd" d="M1370.86 306.931C1370.86 308.548 1369.55 309.86 1367.93 309.86C1366.31 309.86 1365 308.548 1365 306.931C1365 305.314 1366.31 304.002 1367.93 304.002C1369.55 304.002 1370.86 305.314 1370.86 306.931Z" fill="#FEFEFE"/>
<path fill-rule="evenodd" clip-rule="evenodd" d="M995.158 352.823C995.158 357.247 991.572 360.834 987.147 360.834C982.723 360.834 979.137 357.247 979.137 352.823C979.137 348.399 982.723 344.813 987.147 344.813C991.572 344.812 995.158 348.399 995.158 352.823Z" fill="#FEFEFE" fill-opacity="0.8"/>
<path fill-rule="evenodd" clip-rule="evenodd" d="M984.057 80.63C984.057 84.154 981.199 87.0124 977.675 87.0124C974.15 87.0124 971.293 84.154 971.293 80.6304C971.293 77.1048 974.15 74.248 977.675 74.248C981.199 74.2476 984.057 77.1049 984.057 80.63Z" fill="#FEFEFE"/>
<path fill-rule="evenodd" clip-rule="evenodd" d="M1482.18 485.289C1482.18 487.433 1480.44 489.17 1478.3 489.17C1476.15 489.17 1474.42 487.433 1474.42 485.289C1474.42 483.145 1476.15 481.408 1478.3 481.408C1480.44 481.408 1482.18 483.146 1482.18 485.289Z" fill="#FEFEFE"/>
<path fill-rule="evenodd" clip-rule="evenodd" d="M1428.71 331.494C1428.71 336.116 1424.97 339.864 1420.34 339.864C1415.72 339.863 1411.98 336.116 1411.98 331.495C1411.98 326.873 1415.72 323.127 1420.34 323.127C1424.97 323.127 1428.71 326.873 1428.71 331.494Z" fill="#FEFEFE"/>
<path fill-rule="evenodd" clip-rule="evenodd" d="M1130.43 136.888C1130.43 138.439 1129.18 139.696 1127.63 139.696C1126.07 139.696 1124.82 138.439 1124.82 136.888C1124.82 135.338 1126.07 134.081 1127.63 134.081C1129.18 134.081 1130.43 135.338 1130.43 136.888Z" fill="#FEFEFE"/>
<path fill-rule="evenodd" clip-rule="evenodd" d="M940.714 23.8024C940.714 25.3531 939.457 26.61 937.906 26.61C936.355 26.61 935.1 25.3531 935.1 23.8024C935.1 22.2521 936.355 20.9951 937.906 20.9951C939.457 20.9951 940.714 22.2521 940.714 23.8024Z" fill="#FEFEFE"/>
<path fill-rule="evenodd" clip-rule="evenodd" d="M1327.67 164.34C1327.67 167.841 1324.84 170.678 1321.34 170.678C1317.84 170.678 1315 167.841 1315 164.34C1315 160.84 1317.84 158.002 1321.34 158.002C1324.84 158.002 1327.67 160.84 1327.67 164.34Z" fill="#FEFEFE"/>
<path fill-rule="evenodd" clip-rule="evenodd" d="M18.5879 447.199V460.565C18.5879 461.07 18.9958 461.476 19.499 461.476C20.0016 461.476 20.4095 461.07 20.4095 460.565V447.199C20.4095 446.696 20.0016 446.288 19.499 446.288C18.9958 446.288 18.5879 446.697 18.5879 447.199Z" fill="#FEFEFE"/>
<path fill-rule="evenodd" clip-rule="evenodd" d="M18.5879 471.012V484.378C18.5879 484.881 18.9958 485.289 19.499 485.289C20.0016 485.289 20.4095 484.882 20.4095 484.378V471.012C20.4095 470.507 20.0016 470.102 19.499 470.102C18.9958 470.101 18.5879 470.508 18.5879 471.012Z" fill="#FEFEFE"/>
<path fill-rule="evenodd" clip-rule="evenodd" d="M0.911098 466.699H14.278C14.7812 466.699 15.1885 466.291 15.1885 465.789C15.1885 465.286 14.7812 464.878 14.278 464.878L0.911098 464.878C0.407286 464.878 0 465.286 0 465.789C0 466.291 0.407286 466.7 0.911098 466.699Z" fill="#FEFEFE"/>
<path fill-rule="evenodd" clip-rule="evenodd" d="M24.7216 466.699H38.0886C38.5918 466.699 38.9996 466.291 38.9996 465.789C38.9996 465.286 38.5918 464.878 38.0886 464.878L24.7216 464.878C24.2184 464.878 23.8105 465.286 23.8105 465.789C23.8105 466.291 24.2184 466.7 24.7216 466.699Z" fill="#FEFEFE"/>
<path fill-rule="evenodd" clip-rule="evenodd" d="M1565.89 410.873V429.564C1565.89 430.269 1566.46 430.837 1567.16 430.837C1567.86 430.837 1568.43 430.27 1568.43 429.564V410.873C1568.43 410.169 1567.86 409.599 1567.16 409.599C1566.46 409.599 1565.89 410.17 1565.89 410.873Z" fill="#FEFEFE"/>
<path fill-rule="evenodd" clip-rule="evenodd" d="M1565.89 444.172V462.863C1565.89 463.566 1566.46 464.137 1567.16 464.137C1567.86 464.137 1568.43 463.567 1568.43 462.863V444.172C1568.43 443.466 1567.86 442.899 1567.16 442.899C1566.46 442.898 1565.89 443.467 1565.89 444.172Z" fill="#FEFEFE"/>
<path fill-rule="evenodd" clip-rule="evenodd" d="M1541.17 438.141H1559.86C1560.57 438.141 1561.13 437.571 1561.13 436.868C1561.13 436.165 1560.57 435.595 1559.86 435.595L1541.17 435.594C1540.47 435.594 1539.9 436.165 1539.9 436.868C1539.9 437.571 1540.47 438.142 1541.17 438.141Z" fill="#FEFEFE"/>
<path fill-rule="evenodd" clip-rule="evenodd" d="M1574.47 438.141H1593.16C1593.86 438.141 1594.43 437.571 1594.43 436.868C1594.43 436.165 1593.86 435.595 1593.16 435.595L1574.47 435.594C1573.76 435.594 1573.19 436.165 1573.19 436.868C1573.19 437.571 1573.76 438.142 1574.47 438.141Z" fill="#FEFEFE"/>
<path fill-rule="evenodd" clip-rule="evenodd" d="M1607.09 75.1591V88.5254C1607.09 89.0298 1607.5 89.436 1608 89.436C1608.5 89.436 1608.91 89.0304 1608.91 88.5254V75.1591C1608.91 74.6559 1608.5 74.248 1608 74.248C1607.5 74.248 1607.09 74.6565 1607.09 75.1591Z" fill="#FEFEFE"/>
<path fill-rule="evenodd" clip-rule="evenodd" d="M1607.09 98.972V112.338C1607.09 112.841 1607.5 113.249 1608 113.249C1608.5 113.249 1608.91 112.842 1608.91 112.338V98.972C1608.91 98.467 1608.5 98.0615 1608 98.0615C1607.5 98.0609 1607.09 98.4676 1607.09 98.972Z" fill="#FEFEFE"/>
<path fill-rule="evenodd" clip-rule="evenodd" d="M1589.41 94.6592H1602.78C1603.28 94.6592 1603.69 94.2514 1603.69 93.7487C1603.69 93.2461 1603.28 92.8382 1602.78 92.8382L1589.41 92.8376C1588.91 92.8376 1588.5 93.2461 1588.5 93.7487C1588.5 94.2514 1588.91 94.6598 1589.41 94.6592Z" fill="#FEFEFE"/>
<path fill-rule="evenodd" clip-rule="evenodd" d="M1613.22 94.6592H1626.59C1627.09 94.6592 1627.5 94.2514 1627.5 93.7487C1627.5 93.2461 1627.09 92.8382 1626.59 92.8382L1613.22 92.8376C1612.72 92.8376 1612.31 93.2461 1612.31 93.7487C1612.31 94.2514 1612.72 94.6598 1613.22 94.6592Z" fill="#FEFEFE"/>
<path fill-rule="evenodd" clip-rule="evenodd" d="M888.195 132.114V144.795C888.195 145.274 888.582 145.659 889.06 145.659C889.537 145.659 889.924 145.274 889.924 144.795V132.114C889.924 131.637 889.537 131.25 889.06 131.25C888.582 131.25 888.195 131.637 888.195 132.114Z" fill="#FEFEFE"/>
<path fill-rule="evenodd" clip-rule="evenodd" d="M888.195 154.706V167.386C888.195 167.863 888.582 168.251 889.06 168.251C889.537 168.251 889.924 167.864 889.924 167.386V154.706C889.924 154.227 889.537 153.842 889.06 153.842C888.582 153.841 888.195 154.227 888.195 154.706Z" fill="#FEFEFE"/>
<path fill-rule="evenodd" clip-rule="evenodd" d="M871.425 150.615H884.106C884.584 150.615 884.97 150.228 884.97 149.751C884.97 149.274 884.584 148.887 884.106 148.887L871.425 148.887C870.947 148.887 870.561 149.274 870.561 149.751C870.561 150.228 870.947 150.615 871.425 150.615Z" fill="#FEFEFE"/>
<path fill-rule="evenodd" clip-rule="evenodd" d="M894.015 150.615H906.696C907.174 150.615 907.561 150.228 907.561 149.751C907.561 149.274 907.174 148.887 906.696 148.887L894.015 148.887C893.537 148.887 893.15 149.274 893.15 149.751C893.15 150.228 893.537 150.615 894.015 150.615Z" fill="#FEFEFE"/>
<path fill-rule="evenodd" clip-rule="evenodd" d="M560.812 134.607C559.66 133.973 559.24 132.526 559.874 131.374C560.508 130.221 561.955 129.8 563.107 130.434C564.26 131.068 564.681 132.516 564.046 133.669C563.412 134.822 561.965 135.241 560.812 134.607Z" fill="#FEFEFE"/>
<path fill-rule="evenodd" clip-rule="evenodd" d="M1663.09 528.32C1661.93 527.686 1661.51 526.239 1662.15 525.087C1662.78 523.934 1664.23 523.513 1665.38 524.147C1666.53 524.781 1666.95 526.229 1666.32 527.382C1665.69 528.534 1664.24 528.953 1663.09 528.32Z" fill="#FEFEFE"/>
<path fill-rule="evenodd" clip-rule="evenodd" d="M50.0856 608.32C48.933 607.686 48.5131 606.239 49.147 605.087C49.7812 603.934 51.2283 603.513 52.3808 604.147C53.5337 604.781 53.954 606.229 53.3199 607.382C52.6859 608.534 51.2383 608.953 50.0856 608.32Z" fill="#FEFEFE"/>
<path fill-rule="evenodd" clip-rule="evenodd" d="M66.0856 83.3198C64.933 82.6859 64.5131 81.2392 65.147 80.0866C65.7812 78.9337 67.2283 78.513 68.3808 79.147C69.5337 79.7812 69.954 81.229 69.3199 82.3819C68.6859 83.5344 67.2383 83.9534 66.0856 83.3198Z" fill="#FEFEFE"/>
<path fill-rule="evenodd" clip-rule="evenodd" d="M622.087 703.32C620.934 702.686 620.514 701.239 621.148 700.087C621.782 698.934 623.229 698.513 624.382 699.147C625.535 699.781 625.955 701.229 625.321 702.382C624.687 703.534 623.239 703.953 622.087 703.32Z" fill="#FEFEFE"/>
<path fill-rule="evenodd" clip-rule="evenodd" d="M802.333 584.697C798.283 582.469 796.806 577.381 799.034 573.331C801.261 569.282 806.349 567.805 810.399 570.033C814.448 572.26 815.925 577.348 813.698 581.397C811.47 585.447 806.382 586.924 802.333 584.697Z" fill="#FEFEFE" fill-opacity="0.5"/>
<path fill-rule="evenodd" clip-rule="evenodd" d="M323.299 46.9681C319.249 44.7408 317.772 39.6521 319.999 35.6029C322.227 31.5536 327.315 30.0768 331.364 32.3041C335.414 34.5314 336.891 39.6195 334.663 43.6687C332.436 47.7184 327.348 49.1954 323.299 46.9681Z" fill="#FEFEFE" fill-opacity="0.5"/>
<path fill-rule="evenodd" clip-rule="evenodd" d="M555.446 764.973C552.152 763.161 550.951 759.022 552.763 755.728C554.574 752.434 558.713 751.233 562.007 753.045C565.301 754.857 566.502 758.995 564.69 762.289C562.878 765.583 558.74 766.784 555.446 764.973Z" fill="#FEFEFE" fill-opacity="0.5"/>
<path fill-rule="evenodd" clip-rule="evenodd" d="M436.186 566.596C434.768 565.817 434.251 564.035 435.031 562.616C435.811 561.2 437.593 560.682 439.01 561.461C440.427 562.241 440.944 564.022 440.164 565.44C439.385 566.858 437.603 567.375 436.186 566.596Z" fill="#FEFEFE"/>
<path fill-rule="evenodd" clip-rule="evenodd" d="M534.742 244.614C530.866 242.482 529.451 237.611 531.584 233.734C533.716 229.858 538.588 228.444 542.463 230.576C546.34 232.708 547.754 237.579 545.622 241.455C543.49 245.332 538.618 246.746 534.742 244.614Z" fill="#FEFEFE" fill-opacity="0.8"/>
<path fill-rule="evenodd" clip-rule="evenodd" d="M755.236 178.151C752.148 176.453 751.021 172.571 752.72 169.483C754.419 166.394 758.3 165.269 761.387 166.967C764.476 168.666 765.603 172.546 763.904 175.635C762.205 178.723 758.325 179.85 755.236 178.151Z" fill="#FEFEFE" fill-opacity="0.5"/>
<path fill-rule="evenodd" clip-rule="evenodd" d="M356.35 499.168C354.472 498.135 353.788 495.775 354.821 493.896C355.854 492.019 358.213 491.333 360.092 492.366C361.97 493.399 362.654 495.76 361.622 497.637C360.589 499.515 358.228 500.201 356.35 499.168Z" fill="#FEFEFE"/>
<path fill-rule="evenodd" clip-rule="evenodd" d="M211.429 244.403C209.551 243.369 208.867 241.009 209.9 239.131C210.933 237.254 213.293 236.567 215.171 237.6C217.049 238.634 217.733 240.994 216.701 242.871C215.668 244.749 213.307 245.435 211.429 244.403Z" fill="#FEFEFE"/>
<path fill-rule="evenodd" clip-rule="evenodd" d="M77.9782 313.25C73.9289 311.023 72.4506 305.934 74.6778 301.885C76.9053 297.836 81.9949 296.358 86.0441 298.585C90.0932 300.813 91.5698 305.902 89.3425 309.951C87.1152 314 82.0271 315.477 77.9782 313.25Z" fill="#FEFEFE" fill-opacity="0.5"/>
<path fill-rule="evenodd" clip-rule="evenodd" d="M825.632 296.799C824.274 296.051 823.778 294.344 824.525 292.986C825.273 291.626 826.979 291.132 828.338 291.879C829.696 292.627 830.193 294.332 829.445 295.692C828.698 297.05 826.991 297.546 825.632 296.799Z" fill="#FEFEFE"/>
<path fill-rule="evenodd" clip-rule="evenodd" d="M589.879 476.033C586.812 474.346 585.693 470.493 587.38 467.426C589.067 464.359 592.92 463.241 595.987 464.928C599.054 466.615 600.174 470.468 598.487 473.535C596.8 476.603 592.945 477.72 589.879 476.033Z" fill="#FEFEFE" fill-opacity="0.8"/>
<path fill-rule="evenodd" clip-rule="evenodd" d="M1697.03 295.267C1698.34 295.144 1699.5 296.105 1699.62 297.415C1699.74 298.725 1698.78 299.886 1697.47 300.009C1696.16 300.132 1695 299.17 1694.88 297.86C1694.75 296.55 1695.72 295.391 1697.03 295.267Z" fill="#FEFEFE"/>
<path fill-rule="evenodd" clip-rule="evenodd" d="M486.372 4.35516C487.681 4.23222 488.841 5.19321 488.964 6.50285C489.087 7.81289 488.126 8.97379 486.817 9.09673C485.507 9.21971 484.346 8.25798 484.223 6.94794C484.1 5.63831 485.062 4.4785 486.372 4.35516Z" fill="#FEFEFE"/>
<path fill-rule="evenodd" clip-rule="evenodd" d="M1685.12 439.563C1689.52 439.15 1693.43 442.385 1693.84 446.791C1694.25 451.196 1691.02 455.102 1686.61 455.515C1682.21 455.929 1678.3 452.693 1677.89 448.288C1677.48 443.883 1680.71 439.977 1685.12 439.563Z" fill="#FEFEFE" fill-opacity="0.5"/>
<path fill-rule="evenodd" clip-rule="evenodd" d="M1759.89 196.701C1763.39 196.372 1766.51 198.95 1766.84 202.459C1767.17 205.969 1764.59 209.08 1761.08 209.409C1757.57 209.739 1754.46 207.162 1754.13 203.652C1753.8 200.143 1756.38 197.03 1759.89 196.701Z" fill="#FEFEFE" fill-opacity="0.8"/>
<path fill-rule="evenodd" clip-rule="evenodd" d="M1586.25 235.983C1587.79 235.838 1589.16 236.972 1589.31 238.516C1589.45 240.06 1588.32 241.428 1586.77 241.573C1585.23 241.717 1583.86 240.585 1583.72 239.04C1583.57 237.497 1584.7 236.128 1586.25 235.983Z" fill="#FEFEFE"/>
<path fill-rule="evenodd" clip-rule="evenodd" d="M1792.62 1.20377C1794.17 1.05884 1795.54 2.19285 1795.68 3.73633C1795.83 5.28102 1794.69 6.64837 1793.15 6.79329C1791.61 6.93818 1790.24 5.8058 1790.09 4.26111C1789.95 2.71762 1791.08 1.34866 1792.62 1.20377Z" fill="#FEFEFE"/>
<path fill-rule="evenodd" clip-rule="evenodd" d="M1433.83 10.5909C1437.31 10.2637 1440.4 12.8233 1440.73 16.3081C1441.05 19.7934 1438.49 22.8832 1435.01 23.2103C1431.53 23.5371 1428.43 20.9781 1428.11 17.4928C1427.78 14.008 1430.34 10.918 1433.83 10.5909Z" fill="#FEFEFE"/>
<path fill-rule="evenodd" clip-rule="evenodd" d="M1228.63 320.864V333.545C1228.63 334.024 1229.02 334.409 1229.5 334.409C1229.98 334.409 1230.36 334.024 1230.36 333.545V320.864C1230.36 320.387 1229.98 320 1229.5 320C1229.02 320 1228.63 320.387 1228.63 320.864Z" fill="#FEFEFE"/>
<path fill-rule="evenodd" clip-rule="evenodd" d="M1228.63 343.456V356.136C1228.63 356.613 1229.02 357.001 1229.5 357.001C1229.98 357.001 1230.36 356.614 1230.36 356.136V343.456C1230.36 342.977 1229.98 342.592 1229.5 342.592C1229.02 342.591 1228.63 342.977 1228.63 343.456Z" fill="#FEFEFE"/>
<path fill-rule="evenodd" clip-rule="evenodd" d="M1211.86 339.365H1224.55C1225.02 339.365 1225.41 338.978 1225.41 338.501C1225.41 338.024 1225.02 337.637 1224.55 337.637L1211.86 337.637C1211.39 337.637 1211 338.024 1211 338.501C1211 338.978 1211.39 339.365 1211.86 339.365Z" fill="#FEFEFE"/>
<path fill-rule="evenodd" clip-rule="evenodd" d="M1234.45 339.365H1247.14C1247.61 339.365 1248 338.978 1248 338.501C1248 338.024 1247.61 337.637 1247.14 337.637L1234.45 337.637C1233.98 337.637 1233.59 338.024 1233.59 338.501C1233.59 338.978 1233.98 339.365 1234.45 339.365Z" fill="#FEFEFE"/>
</svg>
