<svg width="375" height="200" viewBox="0 0 375 200" fill="none" xmlns="http://www.w3.org/2000/svg">
<g clip-path="url(#clip0_1113_10480)">
<path fill-rule="evenodd" clip-rule="evenodd" d="M249.367 56.067C249.367 57.1498 248.489 58.0276 247.407 58.0276C246.324 58.0276 245.446 57.1498 245.446 56.067C245.446 54.9839 246.324 54.1064 247.407 54.1064C248.489 54.1061 249.367 54.9839 249.367 56.067Z" fill="#FEFEFE" fill-opacity="0.5"/>
<path fill-rule="evenodd" clip-rule="evenodd" d="M332.063 133.043V140.895C332.063 141.191 332.303 141.43 332.599 141.43C332.894 141.43 333.134 141.192 333.134 140.895V133.043C333.134 132.747 332.894 132.507 332.599 132.507C332.303 132.507 332.063 132.747 332.063 133.043Z" fill="#FEFEFE" fill-opacity="0.7"/>
<path fill-rule="evenodd" clip-rule="evenodd" d="M332.063 147.032V154.884C332.063 155.18 332.303 155.42 332.599 155.42C332.894 155.42 333.134 155.18 333.134 154.884V147.032C333.134 146.735 332.894 146.497 332.599 146.497C332.303 146.497 332.063 146.736 332.063 147.032Z" fill="#FEFEFE" fill-opacity="0.7"/>
<path fill-rule="evenodd" clip-rule="evenodd" d="M321.679 144.498H329.532C329.827 144.498 330.066 144.259 330.066 143.963C330.066 143.668 329.827 143.429 329.532 143.429L321.679 143.428C321.383 143.428 321.144 143.668 321.144 143.963C321.144 144.259 321.383 144.499 321.679 144.498Z" fill="#FEFEFE" fill-opacity="0.7"/>
<path fill-rule="evenodd" clip-rule="evenodd" d="M335.667 144.498H343.52C343.815 144.498 344.055 144.259 344.055 143.963C344.055 143.668 343.815 143.429 343.52 143.429L335.667 143.428C335.371 143.428 335.132 143.668 335.132 143.963C335.132 144.259 335.371 144.499 335.667 144.498Z" fill="#FEFEFE" fill-opacity="0.7"/>
<path fill-rule="evenodd" clip-rule="evenodd" d="M30.6943 115.353V121.149C30.6943 121.368 30.8712 121.544 31.0894 121.544C31.3074 121.544 31.4842 121.368 31.4842 121.149V115.353C31.4842 115.135 31.3074 114.958 31.0894 114.958C30.8712 114.958 30.6943 115.135 30.6943 115.353Z" fill="#FEFEFE" fill-opacity="0.7"/>
<path fill-rule="evenodd" clip-rule="evenodd" d="M30.6943 125.679V131.475C30.6943 131.693 30.8712 131.87 31.0894 131.87C31.3074 131.87 31.4842 131.693 31.4842 131.475V125.679C31.4842 125.46 31.3074 125.284 31.0894 125.284C30.8712 125.284 30.6943 125.46 30.6943 125.679Z" fill="#FEFEFE" fill-opacity="0.7"/>
<path fill-rule="evenodd" clip-rule="evenodd" d="M23.0289 123.809H28.8252C29.0434 123.809 29.22 123.632 29.22 123.414C29.22 123.196 29.0434 123.019 28.8252 123.019L23.0289 123.019C22.8104 123.019 22.6338 123.196 22.6338 123.414C22.6338 123.632 22.8104 123.809 23.0289 123.809Z" fill="#FEFEFE" fill-opacity="0.7"/>
<path fill-rule="evenodd" clip-rule="evenodd" d="M33.3541 123.809H39.1503C39.3686 123.809 39.5454 123.632 39.5454 123.414C39.5454 123.196 39.3686 123.019 39.1503 123.019L33.3541 123.019C33.1359 123.019 32.959 123.196 32.959 123.414C32.959 123.632 33.1359 123.809 33.3541 123.809Z" fill="#FEFEFE" fill-opacity="0.7"/>
<path fill-rule="evenodd" clip-rule="evenodd" d="M231.424 6.75248V17.7921C231.424 18.2087 231.761 18.5442 232.176 18.5442C232.591 18.5442 232.928 18.2092 232.928 17.7921V6.75248C232.928 6.33685 232.591 6 232.176 6C231.761 6 231.424 6.33734 231.424 6.75248Z" fill="#FEFEFE" fill-opacity="0.5"/>
<path fill-rule="evenodd" clip-rule="evenodd" d="M231.424 26.4202V37.4599C231.424 37.875 231.761 38.2124 232.176 38.2124C232.591 38.2124 232.928 37.8755 232.928 37.4599V26.4202C232.928 26.0031 232.591 25.6682 232.176 25.6682C231.761 25.6677 231.424 26.0036 231.424 26.4202Z" fill="#FEFEFE" fill-opacity="0.5"/>
<path fill-rule="evenodd" clip-rule="evenodd" d="M216.825 22.8587H227.865C228.281 22.8587 228.617 22.5219 228.617 22.1067C228.617 21.6916 228.281 21.3547 227.865 21.3547L216.825 21.3542C216.409 21.3542 216.072 21.6916 216.072 22.1067C216.072 22.5219 216.409 22.8592 216.825 22.8587Z" fill="#FEFEFE" fill-opacity="0.5"/>
<path fill-rule="evenodd" clip-rule="evenodd" d="M236.491 22.8585H247.531C247.947 22.8585 248.283 22.5216 248.283 22.1065C248.283 21.6913 247.947 21.3545 247.531 21.3545L236.491 21.354C236.075 21.354 235.738 21.6913 235.738 22.1065C235.738 22.5216 236.075 22.859 236.491 22.8585Z" fill="#FEFEFE" fill-opacity="0.5"/>
<path fill-rule="evenodd" clip-rule="evenodd" d="M109.359 29.7447C109.359 30.4861 108.758 31.0872 108.017 31.0872C107.276 31.0872 106.675 30.4861 106.675 29.7447C106.675 29.0031 107.276 28.4023 108.017 28.4023C108.758 28.4021 109.359 29.0031 109.359 29.7447Z" fill="#FEFEFE" fill-opacity="0.5"/>
<path fill-rule="evenodd" clip-rule="evenodd" d="M214.661 9.10656C214.661 9.84793 214.06 10.449 213.319 10.449C212.578 10.449 211.977 9.84793 211.977 9.10656C211.977 8.36496 212.578 7.76416 213.319 7.76416C214.06 7.76393 214.661 8.36496 214.661 9.10656Z" fill="#FEFEFE" fill-opacity="0.7"/>
<path fill-rule="evenodd" clip-rule="evenodd" d="M146.25 166.184C146.25 166.926 145.649 167.527 144.908 167.527C144.166 167.527 143.565 166.926 143.565 166.184C143.565 165.443 144.166 164.842 144.908 164.842C145.649 164.842 146.25 165.443 146.25 166.184Z" fill="#FEFEFE" fill-opacity="0.7"/>
<path fill-rule="evenodd" clip-rule="evenodd" d="M345.169 197.641C345.169 198.382 344.568 198.983 343.827 198.983C343.085 198.983 342.484 198.382 342.484 197.641C342.484 196.899 343.085 196.298 343.827 196.298C344.568 196.298 345.169 196.899 345.169 197.641Z" fill="#FEFEFE" fill-opacity="0.5"/>
<path fill-rule="evenodd" clip-rule="evenodd" d="M64.8643 99.9712C64.8643 100.685 64.2857 101.263 63.5723 101.263C62.8588 101.263 62.2803 100.685 62.2803 99.9712C62.2803 99.2573 62.8588 98.679 63.5723 98.679C64.2857 98.6787 64.8643 99.2573 64.8643 99.9712Z" fill="#FEFEFE" fill-opacity="0.5"/>
<path fill-rule="evenodd" clip-rule="evenodd" d="M18.584 30.1067C18.584 30.8203 18.0055 31.3989 17.292 31.3989C16.5786 31.3989 16 30.8203 16 30.1067C16 29.3928 16.5786 28.8145 17.292 28.8145C18.0055 28.8142 18.584 29.3928 18.584 30.1067Z" fill="#FEFEFE" fill-opacity="0.5"/>
<path fill-rule="evenodd" clip-rule="evenodd" d="M359.584 119.256C359.584 119.969 359.005 120.548 358.292 120.548C357.579 120.548 357 119.969 357 119.256C357 118.542 357.579 117.963 358.292 117.963C359.005 117.963 359.584 118.542 359.584 119.256Z" fill="#FEFEFE" fill-opacity="0.5"/>
<path fill-rule="evenodd" clip-rule="evenodd" d="M103.784 39.8195C103.784 41.751 102.219 43.3169 100.288 43.3169C98.3569 43.3169 96.791 41.751 96.791 39.8195C96.791 37.8875 98.3569 36.3223 100.288 36.3223C102.219 36.3217 103.784 37.8875 103.784 39.8195Z" fill="#FEFEFE" fill-opacity="0.3"/>
<path fill-rule="evenodd" clip-rule="evenodd" d="M35.6995 175.263C35.6995 177.195 34.1336 178.761 32.2028 178.761C30.2719 178.761 28.7061 177.195 28.7061 175.263C28.7061 173.331 30.2719 171.766 32.2028 171.766C34.1336 171.766 35.6995 173.331 35.6995 175.263Z" fill="#FEFEFE" fill-opacity="0.5"/>
<path fill-rule="evenodd" clip-rule="evenodd" d="M37 0.499942C37 2.43287 35.4327 4 33.5 4C31.5673 4 30 2.43287 30 0.499942C30 -1.43358 31.5673 -3 33.5 -3C35.4327 -3.00059 37 -1.43358 37 0.499942Z" fill="#FEFEFE" fill-opacity="0.3"/>
<path fill-rule="evenodd" clip-rule="evenodd" d="M152.242 48.257V52.0269C152.242 52.1691 152.357 52.2837 152.499 52.2837C152.641 52.2837 152.756 52.1693 152.756 52.0269V48.257C152.756 48.115 152.641 48 152.499 48C152.357 48 152.242 48.1152 152.242 48.257Z" fill="#FEFEFE" fill-opacity="0.7"/>
<path fill-rule="evenodd" clip-rule="evenodd" d="M152.242 54.9731V58.743C152.242 58.8848 152.357 59 152.499 59C152.641 59 152.756 58.8849 152.756 58.743V54.9731C152.756 54.8307 152.641 54.7163 152.499 54.7163C152.357 54.7161 152.242 54.8308 152.242 54.9731Z" fill="#FEFEFE" fill-opacity="0.7"/>
<path fill-rule="evenodd" clip-rule="evenodd" d="M147.257 53.7569H151.027C151.169 53.7569 151.284 53.6419 151.284 53.5001C151.284 53.3584 151.169 53.2433 151.027 53.2433L147.257 53.2432C147.115 53.2432 147 53.3584 147 53.5001C147 53.6419 147.115 53.7571 147.257 53.7569Z" fill="#FEFEFE" fill-opacity="0.7"/>
<path fill-rule="evenodd" clip-rule="evenodd" d="M153.973 53.7569H157.743C157.885 53.7569 158 53.6419 158 53.5001C158 53.3584 157.885 53.2433 157.743 53.2433L153.973 53.2432C153.831 53.2432 153.716 53.3584 153.716 53.5001C153.716 53.6419 153.831 53.7571 153.973 53.7569Z" fill="#FEFEFE" fill-opacity="0.7"/>
<path fill-rule="evenodd" clip-rule="evenodd" d="M348 8.99998C348 9.55225 347.552 10 347 10C346.448 10 346 9.55225 346 8.99998C346 8.44755 346.448 8 347 8C347.552 7.99983 348 8.44755 348 8.99998Z" fill="#FEFEFE" fill-opacity="0.5"/>
<path fill-rule="evenodd" clip-rule="evenodd" d="M149.676 77.9999C149.676 79.0826 148.799 79.9605 147.716 79.9605C146.634 79.9605 145.756 79.0826 145.756 77.9999C145.756 76.9168 146.634 76.0393 147.716 76.0393C148.799 76.039 149.676 76.9168 149.676 77.9999Z" fill="#FEFEFE" fill-opacity="0.5"/>
<path fill-rule="evenodd" clip-rule="evenodd" d="M231.999 111.354C231.999 113.286 230.433 114.852 228.503 114.852C226.572 114.852 225.006 113.286 225.006 111.354C225.006 109.422 226.572 107.857 228.503 107.857C230.433 107.856 231.999 109.422 231.999 111.354Z" fill="#FEFEFE" fill-opacity="0.3"/>
</g>
<defs>
<clipPath id="clip0_1113_10480">
<rect width="375" height="200" fill="white"/>
</clipPath>
</defs>
</svg>
