<svg width="154" height="30" viewBox="0 0 154 30" fill="none" xmlns="http://www.w3.org/2000/svg">
<path fill-rule="evenodd" clip-rule="evenodd" d="M69.5596 10.5398C69.3132 10.1897 69.2216 10.1576 68.9603 10.1576C68.6666 10.1576 68.5507 10.2994 68.3532 10.5559C68.0308 10.9711 64.2892 16.3059 64.2459 16.3059H73.6966C73.681 16.3059 70.0804 11.2863 69.5596 10.5398ZM69.0009 5.75781C70.3426 5.75781 71.1759 6.23683 72.4305 7.7875L81.7635 20.7044C82.2598 21.3829 82.2114 22.4588 81.3554 23.1589C80.5969 23.7802 79.2542 23.8361 78.5268 22.9062L76.2934 19.9157H61.5933L59.3618 22.9602C58.5761 23.8654 57.6128 23.8654 56.739 23.2988C55.8287 22.7143 55.5993 21.5802 56.1561 20.7892L65.5757 7.7875C66.7716 6.17951 67.7166 5.75781 69.0009 5.75781Z" fill="white"/>
<path fill-rule="evenodd" clip-rule="evenodd" d="M5.34203 5.78125H18.786C22.1222 5.78125 22.4273 9.4952 22.4273 9.4952H5.88522C5.06704 9.4952 4.30762 10.0944 4.30762 11.1349C4.30762 12.32 5.23888 12.8852 5.82812 12.8852H17.5182C19.8327 12.8852 23.1292 14.7506 23.1292 17.9719C23.1292 22.1537 19.3019 23.6411 17.9665 23.6411H4.28945C0.225402 23.6411 0.450655 19.8924 0.450655 19.8924H17.4009C18.0796 19.8924 19.078 19.2432 19.078 18.2714C19.078 17.3438 18.2018 16.6318 17.5588 16.6318H6.10133C2.85134 16.6318 0.333008 14.2983 0.333008 11.1349C0.333008 7.57333 3.49356 5.78125 5.34203 5.78125Z" fill="white"/>
<path fill-rule="evenodd" clip-rule="evenodd" d="M91.522 5.75684H105.404C107.51 5.75684 110.772 7.41946 110.772 11.3963V11.65C110.772 13.7682 109.4 15.6268 107.477 16.5302C107.477 16.5302 107.614 16.7335 110.597 20.6464C110.983 21.1511 111.004 22.3674 110.159 23.0991C109.353 23.8002 108.008 23.8888 107.33 23.129C106.383 22.0682 105.289 20.6749 102.285 16.9812H96.8598C95.3129 16.9812 93.214 15.7956 93.214 13.1741H104.938C105.575 13.1484 106.596 12.5574 106.596 11.4C106.596 10.3277 105.615 9.59465 104.932 9.59465H91.9817L91.9931 21.4653C91.9941 22.7619 90.9675 23.6359 89.8587 23.6359C88.8098 23.6359 87.7607 22.7335 87.7607 21.5204V9.42255C87.7607 7.39198 89.9759 5.75684 91.522 5.75684Z" fill="white"/>
<path fill-rule="evenodd" clip-rule="evenodd" d="M34.296 5.78658H48.1801C50.2835 5.78658 53.5458 7.45246 53.5458 11.4266V11.6812C53.5458 13.8008 52.1757 15.658 50.2506 16.5595C50.2506 16.5595 49.255 16.8705 48.3224 16.9838H39.601C38.0558 16.9838 36.0714 15.7713 36.0714 13.1489H47.6802C48.3164 13.1218 49.37 12.5886 49.37 11.4298C49.37 10.358 48.3894 9.62393 47.7057 9.62393L34.7593 9.62169L34.767 21.4947C34.768 22.7936 33.7419 23.6658 32.634 23.6658C31.5842 23.6658 30.5352 22.7628 30.5352 21.5507V9.4533C30.5352 7.42127 32.7503 5.78613 34.296 5.78613V5.78658Z" fill="white"/>
<path fill-rule="evenodd" clip-rule="evenodd" d="M129.486 28.2919C124.413 25.8668 121.532 20.9122 121.532 15.3778C121.532 6.86174 128.49 0 137.431 0C146.332 0 153.333 6.91682 153.333 15.3778C153.333 20.9122 150.11 26.0433 145.392 28.2919C140.61 30.5694 134.255 30.5694 129.486 28.2919ZM127.593 20.6967C131.071 16.9258 135.84 9.23462 137.441 3.98738C139.026 9.23462 143.795 16.9258 147.4 20.6967H139.026V22.9746C139.026 24.6175 140.33 25.6208 141.744 25.6048C143.795 25.5795 146.445 24.6175 148.185 21.8914C148.675 21.1233 150.163 18.4595 150.163 15.3787C150.163 8.81573 144.481 3.07715 137.433 3.07715C130.307 3.07715 124.704 8.65195 124.704 15.3787C124.704 18.4595 125.565 19.9956 126.751 21.945C128.378 24.6175 131.071 25.5795 133.225 25.6048C134.777 25.6232 135.84 24.2785 135.861 22.9828L135.84 20.6967H127.593Z" fill="white"/>
</svg>
