<svg xmlns="http://www.w3.org/2000/svg" width="274" height="242" fill="none"><path fill="#FEFEFE" fill-opacity=".431" fill-rule="evenodd" d="M146.715 0C209.518 0 260.43 48.04 260.43 107.302c0 59.261-50.912 107.302-113.715 107.302C83.912 214.604 33 166.563 33 107.302 33 48.041 83.912 0 146.715 0Z" clip-rule="evenodd"/><path fill="#FEFEFE" fill-rule="evenodd" d="M49.161 102.721a.849.849 0 1 1-1.697 0 .849.849 0 0 1 1.697 0ZM127.862 17.394a2.985 2.985 0 1 1-5.97 0 2.985 2.985 0 0 1 5.97 0ZM64.91 48.815c.887-2.507 3.081-5.746 6.947-9.455 3.865-3.709 9.403-7.888 14.522-11.544 5.12-3.657 9.82-6.791 14.261-8.828 4.44-2.038 8.619-2.978 11.126-2.717 2.508.261 3.343 1.724-.104 4.858-3.448 3.134-11.179 7.94-17.813 13.687-6.635 5.746-12.172 12.432-16.82 15.932-4.65 3.5-8.411 3.813-10.5 3.082-2.09-.731-2.508-2.507-1.62-5.015Z" clip-rule="evenodd"/><path fill="#AF6032" fill-rule="evenodd" d="M217.238 187.543c-5.849-.889-13.217-.326-23.831.279-10.613.604-24.474 1.252-39.123 1.748-14.649.497-30.087.844-43.521.952-13.433.108-24.862-.023-31.813.212-12.719.551-12.399 2.395-18.098 10.291-1.282 1.777-9.498 13.011-7.833 14.318 1.28 1.006 19.638.304 22.376.278 19.682-.148 39.701 1.152 59.591 1.272 34.315.16 69.735-.494 103.936-2.548 1.743-.105 13.752-.449 12.308-2.964-.736-1.282-5.936-5.498-7.611-7.34-5.497-6.047-7.657-8.7-16.161-13.097-3.462-1.791-6.123-2.673-10.22-3.401Z" clip-rule="evenodd"/><path fill="#C17A48" fill-rule="evenodd" d="M186.738 99.725c3.791.154 5.301-19.188.793-22.128-4.507-2.94-64.08-1.238-65.318 1.238-1.238 2.476-3.16 19.344 1.051 20.89 4.21 1.547 63.474 0 63.474 0Z" clip-rule="evenodd"/><path fill="#183946" fill-rule="evenodd" d="M120.692 89.899h69.551c.047-.82.068-1.652.062-2.476h-69.51c-.053.818-.088 1.65-.103 2.476Z" clip-rule="evenodd"/><path fill="#A8592D" fill-rule="evenodd" d="M121.023 95.488c-.574-3.401-.343-8.14.126-11.743a15.532 15.532 0 0 1 2.761-.255c1.204 0 2.457.153 3.719.529 2.435.724 4.735 1.836 6.784 2.91v.493h-13.618c-.053.819-.089 1.65-.103 2.477h10.441c-3.565 1.58-6.971 3.44-10.11 5.589Zm68.979-3.005a28.58 28.58 0 0 0-3.255-2.584h3.495c-.051.88-.132 1.749-.24 2.584Zm.302-5.06h-7.868c-6.269-3.002-13.576-4.214-20.563-4.214-1.953 0-3.884.094-5.758.272a83.74 83.74 0 0 0-14.473 2.673 75.434 75.434 0 0 0-.295-2.648c2.266-.08 5.22-.46 5.315-1.886.002-.038.004-.077.004-.116.002-2.295-4.342-4.928-4.342-4.928.001 0 7.138-.144 14.681-.144 3.772 0 7.644.036 10.778.144 9.4.324 15.64 2.78 19.033 5.663 1.352 1.15 2.42 2.385 3.443 3.649.026.505.041 1.019.045 1.535Zm-48.993-1.228c-1.15-1.431-2.54-2.705-2.54-2.705h.012l.015.001h.016a29.035 29.035 0 0 0 2.198.025c.117.9.216 1.793.299 2.68Z" clip-rule="evenodd"/><path fill="#17292C" fill-rule="evenodd" d="M190.242 89.9h-3.494a32.511 32.511 0 0 0-4.312-2.477h7.869c.006.824-.016 1.655-.063 2.476Zm-59.108-.001h-10.442c.015-.827.05-1.658.103-2.476h13.618v1.119c-1.106.427-2.2.879-3.279 1.357Z" clip-rule="evenodd"/><path fill="#183946" fill-rule="evenodd" d="M162.864 94.463h-15.373a2.3 2.3 0 0 1-2.3-2.3v-.562h19.973v.562a2.3 2.3 0 0 1-2.3 2.3Z" clip-rule="evenodd"/><path fill="#F8B255" fill-rule="evenodd" d="M145.414 91.601V84.02a.223.223 0 0 0-.445 0v7.582a.222.222 0 1 0 .445 0ZM165.304 91.601V84.02a.222.222 0 1 0-.445 0l.001 7.582a.222.222 0 1 0 .444 0ZM178.499 94.463h-8.82v-2.862h8.82v2.862ZM140.448 94.463h-8.82v-2.862h8.82v2.862Z" clip-rule="evenodd"/><path fill="#F8B255" fill-rule="evenodd" d="M174.7 92.53h-1.223a1.014 1.014 0 0 1-1.013-1.015v-5.4c0-.56.454-1.013 1.013-1.013h1.223c.559 0 1.013.453 1.013 1.013v5.4c0 .56-.454 1.014-1.013 1.014ZM136.649 92.53h-1.222c-.56 0-1.014-.454-1.014-1.015v-5.4c0-.56.454-1.013 1.014-1.013h1.222c.56 0 1.014.453 1.014 1.013v5.4c0 .56-.454 1.014-1.014 1.014Z" clip-rule="evenodd"/><path fill="#FED785" fill-rule="evenodd" d="M175.712 91.6h-.002a.803.803 0 0 0 .004-.085v-1.617 1.64l-.002.063ZM172.467 91.601h-.001c-.002-.02-.002-.042-.002-.063v-.022c0 .029.001.057.003.085Z" clip-rule="evenodd"/><path fill="#FFE98D" fill-rule="evenodd" d="M174.722 92.529h-1.267a.991.991 0 0 1-.989-.928h.001c.044.52.479.928 1.01.928h1.223c.531 0 .966-.408 1.01-.928h.002a.993.993 0 0 1-.99.928Z" clip-rule="evenodd"/><path fill="#FFE98D" fill-rule="evenodd" d="M174.7 92.529h-1.223a1.014 1.014 0 0 1-1.013-1.014v-1.362a13.614 13.614 0 0 0 3.249-2.043V91.515a1.014 1.014 0 0 1-1.013 1.014Z" clip-rule="evenodd"/><path fill="#FED785" fill-rule="evenodd" d="M137.66 91.6h-.001c.002-.028.004-.056.004-.085v-1.617 1.64a.653.653 0 0 1-.003.063ZM134.417 91.601h-.002l-.002-.063v-.022c0 .029.001.057.004.085Z" clip-rule="evenodd"/><path fill="#FFE98D" fill-rule="evenodd" d="M136.671 92.529h-1.267a.991.991 0 0 1-.989-.928h.001c.044.52.479.928 1.011.928h1.222c.531 0 .967-.408 1.01-.928h.001a.99.99 0 0 1-.989.928Z" clip-rule="evenodd"/><path fill="#FFE98D" fill-rule="evenodd" d="M136.649 92.529h-1.222c-.531 0-.967-.408-1.01-.928-.002-.029-.004-.057-.004-.086v-1.761c.908-.38 1.775-.868 2.586-1.447.226.12.447.235.664.347v2.861c0 .03-.002.057-.004.086-.043.52-.479.928-1.01.928Z" clip-rule="evenodd"/><path fill="#D04F29" fill-rule="evenodd" d="M66.353 168.35h150.404s-.232-37.368-14.159-39.922c0 0-5.338-24.835-12.069-28.549-6.731-3.713-57.563-3.017-69.4 0-11.837 3.018-24.835 25.3-24.835 25.3-19.173 6.03-29.68 19.943-29.941 43.171Z" clip-rule="evenodd"/><path fill="#FCE5D3" fill-rule="evenodd" d="M74.399 169.975c3.095-9.284 5.57-17.021-3.868-16.403v-6.721s-7.583-3.646-9.13 3.781c-1.547 7.428 1.547 19.343 1.547 19.343h11.45ZM209.021 169.975h11.915s3.868-17.795 0-18.568c-3.869-.774-14.237 5.88-14.546 9.284-.309 3.404 2.631 9.284 2.631 9.284Z" clip-rule="evenodd"/><path fill="#F8B255" fill-rule="evenodd" d="M71.365 145.094c5.815 2.042 12.164-8.929 9.963-12.244-8.012-4.963-14.975 6.921-9.963 12.244Z" clip-rule="evenodd"/><path fill="#E68A4B" fill-rule="evenodd" d="M72.838 145.345Zm1.832-.353.012-.005-.012.005Zm.015-.006.012-.005-.012.005Zm.02-.008.005-.001-.005.001Z" clip-rule="evenodd"/><path fill="#FCCC70" fill-rule="evenodd" d="M72.838 145.345a4.425 4.425 0 0 1-1.473-.251 6.047 6.047 0 0 1-1.363-2.336c1.083-4.031 4.756-6.663 9.249-6.663.745 0 1.514.072 2.296.223-.797 3.287-3.623 7.419-6.837 8.659l-.005.002-.007.003-.013.005-.003.001-.012.005h-.002c-.6.227-1.214.352-1.83.352Z" clip-rule="evenodd"/><path fill="#F8B255" fill-rule="evenodd" d="M211.186 134.232c-2.877-2.172-7.737-2.454-7.737-1.382 0 1.072 4.333 14.07 4.952 15.308.619 1.237 7.296 1.243 7.582 0 .285-1.238-3.017-11.838-4.797-13.926Z" clip-rule="evenodd"/><path fill="#CDD9CA" fill-rule="evenodd" d="m215.983 148.161.001-.004-.001.004Z" clip-rule="evenodd"/><path fill="#FCCC70" fill-rule="evenodd" d="M215.616 148.555c-1.264-3.949-5.166-11.535-11.635-13.56-.319-1.09-.522-1.875-.532-2.129.001 0 0 .001 0 0v-.017c0-.396.662-.607 1.641-.607 1.675 0 4.28.618 6.096 1.989 1.707 2.002 4.814 11.833 4.814 13.727a.85.85 0 0 1-.017.199l-.001.003c-.036.15-.166.281-.366.395Z" clip-rule="evenodd"/><path fill="#183946" fill-rule="evenodd" d="M105.966 133.535a2.63 2.63 0 1 1-5.26 0 2.63 2.63 0 0 1 5.26 0ZM159.272 131.407l-4.952 2.824 4.952 2.824 4.951-2.824-4.951-2.824ZM177.312 131.407l-4.952 2.824 4.952 2.824 4.951-2.824-4.951-2.824ZM195.349 131.407l-4.952 2.824 4.952 2.824 4.952-2.824-4.952-2.824Z" clip-rule="evenodd"/><path fill="#F8B255" fill-rule="evenodd" d="M170.027 134.115a1.393 1.393 0 1 1-2.785 0 1.393 1.393 0 0 1 2.785 0ZM188.131 134.115a1.393 1.393 0 1 1-2.787 0 1.393 1.393 0 0 1 2.787 0Z" clip-rule="evenodd"/><path fill="#B23121" fill-rule="evenodd" d="M150.125 165.555h-21.568a.223.223 0 0 1-.164-.071.227.227 0 0 1-.058-.168c.084-1.07.127-2.112.127-3.124-.001-5.179-1.112-9.59-3.438-13.176-2.327-3.585-5.873-6.354-10.783-8.233a.224.224 0 0 1-.142-.208v-11.45a.222.222 0 1 1 .444 0v11.298c4.905 1.902 8.494 4.713 10.854 8.351 2.383 3.672 3.51 8.178 3.51 13.418 0 .949-.037 1.922-.11 2.919h21.106v-35.986a.222.222 0 1 1 .445 0v36.208a.22.22 0 0 1-.066.157.22.22 0 0 1-.157.065ZM79.506 154.724a.222.222 0 0 1-.203-.314c2.362-5.235 6.674-8.951 11.551-11.356 4.879-2.405 10.327-3.506 15.002-3.506 2.109 0 4.062.224 5.736.657.119.03.19.152.16.271a.223.223 0 0 1-.271.159c-1.63-.421-3.547-.643-5.625-.643h-.003c-4.605 0-9.995 1.089-14.802 3.461-4.81 2.372-9.033 6.021-11.342 11.139a.222.222 0 0 1-.203.132ZM199.427 160.367a.221.221 0 0 1-.217-.175c-1.457-6.643-4.875-11.528-9.217-14.761-4.342-3.232-9.613-4.81-14.77-4.81-6.549 0-12.904 2.544-16.939 7.441a.224.224 0 0 1-.314.03.222.222 0 0 1-.029-.313c4.136-5.018 10.621-7.602 17.282-7.602 5.247 0 10.611 1.603 15.036 4.897 4.426 3.293 7.908 8.281 9.385 15.023a.223.223 0 0 1-.217.27Z" clip-rule="evenodd"/><path fill="#E66D3B" fill-rule="evenodd" d="M121.606 152.212c-2.446-.001-5.105-4.506-13.358-6.255a30.415 30.415 0 0 0-6.348-.683c-2.1 0-3.846.229-5.234.457s-2.42.456-3.088.456c-.359 0-.614-.065-.765-.23-.98-1.075 3.91-4.182 11.895-4.182 1.468 0 3.041.105 4.7.347 10.688 1.558 15.9 8.472 13.114 9.865a2.022 2.022 0 0 1-.916.225ZM190.223 152.212c-2.199-.001-4.589-4.506-12.01-6.255a24.695 24.695 0 0 0-5.707-.683c-1.888 0-3.458.229-4.706.457-1.248.228-2.174.456-2.776.456-.322 0-.552-.065-.687-.23-.882-1.075 3.515-4.182 10.694-4.182 1.319 0 2.733.105 4.226.347 9.608 1.558 14.294 8.472 11.79 9.865a1.671 1.671 0 0 1-.824.225Z" clip-rule="evenodd"/><path fill="#A1C6BF" fill-rule="evenodd" d="M152.541 126.803h44.255s-3.559-20.116-7.737-23.365c-2.391-1.859-20.598-2.822-36.518-2.504v25.869Z" clip-rule="evenodd"/><path fill="#C17A48" fill-rule="evenodd" d="M196.796 126.803s-.296-1.671-.817-4.127c-4.153-6.088-9.091-11.271-9.744-14.209-.696-3.134-3.25-4.178-7.776-3.946-4.525.233-23.502 4.874-25.918 14.739v7.543h44.255Z" clip-rule="evenodd"/><path fill="#B23C21" fill-rule="evenodd" d="m196.796 126.803-.021-.113.021.113Z" clip-rule="evenodd"/><path fill="#878265" fill-rule="evenodd" d="M196.797 126.803h-.001.001Zm0 0a122.895 122.895 0 0 0-.021-.113l.021.113Zm-2.209-6.102h-.001.001Zm-.009-.011a.083.083 0 0 0-.008-.012l.008.012Zm-.008-.013c-3.632-4.998-7.424-9.231-8.245-11.873l.001-.001c.82 2.642 4.611 6.876 8.243 11.874h.001Zm-42.029-1.417Zm.299-.979.006-.014-.006.014Zm.006-.015.005-.013-.005.013Zm.005-.014.004-.012-.004.012Zm.005-.014.005-.012-.005.012Zm.006-.015.004-.011-.004.011Zm.005-.014.004-.01-.004.01Zm.005-.015.004-.009a.036.036 0 0 1-.004.009Zm.006-.014.003-.008-.003.008Zm.006-.015.002-.006-.003.006h.001Zm.005-.014.002-.006-.002.006Zm.006-.014.002-.005a.008.008 0 0 0-.002.005Zm.005-.014.002-.005-.002.005Zm.006-.015.001-.003-.001.003Zm.005-.014.001-.002-.001.002Z" clip-rule="evenodd"/><path fill="#A25025" fill-rule="evenodd" d="m196.797 126.803-.771-3.758a3.27 3.27 0 0 0-.161-.537l.115.168a151.417 151.417 0 0 1 .817 4.127Zm-44.255 0v-7.543c.081-.332.181-.659.299-.979l.006-.014v-.001a.061.061 0 0 1 .005-.012v-.002l.004-.012.001-.002.005-.012.001-.003.004-.01.001-.004a.069.069 0 0 1 .004-.01l.001-.005c.002-.002.003-.005.004-.009l.002-.004.003-.009a.014.014 0 0 0 .002-.006l.003-.007.003-.007.002-.006.004-.009.001-.004.004-.01.002-.004a.03.03 0 0 1 .004-.01l.001-.003.004-.012.001-.001.005-.013c.213-.542.477-1.067.784-1.574v4.725a3.163 3.163 0 0 0-1.16 2.451v3.121Zm42.49-5.484a3.158 3.158 0 0 0-2.11-.805v-.001h-5.587c-.002-1.16.022-2.697.1-4.696.121-3.095-.699-5.355-1.514-6.812.136-.066.27-.133.405-.201.822 2.642 4.613 6.876 8.245 11.874l.009.012.007.011h.001c.148.205.296.41.444.618Zm-17.013-.806h-5.189l-.308-3.679-.019-.223-.123-1.469.897-.021-.318-3.752c.848.103 1.694.153 2.534.153 2.178 0 4.324-.335 6.397-.946-.057.839-.436 2.253-1.882 4.313-1.25 1.779-1.777 3.912-1.989 5.625v-.001Zm-18.973-9.22c1.712-1.137 3.62-2.125 5.562-2.969 1.416.987 3.047 1.77 4.853 2.312l.297.086-10.712.571Z" clip-rule="evenodd"/><path fill="#D04F29" fill-rule="evenodd" d="m172.89 121.233-.619-7.394-18.569.586v7.427l19.188-.619Z" clip-rule="evenodd"/><path fill="#8D2E1F" fill-rule="evenodd" d="m172.521 116.834-.019-.224.019.224Z" clip-rule="evenodd"/><path fill="#B23121" fill-rule="evenodd" d="M153.702 120.441v-4.845l18.678-.453.123 1.468.018.223a36.28 36.28 0 0 0-.933-.012c-6.085 0-12.125 1.556-17.886 3.619Z" clip-rule="evenodd"/><path fill="#F8B255" fill-rule="evenodd" d="m173.276 115.121-.387-4.564-20.348 1.083v3.984l20.735-.503Z" clip-rule="evenodd"/><path fill="#9C8B3F" fill-rule="evenodd" d="m152.541 111.639 1.781-.095-1.781.095Z" clip-rule="evenodd"/><path fill="#EE7C1C" fill-rule="evenodd" d="M152.541 115.623v-3.984l1.781-.095c4.724 2.43 9.731 3.308 14.802 3.308 1.368 0 2.741-.064 4.114-.178l.038.446-.897.022-18.677.453-1.161.028Z" clip-rule="evenodd"/><path fill="#1A1E21" fill-rule="evenodd" d="m163.462 121.838-.915-10.737-.166.015.126.109c.003-.003.701-.817 1.403-1.834a13.43 13.43 0 0 0 .969-1.606c.265-.54.45-1.054.452-1.499.001-.276-.078-.538-.276-.725a.563.563 0 0 0-.39-.171c-.211.003-.384.127-.536.294-.266.297-.504.772-.729 1.33-.67 1.667-1.181 4.062-1.182 4.067l.163.035.16-.046c-.001-.003-.399-1.411-.989-2.826-.296-.709-.638-1.418-1.011-1.961a3.2 3.2 0 0 0-.586-.671c-.205-.168-.43-.279-.672-.279a.776.776 0 0 0-.259.045.616.616 0 0 0-.322.243.683.683 0 0 0-.1.376c.005.417.246.916.59 1.474 1.032 1.66 3.065 3.756 3.069 3.761l.12-.116.107-.128c-.004-.003-.723-.605-1.693-1.209-.972-.603-2.185-1.217-3.227-1.221-.326 0-.638.062-.914.213a1.679 1.679 0 0 0-.682.722.168.168 0 0 0 .071.225c.082.042.183.01.225-.072.146-.28.33-.463.547-.582.216-.119.469-.173.753-.173.911-.004 2.104.577 3.05 1.17a16.678 16.678 0 0 1 1.532 1.083c.081.064.123.1.124.1.068.057.168.05.229-.015a.168.168 0 0 0-.002-.23 34.978 34.978 0 0 1-2.132-2.446 13.413 13.413 0 0 1-1.013-1.456c-.266-.452-.424-.857-.421-1.1 0-.088.019-.151.047-.195a.29.29 0 0 1 .153-.11.426.426 0 0 1 .148-.025c.135-.001.291.064.461.203.298.242.616.699.909 1.243.441.818.835 1.833 1.116 2.64a28.313 28.313 0 0 1 .451 1.408.167.167 0 0 0 .324-.01c0-.001.074-.345.202-.864.191-.778.506-1.947.871-2.913.182-.482.378-.914.571-1.214.096-.151.192-.267.277-.339.085-.074.153-.098.2-.098.044.001.09.015.16.08.115.11.171.264.173.483.002.349-.162.836-.418 1.351-.383.775-.966 1.621-1.452 2.27-.243.324-.462.6-.62.794-.158.194-.254.306-.254.306a.166.166 0 0 0-.039.123l.915 10.736c.008.092.088.16.18.153a.168.168 0 0 0 .152-.181Z" clip-rule="evenodd"/><path fill="#1A1E21" fill-rule="evenodd" d="M167.928 109.162a1.078 1.078 0 0 0-.459-.447 1.35 1.35 0 0 0-.617-.134c-.45.001-.95.158-1.459.385-1.519.681-3.113 2.018-3.119 2.022a.167.167 0 1 0 .214.256s.042-.036.122-.1a18.576 18.576 0 0 1 1.829-1.29c.824-.506 1.763-.944 2.413-.939.181 0 .337.032.466.097a.753.753 0 0 1 .32.314.167.167 0 0 0 .29-.164Z" clip-rule="evenodd"/><path fill="#A1C6BF" fill-rule="evenodd" d="M108.248 125.295c4.061-14.623 15.666-23.675 15.666-23.675h-6.887c-10.548 6.102-20.733 23.559-20.733 23.559 5.095-1.106 8.789-.768 11.954.116Z" clip-rule="evenodd"/><path fill="#BBDED8" fill-rule="evenodd" d="M108.248 125.295a21.559 21.559 0 0 0-5.915-.814c-1.787 0-3.775.206-6.04.698 0 0 10.185-17.457 20.734-23.559h6.887s-11.605 9.052-15.666 23.675Z" clip-rule="evenodd"/><path fill="#A1C6BF" fill-rule="evenodd" d="M150.126 100.993c-9.736.28-18.227 1.064-21.105 2.446-7.737 3.713-14.545 18.413-14.7 23.365h35.805v-25.811ZM196.796 126.804l-.771-3.759a3.169 3.169 0 0 0-3.104-2.531H155.71a3.168 3.168 0 0 0-3.169 3.168v3.122h44.255Z" clip-rule="evenodd"/><path fill="#DFF0ED" fill-rule="evenodd" d="M172.528 126.804h-5.351l4.006-6.29h5.263l-3.918 6.29ZM195.865 122.507a3.16 3.16 0 0 0-.833-1.188v-.001c.361.322.648.727.833 1.189Z" clip-rule="evenodd"/><path fill="#EAE3D1" fill-rule="evenodd" d="M195.865 122.507Zm-.833-1.188v-.001.001Z" clip-rule="evenodd"/><path fill="#DDD8C9" fill-rule="evenodd" d="m196.797 126.804-.771-3.759a3.27 3.27 0 0 0-.161-.537v-.001c.068.172.122.352.161.538l.771 3.759Zm-1.765-5.485Z" clip-rule="evenodd"/><path fill="#DFF0ED" fill-rule="evenodd" d="M196.796 126.804h-18.528l1.648-2.785c1.012.153 2.01.232 2.994.232 1.55 0 3.064-.197 4.536-.619 0 0-.107-.82-.112-3.118h5.587a3.166 3.166 0 0 1 2.943 1.993v.001c.069.171.123.351.161.537l.771 3.759Z" clip-rule="evenodd"/><path fill="#C17A48" fill-rule="evenodd" d="M181.787 109.627c1.625-.696 2.63-2.63 2.63-2.63s3.25 2.863 3.018 8.82c-.232 5.958.012 7.814.012 7.814-3.017.865-6.208.786-9.528 0 0 0-.465-5.106 2.088-8.742 2.554-3.637 1.78-5.262 1.78-5.262Z" clip-rule="evenodd"/><path fill="#97411F" fill-rule="evenodd" d="m182.375 109.308-.007-.015.009-.115a.11.11 0 0 1 .09-.046l.018.001c.002.001.041.007.108.023a4.048 4.048 0 0 1-.218.152Z" clip-rule="evenodd"/><path fill="#97411F" fill-rule="evenodd" d="M182.251 115.232a.11.11 0 0 1-.06-.018.11.11 0 0 1-.034-.153c.632-.99.834-2.018.834-2.931a7.008 7.008 0 0 0-.597-2.783l-.019-.039c.075-.049.147-.099.218-.152.179.044.557.161.97.438.565.379 1.19 1.066 1.427 2.256a.11.11 0 0 1-.109.132.111.111 0 0 1-.109-.089c-.213-1.061-.737-1.679-1.235-2.045a3.015 3.015 0 0 0-.874-.442c.18.429.55 1.464.55 2.724 0 .946-.209 2.019-.868 3.05a.112.112 0 0 1-.094.052Z" clip-rule="evenodd"/><path fill="#1A1E21" fill-rule="evenodd" d="M181.953 109.641c.073-.871.684-1.491 1.302-1.9a5.25 5.25 0 0 1 .839-.446c.114-.047.208-.082.272-.106l.075-.024.024-.009a.167.167 0 1 0-.096-.319c-.009.003-.638.19-1.298.626-.656.434-1.361 1.128-1.45 2.15a.167.167 0 0 0 .151.181.167.167 0 0 0 .181-.153Z" clip-rule="evenodd"/><path fill="#183946" fill-rule="evenodd" d="M119.132 166.588c0 9.449-7.66 17.11-17.11 17.11-9.45-.001-17.11-7.661-17.11-17.11 0-9.45 7.66-17.11 17.11-17.11s17.11 7.66 17.11 17.11Z" clip-rule="evenodd"/><path fill="#1A1E21" fill-rule="evenodd" d="M111.712 166.588a9.69 9.69 0 0 1-9.69 9.69 9.69 9.69 0 0 1-9.69-9.69c0-5.351 4.338-9.69 9.69-9.69 5.352 0 9.69 4.339 9.69 9.69Z" clip-rule="evenodd"/><path fill="#183946" fill-rule="evenodd" d="M191.779 166.588c0 9.449-7.66 17.11-17.11 17.11-9.45-.001-17.11-7.661-17.11-17.11 0-9.45 7.66-17.11 17.11-17.11s17.11 7.66 17.11 17.11Z" clip-rule="evenodd"/><path fill="#1A1E21" fill-rule="evenodd" d="M184.359 166.588c0 5.352-4.339 9.69-9.69 9.69a9.69 9.69 0 0 1-9.69-9.69c0-5.351 4.338-9.69 9.69-9.69 5.351 0 9.69 4.339 9.69 9.69Z" clip-rule="evenodd"/><path fill="#C17A48" fill-rule="evenodd" d="M205.616 63.096c10.909 6.841 12.302 14.083 12.998 15.742.697 1.66 12.003-10.212 9.981-18.3-.464-1.858-18.151-13.811-27.586-12.186-9.435 1.624 0 8.897 0 8.897l4.607 5.847Z" clip-rule="evenodd"/><path fill="#AF6032" fill-rule="evenodd" d="M222.482 72.348a.167.167 0 0 1-.139-.075c-1.934-2.915-4.55-5.642-7.237-8.016-.081-.215-.158-.43-.232-.647 2.859 2.478 5.68 5.368 7.747 8.479a.167.167 0 0 1-.139.26ZM225.036 66.546a.167.167 0 0 1-.13-.062c-3.875-4.791-7.942-7.793-11.215-9.641l.009-.378c3.33 1.858 7.498 4.905 11.465 9.81a.166.166 0 0 1-.129.27Zm1.315-4.797a.165.165 0 0 1-.12-.05c-2.545-2.624-6.976-5.272-11.39-7.252a60.72 60.72 0 0 0-.905-.398c.018-.113.036-.225.056-.338.328.14.657.284.985.431 4.44 1.995 8.892 4.647 11.493 7.324a.167.167 0 0 1-.119.283ZM223.256 69.95a.164.164 0 0 1-.135-.07c-2.608-3.63-5.83-6.712-9.034-9.172a27.055 27.055 0 0 1-.095-.492c3.322 2.512 6.686 5.694 9.399 9.47a.167.167 0 0 1-.135.263Z" clip-rule="evenodd"/><path fill="#92A08D" fill-rule="evenodd" d="M218.751 78.976Z" clip-rule="evenodd"/><path fill="#B06234" fill-rule="evenodd" d="M218.871 78.996a.34.34 0 0 1-.121-.02.235.235 0 0 1-.136-.137 4.842 4.842 0 0 1-.077-.195c-.565-1.529-1.693-6.06-7.068-11.093a58.672 58.672 0 0 0-1.039-2.777c.83.628 1.68 1.304 2.516 2.015 1.724 1.466 3.385 3.085 4.675 4.748 1.291 1.663 2.206 3.37 2.452 5.002a.168.168 0 0 0 .19.14.167.167 0 0 0 .14-.19c-.299-1.965-1.492-3.967-3.102-5.877-2.013-2.386-4.685-4.631-7.117-6.44a72.467 72.467 0 0 0-2.714-5.793c2.215 1.501 4.96 3.515 7.635 5.878 1.577 4.193 4.424 7.91 8.74 9.649.096.039.192.075.289.113-2.183 2.932-4.47 4.977-5.263 4.977Zm-3.997-15.386c-2.758-2.39-5.551-4.4-7.736-5.856a42.57 42.57 0 0 0-.71-1.279s.284-.083.733-.227a48.872 48.872 0 0 1 6.926 4.46c.2.976.461 1.95.787 2.902Zm-.882-3.394a51.005 51.005 0 0 0-3.128-2.187 46.83 46.83 0 0 0-3.264-1.926c.722-.241 1.68-.583 2.584-.974.996.41 2.187.968 3.507 1.714-.011.87.041 1.724.164 2.548.04.274.086.55.137.825Zm-.292-3.75a32.354 32.354 0 0 0-3.097-1.523c.949-.437 1.785-.921 2.143-1.389.395.16.791.324 1.189.494a19.678 19.678 0 0 0-.235 2.417Zm.292-2.756a64.24 64.24 0 0 0-1.085-.45.524.524 0 0 0-.096-.498c-.854-1.111-3.723-1.278-5.176-1.29-.172-.045-.34-.087-.508-.129.602-.25 1.904-.82 3.334-1.631a48.057 48.057 0 0 1 4.086 1.642c-.229.77-.415 1.56-.555 2.356Z" clip-rule="evenodd"/><path fill="#A04E24" fill-rule="evenodd" d="M220.239 76.681a.166.166 0 0 1-.165-.142c-.247-1.632-1.162-3.339-2.452-5.002-1.29-1.663-2.952-3.282-4.676-4.748a56.457 56.457 0 0 0-2.516-2.014 84.48 84.48 0 0 0-.246-.602c2.433 1.808 5.105 4.054 7.118 6.44 1.609 1.91 2.802 3.912 3.102 5.877a.168.168 0 0 1-.14.19l-.025.001Zm-5.133-12.424c-2.675-2.363-5.421-4.377-7.636-5.878a52.326 52.326 0 0 0-.331-.625c2.184 1.457 4.977 3.466 7.735 5.857.074.216.151.432.232.646ZM213.692 56.842a31.78 31.78 0 0 0-3.507-1.713c.141-.061.281-.124.419-.187.904.385 1.952.883 3.097 1.523a24.03 24.03 0 0 0-.009.377Zm.244-2.794c-.398-.17-.794-.335-1.189-.494a.964.964 0 0 0 .161-.295c.36.146.722.296 1.085.451l-.057.338Zm-7.159-2.563s.127-.049.351-.142c.168.041.336.084.508.13-.056-.002-.109-.001-.161-.001-.428 0-.698.013-.698.013ZM214.087 60.708a48.854 48.854 0 0 0-6.926-4.46c.134-.043.281-.091.44-.145a46.86 46.86 0 0 1 3.263 1.926c1.024.66 2.074 1.39 3.128 2.187.03.164.062.328.095.492Z" clip-rule="evenodd"/><path fill="#5C885C" fill-rule="evenodd" d="M79.506 95.856c9.903 3.094 21.198-.155 25.686-3.327 4.487-3.172 8.356-1.934 10.522-2.63 2.167-.697-1.393-3.482-1.393-3.482s6.524-4.418 13.308-2.398 12.524 7.04 14.695 5.88c2.171-1.16-3.554-6.41-3.554-6.41s7.737.452 7.892-1.87c.154-2.32-4.338-5.043-4.338-5.043.001 0 16.059-.325 25.459 0 9.4.324 15.64 2.78 19.033 5.663 3.393 2.883 4.99 6.306 8.588 9.362 3.597 3.055 1.392-7.041 1.392-7.041.001 0 9.401 12.418 10.677 13.81 1.277 1.393 2.205-5.88-3.017-13.268 0 0 4.874 4.216 4.526.503-.348-3.714-3.946-10.213-3.946-10.213s8.588 11.49 8.472 2.205c-.116-9.284-7.08-21.122-7.08-21.122.001 0 7.544-2.205 6.384-3.713-1.161-1.509-6.035-1.277-6.035-1.277s5.454-2.089 8.008-5.106c2.553-3.018 1.392-5.919-1.741-4.99 0 0 3.839-5.107 3.138-5.92-.701-.812-5.344 0-5.344 0 .001 0 4.922-3.969 3.065-7.915-1.856-3.945-7.59-.208-15.134.605 0 0 7.775-3.56-4.294-1.741-5.697.858-11.605.812-11.605.812s8.141-4.758 7.436-6.383c-.705-1.625-11.73 3.017-11.73 3.017s6.963-5.106 3.366-5.57c-3.598-.464-22.283 11.025-22.283 11.025s4.991-4.062 3.946-4.758c-1.044-.697-4.526.58-4.526.58s4.656-5.338 2.669-5.338c-7.775 0-17.218 17.635-34.583 31.682 0 0 1.277-8.24-2.437-8.472-3.714-.232-6.847 7.196-10.91 16.828-4.061 9.632-9.98 17.176-9.98 17.176s2.205-7.66-1.16-5.223c-3.366 2.437-5.107 8.627-11.838 15.629-6.73 7.002-11.334 8.433-11.334 8.433Z" clip-rule="evenodd"/><path fill="#6E9884" fill-rule="evenodd" d="M198.785 28.157h.006-.006Zm.017-.002h.007-.007Zm.016-.002h.008-.008Zm.016-.002h.009-.009Zm.017-.002h.008-.008Zm.016-.002h.009-.009Zm.015-.001.011-.002-.011.002Zm.013-.002.059-.007-.059.007Zm.062-.007.013-.002a.289.289 0 0 1-.013.002Zm.016-.002Zm.015-.002.015-.002-.015.002Zm.016-.002c2.598-.323 5.547-1.382 8.371-2.47-2.825 1.088-5.774 2.148-8.371 2.47Z" clip-rule="evenodd"/><path fill="#3F693E" fill-rule="evenodd" d="M187.253 48.482c-1.161 0-1.945-.13-1.945-.13 6.498-2.09 8.936-5.223 3.829-5.687 0 0 14.507-4.642 14.623-7.892.102-2.843-7.039-3.02-8.825-3.02-.255 0-.401.003-.401.003s6.362-1.53 6.789-2.128c.773-1.083-2.553-1.47-2.553-1.47l.016-.001h.006c.004-.002.007-.002.011-.002h.007l.009-.002h.008l.008-.002h.009a.11.11 0 0 1 .008-.002h.009l.007-.002h.009l.006-.001c.004 0 .007 0 .011-.002h.002l.059-.007h.003l.013-.002h.002l.014-.002h.002l.015-.002c2.598-.322 5.923-.81 8.748-1.9-.995 2.199-4.843 4.436-4.843 4.436s5.631.614 4.525 5.65c-1.105 5.035-12.404 5.884-12.404 5.884s2.333 1.608-1.105 4.31c-2.101 1.65-4.85 1.971-6.672 1.97Z" clip-rule="evenodd"/><path fill="#6E9884" fill-rule="evenodd" d="M198.77 28.158Zm0 0Zm.001 0Z" clip-rule="evenodd"/><path fill="#3F693E" fill-rule="evenodd" d="m198.77 28.159 1.984-1.153c-.704.562-1.94 1.132-1.984 1.152Z" clip-rule="evenodd"/><path fill="#6E9884" fill-rule="evenodd" d="M208.468 96.263c0-2.528-.947-6.825-4.012-11.161 3.065 4.336 4.012 8.633 4.012 11.16Zm-13.047-4.648a.226.226 0 0 0-.017-.014c-2.162-1.838-3.603-3.808-5.144-5.713 1.542 1.905 2.981 3.875 5.144 5.713l.017.014Z" clip-rule="evenodd"/><path fill="#865F31" fill-rule="evenodd" d="M190.26 85.889h-.001v-.001h.001Z" clip-rule="evenodd"/><path fill="#74441F" fill-rule="evenodd" d="M190.258 85.888c-1.022-1.264-2.09-2.5-3.442-3.649-3.393-2.883-9.633-5.339-19.033-5.663-3.134-.108-7.006-.144-10.778-.144-7.543 0-14.681.144-14.681.144s7.138-.144 14.681-.144c3.772 0 7.644.036 10.778.144 9.4.324 15.64 2.78 19.033 5.663 1.352 1.15 2.42 2.385 3.442 3.649Z" clip-rule="evenodd"/><path fill="#6E9884" fill-rule="evenodd" d="M208.411 87.096c.411-.122.654-.549.572-1.471.082.922-.161 1.349-.572 1.471Zm.531-1.825c-.517-3.755-3.907-9.878-3.907-9.878h.001c.022.04 3.391 6.136 3.906 9.879Zm-12.093-.455-.052-.249.052.249ZM213.509 77.782l-.001-.185v-.004.004l.001.185Zm-.001-.203v-.006.006Zm-.001-.02v-.007.007Zm0-.021v-.006.006Zm0-.021v-.007.007Zm0-.02v-.006.005Zm-.001-.023v-.003.003Zm0-.018v-.006.006Zm-.001-.024v-.003.003Zm0-.018v-.005.005Zm0-.023-.001-.002v.002h.001Zm-.001-.02v-.002.002Zm0-.021v-.002.002Zm-.001-.02v-.002.001Zm0-.023Zm-.001-.02Z" clip-rule="evenodd"/><path fill="#3F693E" fill-rule="evenodd" d="M207.783 98.543c-.098 0-.203-.056-.31-.173-1.276-1.392-10.677-13.81-10.677-13.81h.001l.001.007.052.248c.268 1.325 1.399 7.362-.31 7.362-.287 0-.655-.17-1.12-.563l-.016-.013c-2.163-1.838-3.603-3.808-5.145-5.713h-.001c-1.022-1.265-2.09-2.5-3.442-3.65-3.393-2.882-9.633-5.338-19.033-5.662-3.134-.109-7.006-.145-10.778-.145-7.543 0-14.681.145-14.681.145h.001s4.343 2.633 4.341 4.928c0 .039-.002.078-.004.116-.095 1.425-3.049 1.805-5.315 1.886-.656-5.078-1.866-10.385-3.944-16.127.125-.002.249-.003.375-.003 2.07 0 4.318.292 6.406 1.168 6.264 2.63-1.597 4.372-1.597 4.372s14.738 0 15.721-3.134c.17-.54.011-1.002-.366-1.393a5.46 5.46 0 0 0 4.135-4.835c1.431 2.047 3.288 4.082 5.019 4.082l.081-.001c3.498-.131-.886-4.54-.886-4.54s6.509 3.311 12.207 3.906c.231.024.44.036.629.036 4.486 0-2.292-6.5-2.292-6.5 10.677 3.83 16.596 10.329 18.801 12.417-.759-.718-1.958-1.96-3.638-3.434a5.351 5.351 0 0 0-1.735 3.93v.004l-.001.012h.001a5.373 5.373 0 0 0 5.304 5.372H195.766l.006-.001h.029l.005-.001h.017l.013-.001h.017l.004-.001h.016l.015-.001h.002l.015-.001h.001a5.369 5.369 0 0 0 .104-10.72h-.014l-.01-.002h-.02a30.648 30.648 0 0 0-1.432-3.163s3.005 2.132 4.675 2.132c1.086-.001 1.607-.901.373-3.873 4.849 2.647 8.155 3.855 10.163 3.855.59 0 1.069-.105 1.442-.308 1.218 3.36 2.217 7.108 2.314 10.534v.001a.129.129 0 0 1 .001.02l.001.02v.022l.001.019v.022l.001.018v.047l.001.015V77.497l.001.013V77.56l.001.014v.024l.001.185c0 2.53-.678 3.438-1.651 3.438-2.465 0-6.822-5.829-6.822-5.829v.001s3.39 6.123 3.907 9.879c.016.113.029.225.039.334l.002.02c.082.921-.161 1.348-.572 1.47a1 1 0 0 1-.287.039c-1.32 0-3.669-2.032-3.669-2.032s-.001 0 0 0c3.065 4.336 4.011 8.633 4.012 11.16 0 1.096-.177 1.859-.436 2.15-.076.086-.16.13-.249.13Z" clip-rule="evenodd"/><path fill="#6E9884" fill-rule="evenodd" d="M88.123 97.104a33.658 33.658 0 0 0 0 0Zm17.613-4.94Z" clip-rule="evenodd"/><path fill="#865F31" fill-rule="evenodd" d="M140.982 90.011a5.194 5.194 0 0 0 0 0Z" clip-rule="evenodd"/><path fill="#132C30" fill-rule="evenodd" d="M140.514 89.899Z" clip-rule="evenodd"/><path fill="#3F693E" fill-rule="evenodd" d="M88.123 97.105c-.252 0-.505-.003-.758-.009a9.48 9.48 0 0 0-1.255-.94c8.179-.46 6.321-4.976 11.97-7.496 6.828-3.046 9.505-1.374 14.663-2.894 5.158-1.52 1.578-3.353 1.578-3.353s10.458-2.005 10.776-2.96c.317-.953-4.626-1.856-4.626-1.856s2.343-.483 4.671-1.171a2.558 2.558 0 1 0 5.071.47v-.024a2.553 2.553 0 0 0-1.073-2.057c.335-.234.545-.47.578-.7.105-.739-1.419-.94-3.114-.94-2.034 0-4.314.29-4.314.29.001 0 2.205-.394 4.642-3.528 1.415-1.819.992-3.012-.763-3.012-1.268 0-3.231.623-5.698 2.084 3.406-2.672 6.097-4.23 7.788-4.23 1.457 0 2.171 1.16 1.954 3.766 0 0 3.032-1.035 6.839-1.157 2.087 5.746 3.302 11.052 3.959 16.128a30.792 30.792 0 0 1-2.213-.025h-.02l-.008-.001s1.39 1.274 2.541 2.706l.023.257a.167.167 0 0 0 .181.151.164.164 0 0 0 .087-.034c1.035 1.368 1.731 2.79.722 3.329-.22.117-.477.171-.769.171-.178 0-.37-.02-.574-.058a5.348 5.348 0 0 1-.468-.113 9.754 9.754 0 0 1-1.1-.403h-.001c-.004-.003-.009-.004-.013-.006l-.045-.02-.082-.035a.392.392 0 0 0-.024-.01l-.035-.017c-2.854-1.264-6.979-4.019-11.584-5.39a12.985 12.985 0 0 0-3.719-.528c-.959 0-1.885.097-2.761.255-3.935.713-6.828 2.672-6.828 2.672s3.559 2.785 1.393 3.482c-2.037.654-5.578-.401-9.724 2.107a12.596 12.596 0 0 0-.893.59c-1.023.708-2.381 1.417-3.986 2.058a3.31 3.31 0 0 0-6.308 1.81 35.774 35.774 0 0 1-6.68.64Zm64.283-30.581c-1.707-.24-3.114-.3-3.114-.3s1.099-.38 2.348-.961c.198.456.457.88.766 1.261Zm1.693-2.677Zm.015-.012h.001-.001Zm.015-.011.001-.001h-.001Zm.023-.018.002-.001-.002.001Zm.007-.005.002-.002-.002.002Zm.007-.007h.002-.002Zm.007-.005.003-.002-.003.002Zm.008-.006.002-.002-.002.002Zm.007-.006.002-.002-.002.002Zm.006-.005.003-.002-.003.002Zm.004-.002.018-.016-.018.016Zm.019-.016.006-.005-.006.005Zm.007-.006.005-.004-.005.004Zm.007-.005Zm.006-.005.005-.005-.005.005Zm.006-.005c.46-.377.796-.77.903-1.16-.107.39-.443.783-.903 1.16Zm.903-1.16.001-.005-.001.004Zm.001-.007.002-.004-.002.005Zm.002-.005.001-.005-.001.005Zm.001-.005a.256.256 0 0 0 .007-.026l-.007.026Zm.007-.027.001-.004-.001.004Zm.001-.006.001-.004-.001.004Zm.002-.006.001-.004-.001.004Zm.001-.005v-.005.005Zm.001-.006.001-.004-.001.004Zm.001-.006Zm.003-.015.001-.004-.001.004Zm.001-.006.001-.004-.001.004Zm.001-.006.001-.003-.001.003Zm.001-.006.001-.003-.001.003Zm.001-.006v-.003.003Zm.001-.006v-.003.003Zm.001-.005v-.003.003Zm.001-.006.001-.006-.001.006Zm.001-.009v-.002.002Zm.001-.005v-.004.004Zm.001-.006v-.003.003Zm0-.006.001-.003-.001.003Zm.001-.006v-.003.003Zm0-.006.001-.003-.001.003Zm.001-.007v-.002.002Zm.002-.014v-.002.002Zm0-.006v-.002.002Zm.001-.006v-.003.003Zm0-.009v-.002.002Zm.001-.006v-.003.003Zm0-.006v-.003.003Zm0-.006.001-.004-.001.004Zm.001-.004v-.009.009Zm0-.011v-.004.004Zm.001-.006v-.004.004Zm0-.006v-.014.014Zm0-.015v-.005.005Zm0-.006c.003-.49-.307-.929-.761-1.309.454.38.764.82.761 1.309Zm-.764-1.312-.002-.002.002.002Zm-.007-.005c0-.001 0 0 0 0Zm-2.128-1.163c-.738-.289-1.328-.444-1.328-.444s.857-.068 2.014-.311c-.252.23-.481.483-.686.755Zm7.91-.866a5.437 5.437 0 0 0-3.315-1.308c.718-.433 1.338-.97 1.737-1.636 1.319-2.199-2.224-2.465-4.02-2.465-.574 0-.97.027-.97.027 4.326-4.18 4.761-6.46 2.406-6.46-1.372 0-3.691.775-6.738 2.398 0 0 6.684-3.617 9.319-3.617.528 0 .893.145 1.01.493.7 2.088-3.502 5.895-3.502 5.895s.134-.027.489-.027c.711 0 2.307.11 5.488.764 3.929.81-.291 4.617-1.904 5.936Z" clip-rule="evenodd"/><path fill="#1F1B20" fill-rule="evenodd" d="M141.581 90.07c.071 1.52.102 3.028.102 4.53 0 2.27-.071 4.525-.18 6.786a.167.167 0 1 0 .333.016c.11-2.265.18-4.526.18-6.802 0-1.506-.031-3.02-.102-4.546a.167.167 0 1 0-.333.015ZM128.761 50.128c8.425 14.302 11.613 25.736 12.573 36.326a.167.167 0 0 0 .332-.03c-.963-10.636-4.171-22.13-12.617-36.465a.167.167 0 0 0-.288.17ZM159.5 29.368c3.219 10.463 4.399 20.436 4.399 29.435 0 12.34-2.219 22.846-4.437 30.267a90.907 90.907 0 0 1-3.05 8.66 58.08 58.08 0 0 1-1.284 2.889l-.099.198a.166.166 0 1 0 .297.152c.007-.014 8.906-17.407 8.906-42.166 0-9.028-1.183-19.034-4.413-29.533a.167.167 0 1 0-.319.098ZM188.4 47.045c-1.627 15.246-6.063 28.743-10.093 38.427a141.223 141.223 0 0 1-5.336 11.409 98.378 98.378 0 0 1-1.685 3.076c-.201.35-.358.617-.465.796-.106.178-.162.269-.162.269a.167.167 0 0 0 .054.23.166.166 0 0 0 .229-.055c.007-.012 14.525-23.54 17.789-54.116a.166.166 0 1 0-.331-.036Z" clip-rule="evenodd"/><path fill="#D04F29" fill-rule="evenodd" d="M101.39 95.985a3.31 3.31 0 1 1-6.62 0 3.31 3.31 0 0 1 6.62 0Z" clip-rule="evenodd"/><path fill="#C23E22" fill-rule="evenodd" d="M98.08 99.295a3.311 3.311 0 0 1-3.31-3.31c0-.262.033-.515.09-.758a3.31 3.31 0 0 0 3.22 2.552 3.31 3.31 0 0 0 3.219-2.552c.057.243.091.496.091.758a3.31 3.31 0 0 1-3.31 3.31Z" clip-rule="evenodd"/><path fill="#E76F3B" fill-rule="evenodd" d="M98.08 94.362c-.838 0-1.517-.304-1.517-.68 0-.376.679-.68 1.516-.68.838 0 1.517.304 1.517.68 0 .376-.68.68-1.517.68Z" clip-rule="evenodd"/><path fill="#F8B255" fill-rule="evenodd" d="M113.415 79.454a3.31 3.31 0 1 1-6.62 0 3.31 3.31 0 0 1 6.62 0Z" clip-rule="evenodd"/><path fill="#F49C3D" fill-rule="evenodd" d="M110.105 82.764h-.011a3.31 3.31 0 0 1-3.297-3.182c-.002-.043-.002-.086-.002-.128 0-.262.033-.515.091-.759a3.308 3.308 0 0 0 3.219 2.552 3.308 3.308 0 0 0 3.219-2.552c.058.244.091.497.091.759a3.31 3.31 0 0 1-3.31 3.31Z" clip-rule="evenodd"/><path fill="#FCD074" fill-rule="evenodd" d="M110.105 77.831c-.838 0-1.517-.304-1.517-.68 0-.375.679-.68 1.517-.68.837 0 1.516.305 1.516.68 0 .376-.679.68-1.516.68Z" clip-rule="evenodd"/><path fill="#F8B255" fill-rule="evenodd" d="M156.875 57.648c-1.219.735-2.719 1.17-3.905 1.418-.252.23-.482.483-.687.756 1.276.5 2.997 1.396 2.895 2.572-.089 1.043-1.936 2.123-3.537 2.869a5.454 5.454 0 0 0 10.456-2.173 5.45 5.45 0 0 0-5.222-5.443Z" clip-rule="evenodd"/><path fill="#5C7743" fill-rule="evenodd" d="M151.641 65.263c.112-.052.225-.106.338-.161.001 0 0 0 0 0-.113.056-.226.11-.338.161Zm10.456-2.172v-.016.016Zm0-.019v-.014.014Zm0-.018v-.014.014Zm0-.017v-.014.014Zm0-.017-.001-.013.001.013Zm-.001-.016v-.014.014Zm0-.019v-.012.012Zm0-.018v-.01.01Zm-.001-.018v-.008.008Zm0-.018v-.008.008Zm-.001-.035Z" clip-rule="evenodd"/><path fill="#F49C3D" fill-rule="evenodd" d="M156.643 68.545a5.454 5.454 0 0 1-5.002-3.282c.112-.052.225-.105.338-.16a5.424 5.424 0 0 0 2.973.883 5.455 5.455 0 0 0 5.217-7.05 5.432 5.432 0 0 1 1.925 3.96l.001.028v.025l.001.009v.049l.001.013V63.091a5.46 5.46 0 0 1-5.454 5.454Z" clip-rule="evenodd"/><path fill="#F8B255" fill-rule="evenodd" d="M195.964 68.11c1.49 3.894 1.431 6.511-.328 4.845-.759-.719-1.957-1.96-3.638-3.435a5.349 5.349 0 0 0-1.735 3.946 5.373 5.373 0 0 0 10.746 0 5.369 5.369 0 0 0-5.045-5.357Z" clip-rule="evenodd"/><path fill="#B5B87B" fill-rule="evenodd" d="m196.675 70.282-.001-.001a21.47 21.47 0 0 1 .001 0Z" clip-rule="evenodd"/><path fill="#A9A563" fill-rule="evenodd" d="M196.01 68.113h-.002.002Zm-.014 0-.01-.002.01.001ZM195.98 68.11Z" clip-rule="evenodd"/><path fill="#FCD074" fill-rule="evenodd" d="M197.424 70.669c-.194 0-.443-.123-.749-.387a21.477 21.477 0 0 0-.71-2.173h.001l.015.001h.006l.009.002h.015c.64.045 1.247.205 1.806.453.226 1.3.1 2.104-.393 2.104Z" clip-rule="evenodd"/><path fill="#3E5C2E" fill-rule="evenodd" d="M195.636 78.838h-.069H195.653h-.017Zm.022 0h.012-.012Zm.019 0h.01-.01Zm.018 0h.01-.01Zm.019 0h.007-.007Zm.017 0h.007-.007Zm.018 0 .007-.001h-.007Zm.018-.001h.006-.006Zm.017 0h.006a.04.04 0 0 1-.006 0Zm.017-.001h.005-.005Zm.018-.001h.004-.004Zm.017 0h.004-.004Zm.018-.001h.003-.004.001Zm.017-.001h.003-.003Zm.018 0 .002-.001h-.002Zm.017-.002h.001-.001Zm-5.642-5.378v-.003.003Z" clip-rule="evenodd"/><path fill="#F49C3D" fill-rule="evenodd" d="M195.636 78.838h-.069a5.373 5.373 0 0 1-5.304-5.372v-.015a5.319 5.319 0 0 1 .913-2.963c-.002.061-.01.12-.01.183a5.373 5.373 0 0 0 9.833 2.997 5.37 5.37 0 0 1-5.092 5.164H195.888l-.014.002h-.021l-.013.001H195.818a.13.13 0 0 1-.012 0l-.005.001h-.011a.06.06 0 0 1-.006 0h-.011l-.007.001h-.035a.06.06 0 0 1-.01.001h-.085Z" clip-rule="evenodd"/><path fill="#D04F29" fill-rule="evenodd" d="M129.138 74.814c-.824.574-2.404 1.14-3.996 1.612a2.558 2.558 0 1 0 3.996-1.612Z" clip-rule="evenodd"/><path fill="#56613B" fill-rule="evenodd" d="m125.142 76.426.031-.01-.031.01Z" clip-rule="evenodd"/><path fill="#C23E22" fill-rule="evenodd" d="M127.655 79.454a2.558 2.558 0 0 1-2.558-2.558c0-.162.016-.318.045-.47l.032-.01a2.555 2.555 0 0 0 2.154 1.18 2.56 2.56 0 0 0 2.504-2.035c.236.383.377.83.382 1.31v.024a2.559 2.559 0 0 1-2.559 2.559Z" clip-rule="evenodd"/><path fill="#2B5129" fill-rule="evenodd" d="M185.359 48.51c2.058-.66 3.713-1.426 4.864-2.187.575-.381 1.025-.76 1.336-1.132.311-.371.49-.739.491-1.102a1.006 1.006 0 0 0-.194-.596c-.194-.27-.515-.482-.962-.646-.447-.165-1.023-.282-1.742-.348l-.015.166.051.16c.003-.002 3.633-1.163 7.283-2.733 1.826-.786 3.656-1.673 5.046-2.574.695-.451 1.281-.905 1.703-1.358.421-.453.688-.91.707-1.38l.001-.066c0-.384-.124-.73-.339-1.025-.376-.517-1.011-.89-1.768-1.177-2.272-.854-5.712-.924-6.886-.926-.257 0-.404.004-.405.004l.004.167.039.162c.001 0 1.592-.383 3.24-.841.824-.23 1.661-.477 2.324-.707.331-.115.618-.225.841-.328.112-.051.208-.1.287-.15a.689.689 0 0 0 .194-.167.707.707 0 0 0 .147-.413.624.624 0 0 0-.152-.397c-.16-.193-.404-.33-.68-.447-.826-.343-1.978-.474-1.985-.476a.167.167 0 0 0-.039.332c.001 0 .163.018.409.06.37.062.926.177 1.376.348.226.085.424.186.554.29.132.108.184.203.183.29a.379.379 0 0 1-.085.22.402.402 0 0 1-.1.077c-.231.147-.778.359-1.444.575-1.001.326-2.29.68-3.327.95a117.03 117.03 0 0 1-1.822.46.166.166 0 0 0 .044.328s.143-.003.397-.003c.881 0 3.081.044 5.046.432.982.194 1.904.475 2.565.868.331.196.595.418.773.665.178.247.274.517.275.83l-.001.053c-.01.343-.222.742-.617 1.164-.688.74-1.907 1.535-3.342 2.294-2.152 1.14-4.792 2.212-6.891 2.997a98.494 98.494 0 0 1-2.616.937c-.652.222-1.04.346-1.041.347a.168.168 0 0 0-.115.177c.009.079.072.14.151.148.931.084 1.6.26 2.017.489.209.113.354.238.445.366a.67.67 0 0 1 .133.402c.001.246-.13.55-.413.887-.845 1.015-2.995 2.24-6.048 3.217a.167.167 0 0 0 .103.317ZM120.555 69.153c2.451-1.453 4.399-2.063 5.614-2.06.498-.001.867.102 1.099.268.23.167.343.387.346.702.002.434-.248 1.048-.813 1.772-1.206 1.55-2.349 2.417-3.186 2.897-.419.24-.761.383-.997.466a3.456 3.456 0 0 1-.27.084l-.068.016-.019.004a.166.166 0 0 0-.135.19c.013.089.096.151.185.14.001 0 .141-.018.386-.045.733-.082 2.393-.245 3.907-.245.813 0 1.585.048 2.137.176.276.062.495.147.63.241.137.098.183.18.185.286l-.004.047c-.014.128-.145.314-.4.508-.442.34-1.218.7-2.122 1.032-1.357.501-3.008.953-4.316 1.277-.655.163-1.225.294-1.631.385-.405.09-.645.14-.646.14a.167.167 0 0 0 .067.326c.003 0 2.259-.464 4.55-1.134 1.146-.335 2.299-.72 3.19-1.13.446-.204.826-.414 1.111-.632.282-.219.484-.447.528-.725l.007-.094c.001-.236-.137-.432-.329-.56-.29-.197-.714-.307-1.227-.379-.512-.07-1.11-.097-1.73-.097-2.049 0-4.331.291-4.335.292l.022.165.029.164c.032-.004 2.282-.422 4.744-3.59.588-.759.881-1.42.883-1.977a1.148 1.148 0 0 0-.485-.974c-.315-.223-.752-.33-1.293-.33-1.32.002-3.299.638-5.784 2.107a.167.167 0 0 0 .17.287ZM199.427 63.271c.5 1.2.703 2.055.702 2.619 0 .41-.103.656-.253.803-.15.148-.372.22-.668.22-.769.004-1.935-.516-2.882-1.045a20.583 20.583 0 0 1-1.566-.966l-.13-.09a.167.167 0 0 0-.245.213c.817 1.566 1.436 3.064 1.85 4.35.414 1.286.622 2.363.621 3.067.001.31-.042.547-.109.684a.342.342 0 0 1-.104.136.2.2 0 0 1-.123.038c-.138.005-.415-.125-.77-.466-1.096-1.038-3.137-3.195-6.237-5.567a46.539 46.539 0 0 0-12.622-6.886.166.166 0 0 0-.213.1.167.167 0 0 0 .1.214 46.208 46.208 0 0 1 12.532 6.837c3.081 2.357 5.102 4.494 6.211 5.544.384.36.696.551.999.557a.54.54 0 0 0 .318-.1c.137-.1.221-.252.275-.434.053-.184.076-.402.077-.657-.001-.765-.218-1.86-.638-3.168-.42-1.307-1.046-2.821-1.871-4.403l-.148.077-.096.136c.003.002.758.537 1.727 1.075.971.536 2.143 1.082 3.044 1.087.347 0 .669-.086.902-.315.233-.23.353-.578.353-1.041-.001-.641-.221-1.523-.728-2.747a.166.166 0 1 0-.308.128ZM149.371 49.659c3.034-1.619 5.346-2.381 6.66-2.378.442 0 .762.086.957.228.194.143.29.333.294.632.003.463-.277 1.168-.896 2.062-.617.896-1.566 1.985-2.877 3.25a.168.168 0 0 0 .128.287l.265-.014c.168-.006.409-.013.694-.013.754 0 1.822.049 2.684.267.43.107.808.259 1.064.453.256.197.39.416.393.708 0 .21-.076.47-.265.784-.823 1.384-2.702 2.225-4.384 2.696a18.566 18.566 0 0 1-2.893.564c-.163.018-.252.025-.252.025a.166.166 0 0 0-.153.151.165.165 0 0 0 .123.177l.177.05c.399.117 1.402.439 2.295.92.446.239.863.52 1.16.824.299.307.471.629.471.962l-.004.085c-.027.38-.377.833-.925 1.266-.816.652-2.033 1.262-3.041 1.704-.505.22-.957.4-1.283.524-.326.125-.524.193-.524.193a.167.167 0 1 0 .108.315c.004-.002 1.44-.496 2.903-1.227.732-.366 1.471-.79 2.045-1.248.571-.46.996-.948 1.05-1.498l.005-.114c-.002-.52-.302-.965-.716-1.338-.623-.562-1.527-.99-2.28-1.286-.752-.295-1.351-.453-1.355-.455l-.043.162.013.165c.006 0 1.495-.117 3.209-.6 1.713-.486 3.664-1.328 4.581-2.845.209-.35.311-.667.311-.956.002-.41-.212-.741-.525-.974-.471-.353-1.166-.54-1.892-.65a14.212 14.212 0 0 0-2.057-.137c-.58 0-.979.027-.982.027l.011.166.116.12c1.321-1.276 2.284-2.378 2.92-3.3.635-.924.951-1.664.954-2.252.003-.378-.148-.702-.432-.903-.282-.202-.67-.29-1.152-.29-1.429.003-3.755.788-6.816 2.416a.167.167 0 0 0-.069.227c.043.08.144.112.225.068Z" clip-rule="evenodd"/><path fill="#D04F29" fill-rule="evenodd" d="M133.664 49.048a4.758 4.758 0 1 1-9.517 0 4.758 4.758 0 0 1 9.517 0Z" clip-rule="evenodd"/><path fill="#56613B" fill-rule="evenodd" d="M133.664 49.048v-.013.013Zm-9.517 0v-.013.013Z" clip-rule="evenodd"/><path fill="#C23E22" fill-rule="evenodd" d="M128.906 53.806a4.759 4.759 0 0 1-4.759-4.758v-.013c.002-.37.049-.73.131-1.077a4.758 4.758 0 0 0 4.628 3.668 4.757 4.757 0 0 0 4.628-3.668c.081.346.129.706.13 1.077v.013a4.759 4.759 0 0 1-4.758 4.758Z" clip-rule="evenodd"/><path fill="#E76F3B" fill-rule="evenodd" d="M128.906 46.715c-1.204 0-2.18-.437-2.18-.977s.976-.977 2.179-.977c1.205 0 2.18.437 2.18.977s-.975.978-2.179.977Z" clip-rule="evenodd"/><path fill="#D04F29" fill-rule="evenodd" d="M182.021 41.878a5.186 5.186 0 1 1-10.372 0 5.186 5.186 0 0 1 10.372 0Z" clip-rule="evenodd"/><path fill="#56613B" fill-rule="evenodd" d="M176.835 47.064Zm.25-.006Zm3.384-1.48Zm.011-.01Zm.022-.023.016-.016a.217.217 0 0 0-.016.016Zm.033-.033Zm.022-.022.001-.001h-.001Zm1.464-3.612v-.013.013Zm-10.371 0-.001-.014.001.014Z" clip-rule="evenodd"/><path fill="#C23E22" fill-rule="evenodd" d="M176.836 47.063a5.187 5.187 0 0 1-5.187-5.186h.001l-.001-.013c.002-.405.054-.797.143-1.174a5.184 5.184 0 0 0 5.044 3.997 5.184 5.184 0 0 0 5.043-3.997c.089.377.141.77.142 1.174v.013a5.173 5.173 0 0 1-1.463 3.611h-.001l-.022.023-.017.018a.266.266 0 0 1-.016.015l-.003.004-.019.018a.026.026 0 0 1-.005.005l-.006.006a5.169 5.169 0 0 1-3.383 1.48l-.021.001a5.08 5.08 0 0 1-.229.005Z" clip-rule="evenodd"/><path fill="#E76F3B" fill-rule="evenodd" d="M176.835 39.336c-1.313 0-2.376-.477-2.376-1.066 0-.588 1.063-1.065 2.376-1.065 1.312 0 2.376.477 2.376 1.065 0 .589-1.064 1.066-2.376 1.066Z" clip-rule="evenodd"/><path fill="#D04F29" fill-rule="evenodd" d="M77.306 99.476s2.553 5.803 3.636 5.416c1.084-.387 1.393-5.416 1.393-5.416s5.283.392 5.737-1.003c.453-1.395-4.267-3.593-4.267-3.593s2.398-5.539 1.16-6.003c-1.237-.465-5.029 2.475-5.029 2.475s-1.547-3.481-2.63-3.095c-1.083.387-1.16 6.623-1.16 6.623s-3.327 4.828-2.786 5.911c.542 1.083 3.946-1.315 3.946-1.315Z" clip-rule="evenodd"/><path fill="#948E7E" fill-rule="evenodd" d="M81.148 104.756c.918-.896 1.187-5.28 1.187-5.28s.685.051 1.582.051c.686 0 1.496-.03 2.22-.134-.724.104-1.534.134-2.22.134-.897 0-1.582-.05-1.582-.05s-.27 4.383-1.187 5.279Zm-2.348-2.28c-.81-1.446-1.494-3-1.494-3s-2.265 1.597-3.394 1.597c1.129 0 3.394-1.597 3.394-1.597s.684 1.554 1.494 3Zm-5.441-1.688-.001-.002.001.002Zm-.002-.003v-.002.002Zm-.001-.004-.001-.001v.001Zm-.002-.004v-.001.001Zm12.787-1.385h.006-.006Zm1.944-1.27v-.001Zm0-.004v-.001.001Zm0-.003c-.072-.325-.344-.674-.72-1.02.376.346.648.695.72 1.02Z" clip-rule="evenodd"/><path fill="#56613B" fill-rule="evenodd" d="M86.11 96.155Z" clip-rule="evenodd"/><path fill="#3A4B28" fill-rule="evenodd" d="M87.365 97.096a9.433 9.433 0 0 0-1.254-.94s-.001 0 0 0c.454.292.9.614 1.254.94Z" clip-rule="evenodd"/><path fill="#C23E22" fill-rule="evenodd" d="M80.833 104.911c-.528-.001-1.329-1.177-2.033-2.436-.81-1.445-1.494-2.999-1.494-2.999s-2.266 1.597-3.394 1.597a.864.864 0 0 1-.264-.038.476.476 0 0 1-.288-.244l-.001-.003-.001-.002v-.001l-.002-.002v-.002l-.001-.001-.002-.003v-.001c-.07-.153-.065-.378-.008-.649 1.619-.508 4.457-4.143 4.457-4.143s1.86 2.605 3.109 2.605a.78.78 0 0 0 .269-.046c1.227-.45-.479-4.182-.479-4.182s.836.763 2.604.763c.271 0 .564-.018.878-.06.261.132.635.326 1.05.562l.004.002c.28.16.579.337.873.527.455.293.901.615 1.255.94.376.346.648.695.719 1.02v.003l.001.003a.67.67 0 0 1-.013.352c-.166.508-.97.779-1.925.918l-.006.001h-.004c-.725.105-1.534.135-2.22.135-.897 0-1.582-.05-1.582-.05s-.27 4.383-1.187 5.279a.574.574 0 0 1-.206.136.337.337 0 0 1-.109.019Z" clip-rule="evenodd"/><path fill="#FEFEFE" fill-rule="evenodd" d="M236.666 93.002a1.045 1.045 0 1 1-2.09 0 1.045 1.045 0 0 1 2.09 0ZM68.517 104.894a2.858 2.858 0 1 1-5.716 0 2.858 2.858 0 0 1 5.716 0ZM88.75 63.741a2.277 2.277 0 1 1-4.554 0 2.277 2.277 0 0 1 4.554 0Z" clip-rule="evenodd"/><path fill="#A04E24" fill-rule="evenodd" d="M122.968 134.115a2.277 2.277 0 1 1-4.554 0 2.277 2.277 0 0 1 4.554 0Z" clip-rule="evenodd"/><path fill="#FEFEFE" fill-rule="evenodd" d="M235.961 138.099a1.384 1.384 0 1 1-2.768 0 1.384 1.384 0 0 1 2.768 0ZM217.495 108.747a2.985 2.985 0 1 1-5.97 0 2.985 2.985 0 0 1 5.97 0ZM111.106 39.335a1.001 1.001 0 1 1-2.002.001 1.001 1.001 0 0 1 2.002 0ZM181.944 60.537a2.26 2.26 0 1 1-4.52 0 2.26 2.26 0 0 1 4.52 0ZM60.826 63.571v3.263a.222.222 0 1 0 .445 0v-3.263a.222.222 0 1 0-.445 0ZM60.826 69.384v3.264a.223.223 0 0 0 .445 0v-3.264a.222.222 0 1 0-.445 0ZM56.51 68.331h3.264a.222.222 0 1 0 0-.444H56.51a.222.222 0 1 0 0 .444ZM62.324 68.331h3.264a.222.222 0 1 0 0-.444h-3.264a.222.222 0 0 0 0 .444ZM222.261 118.87v3.263a.222.222 0 1 0 .445 0v-3.263a.222.222 0 1 0-.445 0ZM222.261 124.682v3.264a.222.222 0 0 0 .445 0v-3.264a.223.223 0 0 0-.445 0ZM217.944 123.63h3.264a.221.221 0 1 0 0-.444h-3.264a.221.221 0 1 0 0 .444ZM223.758 123.63h3.263a.221.221 0 1 0 0-.444h-3.263a.222.222 0 1 0 0 .444ZM238.363 67.738v2.003a.222.222 0 1 0 .445 0v-2.003a.223.223 0 0 0-.445 0ZM238.363 72.29v2.004a.222.222 0 0 0 .445 0V72.29a.223.223 0 0 0-.445 0ZM235.307 71.239h2.003a.223.223 0 1 0 0-.445h-2.003a.223.223 0 0 0 0 .445ZM239.859 71.239h2.003a.222.222 0 1 0 0-.445h-2.003a.222.222 0 1 0 0 .445ZM144.68 38.6v2.003a.222.222 0 1 0 .444 0V38.6a.222.222 0 1 0-.444 0ZM144.68 43.153v2.003a.222.222 0 1 0 .444 0v-2.003a.222.222 0 1 0-.444 0ZM141.625 42.1h2.002a.222.222 0 1 0 0-.445h-2.002a.223.223 0 1 0 0 .445ZM146.178 42.1h2.002a.223.223 0 1 0 0-.445h-2.002a.223.223 0 1 0 0 .445ZM66.764 121.828v2.003a.222.222 0 0 0 .444 0v-2.003a.223.223 0 1 0-.444 0ZM66.764 126.381v2.002a.223.223 0 0 0 .444.001v-2.003a.223.223 0 1 0-.444 0ZM63.708 125.329h2.002a.223.223 0 0 0 0-.445h-2.002a.223.223 0 0 0 0 .445ZM68.26 125.329h2.003a.223.223 0 0 0 0-.445H68.26a.223.223 0 0 0 0 .445Z" clip-rule="evenodd"/><path fill="#A1C6BF" d="M93.947 166.792c0 2.952 1.463 5.596 4.04 6.888 2.422 1.216 5.649 1.216 8.079-.001 2.395-1.199 4.032-3.938 4.032-6.89 0-4.516-3.555-8.206-8.075-8.205-4.543.001-8.076 3.664-8.076 8.208Zm8.227-6.08c-.812 2.8-3.234 6.904-5 8.916h4.188l.009 1.219c-.009.691-.55 1.409-1.338 1.4a3.836 3.836 0 0 1-3.287-1.953c-.603-1.039-1.04-1.859-1.04-3.503 0-3.589 2.845-6.564 6.464-6.565 3.58 0 6.466 3.061 6.466 6.563 0 1.644-.756 3.063-1.005 3.475-.884 1.454-2.231 1.968-3.272 1.982-.717.008-1.38-.528-1.38-1.403l-.001-1.216h4.254c-1.832-2.012-4.253-6.115-5.058-8.915ZM166.593 166.792c0 2.952 1.463 5.596 4.039 6.888 2.423 1.216 5.65 1.216 8.079-.001 2.395-1.199 4.033-3.938 4.033-6.89 0-4.516-3.556-8.206-8.075-8.205-4.543.001-8.076 3.664-8.076 8.208Zm8.226-6.08c-.812 2.8-3.234 6.904-5.001 8.916h4.189l.009 1.219c-.009.691-.549 1.409-1.337 1.4a3.836 3.836 0 0 1-3.288-1.953c-.602-1.039-1.04-1.859-1.04-3.503 0-3.589 2.846-6.564 6.465-6.565 3.579 0 6.465 3.061 6.465 6.563 0 1.644-.756 3.063-1.005 3.475-.883 1.454-2.23 1.968-3.272 1.982-.717.008-1.38-.528-1.38-1.403v-1.216h4.253c-1.831-2.012-4.253-6.115-5.058-8.915Z"/><path fill="#FEFEFE" fill-rule="evenodd" d="M137.405 99.593a.596.596 0 1 1-1.191-.001.596.596 0 0 1 1.191 0ZM131.713 126.994a.596.596 0 1 1-1.192 0 .596.596 0 0 1 1.192 0ZM150.709 109.513a.596.596 0 1 1-1.192 0 .596.596 0 0 1 1.192 0Z" clip-rule="evenodd"/><path fill="#E63535" fill-rule="evenodd" d="M134.322 111.449c-5.181-.018-11.367 8.906-11.158 15.334 5.651 3.543 17.772 3.411 23.203 0-.21-6.428-6.863-15.316-12.045-15.334Z" clip-rule="evenodd"/><path fill="#293843" fill-rule="evenodd" d="M123.285 124.799c6.117 3.143 16.703 3.131 22.847.053a23.21 23.21 0 0 0-.504-1.852c-5.455 3.122-16.535 3.121-21.928-.119-.184.711-.308 1.29-.415 1.918Z" clip-rule="evenodd"/><path fill="#FDD173" fill-rule="evenodd" d="m127.016 124.327-.001.001a.165.165 0 0 0-.069.098l-.381 1.511a.162.162 0 0 0 .014.119v.001c.019.034.051.06.091.07l2.262.571a.15.15 0 0 0 .113-.018v-.001a.168.168 0 0 0 .069-.098l.382-1.511a.172.172 0 0 0-.014-.119l-.001-.001a.144.144 0 0 0-.091-.07l-2.261-.571a.147.147 0 0 0-.113.018Zm2.606-.363a1 1 0 0 1 .629.493l.001.002c.133.239.179.535.105.828l-.382 1.511a1.137 1.137 0 0 1-.485.68l-.002.001a1.003 1.003 0 0 1-.788.135l-2.262-.571a1.003 1.003 0 0 1-.629-.493l-.001-.002a1.134 1.134 0 0 1-.105-.828l.382-1.512c.074-.293.254-.531.485-.679l.002-.001a1 1 0 0 1 .788-.135l2.262.571Z" clip-rule="evenodd"/><path fill="#363637" fill-rule="evenodd" d="M118.398 110.996c-.526-.475-1.27-.519-1.445.194-.222.902.144 2.041.468 2.991.488 1.433 1.137 2.863 1.866 4.223l-.003.035c.083 1.047 2.491 6.346 3.647 4.537.685-1.072.236-2.348-.304-3.672-.715-1.749-1.336-3.629-2.238-5.3-.535-.996-1.161-2.262-1.991-3.008ZM150.537 112.29c-.59-1.553-2.342-.571-3.143.2-1.738 1.675-2.541 4.857-3.11 7.091-.626 2.464-1.711 4.831-2.287 7.309-.149.016-.288.105-.328.278-.298 1.302-1.497 4.299.045 5.311 1.119.735 2.29-.567 2.965-1.329 3.132-3.539 4.852-8.312 5.552-12.918.275-1.804.994-4.133.306-5.942Z" clip-rule="evenodd"/><path fill="#0F539D" fill-rule="evenodd" d="m151.959 93.457.829-.031c-.279.01-.554.022-.827.031h-.002Zm.835-.032.053-.001-.053.001Z" clip-rule="evenodd"/><path fill="#FEFEFE" fill-rule="evenodd" d="M155.759 94.402c.251 2.728 4.141 1.037 3.004-.583 1.216-.38 2.151-2.977-.483-2.697.986-1.502-1.844-2.979-2.328-.498-1.157-1.806-3.022.278-1.801 1.532-1.22.975-.577 4.076 1.608 2.246Z" clip-rule="evenodd"/><path fill="#E3F1FC" fill-rule="evenodd" d="M140.418 95.952c7.403 3.819 14.354 16.572 7.172 13.77 1.822 6.672-3.477 6.903-13.231-1.905-7.403-3.819-18.31-3.835-9.02-9.808-4.625-2.765 7.675-5.875 15.079-2.057Z" clip-rule="evenodd"/><path fill="#F5C8B3" fill-rule="evenodd" d="M141.191 94.643c-5.284-2.575-12.021-.214-14.329 4.515-2.307 4.729.106 10.65 5.39 13.225 5.283 2.574 11.437.828 13.744-3.901 2.308-4.728.479-11.264-4.805-13.839Z" clip-rule="evenodd"/><path fill="#FEFEFE" fill-rule="evenodd" d="M133.826 104.711c-6.694-7.578-12.242-1.977-7.49-.402-9.338 2.561-8.99 9.251-.036 7.87-4.607 4.579 2.673 7.782 5.172 3.061 1.565 5.401 9.552 7.655 7.773.743 3.201 4.111 7.963 1.246 3.621-3.885 6.267 1.59-2.304-8.359-9.04-7.387Z" clip-rule="evenodd"/><path fill="#F08689" fill-rule="evenodd" d="M136.484 99.556a2.9 2.9 0 1 0-2.659 5.156 2.9 2.9 0 0 0 2.659-5.156Z" clip-rule="evenodd"/><path fill="#FEFEFE" fill-rule="evenodd" d="M134.708 95.317c1.512.105 2.697.77 2.647 1.486-.049.716-1.313-.102-2.825-.207-1.512-.105-2.698.544-2.649-.173.05-.716 1.316-1.211 2.827-1.106ZM142.772 99.786c-.911-1.211-2.114-1.843-2.688-1.41-.574.43.801 1.045 1.712 2.256.911 1.211 1.014 2.559 1.587 2.128.574-.432.3-1.763-.611-2.974Z" clip-rule="evenodd"/><path fill="#F7C1B8" fill-rule="evenodd" d="M134.987 99.863a.787.787 0 1 0-.721 1.398.787.787 0 0 0 .721-1.398Z" clip-rule="evenodd"/><path fill="#E63535" fill-rule="evenodd" d="M133.332 92.135c2.765-4.17 13.868-7.89 23.042-.449.535.434.756 1.075-.315.996-7.1-.519-1.089 7.756-8.148 13.332-1.499-9.383-9.902-13.362-14.579-13.879Z" clip-rule="evenodd"/><path fill="#E3F1FC" fill-rule="evenodd" d="M134.959 112.55c.931 6.052 5.268 4.275 3.911-.504.498 3.31-2.86 3.996-3.911.504ZM130.793 109.036c-5.287 1.839-6.134-2.767-1.531-3.635-3.089 1.132-1.861 4.362 1.531 3.635Z" clip-rule="evenodd"/><path fill="#E3F1FC" fill-rule="evenodd" d="M130.811 111.673c-4.264 3.343-6.685-.719-2.649-2.922-2.464 2.13-.244 4.758 2.649 2.922ZM136.53 110.069c-1.145 5.692-5.387 3.7-3.875-.731-.487 3.224 2.814 4.159 3.875.731ZM146.199 100.33c-.625 2.308-.353 5.396 1.078 6.06 1.431.665 1.214-3.776-1.078-6.06Z" clip-rule="evenodd"/><path fill="#F5C8B3" fill-rule="evenodd" d="M148.514 105.913c-.638-.631-1.898-.392-2.815.534-.916.926-1.142 2.188-.504 2.82.638.632 1.898.393 2.814-.533.917-.926 1.143-2.189.505-2.821Z" clip-rule="evenodd"/><path fill="#E3F1FC" fill-rule="evenodd" d="M133.722 94.117c-2.522.818-4.92 2.45-5.659 3.213-1.393-.74 2.455-3.666 5.659-3.213Z" clip-rule="evenodd"/><path fill="#FEFEFE" fill-rule="evenodd" d="M131.923 91.82c.38-1.825 2.826-1.247 3.846.775.417-3.28 9.272.335 8.533 3.374 3.017-.009 5.751 2.525 3.819 3.368 3.126 1.69 3.638 4.569 2.391 5.359-1.71 1.083-4.576.345-4.292-3.546-1.241 1.914-3.985-1.785-3.432-3.37-.882.608-7.177-1.23-7.979-4.067-1.507 1.697-5.848 1.763-4.576.546-3.288.996-3.086-.117-2.831-1.313.219-1.022 1.672-2.005 4.521-1.127Z" clip-rule="evenodd"/><path fill="#F08689" fill-rule="evenodd" d="M133.39 104.882c-.328-.34-.9-.178-1.278.361-.379.54-.42 1.253-.092 1.594.329.34.901.179 1.279-.361.379-.54.42-1.253.091-1.594Z" clip-rule="evenodd"/><path fill="#293843" fill-rule="evenodd" d="M139.553 101.98a.184.184 0 0 0 .356-.093c-.078-.3-.339-.574-.668-.752-.312-.168-.694-.254-1.044-.192a.183.183 0 0 0 .063.361c.264-.047.559.022.806.155.246.132.436.323.487.521ZM132.778 98.03a.184.184 0 1 0 .089.357c.222-.055.474-.007.706.117.237.128.451.337.59.6a.183.183 0 1 0 .324-.17 1.827 1.827 0 0 0-.74-.754c-.309-.167-.654-.227-.969-.15Z" clip-rule="evenodd"/><path fill="#AD2C2D" fill-rule="evenodd" d="M131.819 116.713c-2.464.293-4.419.822-6.989-.364-.973.576-1.626 1.423-1.807 2.597 2.903 1.376 6.327 2.244 8.86 1.884 3.38-.481 3.437-4.534-.064-4.117Z" clip-rule="evenodd"/><path fill="#293843" fill-rule="evenodd" d="M124.933 115.215c-.914-1.712-2.601-2.093-2.248-.712-1.421-.865-2.952.025-2.861 1.429.08 1.226 1.335 2.332 3.224 2.612 1.457.215 3.252-.768 1.885-3.329Z" clip-rule="evenodd"/><path fill="#FEFEFE" fill-rule="evenodd" d="M125.475 117.377c.649.381.061 1.072-.864 1.044-.245 2.176-2.599 1.156-1.588.525-1.258.172-1.369-.973-.109-1.392-.655-.309.141-1.237 1.235-1.235.159-1.169 1.652-1.578 1.505-.251.575-.437 1.362 1.128-.179 1.309Z" clip-rule="evenodd"/><path fill="#363637" fill-rule="evenodd" stroke="#363637" stroke-miterlimit="22.926" stroke-width=".637" d="M119.011 117.2c-.16-.078-.3.078-.721.486-.422.409-1.125 1.07-1.496 1.445-.371.376-.41.466-.518.73-.107.265-.285.703-.457 1.153-.172.451-.34.913-.424 1.145-.084.233-.085.235-.046.196.039-.039.119-.119.658-.643.54-.524 1.54-1.491 2.175-2.171.636-.681.906-1.074 1.07-1.3.164-.225.222-.283.16-.467-.061-.185-.241-.496-.401-.574Z" clip-rule="evenodd"/><path fill="#D04F29" fill-rule="evenodd" stroke="#D04F29" stroke-miterlimit="22.926" stroke-width=".637" d="M121.692 127.173c.086-.369.684-.369 5.255-.369h17.45c4.336 0 4.467 0 4.508.147.041.148-.008.443-.553 1.181s-1.586 1.919-2.267 2.931c-.68 1.013-1 1.857-1.664 2.292-.664.434-1.672.459-2.652.106-.98-.352-1.931-1.082-2.726-1.639-.795-.558-1.435-.943-2.55-1.07-1.114-.127-2.705.004-5.123-.242-2.419-.246-5.665-.869-7.501-1.55-1.837-.68-2.263-1.418-2.177-1.787Z" clip-rule="evenodd"/><path fill="url(#a)" fill-rule="evenodd" d="M10.36 215.077c43.507 23.32 109.422-.055 68.573-31.286-40.848-31.23-94.217 17.541-68.572 31.286Z" clip-rule="evenodd"/><path fill="url(#b)" fill-rule="evenodd" d="M212.28 216.403c30.57 16.386 76.887-.038 48.183-21.983-28.702-21.945-66.203 12.326-48.183 21.983Z" clip-rule="evenodd"/><path fill="url(#c)" fill-rule="evenodd" d="M78.11 209.28c-11.78 13.543 23.363 23.586 33.665 11.108 10.301-12.477-24.208-21.98-33.664-11.108Z" clip-rule="evenodd"/><defs><linearGradient id="a" x1="60" x2="86.016" y1="168" y2="223.934" gradientUnits="userSpaceOnUse"><stop stop-color="#fff"/><stop offset="1" stop-color="#E1F9F6"/></linearGradient><linearGradient id="b" x1="229" x2="259" y1="193" y2="225" gradientUnits="userSpaceOnUse"><stop stop-color="#fff"/><stop offset="1" stop-color="#DBF7F4"/></linearGradient><linearGradient id="c" x1="75" x2="114" y1="187" y2="227" gradientUnits="userSpaceOnUse"><stop stop-color="#fff"/><stop offset="1" stop-color="#EBFBF9"/></linearGradient></defs></svg>