<svg width="25" height="24" viewBox="0 0 25 24" fill="none" xmlns="http://www.w3.org/2000/svg">
<g clip-path="url(#clip0_1301_11116)">
<rect x="1.81836" y="1" width="22" height="22" rx="11" stroke="white" stroke-width="2"/>
<path d="M10.3094 8.8817C10.6305 8.72469 11.2014 8.71755 11.8723 8.72469C12.3932 8.72826 12.5431 8.76037 12.7465 8.81033C13.3638 8.9602 13.1533 9.53112 13.1533 10.912C13.1533 11.3509 13.0748 11.9718 13.3923 12.1788C13.5279 12.268 13.8669 12.1895 14.7019 10.7693C15.098 10.0949 15.3977 9.30275 15.3977 9.30275C15.3977 9.30275 15.4619 9.16002 15.5618 9.09936C15.6653 9.0387 15.8045 9.05654 15.8045 9.05654L17.685 9.04584C17.685 9.04584 18.2487 8.97804 18.3415 9.23138C18.4379 9.50257 18.131 10.127 17.3638 11.1511C16.1007 12.8318 15.9615 12.6748 17.0106 13.6453C18.0097 14.5731 18.2166 15.0262 18.2487 15.0798C18.6627 15.7684 17.792 15.822 17.792 15.822L16.1221 15.8469C16.1221 15.8469 15.7617 15.9183 15.2871 15.5936C14.6626 15.1654 14.0775 14.0521 13.6171 14.1948C13.1533 14.3447 13.1675 15.3474 13.1675 15.3474C13.1675 15.3474 13.1711 15.5615 13.0641 15.6757C12.9499 15.797 12.7251 15.822 12.7251 15.822H11.9757C11.9757 15.822 10.3272 15.9219 8.87493 14.4089C7.29063 12.7604 5.89187 9.4883 5.89187 9.4883C5.89187 9.4883 5.8098 9.27777 5.89901 9.17072C5.99535 9.05654 6.26297 9.04584 6.26297 9.04584L8.05067 9.03513C8.05067 9.03513 8.21837 9.06368 8.3397 9.15288C8.43961 9.22425 8.49313 9.35984 8.49313 9.35984C8.49313 9.35984 8.78216 10.0913 9.16396 10.755C9.9133 12.0432 10.2594 12.3251 10.5128 12.1859C10.8803 11.9825 10.7732 10.3625 10.7732 10.3625C10.7732 10.3625 10.7804 9.77376 10.5877 9.51328C10.4378 9.30989 10.1559 9.24923 10.031 9.23138C9.93114 9.22068 10.0953 8.98517 10.3094 8.8817Z" fill="white"/>
</g>
<defs>
<clipPath id="clip0_1301_11116">
<rect width="24" height="24" fill="white" transform="translate(0.818359)"/>
</clipPath>
</defs>
</svg>
