<svg xmlns="http://www.w3.org/2000/svg" width="1920" height="791" fill="none"><path fill="url(#a)" d="M-410.993 923.233c0 172.217 315.863 272.557 639.226 272.557s586.789-19.35 575.615-256.067c0-172.216-290.453-364.223-613.816-364.223-323.364 0-601.025 175.516-601.025 347.733Z"/><path fill="url(#b)" d="M1171.92 943.605c0 165.055 230.4 261.225 514.32 261.225 283.93 0 543.97-34.35 534.16-261.225 0-165.059-274.13-336.142-558.05-336.142-283.93 0-490.43 171.083-490.43 336.142Z"/><path fill="url(#c)" d="M118.456 979.331c0 142.899 417.167 226.159 844.24 226.159 427.074 0 818.224-29.74 803.464-226.159 0-142.899-412.33-291.015-839.406-291.015-427.073 0-808.298 148.116-808.298 291.015Z"/><path fill="#FEFEFE" fill-rule="evenodd" d="M1492.39 521.55c-9.27-3.18-21.53 5.216-12.55 10.303 8.98 5.087 18-8.429 12.55-10.303ZM1477.23 513.859c-1.22 3.51 6.7 4.198 7.66 1.804.96-2.393-6.49-5.178-7.66-1.804Z" clip-rule="evenodd"/><g filter="url(#d)"><path fill="#874118" d="M1560.39 506.005c6.52 4.822 6.51-3.71 5.21-5.316-5.38-6.65-18.99 2.555-16.43 14.105 2.58 11.506 14.65 5.913 14.65 5.913s.65-2.454-.34-1.782c-6.8 3.182-11.02.213-11-5.058.02-6.415 8.71-14.819 11-12.19 1.18 1.347-3.09 4.328-3.09 4.328Zm23.14 2.921c1.86-2.521-.3-4.525-2.86-5.155-2.25-.556-4.84-.83-8.58 2.053-5.16 3.955-6.02 12.457-4.67 15.543 4.79 10.172 17.47-1.418 17.27-7.109 3.34-.322 3.09-1.898 3.09-1.898-3.79-.292-5.2-3.118-5.2-3.118l-4.1.82c1.88 1.108 2.77 6.052-1.08 11.246-3.99 5.346-11.33 1.65-5.41-7.848 5.64-9.066 11.54-4.534 11.54-4.534Zm4.73 1.121c.08.206.14.173.22.378 2.13-.805 3.91-1.144 3.12 2.055-.74 2.983-6.39 16.401-6.39 16.401a26.37 26.37 0 0 1 3.58 2.031c2.13-3.418 2.34-8.916 8.58-8.705 3.14-.095-.82 11.493 1.83 13.571 4.41 2.786 8.67-1.848 8.67-1.848l-.14-.54s-1.85 1.193-3.84.291c-4.62-3.39 2.57-11.887-3.35-13.535-1.59-.255-2.92-.262-3.88-.27 1.42-2.769 4.78-5.975 7.16-8.001 6.34-5.405 5.1.527 5.08.613 2.05 4.726 9.31-2.378.51-4.461-6.46-1.549-12.02 7.213-15.56 11.888 1.79-5.2 3.58-8.747 1.54-10.491-2.79-2.844-7.13.623-7.13.623Zm10.83 46.068s4.63 3.163 4.77 1.867c1.13-12.747 7.81-26.233 11.94-34.02 3.07-5.754 8.32-6.567 9.15-3.793.18.55.14 1.824-.16 3.445-2.85.948-5.62 2.283-7.09 3.616-2.73 2.491-5.45 7.92-2.06 9.444 2.43 1.107 7.69.067 11.44-7.676.81-1.773 1.45-3.449 1.82-4.962 1.44-.425 2.46-.633 2.46-.633l.38-1.189c-.73.002-1.63.101-2.55.288.61-3.566-.16-6.232-1.93-7.588-3.92-1.977-8.31 1.847-8.31 1.847l.29-2.636-3.77-1.664-16.38 43.654Zm18.76-26.143c1.18-1.817 3.8-3.325 6.4-4.38-.81 2.735-2.27 5.86-4.33 7.691-4.28 3.759-3.94-.422-2.07-3.311Zm28.88-5.432c1.86-2.521-.31-4.524-2.86-5.155-2.25-.556-4.85-.83-8.59 2.053-5.15 3.955-6.01 12.457-4.66 15.543 4.78 10.172 17.47-1.417 17.27-7.109 3.33-.321 3.08-1.898 3.08-1.898-3.78-.292-5.2-3.118-5.2-3.118l-4.1.821c1.88 1.107 2.77 6.051-1.08 11.246-3.98 5.345-11.33 1.649-5.4-7.849 5.63-9.065 11.54-4.534 11.54-4.534Zm15.4-3.853c.08-.67 7.18-15.474 11.14-14.221 3.7 1.19-2.12 12.275-11.14 14.221Zm-12.43-4.082c-.48-.485-1.38 2.963-.75 3.393 2.42 1.7 4.16 1.901 6.92 2.077-5.92 13.354-7.72 29.192 4.59 25.261 2.63-.817 5.19-3.534 6.76-5.623 2.31-3.052 2.95-7.298 2.68-9.933 1.63-.101 3.01-1.228 3.01-1.228l-.44-.798c-.99.672-1.99.61-2.89.343-.99-3.227-3.69-3.987-6.77-1.948-1.97 1.301.2 4.222 2.47 3.406 0 0 .48 4.751-.95 7.93-2.63 5.818-6.19 9.067-8.21 5.907-3.41-5.337 5.31-22.77 5.31-22.77 6.43.167 19.21-8.28 16.04-14.795-1.81-3.797-7.8-4.267-11.12-.867-3.61 3.649-6.95 7.686-9.7 13.428-1.97-.351-3.74-.465-6.95-3.783Zm41.1 35.75c-.04-.238-.09-.205-.18-.41-2.2.556-3.99.755-2.9-2.369 1.04-2.908 7.89-15.389 7.89-15.389-1.63-1.044-3.03-3.362-3.03-3.362-2.68 2.869-11.43 17.494-14.19 16.216-1.3-.321.15-3.954 1.42-7.445 1.64-4.411 4.61-10.283 2.52-11.855-3.63-2.961-6.95.99-7.62 1.284l.48.668s1.77-1.582 3.65-.474c.53.636-1.8 5.794-3.51 10.507-1.94 5.254-5.07 10.857.39 11.426 3.48 1.136 11.97-10.205 11.97-10.205-1.32 2.196-4.47 7.885-2.78 11.466 2.49 3.094 5.89-.058 5.89-.058Zm28.67 11.946c-3.04-.889-5.67-2.502-11.04-3.276-11.56-1.666-12.95 6.935-12.95 6.935 3.29-1.251 7.33-3.875 23.83-.624 3.99.389 5.64-5.167 6.88-6.099.26-.119.42-.217.42-.217-.03-.238-.01-.507-.1-.712-2.2.556-5.97.587-4.88-2.537 1.04-2.908 7.89-15.389 7.89-15.389-1.63-1.043-3.03-3.362-3.03-3.362-2.95 2.481-11.68 17.203-14.17 16.313-1.3-.32-1.17-3.453.11-6.945 3.75-7.743 5.12-10.155 5.12-10.155-1.62-1.043-3.7-2.29-3.7-2.29-2.95 2.481-10.09 16.68-12.57 15.79-1.3-.32-.29-3.099.98-6.59 1.64-4.411 4.61-10.284 2.52-11.855-3.63-2.961-6.89 1.692-7.62 1.284l.48.668s1.77-1.582 3.65-.474c.53.636-1.8 5.794-3.51 10.507-1.94 5.254-5.07 10.857.39 11.426 3.35 1.103 11.42-9.47 11.91-10.13-1.67 2.662-5.32 10.566-.21 13.112 3.99 1.124 10.47-8.559 11.57-10.258-1.4 2.358-4.25 7.755-2.62 11.185 1.41 1.725 3.72 1.654 5.43 1.25-.95 1.234-2.19 3.084-4.78 2.443Z"/></g><g filter="url(#e)"><path fill="#E42032" d="M1710.01 477.944c1.14.419 3.68.748 6.2.594a9.178 9.178 0 0 0-1.22-1.485c-2.28-2.6-11.56-6.99-11.88-4.303-.62 2.566 3.97 4.486 6.9 5.194Zm-15.57 12.722c.73-1.634 3.09-2.494 10.3.012 2.91.989 5.32 2.241 7.39 3.742 2.78-.853 5.07-2.443 5.93-4.618 1.42-4.279.62-6.711-.71-9.464l-1.61.136c-7.4.64-14.13-2.893-16.05-5.597-1.85-2.592.64-4.992 5.81-4.313 4.44.596 9.34 2.783 13.2 7.719 2.35-.433 4.09-1.536 4.1-3.536.13-4.685-8.86-5.381-8.86-5.381l-.1-.168c7.03-.255 9.91 3.015 10.43 4.808.54 1.703-.05 4.516-4.32 5.818 5.29 6.521 2.19 12.251.83 13.541-1.22 1.661-3.22 2.844-5.55 3.615 3.18 3.2 5.18 6.97 6.54 11.015 3.65 9.937-4.91 16.349-4.91 16.349s-10.67 10-24.85 1.614c-13.91-8.702-7.99-17.419-7.99-17.419 2.62 13.786 21.05 20.387 28.94 10.24 3.51-5.06 3.4-10.091 2.25-14.037-1.2-2.72-2.45-5.025-3.95-6.912-8.41 1.063-18.42-1.928-16.82-7.164Zm7.63 3.751c2.04.636 4.32.855 6.47.659-1.63-1.347-3.48-2.367-5.69-3.092-1.59-.527-4.48-.797-4.87-.176-.32.923 2.27 2.072 4.09 2.609Z"/></g><g filter="url(#f)"><path fill="#874118" d="M1543.05 440.754c-.1 2.819 2.85 2.952 3.77 1.07.38-.778.23-2.236-1.19-2.589-1.99-.491-2.58 1.519-2.58 1.519Zm6.26 1.042c-.1 2.82 2.85 2.952 3.77 1.071.38-.779.23-2.237-1.2-2.59-1.99-.491-2.57 1.519-2.57 1.519Zm-4.32 6.686c-1.15-.148-3.9-1.286-5.98-2.533.64-.347 1.16-.63 2.31-.805 3.83-.475 11.14.78 10.88 2.779-.61 2.464-4.4 1.254-7.21.559Zm7.29 16.938c.1-1.718-1.52-3.496-8.79-4.557-2.92-.446-5.53-.45-7.96-.087-1.99-1.961-3.24-4.333-3.01-6.569.69-4.279 2.44-6.001 4.81-7.757l1.31.828c5.71 3.614 11.82 4.894 15.43 2.531 2.57-1.66-.36-3.715-1.66-4.219-5.25-1.985-9.65-2.934-15.09-1.343-1.81-1.41-3.05-3.276-2.17-4.984 1.97-4.055 9.94-.663 9.94-.663l.17-.098c-5.88-3.333-9.79-1.822-11.03-.522-1.22 1.213-1.96 3.872 1.1 6.877-7.4 3.216-7.3 9.48-6.71 11.185.3 1.954 1.48 3.852 3.13 5.543-4.13 1.318-7.51 3.649-10.46 6.497-7.53 6.856-3.07 16.122-3.07 16.122s4.66 13.261 20.48 12.399c15.73-1.251 14.55-11.313 14.55-11.313-8.36 10.595-27.01 8.052-29.23-4.103-.76-5.874 1.58-10.114 4.3-12.972 2.23-1.788 4.33-3.198 6.44-4.143 6.7 4.637 16.56 6.524 17.52 1.348Zm-8.17-.184c-2.02-.362-4.07-1.189-5.81-2.307 1.99-.427 4.02-.475 6.23-.114 1.59.255 4.17 1.307 4.23 2.009-.14.929-2.85.763-4.65.412Zm27.44 21.594c-1.12 1.191-2.93 1.433-3.57.679-2.72-3.838-.06-15.337 1.81-21.25 0 0-11.38-2.627-11.91-1.75 0 0-.44 1.221.36 2.061 1.04.073 2.04.093 1.99.309-3.23 12.137-5.41 15.588-8.74 17.886-4.54 3.144-14.16 1.042-15.67-2.864-.8-.473.61 9.783 12.15 9.148 9.07-1.06 15.83-22.463 16.07-23.64.66.117.67.073 1.15.191-6.87 20.366-.69 21.754 2.36 22.415 1.14.375 3.16-.731 4.66-2.334l-.66-.851Zm17.52-12.045c1.86-2.522-.3-4.525-2.86-5.155-2.25-.556-4.84-.83-8.58 2.053-5.16 3.955-6.02 12.457-4.67 15.542 4.79 10.173 17.47-1.417 17.27-7.108 3.34-.322 3.09-1.898 3.09-1.898-3.79-.293-5.2-3.119-5.2-3.119l-4.1.821c1.88 1.108 2.77 6.052-1.08 11.246-3.99 5.346-11.34 1.65-5.41-7.849 5.64-9.065 11.54-4.533 11.54-4.533Zm16.2 5.379c-.23.033-9.76 12.403-5.3 16.074 5.84 4.791 11.02-5.947 11.02-5.947l-.43-.518c-1.73 2.921-6.69 6.282-6.9 1.552-.31-4.481 4.25-11.611 5.6-13.202 1.73-1.408-.51-3.476-.51-3.476-4.81 5.693-12.48 5.724-9.93 1.171 1.62.308 2.62-.957 2.62-.957 2.98-4.08-2.3-8.322-5.06-1.251-.02.086-.08.162-.11.249-1.3.089-2.63.082-2.63.082l-.36 1.059c.82.247 1.81.309 2.63.328-2.3 10.256 8.43 4.882 9.36 4.836Zm7.86.519c.09.206.14.173.23.378 2.12-.805 3.91-1.144 3.12 2.055-.74 2.982-6.4 16.401-6.4 16.401 1.94.891 3.59 2.031 3.59 2.031 2.13-3.418 2.34-8.916 8.57-8.705 3.15-.095-.82 11.493 1.84 13.571 4.4 2.786 8.67-1.848 8.67-1.848l-.15-.54s-1.85 1.193-3.83.291c-4.62-3.39 2.57-11.887-3.36-13.535-1.59-.255-2.92-.262-3.88-.27 1.42-2.769 4.78-5.975 7.17-8.001 6.33-5.406 5.1.527 5.08.613 2.04 4.725 9.3-2.379.5-4.462-6.45-1.548-12.01 7.214-15.56 11.889 1.79-5.2 3.59-8.747 1.54-10.491-2.79-2.844-7.13.623-7.13.623Zm37.74 8.499c-3.87-14.808-25.96 6.245-15.03 16.24 3.78 3.457 9.85-4.767 9.85-4.767s-3.02 7.049 2.4 7.748c2.36.307 3.92-1.738 4.66-3.069l-.14-.172c-4.89 4.387-5.08-2.493-4.71-3.962.38-1.557 3.05-9.566 3.05-9.566l-2.65-1.527s-3.13 9.685-6.16 12.101c-1.89 1.506-7.14 3.832-4.62-3.573 5.27-14.659 13.14-8.632 13.35-9.453Z"/></g><path fill="#F8B255" fill-rule="evenodd" d="m1641.98 377.067-28.7-3.035 1.02-9.661 28.7 3.036-1.02 9.66Z" clip-rule="evenodd"/><path fill="#FED785" fill-rule="evenodd" d="m1747.2 378.428-.01-.001c0-.071.01-.141.02-.213l.01-.076c-.01.098-.02.193-.02.29ZM1633.93 366.443h-.01c.02-.095.04-.189.05-.287l.57-5.456-.58 5.531-.03.212ZM1623.37 365.326c0-.071.01-.142.01-.214l.01-.076c-.01.098-.01.194-.02.29Z" clip-rule="evenodd"/><path fill="#FFE98D" fill-rule="evenodd" d="m1630.38 369.239-4.12-.436c-1.72-.182-2.97-1.715-2.89-3.473-.04 1.77 1.23 3.297 2.96 3.48l3.97.421c1.73.183 3.3-1.045 3.62-2.785h.01c-.29 1.737-1.84 2.974-3.55 2.793Z" clip-rule="evenodd"/><path fill="#D04F29" fill-rule="evenodd" d="m1374.49 600.899 489.44 51.765s12.58-126.183-31.82-139.593c0 0-8.51-85.646-29.09-100.494-20.58-14.85-186.24-29.994-225.84-23.886-39.6 6.109-89.85 76.828-89.85 76.828-64.55 13.75-103.7 57.083-112.84 135.38Z" clip-rule="evenodd"/><path fill="#FCE5D3" fill-rule="evenodd" d="M1400.09 609.15c13.39-30.264 24.2-55.521-6.73-56.682l2.4-22.682s-23.38-14.913-31.06 9.619c-7.69 24.531-1.87 65.804-1.87 65.804l37.26 3.941ZM1838.18 655.484l38.77 4.101s18.94-58.719 6.63-62.66c-12.32-3.943-48.43 14.943-50.65 26.324-2.22 11.381 5.25 32.235 5.25 32.235Z" clip-rule="evenodd"/><path fill="#F8B255" fill-rule="evenodd" d="M1399.1 524.144c18.19 8.894 42.77-25.944 36.79-37.889-24.3-19.505-51.2 18.201-36.79 37.889Z" clip-rule="evenodd"/><path fill="#E68A4B" fill-rule="evenodd" d="M1403.8 525.501c2.01.212 4.05 0 6.08-.559-2.03.559-4.07.771-6.08.559Zm6.09-.56c.01-.005.03-.008.04-.012l-.04.012Zm.05-.014c.01-.005.03-.008.04-.013-.01.005-.03.008-.04.013Zm.07-.021s.01-.002.01-.004c0 .003-.01.004-.01.004Z" clip-rule="evenodd"/><path fill="#FCCC70" fill-rule="evenodd" d="M1403.8 525.499a13.965 13.965 0 0 1-4.7-1.355c-1.86-2.538-3.03-5.377-3.6-8.352 4.96-13.23 17.85-20.848 32.47-19.302 2.43.256 4.9.766 7.4 1.543-3.77 10.818-14.44 23.789-25.35 26.868 0 .002 0 .003-.01.004-.01.004-.02.006-.03.008-.01.005-.03.008-.04.012l-.01.002c-.01.005-.03.008-.04.013h-.01c-2.03.559-4.07.771-6.08.559Z" clip-rule="evenodd"/><path fill="#F8B255" fill-rule="evenodd" d="M1857.98 535.611c-8.59-8.318-24.3-10.943-24.68-7.326-.39 3.619 9.08 48.972 10.65 53.362 1.57 4.39 23.3 6.708 24.67 2.61 1.37-4.078-5.59-40.985-10.64-48.646Z" clip-rule="evenodd"/><path fill="#CDD9CA" fill-rule="evenodd" d="M1868.62 584.267c0-.004 0-.007.01-.012-.01.005-.01.008-.01.012Z" clip-rule="evenodd"/><path fill="#E68A4B" fill-rule="evenodd" d="M1833.3 528.34h-.01.01Zm0-.009Zm0-.029Zm0-.008v-.002.002Z" clip-rule="evenodd"/><path fill="#FCCC70" fill-rule="evenodd" d="M1867.28 585.473c-2.7-13.762-12.69-40.703-33.02-49.762-.65-3.789-1.03-6.509-.97-7.368 0 0 0 .001 0 0v-.009c0-.011 0-.021.01-.03-.01-.003-.01-.006 0-.009v-.01c.14-1.335 2.37-1.82 5.55-1.483 5.45.577 13.71 3.559 19.13 8.809 4.84 7.345 11.44 41.589 10.77 47.982-.03.273-.07.496-.13.663v.012c-.17.493-.65.891-1.34 1.205Z" clip-rule="evenodd"/><path fill="#183946" fill-rule="evenodd" d="M1515.82 497.045c-.52 4.902-4.77 8.471-9.5 7.971-4.72-.5-8.14-4.88-7.62-9.782.52-4.902 4.77-8.471 9.5-7.971s8.14 4.88 7.62 9.782ZM1690.05 508.215l-17.12 7.825 15.1 11.233 17.12-7.824-15.1-11.234ZM1748.75 514.422l-17.12 7.825 15.11 11.233 17.12-7.824-15.11-11.234ZM1807.45 520.632l-17.12 7.825 15.11 11.234 17.12-7.825-15.11-11.234Z" clip-rule="evenodd"/><path fill="#F8B255" fill-rule="evenodd" d="M1724.08 521.054c-.27 2.595-2.52 4.485-5.03 4.22-2.5-.265-4.3-2.584-4.03-5.179.27-2.596 2.53-4.485 5.03-4.22 2.5.264 4.31 2.582 4.03 5.179ZM1783 527.285c-.28 2.595-2.53 4.485-5.03 4.22-2.5-.264-4.31-2.583-4.04-5.178.28-2.597 2.53-4.485 5.03-4.221 2.5.265 4.31 2.583 4.04 5.179Z" clip-rule="evenodd"/><path fill="#B23121" fill-rule="evenodd" d="m1648.1 620.299-70.19-7.423a.728.728 0 0 1-.51-.296.813.813 0 0 1-.13-.589c.66-3.581 1.17-7.081 1.53-10.498 1.85-17.475-.19-32.745-6.49-45.645-6.29-12.901-16.84-23.464-32.14-31.495a.765.765 0 0 1-.4-.751l4.09-38.64c.04-.414.4-.716.8-.674.4.043.69.413.65.827l-4.03 38.126c15.28 8.109 25.95 18.829 32.34 31.917 6.44 13.214 8.5 28.805 6.63 46.488-.34 3.203-.81 6.474-1.4 9.812l68.68 7.264 12.85-121.437c.04-.414.4-.716.8-.674.4.043.69.413.64.827l-12.92 122.188a.768.768 0 0 1-.27.508.707.707 0 0 1-.53.165ZM1422.15 559.446a.704.704 0 0 1-.29-.098.769.769 0 0 1-.26-1.032c9.56-16.852 24.92-27.908 41.65-34.345 16.73-6.438 34.85-8.276 50.07-6.668 6.86.726 13.13 2.154 18.43 4.191.38.144.56.578.42.968a.733.733 0 0 1-.76.489.693.693 0 0 1-.18-.043c-5.15-1.982-11.31-3.39-18.07-4.105l-.01-.001c-14.99-1.585-32.92.234-49.41 6.582-16.49 6.351-31.54 17.211-40.88 33.689a.73.73 0 0 1-.71.373ZM1810.39 619.759a.736.736 0 0 1-.65-.665c-2.37-22.918-11.75-40.579-24.72-52.984-12.98-12.401-29.57-19.538-46.35-21.313-21.31-2.254-42.9 4.141-57.78 19.278a.717.717 0 0 1-.59.214.705.705 0 0 1-.44-.22.783.783 0 0 1 .01-1.067c15.26-15.509 37.28-21.998 58.96-19.705 17.07 1.805 33.96 9.062 47.18 21.701 13.23 12.636 22.78 30.666 25.18 53.924a.761.761 0 0 1-.65.837.684.684 0 0 1-.15 0Z" clip-rule="evenodd"/><path fill="#E66D3B" fill-rule="evenodd" d="M1560.05 565.456c-7.96-.843-15-16.959-41.24-25.705-7.59-2.531-14.41-3.852-20.41-4.487-6.84-.723-12.6-.554-17.2-.26-4.6.292-8.03.707-10.21.477-1.17-.123-1.97-.431-2.4-1.042-2.81-3.964 14.21-12.764 40.2-10.016 4.77.505 9.85 1.4 15.17 2.788 34.22 8.936 48.71 34.06 39.15 37.802-1.06.415-2.06.549-3.06.443ZM1783.34 589.073c-7.15-.757-13.32-16.782-36.84-25.24-6.81-2.449-12.94-3.697-18.33-4.267-6.15-.65-11.34-.42-15.48-.078-4.14.34-7.24.791-9.2.584-1.05-.111-1.77-.41-2.15-1.015-2.49-3.93 12.93-12.9 36.29-10.43a83.42 83.42 0 0 1 13.63 2.625c30.71 8.565 43.49 33.508 34.85 37.346-.96.427-1.87.57-2.77.475Z" clip-rule="evenodd"/><path fill="#A1C6BF" fill-rule="evenodd" d="m1669.79 490.361 144.01 15.231s-4.4-69.108-16.84-81.51c-7.11-7.099-66.02-16.615-117.94-21.019l-9.23 87.298Z" clip-rule="evenodd"/><path fill="#C17A48" fill-rule="evenodd" d="M1813.8 505.592s-.37-5.744-1.18-14.209c-11.34-21.975-25.56-41.163-26.64-51.303-1.15-10.814-9.08-15.217-23.9-15.991-14.81-.774-78.22 8.359-89.6 40.816l-2.69 25.456 144.01 15.231Z" clip-rule="evenodd"/><path fill="#B23C21" fill-rule="evenodd" d="M1813.8 505.594v-.001c0-.016-.01-.147-.02-.388.01.256.02.389.02.389Z" clip-rule="evenodd"/><path fill="#878265" fill-rule="evenodd" d="M1813.81 505.592Zm0 0c-.01-.08-.22-3.392-.68-8.65.37 4.258.58 7.241.65 8.262.02.24.03.372.03.388Zm-5.01-21.353-.01-.001.01.001Zm-.03-.04c0-.014-.01-.027-.02-.042.01.015.01.028.02.042Zm-.02-.045c-10.04-18.116-20.86-33.707-22.59-42.907v-.002c1.73 9.199 12.55 24.79 22.59 42.909Zm-136.26-19.248Zm1.32-3.202c.01-.016.01-.029.02-.045-.01.016-.01.029-.02.045Zm.02-.046c.01-.015.01-.028.02-.042 0 .014-.01.027-.02.042Zm.02-.048c.01-.013.02-.026.02-.039 0 .013-.01.026-.02.039Zm.03-.045c0-.013.01-.026.02-.039-.01.012-.02.028-.02.039Zm.02-.048c0-.01.01-.023.02-.034-.01.011-.02.024-.02.035v-.001Zm.02-.046c.01-.01.01-.022.02-.032-.01.011-.01.02-.02.032Zm.02-.048c.01-.009.01-.019.02-.029 0 .01-.01.021-.02.029Zm.03-.045c0-.009.01-.019.01-.028 0 .009-.01.021-.01.028Zm.02-.048c0-.008.01-.014.01-.021 0 .007-.01.013-.01.021Zm.02-.046c.01-.007.01-.013.01-.019 0 .008 0 .012-.01.019Zm.03-.047c0-.007 0-.01.01-.015-.01.003-.01.01-.01.015Zm.02-.046c0-.004 0-.01.01-.014 0 .004-.01.01-.01.014Zm.02-.047c.01-.004.01-.006.01-.009 0 .003 0 .005-.01.009Zm.03-.046v-.006.006Z" clip-rule="evenodd"/><path fill="#A25025" fill-rule="evenodd" d="m1813.81 505.594-1.17-12.949c-.06-.642-.17-1.267-.33-1.869.1.202.21.406.31.608.2 2.021.37 3.888.51 5.559.46 5.258.67 8.57.68 8.65v.001Zm-144.02-15.232 2.69-25.455c.39-1.093.83-2.161 1.33-3.202.01-.016.01-.029.02-.045v-.001c.01-.015.01-.028.02-.042v-.006c.01-.013.02-.026.02-.039 0-.003 0-.004.01-.006 0-.011.01-.027.01-.039 0-.003.01-.006.01-.008 0-.011.01-.024.01-.035.01-.005.01-.007.01-.012.01-.011.01-.02.02-.032v-.015c.01-.009.01-.019.02-.03 0-.004 0-.009.01-.015 0-.008.01-.019.01-.028 0-.007.01-.013.01-.02 0-.008.01-.014.01-.021 0-.009.01-.018.01-.025.01-.007.01-.011.01-.019.01-.01.01-.02.02-.028v-.015c.01-.01.01-.02.02-.03 0-.005 0-.01.01-.015 0-.011.01-.021.01-.033 0-.004 0-.005.01-.008 0-.013.01-.026.01-.038.01-.001.01-.005.01-.005.01-.015.01-.028.02-.043a36.145 36.145 0 0 1 3.11-5.04l-1.68 15.945c-2.51 1.716-4.3 4.538-4.65 7.872l-1.12 10.533Zm140.23-3.885c-1.66-1.897-3.97-3.167-6.58-3.443l-18.18-1.923c.41-3.917 1.04-9.095 2-15.814 1.5-10.404-.36-18.312-2.49-23.509.46-.176.92-.356 1.39-.539 1.73 9.199 12.55 24.79 22.59 42.906v.003c.01.015.02.028.02.042.01.013.02.026.02.039l.01.001c.41.742.81 1.486 1.22 2.237Zm-55.08-8.572-16.88-1.786.31-12.522.02-.761.12-4.997 2.93.236.3-12.769c2.72.639 5.46 1.099 8.19 1.388 7.09.75 14.19.358 21.16-.993-.49 2.813-2.22 7.454-7.67 13.907-4.7 5.576-7.17 12.59-8.48 18.297Zm-58.45-37.647c5.98-3.246 12.54-5.924 19.16-8.102 4.26 3.815 9.29 7.021 14.97 9.47.31.135.62.266.94.395l-35.07-1.763Z" clip-rule="evenodd"/><path fill="#D04F29" fill-rule="evenodd" d="m1738 478.566.62-25.164-60.63-4.414-2.66 25.064 62.67 4.514Z" clip-rule="evenodd"/><path fill="#8D2E1F" fill-rule="evenodd" d="M1738.37 463.596h-.01l.02-.761-.01.761Z" clip-rule="evenodd"/><path fill="#B23121" fill-rule="evenodd" d="m1675.84 469.29 1.73-16.349 60.94 4.898-.12 4.997-.02.762c-1.01-.135-2.02-.255-3.04-.362-19.8-2.095-40.01 1.076-59.49 6.054Z" clip-rule="evenodd"/><path fill="#F8B255" fill-rule="evenodd" d="m1741.43 458.073.37-15.538-66.6-3.348-1.42 13.447 67.65 5.439Z" clip-rule="evenodd"/><path fill="#9C8B3F" fill-rule="evenodd" d="m1675.2 439.187 5.83.294s0-.002 0 0l-5.83-.294Z" clip-rule="evenodd"/><path fill="#EE7C1C" fill-rule="evenodd" d="m1673.78 452.633 1.42-13.446 5.83.293c14.51 9.827 30.49 14.513 46.99 16.258 4.45.471 8.94.728 13.45.815l-.04 1.52-2.92-.237-60.94-4.899-3.79-.304Z" clip-rule="evenodd"/><path fill="#1A1E21" fill-rule="evenodd" d="m1707.1 477.36.85-36.547-.54-.008.37.411a83.43 83.43 0 0 0 5.22-5.704c1.32-1.595 2.67-3.362 3.73-5.086 1.05-1.73 1.84-3.401 2-4.903.11-.93-.06-1.841-.64-2.541-.32-.399-.74-.665-1.2-.713-.69-.063-1.3.296-1.85.808-.98.909-1.92 2.434-2.85 4.237-2.78 5.397-5.29 13.303-5.3 13.317l.52.174.54-.098c0-.013-.8-4.9-2.21-9.879-.71-2.491-1.57-5.005-2.59-6.964-.51-.981-1.06-1.826-1.67-2.467-.61-.636-1.3-1.088-2.09-1.172-.28-.03-.57-.011-.86.062-.46.112-.86.355-1.13.709-.28.352-.41.784-.46 1.236-.14 1.407.47 3.176 1.39 5.177 2.77 5.956 8.64 13.73 8.65 13.746l.43-.35.39-.394a54.72 54.72 0 0 0-5.08-4.664c-2.94-2.368-6.67-4.858-10.06-5.231-1.06-.112-2.1-.009-3.05.407-.95.413-1.8 1.142-2.48 2.2-.17.262-.1.613.15.785.25.17.59.097.76-.165.58-.897 1.24-1.45 1.99-1.778.74-.325 1.59-.42 2.51-.323 2.97.3 6.64 2.672 9.51 4.999a56.835 56.835 0 0 1 3.57 3.155c.44.425.79.778 1.03 1.024s.36.38.36.38c.21.216.54.228.76.031a.58.58 0 0 0 .07-.777s-.16-.211-.44-.596c-.99-1.348-3.46-4.792-5.62-8.393-1.08-1.8-2.08-3.639-2.78-5.263-.7-1.615-1.07-3.037-.98-3.855.04-.299.12-.504.23-.643.11-.139.26-.246.53-.318.17-.042.33-.052.49-.035.44.043.93.316 1.43.845.88.918 1.76 2.569 2.51 4.509 1.15 2.91 2.07 6.47 2.69 9.292.32 1.412.56 2.641.72 3.515.17.875.25 1.389.25 1.391a.55.55 0 0 0 .5.466.55.55 0 0 0 .56-.39c0-.003.36-1.137.96-2.845.9-2.559 2.34-6.396 3.88-9.529.76-1.564 1.55-2.955 2.29-3.901.37-.475.72-.835 1.02-1.049.3-.219.53-.278.69-.26.14.018.28.081.49.324.33.411.46.949.39 1.689-.12 1.179-.83 2.765-1.84 4.415-1.53 2.483-3.73 5.137-5.54 7.159a99.995 99.995 0 0 1-2.3 2.468c-.58.6-.93.944-.93.945a.602.602 0 0 0-.18.401l-.85 36.546a.55.55 0 0 0 .53.575c.3.004.55-.245.56-.557Z" clip-rule="evenodd"/><path fill="#1A1E21" fill-rule="evenodd" d="M1726.16 436.124c-.3-.726-.76-1.288-1.34-1.669-.57-.383-1.24-.587-1.96-.662-1.46-.151-3.14.206-4.88.796-5.19 1.777-10.85 5.738-10.87 5.751a.59.59 0 0 0-.16.785c.17.259.51.327.76.152 0-.001.15-.106.43-.295.99-.659 3.55-2.309 6.42-3.725 2.86-1.422 6.07-2.578 8.18-2.338.59.061 1.09.225 1.49.488.39.267.7.63.92 1.168a.54.54 0 0 0 .72.292.573.573 0 0 0 .29-.743Z" clip-rule="evenodd"/><path fill="#A1C6BF" fill-rule="evenodd" d="M1526.19 470.027c18.43-47.947 59.43-74.5 59.43-74.5l-22.41-2.371c-36.51 16.961-75.88 72.365-75.88 72.365 16.97-1.978 28.87.433 38.86 4.506Z" clip-rule="evenodd"/><path fill="#D2E7E4" fill-rule="evenodd" d="M1526.19 470.027c-5.55-2.264-11.69-4.013-18.96-4.783-5.82-.615-12.36-.602-19.9.277 0 0 39.37-55.404 75.88-72.364l22.41 2.37s-41 26.553-59.43 74.5Z" clip-rule="evenodd"/><path fill="#A1C6BF" fill-rule="evenodd" d="M1671.14 402.429c-31.78-2.406-59.69-2.683-69.55.989-26.5 9.868-53.9 57.131-56.18 73.788l116.52 12.323 9.21-87.1ZM1813.8 505.59l-1.17-12.948c-.45-5.079-4.3-9.093-9.19-9.611l-121.09-12.808c-5.7-.602-10.82 3.696-11.45 9.603l-1.11 10.533 144.01 15.231Z" clip-rule="evenodd"/><path fill="#DFF0ED" fill-rule="evenodd" d="m1734.83 497.24-17.41-1.842 15.28-19.847 17.13 1.811-15 19.878ZM1812.31 490.774a10.796 10.796 0 0 0-2.29-4.295v-.001a10.8 10.8 0 0 1 2.29 4.296Z" clip-rule="evenodd"/><path fill="#EAE3D1" fill-rule="evenodd" d="M1812.31 490.776v-.002.002Zm-2.29-4.297v-.001.001Z" clip-rule="evenodd"/><path fill="#DDD8C9" fill-rule="evenodd" d="m1813.81 505.594-1.17-12.948c-.06-.642-.17-1.267-.34-1.869l.01-.001c.16.603.27 1.228.33 1.871l1.17 12.947Zm-3.79-19.116c-1.66-1.897-3.97-3.167-6.58-3.443 2.61.276 4.92 1.546 6.58 3.443Z" clip-rule="evenodd"/><path fill="#DFF0ED" fill-rule="evenodd" d="m1813.8 505.592-60.29-6.377 6.36-8.828c3.24.862 6.46 1.473 9.66 1.811 5.04.534 10.04.39 14.98-.528 0 0-.06-2.803.75-10.56l18.18 1.923c2.61.276 4.92 1.546 6.58 3.443v.001a10.658 10.658 0 0 1 2.28 4.296v.002c.17.602.28 1.227.34 1.87l1.16 12.947Z" clip-rule="evenodd"/><path fill="#C17A48" fill-rule="evenodd" d="M1771.09 442.465c5.54-1.79 9.5-7.971 9.5-7.971s9.55 10.778 6.67 30.803c-2.88 20.023-2.75 26.373-2.75 26.373-10.13 1.88-20.48.514-31.01-3.279 0 0 .32-17.392 9.92-28.784 9.61-11.393 7.67-17.142 7.67-17.142Z" clip-rule="evenodd"/><path fill="#97411F" fill-rule="evenodd" d="m1773.12 441.592-.02-.054.07-.387a.365.365 0 0 1 .37-.113c.01.002.13.037.34.115-.25.153-.5.299-.76.439Z" clip-rule="evenodd"/><path fill="#97411F" fill-rule="evenodd" d="M1770.6 461.538a.355.355 0 0 1-.19-.08.388.388 0 0 1-.05-.53c2.41-3.122 3.43-6.521 3.76-9.601.5-4.732-.66-8.703-.95-9.6l-.05-.135c.26-.14.51-.286.76-.439.57.211 1.76.736 3 1.812 1.7 1.474 3.5 4.005 3.84 8.102a.376.376 0 0 1-.4.411.36.36 0 0 1-.32-.339c-.32-3.653-1.8-5.919-3.29-7.326a9.613 9.613 0 0 0-2.69-1.792c.43 1.508 1.27 5.127.82 9.382-.34 3.19-1.4 6.741-3.92 9.994a.352.352 0 0 1-.32.141Z" clip-rule="evenodd"/><path fill="#1A1E21" fill-rule="evenodd" d="M1771.63 442.57c.55-2.913 2.76-4.798 4.91-5.964 1.08-.579 2.12-.972 2.89-1.216.39-.122.71-.208.93-.264l.25-.058.08-.019a.57.57 0 0 0 .44-.661.55.55 0 0 0-.64-.45c-.03.008-2.14.423-4.45 1.666-2.29 1.237-4.83 3.338-5.48 6.756-.06.307.13.603.43.662.29.058.58-.144.64-.452Z" clip-rule="evenodd"/><path fill="#183946" fill-rule="evenodd" d="M1546.87 613.118c-3.37 31.887-31.03 55.102-61.79 51.849-30.75-3.252-52.94-31.739-49.57-63.627 3.37-31.889 31.04-55.103 61.79-51.851 30.75 3.253 52.94 31.74 49.57 63.629Z" clip-rule="evenodd"/><path fill="#1A1E21" fill-rule="evenodd" d="M1522.72 610.569c-1.91 18.059-17.57 31.206-34.99 29.364-17.42-1.842-29.98-17.975-28.07-36.034 1.91-18.06 17.57-31.207 34.99-29.365 17.41 1.842 29.98 17.975 28.07 36.035Z" clip-rule="evenodd"/><path fill="#183946" fill-rule="evenodd" d="M1783.28 638.121c-3.37 31.887-31.04 55.102-61.79 51.849-30.75-3.252-52.94-31.739-49.57-63.627 3.37-31.889 31.03-55.103 61.78-51.851 30.76 3.253 52.95 31.74 49.58 63.629Z" clip-rule="evenodd"/><path fill="#1A1E21" fill-rule="evenodd" d="M1759.13 635.569c-1.91 18.059-17.58 31.206-34.99 29.364-17.42-1.842-29.99-17.975-28.08-36.034 1.91-18.06 17.58-31.207 35-29.365 17.41 1.842 29.98 17.975 28.07 36.035Z" clip-rule="evenodd"/><path fill="#92A08D" fill-rule="evenodd" d="M1902.32 351.753Z" clip-rule="evenodd"/><path fill="#6E9884" fill-rule="evenodd" d="m1885.69 345.917.06-.624v-.014.014l-.06.624Zm.07-.683v-.021.021Zm0-.07v-.024.024Zm.01-.07v-.021.021Zm.01-.071V345v.023Zm0-.069v-.018.018Zm.01-.078v-.01.011-.001Zm0-.061c0-.006 0-.013.01-.02-.01.008-.01.013-.01.02Zm.01-.078v-.011.011Zm.01-.062v-.018.018Zm0-.078v-.006.006Zm.01-.068v-.007.007Zm0-.072v-.006.006Zm.01-.069v-.005.006-.001Zm.01-.074v-.001.001Zm0-.067v-.005.005Z" clip-rule="evenodd"/><path fill="#865F31" fill-rule="evenodd" d="M1645.3 362.223a17.508 17.508 0 0 0 0 0Z" clip-rule="evenodd"/><path fill="#132C30" fill-rule="evenodd" d="M1643.82 361.683c-1.07-.449-2.22-1.037-3.44-1.739 1.22.701 2.37 1.29 3.44 1.739Z" clip-rule="evenodd"/><path fill="#1F1B20" fill-rule="evenodd" d="M1647.23 362.625c-.31 5.158-.75 10.256-1.28 15.323-.81 7.661-1.85 15.245-3.01 22.84a.56.56 0 0 0 .45.643c.3.046.58-.165.63-.474 1.16-7.607 2.2-15.211 3.01-22.894.54-5.082.98-10.199 1.29-15.376a.554.554 0 0 0-.51-.596.561.561 0 0 0-.58.534Z" clip-rule="evenodd"/><path fill="#A04E24" fill-rule="evenodd" d="M1570.94 504.856c-.45 4.242-4.13 7.331-8.22 6.898-4.09-.432-7.04-4.223-6.59-8.465.45-4.243 4.13-7.331 8.22-6.898 4.09.432 7.04 4.222 6.59 8.465Z" clip-rule="evenodd"/><path fill="#A1C6BF" d="M1464.84 605.141c-1.05 9.963 2.76 19.391 10.68 24.637 7.46 4.937 17.96 6.046 26.3 2.775 8.22-3.22 14.52-11.9 15.58-21.862 1.61-15.239-8.64-28.915-23.35-30.467-14.78-1.561-27.59 9.583-29.21 24.917Zm28.94-17.685c-3.64 9.171-12.99 22.185-19.46 28.368l13.63 1.44-.4 4.119c-.28 2.329-2.29 4.565-4.85 4.263-3.56-.423-7.82-2.629-10.01-7.721-1.58-3.715-2.72-6.633-2.13-12.179 1.28-12.111 11.6-21.173 23.38-19.929 11.65 1.229 19.95 12.553 18.7 24.372-.59 5.545-3.55 10.077-4.51 11.379-3.39 4.602-7.96 5.875-11.36 5.562-2.33-.218-4.3-2.255-3.99-5.208l.44-4.103 13.84 1.462c-5.24-7.42-11.66-22.099-13.28-31.825ZM1701.24 630.141c-1.05 9.963 2.77 19.391 10.69 24.637 7.45 4.937 17.95 6.046 26.29 2.775 8.22-3.22 14.53-11.9 15.58-21.862 1.62-15.239-8.64-28.915-23.35-30.467-14.78-1.561-27.58 9.583-29.21 24.917Zm28.95-17.685c-3.65 9.171-12.99 22.185-19.46 28.368l13.63 1.44-.41 4.119c-.27 2.329-2.29 4.565-4.85 4.263-3.55-.423-7.82-2.629-10-7.721-1.59-3.715-2.72-6.633-2.13-12.179 1.28-12.111 11.6-21.173 23.38-19.929 11.65 1.229 19.94 12.553 18.69 24.372-.58 5.545-3.55 10.077-4.51 11.379-3.39 4.602-7.96 5.875-11.35 5.562-2.34-.218-4.3-2.255-3.99-5.208l.43-4.103 13.84 1.462c-5.24-7.42-11.66-22.099-13.27-31.825Z"/><path fill="#FEFEFE" fill-rule="evenodd" d="M1630.25 393.329c-.12 1.11-1.09 1.917-2.16 1.804-1.07-.113-1.84-1.104-1.72-2.213.12-1.112 1.08-1.919 2.15-1.806 1.07.113 1.84 1.105 1.73 2.215ZM1601.94 483.836c-.12 1.111-1.08 1.919-2.15 1.805-1.07-.113-1.84-1.104-1.73-2.215.12-1.11 1.09-1.918 2.16-1.805 1.07.113 1.84 1.106 1.72 2.215ZM1670 431.381c-.12 1.111-1.08 1.919-2.15 1.806-1.07-.114-1.85-1.104-1.73-2.215.12-1.111 1.08-1.917 2.15-1.804 1.07.113 1.84 1.104 1.73 2.213Z" clip-rule="evenodd"/><path fill="#E63535" fill-rule="evenodd" d="M1615.98 432.277c-16.85-1.845-40.17 26.139-41.78 47.905 17.12 13.899 56.61 17.625 75.5 7.986 1.62-21.766-16.86-54.046-33.72-55.891Z" clip-rule="evenodd"/><path fill="#293843" fill-rule="evenodd" d="M1575.3 473.528c18.78 12.711 53.24 16.313 74.33 8.042a78.64 78.64 0 0 0-.98-6.424c-18.87 8.659-54.92 4.843-71.31-7.948a74.24 74.24 0 0 0-2.04 6.33Z" clip-rule="evenodd"/><path fill="#FDD173" fill-rule="evenodd" d="m1587.61 473.222-.01.001a.586.586 0 0 0-.26.307l-1.78 4.97a.622.622 0 0 0 .01.405v.004c.05.12.14.218.27.266l7.16 2.705c.12.048.25.035.37-.022v-.002a.545.545 0 0 0 .26-.307l1.78-4.968a.568.568 0 0 0 0-.406v-.003a.494.494 0 0 0-.27-.267l-7.16-2.705a.45.45 0 0 0-.37.022Zm8.61-.329c.87.329 1.52 1.025 1.87 1.879v.007c.35.855.39 1.867.05 2.832l-1.78 4.967c-.35.966-1.02 1.707-1.83 2.127v.003c-.81.42-1.74.514-2.62.184l-7.15-2.705c-.87-.33-1.53-1.025-1.87-1.878l-.01-.009a3.991 3.991 0 0 1-.04-2.831l1.78-4.969c.35-.964 1.02-1.707 1.82-2.125l.01-.003c.8-.419 1.74-.515 2.61-.185l7.16 2.706Z" clip-rule="evenodd"/><path fill="#363637" fill-rule="evenodd" d="M1564.32 425.265c-1.54-1.783-3.94-2.188-4.77.157-1.04 2.97-.26 6.939.46 10.256 1.07 5.003 2.67 10.053 4.56 14.892l-.02.118c-.1 3.563 5.84 22.273 10.25 16.567 2.61-3.385 1.6-7.845.32-12.496-1.7-6.15-3.05-12.708-5.39-18.658-1.39-3.543-2.97-8.032-5.41-10.836ZM1668.45 440.693c-1.37-5.443-7.42-2.734-10.3-.405-6.26 5.054-10.01 15.512-12.65 22.856-2.92 8.099-7.29 15.715-10.06 23.878-.48.005-.97.257-1.16.825-1.44 4.291-6.41 13.994-1.75 17.939 3.38 2.863 7.65-1.125 10.12-3.464 11.46-10.864 18.76-26.379 22.68-41.683 1.54-5.993 4.71-13.603 3.12-19.946Z" clip-rule="evenodd"/><path fill="#0F539D" fill-rule="evenodd" d="M1679.8 377.632c.89.061 1.8.115 2.71.178-.91-.063-1.81-.116-2.71-.178Zm2.72.179.18.013-.18-.013Z" clip-rule="evenodd"/><path fill="#FEFEFE" fill-rule="evenodd" d="M1691.83 382.125c-.16 9.292 13.1 4.925 9.98-.933 4.09-.864 8.06-9.307-.61-9.268 3.75-4.73-4.94-10.686-7.4-2.482-3.12-6.493-9.93-.101-6.4 4.549-4.32 2.871-3.34 13.558 4.43 8.134Z" clip-rule="evenodd"/><path fill="#E3F1FC" fill-rule="evenodd" d="M1641.35 382.078c22.73 15.434 40.8 60.864 18.42 48.938 3.55 23.141-13.78 22.096-42.37-10.985-22.73-15.434-58.22-19.244-25.86-36.2-14.06-10.923 27.08-17.187 49.81-1.753Z" clip-rule="evenodd"/><path fill="#F5C8B3" fill-rule="evenodd" d="M1644.33 377.927c-16.27-10.508-39.04-4.861-48.24 10.303-9.19 15.164-3.46 35.974 12.82 46.482 16.28 10.507 36.92 6.732 46.12-8.431 9.2-15.163 5.58-37.847-10.7-48.354Z" clip-rule="evenodd"/><path fill="#FEFEFE" fill-rule="evenodd" d="M1616.77 409.367c-19.08-27.875-39.13-10.886-24.23-3.935-31.3 5.427-32.56 28.125-2.93 26.545-16.62 13.868 5.93 27.181 15.74 12.11 3.17 18.764 28.36 29.12 25.03 5.182 8.95 14.974 25.47 6.946 13.17-11.862 19.83 7.522-4.51-29.001-26.78-28.04Z" clip-rule="evenodd"/><path fill="#F08689" fill-rule="evenodd" d="M1627.26 392.887c-4.37-2.967-10.26-1.684-13.16 2.867-2.9 4.55-1.7 10.643 2.67 13.611 4.37 2.967 10.26 1.683 13.16-2.866 2.89-4.552 1.7-10.645-2.67-13.612Z" clip-rule="evenodd"/><path fill="#FEFEFE" fill-rule="evenodd" d="M1623 377.968c4.88.874 8.5 3.529 8.08 5.928-.42 2.399-4.24-.797-9.12-1.672-4.88-.874-8.98.905-8.56-1.495.42-2.399 4.71-3.635 9.6-2.761ZM1647.64 395.825c-2.53-4.4-6.22-6.946-8.24-5.686-2.02 1.259 2.23 3.806 4.76 8.205 2.54 4.4 2.39 8.986 4.41 7.727 2.02-1.26 1.6-5.846-.93-10.246Z" clip-rule="evenodd"/><path fill="#F7C1B8" fill-rule="evenodd" d="M1622.28 393.405c-1.19-.805-2.79-.457-3.57.778-.79 1.235-.47 2.89.72 3.696 1.19.805 2.79.457 3.57-.779.79-1.235.47-2.889-.72-3.695Z" clip-rule="evenodd"/><path fill="#E63535" fill-rule="evenodd" d="M1619.65 366.76c10.49-13.121 47.95-21.858 75.15 6.415 1.58 1.647 2.07 3.885-1.39 3.251-22.92-4.194-6.31 25.798-31.27 42.184-1.53-32.178-27.45-48.498-42.49-51.85Z" clip-rule="evenodd"/><path fill="#E3F1FC" fill-rule="evenodd" d="M1617.66 436.21c.87 20.739 15.62 16.238 12.91-.356.44 11.34-10.74 12.499-12.91.356ZM1605.36 422.919c-17.86 4.389-18.98-11.448-3.69-12.791-10.46 2.756-7.61 14.079 3.69 12.791Z" clip-rule="evenodd"/><path fill="#E3F1FC" fill-rule="evenodd" d="M1604.47 431.825c-15.06 9.813-21.49-4.725-7.57-10.772-8.78 6.339-2.49 15.974 7.57 10.772ZM1623.66 428.377c-5.76 18.815-18.85 10.633-12.35-3.8-2.74 10.711 7.67 15.005 12.35 3.8ZM1658.6 398.84c-2.86 7.573-3.07 18.088 1.34 20.823 4.42 2.736 5.3-12.326-1.34-20.823Z" clip-rule="evenodd"/><path fill="#F5C8B3" fill-rule="evenodd" d="M1664.14 418.482c-1.85-2.35-6.04-1.979-9.35.831-3.31 2.81-4.5 6.992-2.65 9.342 1.85 2.352 6.04 1.979 9.35-.83 3.31-2.809 4.5-6.993 2.65-9.343Z" clip-rule="evenodd"/><path fill="#E3F1FC" fill-rule="evenodd" d="M1620.21 373.58c-8.5 1.894-16.88 6.577-19.56 8.897-4.27-2.98 9.3-11.526 19.56-8.897Z" clip-rule="evenodd"/><path fill="#FEFEFE" fill-rule="evenodd" d="M1615.18 365.208c1.89-6.027 9.64-3.233 12.24 3.941 2.53-10.926 30.05 4.321 26.56 14.322 9.82 1.009 17.81 10.501 11.23 12.681 9.57 6.78 10.21 16.669 5.87 18.906-5.95 3.068-15.02-.41-12.7-13.444-4.73 6.032-12.34-7.396-9.97-12.552-3.09 1.748-22.92-6.622-24.52-16.471-5.5 5.208-19.66 3.937-15.08.267-11.06 2.229-10-1.457-8.74-5.403 1.07-3.375 6.15-6.19 15.11-2.247Z" clip-rule="evenodd"/><path fill="#F08689" fill-rule="evenodd" d="M1615.29 409.796c-.94-1.26-2.86-.913-4.29.779-1.42 1.69-1.81 4.084-.86 5.345.94 1.262 2.86.914 4.29-.777 1.42-1.691 1.81-4.084.86-5.347Z" clip-rule="evenodd"/><path fill="#293843" fill-rule="evenodd" d="M1636.38 402.124c.05.339.36.572.69.52a.619.619 0 0 0 .5-.711c-.14-1.038-.89-2.056-1.9-2.769-.96-.675-2.17-1.094-3.33-1.007a.621.621 0 0 0-.56.665c.02.342.31.6.64.576.87-.067 1.81.266 2.56.799.76.532 1.31 1.242 1.4 1.927ZM1615.75 386.464a.633.633 0 0 0-.52.707.6.6 0 0 0 .68.527c.74-.109 1.54.137 2.25.637a4.87 4.87 0 0 1 1.71 2.231c.12.319.47.473.78.343a.636.636 0 0 0 .34-.811c-.45-1.176-1.23-2.152-2.14-2.796-.95-.669-2.05-.992-3.1-.838Z" clip-rule="evenodd"/><path fill="#AD2C2D" fill-rule="evenodd" d="M1605.96 449.177c-8.12.143-14.68 1.254-22.62-3.633-3.37 1.609-5.8 4.243-6.8 8.142 8.95 5.644 19.78 9.751 28.16 9.407 11.17-.458 12.8-14.118 1.26-13.916Z" clip-rule="evenodd"/><path fill="#293843" fill-rule="evenodd" d="M1584.08 441.75c-2.36-6.09-7.71-7.958-7.06-3.175-4.31-3.408-9.61-.931-9.82 3.837-.17 4.167 3.52 8.331 9.56 9.925 4.67 1.228 10.86-1.473 7.32-10.587Z" clip-rule="evenodd"/><path fill="#FEFEFE" fill-rule="evenodd" d="M1585.07 449.235c1.98 1.509-.18 3.64-3.18 3.226-1.57 7.259-8.87 3.007-5.35 1.225-4.16.147-4.11-3.753.14-4.734-2.02-1.27.9-4.125 4.46-3.742.93-3.892 5.94-4.759 4.98-.33 2.03-1.275 4.04 4.275-1.05 4.355Z" clip-rule="evenodd"/><path fill="#363637" fill-rule="evenodd" stroke="#363637" stroke-miterlimit="22.926" stroke-width="2.4" d="M1564.1 446.413c-.49-.318-1 .16-2.52 1.393-1.51 1.234-4.04 3.223-5.38 4.362-1.34 1.14-1.5 1.431-1.95 2.285-.44.854-1.17 2.273-1.9 3.733-.72 1.46-1.43 2.963-1.78 3.718-.36.755-.36.763-.22.646.14-.118.43-.362 2.37-1.944 1.94-1.582 5.54-4.502 7.85-6.579 2.31-2.078 3.33-3.312 3.95-4.017.61-.704.82-.878.68-1.522-.13-.644-.61-1.757-1.1-2.075Z" clip-rule="evenodd"/><path fill="#D04F29" fill-rule="evenodd" stroke="#D04F29" stroke-miterlimit="22.926" stroke-width="2.4" d="M1569.27 480.99c.41-1.217 2.36-1.011 17.23.562l56.78 6.006c14.12 1.493 14.54 1.538 14.62 2.05.09.512-.18 1.493-2.22 3.795-2.04 2.303-5.84 5.928-8.42 9.111-2.58 3.182-3.92 5.921-6.23 7.159-2.32 1.238-5.61.973-8.67-.553-3.06-1.527-5.9-4.316-8.29-6.471-2.39-2.155-4.33-3.675-7.91-4.487-3.59-.813-8.81-.918-16.59-2.58-7.78-1.663-18.12-4.883-23.86-7.811-5.73-2.929-6.85-5.566-6.44-6.781Z" clip-rule="evenodd"/><path fill="url(#g)" fill-rule="evenodd" d="M1634.95 742.28c95.57 38.446 227.54-29.582 135.76-85.761-91.77-56.178-192.1 63.102-135.76 85.761Z" clip-rule="evenodd"/><path fill="url(#h)" fill-rule="evenodd" d="M1777.12 752.568c52.54 23.988 95.99-8.341 63.01-41.481-44.48-38.863-93.98 27.342-63.01 41.481Z" clip-rule="evenodd"/><path fill="#3F693E" fill-rule="evenodd" d="M233.935 178.402c9.798-14.119 50.679-67.152 50.679-132.95 27.658 2.917 88.106 145.035 71.753 153.575-12.802 6.686-29.763-17.748-29.763-17.748 0 17.748 71.085 103.242 64.266 123.358-6.819 20.116-27.846 9.049-43.378 2.69 45.602 44.801 94.626 120.234 84.347 133.021-10.28 12.787-33.34-10.808-33.34-10.808s22.441 25.374 13.034 30.835c-6.455 3.746-20.663-7.312-20.663-7.312s45.136 57.426 40.969 70.97c-2.046 6.649-16.997 0-16.997 0s60.618 61.487 60.618 80.341c0 18.853-32.611-5.02-32.611-5.02 3.073 5.606 20.974 30.87 12.324 30.87-14.725.587-60.249-25.85-60.249-25.85s42.62 51.235-20.056 51.235c-3.737 0-34.191-3.876-54.278-16.442 1.509 6.274 2.255 21.835-4.213 21.835-6.469 0-12.093-3.523-17.185-12.066 0 2.632-1.632 15.821-12.42 19.595-22.204 7.768-43.666-40.332-43.666-40.332s-.312 25.356-12.48 25.356c-12.167 0-10.064-25.356-10.064-25.356-86.996 58.897-80.131 3.935-61.568-47.512-8.014 6.165-49.741 44.526-55.669 28.278-2.53-6.934 3.572-16.124 11.978-29.465-7.36 7.063-47.68 40.363-63.316 24.874-5.104-5.056 65.921-69.899 65.921-75.183-14.57 11.735-71.629 17.006-14.583-22.08 24.096-16.51 45.251-33.192 55.669-77.571 0 0-9.475 11.634-16.687 3.027-3.748-12.648 37.63-66.096 66.982-118.881-7.41 8.083-19.293 19.746-29.352 13.3-10.059-6.447 13.033-34.713 13.033-34.713s-19.589 16.467-24.516 7.909c-12.379-21.5 79.874-69.899 79.874-101.155-3.058 4.797-17.169 14.711-22.738 4.797-4.802-8.547 3.594-18.574 8.345-25.422Z" clip-rule="evenodd"/><path fill="#5C885C" fill-rule="evenodd" d="M284.615 140.23c4.373-17.908 9.168-59.05 0-94.779 27.657 2.918 88.105 145.036 71.752 153.576-12.802 6.686-29.763-17.748-29.763-17.748 0 17.748 71.085 103.242 64.266 123.358-6.819 20.116-27.845 9.049-43.378 2.69 45.602 44.801 94.627 120.234 84.347 133.021-10.28 12.787-33.34-10.808-33.34-10.808s22.441 25.374 13.034 30.835c-6.455 3.746-20.663-7.312-20.663-7.312s45.136 57.426 40.969 70.97c-2.046 6.649-16.996 0-16.996 0s60.617 61.487 60.617 80.341c0 18.853-32.611-5.02-32.611-5.02 3.073 5.606 20.974 30.87 12.324 30.87-14.725.587-60.249-25.85-60.249-25.85s42.62 51.235-20.056 51.235c-3.736 0-34.191-3.876-54.278-16.442 1.509 6.274 2.255 21.835-4.213 21.835-6.469 0-12.092-3.523-17.185-12.066 0 2.632-1.631 15.821-12.42 19.595-22.204 7.768-29.926-63.663-29.926-63.663-69.796 25.356-48.6-7.027-39.325-28.668 0 0-16.314 13.156-22.242-3.092-2.53-6.934 13.836-25.097 22.242-38.439-7.36 7.063-49.286 34.213-64.922 18.724-5.104-5.056 57.264-55.586 57.263-60.869-14.57 11.734-75.182 13.583-18.136-25.502 12.605-8.637 21.398-18.651 21.398-28.902-24.511 5.476 0-30.511 0-33.302 0 0-7.059 8.608-14.271 0-8.728-15.561 22.679-62.119 38.664-101.525 0 0 17.53 29.513 32.595 22.97 15.065-6.543 7.186-37.129 7.186-41.321 1.521 2.139 4.305 15.071 13.859 12.576 11.167-2.916 1.386-52.017-2.253-57.001-1.123 33.173-8.217 44.434-20.239 14.456 6.17 36.333.536 36.812-3.342 40.63-5.171 3.194-15.389-5.613-16.53-17.088-12.267-44.525 35.822-91.82 35.822-91.82-4.876 5.244-15.953 9.914-21.523 0-4.802-8.547 17.149-28.557 21.523-46.465Z" clip-rule="evenodd"/><path fill="#3F693E" d="M237.626 436.598c-12.394-5.666-5.312-29.038-3.541-49.932 1.18 10.287 5.407 30.933 12.872 31.227 8.813.346 16.036-12.4 16.811-14.435l.069-.243a.907.907 0 0 1-.069.243c-3.879 13.993 3.78 39.02 11.077 39.02 5.871 0 9.54-14.678 10.641-22.017 4.036 8.44 14.138 24.658 22.257 22.017 4.356-1.418 5.012-8.488 4.162-16.407-1.134-7.05-2.742-14.076-4.162-19.331 1.568 5.011 3.427 12.488 4.162 19.331 2.261 14.059 2.631 28.21-4.162 28.588-10.199.566-16.053-10.152-17.706-15.582-1.417 6.256-7.366 18.911-19.831 19.477-12.466.567-14.165-20.303-13.457-30.809-2.243 4.84-9.207 13.386-19.123 8.853ZM350.662 568.111c-10.219-3.332-13.144-27.861-13.329-39.71 0 0 8.854 21.953 19.161 23.327 8.403 1.12 11.385-18.883 11.385-18.883s11.004 41.789 24.992 32.489c5.955-3.959 2.777-23.325 2.777-23.325s18.373 20.861 28.31 16.47c9.817-4.338-8.223-33.744-8.223-33.744 7.089 7.373 27.785 24.716 23.564 34.49-5.276 12.219-34.488-3.332-34.488 0 0 3.333 2.222 26.936-11.94 30.268-11.33 2.666-23.233-21.567-24.992-32.489-1.296 6.942-6.998 14.439-17.217 11.107Z"/><path fill="#2B5129" fill-rule="evenodd" d="M413.254 523.629c8.041 13.072 12.012 23.138 12.264 28.948.093 1.952-.237 3.386-.85 4.28-.617.887-1.469 1.353-2.838 1.431-2.122.112-5.415-.974-9.641-3.522-4.234-2.541-9.421-6.507-15.493-12.034a.787.787 0 0 0-.868-.121.74.74 0 0 0-.42.745c.003.001.051.423.118 1.168.065.745.144 1.807.203 3.066.156 3.336.15 8.071-.674 11.927-.405 1.926-1.024 3.628-1.863 4.8-.851 1.177-1.826 1.815-3.165 1.887-.961.044-2.167-.233-3.65-1.003-6.513-3.349-10.754-11.48-13.257-18.818-1.258-3.663-2.097-7.118-2.618-9.65a71.69 71.69 0 0 1-.558-3.021c-.117-.719-.166-1.11-.168-1.11a.749.749 0 0 0-.725-.645.762.762 0 0 0-.782.582c0 .002-.065.283-.195.794-.456 1.787-1.727 6.293-3.747 10.34-1.008 2.023-2.209 3.927-3.547 5.306-1.346 1.387-2.786 2.217-4.316 2.286l-.389.003c-1.744-.041-3.896-1.494-5.995-3.824-3.156-3.472-6.204-8.725-8.432-13.088a126.977 126.977 0 0 1-2.669-5.562 80.14 80.14 0 0 1-.988-2.279.776.776 0 0 0-.994-.413.733.733 0 0 0-.43.961c.008.017 2.568 6.261 6.217 12.575 1.829 3.16 3.926 6.338 6.143 8.78 2.222 2.428 4.552 4.205 7.082 4.325l.524-.002c2.382-.117 4.364-1.54 5.993-3.446 2.447-2.877 4.224-6.964 5.429-10.355 1.2-3.388 1.804-6.074 1.81-6.091l-.75-.155-.757.094c.003.027.841 6.584 3.408 14.064 2.579 7.47 6.836 15.918 13.982 19.653 1.647.852 3.119 1.234 4.447 1.174 1.877-.079 3.355-1.095 4.359-2.529 1.522-2.155 2.237-5.271 2.598-8.503.355-3.231.324-6.577.207-9.128-.118-2.564-.327-4.323-.327-4.334l-.76.084-.528.539c6.124 5.571 11.372 9.594 15.732 12.211 4.366 2.612 7.825 3.855 10.522 3.745 1.732-.066 3.186-.804 4.051-2.101.868-1.292 1.195-3.026 1.099-5.156-.307-6.321-4.384-16.437-12.476-29.632a.783.783 0 0 0-1.051-.257.723.723 0 0 0-.267 1.011Z" clip-rule="evenodd"/><path stroke="#2B5129" stroke-width=".992" d="M249.258 281.041c1.845 5.452 8.143 16.064 14.261 15.258 14.668-1.931 5.554-29.071 5.458-42.135 1.624 6.429 5.811 18.208 11.607 18.052 7.059-.19 7.885-21.331 8.068-31.778"/><path fill="#2B5129" fill-rule="evenodd" d="M308.192 405.966c4.181 14.767 5.262 25.533 3.924 31.193-.441 1.903-1.15 3.194-1.983 3.887-.835.686-1.781.902-3.12.605-2.073-.47-4.945-2.411-8.319-6.013-3.382-3.597-7.294-8.825-11.633-15.796a.789.789 0 0 0-.803-.352.74.74 0 0 0-.606.602c.002.003-.067.421-.205 1.157-.14.734-.353 1.778-.639 3.005-.757 3.253-2.052 7.807-3.894 11.293-.914 1.744-1.972 3.213-3.099 4.113-1.139.901-2.25 1.25-3.559.954-.936-.219-2.022-.814-3.239-1.958-5.356-4.995-7.224-13.973-7.636-21.716-.214-3.867-.081-7.419.106-9.998.094-1.289.202-2.336.285-3.059.083-.723.143-1.113.141-1.114a.749.749 0 0 0-.523-.817.761.761 0 0 0-.911.347c0 .002-.139.255-.403.71-.925 1.596-3.374 5.586-6.419 8.931-1.52 1.672-3.194 3.178-4.857 4.14-1.673.969-3.284 1.376-4.775 1.026l-.376-.103c-1.667-.514-3.342-2.498-4.727-5.311-2.093-4.2-3.596-10.084-4.553-14.889-.48-2.406-.826-4.543-1.054-6.078a74.247 74.247 0 0 1-.331-2.461.777.777 0 0 0-.845-.669.732.732 0 0 0-.674.808c.002.019.767 6.724 2.56 13.793.9 3.538 2.053 7.166 3.522 10.12 1.478 2.941 3.236 5.284 5.638 6.089l.504.14c2.324.536 4.619-.295 6.705-1.686 3.137-2.102 5.96-5.551 8.042-8.486 2.077-2.934 3.388-5.354 3.399-5.369l-.679-.353-.755-.116c-.004.028-.982 6.565-.547 14.461.449 7.89 2.247 17.177 8.107 22.716 1.353 1.268 2.666 2.036 3.959 2.34 1.828.435 3.526-.141 4.883-1.247 2.051-1.66 3.587-4.464 4.814-7.476 1.22-3.012 2.102-6.24 2.682-8.727.585-2.5.863-4.249.865-4.26l-.754-.126-.655.375c4.378 7.028 8.333 12.327 11.816 16.032 3.491 3.701 6.48 5.839 9.106 6.466 1.685.408 3.285.094 4.47-.919 1.187-1.007 1.973-2.586 2.461-4.663 1.424-6.165.254-17.009-3.943-31.908a.782.782 0 0 0-.941-.533.723.723 0 0 0-.532.9Z" clip-rule="evenodd"/><path fill="#F8B255" d="M370.161 594.173h-64.889v83.773h64.889v-83.773Z"/><path fill="#F49C3D" d="m370.163 594.176 22.182-11.691v83.773l-22.182 11.691v-83.773Z"/><path fill="#F8B255" fill-rule="evenodd" d="m393.311 582.1-23.139 11.883v24.023l23.139-16.516V582.1Z" clip-rule="evenodd"/><path fill="#FFF7B2" fill-rule="evenodd" d="M304.339 594.172h65.812l23.036-12.077h-66.31l-22.538 12.077Z" clip-rule="evenodd"/><path fill="#FCCD70" d="M370.173 593.613h-65.834v23.042h65.834v-23.042Z"/><path fill="#C23E22" d="M343.959 594.304h-12.024v84.484h12.024v-84.484Z"/><path fill="#E76A3B" fill-rule="evenodd" d="m321.934 584.925 63.502 1.233-4.225 2.227-66.138.038 6.861-3.498Z" clip-rule="evenodd"/><path fill="#E76A3B" d="M343.959 594.304h-12.024l18.362-12.342h12.024l-18.362 12.342Z"/><path fill="#C23E22" fill-rule="evenodd" d="M349.023 585.426c3.461 2.083 4.643.709 8.632 4.21 3.972 3.485 12.828 5.012 14.544-2.763.176-.795 1.005-6.516-.862-4.536-3.648 3.867-7.856 6.001-12.613 3.699-3.488-1.689-6.251-3.924-9.701-.61Z" clip-rule="evenodd"/><path fill="#E76A3B" fill-rule="evenodd" d="M349.22 584.811c4.863-5.568 17.663-20.62 22.374-7.185.286.815 2.411 6.504.13 5.078-4.458-2.786-9.095-3.549-13.313.547-3.093 3.006-5.051 3.832-9.191 1.56Z" clip-rule="evenodd"/><path fill="#C23E22" fill-rule="evenodd" d="M347.583 582.987c-3.791-3.39-5.423-2.059-9.618-7.278-4.176-5.196-14.493-9.331-17.794-.505-.338.903-2.248 7.51.298 5.637 4.974-3.66 10.338-5.107 15.641-1.117 3.89 2.926 6.825 6.313 11.473 3.263Z" clip-rule="evenodd"/><path fill="#C23E22" fill-rule="evenodd" d="M347.244 583.666c-6.699 5.371-24.392 19.981-27.847 2.724-.21-1.046-1.828-8.389.664-6.091 4.867 4.488 10.276 6.611 15.968 2.826 4.173-2.776 6.642-3.251 11.215.541Z" clip-rule="evenodd"/><path fill="#C23E22" d="M348.795 580.955h-3.704c-1.73 0-3.133 1.787-3.133 3.991s1.403 3.991 3.133 3.991h3.704c1.731 0 3.134-1.787 3.134-3.991s-1.403-3.991-3.134-3.991Z"/><path fill="#E76A3B" d="M348.553 580.819h-3.211c-1.501 0-2.718 1.55-2.718 3.462 0 1.911 1.217 3.461 2.718 3.461h3.211c1.501 0 2.718-1.55 2.718-3.461 0-1.912-1.217-3.462-2.718-3.462Z"/><path fill="#C23E22" d="M319.068 627.846h-66.796v51.623h66.796v-51.623Z"/><path fill="#F08143" d="m252.274 627.842-22.834-7.204v51.623l22.834 7.204v-51.623Z"/><path fill="#E76A3B" fill-rule="evenodd" d="m228.445 620.404 23.82 7.323v14.804l-23.82-10.178v-11.949Z" clip-rule="evenodd"/><path fill="#F08143" fill-rule="evenodd" d="M320.039 627.846h-67.746l-23.715-7.442h68.26l23.201 7.442Z" clip-rule="evenodd"/><path fill="#B5280A" d="M320.033 627.846h-67.768v14.199h67.768v-14.199Z"/><path fill="#FCCC70" d="M291.626 627.924h-12.377v52.061h12.377v-52.061Z"/><path fill="#FCCC70" fill-rule="evenodd" d="m240.892 624.28-4.33-1.375v51.59l4.21 2.197.12-52.412Z" clip-rule="evenodd"/><path fill="#FFF7B2" fill-rule="evenodd" d="m301.923 622.147-65.368.76 4.349 1.373 68.082.024-7.063-2.157Z" clip-rule="evenodd"/><path fill="#F8B255" d="M279.244 627.924h12.377l-18.902-7.605h-12.378l18.903 7.605Z"/><path fill="#FCCC70" fill-rule="evenodd" d="M274.039 622.453c-3.562 1.285-4.779.437-8.885 2.595-4.089 2.148-13.205 3.089-14.972-1.703-.181-.49-1.034-4.015.888-2.795 3.754 2.383 8.087 3.698 12.983 2.28 3.591-1.041 6.435-2.418 9.986-.377Z" clip-rule="evenodd"/><path fill="#FCCC70" fill-rule="evenodd" d="M273.834 622.074c-5.007-3.431-18.183-12.707-23.033-4.427-.293.501-2.481 4.008-.132 3.128 4.587-1.716 9.361-2.187 13.704.338 3.183 1.852 5.199 2.361 9.461.961ZM275.536 620.951c3.904-2.089 5.583-1.269 9.9-4.485 4.3-3.202 14.921-5.75 18.318-.311.348.556 2.314 4.628-.307 3.473-5.12-2.255-10.642-3.147-16.1-.688-4.004 1.804-7.026 3.891-11.811 2.011Z" clip-rule="evenodd"/><path fill="#FCCC70" fill-rule="evenodd" d="M275.881 621.37c6.895 3.31 25.108 12.313 28.666 1.679.215-.645 1.881-5.17-.684-3.754-5.011 2.766-10.578 4.074-16.437 1.742-4.296-1.711-6.838-2.004-11.545.333Z" clip-rule="evenodd"/><path fill="#F8B255" d="M278.093 619.701h-3.813c-1.781 0-3.225 1.101-3.225 2.46 0 1.358 1.444 2.459 3.225 2.459h3.813c1.781 0 3.225-1.101 3.225-2.459 0-1.359-1.444-2.46-3.225-2.46Z"/><path fill="#F49C3D" d="M278.093 619.701h-3.813c-1.781 0-3.225 1.101-3.225 2.46 0 1.358 1.444 2.459 3.225 2.459h3.813c1.781 0 3.225-1.101 3.225-2.459 0-1.359-1.444-2.46-3.225-2.46Z"/><path fill="#FCCD70" d="M278.162 618.632h-3.813c-1.781 0-3.225 1.101-3.225 2.459 0 1.359 1.444 2.46 3.225 2.46h3.813c1.781 0 3.225-1.101 3.225-2.46 0-1.358-1.444-2.459-3.225-2.459Z"/><path fill="url(#i)" fill-rule="evenodd" d="M319.42 691.458c47.808 24.049 117.905-.098 72.644-32.312-45.259-32.214-100.825 18.138-72.644 32.312Z" clip-rule="evenodd"/><path fill="url(#j)" fill-rule="evenodd" d="M122.808 677.717c63.397 33.982 159.45-.079 99.925-45.589-59.524-45.51-137.295 25.56-99.925 45.589Z" clip-rule="evenodd"/><path fill="url(#k)" fill-rule="evenodd" d="M221.534 669.271c-17.167 19.736 34.044 34.37 49.055 16.187 15.012-18.182-35.275-32.029-49.055-16.187Z" clip-rule="evenodd"/><path fill="#F8B255" fill-rule="evenodd" d="M334.123 499.276c1.035 11.593-7.188 21.8-18.367 22.799-11.179.999-21.082-7.589-22.118-19.182-1.036-11.593 7.188-21.801 18.367-22.799 11.179-1 21.082 7.589 22.118 19.182Z" clip-rule="evenodd"/><path fill="#F49C3D" fill-rule="evenodd" d="M315.756 522.077c-10.183.91-19.306-6.133-21.636-16.157a21.927 21.927 0 0 1-.481-3.025 21.811 21.811 0 0 1 .123-4.858c2.927 9.082 11.553 15.28 21.135 14.424 9.58-.856 16.97-8.484 18.242-17.943.489 1.514.836 3.101.984 4.759 1.036 11.593-7.188 21.801-18.367 22.8Z" clip-rule="evenodd"/><path fill="#FCD074" fill-rule="evenodd" d="M312.959 490.796c-5.121.457-9.448-1.101-9.661-3.482-.213-2.384 3.768-4.684 8.89-5.142 5.123-.458 9.445 1.101 9.658 3.485.214 2.381-3.765 4.681-8.887 5.139Z" clip-rule="evenodd"/><path fill="#D04F29" fill-rule="evenodd" d="M253.749 299.353c.575 6.436-3.991 12.103-10.197 12.658-6.207.555-11.705-4.213-12.28-10.65-.575-6.436 3.991-12.104 10.197-12.658 6.207-.555 11.704 4.213 12.28 10.65Z" clip-rule="evenodd"/><path fill="#C23E22" fill-rule="evenodd" d="M243.552 312.012c-5.655.505-10.72-3.405-12.013-8.971a12.111 12.111 0 0 1-.199-4.377c1.626 5.043 6.415 8.484 11.734 8.009 5.319-.475 9.422-4.71 10.128-9.962.272.841.464 1.721.547 2.642.575 6.437-3.991 12.104-10.197 12.659Z" clip-rule="evenodd"/><path fill="#E76F3B" fill-rule="evenodd" d="M241.998 294.645c-2.843.254-5.245-.611-5.363-1.933-.118-1.324 2.092-2.601 4.936-2.855 2.843-.254 5.243.611 5.362 1.935.118 1.322-2.091 2.599-4.935 2.853Z" clip-rule="evenodd"/><path fill="#F8B255" fill-rule="evenodd" d="M218.206 421.847c.586 6.558-4.065 12.332-10.389 12.897-6.323.565-11.925-4.293-12.511-10.851-.586-6.558 4.066-12.332 10.389-12.897 6.324-.565 11.925 4.293 12.511 10.851Z" clip-rule="evenodd"/><path fill="#F49C3D" fill-rule="evenodd" d="M207.818 434.744c-5.761.515-10.921-3.469-12.239-9.139a12.404 12.404 0 0 1-.272-1.711c-.084-.938-.05-1.856.069-2.748 1.656 5.138 6.536 8.644 11.956 8.159 5.419-.484 9.599-4.799 10.318-10.149.277.856.473 1.753.557 2.692.586 6.557-4.066 12.331-10.389 12.896Z" clip-rule="evenodd"/><path fill="#FCD074" fill-rule="evenodd" d="M206.234 417.05c-2.897.259-5.344-.623-5.464-1.97-.121-1.348 2.131-2.649 5.028-2.908 2.898-.259 5.343.622 5.464 1.971.12 1.347-2.13 2.648-5.028 2.907Z" clip-rule="evenodd"/><path fill="#F8B255" fill-rule="evenodd" d="M328.59 183.581c.586 6.558-4.066 12.332-10.389 12.897-6.323.565-11.925-4.293-12.511-10.85-.586-6.558 4.066-12.332 10.389-12.897 6.324-.566 11.925 4.293 12.511 10.85Z" clip-rule="evenodd"/><path fill="#F49C3D" fill-rule="evenodd" d="M318.201 196.479c-5.76.515-10.921-3.469-12.239-9.14a12.663 12.663 0 0 1-.272-1.711 12.377 12.377 0 0 1 .07-2.748c1.656 5.138 6.535 8.644 11.955 8.16 5.42-.485 9.599-4.8 10.319-10.15.277.856.473 1.754.557 2.692.586 6.558-4.066 12.332-10.39 12.897Z" clip-rule="evenodd"/><path fill="#FCD074" fill-rule="evenodd" d="M316.618 178.784c-2.897.259-5.344-.622-5.464-1.969-.121-1.349 2.131-2.65 5.028-2.909 2.898-.259 5.343.623 5.463 1.971.121 1.347-2.129 2.648-5.027 2.907Z" clip-rule="evenodd"/><path fill="#D04F29" fill-rule="evenodd" d="M155.356 556.267c.982 10.994-6.816 20.674-17.417 21.622-10.601.947-19.992-7.197-20.975-18.191-.982-10.994 6.817-20.674 17.418-21.621 10.601-.948 19.992 7.197 20.974 18.19Z" clip-rule="evenodd"/><path fill="#C23E22" fill-rule="evenodd" d="M137.94 577.891c-9.658.862-18.309-5.816-20.519-15.323a20.937 20.937 0 0 1-.456-2.868 20.77 20.77 0 0 1 .117-4.607c2.776 8.613 10.956 14.491 20.043 13.679 9.085-.812 16.093-8.046 17.299-17.016.464 1.436.792 2.94.933 4.513.982 10.994-6.816 20.674-17.417 21.622Z" clip-rule="evenodd"/><path fill="#E76F3B" fill-rule="evenodd" d="M135.285 548.226c-4.856.434-8.959-1.044-9.161-3.302-.202-2.261 3.573-4.442 8.431-4.876 4.857-.434 8.957 1.044 9.159 3.304.202 2.258-3.571 4.44-8.429 4.874Z" clip-rule="evenodd"/><path fill="#D04F29" fill-rule="evenodd" d="M383.955 378.794c.725 8.111-5.028 15.252-12.849 15.951-7.82.698-14.749-5.31-15.473-13.42-.725-8.111 5.028-15.252 12.849-15.951 7.821-.699 14.749 5.31 15.473 13.42Z" clip-rule="evenodd"/><path fill="#C23E22" fill-rule="evenodd" d="M371.106 394.746c-7.124.636-13.507-4.291-15.137-11.304a15.255 15.255 0 0 1-.25-5.515c2.048 6.355 8.083 10.691 14.786 10.092 6.702-.599 11.872-5.936 12.762-12.553.342 1.059.585 2.169.688 3.329.725 8.111-5.028 15.252-12.849 15.951Z" clip-rule="evenodd"/><path fill="#E76F3B" fill-rule="evenodd" d="M369.149 372.861c-3.583.32-6.609-.77-6.758-2.435-.149-1.668 2.636-3.277 6.219-3.598 3.584-.32 6.608.77 6.757 2.438.149 1.666-2.634 3.275-6.218 3.595Z" clip-rule="evenodd"/><path fill="#D04F29" fill-rule="evenodd" d="M316.244 51.588s10.246 29.022 5.208 31.069c-5.039 2.047-22.683-15.09-22.683-15.09s-17.067 18.199-23.239 14.61c-6.172-3.587 2.988-26.502 2.988-26.502s-26.585-12.342-23.813-17.947c2.771-5.607 25.633-7.058 25.633-7.058s5.395-20.139 10.433-22.188c5.039-2.047 14.364 22.857 14.364 22.857s27.468 6.828 29.155 12.452c1.686 5.623-18.046 7.797-18.046 7.797Z" clip-rule="evenodd"/><path fill="#C23E22" fill-rule="evenodd" d="M321.892 82.376c1.835-1.68.74-8.464-.957-15.236-1.948-7.783-4.692-15.554-4.692-15.554s13.133-1.445 17.055-5.031c.336-.308.604-.633.792-.972.276-.506.373-1.047.242-1.625a2.56 2.56 0 0 0-.044-.168c-.002-.008-.004-.012-.004-.017a.041.041 0 0 1-.004-.011c-.002-.002-.002-.005-.003-.007l-.002-.009-.003-.009-.003-.009-.004-.011-.002-.004c-.264-.775-1.022-1.57-2.112-2.368-7.299 3.315-29.136-.767-29.136-.767s2.114 15.297-2.224 19.263a3.55 3.55 0 0 1-1.084.688c-5.749 2.282-12.115-16.587-12.115-16.587s-.39 5.403-6.535 11.022a30.722 30.722 0 0 1-3.246 2.577 108.42 108.42 0 0 0-1.802 5.357l-.001.002-.005.02a86.137 86.137 0 0 0-1.298 4.672c-.615 2.502-1.103 5.079-1.258 7.376h-.001c-.169 2.437.037 4.562.859 5.957 0 .001.002.006.004.007.001.002.004.005.003.008l.009.011.002.003c.311.52.708.933 1.205 1.223 2.246 1.304 5.932-.273 9.715-2.808.007-.006.014-.01.021-.014.006-.006.013-.009.017-.013 2.861-1.923 5.773-4.388 8.156-6.568 3.117-2.85 5.33-5.209 5.33-5.209s15.379 14.94 21.522 15.255c.437.024.826-.028 1.161-.164a1.46 1.46 0 0 0 .442-.28Z" clip-rule="evenodd"/><defs><linearGradient id="a" x1="238.935" x2="392.206" y1="656.769" y2="1035" gradientUnits="userSpaceOnUse"><stop stop-color="#fff"/><stop offset="1" stop-color="#E7FCF9"/></linearGradient><linearGradient id="b" x1="1692.53" x2="1848.67" y1="686.586" y2="1039.56" gradientUnits="userSpaceOnUse"><stop stop-color="#fff"/><stop offset="1" stop-color="#E7FCF9"/></linearGradient><linearGradient id="c" x1="972.155" x2="1059.52" y1="756.817" y2="1099.95" gradientUnits="userSpaceOnUse"><stop stop-color="#fff"/><stop offset="1" stop-color="#E7FCF9"/></linearGradient><linearGradient id="g" x1="1683.07" x2="1731.14" y1="669.759" y2="726.294" gradientUnits="userSpaceOnUse"><stop stop-color="#fff"/><stop offset="1" stop-color="#E1FAF6"/></linearGradient><linearGradient id="h" x1="1800.75" x2="1823.69" y1="704.105" y2="744.238" gradientUnits="userSpaceOnUse"><stop stop-color="#fff"/><stop offset="1" stop-color="#E8F8F5"/></linearGradient><linearGradient id="i" x1="360.808" x2="391.88" y1="648.73" y2="685.272" gradientUnits="userSpaceOnUse"><stop stop-color="#fff"/><stop offset="1" stop-color="#EFFDFB"/></linearGradient><linearGradient id="j" x1="181.007" x2="223.559" y1="617.403" y2="666.922" gradientUnits="userSpaceOnUse"><stop stop-color="#fff"/><stop offset="1" stop-color="#EFFDFB"/></linearGradient><linearGradient id="k" x1="218.053" x2="237.244" y1="677.217" y2="706.918" gradientUnits="userSpaceOnUse"><stop stop-color="#fff"/><stop offset="1" stop-color="#EFFDFB"/></linearGradient><filter id="d" width="180.662" height="69.508" x="1548.86" y="498.452" color-interpolation-filters="sRGB" filterUnits="userSpaceOnUse"><feFlood flood-opacity="0" result="BackgroundImageFix"/><feBlend in="SourceGraphic" in2="BackgroundImageFix" result="shape"/><feColorMatrix in="SourceAlpha" result="hardAlpha" values="0 0 0 0 0 0 0 0 0 0 0 0 0 0 0 0 0 0 127 0"/><feOffset dy="1.06"/><feComposite in2="hardAlpha" k2="-1" k3="1" operator="arithmetic"/><feColorMatrix values="0 0 0 0 0 0 0 0 0 0 0 0 0 0 0 0 0 0 0.25 0"/><feBlend in2="shape" result="effect1_innerShadow_1322_14609"/></filter><filter id="e" width="41.668" height="60.124" x="1682.77" y="469.184" color-interpolation-filters="sRGB" filterUnits="userSpaceOnUse"><feFlood flood-opacity="0" result="BackgroundImageFix"/><feBlend in="SourceGraphic" in2="BackgroundImageFix" result="shape"/><feColorMatrix in="SourceAlpha" result="hardAlpha" values="0 0 0 0 0 0 0 0 0 0 0 0 0 0 0 0 0 0 127 0"/><feOffset dy="1.06"/><feComposite in2="hardAlpha" k2="-1" k3="1" operator="arithmetic"/><feColorMatrix values="0 0 0 0 0 0 0 0 0 0 0 0 0 0 0 0 0 0 0.25 0"/><feBlend in2="shape" result="effect1_innerShadow_1322_14609"/></filter><filter id="f" width="135.841" height="71.95" x="1516.91" y="436.484" color-interpolation-filters="sRGB" filterUnits="userSpaceOnUse"><feFlood flood-opacity="0" result="BackgroundImageFix"/><feBlend in="SourceGraphic" in2="BackgroundImageFix" result="shape"/><feColorMatrix in="SourceAlpha" result="hardAlpha" values="0 0 0 0 0 0 0 0 0 0 0 0 0 0 0 0 0 0 127 0"/><feOffset dy="1.06"/><feComposite in2="hardAlpha" k2="-1" k3="1" operator="arithmetic"/><feColorMatrix values="0 0 0 0 0 0 0 0 0 0 0 0 0 0 0 0 0 0 0.25 0"/><feBlend in2="shape" result="effect1_innerShadow_1322_14609"/></filter></defs></svg>